<svg width="161" height="70" viewBox="0 0 161 70" fill="none" xmlns="http://www.w3.org/2000/svg">
<path fill-rule="evenodd" clip-rule="evenodd" d="M5.15403 24.5226V40.3065H13.0725V45.5089H0V24.5226H5.15403ZM60.0047 45.5098V24.5236H65.1577V45.5089H60.0047V45.5098ZM47.3631 24.5226V40.3065H55.2826V45.5089H42.2091V24.5226H47.3631ZM146.468 36.7484V40.9853H153.838V45.5089H141.645V24.5226H153.839V28.9194H146.468V33.0851H153.838V36.7484H146.468ZM94.4451 24.5226H99.4677L89.6727 45.4903H89.3886L84.1264 34.5539L78.7743 45.4903H78.4863L68.959 24.5236H73.7951L78.6332 35.3888L83.9737 24.5236H84.2945L89.5336 35.3888L94.4451 24.5236V24.5226ZM106.997 24.5236L118.035 45.5089H113.21L111.99 42.9828H101.583L100.298 45.5089H95.4258L106.463 24.5226L106.998 24.5236H106.997ZM103.446 39.3233H110.224L106.925 32.4862L103.446 39.3233ZM132.989 38.4006L137.742 45.5089H132.288L128.229 39.4413H125.856V45.5079H121.245V24.5236H129.332C133.178 24.5236 136.616 27.7998 136.616 31.983C136.616 33.2787 136.282 34.5522 135.646 35.6777C135.01 36.8033 134.094 37.7421 132.989 38.4016V38.4006ZM128.712 35.2503C129.544 35.2503 130.342 34.9168 130.93 34.3232C131.518 33.7296 131.848 32.9244 131.848 32.0849C131.848 31.2454 131.518 30.4402 130.93 29.8466C130.342 29.2529 129.544 28.9194 128.712 28.9194H125.856V35.2494H128.712V35.2503ZM156.966 26.9581V24.8952H156.132V24.5226H158.213V24.8952H157.379V26.959H156.966V26.9581ZM158.577 26.9581V24.5226H158.994L159.79 25.6677L160.586 24.5226H161V26.959H160.6V25.143L159.786 26.2909L158.973 25.143V26.959H158.577V26.9581ZM21.2432 25.1712V44.8603C20.4358 44.4263 19.6848 43.8929 19.0073 43.2724V26.7601C19.6847 26.1392 20.4357 25.6056 21.2432 25.1712V25.1712ZM25.345 23.9199V46.1116C24.5862 46.0369 23.8371 45.8826 23.11 45.6513V24.3793C23.8373 24.1487 24.5863 23.9951 25.345 23.9209V23.9199ZM27.2118 46.135V23.8975C29.0883 24.0243 30.758 24.6426 31.987 25.378L29.4748 29.1389L31.4198 32.0785L29.4757 35.0192L31.4198 37.9588L29.4748 40.8985L31.9716 44.6652C30.7106 45.4094 28.9404 46.0414 27.2118 46.135ZM33.7002 26.6245C34.8875 27.6694 35.8391 28.9592 36.4906 30.4068C37.1422 31.8544 37.4787 33.4262 37.4773 35.0162C37.4773 38.3636 36.0134 41.3637 33.6993 43.408L32.0402 40.8985L33.9843 37.9588L32.0392 35.0192L33.9843 32.0776L32.0392 29.1379L33.7012 26.6245H33.7002ZM17.1414 28.9877V41.0458C15.9924 39.2488 15.3823 37.155 15.3848 35.0162C15.3848 32.7944 16.0322 30.7267 17.1414 28.9877V28.9877Z" fill="#1F1F1F"/>
</svg>
