<svg width="615" height="615" viewBox="0 0 615 615" fill="none" xmlns="http://www.w3.org/2000/svg">
<path d="M403.235 284.666C403.188 284.668 403.143 284.651 403.108 284.619C403.074 284.587 403.054 284.542 403.052 284.495C403.05 284.448 403.067 284.402 403.099 284.368C403.132 284.333 403.176 284.313 403.223 284.312C403.27 284.31 403.316 284.327 403.35 284.359C403.384 284.391 403.405 284.436 403.406 284.483C403.408 284.53 403.391 284.576 403.359 284.61C403.327 284.645 403.282 284.665 403.235 284.666Z" fill="url(#paint0_linear_2031_4650)"/>
<path d="M403.141 298.794C403.087 298.796 403.034 298.776 402.995 298.739C402.955 298.702 402.932 298.651 402.93 298.597C402.929 298.571 402.934 298.544 402.943 298.52C402.953 298.495 402.967 298.473 402.985 298.454C403.004 298.435 403.026 298.42 403.05 298.41C403.075 298.4 403.101 298.395 403.127 298.395C403.179 298.393 403.229 298.412 403.267 298.447C403.305 298.483 403.327 298.531 403.329 298.583C403.331 298.609 403.328 298.636 403.319 298.661C403.311 298.686 403.298 298.709 403.28 298.729C403.262 298.748 403.241 298.764 403.217 298.775C403.193 298.787 403.167 298.793 403.141 298.794Z" fill="url(#paint1_linear_2031_4650)"/>
<path d="M401.777 312.868C401.717 312.867 401.66 312.844 401.617 312.803C401.574 312.761 401.549 312.704 401.547 312.645C401.545 312.586 401.566 312.529 401.607 312.486C401.647 312.443 401.702 312.417 401.761 312.415C401.82 312.413 401.879 312.434 401.923 312.474C401.967 312.514 401.995 312.569 401.999 312.629C402 312.659 401.995 312.689 401.984 312.718C401.974 312.746 401.958 312.772 401.937 312.794C401.916 312.817 401.892 312.834 401.864 312.847C401.837 312.859 401.807 312.867 401.777 312.868Z" fill="url(#paint2_linear_2031_4650)"/>
<path d="M399.175 326.816C399.346 326.81 399.48 326.666 399.474 326.495C399.468 326.323 399.325 326.189 399.153 326.195C398.982 326.201 398.848 326.345 398.854 326.516C398.86 326.688 399.004 326.822 399.175 326.816Z" fill="url(#paint3_linear_2031_4650)"/>
<path d="M395.357 340.478C395.577 340.47 395.75 340.285 395.742 340.065C395.734 339.845 395.55 339.672 395.33 339.68C395.109 339.687 394.937 339.872 394.945 340.093C394.952 340.313 395.137 340.486 395.357 340.478Z" fill="url(#paint4_linear_2031_4650)"/>
<path d="M390.348 353.809C390.205 353.813 390.066 353.761 389.961 353.663C389.856 353.565 389.794 353.43 389.789 353.287C389.784 353.143 389.836 353.003 389.934 352.898C390.032 352.793 390.168 352.732 390.311 352.727C390.454 352.722 390.594 352.774 390.699 352.872C390.803 352.97 390.865 353.106 390.87 353.249C390.875 353.392 390.823 353.532 390.725 353.637C390.627 353.742 390.492 353.804 390.348 353.809Z" fill="url(#paint5_linear_2031_4650)"/>
<path d="M384.187 366.638C384.569 366.624 384.867 366.304 384.854 365.922C384.841 365.54 384.52 365.241 384.139 365.254C383.757 365.268 383.459 365.588 383.472 365.97C383.485 366.352 383.805 366.651 384.187 366.638Z" fill="url(#paint6_linear_2031_4650)"/>
<path d="M376.932 378.874C376.711 378.882 376.496 378.802 376.334 378.651C376.173 378.5 376.078 378.291 376.07 378.07C376.062 377.849 376.143 377.634 376.293 377.472C376.444 377.311 376.653 377.215 376.874 377.208C377.094 377.2 377.309 377.28 377.471 377.431C377.633 377.582 377.728 377.791 377.735 378.012C377.743 378.233 377.663 378.448 377.512 378.61C377.361 378.772 377.152 378.867 376.932 378.874Z" fill="url(#paint7_linear_2031_4650)"/>
<path d="M368.641 390.42C368.382 390.429 368.13 390.335 367.939 390.158C367.749 389.982 367.635 389.738 367.624 389.478C367.615 389.217 367.71 388.963 367.888 388.772C368.066 388.581 368.312 388.469 368.573 388.46C368.702 388.456 368.83 388.476 368.951 388.522C369.071 388.567 369.182 388.636 369.275 388.725C369.369 388.813 369.444 388.919 369.497 389.036C369.55 389.154 369.578 389.281 369.582 389.41C369.586 389.538 369.565 389.666 369.52 389.786C369.476 389.906 369.408 390.016 369.32 390.11C369.233 390.204 369.128 390.279 369.012 390.332C368.895 390.385 368.769 390.415 368.641 390.42Z" fill="url(#paint8_linear_2031_4650)"/>
<path d="M359.393 401.199C359.092 401.209 358.8 401.099 358.58 400.894C358.36 400.689 358.23 400.404 358.22 400.103C358.212 399.804 358.322 399.513 358.527 399.295C358.732 399.076 359.015 398.948 359.314 398.938C359.463 398.931 359.611 398.955 359.75 399.006C359.89 399.057 360.018 399.135 360.127 399.236C360.236 399.337 360.324 399.459 360.386 399.595C360.448 399.73 360.482 399.876 360.487 400.024C360.498 400.325 360.388 400.618 360.183 400.838C359.978 401.058 359.694 401.188 359.393 401.199Z" fill="url(#paint9_linear_2031_4650)"/>
<path d="M349.219 411.122C348.878 411.134 348.547 411.01 348.298 410.777C348.049 410.545 347.902 410.222 347.89 409.881C347.88 409.542 348.005 409.212 348.238 408.965C348.47 408.717 348.791 408.572 349.13 408.56C349.468 408.55 349.795 408.675 350.042 408.905C350.29 409.136 350.436 409.454 350.45 409.792C350.462 410.132 350.339 410.462 350.109 410.711C349.878 410.961 349.558 411.108 349.219 411.122Z" fill="url(#paint10_linear_2031_4650)"/>
<path d="M338.231 420.08C338.048 420.086 337.865 420.057 337.693 419.992C337.521 419.927 337.364 419.829 337.23 419.703C337.097 419.578 336.989 419.427 336.914 419.259C336.838 419.092 336.797 418.911 336.792 418.727C336.784 418.544 336.813 418.361 336.876 418.188C336.94 418.016 337.037 417.858 337.162 417.723C337.286 417.589 337.436 417.48 337.603 417.403C337.77 417.327 337.95 417.285 338.134 417.278C338.505 417.265 338.866 417.4 339.138 417.654C339.409 417.907 339.569 418.259 339.582 418.63C339.595 419.002 339.46 419.363 339.207 419.635C338.953 419.907 338.602 420.067 338.231 420.08Z" fill="url(#paint11_linear_2031_4650)"/>
<path d="M326.516 428.007C326.121 428.02 325.737 427.876 325.448 427.607C325.159 427.337 324.989 426.964 324.976 426.568C324.968 426.372 324.998 426.176 325.066 425.992C325.134 425.808 325.238 425.639 325.372 425.494C325.505 425.35 325.666 425.234 325.844 425.153C326.023 425.071 326.215 425.025 326.412 425.018C326.809 425.005 327.195 425.149 327.486 425.421C327.776 425.692 327.947 426.067 327.961 426.465C327.972 426.861 327.827 427.245 327.556 427.534C327.285 427.823 326.911 427.993 326.516 428.007Z" fill="url(#paint12_linear_2031_4650)"/>
<path d="M314.148 434.784C313.739 434.798 313.342 434.649 313.043 434.37C312.743 434.09 312.567 433.704 312.553 433.294C312.539 432.885 312.688 432.488 312.967 432.188C313.246 431.889 313.632 431.712 314.041 431.698C314.244 431.69 314.447 431.722 314.637 431.792C314.828 431.863 315.003 431.97 315.152 432.109C315.301 432.247 315.421 432.414 315.506 432.599C315.591 432.784 315.638 432.984 315.645 433.187C315.652 433.39 315.619 433.593 315.547 433.784C315.476 433.974 315.367 434.149 315.228 434.297C315.089 434.446 314.922 434.565 314.737 434.649C314.551 434.732 314.351 434.778 314.148 434.784Z" fill="url(#paint13_linear_2031_4650)"/>
<path d="M301.238 440.506C300.817 440.52 300.407 440.368 300.098 440.081C299.789 439.794 299.606 439.396 299.589 438.974C299.576 438.551 299.731 438.141 300.019 437.832C300.307 437.522 300.706 437.34 301.128 437.323C301.549 437.31 301.958 437.466 302.266 437.754C302.573 438.043 302.754 438.442 302.769 438.863C302.781 439.284 302.627 439.692 302.341 439.999C302.054 440.307 301.658 440.489 301.238 440.506Z" fill="url(#paint14_linear_2031_4650)"/>
<path d="M287.868 444.966C287.447 444.98 287.038 444.827 286.731 444.54C286.423 444.252 286.242 443.854 286.227 443.433C286.213 443.013 286.366 442.603 286.653 442.295C286.94 441.987 287.337 441.806 287.758 441.791C288.177 441.779 288.584 441.933 288.889 442.22C289.195 442.508 289.375 442.904 289.39 443.324C289.404 443.743 289.252 444.151 288.967 444.459C288.682 444.766 288.287 444.949 287.868 444.966Z" fill="url(#paint15_linear_2031_4650)"/>
<path d="M274.154 448.203C275.02 448.173 275.697 447.446 275.667 446.579C275.637 445.713 274.91 445.034 274.044 445.064C273.178 445.095 272.501 445.822 272.531 446.688C272.561 447.555 273.288 448.233 274.154 448.203Z" fill="url(#paint16_linear_2031_4650)"/>
<path d="M260.2 450.18C261.042 450.151 261.7 449.444 261.671 448.602C261.641 447.759 260.936 447.1 260.094 447.13C259.253 447.159 258.594 447.865 258.623 448.708C258.653 449.55 259.359 450.209 260.2 450.18Z" fill="url(#paint17_linear_2031_4650)"/>
<path d="M246.133 450.917C245.745 450.931 245.368 450.79 245.084 450.525C244.801 450.26 244.634 449.893 244.62 449.505C244.613 449.313 244.645 449.122 244.712 448.943C244.78 448.763 244.882 448.599 245.013 448.459C245.144 448.319 245.301 448.206 245.476 448.128C245.651 448.049 245.84 448.006 246.031 448C246.222 447.993 246.413 448.023 246.592 448.089C246.772 448.156 246.936 448.257 247.076 448.388C247.216 448.518 247.328 448.675 247.407 448.85C247.486 449.024 247.529 449.212 247.535 449.404C247.542 449.595 247.512 449.787 247.446 449.967C247.38 450.147 247.278 450.312 247.148 450.453C247.018 450.593 246.861 450.707 246.687 450.787C246.513 450.866 246.324 450.911 246.133 450.917Z" fill="url(#paint18_linear_2031_4650)"/>
<path d="M232.039 450.378C231.681 450.388 231.333 450.256 231.072 450.01C230.811 449.765 230.657 449.426 230.645 449.068C230.632 448.71 230.762 448.363 231.006 448.101C231.25 447.839 231.587 447.685 231.945 447.673C232.302 447.661 232.649 447.791 232.91 448.035C233.172 448.279 233.325 448.617 233.338 448.974C233.35 449.332 233.221 449.681 232.977 449.944C232.734 450.207 232.396 450.363 232.039 450.378Z" fill="url(#paint19_linear_2031_4650)"/>
<path d="M218.034 448.592C217.707 448.601 217.389 448.48 217.15 448.255C216.912 448.031 216.771 447.721 216.76 447.393C216.748 447.066 216.867 446.748 217.09 446.509C217.313 446.27 217.622 446.129 217.948 446.118C218.276 446.107 218.594 446.225 218.834 446.448C219.075 446.671 219.217 446.98 219.231 447.307C219.243 447.637 219.123 447.957 218.898 448.198C218.674 448.439 218.363 448.58 218.034 448.592Z" fill="url(#paint20_linear_2031_4650)"/>
<path d="M204.244 445.564C204.096 445.57 203.949 445.546 203.81 445.494C203.672 445.442 203.545 445.364 203.437 445.263C203.329 445.162 203.242 445.04 203.18 444.906C203.119 444.771 203.085 444.625 203.08 444.477C203.075 444.33 203.099 444.182 203.15 444.044C203.202 443.905 203.281 443.778 203.381 443.67C203.482 443.562 203.603 443.474 203.738 443.413C203.872 443.352 204.018 443.317 204.166 443.312C204.313 443.307 204.46 443.331 204.598 443.383C204.736 443.435 204.862 443.514 204.969 443.615C205.077 443.716 205.163 443.838 205.224 443.972C205.284 444.107 205.317 444.252 205.321 444.399C205.327 444.547 205.304 444.694 205.253 444.833C205.203 444.971 205.125 445.098 205.025 445.207C204.925 445.315 204.804 445.402 204.67 445.464C204.536 445.525 204.391 445.559 204.244 445.564Z" fill="url(#paint21_linear_2031_4650)"/>
<path d="M190.757 441.319C190.489 441.329 190.229 441.231 190.033 441.048C189.837 440.865 189.721 440.612 189.712 440.344C189.703 440.076 189.8 439.815 189.983 439.619C190.166 439.423 190.419 439.307 190.687 439.298C190.955 439.289 191.215 439.386 191.411 439.569C191.607 439.752 191.722 440.006 191.732 440.274C191.741 440.542 191.644 440.803 191.461 440.999C191.278 441.195 191.025 441.31 190.757 441.319Z" fill="url(#paint22_linear_2031_4650)"/>
<path d="M177.699 435.888C177.464 435.896 177.236 435.81 177.064 435.65C176.892 435.489 176.791 435.267 176.782 435.032C176.774 434.797 176.86 434.568 177.02 434.396C177.18 434.224 177.402 434.122 177.637 434.114C177.872 434.106 178.101 434.192 178.273 434.352C178.445 434.513 178.546 434.735 178.554 434.97C178.562 435.205 178.477 435.434 178.316 435.606C178.156 435.778 177.934 435.879 177.699 435.888Z" fill="url(#paint23_linear_2031_4650)"/>
<path d="M165.16 429.31C164.955 429.317 164.757 429.243 164.607 429.103C164.458 428.964 164.37 428.77 164.362 428.566C164.355 428.36 164.429 428.16 164.569 428.009C164.708 427.858 164.901 427.768 165.106 427.759C165.312 427.754 165.512 427.83 165.663 427.971C165.813 428.111 165.903 428.306 165.913 428.512C165.918 428.717 165.841 428.916 165.7 429.066C165.559 429.215 165.365 429.303 165.16 429.31Z" fill="url(#paint24_linear_2031_4650)"/>
<path d="M153.243 421.735C153.153 421.739 153.063 421.726 152.979 421.695C152.894 421.664 152.817 421.616 152.751 421.554C152.685 421.493 152.632 421.419 152.595 421.337C152.559 421.255 152.539 421.166 152.537 421.076C152.532 420.985 152.546 420.895 152.577 420.81C152.608 420.725 152.655 420.647 152.716 420.581C152.778 420.514 152.851 420.46 152.933 420.423C153.016 420.385 153.104 420.364 153.195 420.361C153.378 420.354 153.556 420.421 153.69 420.546C153.824 420.671 153.903 420.845 153.91 421.028C153.913 421.118 153.898 421.208 153.866 421.293C153.834 421.378 153.786 421.455 153.724 421.521C153.662 421.587 153.587 421.64 153.505 421.676C153.422 421.713 153.333 421.733 153.243 421.735Z" fill="url(#paint25_linear_2031_4650)"/>
<path d="M142.033 413.105C141.863 413.108 141.699 413.045 141.575 412.928C141.452 412.811 141.379 412.65 141.373 412.48C141.367 412.31 141.429 412.146 141.544 412.022C141.66 411.898 141.82 411.825 141.989 411.819C142.159 411.813 142.324 411.874 142.449 411.99C142.575 412.105 142.649 412.265 142.658 412.435C142.664 412.607 142.601 412.774 142.484 412.899C142.367 413.025 142.205 413.099 142.033 413.105Z" fill="url(#paint26_linear_2031_4650)"/>
<path d="M131.626 403.551C131.466 403.556 131.311 403.498 131.194 403.389C131.077 403.28 131.008 403.129 131.003 402.969C131 402.89 131.013 402.811 131.041 402.738C131.068 402.664 131.111 402.597 131.165 402.539C131.219 402.482 131.284 402.436 131.356 402.404C131.428 402.372 131.506 402.355 131.584 402.353C131.742 402.348 131.895 402.405 132.01 402.513C132.125 402.62 132.193 402.77 132.199 402.927C132.204 403.086 132.147 403.24 132.04 403.356C131.933 403.473 131.784 403.543 131.626 403.551Z" fill="url(#paint27_linear_2031_4650)"/>
<path d="M122.084 393.114C121.938 393.119 121.796 393.066 121.689 392.966C121.583 392.867 121.52 392.729 121.515 392.583C121.51 392.437 121.563 392.295 121.662 392.189C121.762 392.082 121.9 392.019 122.045 392.014C122.191 392.009 122.333 392.062 122.439 392.162C122.546 392.261 122.609 392.399 122.614 392.545C122.619 392.691 122.566 392.833 122.466 392.939C122.367 393.046 122.229 393.109 122.084 393.114Z" fill="url(#paint28_linear_2031_4650)"/>
<path d="M113.499 381.925C113.353 381.93 113.21 381.877 113.102 381.778C112.994 381.679 112.93 381.541 112.922 381.394C112.919 381.248 112.975 381.106 113.075 380.999C113.176 380.893 113.315 380.83 113.461 380.825C113.607 380.82 113.749 380.873 113.855 380.973C113.962 381.072 114.024 381.21 114.029 381.356C114.035 381.502 113.982 381.644 113.882 381.75C113.783 381.857 113.645 381.92 113.499 381.925Z" fill="url(#paint29_linear_2031_4650)"/>
<path d="M105.929 370.052C106.252 370.041 106.505 369.77 106.494 369.447C106.482 369.124 106.211 368.871 105.889 368.882C105.566 368.893 105.313 369.164 105.324 369.488C105.336 369.811 105.606 370.064 105.929 370.052Z" fill="url(#paint30_linear_2031_4650)"/>
<path d="M99.4465 357.565C99.282 357.571 99.1219 357.511 99.0016 357.398C98.8812 357.286 98.8104 357.131 98.8047 356.966C98.7989 356.802 98.8588 356.641 98.9711 356.521C99.0833 356.4 99.2389 356.329 99.4034 356.324C99.5678 356.318 99.7277 356.378 99.8481 356.49C99.9684 356.603 100.039 356.758 100.045 356.923C100.051 357.088 99.9908 357.248 99.8786 357.368C99.7663 357.488 99.611 357.559 99.4465 357.565Z" fill="url(#paint31_linear_2031_4650)"/>
<path d="M94.107 344.55C94.4691 344.537 94.7523 344.233 94.7397 343.871C94.7271 343.509 94.4234 343.225 94.0614 343.238C93.6994 343.25 93.4161 343.554 93.4287 343.917C93.4413 344.279 93.745 344.563 94.107 344.55Z" fill="url(#paint32_linear_2031_4650)"/>
<path d="M89.9426 331.148C89.7476 331.154 89.5579 331.083 89.4152 330.95C89.2725 330.817 89.1887 330.632 89.1819 330.437C89.1751 330.242 89.2459 330.052 89.379 329.909C89.5121 329.766 89.6964 329.682 89.8914 329.676C90.0864 329.669 90.2762 329.74 90.4189 329.873C90.5615 330.006 90.6456 330.191 90.6524 330.386C90.6591 330.581 90.5881 330.771 90.455 330.914C90.3219 331.057 90.1376 331.141 89.9426 331.148Z" fill="url(#paint33_linear_2031_4650)"/>
<path d="M87.001 317.454C87.4609 317.438 87.8207 317.052 87.8047 316.592C87.7887 316.131 87.4029 315.771 86.9431 315.787C86.4832 315.803 86.1233 316.189 86.1393 316.65C86.1553 317.11 86.5411 317.47 87.001 317.454Z" fill="url(#paint34_linear_2031_4650)"/>
<path d="M85.2845 303.541C85.0496 303.549 84.8211 303.463 84.6492 303.303C84.4773 303.142 84.376 302.92 84.3679 302.685C84.3597 302.45 84.4452 302.221 84.6056 302.049C84.7659 301.877 84.9879 301.776 85.2229 301.768C85.4578 301.759 85.6863 301.845 85.8582 302.005C86.0301 302.166 86.1314 302.388 86.1395 302.623C86.1477 302.859 86.0622 303.087 85.9018 303.259C85.7415 303.431 85.5195 303.533 85.2845 303.541Z" fill="url(#paint35_linear_2031_4650)"/>
<path d="M84.7978 289.54C85.3653 289.52 85.8093 289.044 85.7896 288.476C85.7699 287.908 85.2938 287.463 84.7263 287.483C84.1587 287.503 83.7147 287.979 83.7344 288.547C83.7542 289.115 84.2303 289.56 84.7978 289.54Z" fill="url(#paint36_linear_2031_4650)"/>
<path d="M85.5356 275.559C85.3871 275.564 85.2391 275.54 85.1001 275.487C84.961 275.435 84.8338 275.356 84.7256 275.254C84.6173 275.152 84.5303 275.029 84.4695 274.894C84.4087 274.758 84.3751 274.612 84.3711 274.463C84.3648 274.315 84.3881 274.166 84.4393 274.026C84.4905 273.887 84.5689 273.759 84.6698 273.65C84.7707 273.54 84.8921 273.452 85.0272 273.391C85.1623 273.329 85.3082 273.294 85.4567 273.289C85.7574 273.278 86.0502 273.388 86.2702 273.594C86.4902 273.799 86.6196 274.084 86.6301 274.385C86.6405 274.686 86.5312 274.978 86.326 275.198C86.1208 275.419 85.8363 275.548 85.5356 275.559Z" fill="url(#paint37_linear_2031_4650)"/>
<path d="M87.5281 261.694C87.1992 261.705 86.8792 261.585 86.6385 261.361C86.3978 261.136 86.2563 260.825 86.2449 260.496C86.2334 260.167 86.353 259.846 86.5775 259.606C86.802 259.365 87.1129 259.223 87.4418 259.211C87.7693 259.202 88.0872 259.323 88.3259 259.548C88.5647 259.772 88.705 260.082 88.7164 260.41C88.7278 260.738 88.6093 261.056 88.3867 261.297C88.1641 261.537 87.8554 261.68 87.5281 261.694Z" fill="url(#paint38_linear_2031_4650)"/>
<path d="M90.7439 248.062C90.5675 248.068 90.3915 248.039 90.2263 247.977C90.0611 247.915 89.9099 247.82 89.7812 247.699C89.6525 247.578 89.549 247.433 89.4766 247.272C89.4042 247.111 89.3644 246.937 89.3595 246.76C89.3533 246.585 89.3817 246.409 89.4433 246.245C89.5049 246.08 89.5983 245.929 89.7182 245.8C89.8381 245.671 89.9822 245.568 90.1422 245.495C90.3021 245.422 90.4749 245.381 90.6505 245.375C91.0047 245.365 91.3484 245.495 91.6074 245.737C91.8665 245.979 92.0201 246.313 92.0347 246.667C92.0471 247.023 91.9183 247.37 91.6765 247.631C91.4347 247.892 91.0994 248.047 90.7439 248.062Z" fill="url(#paint39_linear_2031_4650)"/>
<path d="M95.1674 234.734C95.9453 234.707 96.554 234.054 96.5269 233.275C96.4998 232.496 95.8473 231.887 95.0694 231.914C94.2915 231.941 93.6828 232.594 93.7099 233.373C93.737 234.151 94.3895 234.761 95.1674 234.734Z" fill="url(#paint40_linear_2031_4650)"/>
<path d="M100.768 221.853C101.585 221.825 102.225 221.139 102.196 220.321C102.168 219.503 101.482 218.863 100.665 218.892C99.8484 218.92 99.2091 219.606 99.2375 220.424C99.266 221.242 99.9513 221.881 100.768 221.853Z" fill="url(#paint41_linear_2031_4650)"/>
<path d="M107.488 209.528C107.077 209.542 106.677 209.393 106.376 209.112C106.076 208.831 105.899 208.442 105.884 208.03C105.87 207.619 106.019 207.219 106.3 206.917C106.581 206.616 106.969 206.439 107.381 206.425C107.792 206.41 108.192 206.56 108.493 206.841C108.793 207.122 108.97 207.511 108.985 207.923C108.999 208.334 108.85 208.734 108.569 209.035C108.288 209.337 107.9 209.514 107.488 209.528Z" fill="url(#paint42_linear_2031_4650)"/>
<path d="M115.277 197.832C115.066 197.84 114.855 197.807 114.656 197.734C114.458 197.661 114.276 197.549 114.121 197.405C113.966 197.261 113.841 197.088 113.753 196.895C113.665 196.703 113.616 196.495 113.609 196.284C113.6 196.071 113.634 195.859 113.708 195.66C113.782 195.461 113.894 195.279 114.039 195.123C114.184 194.968 114.358 194.843 114.551 194.755C114.744 194.668 114.953 194.62 115.165 194.613C115.593 194.599 116.009 194.754 116.321 195.047C116.634 195.339 116.819 195.743 116.833 196.171C116.846 196.598 116.689 197.012 116.398 197.323C116.106 197.634 115.703 197.817 115.277 197.832Z" fill="url(#paint43_linear_2031_4650)"/>
<path d="M124.066 186.847C123.629 186.862 123.204 186.703 122.884 186.404C122.564 186.106 122.376 185.693 122.361 185.255C122.346 184.818 122.505 184.392 122.803 184.072C123.101 183.752 123.514 183.563 123.951 183.548C124.389 183.533 124.815 183.692 125.136 183.99C125.457 184.289 125.647 184.702 125.665 185.14C125.678 185.579 125.517 186.004 125.217 186.324C124.917 186.643 124.504 186.832 124.066 186.847Z" fill="url(#paint44_linear_2031_4650)"/>
<path d="M133.797 176.681C133.348 176.697 132.911 176.533 132.583 176.227C132.255 175.92 132.061 175.496 132.046 175.047C132.037 174.824 132.072 174.602 132.15 174.393C132.227 174.184 132.345 173.992 132.497 173.829C132.649 173.666 132.832 173.535 133.034 173.443C133.237 173.351 133.456 173.301 133.679 173.294C134.128 173.278 134.564 173.442 134.892 173.749C135.221 174.055 135.414 174.48 135.43 174.929C135.443 175.377 135.279 175.813 134.973 176.141C134.667 176.469 134.245 176.664 133.797 176.681Z" fill="url(#paint45_linear_2031_4650)"/>
<path d="M144.383 167.409C143.913 167.425 143.456 167.254 143.112 166.933C142.769 166.612 142.566 166.168 142.55 165.697C142.545 165.234 142.722 164.788 143.042 164.453C143.362 164.119 143.799 163.923 144.262 163.907C144.724 163.891 145.174 164.056 145.516 164.367C145.859 164.679 146.066 165.112 146.093 165.574C146.11 166.044 145.939 166.502 145.618 166.846C145.297 167.19 144.853 167.393 144.383 167.409Z" fill="url(#paint46_linear_2031_4650)"/>
<path d="M155.749 159.104C155.279 159.12 154.822 158.949 154.478 158.628C154.134 158.307 153.932 157.862 153.915 157.392C153.899 156.922 154.07 156.464 154.391 156.12C154.711 155.776 155.155 155.573 155.625 155.557C156.095 155.541 156.552 155.712 156.896 156.033C157.24 156.354 157.442 156.799 157.459 157.269C157.475 157.739 157.304 158.197 156.983 158.541C156.663 158.885 156.218 159.088 155.749 159.104Z" fill="url(#paint47_linear_2031_4650)"/>
<path d="M167.797 151.832C167.561 151.84 167.325 151.801 167.104 151.717C166.883 151.633 166.681 151.505 166.51 151.341C166.339 151.177 166.203 150.981 166.108 150.764C166.014 150.546 165.965 150.313 165.962 150.076C165.946 149.606 166.117 149.148 166.438 148.804C166.758 148.46 167.203 148.257 167.672 148.241C167.909 148.227 168.145 148.26 168.368 148.339C168.591 148.417 168.796 148.54 168.971 148.7C169.146 148.859 169.288 149.052 169.387 149.267C169.487 149.482 169.542 149.715 169.55 149.951C169.567 150.433 169.392 150.902 169.063 151.255C168.734 151.607 168.279 151.815 167.797 151.832Z" fill="url(#paint48_linear_2031_4650)"/>
<path d="M180.452 145.657C181.474 145.621 182.274 144.763 182.239 143.739C182.203 142.716 181.346 141.915 180.323 141.951C179.301 141.986 178.5 142.845 178.536 143.868C178.572 144.892 179.429 145.693 180.452 145.657Z" fill="url(#paint49_linear_2031_4650)"/>
<path d="M193.617 140.636C193.116 140.654 192.629 140.471 192.263 140.129C191.897 139.787 191.681 139.314 191.664 138.813C191.655 138.566 191.696 138.319 191.783 138.087C191.87 137.855 192.002 137.643 192.171 137.462C192.34 137.281 192.543 137.136 192.769 137.034C192.995 136.932 193.238 136.875 193.486 136.868C193.985 136.85 194.47 137.032 194.836 137.372C195.202 137.712 195.418 138.183 195.438 138.682C195.446 138.93 195.406 139.177 195.319 139.41C195.232 139.642 195.101 139.855 194.932 140.037C194.762 140.218 194.559 140.365 194.334 140.467C194.108 140.57 193.864 140.628 193.617 140.636Z" fill="url(#paint50_linear_2031_4650)"/>
<path d="M207.168 136.783C206.919 136.791 206.671 136.751 206.439 136.663C206.206 136.576 205.992 136.443 205.811 136.273C205.63 136.103 205.484 135.898 205.381 135.671C205.279 135.445 205.223 135.2 205.215 134.951C205.206 134.703 205.247 134.456 205.334 134.223C205.42 133.991 205.552 133.778 205.721 133.596C205.89 133.415 206.093 133.268 206.319 133.165C206.545 133.063 206.788 133.005 207.036 132.997C207.284 132.988 207.531 133.028 207.763 133.115C207.995 133.202 208.208 133.334 208.39 133.504C208.571 133.673 208.717 133.876 208.82 134.102C208.923 134.328 208.98 134.572 208.989 134.82C208.999 135.069 208.959 135.317 208.873 135.55C208.786 135.783 208.655 135.997 208.486 136.18C208.317 136.362 208.113 136.51 207.887 136.613C207.661 136.716 207.416 136.774 207.168 136.783Z" fill="url(#paint51_linear_2031_4650)"/>
<path d="M221.009 134.144C222.056 134.108 222.876 133.229 222.839 132.181C222.803 131.133 221.925 130.313 220.878 130.349C219.831 130.386 219.011 131.265 219.048 132.313C219.084 133.361 219.963 134.181 221.009 134.144Z" fill="url(#paint52_linear_2031_4650)"/>
<path d="M235.035 132.725C236.082 132.688 236.902 131.809 236.865 130.761C236.829 129.713 235.951 128.893 234.904 128.93C233.857 128.966 233.037 129.845 233.074 130.893C233.11 131.941 233.989 132.761 235.035 132.725Z" fill="url(#paint53_linear_2031_4650)"/>
<path d="M249.13 132.51C250.157 132.474 250.961 131.612 250.926 130.583C250.89 129.555 250.028 128.75 249.001 128.786C247.973 128.822 247.169 129.684 247.205 130.713C247.241 131.741 248.103 132.546 249.13 132.51Z" fill="url(#paint54_linear_2031_4650)"/>
<path d="M263.17 133.531C262.684 133.548 262.211 133.371 261.855 133.038C261.499 132.706 261.289 132.246 261.272 131.759C261.258 131.274 261.436 130.803 261.768 130.448C262.099 130.094 262.558 129.886 263.043 129.869C263.527 129.852 263.999 130.028 264.355 130.359C264.71 130.689 264.921 131.146 264.94 131.632C264.957 132.118 264.78 132.592 264.448 132.948C264.116 133.304 263.656 133.514 263.17 133.531Z" fill="url(#paint55_linear_2031_4650)"/>
<path d="M277.093 135.79C276.623 135.806 276.166 135.635 275.822 135.314C275.479 134.993 275.276 134.549 275.26 134.078C275.244 133.608 275.414 133.151 275.735 132.806C276.056 132.462 276.5 132.26 276.97 132.243C277.44 132.227 277.897 132.398 278.241 132.719C278.584 133.04 278.787 133.485 278.803 133.955C278.82 134.425 278.649 134.883 278.328 135.227C278.007 135.571 277.563 135.774 277.093 135.79Z" fill="url(#paint56_linear_2031_4650)"/>
<path d="M290.739 139.266C291.708 139.233 292.466 138.419 292.432 137.45C292.399 136.48 291.586 135.721 290.617 135.755C289.649 135.789 288.891 136.602 288.924 137.572C288.958 138.541 289.771 139.3 290.739 139.266Z" fill="url(#paint57_linear_2031_4650)"/>
<path d="M304.027 143.9C303.587 143.915 303.158 143.756 302.836 143.456C302.513 143.156 302.322 142.74 302.304 142.3C302.291 141.859 302.453 141.431 302.754 141.11C303.055 140.788 303.471 140.599 303.912 140.584C304.351 140.569 304.778 140.728 305.1 141.029C305.421 141.329 305.611 141.744 305.626 142.184C305.641 142.624 305.481 143.052 305.181 143.373C304.881 143.695 304.466 143.885 304.027 143.9Z" fill="url(#paint58_linear_2031_4650)"/>
<path d="M316.833 149.722C316.417 149.737 316.012 149.585 315.708 149.301C315.403 149.017 315.224 148.624 315.21 148.207C315.203 148.002 315.236 147.797 315.309 147.604C315.381 147.411 315.491 147.235 315.631 147.085C315.772 146.935 315.941 146.814 316.128 146.729C316.316 146.645 316.518 146.599 316.724 146.593C316.928 146.585 317.132 146.619 317.324 146.69C317.516 146.762 317.692 146.871 317.842 147.011C317.992 147.151 318.113 147.319 318.198 147.506C318.283 147.692 318.33 147.894 318.337 148.099C318.345 148.304 318.313 148.51 318.242 148.703C318.171 148.896 318.062 149.073 317.922 149.224C317.782 149.375 317.614 149.496 317.427 149.582C317.24 149.668 317.038 149.715 316.833 149.722Z" fill="url(#paint59_linear_2031_4650)"/>
<path d="M329.062 156.595C328.87 156.603 328.678 156.572 328.497 156.505C328.316 156.438 328.15 156.336 328.008 156.205C327.867 156.074 327.753 155.916 327.673 155.74C327.592 155.565 327.548 155.375 327.541 155.182C327.527 154.792 327.67 154.412 327.936 154.127C328.202 153.841 328.57 153.673 328.96 153.66C329.153 153.653 329.345 153.684 329.526 153.752C329.706 153.82 329.872 153.923 330.012 154.055C330.153 154.187 330.266 154.346 330.345 154.522C330.424 154.698 330.468 154.888 330.473 155.08C330.487 155.468 330.346 155.846 330.081 156.13C329.816 156.414 329.45 156.581 329.062 156.595Z" fill="url(#paint60_linear_2031_4650)"/>
<path d="M340.629 164.528C340.272 164.541 339.924 164.411 339.663 164.167C339.402 163.923 339.248 163.585 339.235 163.227C339.229 163.05 339.258 162.874 339.32 162.708C339.382 162.542 339.476 162.39 339.597 162.261C339.717 162.131 339.862 162.027 340.023 161.953C340.184 161.88 340.358 161.839 340.535 161.833C340.712 161.827 340.888 161.855 341.054 161.917C341.22 161.979 341.371 162.074 341.501 162.194C341.63 162.315 341.735 162.46 341.808 162.622C341.881 162.783 341.922 162.957 341.928 163.134C341.941 163.491 341.811 163.839 341.567 164.101C341.323 164.362 340.986 164.516 340.629 164.528Z" fill="url(#paint61_linear_2031_4650)"/>
<path d="M351.473 173.375C351.159 173.384 350.855 173.268 350.627 173.053C350.398 172.838 350.264 172.542 350.253 172.228C350.242 171.914 350.356 171.609 350.569 171.379C350.782 171.149 351.077 171.012 351.39 170.999C351.546 170.993 351.701 171.019 351.847 171.073C351.994 171.128 352.128 171.211 352.242 171.318C352.356 171.424 352.448 171.552 352.512 171.694C352.577 171.836 352.613 171.99 352.619 172.146C352.624 172.302 352.599 172.457 352.544 172.604C352.489 172.75 352.406 172.884 352.3 172.998C352.194 173.112 352.066 173.204 351.924 173.269C351.782 173.334 351.629 173.37 351.473 173.375Z" fill="url(#paint62_linear_2031_4650)"/>
<path d="M361.42 183.203C361.147 183.212 360.882 183.113 360.683 182.927C360.483 182.741 360.366 182.483 360.356 182.21C360.349 181.939 360.45 181.676 360.635 181.478C360.821 181.28 361.078 181.164 361.349 181.155C361.62 181.145 361.883 181.243 362.082 181.428C362.282 181.612 362.4 181.867 362.412 182.138C362.421 182.411 362.322 182.677 362.136 182.876C361.95 183.076 361.692 183.193 361.42 183.203Z" fill="url(#paint63_linear_2031_4650)"/>
<path d="M370.49 193.842C370.97 193.826 371.345 193.423 371.328 192.943C371.312 192.463 370.909 192.088 370.43 192.105C369.95 192.121 369.575 192.524 369.592 193.004C369.609 193.484 370.011 193.859 370.49 193.842Z" fill="url(#paint64_linear_2031_4650)"/>
<path d="M378.567 205.244C378.964 205.231 379.274 204.898 379.26 204.501C379.246 204.105 378.914 203.794 378.517 203.808C378.121 203.822 377.811 204.155 377.825 204.551C377.839 204.948 378.171 205.258 378.567 205.244Z" fill="url(#paint65_linear_2031_4650)"/>
<path d="M385.595 217.331C385.442 217.336 385.294 217.281 385.182 217.176C385.07 217.072 385.005 216.928 384.999 216.775C384.994 216.622 385.049 216.473 385.154 216.361C385.258 216.249 385.402 216.183 385.555 216.178C385.708 216.173 385.856 216.229 385.968 216.333C386.08 216.437 386.145 216.582 386.151 216.735C386.156 216.888 386.101 217.036 385.996 217.148C385.892 217.26 385.748 217.326 385.595 217.331Z" fill="url(#paint66_linear_2031_4650)"/>
<path d="M391.507 229.98C391.742 229.972 391.926 229.775 391.917 229.54C391.909 229.305 391.712 229.121 391.477 229.129C391.243 229.137 391.059 229.334 391.067 229.569C391.075 229.804 391.272 229.988 391.507 229.98Z" fill="url(#paint67_linear_2031_4650)"/>
<path d="M396.267 243.167C396.224 243.169 396.18 243.163 396.139 243.149C396.098 243.134 396.061 243.111 396.029 243.081C395.998 243.052 395.972 243.016 395.955 242.976C395.937 242.936 395.928 242.893 395.928 242.85C395.925 242.807 395.931 242.763 395.946 242.722C395.96 242.681 395.983 242.644 396.013 242.612C396.043 242.58 396.078 242.555 396.118 242.537C396.158 242.52 396.201 242.511 396.244 242.51C396.287 242.508 396.331 242.514 396.372 242.528C396.413 242.543 396.45 242.566 396.482 242.596C396.514 242.625 396.539 242.661 396.557 242.701C396.574 242.741 396.583 242.784 396.583 242.827C396.586 242.87 396.58 242.914 396.565 242.955C396.551 242.996 396.528 243.033 396.498 243.065C396.469 243.097 396.433 243.122 396.393 243.14C396.353 243.157 396.31 243.166 396.267 243.167Z" fill="url(#paint68_linear_2031_4650)"/>
<path d="M399.825 256.732C399.76 256.732 399.697 256.707 399.649 256.663C399.602 256.618 399.573 256.557 399.568 256.492C399.568 256.428 399.593 256.366 399.638 256.32C399.683 256.273 399.744 256.247 399.808 256.244C399.872 256.242 399.933 256.265 399.98 256.308C400.026 256.352 400.053 256.412 400.056 256.475C400.058 256.539 400.035 256.602 399.992 256.65C399.949 256.698 399.889 256.727 399.825 256.732Z" fill="url(#paint69_linear_2031_4650)"/>
<path d="M402.161 270.606C402.133 270.608 402.105 270.605 402.078 270.596C402.051 270.586 402.027 270.571 402.006 270.552C401.985 270.533 401.969 270.509 401.958 270.483C401.947 270.457 401.941 270.429 401.941 270.401C401.94 270.373 401.945 270.346 401.955 270.32C401.964 270.295 401.98 270.271 401.999 270.251C402.018 270.231 402.041 270.216 402.066 270.205C402.092 270.195 402.119 270.189 402.147 270.19C402.201 270.188 402.253 270.207 402.293 270.244C402.332 270.281 402.356 270.332 402.357 270.386C402.36 270.414 402.356 270.442 402.347 270.468C402.338 270.494 402.325 270.518 402.306 270.538C402.288 270.559 402.266 270.576 402.241 270.587C402.216 270.599 402.189 270.605 402.161 270.606Z" fill="url(#paint70_linear_2031_4650)"/>
<path d="M437.823 99.1731L52.6178 482.185" stroke="#4C49C7" stroke-width="2" stroke-linecap="square" stroke-linejoin="round"/>
<path d="M439 142.397V98H394.603" stroke="#4C49C7" stroke-width="2" stroke-linecap="square"/>
<path d="M3.49495 425.219C17.4233 495.639 85.8004 541.433 156.219 527.505C226.639 513.577 272.433 445.2 258.505 374.781C244.577 304.361 176.2 258.567 105.781 272.495C35.3614 286.423 -10.4334 354.8 3.49495 425.219Z" stroke="url(#paint71_linear_2031_4650)" stroke-width="2" stroke-linecap="round" stroke-linejoin="round"/>
<mask id="path-5-outside-1_2031_4650" maskUnits="userSpaceOnUse" x="22" y="473" width="40" height="40" fill="black">
<rect fill="white" x="22" y="473" width="40" height="40"/>
<path d="M42 508C33.7157 508 27 501.284 27 493C27 484.716 33.7157 478 42 478C50.2843 478 57 484.716 57 493C57 501.284 50.2843 508 42 508Z"/>
</mask>
<path d="M42 508C33.7157 508 27 501.284 27 493C27 484.716 33.7157 478 42 478C50.2843 478 57 484.716 57 493C57 501.284 50.2843 508 42 508Z" fill="url(#paint72_linear_2031_4650)"/>
<path d="M42 503C36.4771 503 32 498.523 32 493L22 493C22 504.046 30.9543 513 42 513L42 503ZM32 493C32 487.477 36.4771 483 42 483L42 473C30.9543 473 22 481.954 22 493L32 493ZM42 483C47.5228 483 52 487.477 52 493L62 493C62 481.954 53.0457 473 42 473L42 483ZM52 493C52 498.523 47.5228 503 42 503L42 513C53.0457 513 62 504.046 62 493L52 493Z" fill="#161616" mask="url(#path-5-outside-1_2031_4650)"/>
<defs>
<linearGradient id="paint0_linear_2031_4650" x1="241.695" y1="128.848" x2="186.14" y2="539.538" gradientUnits="userSpaceOnUse">
<stop stop-color="#4D49C7"/>
<stop offset="0.505208" stop-color="#579AFF"/>
<stop offset="1" stop-color="#66FFA4"/>
</linearGradient>
<linearGradient id="paint1_linear_2031_4650" x1="241.695" y1="128.848" x2="186.14" y2="539.538" gradientUnits="userSpaceOnUse">
<stop stop-color="#4D49C7"/>
<stop offset="0.505208" stop-color="#579AFF"/>
<stop offset="1" stop-color="#66FFA4"/>
</linearGradient>
<linearGradient id="paint2_linear_2031_4650" x1="241.695" y1="128.848" x2="186.14" y2="539.538" gradientUnits="userSpaceOnUse">
<stop stop-color="#4D49C7"/>
<stop offset="0.505208" stop-color="#579AFF"/>
<stop offset="1" stop-color="#66FFA4"/>
</linearGradient>
<linearGradient id="paint3_linear_2031_4650" x1="241.695" y1="128.848" x2="186.14" y2="539.538" gradientUnits="userSpaceOnUse">
<stop stop-color="#4D49C7"/>
<stop offset="0.505208" stop-color="#579AFF"/>
<stop offset="1" stop-color="#66FFA4"/>
</linearGradient>
<linearGradient id="paint4_linear_2031_4650" x1="241.695" y1="128.848" x2="186.14" y2="539.538" gradientUnits="userSpaceOnUse">
<stop stop-color="#4D49C7"/>
<stop offset="0.505208" stop-color="#579AFF"/>
<stop offset="1" stop-color="#66FFA4"/>
</linearGradient>
<linearGradient id="paint5_linear_2031_4650" x1="241.695" y1="128.848" x2="186.14" y2="539.538" gradientUnits="userSpaceOnUse">
<stop stop-color="#4D49C7"/>
<stop offset="0.505208" stop-color="#579AFF"/>
<stop offset="1" stop-color="#66FFA4"/>
</linearGradient>
<linearGradient id="paint6_linear_2031_4650" x1="241.695" y1="128.848" x2="186.14" y2="539.538" gradientUnits="userSpaceOnUse">
<stop stop-color="#4D49C7"/>
<stop offset="0.505208" stop-color="#579AFF"/>
<stop offset="1" stop-color="#66FFA4"/>
</linearGradient>
<linearGradient id="paint7_linear_2031_4650" x1="241.695" y1="128.848" x2="186.14" y2="539.538" gradientUnits="userSpaceOnUse">
<stop stop-color="#4D49C7"/>
<stop offset="0.505208" stop-color="#579AFF"/>
<stop offset="1" stop-color="#66FFA4"/>
</linearGradient>
<linearGradient id="paint8_linear_2031_4650" x1="241.695" y1="128.848" x2="186.14" y2="539.538" gradientUnits="userSpaceOnUse">
<stop stop-color="#4D49C7"/>
<stop offset="0.505208" stop-color="#579AFF"/>
<stop offset="1" stop-color="#66FFA4"/>
</linearGradient>
<linearGradient id="paint9_linear_2031_4650" x1="241.695" y1="128.848" x2="186.14" y2="539.538" gradientUnits="userSpaceOnUse">
<stop stop-color="#4D49C7"/>
<stop offset="0.505208" stop-color="#579AFF"/>
<stop offset="1" stop-color="#66FFA4"/>
</linearGradient>
<linearGradient id="paint10_linear_2031_4650" x1="241.695" y1="128.848" x2="186.14" y2="539.538" gradientUnits="userSpaceOnUse">
<stop stop-color="#4D49C7"/>
<stop offset="0.505208" stop-color="#579AFF"/>
<stop offset="1" stop-color="#66FFA4"/>
</linearGradient>
<linearGradient id="paint11_linear_2031_4650" x1="241.695" y1="128.848" x2="186.14" y2="539.538" gradientUnits="userSpaceOnUse">
<stop stop-color="#4D49C7"/>
<stop offset="0.505208" stop-color="#579AFF"/>
<stop offset="1" stop-color="#66FFA4"/>
</linearGradient>
<linearGradient id="paint12_linear_2031_4650" x1="241.695" y1="128.848" x2="186.14" y2="539.538" gradientUnits="userSpaceOnUse">
<stop stop-color="#4D49C7"/>
<stop offset="0.505208" stop-color="#579AFF"/>
<stop offset="1" stop-color="#66FFA4"/>
</linearGradient>
<linearGradient id="paint13_linear_2031_4650" x1="241.695" y1="128.848" x2="186.14" y2="539.538" gradientUnits="userSpaceOnUse">
<stop stop-color="#4D49C7"/>
<stop offset="0.505208" stop-color="#579AFF"/>
<stop offset="1" stop-color="#66FFA4"/>
</linearGradient>
<linearGradient id="paint14_linear_2031_4650" x1="241.695" y1="128.848" x2="186.14" y2="539.538" gradientUnits="userSpaceOnUse">
<stop stop-color="#4D49C7"/>
<stop offset="0.505208" stop-color="#579AFF"/>
<stop offset="1" stop-color="#66FFA4"/>
</linearGradient>
<linearGradient id="paint15_linear_2031_4650" x1="241.695" y1="128.848" x2="186.14" y2="539.538" gradientUnits="userSpaceOnUse">
<stop stop-color="#4D49C7"/>
<stop offset="0.505208" stop-color="#579AFF"/>
<stop offset="1" stop-color="#66FFA4"/>
</linearGradient>
<linearGradient id="paint16_linear_2031_4650" x1="241.695" y1="128.848" x2="186.14" y2="539.538" gradientUnits="userSpaceOnUse">
<stop stop-color="#4D49C7"/>
<stop offset="0.505208" stop-color="#579AFF"/>
<stop offset="1" stop-color="#66FFA4"/>
</linearGradient>
<linearGradient id="paint17_linear_2031_4650" x1="241.695" y1="128.848" x2="186.14" y2="539.538" gradientUnits="userSpaceOnUse">
<stop stop-color="#4D49C7"/>
<stop offset="0.505208" stop-color="#579AFF"/>
<stop offset="1" stop-color="#66FFA4"/>
</linearGradient>
<linearGradient id="paint18_linear_2031_4650" x1="241.695" y1="128.848" x2="186.14" y2="539.538" gradientUnits="userSpaceOnUse">
<stop stop-color="#4D49C7"/>
<stop offset="0.505208" stop-color="#579AFF"/>
<stop offset="1" stop-color="#66FFA4"/>
</linearGradient>
<linearGradient id="paint19_linear_2031_4650" x1="241.695" y1="128.848" x2="186.14" y2="539.538" gradientUnits="userSpaceOnUse">
<stop stop-color="#4D49C7"/>
<stop offset="0.505208" stop-color="#579AFF"/>
<stop offset="1" stop-color="#66FFA4"/>
</linearGradient>
<linearGradient id="paint20_linear_2031_4650" x1="241.695" y1="128.848" x2="186.14" y2="539.538" gradientUnits="userSpaceOnUse">
<stop stop-color="#4D49C7"/>
<stop offset="0.505208" stop-color="#579AFF"/>
<stop offset="1" stop-color="#66FFA4"/>
</linearGradient>
<linearGradient id="paint21_linear_2031_4650" x1="241.695" y1="128.848" x2="186.14" y2="539.538" gradientUnits="userSpaceOnUse">
<stop stop-color="#4D49C7"/>
<stop offset="0.505208" stop-color="#579AFF"/>
<stop offset="1" stop-color="#66FFA4"/>
</linearGradient>
<linearGradient id="paint22_linear_2031_4650" x1="241.695" y1="128.848" x2="186.14" y2="539.538" gradientUnits="userSpaceOnUse">
<stop stop-color="#4D49C7"/>
<stop offset="0.505208" stop-color="#579AFF"/>
<stop offset="1" stop-color="#66FFA4"/>
</linearGradient>
<linearGradient id="paint23_linear_2031_4650" x1="241.695" y1="128.848" x2="186.14" y2="539.538" gradientUnits="userSpaceOnUse">
<stop stop-color="#4D49C7"/>
<stop offset="0.505208" stop-color="#579AFF"/>
<stop offset="1" stop-color="#66FFA4"/>
</linearGradient>
<linearGradient id="paint24_linear_2031_4650" x1="241.695" y1="128.848" x2="186.14" y2="539.538" gradientUnits="userSpaceOnUse">
<stop stop-color="#4D49C7"/>
<stop offset="0.505208" stop-color="#579AFF"/>
<stop offset="1" stop-color="#66FFA4"/>
</linearGradient>
<linearGradient id="paint25_linear_2031_4650" x1="241.695" y1="128.848" x2="186.14" y2="539.538" gradientUnits="userSpaceOnUse">
<stop stop-color="#4D49C7"/>
<stop offset="0.505208" stop-color="#579AFF"/>
<stop offset="1" stop-color="#66FFA4"/>
</linearGradient>
<linearGradient id="paint26_linear_2031_4650" x1="241.695" y1="128.848" x2="186.14" y2="539.538" gradientUnits="userSpaceOnUse">
<stop stop-color="#4D49C7"/>
<stop offset="0.505208" stop-color="#579AFF"/>
<stop offset="1" stop-color="#66FFA4"/>
</linearGradient>
<linearGradient id="paint27_linear_2031_4650" x1="241.695" y1="128.848" x2="186.14" y2="539.538" gradientUnits="userSpaceOnUse">
<stop stop-color="#4D49C7"/>
<stop offset="0.505208" stop-color="#579AFF"/>
<stop offset="1" stop-color="#66FFA4"/>
</linearGradient>
<linearGradient id="paint28_linear_2031_4650" x1="241.695" y1="128.848" x2="186.14" y2="539.538" gradientUnits="userSpaceOnUse">
<stop stop-color="#4D49C7"/>
<stop offset="0.505208" stop-color="#579AFF"/>
<stop offset="1" stop-color="#66FFA4"/>
</linearGradient>
<linearGradient id="paint29_linear_2031_4650" x1="241.695" y1="128.848" x2="186.14" y2="539.538" gradientUnits="userSpaceOnUse">
<stop stop-color="#4D49C7"/>
<stop offset="0.505208" stop-color="#579AFF"/>
<stop offset="1" stop-color="#66FFA4"/>
</linearGradient>
<linearGradient id="paint30_linear_2031_4650" x1="241.695" y1="128.848" x2="186.14" y2="539.538" gradientUnits="userSpaceOnUse">
<stop stop-color="#4D49C7"/>
<stop offset="0.505208" stop-color="#579AFF"/>
<stop offset="1" stop-color="#66FFA4"/>
</linearGradient>
<linearGradient id="paint31_linear_2031_4650" x1="241.695" y1="128.848" x2="186.14" y2="539.538" gradientUnits="userSpaceOnUse">
<stop stop-color="#4D49C7"/>
<stop offset="0.505208" stop-color="#579AFF"/>
<stop offset="1" stop-color="#66FFA4"/>
</linearGradient>
<linearGradient id="paint32_linear_2031_4650" x1="241.695" y1="128.848" x2="186.14" y2="539.538" gradientUnits="userSpaceOnUse">
<stop stop-color="#4D49C7"/>
<stop offset="0.505208" stop-color="#579AFF"/>
<stop offset="1" stop-color="#66FFA4"/>
</linearGradient>
<linearGradient id="paint33_linear_2031_4650" x1="241.695" y1="128.848" x2="186.14" y2="539.538" gradientUnits="userSpaceOnUse">
<stop stop-color="#4D49C7"/>
<stop offset="0.505208" stop-color="#579AFF"/>
<stop offset="1" stop-color="#66FFA4"/>
</linearGradient>
<linearGradient id="paint34_linear_2031_4650" x1="241.695" y1="128.848" x2="186.14" y2="539.538" gradientUnits="userSpaceOnUse">
<stop stop-color="#4D49C7"/>
<stop offset="0.505208" stop-color="#579AFF"/>
<stop offset="1" stop-color="#66FFA4"/>
</linearGradient>
<linearGradient id="paint35_linear_2031_4650" x1="241.695" y1="128.848" x2="186.14" y2="539.538" gradientUnits="userSpaceOnUse">
<stop stop-color="#4D49C7"/>
<stop offset="0.505208" stop-color="#579AFF"/>
<stop offset="1" stop-color="#66FFA4"/>
</linearGradient>
<linearGradient id="paint36_linear_2031_4650" x1="241.695" y1="128.848" x2="186.14" y2="539.538" gradientUnits="userSpaceOnUse">
<stop stop-color="#4D49C7"/>
<stop offset="0.505208" stop-color="#579AFF"/>
<stop offset="1" stop-color="#66FFA4"/>
</linearGradient>
<linearGradient id="paint37_linear_2031_4650" x1="241.695" y1="128.848" x2="186.14" y2="539.538" gradientUnits="userSpaceOnUse">
<stop stop-color="#4D49C7"/>
<stop offset="0.505208" stop-color="#579AFF"/>
<stop offset="1" stop-color="#66FFA4"/>
</linearGradient>
<linearGradient id="paint38_linear_2031_4650" x1="241.695" y1="128.848" x2="186.14" y2="539.538" gradientUnits="userSpaceOnUse">
<stop stop-color="#4D49C7"/>
<stop offset="0.505208" stop-color="#579AFF"/>
<stop offset="1" stop-color="#66FFA4"/>
</linearGradient>
<linearGradient id="paint39_linear_2031_4650" x1="241.695" y1="128.848" x2="186.14" y2="539.538" gradientUnits="userSpaceOnUse">
<stop stop-color="#4D49C7"/>
<stop offset="0.505208" stop-color="#579AFF"/>
<stop offset="1" stop-color="#66FFA4"/>
</linearGradient>
<linearGradient id="paint40_linear_2031_4650" x1="241.695" y1="128.848" x2="186.14" y2="539.538" gradientUnits="userSpaceOnUse">
<stop stop-color="#4D49C7"/>
<stop offset="0.505208" stop-color="#579AFF"/>
<stop offset="1" stop-color="#66FFA4"/>
</linearGradient>
<linearGradient id="paint41_linear_2031_4650" x1="241.695" y1="128.848" x2="186.14" y2="539.538" gradientUnits="userSpaceOnUse">
<stop stop-color="#4D49C7"/>
<stop offset="0.505208" stop-color="#579AFF"/>
<stop offset="1" stop-color="#66FFA4"/>
</linearGradient>
<linearGradient id="paint42_linear_2031_4650" x1="241.695" y1="128.848" x2="186.14" y2="539.538" gradientUnits="userSpaceOnUse">
<stop stop-color="#4D49C7"/>
<stop offset="0.505208" stop-color="#579AFF"/>
<stop offset="1" stop-color="#66FFA4"/>
</linearGradient>
<linearGradient id="paint43_linear_2031_4650" x1="241.695" y1="128.848" x2="186.14" y2="539.538" gradientUnits="userSpaceOnUse">
<stop stop-color="#4D49C7"/>
<stop offset="0.505208" stop-color="#579AFF"/>
<stop offset="1" stop-color="#66FFA4"/>
</linearGradient>
<linearGradient id="paint44_linear_2031_4650" x1="241.695" y1="128.848" x2="186.14" y2="539.538" gradientUnits="userSpaceOnUse">
<stop stop-color="#4D49C7"/>
<stop offset="0.505208" stop-color="#579AFF"/>
<stop offset="1" stop-color="#66FFA4"/>
</linearGradient>
<linearGradient id="paint45_linear_2031_4650" x1="241.695" y1="128.848" x2="186.14" y2="539.538" gradientUnits="userSpaceOnUse">
<stop stop-color="#4D49C7"/>
<stop offset="0.505208" stop-color="#579AFF"/>
<stop offset="1" stop-color="#66FFA4"/>
</linearGradient>
<linearGradient id="paint46_linear_2031_4650" x1="241.695" y1="128.848" x2="186.14" y2="539.538" gradientUnits="userSpaceOnUse">
<stop stop-color="#4D49C7"/>
<stop offset="0.505208" stop-color="#579AFF"/>
<stop offset="1" stop-color="#66FFA4"/>
</linearGradient>
<linearGradient id="paint47_linear_2031_4650" x1="241.695" y1="128.848" x2="186.14" y2="539.538" gradientUnits="userSpaceOnUse">
<stop stop-color="#4D49C7"/>
<stop offset="0.505208" stop-color="#579AFF"/>
<stop offset="1" stop-color="#66FFA4"/>
</linearGradient>
<linearGradient id="paint48_linear_2031_4650" x1="241.695" y1="128.848" x2="186.14" y2="539.538" gradientUnits="userSpaceOnUse">
<stop stop-color="#4D49C7"/>
<stop offset="0.505208" stop-color="#579AFF"/>
<stop offset="1" stop-color="#66FFA4"/>
</linearGradient>
<linearGradient id="paint49_linear_2031_4650" x1="241.695" y1="128.848" x2="186.14" y2="539.538" gradientUnits="userSpaceOnUse">
<stop stop-color="#4D49C7"/>
<stop offset="0.505208" stop-color="#579AFF"/>
<stop offset="1" stop-color="#66FFA4"/>
</linearGradient>
<linearGradient id="paint50_linear_2031_4650" x1="241.695" y1="128.848" x2="186.14" y2="539.538" gradientUnits="userSpaceOnUse">
<stop stop-color="#4D49C7"/>
<stop offset="0.505208" stop-color="#579AFF"/>
<stop offset="1" stop-color="#66FFA4"/>
</linearGradient>
<linearGradient id="paint51_linear_2031_4650" x1="241.695" y1="128.848" x2="186.14" y2="539.538" gradientUnits="userSpaceOnUse">
<stop stop-color="#4D49C7"/>
<stop offset="0.505208" stop-color="#579AFF"/>
<stop offset="1" stop-color="#66FFA4"/>
</linearGradient>
<linearGradient id="paint52_linear_2031_4650" x1="241.695" y1="128.848" x2="186.14" y2="539.538" gradientUnits="userSpaceOnUse">
<stop stop-color="#4D49C7"/>
<stop offset="0.505208" stop-color="#579AFF"/>
<stop offset="1" stop-color="#66FFA4"/>
</linearGradient>
<linearGradient id="paint53_linear_2031_4650" x1="241.695" y1="128.848" x2="186.14" y2="539.538" gradientUnits="userSpaceOnUse">
<stop stop-color="#4D49C7"/>
<stop offset="0.505208" stop-color="#579AFF"/>
<stop offset="1" stop-color="#66FFA4"/>
</linearGradient>
<linearGradient id="paint54_linear_2031_4650" x1="241.695" y1="128.848" x2="186.14" y2="539.538" gradientUnits="userSpaceOnUse">
<stop stop-color="#4D49C7"/>
<stop offset="0.505208" stop-color="#579AFF"/>
<stop offset="1" stop-color="#66FFA4"/>
</linearGradient>
<linearGradient id="paint55_linear_2031_4650" x1="241.695" y1="128.848" x2="186.14" y2="539.538" gradientUnits="userSpaceOnUse">
<stop stop-color="#4D49C7"/>
<stop offset="0.505208" stop-color="#579AFF"/>
<stop offset="1" stop-color="#66FFA4"/>
</linearGradient>
<linearGradient id="paint56_linear_2031_4650" x1="241.695" y1="128.848" x2="186.14" y2="539.538" gradientUnits="userSpaceOnUse">
<stop stop-color="#4D49C7"/>
<stop offset="0.505208" stop-color="#579AFF"/>
<stop offset="1" stop-color="#66FFA4"/>
</linearGradient>
<linearGradient id="paint57_linear_2031_4650" x1="241.695" y1="128.848" x2="186.14" y2="539.538" gradientUnits="userSpaceOnUse">
<stop stop-color="#4D49C7"/>
<stop offset="0.505208" stop-color="#579AFF"/>
<stop offset="1" stop-color="#66FFA4"/>
</linearGradient>
<linearGradient id="paint58_linear_2031_4650" x1="241.695" y1="128.848" x2="186.14" y2="539.538" gradientUnits="userSpaceOnUse">
<stop stop-color="#4D49C7"/>
<stop offset="0.505208" stop-color="#579AFF"/>
<stop offset="1" stop-color="#66FFA4"/>
</linearGradient>
<linearGradient id="paint59_linear_2031_4650" x1="241.695" y1="128.848" x2="186.14" y2="539.538" gradientUnits="userSpaceOnUse">
<stop stop-color="#4D49C7"/>
<stop offset="0.505208" stop-color="#579AFF"/>
<stop offset="1" stop-color="#66FFA4"/>
</linearGradient>
<linearGradient id="paint60_linear_2031_4650" x1="241.695" y1="128.848" x2="186.14" y2="539.538" gradientUnits="userSpaceOnUse">
<stop stop-color="#4D49C7"/>
<stop offset="0.505208" stop-color="#579AFF"/>
<stop offset="1" stop-color="#66FFA4"/>
</linearGradient>
<linearGradient id="paint61_linear_2031_4650" x1="241.695" y1="128.848" x2="186.14" y2="539.538" gradientUnits="userSpaceOnUse">
<stop stop-color="#4D49C7"/>
<stop offset="0.505208" stop-color="#579AFF"/>
<stop offset="1" stop-color="#66FFA4"/>
</linearGradient>
<linearGradient id="paint62_linear_2031_4650" x1="241.695" y1="128.848" x2="186.14" y2="539.538" gradientUnits="userSpaceOnUse">
<stop stop-color="#4D49C7"/>
<stop offset="0.505208" stop-color="#579AFF"/>
<stop offset="1" stop-color="#66FFA4"/>
</linearGradient>
<linearGradient id="paint63_linear_2031_4650" x1="241.695" y1="128.848" x2="186.14" y2="539.538" gradientUnits="userSpaceOnUse">
<stop stop-color="#4D49C7"/>
<stop offset="0.505208" stop-color="#579AFF"/>
<stop offset="1" stop-color="#66FFA4"/>
</linearGradient>
<linearGradient id="paint64_linear_2031_4650" x1="241.695" y1="128.848" x2="186.14" y2="539.538" gradientUnits="userSpaceOnUse">
<stop stop-color="#4D49C7"/>
<stop offset="0.505208" stop-color="#579AFF"/>
<stop offset="1" stop-color="#66FFA4"/>
</linearGradient>
<linearGradient id="paint65_linear_2031_4650" x1="241.695" y1="128.848" x2="186.14" y2="539.538" gradientUnits="userSpaceOnUse">
<stop stop-color="#4D49C7"/>
<stop offset="0.505208" stop-color="#579AFF"/>
<stop offset="1" stop-color="#66FFA4"/>
</linearGradient>
<linearGradient id="paint66_linear_2031_4650" x1="241.695" y1="128.848" x2="186.14" y2="539.538" gradientUnits="userSpaceOnUse">
<stop stop-color="#4D49C7"/>
<stop offset="0.505208" stop-color="#579AFF"/>
<stop offset="1" stop-color="#66FFA4"/>
</linearGradient>
<linearGradient id="paint67_linear_2031_4650" x1="241.695" y1="128.848" x2="186.14" y2="539.538" gradientUnits="userSpaceOnUse">
<stop stop-color="#4D49C7"/>
<stop offset="0.505208" stop-color="#579AFF"/>
<stop offset="1" stop-color="#66FFA4"/>
</linearGradient>
<linearGradient id="paint68_linear_2031_4650" x1="241.695" y1="128.848" x2="186.14" y2="539.538" gradientUnits="userSpaceOnUse">
<stop stop-color="#4D49C7"/>
<stop offset="0.505208" stop-color="#579AFF"/>
<stop offset="1" stop-color="#66FFA4"/>
</linearGradient>
<linearGradient id="paint69_linear_2031_4650" x1="241.695" y1="128.848" x2="186.14" y2="539.538" gradientUnits="userSpaceOnUse">
<stop stop-color="#4D49C7"/>
<stop offset="0.505208" stop-color="#579AFF"/>
<stop offset="1" stop-color="#66FFA4"/>
</linearGradient>
<linearGradient id="paint70_linear_2031_4650" x1="241.695" y1="128.848" x2="186.14" y2="539.538" gradientUnits="userSpaceOnUse">
<stop stop-color="#4D49C7"/>
<stop offset="0.505208" stop-color="#579AFF"/>
<stop offset="1" stop-color="#66FFA4"/>
</linearGradient>
<linearGradient id="paint71_linear_2031_4650" x1="85.6256" y1="167.508" x2="233.236" y2="616.043" gradientUnits="userSpaceOnUse">
<stop stop-color="#4D49C7"/>
<stop offset="0.505208" stop-color="#579AFF"/>
<stop offset="1" stop-color="#66FFA4"/>
</linearGradient>
<linearGradient id="paint72_linear_2031_4650" x1="51.0489" y1="475.985" x2="30.0489" y2="514.235" gradientUnits="userSpaceOnUse">
<stop stop-color="#4D49C7"/>
<stop offset="0.505208" stop-color="#579AFF"/>
<stop offset="1" stop-color="#66FFA4"/>
</linearGradient>
</defs>
</svg>
