<svg width="239" height="152" viewBox="0 0 239 152" fill="none" xmlns="http://www.w3.org/2000/svg">
<path fill-rule="evenodd" clip-rule="evenodd" d="M20.1351 48.5248C23.4122 47.4247 26.944 46.885 30.6167 47.0205C45.9472 47.5863 58.3787 59.9782 58.9878 75.3041C59.6557 92.1128 46.1723 106 29.5058 106C13.2362 106 0 92.7664 0 76.5001C0 75.5827 0.0434259 74.6751 0.126408 73.7789C0.156803 73.4492 0.524193 73.269 0.800641 73.4516C2.46126 74.5485 4.34476 75.3347 6.36987 75.7255C6.73557 75.7961 6.99297 76.1212 6.99273 76.4934C6.99273 88.9113 17.0922 99.0086 29.5058 99.0086C42.1836 99.0086 52.4473 88.4772 52.0049 75.705C51.5883 63.6789 41.6283 54.0377 29.5929 53.9916C27.7936 53.9846 26.0432 54.1913 24.364 54.5854C23.9704 54.6778 23.5665 54.4781 23.3986 54.1105C22.5671 52.2911 21.3938 50.6614 19.9597 49.3026C19.704 49.0602 19.801 48.6372 20.1351 48.5248ZM148.389 68.2113C155.054 68.2113 161.232 72.4368 161.232 82.1354C161.232 82.7857 161.178 83.3811 161.123 84.1404H141.615C141.886 88.0405 144.433 90.8578 148.659 90.8578C151.399 90.8578 153.419 89.8342 154.348 87.9243L160.073 90.6149C158.056 94.2234 154.042 96.3842 148.659 96.3842C140.585 96.3842 134.733 90.9123 134.733 82.5679C134.733 73.6292 140.911 68.2113 148.389 68.2113ZM124.661 60.8716V68.3243H131.84V73.858H124.661V87.3376C124.661 88.872 125.044 90.7356 128.333 90.7356C129.154 90.7356 130.195 90.5711 131.018 90.3512V95.6668C129.812 95.9403 128.168 96.2693 126.194 96.2693C118.522 96.2693 117.646 91.2833 117.646 88.2688V73.858H111.781V68.3243H113.644C116.988 68.3243 118.303 67.1186 118.303 64.1596V60.8716H124.661ZM198.659 67.7763C206.879 67.7763 213.127 73.5845 213.127 81.9682C213.127 90.4609 206.935 96.269 198.659 96.269C190.492 96.269 184.19 90.4064 184.19 81.9682C184.19 73.529 190.438 67.7763 198.659 67.7763ZM227.326 67.7763C234.725 67.7763 238.123 71.6665 238.506 76.159H231.766C231.491 74.1867 229.956 72.981 227.381 72.981C225.244 72.981 223.764 74.0222 223.764 75.7756C223.764 77.6937 225.627 78.1869 228.258 78.8996L230.833 79.557C235.602 80.7627 239 82.9538 239 88.1052C239 93.7489 234.177 96.2692 228.367 96.2692C220.639 96.2692 216.584 92.5977 216.201 86.9541H222.941C223.326 89.9134 225.517 91.0633 228.312 91.0633C230.45 91.0633 232.313 90.2423 232.313 88.2688C232.313 86.1874 230.45 85.3109 227.49 84.5427L224.915 83.886C221.243 83.0086 217.078 81.5297 217.078 76.159C217.078 70.6799 221.901 67.7763 227.326 67.7763ZM77.5229 68.3243V95.7215H70.5078V68.3243H77.5229ZM98.5691 67.7765C105.092 67.7765 109.256 71.94 109.256 79.1183V95.7215H102.241V80.5427C102.241 76.0502 99.6659 73.8579 96.3773 73.8579C93.0343 73.8579 90.0742 75.9948 90.0742 80.8715V95.7215H83.0591V68.3242H89.4714L90.0742 71.5565H90.5125C92.1567 69.4197 94.459 67.7765 98.5691 67.7765ZM182.598 67.7765V74.7901C181.611 74.6256 180.624 74.5701 179.638 74.5701C173.609 74.5701 172.019 79.0093 172.019 82.9541V95.7215H165.004V68.3242H171.362L172.019 72.2145H172.458C174.158 69.4744 176.02 67.7765 180.624 67.7765H182.598ZM198.659 73.858C194.164 73.858 191.205 77.4202 191.205 81.9682C191.205 86.5706 194.164 90.1867 198.659 90.1867C203.207 90.1867 206.166 86.5706 206.166 81.9682C206.166 77.4202 203.152 73.858 198.659 73.858ZM29.5055 63.7917C36.4743 63.7917 42.1506 69.4232 42.2201 76.3755C42.2228 76.4192 42.2228 76.4629 42.2228 76.5065V87.2789C42.2228 87.5842 41.9753 87.8317 41.6701 87.8317H35.7808C35.4756 87.8317 35.2281 87.5842 35.2281 87.2789V76.4091C35.2305 76.396 35.2305 76.3857 35.2281 76.3755C35.1586 73.2797 32.62 70.7825 29.5055 70.7825C26.3524 70.7825 23.7855 73.3465 23.7802 76.4961H23.7826V87.3406C23.7826 87.6457 23.5351 87.8932 23.2299 87.8932H17.3357C17.0303 87.8932 16.7829 87.6457 16.7829 87.3406V76.4961C16.7886 75.7147 16.86 74.9494 16.9963 74.2066C17.0282 74.0337 17.1367 73.8856 17.2875 73.7949C20.4481 71.8922 22.8727 68.8943 24.0349 65.3246C24.1058 65.1071 24.2602 64.9245 24.4701 64.8338C26.0151 64.1648 27.717 63.7917 29.5055 63.7917ZM148.389 73.7377C144.649 73.7377 142.157 76.2299 141.669 79.4805H154.621C154.458 76.1211 151.965 73.7377 148.389 73.7377ZM9.25576 54.807C12.4286 54.807 15.0009 57.3787 15.0009 60.5509C15.0009 63.7232 12.4286 66.2949 9.25576 66.2949C6.08288 66.2949 3.51067 63.7232 3.51067 60.5509C3.51067 57.3787 6.08288 54.807 9.25576 54.807ZM74.0689 54.3711C76.5509 54.3711 78.563 56.3828 78.563 58.8643C78.563 61.3458 76.5509 63.3573 74.0689 63.3573C71.5871 63.3573 69.575 61.3458 69.575 58.8643C69.575 56.3828 71.5871 54.3711 74.0689 54.3711Z" fill="#020202"/>
</svg>
