<?xml version="1.0" encoding="UTF-8"?>
<svg width="1920px" height="1976px" viewBox="0 0 1920 1976" version="1.1" xmlns="http://www.w3.org/2000/svg" xmlns:xlink="http://www.w3.org/1999/xlink">
    <!-- Generator: Sketch 51.3 (57544) - http://www.bohemiancoding.com/sketch -->
    <title>eha-case-1</title>
    <desc>Created with Sketch.</desc>
    <defs></defs>
    <g id="Case-Studies" stroke="none" stroke-width="1" fill="none" fill-rule="evenodd">
        <g id="work-item---eha" transform="translate(0.000000, -2174.000000)">
            <g id="WORK" transform="translate(0.000000, 2174.000000)">
                <g id="eha-case-1">
                    <rect id="Rectangle-10" fill="#F2F2F2" x="0" y="0" width="1920" height="1976"></rect>
                    <g id="Group-5" transform="translate(240.000000, 200.000000)">
                        <path d="M0.616,5.086 C0.616,4.386 0.739666595,3.7396666 0.987,3.147 C1.2343334,2.5543334 1.5796666,2.0386666 2.023,1.6 C2.4663334,1.1613334 2.9866666,0.818333405 3.584,0.571 C4.1813334,0.323666595 4.83,0.2 5.53,0.2 C6.2113334,0.2 6.8506666,0.312 7.448,0.536 C8.0453334,0.76 8.582,1.0913334 9.058,1.53 L8.12,3.322 C7.756,2.9486666 7.364,2.6616666 6.944,2.461 C6.524,2.2603334 6.048,2.16 5.516,2.16 C5.0866666,2.16 4.6923334,2.2323334 4.333,2.377 C3.9736666,2.5216666 3.6633334,2.7223334 3.402,2.979 C3.1406666,3.2356666 2.9376666,3.546 2.793,3.91 C2.6483334,4.274 2.576,4.6706666 2.576,5.1 C2.576,5.5386666 2.6483334,5.9376666 2.793,6.297 C2.9376666,6.6563334 3.1406666,6.9643334 3.402,7.221 C3.6633334,7.4776666 3.9713334,7.6783334 4.326,7.823 C4.6806666,7.9676666 5.068,8.04 5.488,8.04 C6.5613334,8.04 7.4806666,7.6246666 8.246,6.794 L9.212,8.614 C8.7173334,9.062 8.162,9.405 7.546,9.643 C6.93,9.881 6.2533334,10 5.516,10 C4.816,10 4.1673334,9.8763334 3.57,9.629 C2.9726666,9.3816666 2.4546666,9.0363334 2.016,8.593 C1.5773334,8.1496666 1.2343334,7.6293334 0.987,7.032 C0.739666595,6.4346666 0.616,5.786 0.616,5.086 Z M14.324,5.1 C14.324,4.4 14.4476666,3.7513334 14.695,3.154 C14.9423334,2.5566666 15.2853334,2.0386666 15.724,1.6 C16.1626666,1.1613334 16.6806666,0.818333405 17.278,0.571 C17.8753334,0.323666595 18.524,0.2 19.224,0.2 C19.924,0.2 20.5726666,0.323666595 21.17,0.571 C21.7673334,0.818333405 22.2853334,1.1613334 22.724,1.6 C23.1626666,2.0386666 23.5056666,2.5566666 23.753,3.154 C24.0003334,3.7513334 24.124,4.4 24.124,5.1 C24.124,5.8 24.0003334,6.4486666 23.753,7.046 C23.5056666,7.6433334 23.1626666,8.1613334 22.724,8.6 C22.2853334,9.0386666 21.7673334,9.3816666 21.17,9.629 C20.5726666,9.8763334 19.924,10 19.224,10 C18.524,10 17.8753334,9.8763334 17.278,9.629 C16.6806666,9.3816666 16.1626666,9.0386666 15.724,8.6 C15.2853334,8.1613334 14.9423334,7.6433334 14.695,7.046 C14.4476666,6.4486666 14.324,5.8 14.324,5.1 Z M22.164,5.1 C22.164,4.6706666 22.0916666,4.2763334 21.947,3.917 C21.8023334,3.5576666 21.5993334,3.2473334 21.338,2.986 C21.0766666,2.7246666 20.7663334,2.5216666 20.407,2.377 C20.0476666,2.2323334 19.6533334,2.16 19.224,2.16 C18.7946666,2.16 18.4003334,2.2323334 18.041,2.377 C17.6816666,2.5216666 17.3713334,2.7246666 17.11,2.986 C16.8486666,3.2473334 16.6456666,3.5576666 16.501,3.917 C16.3563334,4.2763334 16.284,4.6706666 16.284,5.1 C16.284,5.5293334 16.3563334,5.9236666 16.501,6.283 C16.6456666,6.6423334 16.8486666,6.9526666 17.11,7.214 C17.3713334,7.4753334 17.6816666,7.6783334 18.041,7.823 C18.4003334,7.9676666 18.7946666,8.04 19.224,8.04 C19.6533334,8.04 20.0476666,7.9676666 20.407,7.823 C20.7663334,7.6783334 21.0766666,7.4753334 21.338,7.214 C21.5993334,6.9526666 21.8023334,6.6423334 21.947,6.283 C22.0916666,5.9236666 22.164,5.5293334 22.164,5.1 Z M32.498,0.2 L32.498,8.04 L36.95,8.04 L36.95,10 L30.538,10 L30.538,0.2 L32.498,0.2 Z M41.908,5.1 C41.908,4.4 42.0316666,3.7513334 42.279,3.154 C42.5263334,2.5566666 42.8693334,2.0386666 43.308,1.6 C43.7466666,1.1613334 44.2646666,0.818333405 44.862,0.571 C45.4593334,0.323666595 46.108,0.2 46.808,0.2 C47.508,0.2 48.1566666,0.323666595 48.754,0.571 C49.3513334,0.818333405 49.8693334,1.1613334 50.308,1.6 C50.7466666,2.0386666 51.0896666,2.5566666 51.337,3.154 C51.5843334,3.7513334 51.708,4.4 51.708,5.1 C51.708,5.8 51.5843334,6.4486666 51.337,7.046 C51.0896666,7.6433334 50.7466666,8.1613334 50.308,8.6 C49.8693334,9.0386666 49.3513334,9.3816666 48.754,9.629 C48.1566666,9.8763334 47.508,10 46.808,10 C46.108,10 45.4593334,9.8763334 44.862,9.629 C44.2646666,9.3816666 43.7466666,9.0386666 43.308,8.6 C42.8693334,8.1613334 42.5263334,7.6433334 42.279,7.046 C42.0316666,6.4486666 41.908,5.8 41.908,5.1 Z M49.748,5.1 C49.748,4.6706666 49.6756666,4.2763334 49.531,3.917 C49.3863334,3.5576666 49.1833334,3.2473334 48.922,2.986 C48.6606666,2.7246666 48.3503334,2.5216666 47.991,2.377 C47.6316666,2.2323334 47.2373334,2.16 46.808,2.16 C46.3786666,2.16 45.9843334,2.2323334 45.625,2.377 C45.2656666,2.5216666 44.9553334,2.7246666 44.694,2.986 C44.4326666,3.2473334 44.2296666,3.5576666 44.085,3.917 C43.9403334,4.2763334 43.868,4.6706666 43.868,5.1 C43.868,5.5293334 43.9403334,5.9236666 44.085,6.283 C44.2296666,6.6423334 44.4326666,6.9526666 44.694,7.214 C44.9553334,7.4753334 45.2656666,7.6783334 45.625,7.823 C45.9843334,7.9676666 46.3786666,8.04 46.808,8.04 C47.2373334,8.04 47.6316666,7.9676666 47.991,7.823 C48.3503334,7.6783334 48.6606666,7.4753334 48.922,7.214 C49.1833334,6.9526666 49.3863334,6.6423334 49.531,6.283 C49.6756666,5.9236666 49.748,5.5293334 49.748,5.1 Z M63.596,3.462 C63.596,3.1073334 63.4816666,2.8016666 63.253,2.545 C63.0243334,2.2883334 62.7046666,2.16 62.294,2.16 L60.082,2.16 L60.082,4.764 L62.294,4.764 C62.7046666,4.764 63.0243334,4.6356666 63.253,4.379 C63.4816666,4.1223334 63.596,3.8166666 63.596,3.462 Z M58.122,10 L58.122,0.2 L62.294,0.2 C62.7606666,0.2 63.1946666,0.284 63.596,0.452 C63.9973334,0.62 64.3426666,0.851 64.632,1.145 C64.9213334,1.439 65.1476666,1.7843334 65.311,2.181 C65.4743334,2.5776666 65.556,3.0046666 65.556,3.462 C65.556,3.8166666 65.5046666,4.155 65.402,4.477 C65.2993334,4.799 65.157,5.093 64.975,5.359 C64.793,5.625 64.5736666,5.856 64.317,6.052 C64.0603334,6.248 63.778,6.402 63.47,6.514 L65.794,10 L63.4,10 L61.3,6.724 L60.082,6.724 L60.082,10 L58.122,10 Z M71.844,3.014 C71.844,2.566 71.9233334,2.1693334 72.082,1.824 C72.2406666,1.4786666 72.4623334,1.1846666 72.747,0.942 C73.0316666,0.699333405 73.3676666,0.515 73.755,0.389 C74.1423334,0.263 74.56,0.2 75.008,0.2 C75.8386666,0.2 76.5456666,0.41 77.129,0.83 C77.7123334,1.25 78.0926666,1.866 78.27,2.678 L76.492,3.392 C76.3893334,2.944 76.212,2.6266666 75.96,2.44 C75.708,2.2533334 75.386,2.16 74.994,2.16 C74.5926666,2.16 74.294,2.244 74.098,2.412 C73.902,2.58 73.804,2.7853334 73.804,3.028 C73.804,3.2053334 73.8483334,3.3523334 73.937,3.469 C74.0256666,3.5856666 74.1493334,3.6883334 74.308,3.777 C74.4666666,3.8656666 74.6556666,3.9473334 74.875,4.022 C75.0943334,4.0966666 75.3346666,4.176 75.596,4.26 C75.932,4.372 76.254,4.5003334 76.562,4.645 C76.87,4.7896666 77.143,4.9716666 77.381,5.191 C77.619,5.4103334 77.8103334,5.6786666 77.955,5.996 C78.0996666,6.3133334 78.172,6.7006666 78.172,7.158 C78.172,7.6153334 78.0903334,8.0213334 77.927,8.376 C77.7636666,8.7306666 77.542,9.027 77.262,9.265 C76.982,9.503 76.6483334,9.685 76.261,9.811 C75.8736666,9.937 75.456,10 75.008,10 C74.6253334,10 74.259,9.9533334 73.909,9.86 C73.559,9.7666666 73.237,9.6196666 72.943,9.419 C72.649,9.2183334 72.397,8.9616666 72.187,8.649 C71.977,8.3363334 71.8253334,7.9606666 71.732,7.522 L73.482,6.766 C73.678,7.6153334 74.1913334,8.04 75.022,8.04 C75.4046666,8.04 75.6986666,7.9606666 75.904,7.802 C76.1093334,7.6433334 76.212,7.4286666 76.212,7.158 C76.212,6.9806666 76.1676666,6.829 76.079,6.703 C75.9903334,6.577 75.8666666,6.4696666 75.708,6.381 C75.5493334,6.2923334 75.365,6.2153334 75.155,6.15 C74.945,6.0846666 74.7186666,6.0146666 74.476,5.94 C74.168,5.8466666 73.8576666,5.7276666 73.545,5.583 C73.2323334,5.4383334 72.95,5.254 72.698,5.03 C72.446,4.806 72.2406666,4.5306666 72.082,4.204 C71.9233334,3.8773334 71.844,3.4806666 71.844,3.014 Z" id="colors" fill="#181819" opacity="0.299999982"></path>
                        <g id="Group" transform="translate(0.000000, 63.000000)">
                            <rect id="Rectangle-6" fill="#F6CA07" x="0" y="0" width="1440" height="422"></rect>
                            <path d="M97.079,306.624 C93.101,306.624 89.864,305.22 87.563,302.724 C85.145,300.072 83.819,296.406 83.819,292.155 C83.819,287.787 85.301,283.926 87.953,281.274 C90.254,278.934 93.491,277.569 97.508,277.569 C104.684,277.569 108.974,281.391 109.871,287.241 L103.163,287.241 C102.656,284.979 100.784,283.263 97.742,283.263 C93.14,283.263 90.839,287.085 90.839,292.155 C90.839,297.264 93.491,301.047 97.859,301.047 C101.486,301.047 103.631,298.629 103.904,296.172 L103.904,296.094 L98.678,296.094 L98.678,291.024 L110.3,291.024 L110.3,306 L105.464,306 L105.074,302.646 L104.996,302.646 C103.163,305.493 100.433,306.624 97.079,306.624 Z M121.014,302.1 C123.783,302.1 125.265,299.682 125.265,296.055 C125.265,292.428 123.783,289.971 121.014,289.971 C118.245,289.971 116.802,292.428 116.802,296.055 C116.802,299.682 118.245,302.1 121.014,302.1 Z M121.053,306.624 C114.657,306.624 110.367,302.061 110.367,296.055 C110.367,290.049 114.657,285.486 121.053,285.486 C127.488,285.486 131.7,290.049 131.7,296.055 C131.7,302.061 127.488,306.624 121.053,306.624 Z M131.884,306 L131.884,278.115 L138.319,278.115 L138.319,306 L131.884,306 Z M147.239,306.624 C142.13,306.624 138.503,302.685 138.503,296.016 C138.503,289.776 142.091,285.447 147.239,285.447 C150.047,285.447 151.646,286.617 152.816,288.294 L152.933,288.294 L152.933,278.115 L159.29,278.115 L159.29,306 L153.206,306 L153.206,303.309 L153.128,303.309 C151.919,305.376 149.852,306.624 147.239,306.624 Z M148.877,301.593 C151.529,301.593 153.089,299.292 153.089,296.016 C153.089,292.662 151.724,290.244 148.955,290.244 C146.42,290.244 144.938,292.584 144.938,295.938 C144.938,299.409 146.42,301.593 148.877,301.593 Z M170.082,306.585 C163.491,306.585 159.435,302.022 159.435,295.977 C159.435,290.01 163.608,285.447 169.692,285.447 C172.539,285.447 174.801,286.383 176.517,287.943 C178.896,290.127 180.066,293.598 180.027,297.654 L165.675,297.654 C166.065,300.345 167.547,302.022 170.16,302.022 C171.837,302.022 172.929,301.281 173.475,300.033 L179.676,300.033 C179.247,301.827 178.077,303.543 176.322,304.752 C174.645,305.922 172.617,306.585 170.082,306.585 Z M165.714,293.871 L173.592,293.871 C173.358,291.492 171.876,289.971 169.809,289.971 C167.391,289.971 166.143,291.492 165.714,293.871 Z M180.172,306 L180.172,286.032 L186.295,286.032 L186.295,288.762 L186.412,288.762 C187.894,286.617 189.805,285.447 192.574,285.447 C196.942,285.447 199.516,288.567 199.516,293.013 L199.516,306 L193.159,306 L193.159,294.3 C193.159,292.194 192.106,290.751 190.039,290.751 C187.933,290.751 186.529,292.506 186.529,294.963 L186.529,306 L180.172,306 Z M211.701,306 L211.701,283.965 L203.589,283.965 L203.589,278.115 L226.794,278.115 L226.794,283.965 L218.604,283.965 L218.604,306 L211.701,306 Z M228.382,306.507 C224.404,306.507 221.557,304.362 221.557,300.423 C221.557,296.016 225.067,294.69 229.201,294.144 C232.945,293.676 234.271,293.286 234.271,291.921 C234.271,290.634 233.452,289.776 231.541,289.776 C229.513,289.776 228.499,290.673 228.304,292.35 L222.454,292.35 C222.61,288.645 225.457,285.486 231.502,285.486 C234.505,285.486 236.533,286.032 237.976,287.124 C239.692,288.372 240.511,290.322 240.511,292.818 L240.511,302.88 C240.511,304.479 240.667,305.376 241.213,305.727 L241.213,306 L235.051,306 C234.739,305.571 234.544,304.791 234.388,303.777 L234.31,303.777 C233.14,305.454 231.385,306.507 228.382,306.507 Z M230.41,302.451 C232.789,302.451 234.427,301.008 234.427,298.863 L234.427,296.484 C233.608,296.913 232.438,297.225 231.151,297.537 C228.694,298.083 227.68,298.707 227.68,300.228 C227.68,301.827 228.85,302.451 230.41,302.451 Z M241.592,306 L241.592,286.032 L247.949,286.032 L247.949,306 L241.592,306 Z M241.592,283.263 L241.592,278.115 L247.949,278.115 L247.949,283.263 L241.592,283.263 Z M248.991,306 L248.991,286.032 L255.114,286.032 L255.114,288.762 L255.231,288.762 C256.713,286.617 258.624,285.447 261.393,285.447 C265.761,285.447 268.335,288.567 268.335,293.013 L268.335,306 L261.978,306 L261.978,294.3 C261.978,292.194 260.925,290.751 258.858,290.751 C256.752,290.751 255.348,292.506 255.348,294.963 L255.348,306 L248.991,306 Z M278.971,302.1 C281.74,302.1 283.222,299.682 283.222,296.055 C283.222,292.428 281.74,289.971 278.971,289.971 C276.202,289.971 274.759,292.428 274.759,296.055 C274.759,299.682 276.202,302.1 278.971,302.1 Z M279.01,306.624 C272.614,306.624 268.324,302.061 268.324,296.055 C268.324,290.049 272.614,285.486 279.01,285.486 C285.445,285.486 289.657,290.049 289.657,296.055 C289.657,302.061 285.445,306.624 279.01,306.624 Z M289.802,306 L289.802,286.032 L296.159,286.032 L296.159,306 L289.802,306 Z M289.802,283.263 L289.802,278.115 L296.159,278.115 L296.159,283.263 L289.802,283.263 Z M296.928,306 L296.928,299.448 L303.597,299.448 L303.597,306 L296.928,306 Z" id="Golden-Tainoi." fill="#1F1F1F"></path>
                            <path d="M86.471,349 L87.563,342.253 L83.936,342.253 L84.794,337.339 L88.382,337.339 L89.006,333.439 L85.379,333.439 L86.237,328.525 L89.825,328.525 L90.878,322.246 L94.934,322.246 L93.881,328.525 L97.898,328.525 L98.951,322.246 L103.007,322.246 L101.954,328.525 L105.62,328.525 L104.762,333.439 L101.135,333.439 L100.511,337.339 L104.099,337.339 L103.28,342.253 L99.692,342.253 L98.6,349 L94.544,349 L95.636,342.253 L91.619,342.253 L90.527,349 L86.471,349 Z M92.438,337.339 L96.455,337.339 L97.079,333.439 L93.062,333.439 L92.438,337.339 Z M105.6785,349 L105.6785,321.115 L126.4265,321.115 L126.4265,326.926 L112.5815,326.926 L112.5815,332.581 L124.1645,332.581 L124.1645,338.158 L112.5815,338.158 L112.5815,349 L105.6785,349 Z M137.327,349.624 C129.488,349.624 125.627,343.813 125.588,335.857 C125.549,331.489 126.524,327.784 128.825,325.171 C130.736,322.987 133.466,321.739 137.288,321.739 C142.826,321.739 146.336,324.547 147.155,328.876 L140.876,328.876 C140.486,327.55 139.55,326.419 137.366,326.419 C134.09,326.419 132.296,328.876 132.101,333.166 L132.179,333.166 C133.622,331.645 135.416,330.631 138.302,330.631 C143.45,330.631 147.935,334.375 147.935,340.108 C147.935,345.802 143.45,349.624 137.327,349.624 Z M137.093,344.71 C139.784,344.71 141.695,342.76 141.695,340.147 C141.695,337.495 139.784,335.467 137.093,335.467 C134.246,335.467 132.452,337.456 132.452,340.147 C132.452,342.799 134.363,344.71 137.093,344.71 Z M160.6295,349.624 C152.4395,349.624 146.8625,343.501 146.8625,335.155 C146.8625,326.848 152.2835,320.569 160.5905,320.569 C163.8275,320.569 166.5575,321.505 168.5465,323.026 C170.9645,324.859 172.3685,327.589 172.7195,330.709 L165.8165,330.709 C165.4655,328.213 163.5155,326.302 160.5515,326.302 C156.0275,326.302 153.8825,330.085 153.8825,335.155 C153.8825,340.264 156.4565,343.969 160.5905,343.969 C163.6715,343.969 165.6995,342.019 166.0115,339.328 L172.9145,339.328 C172.7195,342.097 171.4715,344.632 169.5605,346.465 C167.4155,348.532 164.5685,349.624 160.6295,349.624 Z M169.814,349 L179.837,321.115 L186.935,321.115 L196.997,349 L189.743,349 L188.105,343.969 L178.355,343.969 L176.756,349 L169.814,349 Z M179.954,339.016 L186.506,339.016 L184.4,332.269 C183.932,330.826 183.308,328.33 183.308,328.33 L183.23,328.33 C183.23,328.33 182.567,330.826 182.099,332.269 L179.954,339.016 Z M207.1565,344.476 C210.7835,344.476 212.1875,340.927 212.1875,335.662 C212.1875,330.475 210.7445,326.809 207.1565,326.809 C203.5685,326.809 202.0865,330.436 202.0865,335.662 C202.0865,340.888 203.5685,344.476 207.1565,344.476 Z M207.1175,349.624 C200.1755,349.624 195.3395,344.164 195.3395,335.662 C195.3395,327.16 200.1365,321.7 207.1565,321.7 C214.3325,321.7 218.9735,327.16 218.9735,335.662 C218.9735,344.164 214.2155,349.624 207.1175,349.624 Z M220.631,349 C220.982,339.289 226.013,331.801 229.796,327.94 L229.796,327.862 L216.926,327.862 L216.926,322.285 L236.699,322.285 L236.699,327.355 C232.019,332.074 227.768,339.835 227.495,349 L220.631,349 Z" id="#f6ca07" fill="#DBA400"></path>
                        </g>
                        <g id="Group" transform="translate(0.000000, 485.000000)">
                            <rect id="Rectangle-6" fill="#000000" x="0" y="0" width="720" height="422"></rect>
                            <path d="M84.911,306 L84.911,278.115 L97.469,278.115 C100.862,278.115 103.358,279.051 105.074,280.689 C106.868,282.366 107.882,284.745 107.882,287.553 C107.882,292.896 104.177,296.679 98.444,296.679 L91.931,296.679 L91.931,306 L84.911,306 Z M91.931,291.219 L97.04,291.219 C99.536,291.219 100.94,289.737 100.94,287.514 C100.94,285.291 99.497,283.926 97.04,283.926 L91.931,283.926 L91.931,291.219 Z M114.813,306.585 C110.211,306.585 107.793,303.582 107.793,299.136 L107.793,286.032 L114.111,286.032 L114.111,297.81 C114.111,299.994 115.086,301.203 117.114,301.203 C119.298,301.203 120.624,299.565 120.624,297.186 L120.624,286.032 L126.981,286.032 L126.981,306 L120.897,306 L120.897,303.543 L120.78,303.543 C119.337,305.493 117.582,306.585 114.813,306.585 Z M128.023,306 L128.023,286.032 L134.107,286.032 L134.107,289.152 L134.224,289.152 C135.628,286.773 137.266,285.72 139.684,285.72 C140.269,285.72 140.659,285.759 140.932,285.876 L140.932,291.336 L140.776,291.336 C136.876,290.79 134.38,292.701 134.38,297.03 L134.38,306 L128.023,306 Z M150.32,306.585 C143.729,306.585 139.673,302.022 139.673,295.977 C139.673,290.01 143.846,285.447 149.93,285.447 C152.777,285.447 155.039,286.383 156.755,287.943 C159.134,290.127 160.304,293.598 160.265,297.654 L145.913,297.654 C146.303,300.345 147.785,302.022 150.398,302.022 C152.075,302.022 153.167,301.281 153.713,300.033 L159.914,300.033 C159.485,301.827 158.315,303.543 156.56,304.752 C154.883,305.922 152.855,306.585 150.32,306.585 Z M145.952,293.871 L153.83,293.871 C153.596,291.492 152.114,289.971 150.047,289.971 C147.629,289.971 146.381,291.492 145.952,293.871 Z M164.845,306 L164.845,278.115 L178.3,278.115 C181.186,278.115 183.331,278.817 184.813,280.026 C186.412,281.352 187.231,283.146 187.231,285.369 C187.231,288.138 185.788,289.893 183.331,290.829 L183.331,290.946 C186.373,291.882 188.323,294.456 188.323,297.771 C188.323,300.579 187.309,302.607 185.476,304.011 C183.838,305.298 181.537,306 178.612,306 L164.845,306 Z M171.67,300.462 L177.832,300.462 C180.094,300.462 181.498,299.175 181.498,297.186 C181.498,294.963 179.86,293.832 177.754,293.832 L171.67,293.832 L171.67,300.462 Z M171.67,289.152 L177.286,289.152 C179.275,289.152 180.64,288.177 180.64,286.344 C180.64,284.589 179.353,283.575 177.325,283.575 L171.67,283.575 L171.67,289.152 Z M188.663,306 L188.663,278.115 L195.098,278.115 L195.098,306 L188.663,306 Z M202.068,306.507 C198.09,306.507 195.243,304.362 195.243,300.423 C195.243,296.016 198.753,294.69 202.887,294.144 C206.631,293.676 207.957,293.286 207.957,291.921 C207.957,290.634 207.138,289.776 205.227,289.776 C203.199,289.776 202.185,290.673 201.99,292.35 L196.14,292.35 C196.296,288.645 199.143,285.486 205.188,285.486 C208.191,285.486 210.219,286.032 211.662,287.124 C213.378,288.372 214.197,290.322 214.197,292.818 L214.197,302.88 C214.197,304.479 214.353,305.376 214.899,305.727 L214.899,306 L208.737,306 C208.425,305.571 208.23,304.791 208.074,303.777 L207.996,303.777 C206.826,305.454 205.071,306.507 202.068,306.507 Z M204.096,302.451 C206.475,302.451 208.113,301.008 208.113,298.863 L208.113,296.484 C207.294,296.913 206.124,297.225 204.837,297.537 C202.38,298.083 201.366,298.707 201.366,300.228 C201.366,301.827 202.536,302.451 204.096,302.451 Z M224.989,306.624 C218.554,306.624 214.381,302.061 214.381,296.055 C214.381,290.049 218.515,285.486 224.833,285.486 C230.254,285.486 233.725,288.645 234.31,293.13 L228.187,293.13 C227.797,291.336 226.705,290.166 224.911,290.166 C222.181,290.166 220.816,292.428 220.816,296.055 C220.816,299.604 222.181,301.866 224.911,301.866 C226.9,301.866 228.109,300.696 228.382,298.434 L234.466,298.434 C234.31,303.036 230.644,306.624 224.989,306.624 Z M234.494,306 L234.494,278.115 L240.773,278.115 L240.773,292.779 L246.701,286.032 L254.033,286.032 L247.013,293.52 L254.852,306 L247.481,306 L242.684,297.849 L240.773,299.877 L240.773,306 L234.494,306 Z M254.061,306 L254.061,299.448 L260.73,299.448 L260.73,306 L254.061,306 Z" id="Pure-Black." fill="#FFFFFF"></path>
                            <path d="M86.471,349 L87.563,342.253 L83.936,342.253 L84.794,337.339 L88.382,337.339 L89.006,333.439 L85.379,333.439 L86.237,328.525 L89.825,328.525 L90.878,322.246 L94.934,322.246 L93.881,328.525 L97.898,328.525 L98.951,322.246 L103.007,322.246 L101.954,328.525 L105.62,328.525 L104.762,333.439 L101.135,333.439 L100.511,337.339 L104.099,337.339 L103.28,342.253 L99.692,342.253 L98.6,349 L94.544,349 L95.636,342.253 L91.619,342.253 L90.527,349 L86.471,349 Z M92.438,337.339 L96.455,337.339 L97.079,333.439 L93.062,333.439 L92.438,337.339 Z M118.153,344.476 C121.78,344.476 123.184,340.927 123.184,335.662 C123.184,330.475 121.741,326.809 118.153,326.809 C114.565,326.809 113.083,330.436 113.083,335.662 C113.083,340.888 114.565,344.476 118.153,344.476 Z M118.114,349.624 C111.172,349.624 106.336,344.164 106.336,335.662 C106.336,327.16 111.133,321.7 118.153,321.7 C125.329,321.7 129.97,327.16 129.97,335.662 C129.97,344.164 125.212,349.624 118.114,349.624 Z M142.62,344.476 C146.247,344.476 147.651,340.927 147.651,335.662 C147.651,330.475 146.208,326.809 142.62,326.809 C139.032,326.809 137.55,330.436 137.55,335.662 C137.55,340.888 139.032,344.476 142.62,344.476 Z M142.581,349.624 C135.639,349.624 130.803,344.164 130.803,335.662 C130.803,327.16 135.6,321.7 142.62,321.7 C149.796,321.7 154.437,327.16 154.437,335.662 C154.437,344.164 149.679,349.624 142.581,349.624 Z M167.087,344.476 C170.714,344.476 172.118,340.927 172.118,335.662 C172.118,330.475 170.675,326.809 167.087,326.809 C163.499,326.809 162.017,330.436 162.017,335.662 C162.017,340.888 163.499,344.476 167.087,344.476 Z M167.048,349.624 C160.106,349.624 155.27,344.164 155.27,335.662 C155.27,327.16 160.067,321.7 167.087,321.7 C174.263,321.7 178.904,327.16 178.904,335.662 C178.904,344.164 174.146,349.624 167.048,349.624 Z M191.554,344.476 C195.181,344.476 196.585,340.927 196.585,335.662 C196.585,330.475 195.142,326.809 191.554,326.809 C187.966,326.809 186.484,330.436 186.484,335.662 C186.484,340.888 187.966,344.476 191.554,344.476 Z M191.515,349.624 C184.573,349.624 179.737,344.164 179.737,335.662 C179.737,327.16 184.534,321.7 191.554,321.7 C198.73,321.7 203.371,327.16 203.371,335.662 C203.371,344.164 198.613,349.624 191.515,349.624 Z M216.021,344.476 C219.648,344.476 221.052,340.927 221.052,335.662 C221.052,330.475 219.609,326.809 216.021,326.809 C212.433,326.809 210.951,330.436 210.951,335.662 C210.951,340.888 212.433,344.476 216.021,344.476 Z M215.982,349.624 C209.04,349.624 204.204,344.164 204.204,335.662 C204.204,327.16 209.001,321.7 216.021,321.7 C223.197,321.7 227.838,327.16 227.838,335.662 C227.838,344.164 223.08,349.624 215.982,349.624 Z M240.488,344.476 C244.115,344.476 245.519,340.927 245.519,335.662 C245.519,330.475 244.076,326.809 240.488,326.809 C236.9,326.809 235.418,330.436 235.418,335.662 C235.418,340.888 236.9,344.476 240.488,344.476 Z M240.449,349.624 C233.507,349.624 228.671,344.164 228.671,335.662 C228.671,327.16 233.468,321.7 240.488,321.7 C247.664,321.7 252.305,327.16 252.305,335.662 C252.305,344.164 247.547,349.624 240.449,349.624 Z" id="#000000" fill="#FFFFFF" opacity="0.200000003"></path>
                        </g>
                        <g id="Group" transform="translate(720.000000, 485.000000)">
                            <rect id="Rectangle-6" fill="#FFFFFF" x="0" y="0" width="720" height="422"></rect>
                            <path d="M84.911,306 L84.911,278.115 L97.469,278.115 C100.862,278.115 103.358,279.051 105.074,280.689 C106.868,282.366 107.882,284.745 107.882,287.553 C107.882,292.896 104.177,296.679 98.444,296.679 L91.931,296.679 L91.931,306 L84.911,306 Z M91.931,291.219 L97.04,291.219 C99.536,291.219 100.94,289.737 100.94,287.514 C100.94,285.291 99.497,283.926 97.04,283.926 L91.931,283.926 L91.931,291.219 Z M114.813,306.585 C110.211,306.585 107.793,303.582 107.793,299.136 L107.793,286.032 L114.111,286.032 L114.111,297.81 C114.111,299.994 115.086,301.203 117.114,301.203 C119.298,301.203 120.624,299.565 120.624,297.186 L120.624,286.032 L126.981,286.032 L126.981,306 L120.897,306 L120.897,303.543 L120.78,303.543 C119.337,305.493 117.582,306.585 114.813,306.585 Z M128.023,306 L128.023,286.032 L134.107,286.032 L134.107,289.152 L134.224,289.152 C135.628,286.773 137.266,285.72 139.684,285.72 C140.269,285.72 140.659,285.759 140.932,285.876 L140.932,291.336 L140.776,291.336 C136.876,290.79 134.38,292.701 134.38,297.03 L134.38,306 L128.023,306 Z M150.32,306.585 C143.729,306.585 139.673,302.022 139.673,295.977 C139.673,290.01 143.846,285.447 149.93,285.447 C152.777,285.447 155.039,286.383 156.755,287.943 C159.134,290.127 160.304,293.598 160.265,297.654 L145.913,297.654 C146.303,300.345 147.785,302.022 150.398,302.022 C152.075,302.022 153.167,301.281 153.713,300.033 L159.914,300.033 C159.485,301.827 158.315,303.543 156.56,304.752 C154.883,305.922 152.855,306.585 150.32,306.585 Z M145.952,293.871 L153.83,293.871 C153.596,291.492 152.114,289.971 150.047,289.971 C147.629,289.971 146.381,291.492 145.952,293.871 Z M174.623,306 L166.979,278.115 L173.96,278.115 L176.768,289.815 C177.392,292.506 178.055,296.718 178.055,296.718 L178.133,296.718 C178.133,296.718 178.874,292.896 179.498,290.088 L182.111,278.115 L188.507,278.115 L191.12,290.01 C191.744,292.857 192.446,296.718 192.446,296.718 L192.524,296.718 C192.524,296.718 193.304,292.506 193.928,289.737 L196.697,278.115 L203.639,278.115 L195.995,306 L189.248,306 L186.323,292.623 C185.816,290.4 185.348,287.436 185.348,287.436 L185.27,287.436 C185.27,287.436 184.802,290.4 184.334,292.623 L181.409,306 L174.623,306 Z M203.16,306 L203.16,278.115 L209.517,278.115 L209.517,288.489 L209.634,288.489 C211.077,286.578 212.793,285.447 215.562,285.447 C219.93,285.447 222.504,288.567 222.504,293.013 L222.504,306 L216.147,306 L216.147,294.3 C216.147,292.194 215.094,290.751 213.027,290.751 C210.921,290.751 209.517,292.506 209.517,294.963 L209.517,306 L203.16,306 Z M223.39,306 L223.39,286.032 L229.747,286.032 L229.747,306 L223.39,306 Z M223.39,283.263 L223.39,278.115 L229.747,278.115 L229.747,283.263 L223.39,283.263 Z M238.706,306.234 C235.001,306.234 232.349,305.025 232.349,300.735 L232.349,290.01 L229.697,290.01 L229.697,286.032 L232.349,286.032 L232.349,279.714 L238.55,279.714 L238.55,286.032 L242.177,286.032 L242.177,290.01 L238.55,290.01 L238.55,299.37 C238.55,300.93 239.408,301.32 240.773,301.32 C241.319,301.32 241.943,301.281 242.177,301.281 L242.177,305.922 C241.631,306.078 240.422,306.234 238.706,306.234 Z M252.033,306.585 C245.442,306.585 241.386,302.022 241.386,295.977 C241.386,290.01 245.559,285.447 251.643,285.447 C254.49,285.447 256.752,286.383 258.468,287.943 C260.847,290.127 262.017,293.598 261.978,297.654 L247.626,297.654 C248.016,300.345 249.498,302.022 252.111,302.022 C253.788,302.022 254.88,301.281 255.426,300.033 L261.627,300.033 C261.198,301.827 260.028,303.543 258.273,304.752 C256.596,305.922 254.568,306.585 252.033,306.585 Z M247.665,293.871 L255.543,293.871 C255.309,291.492 253.827,289.971 251.76,289.971 C249.342,289.971 248.094,291.492 247.665,293.871 Z M261.85,306 L261.85,299.448 L268.519,299.448 L268.519,306 L261.85,306 Z" id="Pure-White." fill="#000000"></path>
                            <path d="M86.471,349 L87.563,342.253 L83.936,342.253 L84.794,337.339 L88.382,337.339 L89.006,333.439 L85.379,333.439 L86.237,328.525 L89.825,328.525 L90.878,322.246 L94.934,322.246 L93.881,328.525 L97.898,328.525 L98.951,322.246 L103.007,322.246 L101.954,328.525 L105.62,328.525 L104.762,333.439 L101.135,333.439 L100.511,337.339 L104.099,337.339 L103.28,342.253 L99.692,342.253 L98.6,349 L94.544,349 L95.636,342.253 L91.619,342.253 L90.527,349 L86.471,349 Z M92.438,337.339 L96.455,337.339 L97.079,333.439 L93.062,333.439 L92.438,337.339 Z M107.311,349 L107.311,321.115 L128.059,321.115 L128.059,326.926 L114.214,326.926 L114.214,332.581 L125.797,332.581 L125.797,338.158 L114.214,338.158 L114.214,349 L107.311,349 Z M129.789,349 L129.789,321.115 L150.537,321.115 L150.537,326.926 L136.692,326.926 L136.692,332.581 L148.275,332.581 L148.275,338.158 L136.692,338.158 L136.692,349 L129.789,349 Z M152.267,349 L152.267,321.115 L173.015,321.115 L173.015,326.926 L159.17,326.926 L159.17,332.581 L170.753,332.581 L170.753,338.158 L159.17,338.158 L159.17,349 L152.267,349 Z M174.745,349 L174.745,321.115 L195.493,321.115 L195.493,326.926 L181.648,326.926 L181.648,332.581 L193.231,332.581 L193.231,338.158 L181.648,338.158 L181.648,349 L174.745,349 Z M197.223,349 L197.223,321.115 L217.971,321.115 L217.971,326.926 L204.126,326.926 L204.126,332.581 L215.709,332.581 L215.709,338.158 L204.126,338.158 L204.126,349 L197.223,349 Z M219.701,349 L219.701,321.115 L240.449,321.115 L240.449,326.926 L226.604,326.926 L226.604,332.581 L238.187,332.581 L238.187,338.158 L226.604,338.158 L226.604,349 L219.701,349 Z" id="#FFFFFF" fill="#000000" opacity="0.100000001"></path>
                        </g>
                    </g>
                    <g id="Group-6" transform="translate(239.000000, 1339.000000)">
                        <path d="M6.572,2.16 L6.572,10 L4.612,10 L4.612,2.16 L1.07,2.16 L1.07,0.2 L10.114,0.2 L10.114,2.16 L6.572,2.16 Z M19.314,10 L19.314,6.206 L15.31,0.2 L17.676,0.2 L20.294,4.12 L22.912,0.2 L25.278,0.2 L21.274,6.206 L21.274,10 L19.314,10 Z M34.856,0.2 C35.36,0.2 35.822,0.286333405 36.242,0.459 C36.662,0.631666595 37.0236666,0.869666595 37.327,1.173 C37.6303334,1.4763334 37.8683334,1.838 38.041,2.258 C38.2136666,2.678 38.3,3.1353334 38.3,3.63 C38.3,4.1246666 38.2136666,4.5796666 38.041,4.995 C37.8683334,5.4103334 37.6303334,5.7696666 37.327,6.073 C37.0236666,6.3763334 36.662,6.6143334 36.242,6.787 C35.822,6.9596666 35.36,7.046 34.856,7.046 L32.98,7.046 L32.98,10 L31.02,10 L31.02,0.2 L34.856,0.2 Z M36.34,3.63 C36.34,3.2006666 36.2116666,2.8483334 35.955,2.573 C35.6983334,2.2976666 35.332,2.16 34.856,2.16 L32.98,2.16 L32.98,5.086 L34.856,5.086 C35.332,5.086 35.6983334,4.9483334 35.955,4.673 C36.2116666,4.3976666 36.34,4.05 36.34,3.63 Z M44.168,5.1 C44.168,4.4 44.2916666,3.7513334 44.539,3.154 C44.7863334,2.5566666 45.1293334,2.0386666 45.568,1.6 C46.0066666,1.1613334 46.5246666,0.818333405 47.122,0.571 C47.7193334,0.323666595 48.368,0.2 49.068,0.2 C49.768,0.2 50.4166666,0.323666595 51.014,0.571 C51.6113334,0.818333405 52.1293334,1.1613334 52.568,1.6 C53.0066666,2.0386666 53.3496666,2.5566666 53.597,3.154 C53.8443334,3.7513334 53.968,4.4 53.968,5.1 C53.968,5.8 53.8443334,6.4486666 53.597,7.046 C53.3496666,7.6433334 53.0066666,8.1613334 52.568,8.6 C52.1293334,9.0386666 51.6113334,9.3816666 51.014,9.629 C50.4166666,9.8763334 49.768,10 49.068,10 C48.368,10 47.7193334,9.8763334 47.122,9.629 C46.5246666,9.3816666 46.0066666,9.0386666 45.568,8.6 C45.1293334,8.1613334 44.7863334,7.6433334 44.539,7.046 C44.2916666,6.4486666 44.168,5.8 44.168,5.1 Z M52.008,5.1 C52.008,4.6706666 51.9356666,4.2763334 51.791,3.917 C51.6463334,3.5576666 51.4433334,3.2473334 51.182,2.986 C50.9206666,2.7246666 50.6103334,2.5216666 50.251,2.377 C49.8916666,2.2323334 49.4973334,2.16 49.068,2.16 C48.6386666,2.16 48.2443334,2.2323334 47.885,2.377 C47.5256666,2.5216666 47.2153334,2.7246666 46.954,2.986 C46.6926666,3.2473334 46.4896666,3.5576666 46.345,3.917 C46.2003334,4.2763334 46.128,4.6706666 46.128,5.1 C46.128,5.5293334 46.2003334,5.9236666 46.345,6.283 C46.4896666,6.6423334 46.6926666,6.9526666 46.954,7.214 C47.2153334,7.4753334 47.5256666,7.6783334 47.885,7.823 C48.2443334,7.9676666 48.6386666,8.04 49.068,8.04 C49.4973334,8.04 49.8916666,7.9676666 50.251,7.823 C50.6103334,7.6783334 50.9206666,7.4753334 51.182,7.214 C51.4433334,6.9526666 51.6463334,6.6423334 51.791,6.283 C51.9356666,5.9236666 52.008,5.5293334 52.008,5.1 Z M60.102,5.114 C60.102,4.4046666 60.221,3.7513334 60.459,3.154 C60.697,2.5566666 61.0353334,2.0386666 61.474,1.6 C61.9126666,1.1613334 62.4376666,0.818333405 63.049,0.571 C63.6603334,0.323666595 64.3393334,0.2 65.086,0.2 C65.758,0.2 66.4043334,0.312 67.025,0.536 C67.6456666,0.76 68.1986666,1.11 68.684,1.586 L67.732,3.406 C67.3586666,2.9766666 66.941,2.6616666 66.479,2.461 C66.017,2.2603334 65.52,2.16 64.988,2.16 C64.5586666,2.16 64.1643334,2.2323334 63.805,2.377 C63.4456666,2.5216666 63.1376666,2.7223334 62.881,2.979 C62.6243334,3.2356666 62.4236666,3.546 62.279,3.91 C62.1343334,4.274 62.062,4.6706666 62.062,5.1 C62.062,5.5386666 62.1343334,5.94 62.279,6.304 C62.4236666,6.668 62.6266666,6.9783334 62.888,7.235 C63.1493334,7.4916666 63.462,7.6923334 63.826,7.837 C64.19,7.9816666 64.596,8.054 65.044,8.054 C65.3053334,8.054 65.569,8.019 65.835,7.949 C66.101,7.879 66.3436666,7.774 66.563,7.634 C66.7823334,7.494 66.9736666,7.3166666 67.137,7.102 C67.3003334,6.8873334 67.41,6.64 67.466,6.36 L64.722,6.36 L64.722,4.4 L69.72,4.4 L69.72,5.044 C69.72,5.8466666 69.5986666,6.556 69.356,7.172 C69.1133334,7.788 68.782,8.306 68.362,8.726 C67.942,9.146 67.4496666,9.4633334 66.885,9.678 C66.3203334,9.8926666 65.7206666,10 65.086,10 C64.3486666,10 63.6743334,9.8786666 63.063,9.636 C62.4516666,9.3933334 61.9266666,9.055 61.488,8.621 C61.0493334,8.187 60.7086666,7.6713334 60.466,7.074 C60.2233334,6.4766666 60.102,5.8233334 60.102,5.114 Z M81.552,3.462 C81.552,3.1073334 81.4376666,2.8016666 81.209,2.545 C80.9803334,2.2883334 80.6606666,2.16 80.25,2.16 L78.038,2.16 L78.038,4.764 L80.25,4.764 C80.6606666,4.764 80.9803334,4.6356666 81.209,4.379 C81.4376666,4.1223334 81.552,3.8166666 81.552,3.462 Z M76.078,10 L76.078,0.2 L80.25,0.2 C80.7166666,0.2 81.1506666,0.284 81.552,0.452 C81.9533334,0.62 82.2986666,0.851 82.588,1.145 C82.8773334,1.439 83.1036666,1.7843334 83.267,2.181 C83.4303334,2.5776666 83.512,3.0046666 83.512,3.462 C83.512,3.8166666 83.4606666,4.155 83.358,4.477 C83.2553334,4.799 83.113,5.093 82.931,5.359 C82.749,5.625 82.5296666,5.856 82.273,6.052 C82.0163334,6.248 81.734,6.402 81.426,6.514 L83.75,10 L81.356,10 L79.256,6.724 L78.038,6.724 L78.038,10 L76.078,10 Z M92.964,6.5 L96.296,6.5 L94.63,2.888 L92.964,6.5 Z M97.206,8.46 L92.054,8.46 L91.34,10 L89.184,10 L93.72,0.2 L95.54,0.2 L100.076,10 L97.92,10 L97.206,8.46 Z M110.046,0.2 C110.55,0.2 111.012,0.286333405 111.432,0.459 C111.852,0.631666595 112.213667,0.869666595 112.517,1.173 C112.820333,1.4763334 113.058333,1.838 113.231,2.258 C113.403667,2.678 113.49,3.1353334 113.49,3.63 C113.49,4.1246666 113.403667,4.5796666 113.231,4.995 C113.058333,5.4103334 112.820333,5.7696666 112.517,6.073 C112.213667,6.3763334 111.852,6.6143334 111.432,6.787 C111.012,6.9596666 110.55,7.046 110.046,7.046 L108.17,7.046 L108.17,10 L106.21,10 L106.21,0.2 L110.046,0.2 Z M111.53,3.63 C111.53,3.2006666 111.401667,2.8483334 111.145,2.573 C110.888333,2.2976666 110.522,2.16 110.046,2.16 L108.17,2.16 L108.17,5.086 L110.046,5.086 C110.522,5.086 110.888333,4.9483334 111.145,4.673 C111.401667,4.3976666 111.53,4.05 111.53,3.63 Z M128.08,0.2 L128.08,10 L126.12,10 L126.12,6.08 L121.822,6.08 L121.822,10 L119.862,10 L119.862,0.2 L121.822,0.2 L121.822,4.12 L126.12,4.12 L126.12,0.2 L128.08,0.2 Z M138.092,10 L138.092,6.206 L134.088,0.2 L136.454,0.2 L139.072,4.12 L141.69,0.2 L144.056,0.2 L140.052,6.206 L140.052,10 L138.092,10 Z" id="typography" fill="#181819" opacity="0.299999982"></path>
                        <path d="M3.194,178 L3.194,102.21 L22.062,102.21 L44.534,140.264 C45.7,142.384 49.728,149.91 49.728,149.91 L49.94,149.91 C49.94,149.91 49.728,140.794 49.728,138.144 L49.728,102.21 L68.066,102.21 L68.066,178 L49.198,178 L26.938,140.476 C25.666,138.462 21.532,130.3 21.532,130.3 L21.32,130.3 C21.32,130.3 21.532,140.052 21.532,142.702 L21.532,178 L3.194,178 Z M101.894,179.59 C83.98,179.59 72.956,167.188 72.956,150.758 C72.956,134.54 84.298,122.138 100.834,122.138 C108.572,122.138 114.72,124.682 119.384,128.922 C125.85,134.858 129.03,144.292 128.924,155.316 L89.916,155.316 C90.976,162.63 95.004,167.188 102.106,167.188 C106.664,167.188 109.632,165.174 111.116,161.782 L127.97,161.782 C126.804,166.658 123.624,171.322 118.854,174.608 C114.296,177.788 108.784,179.59 101.894,179.59 Z M90.022,145.034 L111.434,145.034 C110.798,138.568 106.77,134.434 101.152,134.434 C94.58,134.434 91.188,138.568 90.022,145.034 Z M151.41,179.59 C138.902,179.59 132.33,171.428 132.33,159.344 L132.33,123.728 L149.502,123.728 L149.502,155.74 C149.502,161.676 152.152,164.962 157.664,164.962 C163.6,164.962 167.204,160.51 167.204,154.044 L167.204,123.728 L184.482,123.728 L184.482,178 L167.946,178 L167.946,171.322 L167.628,171.322 C163.706,176.622 158.936,179.59 151.41,179.59 Z M217.25,179.59 C199.336,179.59 188.312,167.188 188.312,150.758 C188.312,134.54 199.654,122.138 216.19,122.138 C223.928,122.138 230.076,124.682 234.74,128.922 C241.206,134.858 244.386,144.292 244.28,155.316 L205.272,155.316 C206.332,162.63 210.36,167.188 217.462,167.188 C222.02,167.188 224.988,165.174 226.472,161.782 L243.326,161.782 C242.16,166.658 238.98,171.322 234.21,174.608 C229.652,177.788 224.14,179.59 217.25,179.59 Z M205.378,145.034 L226.79,145.034 C226.154,138.568 222.126,134.434 216.508,134.434 C209.936,134.434 206.544,138.568 205.378,145.034 Z M263.6,178 L263.6,102.21 L282.362,102.21 L282.362,130.936 L308.968,130.936 L308.968,102.21 L327.73,102.21 L327.73,178 L308.968,178 L308.968,146.412 L282.362,146.412 L282.362,178 L263.6,178 Z M351.064,179.378 C340.252,179.378 332.514,173.548 332.514,162.842 C332.514,150.864 342.054,147.26 353.29,145.776 C363.466,144.504 367.07,143.444 367.07,139.734 C367.07,136.236 364.844,133.904 359.65,133.904 C354.138,133.904 351.382,136.342 350.852,140.9 L334.952,140.9 C335.376,130.83 343.114,122.244 359.544,122.244 C367.706,122.244 373.218,123.728 377.14,126.696 C381.804,130.088 384.03,135.388 384.03,142.172 L384.03,169.52 C384.03,173.866 384.454,176.304 385.938,177.258 L385.938,178 L369.19,178 C368.342,176.834 367.812,174.714 367.388,171.958 L367.176,171.958 C363.996,176.516 359.226,179.378 351.064,179.378 Z M356.576,168.354 C363.042,168.354 367.494,164.432 367.494,158.602 L367.494,152.136 C365.268,153.302 362.088,154.15 358.59,154.998 C351.912,156.482 349.156,158.178 349.156,162.312 C349.156,166.658 352.336,168.354 356.576,168.354 Z M406.41,179.378 C395.598,179.378 387.86,173.548 387.86,162.842 C387.86,150.864 397.4,147.26 408.636,145.776 C418.812,144.504 422.416,143.444 422.416,139.734 C422.416,136.236 420.19,133.904 414.996,133.904 C409.484,133.904 406.728,136.342 406.198,140.9 L390.298,140.9 C390.722,130.83 398.46,122.244 414.89,122.244 C423.052,122.244 428.564,123.728 432.486,126.696 C437.15,130.088 439.376,135.388 439.376,142.172 L439.376,169.52 C439.376,173.866 439.8,176.304 441.284,177.258 L441.284,178 L424.536,178 C423.688,176.834 423.158,174.714 422.734,171.958 L422.522,171.958 C419.342,176.516 414.572,179.378 406.41,179.378 Z M411.922,168.354 C418.388,168.354 422.84,164.432 422.84,158.602 L422.84,152.136 C420.614,153.302 417.434,154.15 413.936,154.998 C407.258,156.482 404.502,158.178 404.502,162.312 C404.502,166.658 407.682,168.354 411.922,168.354 Z M468.858,179.696 C452.958,179.696 442.994,172.382 442.464,160.404 L458.788,160.404 C459.424,165.81 463.028,168.46 468.752,168.46 C473.946,168.46 477.232,166.552 477.232,163.054 C477.232,158.178 470.66,157.648 463.452,156.376 C454.018,154.786 443.948,152.242 443.948,139.522 C443.948,128.074 454.548,122.138 467.374,122.138 C482.744,122.138 491.012,128.816 491.86,139.522 L475.96,139.522 C475.324,134.646 472.038,133.162 467.268,133.162 C463.028,133.162 459.742,134.752 459.742,138.144 C459.742,141.96 465.89,142.49 472.78,143.762 C482.32,145.352 493.556,147.79 493.556,161.676 C493.556,173.548 483.062,179.696 468.858,179.696 Z M36.266,284.696 C25.454,284.696 16.656,280.88 10.402,274.096 C3.83,266.888 0.226,256.924 0.226,245.37 C0.226,233.498 4.254,223.004 11.462,215.796 C17.716,209.436 26.514,205.726 37.432,205.726 C56.936,205.726 68.596,216.114 71.034,232.014 L52.802,232.014 C51.424,225.866 46.336,221.202 38.068,221.202 C25.56,221.202 19.306,231.59 19.306,245.37 C19.306,259.256 26.514,269.538 38.386,269.538 C48.244,269.538 54.074,262.966 54.816,256.288 L54.816,256.076 L40.612,256.076 L40.612,242.296 L72.2,242.296 L72.2,283 L59.056,283 L57.996,273.884 L57.784,273.884 C52.802,281.622 45.382,284.696 36.266,284.696 Z M78.786,283 L78.786,228.728 L95.322,228.728 L95.322,237.208 L95.64,237.208 C99.456,230.742 103.908,227.88 110.48,227.88 C112.07,227.88 113.13,227.986 113.872,228.304 L113.872,243.144 L113.448,243.144 C102.848,241.66 96.064,246.854 96.064,258.62 L96.064,283 L78.786,283 Z M142.824,272.4 C150.35,272.4 154.378,265.828 154.378,255.97 C154.378,246.112 150.35,239.434 142.824,239.434 C135.298,239.434 131.376,246.112 131.376,255.97 C131.376,265.828 135.298,272.4 142.824,272.4 Z M142.93,284.696 C125.546,284.696 113.886,272.294 113.886,255.97 C113.886,239.646 125.546,227.244 142.93,227.244 C160.42,227.244 171.868,239.646 171.868,255.97 C171.868,272.294 160.42,284.696 142.93,284.696 Z M196.156,283.636 C186.086,283.636 178.878,280.35 178.878,268.69 L178.878,239.54 L171.67,239.54 L171.67,228.728 L178.878,228.728 L178.878,211.556 L195.732,211.556 L195.732,228.728 L205.59,228.728 L205.59,239.54 L195.732,239.54 L195.732,264.98 C195.732,269.22 198.064,270.28 201.774,270.28 C203.258,270.28 204.954,270.174 205.59,270.174 L205.59,282.788 C204.106,283.212 200.82,283.636 196.156,283.636 Z M235.814,284.59 C217.9,284.59 206.876,272.188 206.876,255.758 C206.876,239.54 218.218,227.138 234.754,227.138 C242.492,227.138 248.64,229.682 253.304,233.922 C259.77,239.858 262.95,249.292 262.844,260.316 L223.836,260.316 C224.896,267.63 228.924,272.188 236.026,272.188 C240.584,272.188 243.552,270.174 245.036,266.782 L261.89,266.782 C260.724,271.658 257.544,276.322 252.774,279.608 C248.216,282.788 242.704,284.59 235.814,284.59 Z M223.942,250.034 L245.354,250.034 C244.718,243.568 240.69,239.434 235.072,239.434 C228.5,239.434 225.108,243.568 223.942,250.034 Z M289.782,284.696 C273.882,284.696 263.918,277.382 263.388,265.404 L279.712,265.404 C280.348,270.81 283.952,273.46 289.676,273.46 C294.87,273.46 298.156,271.552 298.156,268.054 C298.156,263.178 291.584,262.648 284.376,261.376 C274.942,259.786 264.872,257.242 264.872,244.522 C264.872,233.074 275.472,227.138 288.298,227.138 C303.668,227.138 311.936,233.816 312.784,244.522 L296.884,244.522 C296.248,239.646 292.962,238.162 288.192,238.162 C283.952,238.162 280.666,239.752 280.666,243.144 C280.666,246.96 286.814,247.49 293.704,248.762 C303.244,250.352 314.48,252.79 314.48,266.676 C314.48,278.548 303.986,284.696 289.782,284.696 Z M318.098,283 L318.098,207.21 L335.164,207.21 L335.164,247.066 L351.276,228.728 L371.204,228.728 L352.124,249.08 L373.43,283 L353.396,283 L340.358,260.846 L335.164,266.358 L335.164,283 L318.098,283 Z M375.246,283 L375.246,265.192 L393.372,265.192 L393.372,283 L375.246,283 Z" id="Neue-Haas-Grotesk." fill="#000000"></path>
                        <path d="M723.205,135 L723.205,102.825 L747.595,102.825 L747.595,109.395 L731.17,109.395 L731.17,115.155 L745.255,115.155 L745.255,121.365 L731.17,121.365 L731.17,128.25 L747.865,128.25 L747.865,135 L723.205,135 Z M758.26,135.585 C753.67,135.585 750.385,133.11 750.385,128.565 C750.385,123.48 754.435,121.95 759.205,121.32 C763.525,120.78 765.055,120.33 765.055,118.755 C765.055,117.27 764.11,116.28 761.905,116.28 C759.565,116.28 758.395,117.315 758.17,119.25 L751.42,119.25 C751.6,114.975 754.885,111.33 761.86,111.33 C765.325,111.33 767.665,111.96 769.33,113.22 C771.31,114.66 772.255,116.91 772.255,119.79 L772.255,131.4 C772.255,133.245 772.435,134.28 773.065,134.685 L773.065,135 L765.955,135 C765.595,134.505 765.37,133.605 765.19,132.435 L765.1,132.435 C763.75,134.37 761.725,135.585 758.26,135.585 Z M760.6,130.905 C763.345,130.905 765.235,129.24 765.235,126.765 L765.235,124.02 C764.29,124.515 762.94,124.875 761.455,125.235 C758.62,125.865 757.45,126.585 757.45,128.34 C757.45,130.185 758.8,130.905 760.6,130.905 Z M784.945,135.27 C780.67,135.27 777.61,133.875 777.61,128.925 L777.61,116.55 L774.55,116.55 L774.55,111.96 L777.61,111.96 L777.61,104.67 L784.765,104.67 L784.765,111.96 L788.95,111.96 L788.95,116.55 L784.765,116.55 L784.765,127.35 C784.765,129.15 785.755,129.6 787.33,129.6 C787.96,129.6 788.68,129.555 788.95,129.555 L788.95,134.91 C788.32,135.09 786.925,135.27 784.945,135.27 Z M803.08,130.5 C806.275,130.5 807.985,127.71 807.985,123.525 C807.985,119.34 806.275,116.505 803.08,116.505 C799.885,116.505 798.22,119.34 798.22,123.525 C798.22,127.71 799.885,130.5 803.08,130.5 Z M803.125,135.72 C795.745,135.72 790.795,130.455 790.795,123.525 C790.795,116.595 795.745,111.33 803.125,111.33 C810.55,111.33 815.41,116.595 815.41,123.525 C815.41,130.455 810.55,135.72 803.125,135.72 Z M818.335,135 L818.335,111.96 L825.4,111.96 L825.4,115.11 L825.535,115.11 C827.245,112.635 829.45,111.285 832.645,111.285 C837.685,111.285 840.655,114.885 840.655,120.015 L840.655,135 L833.32,135 L833.32,121.5 C833.32,119.07 832.105,117.405 829.72,117.405 C827.29,117.405 825.67,119.43 825.67,122.265 L825.67,135 L818.335,135 Z M852.31,135 L852.31,102.825 L860.275,102.825 L860.275,115.02 L871.57,115.02 L871.57,102.825 L879.535,102.825 L879.535,135 L871.57,135 L871.57,121.59 L860.275,121.59 L860.275,135 L852.31,135 Z M890.74,135.585 C886.15,135.585 882.865,133.11 882.865,128.565 C882.865,123.48 886.915,121.95 891.685,121.32 C896.005,120.78 897.535,120.33 897.535,118.755 C897.535,117.27 896.59,116.28 894.385,116.28 C892.045,116.28 890.875,117.315 890.65,119.25 L883.9,119.25 C884.08,114.975 887.365,111.33 894.34,111.33 C897.805,111.33 900.145,111.96 901.81,113.22 C903.79,114.66 904.735,116.91 904.735,119.79 L904.735,131.4 C904.735,133.245 904.915,134.28 905.545,134.685 L905.545,135 L898.435,135 C898.075,134.505 897.85,133.605 897.67,132.435 L897.58,132.435 C896.23,134.37 894.205,135.585 890.74,135.585 Z M893.08,130.905 C895.825,130.905 897.715,129.24 897.715,126.765 L897.715,124.02 C896.77,124.515 895.42,124.875 893.935,125.235 C891.1,125.865 889.93,126.585 889.93,128.34 C889.93,130.185 891.28,130.905 893.08,130.905 Z M908.785,135 L908.785,102.825 L916.21,102.825 L916.21,135 L908.785,135 Z M920.26,135 L920.26,102.825 L927.685,102.825 L927.685,135 L920.26,135 Z M937.315,135 L948.88,102.825 L957.07,102.825 L968.68,135 L960.31,135 L958.42,129.195 L947.17,129.195 L945.325,135 L937.315,135 Z M949.015,123.48 L956.575,123.48 L954.145,115.695 C953.605,114.03 952.885,111.15 952.885,111.15 L952.795,111.15 C952.795,111.15 952.03,114.03 951.49,115.695 L949.015,123.48 Z M970.93,135 L970.93,111.96 L977.95,111.96 L977.95,115.56 L978.085,115.56 C979.705,112.815 981.595,111.6 984.385,111.6 C985.06,111.6 985.51,111.645 985.825,111.78 L985.825,118.08 L985.645,118.08 C981.145,117.45 978.265,119.655 978.265,124.65 L978.265,135 L970.93,135 Z M999.37,135.72 C991.945,135.72 987.13,130.455 987.13,123.525 C987.13,116.595 991.9,111.33 999.19,111.33 C1005.445,111.33 1009.45,114.975 1010.125,120.15 L1003.06,120.15 C1002.61,118.08 1001.35,116.73 999.28,116.73 C996.13,116.73 994.555,119.34 994.555,123.525 C994.555,127.62 996.13,130.23 999.28,130.23 C1001.575,130.23 1002.97,128.88 1003.285,126.27 L1010.305,126.27 C1010.125,131.58 1005.895,135.72 999.37,135.72 Z M1013.095,135 L1013.095,102.825 L1020.43,102.825 L1020.43,114.795 L1020.565,114.795 C1022.23,112.59 1024.21,111.285 1027.405,111.285 C1032.445,111.285 1035.415,114.885 1035.415,120.015 L1035.415,135 L1028.08,135 L1028.08,121.5 C1028.08,119.07 1026.865,117.405 1024.48,117.405 C1022.05,117.405 1020.43,119.43 1020.43,122.265 L1020.43,135 L1013.095,135 Z M1039.195,135 L1039.195,111.96 L1046.53,111.96 L1046.53,135 L1039.195,135 Z M1039.195,108.765 L1039.195,102.825 L1046.53,102.825 L1046.53,108.765 L1039.195,108.765 Z M1059.625,135.27 C1055.35,135.27 1052.29,133.875 1052.29,128.925 L1052.29,116.55 L1049.23,116.55 L1049.23,111.96 L1052.29,111.96 L1052.29,104.67 L1059.445,104.67 L1059.445,111.96 L1063.63,111.96 L1063.63,116.55 L1059.445,116.55 L1059.445,127.35 C1059.445,129.15 1060.435,129.6 1062.01,129.6 C1062.64,129.6 1063.36,129.555 1063.63,129.555 L1063.63,134.91 C1063,135.09 1061.605,135.27 1059.625,135.27 Z M1077.76,135.675 C1070.155,135.675 1065.475,130.41 1065.475,123.435 C1065.475,116.55 1070.29,111.285 1077.31,111.285 C1080.595,111.285 1083.205,112.365 1085.185,114.165 C1087.93,116.685 1089.28,120.69 1089.235,125.37 L1072.675,125.37 C1073.125,128.475 1074.835,130.41 1077.85,130.41 C1079.785,130.41 1081.045,129.555 1081.675,128.115 L1088.83,128.115 C1088.335,130.185 1086.985,132.165 1084.96,133.56 C1083.025,134.91 1080.685,135.675 1077.76,135.675 Z M1072.72,121.005 L1081.81,121.005 C1081.54,118.26 1079.83,116.505 1077.445,116.505 C1074.655,116.505 1073.215,118.26 1072.72,121.005 Z M1103.365,135.72 C1095.94,135.72 1091.125,130.455 1091.125,123.525 C1091.125,116.595 1095.895,111.33 1103.185,111.33 C1109.44,111.33 1113.445,114.975 1114.12,120.15 L1107.055,120.15 C1106.605,118.08 1105.345,116.73 1103.275,116.73 C1100.125,116.73 1098.55,119.34 1098.55,123.525 C1098.55,127.62 1100.125,130.23 1103.275,130.23 C1105.57,130.23 1106.965,128.88 1107.28,126.27 L1114.3,126.27 C1114.12,131.58 1109.89,135.72 1103.365,135.72 Z M1126.225,135.27 C1121.95,135.27 1118.89,133.875 1118.89,128.925 L1118.89,116.55 L1115.83,116.55 L1115.83,111.96 L1118.89,111.96 L1118.89,104.67 L1126.045,104.67 L1126.045,111.96 L1130.23,111.96 L1130.23,116.55 L1126.045,116.55 L1126.045,127.35 C1126.045,129.15 1127.035,129.6 1128.61,129.6 C1129.24,129.6 1129.96,129.555 1130.23,129.555 L1130.23,134.91 C1129.6,135.09 1128.205,135.27 1126.225,135.27 Z M1141.255,135.675 C1135.945,135.675 1133.155,132.21 1133.155,127.08 L1133.155,111.96 L1140.445,111.96 L1140.445,125.55 C1140.445,128.07 1141.57,129.465 1143.91,129.465 C1146.43,129.465 1147.96,127.575 1147.96,124.83 L1147.96,111.96 L1155.295,111.96 L1155.295,135 L1148.275,135 L1148.275,132.165 L1148.14,132.165 C1146.475,134.415 1144.45,135.675 1141.255,135.675 Z M1159.255,135 L1159.255,111.96 L1166.275,111.96 L1166.275,115.56 L1166.41,115.56 C1168.03,112.815 1169.92,111.6 1172.71,111.6 C1173.385,111.6 1173.835,111.645 1174.15,111.78 L1174.15,118.08 L1173.97,118.08 C1169.47,117.45 1166.59,119.655 1166.59,124.65 L1166.59,135 L1159.255,135 Z M1187.74,135.675 C1180.135,135.675 1175.455,130.41 1175.455,123.435 C1175.455,116.55 1180.27,111.285 1187.29,111.285 C1190.575,111.285 1193.185,112.365 1195.165,114.165 C1197.91,116.685 1199.26,120.69 1199.215,125.37 L1182.655,125.37 C1183.105,128.475 1184.815,130.41 1187.83,130.41 C1189.765,130.41 1191.025,129.555 1191.655,128.115 L1198.81,128.115 C1198.315,130.185 1196.965,132.165 1194.94,133.56 C1193.005,134.91 1190.665,135.675 1187.74,135.675 Z M1182.7,121.005 L1191.79,121.005 C1191.52,118.26 1189.81,116.505 1187.425,116.505 C1184.635,116.505 1183.195,118.26 1182.7,121.005 Z M1209.565,135 L1209.565,111.96 L1216.9,111.96 L1216.9,135 L1209.565,135 Z M1209.565,108.765 L1209.565,102.825 L1216.9,102.825 L1216.9,108.765 L1209.565,108.765 Z M1230.67,135.72 C1223.92,135.72 1219.69,132.615 1219.465,127.53 L1226.395,127.53 C1226.665,129.825 1228.195,130.95 1230.625,130.95 C1232.83,130.95 1234.225,130.14 1234.225,128.655 C1234.225,126.585 1231.435,126.36 1228.375,125.82 C1224.37,125.145 1220.095,124.065 1220.095,118.665 C1220.095,113.805 1224.595,111.285 1230.04,111.285 C1236.565,111.285 1240.075,114.12 1240.435,118.665 L1233.685,118.665 C1233.415,116.595 1232.02,115.965 1229.995,115.965 C1228.195,115.965 1226.8,116.64 1226.8,118.08 C1226.8,119.7 1229.41,119.925 1232.335,120.465 C1236.385,121.14 1241.155,122.175 1241.155,128.07 C1241.155,133.11 1236.7,135.72 1230.67,135.72 Z M1258.21,135.585 C1253.62,135.585 1250.335,133.11 1250.335,128.565 C1250.335,123.48 1254.385,121.95 1259.155,121.32 C1263.475,120.78 1265.005,120.33 1265.005,118.755 C1265.005,117.27 1264.06,116.28 1261.855,116.28 C1259.515,116.28 1258.345,117.315 1258.12,119.25 L1251.37,119.25 C1251.55,114.975 1254.835,111.33 1261.81,111.33 C1265.275,111.33 1267.615,111.96 1269.28,113.22 C1271.26,114.66 1272.205,116.91 1272.205,119.79 L1272.205,131.4 C1272.205,133.245 1272.385,134.28 1273.015,134.685 L1273.015,135 L1265.905,135 C1265.545,134.505 1265.32,133.605 1265.14,132.435 L1265.05,132.435 C1263.7,134.37 1261.675,135.585 1258.21,135.585 Z M1260.55,130.905 C1263.295,130.905 1265.185,129.24 1265.185,126.765 L1265.185,124.02 C1264.24,124.515 1262.89,124.875 1261.405,125.235 C1258.57,125.865 1257.4,126.585 1257.4,128.34 C1257.4,130.185 1258.75,130.905 1260.55,130.905 Z M723.52,197.605 L723.52,191.89 L726.04,191.89 C728.2,191.89 729.055,191.035 729.055,189.46 C729.055,188.47 728.605,187.12 727.66,184.69 L720.865,166.96 L728.605,166.96 L731.71,176.77 C732.43,179.02 733.15,182.08 733.15,182.08 L733.24,182.08 C733.24,182.08 733.87,179.02 734.59,176.77 L737.605,166.96 L744.94,166.96 L736.975,190.315 C735.13,195.715 732.925,197.605 728.29,197.605 L723.52,197.605 Z M757.36,185.5 C760.555,185.5 762.265,182.71 762.265,178.525 C762.265,174.34 760.555,171.505 757.36,171.505 C754.165,171.505 752.5,174.34 752.5,178.525 C752.5,182.71 754.165,185.5 757.36,185.5 Z M757.405,190.72 C750.025,190.72 745.075,185.455 745.075,178.525 C745.075,171.595 750.025,166.33 757.405,166.33 C764.83,166.33 769.69,171.595 769.69,178.525 C769.69,185.455 764.83,190.72 757.405,190.72 Z M780.535,190.675 C775.225,190.675 772.435,187.21 772.435,182.08 L772.435,166.96 L779.725,166.96 L779.725,180.55 C779.725,183.07 780.85,184.465 783.19,184.465 C785.71,184.465 787.24,182.575 787.24,179.83 L787.24,166.96 L794.575,166.96 L794.575,190 L787.555,190 L787.555,187.165 L787.42,187.165 C785.755,189.415 783.73,190.675 780.535,190.675 Z M798.535,190 L798.535,166.96 L805.6,166.96 L805.6,170.11 L805.735,170.11 C807.445,167.635 809.65,166.285 812.845,166.285 C817.885,166.285 820.855,169.885 820.855,175.015 L820.855,190 L813.52,190 L813.52,176.5 C813.52,174.07 812.305,172.405 809.92,172.405 C807.49,172.405 805.87,174.43 805.87,177.265 L805.87,190 L798.535,190 Z M835.345,197.965 C829,197.965 824.815,195.355 824.095,190.54 L831.205,190.54 C831.61,191.755 832.825,192.79 835.255,192.79 C838.36,192.79 839.665,191.17 839.665,188.38 L839.665,186.085 L839.485,186.085 C838.135,187.615 836.38,188.74 833.59,188.74 C828.415,188.74 823.6,184.87 823.6,177.805 C823.6,171.055 827.56,166.285 833.275,166.285 C836.335,166.285 838.405,167.5 839.755,169.435 L839.845,169.435 L839.845,166.96 L846.865,166.96 L846.865,187.75 C846.865,191.215 845.65,193.735 843.805,195.4 C841.78,197.2 838.765,197.965 835.345,197.965 Z M835.3,183.295 C838.495,183.295 839.98,180.775 839.98,177.535 C839.98,174.43 838.36,171.82 835.3,171.82 C832.555,171.82 830.755,174.07 830.755,177.58 C830.755,181.045 832.555,183.295 835.3,183.295 Z M858.25,190 L858.25,166.96 L865.585,166.96 L865.585,190 L858.25,190 Z M858.25,163.765 L858.25,157.825 L865.585,157.825 L865.585,163.765 L858.25,163.765 Z M869.545,190 L869.545,166.96 L876.61,166.96 L876.61,170.11 L876.745,170.11 C878.455,167.635 880.66,166.285 883.855,166.285 C888.895,166.285 891.865,169.885 891.865,175.015 L891.865,190 L884.53,190 L884.53,176.5 C884.53,174.07 883.315,172.405 880.93,172.405 C878.5,172.405 876.88,174.43 876.88,177.265 L876.88,190 L869.545,190 Z M904.33,190.27 C900.055,190.27 896.995,188.875 896.995,183.925 L896.995,171.55 L893.935,171.55 L893.935,166.96 L896.995,166.96 L896.995,159.67 L904.15,159.67 L904.15,166.96 L908.335,166.96 L908.335,171.55 L904.15,171.55 L904.15,182.35 C904.15,184.15 905.14,184.6 906.715,184.6 C907.345,184.6 908.065,184.555 908.335,184.555 L908.335,189.91 C907.705,190.09 906.31,190.27 904.33,190.27 Z M922.465,190.675 C914.86,190.675 910.18,185.41 910.18,178.435 C910.18,171.55 914.995,166.285 922.015,166.285 C925.3,166.285 927.91,167.365 929.89,169.165 C932.635,171.685 933.985,175.69 933.94,180.37 L917.38,180.37 C917.83,183.475 919.54,185.41 922.555,185.41 C924.49,185.41 925.75,184.555 926.38,183.115 L933.535,183.115 C933.04,185.185 931.69,187.165 929.665,188.56 C927.73,189.91 925.39,190.675 922.465,190.675 Z M917.425,176.005 L926.515,176.005 C926.245,173.26 924.535,171.505 922.15,171.505 C919.36,171.505 917.92,173.26 917.425,176.005 Z M947.575,197.965 C941.23,197.965 937.045,195.355 936.325,190.54 L943.435,190.54 C943.84,191.755 945.055,192.79 947.485,192.79 C950.59,192.79 951.895,191.17 951.895,188.38 L951.895,186.085 L951.715,186.085 C950.365,187.615 948.61,188.74 945.82,188.74 C940.645,188.74 935.83,184.87 935.83,177.805 C935.83,171.055 939.79,166.285 945.505,166.285 C948.565,166.285 950.635,167.5 951.985,169.435 L952.075,169.435 L952.075,166.96 L959.095,166.96 L959.095,187.75 C959.095,191.215 957.88,193.735 956.035,195.4 C954.01,197.2 950.995,197.965 947.575,197.965 Z M947.53,183.295 C950.725,183.295 952.21,180.775 952.21,177.535 C952.21,174.43 950.59,171.82 947.53,171.82 C944.785,171.82 942.985,174.07 942.985,177.58 C942.985,181.045 944.785,183.295 947.53,183.295 Z M963.055,190 L963.055,166.96 L970.075,166.96 L970.075,170.56 L970.21,170.56 C971.83,167.815 973.72,166.6 976.51,166.6 C977.185,166.6 977.635,166.645 977.95,166.78 L977.95,173.08 L977.77,173.08 C973.27,172.45 970.39,174.655 970.39,179.65 L970.39,190 L963.055,190 Z M986.86,190.585 C982.27,190.585 978.985,188.11 978.985,183.565 C978.985,178.48 983.035,176.95 987.805,176.32 C992.125,175.78 993.655,175.33 993.655,173.755 C993.655,172.27 992.71,171.28 990.505,171.28 C988.165,171.28 986.995,172.315 986.77,174.25 L980.02,174.25 C980.2,169.975 983.485,166.33 990.46,166.33 C993.925,166.33 996.265,166.96 997.93,168.22 C999.91,169.66 1000.855,171.91 1000.855,174.79 L1000.855,186.4 C1000.855,188.245 1001.035,189.28 1001.665,189.685 L1001.665,190 L994.555,190 C994.195,189.505 993.97,188.605 993.79,187.435 L993.7,187.435 C992.35,189.37 990.325,190.585 986.86,190.585 Z M989.2,185.905 C991.945,185.905 993.835,184.24 993.835,181.765 L993.835,179.02 C992.89,179.515 991.54,179.875 990.055,180.235 C987.22,180.865 986.05,181.585 986.05,183.34 C986.05,185.185 987.4,185.905 989.2,185.905 Z M1013.545,190.27 C1009.27,190.27 1006.21,188.875 1006.21,183.925 L1006.21,171.55 L1003.15,171.55 L1003.15,166.96 L1006.21,166.96 L1006.21,159.67 L1013.365,159.67 L1013.365,166.96 L1017.55,166.96 L1017.55,171.55 L1013.365,171.55 L1013.365,182.35 C1013.365,184.15 1014.355,184.6 1015.93,184.6 C1016.56,184.6 1017.28,184.555 1017.55,184.555 L1017.55,189.91 C1016.92,190.09 1015.525,190.27 1013.545,190.27 Z M1031.68,190.675 C1024.075,190.675 1019.395,185.41 1019.395,178.435 C1019.395,171.55 1024.21,166.285 1031.23,166.285 C1034.515,166.285 1037.125,167.365 1039.105,169.165 C1041.85,171.685 1043.2,175.69 1043.155,180.37 L1026.595,180.37 C1027.045,183.475 1028.755,185.41 1031.77,185.41 C1033.705,185.41 1034.965,184.555 1035.595,183.115 L1042.75,183.115 C1042.255,185.185 1040.905,187.165 1038.88,188.56 C1036.945,189.91 1034.605,190.675 1031.68,190.675 Z M1026.64,176.005 L1035.73,176.005 C1035.46,173.26 1033.75,171.505 1031.365,171.505 C1028.575,171.505 1027.135,173.26 1026.64,176.005 Z M1055.125,190.72 C1049.23,190.72 1045.045,186.175 1045.045,178.48 C1045.045,171.28 1049.185,166.285 1055.125,166.285 C1058.365,166.285 1060.21,167.635 1061.56,169.57 L1061.695,169.57 L1061.695,157.825 L1069.03,157.825 L1069.03,190 L1062.01,190 L1062.01,186.895 L1061.92,186.895 C1060.525,189.28 1058.14,190.72 1055.125,190.72 Z M1057.015,184.915 C1060.075,184.915 1061.875,182.26 1061.875,178.48 C1061.875,174.61 1060.3,171.82 1057.105,171.82 C1054.18,171.82 1052.47,174.52 1052.47,178.39 C1052.47,182.395 1054.18,184.915 1057.015,184.915 Z M1087.21,190.585 C1082.62,190.585 1079.335,188.11 1079.335,183.565 C1079.335,178.48 1083.385,176.95 1088.155,176.32 C1092.475,175.78 1094.005,175.33 1094.005,173.755 C1094.005,172.27 1093.06,171.28 1090.855,171.28 C1088.515,171.28 1087.345,172.315 1087.12,174.25 L1080.37,174.25 C1080.55,169.975 1083.835,166.33 1090.81,166.33 C1094.275,166.33 1096.615,166.96 1098.28,168.22 C1100.26,169.66 1101.205,171.91 1101.205,174.79 L1101.205,186.4 C1101.205,188.245 1101.385,189.28 1102.015,189.685 L1102.015,190 L1094.905,190 C1094.545,189.505 1094.32,188.605 1094.14,187.435 L1094.05,187.435 C1092.7,189.37 1090.675,190.585 1087.21,190.585 Z M1089.55,185.905 C1092.295,185.905 1094.185,184.24 1094.185,181.765 L1094.185,179.02 C1093.24,179.515 1091.89,179.875 1090.405,180.235 C1087.57,180.865 1086.4,181.585 1086.4,183.34 C1086.4,185.185 1087.75,185.905 1089.55,185.905 Z M1105.21,190 L1105.21,166.96 L1112.23,166.96 L1112.23,170.56 L1112.365,170.56 C1113.985,167.815 1115.875,166.6 1118.665,166.6 C1119.34,166.6 1119.79,166.645 1120.105,166.78 L1120.105,173.08 L1119.925,173.08 C1115.425,172.45 1112.545,174.655 1112.545,179.65 L1112.545,190 L1105.21,190 Z M1133.65,190.72 C1126.225,190.72 1121.41,185.455 1121.41,178.525 C1121.41,171.595 1126.18,166.33 1133.47,166.33 C1139.725,166.33 1143.73,169.975 1144.405,175.15 L1137.34,175.15 C1136.89,173.08 1135.63,171.73 1133.56,171.73 C1130.41,171.73 1128.835,174.34 1128.835,178.525 C1128.835,182.62 1130.41,185.23 1133.56,185.23 C1135.855,185.23 1137.25,183.88 1137.565,181.27 L1144.585,181.27 C1144.405,186.58 1140.175,190.72 1133.65,190.72 Z M1147.375,190 L1147.375,157.825 L1154.71,157.825 L1154.71,169.795 L1154.845,169.795 C1156.51,167.59 1158.49,166.285 1161.685,166.285 C1166.725,166.285 1169.695,169.885 1169.695,175.015 L1169.695,190 L1162.36,190 L1162.36,176.5 C1162.36,174.07 1161.145,172.405 1158.76,172.405 C1156.33,172.405 1154.71,174.43 1154.71,177.265 L1154.71,190 L1147.375,190 Z M1173.475,190 L1173.475,166.96 L1180.81,166.96 L1180.81,190 L1173.475,190 Z M1173.475,163.765 L1173.475,157.825 L1180.81,157.825 L1180.81,163.765 L1173.475,163.765 Z M1193.905,190.27 C1189.63,190.27 1186.57,188.875 1186.57,183.925 L1186.57,171.55 L1183.51,171.55 L1183.51,166.96 L1186.57,166.96 L1186.57,159.67 L1193.725,159.67 L1193.725,166.96 L1197.91,166.96 L1197.91,171.55 L1193.725,171.55 L1193.725,182.35 C1193.725,184.15 1194.715,184.6 1196.29,184.6 C1196.92,184.6 1197.64,184.555 1197.91,184.555 L1197.91,189.91 C1197.28,190.09 1195.885,190.27 1193.905,190.27 Z M1212.04,190.675 C1204.435,190.675 1199.755,185.41 1199.755,178.435 C1199.755,171.55 1204.57,166.285 1211.59,166.285 C1214.875,166.285 1217.485,167.365 1219.465,169.165 C1222.21,171.685 1223.56,175.69 1223.515,180.37 L1206.955,180.37 C1207.405,183.475 1209.115,185.41 1212.13,185.41 C1214.065,185.41 1215.325,184.555 1215.955,183.115 L1223.11,183.115 C1222.615,185.185 1221.265,187.165 1219.24,188.56 C1217.305,189.91 1214.965,190.675 1212.04,190.675 Z M1207,176.005 L1216.09,176.005 C1215.82,173.26 1214.11,171.505 1211.725,171.505 C1208.935,171.505 1207.495,173.26 1207,176.005 Z M1237.645,190.72 C1230.22,190.72 1225.405,185.455 1225.405,178.525 C1225.405,171.595 1230.175,166.33 1237.465,166.33 C1243.72,166.33 1247.725,169.975 1248.4,175.15 L1241.335,175.15 C1240.885,173.08 1239.625,171.73 1237.555,171.73 C1234.405,171.73 1232.83,174.34 1232.83,178.525 C1232.83,182.62 1234.405,185.23 1237.555,185.23 C1239.85,185.23 1241.245,183.88 1241.56,181.27 L1248.58,181.27 C1248.4,186.58 1244.17,190.72 1237.645,190.72 Z M1260.505,190.27 C1256.23,190.27 1253.17,188.875 1253.17,183.925 L1253.17,171.55 L1250.11,171.55 L1250.11,166.96 L1253.17,166.96 L1253.17,159.67 L1260.325,159.67 L1260.325,166.96 L1264.51,166.96 L1264.51,171.55 L1260.325,171.55 L1260.325,182.35 C1260.325,184.15 1261.315,184.6 1262.89,184.6 C1263.52,184.6 1264.24,184.555 1264.51,184.555 L1264.51,189.91 C1263.88,190.09 1262.485,190.27 1260.505,190.27 Z M1275.535,190.675 C1270.225,190.675 1267.435,187.21 1267.435,182.08 L1267.435,166.96 L1274.725,166.96 L1274.725,180.55 C1274.725,183.07 1275.85,184.465 1278.19,184.465 C1280.71,184.465 1282.24,182.575 1282.24,179.83 L1282.24,166.96 L1289.575,166.96 L1289.575,190 L1282.555,190 L1282.555,187.165 L1282.42,187.165 C1280.755,189.415 1278.73,190.675 1275.535,190.675 Z M1293.535,190 L1293.535,166.96 L1300.555,166.96 L1300.555,170.56 L1300.69,170.56 C1302.31,167.815 1304.2,166.6 1306.99,166.6 C1307.665,166.6 1308.115,166.645 1308.43,166.78 L1308.43,173.08 L1308.25,173.08 C1303.75,172.45 1300.87,174.655 1300.87,179.65 L1300.87,190 L1293.535,190 Z M1322.02,190.675 C1314.415,190.675 1309.735,185.41 1309.735,178.435 C1309.735,171.55 1314.55,166.285 1321.57,166.285 C1324.855,166.285 1327.465,167.365 1329.445,169.165 C1332.19,171.685 1333.54,175.69 1333.495,180.37 L1316.935,180.37 C1317.385,183.475 1319.095,185.41 1322.11,185.41 C1324.045,185.41 1325.305,184.555 1325.935,183.115 L1333.09,183.115 C1332.595,185.185 1331.245,187.165 1329.22,188.56 C1327.285,189.91 1324.945,190.675 1322.02,190.675 Z M1316.98,176.005 L1326.07,176.005 C1325.8,173.26 1324.09,171.505 1321.705,171.505 C1318.915,171.505 1317.475,173.26 1316.98,176.005 Z M1354.51,190.54 C1347.04,190.54 1343.08,186.445 1343.08,181.09 C1343.08,176.185 1346.23,173.53 1350.19,171.685 C1348.66,169.84 1347.715,167.95 1347.715,165.475 C1347.715,161.02 1351.18,157.645 1356.76,157.645 C1362.025,157.645 1365.85,160.615 1365.85,165.385 C1365.85,169.39 1363.195,171.505 1359.91,173.08 L1363.78,177.94 C1364.32,176.68 1364.77,175.24 1364.995,173.89 L1371.34,173.89 C1371.025,176.995 1369.81,180.235 1367.83,183.07 L1373.365,190 L1364.41,190 L1362.835,187.975 C1360.405,189.55 1357.57,190.54 1354.51,190.54 Z M1354.825,184.645 C1356.4,184.645 1357.885,184.15 1359.19,183.25 L1353.745,176.185 C1351.495,177.535 1350.685,179.065 1350.685,180.91 C1350.685,183.16 1352.44,184.645 1354.825,184.645 Z M1356.76,169.3 C1358.605,168.22 1359.325,166.915 1359.325,165.43 C1359.325,164.035 1358.335,162.955 1356.94,162.955 C1355.455,162.955 1354.51,163.99 1354.51,165.43 C1354.51,166.87 1355.5,168.175 1356.76,169.3 Z M731.8,245.72 C725.905,245.72 721.72,241.175 721.72,233.48 C721.72,226.28 725.86,221.285 731.8,221.285 C735.04,221.285 736.885,222.635 738.235,224.57 L738.37,224.57 L738.37,212.825 L745.705,212.825 L745.705,245 L738.685,245 L738.685,241.895 L738.595,241.895 C737.2,244.28 734.815,245.72 731.8,245.72 Z M733.69,239.915 C736.75,239.915 738.55,237.26 738.55,233.48 C738.55,229.61 736.975,226.82 733.78,226.82 C730.855,226.82 729.145,229.52 729.145,233.39 C729.145,237.395 730.855,239.915 733.69,239.915 Z M760.915,245.675 C753.31,245.675 748.63,240.41 748.63,233.435 C748.63,226.55 753.445,221.285 760.465,221.285 C763.75,221.285 766.36,222.365 768.34,224.165 C771.085,226.685 772.435,230.69 772.39,235.37 L755.83,235.37 C756.28,238.475 757.99,240.41 761.005,240.41 C762.94,240.41 764.2,239.555 764.83,238.115 L771.985,238.115 C771.49,240.185 770.14,242.165 768.115,243.56 C766.18,244.91 763.84,245.675 760.915,245.675 Z M755.875,231.005 L764.965,231.005 C764.695,228.26 762.985,226.505 760.6,226.505 C757.81,226.505 756.37,228.26 755.875,231.005 Z M785.125,245.72 C778.375,245.72 774.145,242.615 773.92,237.53 L780.85,237.53 C781.12,239.825 782.65,240.95 785.08,240.95 C787.285,240.95 788.68,240.14 788.68,238.655 C788.68,236.585 785.89,236.36 782.83,235.82 C778.825,235.145 774.55,234.065 774.55,228.665 C774.55,223.805 779.05,221.285 784.495,221.285 C791.02,221.285 794.53,224.12 794.89,228.665 L788.14,228.665 C787.87,226.595 786.475,225.965 784.45,225.965 C782.65,225.965 781.255,226.64 781.255,228.08 C781.255,229.7 783.865,229.925 786.79,230.465 C790.84,231.14 795.61,232.175 795.61,238.07 C795.61,243.11 791.155,245.72 785.125,245.72 Z M798.445,245 L798.445,221.96 L805.78,221.96 L805.78,245 L798.445,245 Z M798.445,218.765 L798.445,212.825 L805.78,212.825 L805.78,218.765 L798.445,218.765 Z M820.45,252.965 C814.105,252.965 809.92,250.355 809.2,245.54 L816.31,245.54 C816.715,246.755 817.93,247.79 820.36,247.79 C823.465,247.79 824.77,246.17 824.77,243.38 L824.77,241.085 L824.59,241.085 C823.24,242.615 821.485,243.74 818.695,243.74 C813.52,243.74 808.705,239.87 808.705,232.805 C808.705,226.055 812.665,221.285 818.38,221.285 C821.44,221.285 823.51,222.5 824.86,224.435 L824.95,224.435 L824.95,221.96 L831.97,221.96 L831.97,242.75 C831.97,246.215 830.755,248.735 828.91,250.4 C826.885,252.2 823.87,252.965 820.45,252.965 Z M820.405,238.295 C823.6,238.295 825.085,235.775 825.085,232.535 C825.085,229.43 823.465,226.82 820.405,226.82 C817.66,226.82 815.86,229.07 815.86,232.58 C815.86,236.045 817.66,238.295 820.405,238.295 Z M835.93,245 L835.93,221.96 L842.995,221.96 L842.995,225.11 L843.13,225.11 C844.84,222.635 847.045,221.285 850.24,221.285 C855.28,221.285 858.25,224.885 858.25,230.015 L858.25,245 L850.915,245 L850.915,231.5 C850.915,229.07 849.7,227.405 847.315,227.405 C844.885,227.405 843.265,229.43 843.265,232.265 L843.265,245 L835.93,245 Z M869.455,252.605 L869.455,221.96 L876.475,221.96 L876.475,224.75 L876.61,224.75 C878.185,222.68 880.435,221.285 883.585,221.285 C889.705,221.285 893.44,226.55 893.44,233.48 C893.44,240.95 889.435,245.72 883.405,245.72 C880.435,245.72 878.32,244.55 876.88,242.615 L876.79,242.615 L876.79,252.605 L869.455,252.605 Z M881.515,240.05 C884.305,240.05 886.015,237.665 886.015,233.75 C886.015,229.79 884.53,227.18 881.38,227.18 C878.185,227.18 876.565,230.015 876.565,233.75 C876.565,237.485 878.365,240.05 881.515,240.05 Z M896.365,245 L896.365,221.96 L903.385,221.96 L903.385,225.56 L903.52,225.56 C905.14,222.815 907.03,221.6 909.82,221.6 C910.495,221.6 910.945,221.645 911.26,221.78 L911.26,228.08 L911.08,228.08 C906.58,227.45 903.7,229.655 903.7,234.65 L903.7,245 L896.365,245 Z M920.17,245.585 C915.58,245.585 912.295,243.11 912.295,238.565 C912.295,233.48 916.345,231.95 921.115,231.32 C925.435,230.78 926.965,230.33 926.965,228.755 C926.965,227.27 926.02,226.28 923.815,226.28 C921.475,226.28 920.305,227.315 920.08,229.25 L913.33,229.25 C913.51,224.975 916.795,221.33 923.77,221.33 C927.235,221.33 929.575,221.96 931.24,223.22 C933.22,224.66 934.165,226.91 934.165,229.79 L934.165,241.4 C934.165,243.245 934.345,244.28 934.975,244.685 L934.975,245 L927.865,245 C927.505,244.505 927.28,243.605 927.1,242.435 L927.01,242.435 C925.66,244.37 923.635,245.585 920.17,245.585 Z M922.51,240.905 C925.255,240.905 927.145,239.24 927.145,236.765 L927.145,234.02 C926.2,234.515 924.85,234.875 923.365,235.235 C920.53,235.865 919.36,236.585 919.36,238.34 C919.36,240.185 920.71,240.905 922.51,240.905 Z M949.375,245.72 C941.95,245.72 937.135,240.455 937.135,233.525 C937.135,226.595 941.905,221.33 949.195,221.33 C955.45,221.33 959.455,224.975 960.13,230.15 L953.065,230.15 C952.615,228.08 951.355,226.73 949.285,226.73 C946.135,226.73 944.56,229.34 944.56,233.525 C944.56,237.62 946.135,240.23 949.285,240.23 C951.58,240.23 952.975,238.88 953.29,236.27 L960.31,236.27 C960.13,241.58 955.9,245.72 949.375,245.72 Z M972.235,245.27 C967.96,245.27 964.9,243.875 964.9,238.925 L964.9,226.55 L961.84,226.55 L961.84,221.96 L964.9,221.96 L964.9,214.67 L972.055,214.67 L972.055,221.96 L976.24,221.96 L976.24,226.55 L972.055,226.55 L972.055,237.35 C972.055,239.15 973.045,239.6 974.62,239.6 C975.25,239.6 975.97,239.555 976.24,239.555 L976.24,244.91 C975.61,245.09 974.215,245.27 972.235,245.27 Z M979.345,245 L979.345,221.96 L986.68,221.96 L986.68,245 L979.345,245 Z M979.345,218.765 L979.345,212.825 L986.68,212.825 L986.68,218.765 L979.345,218.765 Z M1001.845,245.72 C994.42,245.72 989.605,240.455 989.605,233.525 C989.605,226.595 994.375,221.33 1001.665,221.33 C1007.92,221.33 1011.925,224.975 1012.6,230.15 L1005.535,230.15 C1005.085,228.08 1003.825,226.73 1001.755,226.73 C998.605,226.73 997.03,229.34 997.03,233.525 C997.03,237.62 998.605,240.23 1001.755,240.23 C1004.05,240.23 1005.445,238.88 1005.76,236.27 L1012.78,236.27 C1012.6,241.58 1008.37,245.72 1001.845,245.72 Z M1026.82,245.675 C1019.215,245.675 1014.535,240.41 1014.535,233.435 C1014.535,226.55 1019.35,221.285 1026.37,221.285 C1029.655,221.285 1032.265,222.365 1034.245,224.165 C1036.99,226.685 1038.34,230.69 1038.295,235.37 L1021.735,235.37 C1022.185,238.475 1023.895,240.41 1026.91,240.41 C1028.845,240.41 1030.105,239.555 1030.735,238.115 L1037.89,238.115 C1037.395,240.185 1036.045,242.165 1034.02,243.56 C1032.085,244.91 1029.745,245.675 1026.82,245.675 Z M1021.78,231.005 L1030.87,231.005 C1030.6,228.26 1028.89,226.505 1026.505,226.505 C1023.715,226.505 1022.275,228.26 1021.78,231.005 Z M1053.865,245 L1046.8,221.96 L1054.27,221.96 L1056.79,231.5 C1057.285,233.345 1057.825,235.955 1057.825,235.955 L1057.915,235.955 C1057.915,235.955 1058.455,233.3 1058.95,231.365 L1061.38,221.96 L1067.59,221.96 L1070.11,231.365 C1070.605,233.345 1071.19,236 1071.19,236 L1071.28,236 C1071.28,236 1071.865,233.345 1072.36,231.5 L1074.925,221.96 L1082.17,221.96 L1075.105,245 L1068.22,245 L1065.52,234.56 C1065.025,232.76 1064.53,230.42 1064.53,230.42 L1064.44,230.42 C1064.44,230.42 1063.9,232.76 1063.405,234.56 L1060.66,245 L1053.865,245 Z M1084.33,245 L1084.33,221.96 L1091.665,221.96 L1091.665,245 L1084.33,245 Z M1084.33,218.765 L1084.33,212.825 L1091.665,212.825 L1091.665,218.765 L1084.33,218.765 Z M1104.76,245.27 C1100.485,245.27 1097.425,243.875 1097.425,238.925 L1097.425,226.55 L1094.365,226.55 L1094.365,221.96 L1097.425,221.96 L1097.425,214.67 L1104.58,214.67 L1104.58,221.96 L1108.765,221.96 L1108.765,226.55 L1104.58,226.55 L1104.58,237.35 C1104.58,239.15 1105.57,239.6 1107.145,239.6 C1107.775,239.6 1108.495,239.555 1108.765,239.555 L1108.765,244.91 C1108.135,245.09 1106.74,245.27 1104.76,245.27 Z M1111.87,245 L1111.87,212.825 L1119.205,212.825 L1119.205,224.795 L1119.34,224.795 C1121.005,222.59 1122.985,221.285 1126.18,221.285 C1131.22,221.285 1134.19,224.885 1134.19,230.015 L1134.19,245 L1126.855,245 L1126.855,231.5 C1126.855,229.07 1125.64,227.405 1123.255,227.405 C1120.825,227.405 1119.205,229.43 1119.205,232.265 L1119.205,245 L1111.87,245 Z M1156.645,240.5 C1159.84,240.5 1161.55,237.71 1161.55,233.525 C1161.55,229.34 1159.84,226.505 1156.645,226.505 C1153.45,226.505 1151.785,229.34 1151.785,233.525 C1151.785,237.71 1153.45,240.5 1156.645,240.5 Z M1156.69,245.72 C1149.31,245.72 1144.36,240.455 1144.36,233.525 C1144.36,226.595 1149.31,221.33 1156.69,221.33 C1164.115,221.33 1168.975,226.595 1168.975,233.525 C1168.975,240.455 1164.115,245.72 1156.69,245.72 Z M1173.16,245 L1173.16,226.64 L1170.19,226.64 L1170.19,221.96 L1173.16,221.96 L1173.16,220.52 C1173.16,218.45 1173.655,216.92 1174.555,215.795 C1176.4,213.32 1180.45,212.735 1184.41,213.185 L1184.41,218.36 C1182.07,218.27 1180.495,218.45 1180.495,221.015 L1180.495,221.96 L1186.84,221.96 L1186.84,220.295 C1186.84,218.315 1187.29,216.785 1188.19,215.66 C1189.99,213.14 1194.085,212.51 1198.45,212.96 L1198.45,218.135 C1195.705,218.045 1194.13,218.27 1194.13,220.835 L1194.13,221.96 L1198.45,221.96 L1198.45,226.64 L1194.13,226.64 L1194.13,245 L1186.84,245 L1186.84,226.64 L1180.495,226.64 L1180.495,245 L1173.16,245 Z M1200.79,245 L1200.79,221.96 L1208.125,221.96 L1208.125,245 L1200.79,245 Z M1200.79,218.765 L1200.79,212.825 L1208.125,212.825 L1208.125,218.765 L1200.79,218.765 Z M1223.29,245.72 C1215.865,245.72 1211.05,240.455 1211.05,233.525 C1211.05,226.595 1215.82,221.33 1223.11,221.33 C1229.365,221.33 1233.37,224.975 1234.045,230.15 L1226.98,230.15 C1226.53,228.08 1225.27,226.73 1223.2,226.73 C1220.05,226.73 1218.475,229.34 1218.475,233.525 C1218.475,237.62 1220.05,240.23 1223.2,240.23 C1225.495,240.23 1226.89,238.88 1227.205,236.27 L1234.225,236.27 C1234.045,241.58 1229.815,245.72 1223.29,245.72 Z M1248.265,245.675 C1240.66,245.675 1235.98,240.41 1235.98,233.435 C1235.98,226.55 1240.795,221.285 1247.815,221.285 C1251.1,221.285 1253.71,222.365 1255.69,224.165 C1258.435,226.685 1259.785,230.69 1259.74,235.37 L1243.18,235.37 C1243.63,238.475 1245.34,240.41 1248.355,240.41 C1250.29,240.41 1251.55,239.555 1252.18,238.115 L1259.335,238.115 C1258.84,240.185 1257.49,242.165 1255.465,243.56 C1253.53,244.91 1251.19,245.675 1248.265,245.675 Z M1243.225,231.005 L1252.315,231.005 C1252.045,228.26 1250.335,226.505 1247.95,226.505 C1245.16,226.505 1243.72,228.26 1243.225,231.005 Z M1272.475,245.72 C1265.725,245.72 1261.495,242.615 1261.27,237.53 L1268.2,237.53 C1268.47,239.825 1270,240.95 1272.43,240.95 C1274.635,240.95 1276.03,240.14 1276.03,238.655 C1276.03,236.585 1273.24,236.36 1270.18,235.82 C1266.175,235.145 1261.9,234.065 1261.9,228.665 C1261.9,223.805 1266.4,221.285 1271.845,221.285 C1278.37,221.285 1281.88,224.12 1282.24,228.665 L1275.49,228.665 C1275.22,226.595 1273.825,225.965 1271.8,225.965 C1270,225.965 1268.605,226.64 1268.605,228.08 C1268.605,229.7 1271.215,229.925 1274.14,230.465 C1278.19,231.14 1282.96,232.175 1282.96,238.07 C1282.96,243.11 1278.505,245.72 1272.475,245.72 Z M1293.22,245 L1293.22,221.96 L1300.555,221.96 L1300.555,245 L1293.22,245 Z M1293.22,218.765 L1293.22,212.825 L1300.555,212.825 L1300.555,218.765 L1293.22,218.765 Z M1304.515,245 L1304.515,221.96 L1311.58,221.96 L1311.58,225.11 L1311.715,225.11 C1313.425,222.635 1315.63,221.285 1318.825,221.285 C1323.865,221.285 1326.835,224.885 1326.835,230.015 L1326.835,245 L1319.5,245 L1319.5,231.5 C1319.5,229.07 1318.285,227.405 1315.9,227.405 C1313.47,227.405 1311.85,229.43 1311.85,232.265 L1311.85,245 L1304.515,245 Z M736.03,300.765 C727.48,300.765 721.855,296.985 721.675,289.875 L729.685,289.875 C730.045,293.115 732.16,294.465 735.985,294.465 C738.595,294.465 741.16,293.52 741.16,291.09 C741.16,288.525 738.55,287.985 734.14,286.905 C728.56,285.6 722.665,283.89 722.665,277.14 C722.665,270.255 728.245,267.24 735.445,267.24 C742.42,267.24 747.82,270.39 748.135,277.14 L740.35,277.14 C740.035,274.665 738.145,273.27 735.175,273.27 C732.385,273.27 730.54,274.485 730.54,276.285 C730.54,278.535 733.015,279.075 737.83,280.155 C743.815,281.55 749.215,283.395 749.215,290.28 C749.215,297.03 743.455,300.765 736.03,300.765 Z M752.455,300 L752.455,276.96 L759.79,276.96 L759.79,300 L752.455,300 Z M752.455,273.765 L752.455,267.825 L759.79,267.825 L759.79,273.765 L752.455,273.765 Z M763.795,300 L763.795,267.825 L771.22,267.825 L771.22,300 L763.795,300 Z M775.225,300 L775.225,276.96 L782.56,276.96 L782.56,300 L775.225,300 Z M775.225,273.765 L775.225,267.825 L782.56,267.825 L782.56,273.765 L775.225,273.765 Z M797.725,300.72 C790.3,300.72 785.485,295.455 785.485,288.525 C785.485,281.595 790.255,276.33 797.545,276.33 C803.8,276.33 807.805,279.975 808.48,285.15 L801.415,285.15 C800.965,283.08 799.705,281.73 797.635,281.73 C794.485,281.73 792.91,284.34 792.91,288.525 C792.91,292.62 794.485,295.23 797.635,295.23 C799.93,295.23 801.325,293.88 801.64,291.27 L808.66,291.27 C808.48,296.58 804.25,300.72 797.725,300.72 Z M822.7,295.5 C825.895,295.5 827.605,292.71 827.605,288.525 C827.605,284.34 825.895,281.505 822.7,281.505 C819.505,281.505 817.84,284.34 817.84,288.525 C817.84,292.71 819.505,295.5 822.7,295.5 Z M822.745,300.72 C815.365,300.72 810.415,295.455 810.415,288.525 C810.415,281.595 815.365,276.33 822.745,276.33 C830.17,276.33 835.03,281.595 835.03,288.525 C835.03,295.455 830.17,300.72 822.745,300.72 Z M837.955,300 L837.955,276.96 L845.02,276.96 L845.02,280.11 L845.155,280.11 C846.865,277.635 849.07,276.285 852.265,276.285 C857.305,276.285 860.275,279.885 860.275,285.015 L860.275,300 L852.94,300 L852.94,286.5 C852.94,284.07 851.725,282.405 849.34,282.405 C846.91,282.405 845.29,284.43 845.29,287.265 L845.29,300 L837.955,300 Z M880.255,300 L869.635,267.825 L877.915,267.825 L882.955,284.7 C883.675,287.13 884.44,290.37 884.44,290.37 L884.53,290.37 C884.53,290.37 885.34,287.085 886.015,284.7 L891.01,267.825 L899.065,267.825 L888.49,300 L880.255,300 Z M904.87,300.585 C900.28,300.585 896.995,298.11 896.995,293.565 C896.995,288.48 901.045,286.95 905.815,286.32 C910.135,285.78 911.665,285.33 911.665,283.755 C911.665,282.27 910.72,281.28 908.515,281.28 C906.175,281.28 905.005,282.315 904.78,284.25 L898.03,284.25 C898.21,279.975 901.495,276.33 908.47,276.33 C911.935,276.33 914.275,276.96 915.94,278.22 C917.92,279.66 918.865,281.91 918.865,284.79 L918.865,296.4 C918.865,298.245 919.045,299.28 919.675,299.685 L919.675,300 L912.565,300 C912.205,299.505 911.98,298.605 911.8,297.435 L911.71,297.435 C910.36,299.37 908.335,300.585 904.87,300.585 Z M907.21,295.905 C909.955,295.905 911.845,294.24 911.845,291.765 L911.845,289.02 C910.9,289.515 909.55,289.875 908.065,290.235 C905.23,290.865 904.06,291.585 904.06,293.34 C904.06,295.185 905.41,295.905 907.21,295.905 Z M922.915,300 L922.915,267.825 L930.34,267.825 L930.34,300 L922.915,300 Z M934.39,300 L934.39,267.825 L941.815,267.825 L941.815,300 L934.39,300 Z M957.07,300.675 C949.465,300.675 944.785,295.41 944.785,288.435 C944.785,281.55 949.6,276.285 956.62,276.285 C959.905,276.285 962.515,277.365 964.495,279.165 C967.24,281.685 968.59,285.69 968.545,290.37 L951.985,290.37 C952.435,293.475 954.145,295.41 957.16,295.41 C959.095,295.41 960.355,294.555 960.985,293.115 L968.14,293.115 C967.645,295.185 966.295,297.165 964.27,298.56 C962.335,299.91 959.995,300.675 957.07,300.675 Z M952.03,286.005 L961.12,286.005 C960.85,283.26 959.14,281.505 956.755,281.505 C953.965,281.505 952.525,283.26 952.03,286.005 Z M971.335,307.605 L971.335,301.89 L973.855,301.89 C976.015,301.89 976.87,301.035 976.87,299.46 C976.87,298.47 976.42,297.12 975.475,294.69 L968.68,276.96 L976.42,276.96 L979.525,286.77 C980.245,289.02 980.965,292.08 980.965,292.08 L981.055,292.08 C981.055,292.08 981.685,289.02 982.405,286.77 L985.42,276.96 L992.755,276.96 L984.79,300.315 C982.945,305.715 980.74,307.605 976.105,307.605 L971.335,307.605 Z M1009.045,300.585 C1004.455,300.585 1001.17,298.11 1001.17,293.565 C1001.17,288.48 1005.22,286.95 1009.99,286.32 C1014.31,285.78 1015.84,285.33 1015.84,283.755 C1015.84,282.27 1014.895,281.28 1012.69,281.28 C1010.35,281.28 1009.18,282.315 1008.955,284.25 L1002.205,284.25 C1002.385,279.975 1005.67,276.33 1012.645,276.33 C1016.11,276.33 1018.45,276.96 1020.115,278.22 C1022.095,279.66 1023.04,281.91 1023.04,284.79 L1023.04,296.4 C1023.04,298.245 1023.22,299.28 1023.85,299.685 L1023.85,300 L1016.74,300 C1016.38,299.505 1016.155,298.605 1015.975,297.435 L1015.885,297.435 C1014.535,299.37 1012.51,300.585 1009.045,300.585 Z M1011.385,295.905 C1014.13,295.905 1016.02,294.24 1016.02,291.765 L1016.02,289.02 C1015.075,289.515 1013.725,289.875 1012.24,290.235 C1009.405,290.865 1008.235,291.585 1008.235,293.34 C1008.235,295.185 1009.585,295.905 1011.385,295.905 Z M1027.045,300 L1027.045,276.96 L1034.11,276.96 L1034.11,280.11 L1034.245,280.11 C1035.955,277.635 1038.16,276.285 1041.355,276.285 C1046.395,276.285 1049.365,279.885 1049.365,285.015 L1049.365,300 L1042.03,300 L1042.03,286.5 C1042.03,284.07 1040.815,282.405 1038.43,282.405 C1036,282.405 1034.38,284.43 1034.38,287.265 L1034.38,300 L1027.045,300 Z M1062.19,300.72 C1056.295,300.72 1052.11,296.175 1052.11,288.48 C1052.11,281.28 1056.25,276.285 1062.19,276.285 C1065.43,276.285 1067.275,277.635 1068.625,279.57 L1068.76,279.57 L1068.76,267.825 L1076.095,267.825 L1076.095,300 L1069.075,300 L1069.075,296.895 L1068.985,296.895 C1067.59,299.28 1065.205,300.72 1062.19,300.72 Z M1064.08,294.915 C1067.14,294.915 1068.94,292.26 1068.94,288.48 C1068.94,284.61 1067.365,281.82 1064.17,281.82 C1061.245,281.82 1059.535,284.52 1059.535,288.39 C1059.535,292.395 1061.245,294.915 1064.08,294.915 Z M1100.755,300.765 C1092.205,300.765 1086.58,296.985 1086.4,289.875 L1094.41,289.875 C1094.77,293.115 1096.885,294.465 1100.71,294.465 C1103.32,294.465 1105.885,293.52 1105.885,291.09 C1105.885,288.525 1103.275,287.985 1098.865,286.905 C1093.285,285.6 1087.39,283.89 1087.39,277.14 C1087.39,270.255 1092.97,267.24 1100.17,267.24 C1107.145,267.24 1112.545,270.39 1112.86,277.14 L1105.075,277.14 C1104.76,274.665 1102.87,273.27 1099.9,273.27 C1097.11,273.27 1095.265,274.485 1095.265,276.285 C1095.265,278.535 1097.74,279.075 1102.555,280.155 C1108.54,281.55 1113.94,283.395 1113.94,290.28 C1113.94,297.03 1108.18,300.765 1100.755,300.765 Z M1123.975,300.585 C1119.385,300.585 1116.1,298.11 1116.1,293.565 C1116.1,288.48 1120.15,286.95 1124.92,286.32 C1129.24,285.78 1130.77,285.33 1130.77,283.755 C1130.77,282.27 1129.825,281.28 1127.62,281.28 C1125.28,281.28 1124.11,282.315 1123.885,284.25 L1117.135,284.25 C1117.315,279.975 1120.6,276.33 1127.575,276.33 C1131.04,276.33 1133.38,276.96 1135.045,278.22 C1137.025,279.66 1137.97,281.91 1137.97,284.79 L1137.97,296.4 C1137.97,298.245 1138.15,299.28 1138.78,299.685 L1138.78,300 L1131.67,300 C1131.31,299.505 1131.085,298.605 1130.905,297.435 L1130.815,297.435 C1129.465,299.37 1127.44,300.585 1123.975,300.585 Z M1126.315,295.905 C1129.06,295.905 1130.95,294.24 1130.95,291.765 L1130.95,289.02 C1130.005,289.515 1128.655,289.875 1127.17,290.235 C1124.335,290.865 1123.165,291.585 1123.165,293.34 C1123.165,295.185 1124.515,295.905 1126.315,295.905 Z M1141.975,300 L1141.975,276.96 L1149.04,276.96 L1149.04,280.11 L1149.175,280.11 C1150.885,277.635 1153.09,276.285 1156.285,276.285 C1161.325,276.285 1164.295,279.885 1164.295,285.015 L1164.295,300 L1156.96,300 L1156.96,286.5 C1156.96,284.07 1155.745,282.405 1153.36,282.405 C1150.93,282.405 1149.31,284.43 1149.31,287.265 L1149.31,300 L1141.975,300 Z M1175.95,300 L1175.95,267.825 L1199.89,267.825 L1199.89,274.53 L1183.915,274.53 L1183.915,281.055 L1197.28,281.055 L1197.28,287.49 L1183.915,287.49 L1183.915,300 L1175.95,300 Z M1201.915,300 L1201.915,276.96 L1208.935,276.96 L1208.935,280.56 L1209.07,280.56 C1210.69,277.815 1212.58,276.6 1215.37,276.6 C1216.045,276.6 1216.495,276.645 1216.81,276.78 L1216.81,283.08 L1216.63,283.08 C1212.13,282.45 1209.25,284.655 1209.25,289.65 L1209.25,300 L1201.915,300 Z M1225.72,300.585 C1221.13,300.585 1217.845,298.11 1217.845,293.565 C1217.845,288.48 1221.895,286.95 1226.665,286.32 C1230.985,285.78 1232.515,285.33 1232.515,283.755 C1232.515,282.27 1231.57,281.28 1229.365,281.28 C1227.025,281.28 1225.855,282.315 1225.63,284.25 L1218.88,284.25 C1219.06,279.975 1222.345,276.33 1229.32,276.33 C1232.785,276.33 1235.125,276.96 1236.79,278.22 C1238.77,279.66 1239.715,281.91 1239.715,284.79 L1239.715,296.4 C1239.715,298.245 1239.895,299.28 1240.525,299.685 L1240.525,300 L1233.415,300 C1233.055,299.505 1232.83,298.605 1232.65,297.435 L1232.56,297.435 C1231.21,299.37 1229.185,300.585 1225.72,300.585 Z M1228.06,295.905 C1230.805,295.905 1232.695,294.24 1232.695,291.765 L1232.695,289.02 C1231.75,289.515 1230.4,289.875 1228.915,290.235 C1226.08,290.865 1224.91,291.585 1224.91,293.34 C1224.91,295.185 1226.26,295.905 1228.06,295.905 Z M1243.72,300 L1243.72,276.96 L1250.785,276.96 L1250.785,280.11 L1250.92,280.11 C1252.63,277.635 1254.835,276.285 1258.03,276.285 C1263.07,276.285 1266.04,279.885 1266.04,285.015 L1266.04,300 L1258.705,300 L1258.705,286.5 C1258.705,284.07 1257.49,282.405 1255.105,282.405 C1252.675,282.405 1251.055,284.43 1251.055,287.265 L1251.055,300 L1243.72,300 Z M1281.025,300.72 C1273.6,300.72 1268.785,295.455 1268.785,288.525 C1268.785,281.595 1273.555,276.33 1280.845,276.33 C1287.1,276.33 1291.105,279.975 1291.78,285.15 L1284.715,285.15 C1284.265,283.08 1283.005,281.73 1280.935,281.73 C1277.785,281.73 1276.21,284.34 1276.21,288.525 C1276.21,292.62 1277.785,295.23 1280.935,295.23 C1283.23,295.23 1284.625,293.88 1284.94,291.27 L1291.96,291.27 C1291.78,296.58 1287.55,300.72 1281.025,300.72 Z M1294.75,300 L1294.75,276.96 L1302.085,276.96 L1302.085,300 L1294.75,300 Z M1294.75,273.765 L1294.75,267.825 L1302.085,267.825 L1302.085,273.765 L1294.75,273.765 Z M1315.855,300.72 C1309.105,300.72 1304.875,297.615 1304.65,292.53 L1311.58,292.53 C1311.85,294.825 1313.38,295.95 1315.81,295.95 C1318.015,295.95 1319.41,295.14 1319.41,293.655 C1319.41,291.585 1316.62,291.36 1313.56,290.82 C1309.555,290.145 1305.28,289.065 1305.28,283.665 C1305.28,278.805 1309.78,276.285 1315.225,276.285 C1321.75,276.285 1325.26,279.12 1325.62,283.665 L1318.87,283.665 C1318.6,281.595 1317.205,280.965 1315.18,280.965 C1313.38,280.965 1311.985,281.64 1311.985,283.08 C1311.985,284.7 1314.595,284.925 1317.52,285.465 C1321.57,286.14 1326.34,287.175 1326.34,293.07 C1326.34,298.11 1321.885,300.72 1315.855,300.72 Z M1340.605,300.72 C1333.18,300.72 1328.365,295.455 1328.365,288.525 C1328.365,281.595 1333.135,276.33 1340.425,276.33 C1346.68,276.33 1350.685,279.975 1351.36,285.15 L1344.295,285.15 C1343.845,283.08 1342.585,281.73 1340.515,281.73 C1337.365,281.73 1335.79,284.34 1335.79,288.525 C1335.79,292.62 1337.365,295.23 1340.515,295.23 C1342.81,295.23 1344.205,293.88 1344.52,291.27 L1351.54,291.27 C1351.36,296.58 1347.13,300.72 1340.605,300.72 Z M1365.58,295.5 C1368.775,295.5 1370.485,292.71 1370.485,288.525 C1370.485,284.34 1368.775,281.505 1365.58,281.505 C1362.385,281.505 1360.72,284.34 1360.72,288.525 C1360.72,292.71 1362.385,295.5 1365.58,295.5 Z M1365.625,300.72 C1358.245,300.72 1353.295,295.455 1353.295,288.525 C1353.295,281.595 1358.245,276.33 1365.625,276.33 C1373.05,276.33 1377.91,281.595 1377.91,288.525 C1377.91,295.455 1373.05,300.72 1365.625,300.72 Z M1380.52,300 L1380.52,292.44 L1388.215,292.44 L1388.215,300 L1380.52,300 Z" id="Eaton-Hall-Architect" fill="#000000" opacity="0.200000003"></path>
                        <rect id="Rectangle-7" fill="#F6CA07" x="1" y="345" width="108" height="10"></rect>
                    </g>
                </g>
            </g>
        </g>
    </g>
</svg>