<svg width="290" height="152" viewBox="0 0 290 152" fill="none" xmlns="http://www.w3.org/2000/svg">
<path fill-rule="evenodd" clip-rule="evenodd" d="M56.6174 73.4837L68.2108 96.1663H74.8761L60.4095 67.8646H59.4609L56.6174 73.4837ZM54.0007 78.6547L45.1403 96.1663H62.9515L54.0007 78.6547ZM28.479 78.6561L19.619 96.1663H37.4275L28.479 78.6561ZM22.0145 67.8646L7.69302 96.1663H14.37L25.8421 73.4968L22.9636 67.8646H22.0145ZM42.3358 55.8337H40.0266L31.0956 73.4847L41.2826 93.4178L51.3644 73.4968L42.3358 55.8337ZM56.6609 63.0304H63.1996L82.6064 101H70.6818H45.1578H37.445H11.9233H0L19.215 63.0304H25.7532L28.4592 68.3249L37.2271 51H45.1255L53.981 68.3258L56.6609 63.0304ZM115.089 83.5909H122.119L118.605 74.9876L115.089 83.5909ZM132.037 93.3078H126.121L123.998 88.1255H113.175L111.018 93.3078H105.135L116.307 66.3848H120.833L132.037 93.3078ZM161.274 93.3078H166.275V66.3848H161.83L152.873 84.8854L143.852 66.3848H139.374V93.3078H144.439V78.764L151.206 93.0204H154.54L161.274 78.764V93.3078ZM181.679 73.6003C180.196 75.1292 179.473 77.2126 179.473 79.8862C179.473 82.5249 180.196 84.6083 181.679 86.1697C183.161 87.7311 185.092 88.4974 187.471 88.4974C189.847 88.4974 191.746 87.7311 193.193 86.1697C194.675 84.6083 195.399 82.5249 195.399 79.8862C195.399 77.2126 194.675 75.1292 193.193 73.6003C191.746 72.0366 189.847 71.2749 187.471 71.2749C185.092 71.2749 183.161 72.0366 181.679 73.6003ZM197.087 70.198C199.603 72.6268 200.845 75.8585 200.845 79.8862C200.845 83.912 199.603 87.141 197.087 89.6073C194.57 92.0393 191.365 93.2548 187.471 93.2548C183.54 93.2548 180.335 92.0393 177.818 89.6073C175.301 87.141 174.062 83.912 174.062 79.8862C174.062 75.8585 175.301 72.6268 177.818 70.198C180.335 67.7335 183.54 66.518 187.471 66.518C191.365 66.518 194.57 67.7335 197.087 70.198ZM260.323 92.8715H255.805L244.499 76.7936V92.8715H239.158V66.901H243.673L255.014 83.0091V66.901H260.323V92.8715ZM289.766 71.6228H281.149V92.8713H275.841V71.6228H267.189V66.9011H289.766V71.6228ZM230.531 82.3179V66.9011H225.223V82.2475C225.223 86.3086 223.257 88.4976 219.571 88.4976C215.847 88.4976 213.882 86.3086 213.882 82.2475V66.9011H208.573V82.3179C208.573 85.7532 209.54 88.4624 211.503 90.372C213.469 92.2815 216.158 93.2546 219.571 93.2546C222.982 93.2546 225.636 92.2815 227.601 90.372C229.567 88.4624 230.531 85.7532 230.531 82.3179Z" fill="#1F1F1F"/>
</svg>
