<svg width="1920" height="960" viewBox="0 0 1920 960" fill="none" xmlns="http://www.w3.org/2000/svg">
<rect width="960" height="960" transform="translate(960)" fill="#1E1E1E"/>
<path d="M1356.32 433.391V394C1379.21 394.027 1401.16 403.133 1417.34 419.319C1433.52 435.506 1442.63 457.451 1442.65 480.34H1403.3C1403.27 467.917 1398.32 456.012 1389.54 447.228C1380.75 438.444 1368.85 433.495 1356.43 433.464L1356.32 433.391Z" fill="#EEEEED"/>
<path d="M1356.43 566.695C1333.52 566.695 1311.55 557.599 1295.34 541.406C1279.13 525.214 1270.02 503.249 1270 480.34H1309.42C1309.43 486.5 1310.65 492.599 1313.02 498.286C1315.39 503.974 1318.86 509.139 1323.22 513.485C1327.59 517.832 1332.77 521.276 1338.47 523.619C1344.16 525.963 1350.27 527.16 1356.43 527.143V566.695Z" fill="#EEEEED"/>
<path d="M1487.01 394.044C1478.31 426.872 1464.83 480.106 1443.76 566.695H1483.87C1497.48 511.029 1515.38 439.177 1526.77 395.699C1538.19 438.869 1556.06 510.854 1569.66 566.695H1610C1588.86 479.827 1575.41 426.725 1566.76 394.044H1487.01Z" fill="#EEEEED"/>
<g clip-path="url(#clip0_317:106979)">
<rect width="960" height="960" fill="#EEEEED"/>
<line x1="395.5" y1="-2.18557e-08" x2="395.5" y2="960" stroke="#CACAC9" stroke-dasharray="2 5"/>
<line y1="393.5" x2="960" y2="393.5" stroke="#BEBEBE"/>
<line y1="567.5" x2="960" y2="567.5" stroke="#BEBEBE"/>
<line x1="-22" y1="480.5" x2="960" y2="480.5" stroke="#BEBEBE"/>
<path d="M395.418 433.464V394C418.307 394.027 440.251 403.133 456.435 419.319C472.618 435.506 481.72 457.111 481.744 480H442.397C442.366 467.577 437.417 456.012 428.633 447.228C419.849 438.444 407.943 433.495 395.521 433.464H395.418Z" fill="#202021"/>
<path d="M396.428 567C373.518 567 351.546 557.599 335.34 541.406C319.133 525.214 310.019 503.909 310 481H349.42C349.43 487.161 350.653 492.599 353.022 498.286C355.39 503.974 358.856 509.139 363.222 513.485C367.588 517.832 372.768 521.276 378.465 523.619C384.163 525.963 390.267 527.16 396.428 527.143V567Z" fill="#202021"/>
<path d="M526.6 394C517.911 426.894 504.453 480.236 483.418 567H523.47C537.059 511.222 554.935 439.224 566.301 395.659C577.711 438.916 595.557 511.046 609.132 567H649.418C628.31 479.957 614.881 426.748 606.236 394H526.6Z" fill="#202021"/>
</g>
<defs>
<clipPath id="clip0_317:106979">
<rect width="960" height="960" fill="white"/>
</clipPath>
</defs>
</svg>
