<svg width="1920" height="1080" fill="none" xmlns="http://www.w3.org/2000/svg"><path fill="#030E2E" d="M0 0h1920v1080H0z"/><path d="M937.682 384.536h144.498M625.273 513.647h253.055M878.328 513.647c10.975 0 16.462 0 20.486 2.379 2.652 1.556 4.939 3.752 6.493 6.405 2.378 4.118 2.378 9.608 2.378 20.589v68.261c0 10.98 0 16.471 2.378 20.588 1.555 2.654 3.749 4.941 6.493 6.406 4.116 2.379 9.603 2.379 20.486 2.379" stroke="#F1F4FE" stroke-width="1.2" stroke-linecap="round" stroke-linejoin="round"/><path d="M936.95 384.536c-10.974 0-16.462 0-20.486 2.379-2.652 1.556-4.938 3.752-6.493 6.405-2.378 4.118-2.378 9.608-2.378 20.588v70.458c0 10.98 0 16.471-2.378 20.588-1.554 2.654-3.749 4.941-6.493 6.405-4.115 2.38-9.603 2.379-20.486 2.379" stroke="#F1F4FE" stroke-width="1.2" stroke-linecap="round" stroke-linejoin="round"/><path d="M574.059 595.634h1.92l4.299 10.065 4.298-10.065h1.92v12.17h-1.463v-9.608l-4.024 9.608h-1.372l-4.115-9.608v9.608h-1.463v-12.17ZM588.326 603.412c0-2.654 1.738-4.575 4.207-4.575s4.116 1.555 4.207 4.209v.64h-6.859v.092c.091 1.647 1.097 2.836 2.835 2.836 1.28 0 2.195-.64 2.561-1.83h1.463c-.366 1.739-1.829 3.111-3.841 3.111-2.835 0-4.573-1.83-4.573-4.483Zm6.951-.915c-.183-1.556-1.189-2.379-2.652-2.379-1.281 0-2.47.915-2.653 2.379h5.305ZM611.829 602.68v5.124h-1.463v-5.033c0-1.738-.732-2.653-2.104-2.653-1.463 0-2.378 1.098-2.378 2.928v4.758h-1.463v-5.033c0-1.738-.823-2.653-2.103-2.653-1.464 0-2.378 1.189-2.378 3.019v4.667h-1.463v-8.876h1.188l.183 1.19c.458-.641 1.189-1.281 2.561-1.281 1.189 0 2.286.549 2.835 1.647.549-.915 1.463-1.647 3.11-1.647 1.92 0 3.475 1.098 3.475 3.843ZM622.53 603.412c0 2.745-1.829 4.575-4.298 4.575-1.464 0-2.47-.641-3.018-1.464l-.183 1.372h-1.189v-12.17h1.463v4.759c.549-.824 1.555-1.556 3.018-1.556 2.378-.091 4.207 1.556 4.207 4.484Zm-1.463 0c0-1.922-1.189-3.294-2.927-3.294-1.737 0-2.926 1.372-2.926 3.202 0 1.922 1.189 3.294 2.926 3.294 1.738 0 2.927-1.281 2.927-3.202ZM623.992 603.412c0-2.654 1.738-4.575 4.207-4.575s4.116 1.555 4.207 4.209v.64h-6.859v.092c.091 1.647 1.097 2.836 2.835 2.836 1.28 0 2.195-.64 2.561-1.83h1.28c-.366 1.739-1.829 3.111-3.841 3.111-2.652 0-4.39-1.83-4.39-4.483Zm6.859-.915c-.183-1.556-1.189-2.379-2.652-2.379-1.28 0-2.469.915-2.652 2.379h5.304ZM638.717 598.928v1.373h-.731c-1.829 0-2.378 1.555-2.378 2.928v4.483h-1.463v-8.875h1.188l.183 1.372c.458-.64 1.098-1.372 2.653-1.372h.548v.091ZM640.73 599.843l-.275-3.202c-.091-.641.275-1.099.824-1.099.64 0 .914.458.823 1.099l-.275 3.202h-1.097ZM644.844 604.876c.091 1.006 1.006 1.83 2.469 1.83 1.28 0 2.104-.549 2.104-1.373 0-1.098-1.006-1.189-2.287-1.372-2.012-.275-3.567-.641-3.567-2.471 0-1.647 1.464-2.653 3.476-2.653s3.475.915 3.658 2.836h-1.463c-.092-.915-.915-1.555-2.195-1.555-1.189 0-2.104.549-2.104 1.372 0 1.007.915 1.098 2.195 1.281 2.012.275 3.658.641 3.658 2.562 0 1.647-1.554 2.654-3.566 2.654-2.287 0-3.841-1.098-3.933-3.02h1.555v-.091ZM575.521 615.765h4.665c2.469 0 4.024 1.464 4.024 3.751 0 2.288-1.555 3.752-4.024 3.752h-3.201v4.667h-1.464v-12.17Zm1.555 1.372v4.667h3.018c1.555 0 2.652-.915 2.652-2.379s-1.006-2.379-2.56-2.379h-3.11v.091ZM593.538 626.654v1.281h-.823c-1.189 0-1.555-.549-1.555-1.373-.548.824-1.463 1.464-2.926 1.464-1.921 0-3.293-1.006-3.293-2.562 0-1.739 1.189-2.745 3.567-2.745h2.561v-.641c0-1.189-.823-1.83-2.195-1.83-1.28 0-2.104.549-2.286 1.464h-1.464c.183-1.738 1.646-2.745 3.75-2.745 2.286 0 3.567 1.098 3.567 3.203v3.843c0 .458.183.549.548.549h.549v.092Zm-2.378-2.746h-2.743c-1.281 0-2.012.458-2.012 1.465 0 .915.731 1.464 1.92 1.464 1.738 0 2.835-1.007 2.835-2.471v-.458ZM593.629 619.059h1.555l2.743 7.045 2.652-7.045h1.555l-4.115 10.34c-.549 1.464-.915 2.013-2.104 2.013h-1.737v-1.281h1.28c.823 0 .915-.183 1.28-1.007l.458-1.098-3.567-8.967ZM602.5 623.542c0-2.745 1.738-4.575 4.298-4.575 2.195 0 3.567 1.19 3.933 3.203h-1.463c-.275-1.19-1.098-1.922-2.47-1.922-1.737 0-2.835 1.373-2.835 3.294 0 1.922 1.189 3.295 2.835 3.295 1.281 0 2.104-.732 2.378-1.83h1.555c-.366 1.921-1.829 3.111-3.933 3.111-2.56-.092-4.298-1.83-4.298-4.576ZM620.425 622.993v4.942h-1.463v-4.85c0-1.83-.915-2.837-2.378-2.837-1.646 0-2.652 1.19-2.652 3.203v4.392h-1.463v-12.17h1.463v4.758c.549-.823 1.463-1.555 2.927-1.555 1.92.091 3.566 1.189 3.566 4.117ZM621.98 623.542c0-2.653 1.738-4.575 4.207-4.575 2.47 0 4.116 1.556 4.207 4.209v.641h-6.859v.091c.092 1.648 1.098 2.837 2.835 2.837 1.281 0 2.195-.64 2.561-1.83h1.463c-.366 1.739-1.829 3.111-3.841 3.111-2.835 0-4.573-1.83-4.573-4.484Zm6.86-.915c-.183-1.555-1.189-2.379-2.653-2.379-1.28 0-2.469.915-2.652 2.379h5.305ZM631.857 623.542c0-2.745 1.738-4.575 4.299-4.575 2.195 0 3.567 1.19 3.932 3.203h-1.463c-.274-1.19-1.097-1.922-2.469-1.922-1.738 0-2.835 1.373-2.835 3.294 0 1.922 1.189 3.295 2.835 3.295 1.28 0 2.103-.732 2.378-1.83h1.554c-.365 1.921-1.829 3.111-3.932 3.111-2.561-.092-4.299-1.83-4.299-4.576ZM641.826 615.765h1.463v8.052l4.481-4.667h1.738l-3.475 3.66 3.658 5.216h-1.738l-2.926-4.209-1.829 1.83v2.288h-1.464v-12.17h.092ZM753.767 595.634h4.664c2.47 0 4.024 1.464 4.024 3.752 0 2.287-1.554 3.751-4.024 3.751h-3.2v4.667h-1.555v-12.17h.091Zm1.464 1.373v4.666h3.018c1.554 0 2.652-.915 2.652-2.379s-1.006-2.379-2.561-2.379h-3.109v.092ZM768.491 598.928v1.373h-.732c-1.829 0-2.378 1.555-2.378 2.928v4.483h-1.463v-8.875h1.189l.183 1.372c.457-.64 1.097-1.372 2.652-1.372h.549v.091ZM769.041 603.412c0-2.654 1.829-4.575 4.39-4.575s4.39 1.83 4.39 4.575c0 2.653-1.829 4.575-4.39 4.575s-4.39-1.922-4.39-4.575Zm7.408 0c0-1.922-1.189-3.294-2.927-3.294-1.737 0-2.926 1.372-2.926 3.294 0 1.921 1.189 3.294 2.926 3.294 1.738-.092 2.927-1.464 2.927-3.294ZM778.369 598.928h1.555l2.652 7.229 2.652-7.229h1.464l-3.293 8.876h-1.738l-3.292-8.876ZM787.789 596.549c0-.549.366-.915.915-.915.548 0 .914.366.914.915s-.366.915-.914.915c-.549 0-.915-.366-.915-.915Zm.183 2.379h1.463v8.876h-1.463v-8.876ZM798.488 595.634h1.464v12.17h-1.281l-.183-1.464c-.548.823-1.554 1.555-3.018 1.555-2.469 0-4.298-1.647-4.298-4.575 0-2.745 1.829-4.575 4.298-4.575 1.464 0 2.47.641 3.018 1.464v-4.575Zm0 7.778c0-1.922-1.189-3.294-2.926-3.294-1.738 0-2.927 1.372-2.927 3.294 0 1.921 1.189 3.294 2.927 3.294 1.737-.092 2.926-1.373 2.926-3.294ZM801.689 603.412c0-2.654 1.738-4.575 4.207-4.575 2.47 0 4.116 1.555 4.207 4.209v.64h-6.859v.092c.092 1.647 1.098 2.836 2.835 2.836 1.281 0 2.195-.64 2.561-1.83h1.463c-.366 1.739-1.829 3.111-3.841 3.111-2.835 0-4.573-1.83-4.573-4.483Zm6.86-.915c-.183-1.556-1.189-2.379-2.653-2.379-1.28 0-2.469.915-2.652 2.379h5.305ZM816.415 598.928v1.373h-.732c-1.829 0-2.378 1.555-2.378 2.928v4.483h-1.463v-8.875h1.189l.183 1.372c.457-.64 1.097-1.372 2.652-1.372h.549v.091ZM760.627 615.765h4.664c2.469 0 4.024 1.464 4.024 3.751 0 2.288-1.555 3.752-4.024 3.752h-3.201v4.667h-1.555v-12.17h.092Zm1.554 1.372v4.667h3.018c1.555 0 2.653-.915 2.653-2.379s-1.006-2.379-2.561-2.379h-3.11v.091ZM778.735 626.654v1.281h-.823c-1.189 0-1.554-.549-1.554-1.373-.549.824-1.464 1.464-2.927 1.464-1.921 0-3.292-1.006-3.292-2.562 0-1.739 1.189-2.745 3.566-2.745h2.561v-.641c0-1.189-.823-1.83-2.195-1.83-1.28 0-2.103.549-2.286 1.464h-1.463c.182-1.738 1.646-2.745 3.749-2.745 2.287 0 3.567 1.098 3.567 3.203v3.843c0 .458.183.549.549.549h.548v.092Zm-2.469-2.746h-2.744c-1.28 0-2.012.458-2.012 1.465 0 .915.732 1.464 1.921 1.464 1.738 0 2.835-1.007 2.835-2.471v-.458ZM778.734 619.059h1.555l2.744 7.046 2.652-7.046h1.555l-4.116 10.34c-.549 1.464-.914 2.013-2.103 2.013h-1.738v-1.281h1.28c.824 0 .915-.183 1.281-1.007l.457-1.098-3.567-8.967ZM792.819 619.059v1.372h-.732c-1.829 0-2.378 1.556-2.378 2.928v4.484h-1.463v-8.876h1.189l.183 1.373c.457-.641 1.097-1.373 2.652-1.373h.549v.092ZM793.459 623.542c0-2.653 1.829-4.575 4.39-4.575s4.39 1.83 4.39 4.575c0 2.654-1.829 4.576-4.39 4.576-2.652-.092-4.39-1.922-4.39-4.576Zm7.316 0c0-1.921-1.189-3.294-2.926-3.294-1.738 0-2.927 1.373-2.927 3.294 0 1.922 1.189 3.295 2.927 3.295 1.737-.092 2.926-1.464 2.926-3.295ZM803.977 615.765h1.463v12.17h-1.463v-12.17ZM807.543 615.765h1.463v12.17h-1.463v-12.17ZM1058.95 474.026c0-3.66 2.29-6.222 5.76-6.222 2.66 0 4.67 1.556 5.12 4.118h-1.55c-.46-1.647-1.74-2.654-3.57-2.654-2.56 0-4.2 2.013-4.2 4.758 0 2.837 1.55 4.758 4.11 4.758 1.92 0 3.2-1.006 3.66-2.653h1.55c-.45 2.562-2.46 4.117-5.21 4.117-3.47 0-5.67-2.47-5.67-6.222ZM1079.62 475.216v4.941h-1.46v-4.85c0-1.83-.92-2.836-2.38-2.836-1.65 0-2.65 1.189-2.65 3.202v4.392h-1.47v-12.169h1.47v4.758c.55-.824 1.46-1.556 2.92-1.556 1.92.092 3.57 1.19 3.57 4.118ZM1081.17 475.673c0-2.653 1.74-4.575 4.21-4.575 2.47 0 4.12 1.556 4.21 4.209v.641h-6.86v.091c.09 1.647 1.1 2.837 2.83 2.837 1.28 0 2.2-.641 2.56-1.83h1.47c-.37 1.738-1.83 3.111-3.84 3.111-2.84.091-4.58-1.739-4.58-4.484Zm6.86-.915c-.18-1.555-1.19-2.379-2.65-2.379-1.28 0-2.47.915-2.65 2.379h5.3ZM1091.05 475.673c0-2.745 1.74-4.575 4.3-4.575 2.2 0 3.57 1.19 3.93 3.203h-1.46c-.27-1.19-1.1-1.922-2.47-1.922-1.74 0-2.83 1.373-2.83 3.294 0 1.922 1.18 3.294 2.83 3.294 1.28 0 2.1-.732 2.38-1.83h1.55c-.36 1.922-1.83 3.111-3.93 3.111-2.56 0-4.3-1.738-4.3-4.575ZM1101.02 467.987h1.46v8.052l4.49-4.666h1.73l-3.47 3.66 3.66 5.215h-1.74l-2.93-4.209-1.83 1.83v2.288h-1.46v-12.17h.09ZM1109.89 468.811c0-.549.37-.915.92-.915.54 0 .91.366.91.915s-.37.915-.91.915c-.55 0-.92-.366-.92-.915Zm.18 2.47h1.47v8.876h-1.47v-8.876ZM1121.51 475.216v4.941h-1.47v-4.85c0-1.83-.82-2.836-2.38-2.836-1.64 0-2.65 1.189-2.65 3.202v4.392h-1.46v-8.784h1.19l.18 1.19c.55-.641 1.46-1.281 2.93-1.281 2.1 0 3.66 1.098 3.66 4.026ZM1130.65 471.281h1.19v8.418c0 2.563-1.37 4.027-4.39 4.027-2.29 0-3.84-1.098-4.02-3.02h1.46c.27 1.098 1.19 1.739 2.74 1.739 1.83 0 2.84-.824 2.84-2.837v-1.007c-.55 1.007-1.56 1.647-3.02 1.647-2.47 0-4.3-1.647-4.3-4.575 0-2.745 1.83-4.575 4.3-4.575 1.46 0 2.47.641 3.02 1.647l.18-1.464Zm-.18 4.484c0-1.922-1.19-3.294-2.93-3.294-1.74 0-2.92 1.372-2.92 3.294 0 1.921 1.18 3.294 2.92 3.294 1.74-.092 2.93-1.464 2.93-3.294ZM1137.88 480.157l4.66-12.17h1.83l4.66 12.17h-1.64l-1.28-3.294h-5.31l-1.28 3.294h-1.64Zm3.38-4.667h4.39l-2.19-5.856-2.2 5.856ZM1149.58 475.673c0-2.745 1.74-4.575 4.3-4.575 2.2 0 3.57 1.19 3.93 3.203h-1.46c-.27-1.19-1.1-1.922-2.47-1.922-1.74 0-2.83 1.373-2.83 3.294 0 1.922 1.18 3.294 2.83 3.294 1.28 0 2.1-.732 2.38-1.83h1.55c-.36 1.922-1.83 3.111-3.93 3.111-2.56 0-4.3-1.738-4.3-4.575ZM1159.28 475.673c0-2.745 1.73-4.575 4.3-4.575 2.19 0 3.56 1.19 3.93 3.203h-1.46c-.28-1.19-1.1-1.922-2.47-1.922-1.74 0-2.84 1.373-2.84 3.294 0 1.922 1.19 3.294 2.84 3.294 1.28 0 2.1-.732 2.37-1.83h1.56c-.37 1.922-1.83 3.111-3.93 3.111-2.66 0-4.3-1.738-4.3-4.575ZM1168.88 475.673c0-2.653 1.83-4.575 4.39-4.575 2.56 0 4.39 1.83 4.39 4.575 0 2.654-1.83 4.575-4.39 4.575-2.56 0-4.39-1.83-4.39-4.575Zm7.32 0c0-1.921-1.19-3.294-2.93-3.294-1.74 0-2.93 1.373-2.93 3.294 0 1.922 1.19 3.294 2.93 3.294 1.74 0 2.93-1.372 2.93-3.294ZM1185.71 471.281h1.46v8.876h-1.19l-.18-1.19c-.55.641-1.37 1.281-2.84 1.281-1.92 0-3.47-1.098-3.47-4.026v-4.941h1.46v4.85c0 1.83.82 2.836 2.29 2.836 1.64 0 2.56-1.189 2.56-3.202v-4.484h-.09ZM1197.14 475.216v4.941h-1.47v-4.85c0-1.83-.82-2.836-2.37-2.836-1.65 0-2.66 1.189-2.66 3.202v4.392h-1.46v-8.784h1.19l.18 1.19c.55-.641 1.47-1.281 2.93-1.281 2.01 0 3.66 1.098 3.66 4.026ZM1199.79 472.562h-1.55v-1.281h1.55v-2.47h1.46v2.47h2.29v1.281h-2.29v5.216c0 .732.28 1.006 1.01 1.006h1.37v1.281h-1.55c-1.74 0-2.29-.732-2.29-2.287v-5.216ZM1083.46 492.327h3.2c1.92 0 3.02.915 3.02 2.379 0 1.006-.55 1.647-1.37 1.921.91.183 1.74.824 1.74 2.105 0 1.556-1.1 2.562-3.3 2.562h-3.29v-8.967Zm1.1 1.006v2.928h2.1c1.19 0 1.83-.549 1.83-1.464 0-.915-.64-1.464-1.83-1.464h-2.1Zm0 3.935v3.02h2.19c1.38 0 2.11-.549 2.11-1.464 0-1.007-.83-1.556-2.11-1.556h-2.19ZM1097.45 500.379v1.007h-.64c-.91 0-1.19-.366-1.19-1.007-.36.549-1.09 1.098-2.19 1.098-1.46 0-2.38-.732-2.38-1.921 0-1.282.92-2.014 2.65-2.014h1.92v-.457c0-.824-.64-1.373-1.64-1.373-.92 0-1.56.458-1.65 1.098h-1c.18-1.281 1.18-2.013 2.74-2.013 1.64 0 2.65.824 2.65 2.379v2.837c0 .366.09.458.46.458h.27v-.092Zm-1.83-2.013h-2.01c-.91 0-1.46.366-1.46 1.098 0 .641.55 1.098 1.46 1.098 1.28 0 2.1-.732 2.1-1.83v-.366h-.09ZM1104.22 497.634v3.66h-1.01v-3.569c0-1.372-.64-2.104-1.73-2.104-1.19 0-2.01.915-2.01 2.379v3.294h-1.01v-6.497h.91l.19.915c.36-.457 1-.915 2.19-.915 1.28-.091 2.47.732 2.47 2.837ZM1105.68 492.327h1.01v5.947l3.29-3.477h1.28l-2.56 2.745 2.75 3.844h-1.29l-2.19-3.112-1.28 1.373v1.739h-1.01v-9.059ZM1115.56 498c0-2.013 1.37-3.386 3.2-3.386s3.2 1.373 3.2 3.386-1.37 3.386-3.2 3.386-3.2-1.373-3.2-3.386Zm5.4 0c0-1.373-.92-2.379-2.2-2.379-1.28 0-2.19 1.006-2.19 2.379s.91 2.379 2.19 2.379c1.28.092 2.2-.915 2.2-2.379ZM1122.6 494.797h1.19v-.732c0-1.189.46-1.738 1.74-1.738h1.19v1.006h-1.1c-.55 0-.73.183-.73.732v.732h1.83v.915h-1.83v5.582h-1.01v-5.582h-1.19v-.915h-.09ZM1130.38 501.294l3.38-8.967h1.28l3.38 8.967h-1.18l-.92-2.379h-3.84l-.91 2.379h-1.19Zm2.47-3.386h3.2l-1.65-4.3-1.55 4.3ZM1149.31 497.542v3.752h-1.01v-3.66c0-1.281-.55-1.922-1.55-1.922-1.1 0-1.74.824-1.74 2.196v3.478H1144v-3.661c0-1.281-.55-1.921-1.55-1.921-1.1 0-1.74.915-1.74 2.196v3.477h-1v-6.497h.91l.18.915c.37-.457.92-1.006 1.92-1.006.92 0 1.65.366 2.11 1.281.36-.732 1.09-1.281 2.28-1.281 1.1-.183 2.2.549 2.2 2.653ZM1150.41 498c0-2.013 1.28-3.386 3.11-3.386 1.82 0 3.01 1.19 3.11 3.111v.458h-5.03v.092c0 1.281.82 2.104 2.1 2.104.91 0 1.64-.457 1.83-1.372h1.1c-.28 1.281-1.38 2.287-2.84 2.287-2.1.092-3.38-1.281-3.38-3.294Zm5.12-.641c-.09-1.098-.92-1.738-1.92-1.738-1.01 0-1.83.732-1.92 1.738h3.84ZM1161.29 494.797v1.007h-.55c-1.37 0-1.74 1.098-1.74 2.196v3.294h-1v-6.497h.91l.18 1.007c.28-.458.83-1.007 2.02-1.007h.18ZM1162.11 492.967c0-.366.28-.64.64-.64.37 0 .64.274.64.64s-.27.641-.64.641c-.27.091-.64-.183-.64-.641Zm.18 1.83h1.01v6.497h-1.01v-6.497ZM1164.67 498.091c0-2.013 1.28-3.385 3.2-3.385 1.65 0 2.65.915 2.93 2.287h-1.1c-.18-.915-.82-1.372-1.83-1.372-1.28 0-2.1 1.006-2.1 2.379 0 1.372.82 2.379 2.1 2.379.92 0 1.56-.549 1.74-1.373h1.1c-.28 1.373-1.28 2.288-2.93 2.288-1.83.092-3.11-1.189-3.11-3.203ZM1178.12 500.379v1.007h-.55c-.92 0-1.19-.366-1.19-1.007-.37.549-1.1 1.098-2.2 1.098-1.46 0-2.37-.732-2.37-1.921 0-1.282.91-2.014 2.65-2.014h1.92v-.457c0-.824-.64-1.373-1.65-1.373-.91 0-1.55.458-1.64 1.098h-1.01c.18-1.281 1.19-2.013 2.74-2.013 1.65 0 2.66.824 2.66 2.379v2.837c0 .366.09.458.45.458h.19v-.092Zm-1.83-2.013h-2.01c-.92 0-1.47.366-1.47 1.098 0 .641.55 1.098 1.47 1.098 1.28 0 2.1-.732 2.1-1.83v-.366h-.09ZM1080.17 768.941h1.37l3.2 7.412 3.11-7.412h1.37v8.967h-1.1v-7.045l-2.92 7.045h-1.01l-3.02-7.045v7.045h-1.09v-8.967h.09ZM1090.78 774.706c0-2.013 1.28-3.386 3.1-3.386 1.83 0 3.02 1.19 3.11 3.111v.458h-5.03v.091c0 1.281.83 2.105 2.11 2.105.91 0 1.64-.458 1.83-1.373h1.09a2.856 2.856 0 0 1-2.83 2.288c-2.1 0-3.38-1.281-3.38-3.294Zm5.03-.641c-.1-1.098-.92-1.738-1.93-1.738-1 0-1.82.732-1.92 1.738h3.85ZM1108.06 774.157v3.752h-1v-3.661c0-1.281-.55-1.921-1.56-1.921-1.1 0-1.74.823-1.74 2.196V778h-1v-3.66c0-1.281-.55-1.922-1.56-1.922-1.09 0-1.73.915-1.73 2.196v3.478h-1.01v-6.68h.91l.19.915c.36-.458.91-1.007 1.92-1.007.91 0 1.64.366 2.1 1.281.37-.732 1.1-1.281 2.29-1.281 1.09 0 2.19.824 2.19 2.837ZM1115.93 774.706c0 2.013-1.37 3.386-3.11 3.386-1.1 0-1.83-.458-2.29-1.099l-.18 1.007h-.92v-8.967h1.01v3.477c.46-.641 1.1-1.098 2.29-1.098 1.83-.092 3.2 1.189 3.2 3.294Zm-1.1 0c0-1.464-.92-2.379-2.2-2.379-1.28 0-2.19 1.006-2.19 2.379 0 1.464.91 2.471 2.19 2.471 1.38-.092 2.2-1.099 2.2-2.471ZM1117.02 774.706c0-2.013 1.28-3.386 3.11-3.386 1.83 0 3.02 1.19 3.11 3.111v.458h-5.03v.091c0 1.281.83 2.105 2.11 2.105.91 0 1.64-.458 1.82-1.373h1.1a2.856 2.856 0 0 1-2.83 2.288c-2.11 0-3.39-1.281-3.39-3.294Zm5.03-.641c-.09-1.098-.91-1.738-1.92-1.738-1 0-1.83.732-1.92 1.738h3.84ZM1127.82 771.412v1.006h-.55c-1.37 0-1.74 1.098-1.74 2.196v3.294h-1.01v-6.496h.92l.18 1.006c.28-.457.82-1.006 2.01-1.006h.19ZM1131.75 778l3.38-8.967h1.28l3.39 8.967h-1.19l-.92-2.379h-3.93l-.91 2.379h-1.1Zm2.47-3.477h3.2l-1.65-4.301-1.55 4.301ZM1140.34 774.706c0-2.013 1.28-3.386 3.2-3.386 1.65 0 2.66.915 2.93 2.288h-1.1c-.18-.915-.82-1.373-1.83-1.373-1.28 0-2.1 1.007-2.1 2.379 0 1.373.82 2.379 2.1 2.379.92 0 1.56-.549 1.74-1.372h1.1c-.27 1.372-1.28 2.288-2.93 2.288-1.83.091-3.11-1.19-3.11-3.203ZM1147.48 774.706c0-2.013 1.28-3.386 3.2-3.386 1.65 0 2.65.915 2.93 2.288h-1.1c-.18-.915-.82-1.373-1.83-1.373-1.28 0-2.1 1.007-2.1 2.379 0 1.373.82 2.379 2.1 2.379.91 0 1.55-.549 1.74-1.372h1.09c-.27 1.372-1.28 2.288-2.92 2.288-1.83.091-3.11-1.19-3.11-3.203ZM1154.61 774.706c0-2.013 1.37-3.386 3.2-3.386s3.2 1.373 3.2 3.386-1.37 3.386-3.2 3.386-3.2-1.373-3.2-3.386Zm5.4 0c0-1.373-.92-2.379-2.2-2.379-1.28 0-2.19 1.006-2.19 2.379 0 1.372.91 2.379 2.19 2.379 1.28 0 2.2-1.007 2.2-2.379ZM1166.96 771.412h1v6.496h-.91l-.18-.915c-.37.458-1.01.915-2.11.915-1.46 0-2.56-.823-2.56-3.019v-3.66h1.01v3.568c0 1.373.64 2.105 1.74 2.105 1.19 0 1.92-.915 1.92-2.379v-3.111h.09ZM1175.37 774.34V778h-1v-3.569c0-1.372-.65-2.104-1.74-2.104-1.19 0-2.01.915-2.01 2.379V778h-1.01v-6.588h.91l.19.915c.36-.458 1-.915 2.19-.915 1.28-.092 2.47.732 2.47 2.928ZM1177.29 772.418h-1.19v-.915h1.19v-1.83h1.01v1.83h1.64v.915h-1.64v3.843c0 .549.18.732.73.732h1.01V778h-1.1c-1.28 0-1.74-.549-1.74-1.739v-3.843h.09ZM1286.31 757.412v-8.968h1.09v7.961h4.12v1.007h-5.21ZM1292.07 754.118c0-2.013 1.28-3.386 3.11-3.386 1.83 0 3.02 1.19 3.11 3.111v.458h-5.03v.091c0 1.281.82 2.105 2.1 2.105.92 0 1.65-.458 1.83-1.373h1.1c-.28 1.281-1.37 2.288-2.84 2.288-2.1.091-3.38-1.281-3.38-3.294Zm5.03-.641c-.09-1.098-.92-1.738-1.92-1.738-1.01 0-1.83.732-1.92 1.738h3.84ZM1305.42 753.752v3.66h-1.01v-3.569c0-1.372-.64-2.104-1.73-2.104-1.19 0-2.02.915-2.02 2.379v3.294h-1v-6.497h.91l.19.915c.36-.457 1-.915 2.19-.915 1.28-.091 2.47.732 2.47 2.837ZM1311.91 748.444h1.01v8.968h-.92l-.18-1.007c-.46.641-1.1 1.098-2.28 1.098-1.83 0-3.11-1.189-3.11-3.385 0-2.013 1.37-3.386 3.11-3.386 1.09 0 1.82.458 2.28 1.098v-3.386h.09Zm0 5.765c0-1.464-.91-2.47-2.19-2.47-1.28 0-2.2 1.006-2.2 2.379 0 1.372.92 2.379 2.2 2.379 1.37.091 2.19-.915 2.19-2.288ZM1314.29 754.118c0-2.013 1.28-3.386 3.11-3.386 1.83 0 3.02 1.19 3.11 3.111v.458h-5.12v.091c0 1.281.82 2.105 2.1 2.105.92 0 1.65-.458 1.83-1.373h1.1c-.28 1.281-1.37 2.288-2.84 2.288-2.01.091-3.29-1.281-3.29-3.294Zm5.03-.641c-.09-1.098-.91-1.738-1.92-1.738-1.01 0-1.83.732-1.92 1.738h3.84ZM1325.08 750.915v1.007h-.55c-1.37 0-1.73 1.098-1.73 2.196v3.294h-1.01v-6.497h.92l.18 1.007c.27-.458.82-1.007 2.01-1.007h.18ZM1073.77 723.373h1.55v5.307h6.31v-5.307h1.56v12.169h-1.56v-5.49h-6.31v5.49h-1.55v-12.169ZM1085.2 724.196c0-.549.36-.915.91-.915s.92.366.92.915-.37.915-.92.915-.91-.366-.91-.915Zm.18 2.471h1.46v8.875h-1.46v-8.875ZM1096.08 726.667h1.19v8.418c0 2.562-1.37 4.026-4.39 4.026-2.29 0-3.84-1.098-4.02-3.02h1.46c.27 1.099 1.19 1.739 2.74 1.739 1.83 0 2.84-.823 2.84-2.837v-1.006c-.55 1.006-1.56 1.647-3.02 1.647-2.47 0-4.3-1.647-4.3-4.575 0-2.745 1.83-4.575 4.3-4.575 1.46 0 2.47.64 3.02 1.647l.18-1.464Zm-.18 4.392c0-1.922-1.19-3.294-2.93-3.294-1.74 0-2.92 1.372-2.92 3.294 0 1.921 1.18 3.294 2.92 3.294s2.93-1.373 2.93-3.294ZM1107.33 730.601v4.941h-1.46v-4.849c0-1.83-.92-2.837-2.38-2.837-1.65 0-2.65 1.19-2.65 3.203v4.392h-1.47v-12.17h1.47v4.758c.55-.823 1.46-1.555 2.92-1.555 1.92.091 3.57 1.098 3.57 4.117ZM1109.34 723.373h1.47v12.169h-1.47v-12.169ZM1112.63 724.196c0-.549.37-.915.92-.915s.91.366.91.915-.36.915-.91.915-.92-.366-.92-.915Zm.19 2.471h1.46v8.875h-1.46v-8.875ZM1124.25 730.601v4.941h-1.46v-4.849c0-1.83-.83-2.837-2.38-2.837-1.65 0-2.65 1.19-2.65 3.203v4.392h-1.47v-8.876h1.19l.18 1.19c.55-.641 1.47-1.281 2.93-1.281 2.1.091 3.66 1.098 3.66 4.117ZM1125.89 731.059c0-2.654 1.74-4.575 4.21-4.575 2.47 0 4.12 1.555 4.21 4.209v.64h-6.86v.092c.09 1.647 1.1 2.836 2.83 2.836 1.28 0 2.2-.64 2.57-1.83h1.46c-.37 1.739-1.83 3.111-3.84 3.111-2.84.092-4.58-1.738-4.58-4.483Zm6.86-.915c-.18-1.556-1.19-2.379-2.65-2.379-1.28 0-2.47.915-2.65 2.379h5.3ZM1139.98 723.373h1.55l3.75 10.339 3.66-10.339h1.56l-4.39 12.169h-1.83l-4.3-12.169ZM1151.59 724.196c0-.549.37-.915.92-.915s.91.366.91.915-.36.915-.91.915-.92-.366-.92-.915Zm.19 2.471h1.46v8.875h-1.46v-8.875ZM1159.83 726.667v1.372h-.74c-1.83 0-2.37 1.556-2.37 2.928v4.484h-1.38v-8.876h1.19l.19 1.373c.45-.641 1.09-1.373 2.65-1.373h.46v.092ZM1162.2 727.948h-1.55v-1.281h1.55v-2.471h1.47v2.471h2.28v1.281h-2.38v5.215c0 .732.28 1.007 1.01 1.007h1.37v1.281h-1.46c-1.74 0-2.29-.732-2.29-2.288v-5.215ZM1173.63 726.667h1.47v8.875h-1.19l-.18-1.189c-.55.64-1.38 1.281-2.84 1.281-1.92 0-3.47-1.098-3.47-4.026v-4.941h1.46v4.849c0 1.83.82 2.837 2.29 2.837 1.64 0 2.56-1.19 2.56-3.203v-4.483h-.1ZM1185.43 734.17v1.281h-.82c-1.19 0-1.56-.549-1.56-1.373-.54.824-1.46 1.464-2.92 1.464-1.92 0-3.29-1.006-3.29-2.562 0-1.738 1.18-2.745 3.56-2.745h2.56v-.64c0-1.19-.82-1.83-2.19-1.83-1.28 0-2.1.549-2.29 1.464h-1.46c.18-1.739 1.65-2.745 3.75-2.745 2.28 0 3.57 1.098 3.57 3.202v3.843c0 .458.18.549.54.549h.55v.092Zm-2.47-2.745h-2.74c-1.28 0-2.01.457-2.01 1.464 0 .915.73 1.464 1.92 1.464 1.74 0 2.83-1.007 2.83-2.471v-.457ZM1186.71 723.373h1.47v12.169h-1.47v-12.169ZM1098.19 755.673l4.66-12.17h1.83l4.66 12.17h-1.64l-1.28-3.294h-5.31l-1.28 3.294h-1.64Zm3.29-4.666h4.39l-2.2-5.857-2.19 5.857ZM1109.89 751.19c0-2.746 1.74-4.576 4.3-4.576 2.2 0 3.57 1.19 3.93 3.203h-1.46c-.27-1.19-1.1-1.922-2.47-1.922-1.74 0-2.83 1.373-2.83 3.295 0 1.921 1.18 3.294 2.83 3.294 1.28 0 2.1-.732 2.38-1.83h1.55c-.36 1.921-1.83 3.111-3.93 3.111-2.65 0-4.3-1.83-4.3-4.575ZM1119.49 751.19c0-2.746 1.74-4.576 4.3-4.576 2.2 0 3.57 1.19 3.94 3.203h-1.47c-.27-1.19-1.1-1.922-2.47-1.922-1.74 0-2.83 1.373-2.83 3.295 0 1.921 1.19 3.294 2.83 3.294 1.28 0 2.11-.732 2.38-1.83h1.56c-.37 1.921-1.83 3.111-3.94 3.111-2.56 0-4.3-1.83-4.3-4.575ZM1129.19 751.19c0-2.654 1.83-4.576 4.39-4.576 2.56 0 4.39 1.83 4.39 4.576 0 2.653-1.83 4.575-4.39 4.575-2.56 0-4.39-1.83-4.39-4.575Zm7.32 0c0-1.922-1.19-3.295-2.93-3.295-1.74 0-2.93 1.373-2.93 3.295 0 1.921 1.19 3.294 2.93 3.294 1.74 0 2.93-1.373 2.93-3.294ZM1145.92 746.797h1.47v8.876h-1.19l-.18-1.189c-.55.64-1.38 1.281-2.84 1.281-1.92 0-3.47-1.098-3.47-4.026v-4.942h1.46v4.85c0 1.83.82 2.837 2.28 2.837 1.65 0 2.57-1.19 2.57-3.203v-4.484h-.1ZM1157.36 750.732v4.941h-1.47v-4.849c0-1.831-.82-2.837-2.37-2.837-1.65 0-2.66 1.189-2.66 3.203v4.392h-1.46v-8.876h1.19l.18 1.189c.55-.64 1.47-1.281 2.93-1.281 2.1.092 3.66 1.098 3.66 4.118ZM1160.01 748.078h-1.55v-1.281h1.55v-2.47h1.46v2.47h2.29v1.281h-2.29v5.216c0 .732.28 1.007 1.01 1.007h1.37v1.281h-1.55c-1.74 0-2.29-.732-2.29-2.288v-5.216ZM1251.01 735.542v-12.169h1.55v10.797h5.58v1.372h-7.13ZM1258.78 731.059c0-2.654 1.83-4.575 4.39-4.575 2.56 0 4.39 1.83 4.39 4.575 0 2.653-1.83 4.575-4.39 4.575-2.56 0-4.39-1.83-4.39-4.575Zm7.32 0c0-1.922-1.19-3.294-2.93-3.294-1.74 0-2.93 1.372-2.93 3.294 0 1.921 1.19 3.294 2.93 3.294 1.74 0 2.93-1.373 2.93-3.294ZM1277.62 734.17v1.281h-.82c-1.19 0-1.56-.549-1.56-1.373-.55.824-1.46 1.464-2.93 1.464-1.92 0-3.29-1.006-3.29-2.562 0-1.738 1.19-2.745 3.57-2.745h2.56v-.64c0-1.19-.82-1.83-2.2-1.83-1.28 0-2.1.549-2.28 1.464h-1.47c.19-1.739 1.65-2.745 3.75-2.745 2.29 0 3.57 1.098 3.57 3.202v3.843c0 .458.18.549.55.549h.55v.092Zm-2.47-2.745h-2.74c-1.29 0-2.02.457-2.02 1.464 0 .915.73 1.464 1.92 1.464 1.74 0 2.84-1.007 2.84-2.471v-.457ZM1286.77 730.601v4.941h-1.47v-4.849c0-1.83-.82-2.837-2.38-2.837-1.64 0-2.65 1.19-2.65 3.203v4.392h-1.46v-8.876h1.19l.18 1.19c.55-.641 1.46-1.281 2.93-1.281 2.1.091 3.66 1.098 3.66 4.117ZM1293.71 723.373h4.67c2.47 0 4.02 1.464 4.02 3.751 0 2.288-1.55 3.752-4.02 3.752h-3.2v4.666h-1.56v-12.169h.09Zm1.47 1.372v4.667h3.02c1.55 0 2.65-.915 2.65-2.379s-1.01-2.379-2.56-2.379h-3.11v.091ZM1311.73 734.17v1.281h-.82c-1.19 0-1.56-.549-1.56-1.373-.55.824-1.46 1.464-2.92 1.464-1.92 0-3.3-1.006-3.3-2.562 0-1.738 1.19-2.745 3.57-2.745h2.56v-.64c0-1.19-.82-1.83-2.19-1.83-1.28 0-2.11.549-2.29 1.464h-1.46c.18-1.739 1.64-2.745 3.75-2.745 2.28 0 3.56 1.098 3.56 3.202v3.843c0 .458.19.549.55.549h.55v.092Zm-2.47-2.745h-2.74c-1.28 0-2.01.457-2.01 1.464 0 .915.73 1.464 1.92 1.464 1.73 0 2.83-1.007 2.83-2.471v-.457ZM1311.73 726.667h1.56l2.74 7.045 2.65-7.045h1.56l-4.12 10.34c-.55 1.464-.91 2.013-2.1 2.013h-1.74v-1.281h1.28c.82 0 .92-.183 1.28-1.007l.46-1.098-3.57-8.967ZM1334.59 730.418v5.125h-1.46v-5.033c0-1.739-.73-2.654-2.1-2.654-1.47 0-2.38 1.098-2.38 2.928v4.759h-1.37v-5.033c0-1.739-.82-2.654-2.1-2.654-1.47 0-2.38 1.19-2.38 3.02v4.667h-1.47v-8.876h1.19l.19 1.189c.45-.64 1.18-1.281 2.56-1.281 1.19 0 2.28.549 2.83 1.647.55-.915 1.46-1.647 3.11-1.647 1.92 0 3.38 1.007 3.38 3.843ZM1336.15 731.059c0-2.654 1.74-4.575 4.21-4.575 2.47 0 4.11 1.555 4.2 4.209v.64h-6.85v.092c.09 1.647 1.09 2.836 2.83 2.836 1.28 0 2.2-.64 2.56-1.83h1.46c-.36 1.739-1.82 3.111-3.84 3.111-2.83.092-4.57-1.738-4.57-4.483Zm6.86-.915c-.18-1.556-1.19-2.379-2.65-2.379-1.28 0-2.47.915-2.65 2.379h5.3ZM1354.26 730.601v4.941h-1.37v-4.849c0-1.83-.83-2.837-2.38-2.837-1.65 0-2.65 1.19-2.65 3.203v4.392h-1.47v-8.876h1.19l.18 1.19c.55-.641 1.47-1.281 2.93-1.281 2.01.091 3.57 1.098 3.57 4.117ZM1356.91 727.948h-1.55v-1.281h1.55v-2.471h1.46v2.471h2.29v1.281h-2.29v5.215c0 .732.28 1.007 1.01 1.007h1.37v1.281h-1.55c-1.74 0-2.29-.732-2.29-2.288v-5.215Z" fill="#F1F4FE"/><path d="M584.21 449.778h55.696c19.48 0 35.21 15.738 35.21 35.229v55.817c0 19.49-15.73 35.228-35.21 35.228H584.21c-19.48 0-35.21-15.83-35.21-35.228v-55.817c0-19.399 15.73-35.229 35.21-35.229ZM757.333 449.778h55.696c19.48 0 35.21 15.738 35.21 35.229v55.817c0 19.49-15.73 35.228-35.21 35.228h-55.696c-19.48 0-35.21-15.738-35.21-35.228v-55.817c0-19.399 15.73-35.229 35.21-35.229ZM992.007 358.823c14.543 0 26.433 11.804 26.433 26.445 0 14.549-11.8 26.444-26.433 26.444-14.542 0-26.431-11.804-26.431-26.444 0-14.641 11.798-26.445 26.431-26.445ZM1104.22 322.131h55.7c19.48 0 35.21 15.738 35.21 35.228v55.726c0 19.49-15.73 35.229-35.21 35.229h-55.7c-19.48 0-35.21-15.739-35.21-35.229v-55.726c0-19.49 15.73-35.228 35.21-35.228Z" fill="#1C2643"/><path d="M936.951 640.562h253.059" stroke="#F1F4FE" stroke-width="1.2" stroke-linecap="round" stroke-linejoin="round"/><path d="M992.007 614.209h.731c14.542 0 26.432 11.804 26.432 26.445 0 14.549-11.8 26.444-26.432 26.444h-.731c-14.542 0-26.431-11.804-26.431-26.444 0-14.641 11.798-26.445 26.431-26.445ZM1102.76 577.516h57.16c19.48 0 35.21 15.739 35.21 35.229v55.726c0 19.49-15.73 35.228-35.21 35.228h-57.25c-19.48 0-35.21-15.738-35.21-35.228v-55.726c.09-19.49 15.82-35.229 35.3-35.229ZM1277.25 577.516h56.52c19.48 0 35.21 15.739 35.21 35.229v55.726c0 19.49-15.73 35.228-35.21 35.228h-56.52c-19.48 0-35.21-15.738-35.21-35.228v-55.726c.09-19.49 15.82-35.229 35.21-35.229Z" fill="#1C2643"/><path d="M1102.3 376.026h59.63l-29.82-18.301-29.81 18.301ZM1111.45 376.026v22.967M1125.16 376.026v22.967M1138.97 376.026v22.967M1152.69 376.026v22.967M1104.59 398.993h54.96M1100.01 408.144h64.2" stroke="#F1F4FE" stroke-width="2.4" stroke-linecap="round" stroke-linejoin="round"/><path d="M907.685 596.274a2.196 2.196 0 1 0-.001-4.391 2.196 2.196 0 0 0 .001 4.391ZM952.406 642.758a2.196 2.196 0 1 0-.001-4.391 2.196 2.196 0 0 0 .001 4.391ZM907.502 430.654a2.195 2.195 0 0 0 2.194-2.196 2.196 2.196 0 1 0-2.194 2.196ZM1209.85 642.758c1.21 0 2.2-.983 2.2-2.196s-.99-2.196-2.2-2.196c-1.21 0-2.19.983-2.19 2.196s.98 2.196 2.19 2.196ZM1225.95 642.758c1.21 0 2.19-.983 2.19-2.196s-.98-2.196-2.19-2.196c-1.22 0-2.2.983-2.2 2.196s.98 2.196 2.2 2.196ZM1044.04 386.732c1.22 0 2.2-.983 2.2-2.196a2.195 2.195 0 1 0-4.39 0c0 1.213.98 2.196 2.19 2.196Z" fill="#F1F4FE"/><path d="M612.104 483.085v6.863M612.104 535.882v6.863M628.108 501.477c0-1.464-.275-3.019-.823-4.392-.549-1.373-1.464-2.654-2.47-3.752-1.097-1.098-2.286-1.921-3.749-2.47-1.464-.549-2.927-.915-4.39-.915h-10.335a11.49 11.49 0 0 0-8.139 3.385c-2.195 2.105-3.384 5.033-3.384 8.144 0 3.02 1.189 5.948 3.384 8.144 2.103 2.196 5.03 3.386 8.139 3.386h12.621c3.018 0 5.945 1.189 8.14 3.385 2.103 2.196 3.383 5.033 3.383 8.144 0 3.111-1.188 5.948-3.383 8.144-2.195 2.104-5.03 3.385-8.14 3.385h-13.718a11.488 11.488 0 0 1-8.139-3.385c-2.195-2.196-3.384-5.033-3.384-8.144M810.377 496.902h-50.391a2.265 2.265 0 0 0-2.287 2.288v36.692a2.265 2.265 0 0 0 2.287 2.288h50.391a2.265 2.265 0 0 0 2.286-2.288V499.19a2.265 2.265 0 0 0-2.286-2.288Z" stroke="#F1F4FE" stroke-width="2.4" stroke-linecap="round" stroke-linejoin="round"/><path d="M796.659 496.902v-4.575c0-1.19-.458-2.379-1.372-3.203-.823-.823-2.012-1.372-3.201-1.372h-13.718c-1.189 0-2.378.457-3.201 1.372-.823.824-1.372 2.013-1.372 3.203v4.575M812.663 512.458a54.707 54.707 0 0 1-27.528 7.411c-9.694 0-19.114-2.562-27.528-7.411M781.752 510.627h6.859M1273.78 665.817h64.2M1310.45 665.817v-50.418c0-.641-.27-1.19-.64-1.647-.46-.458-1.01-.641-1.65-.641h-27.52c-.64 0-1.19.275-1.65.641-.46.366-.64 1.006-.64 1.647v50.418" stroke="#F1F4FE" stroke-width="2.4" stroke-linecap="round" stroke-linejoin="round"/><path d="M1333.41 665.817v-32.118c0-.64-.28-1.189-.64-1.647-.37-.457-1.01-.64-1.65-.64h-20.67M1287.59 624.549h9.14M1292.16 642.941h9.15M1287.59 654.379h9.14M1319.6 654.379h4.57M1319.6 642.941h4.57" stroke="#F1F4FE" stroke-width="2.4" stroke-linecap="round" stroke-linejoin="round"/><path d="M1005.63 379.412h-23.776a.917.917 0 0 0-.915.915v12.902c0 .549.366.915.915.915h23.776a.92.92 0 0 0 .92-.915v-12.902c0-.549-.37-.915-.92-.915Z" fill="#1C2643" stroke="#F1F4FE" stroke-width="1.604" stroke-linecap="round" stroke-linejoin="round"/><path d="M1002.8 376.118h-23.78a.917.917 0 0 0-.915.915v12.81c0 .549.366.915.915.915h23.78c.55 0 .91-.457.91-.915v-12.81c0-.549-.36-.915-.91-.915Z" fill="#1C2643" stroke="#F1F4FE" stroke-width="1.604" stroke-linecap="round" stroke-linejoin="round"/><path d="M990.909 387.007c2.104 0 3.842-1.739 3.842-3.844 0-2.104-1.738-3.843-3.842-3.843-2.103 0-3.841 1.739-3.841 3.843 0 2.105 1.738 3.844 3.841 3.844Z" stroke="#F1F4FE" stroke-width="1.604" stroke-linecap="round" stroke-linejoin="round"/><path d="M1003.62 633.974h-22.496c-.457 0-.823.366-.823.915v12.17c0 .457.366.915.823.915h22.496c.46 0 .82-.366.82-.915v-12.17c0-.458-.36-.915-.82-.915Z" fill="#1C2643" stroke="#F1F4FE" stroke-width="1.604" stroke-linecap="round" stroke-linejoin="round"/><path d="M992.371 644.314a3.67 3.67 0 0 0 3.658-3.66 3.67 3.67 0 0 0-3.658-3.661 3.67 3.67 0 0 0-3.658 3.661 3.67 3.67 0 0 0 3.658 3.66Z" stroke="#F1F4FE" stroke-width="1.604" stroke-linecap="round" stroke-linejoin="round"/><path d="M1185.71 348.758c7.13 0 12.98-5.765 12.98-12.993 0-7.138-5.76-12.994-12.98-12.994-7.23 0-12.99 5.765-12.99 12.994.09 7.228 5.85 12.993 12.99 12.993Z" fill="#5377EC"/><path d="m1191.56 332.562-7.77 7.778-3.94-3.935" stroke="#fff" stroke-width="2.836" stroke-linecap="round" stroke-linejoin="round"/><path d="M1359.38 603.32c7.04 0 12.71-5.673 12.71-12.719 0-7.045-5.67-12.719-12.71-12.719-7.04 0-12.71 5.674-12.71 12.719 0 7.046 5.67 12.719 12.71 12.719Z" fill="#5377EC"/><path d="m1365.05 587.399-7.59 7.594-3.84-3.843" stroke="#fff" stroke-width="2.777" stroke-linecap="round" stroke-linejoin="round"/><path d="M1143.27 648.797v19.216h10.79v-22.235h-7.77c-.82 0-1.56.274-2.1.915-.64.549-.92 1.281-.92 2.104ZM1118.58 631.869v-17.843h-10.79v20.863h7.77c.82 0 1.56-.275 2.1-.915.64-.549.92-1.281.92-2.105ZM1143.27 614.026v19.856c0 .549-.18 1.007-.64 1.464-.36.366-.91.549-1.46.549h-19.67c-.82 0-1.55.275-2.1.915-.55.549-.91 1.373-.91 2.105v3.843c0 .549-.19 1.007-.64 1.464-.37.366-.92.549-1.38.549h-7.77c-.27 0-.55.092-.73.275-.18.183-.27.457-.27.732v22.235h10.79v-21.229c0-.549.18-1.006.55-1.464.36-.366.91-.549 1.46-.549h19.66c.82 0 1.56-.274 2.11-.915.54-.549.91-1.372.91-2.104v-3.844c0-.549.18-1.006.55-1.464.36-.366.91-.549 1.46-.549h7.78c.27 0 .54-.091.73-.274.18-.183.27-.458.27-.732v-20.863h-10.7Z" fill="#F1F4FE"/><path d="m991.731 332.654 7.683 7.686-7.683 7.595-7.59-7.595 7.59-7.686Z" fill="#F4F4FB"/><path d="M906.313 302h170.017c5.94 0 10.7 4.85 10.7 10.706v16.928c0 5.948-4.85 10.706-10.7 10.706H906.313c-5.944 0-10.7-4.85-10.7-10.706v-16.928c0-5.856 4.847-10.706 10.7-10.706Z" fill="#F4F4FB"/><path d="M913.812 316.458h3.659c1.92 0 3.201 1.189 3.201 2.928 0 1.738-1.281 2.928-3.201 2.928h-2.47v3.66h-1.189v-9.516Zm1.189 1.098v3.66h2.378c1.281 0 2.104-.732 2.104-1.83s-.823-1.83-2.104-1.83h-2.378ZM925.518 319.02v1.098h-.548c-1.464 0-1.83 1.189-1.83 2.379v3.568h-1.097v-6.954h1.006l.183 1.098c.366-.549.823-1.098 2.103-1.098h.183v-.091ZM926.434 317.098c0-.458.274-.732.731-.732.457 0 .732.274.732.732 0 .458-.275.732-.732.732a.72.72 0 0 1-.731-.732Zm.182 1.922h1.098v6.954h-1.098v-6.954ZM939.877 322.039v4.026h-1.097v-3.934c0-1.373-.641-2.105-1.647-2.105-1.189 0-1.92.915-1.92 2.288v3.751h-1.098v-3.934c0-1.373-.64-2.105-1.646-2.105-1.189 0-1.829.915-1.829 2.379v3.66h-1.189v-6.954h1.006l.183.915c.366-.549 1.006-1.006 2.012-1.006s1.829.457 2.195 1.372c.457-.732 1.189-1.372 2.469-1.372 1.372-.092 2.561.823 2.561 3.019ZM948.017 325.059v1.006h-.64c-.914 0-1.28-.366-1.28-1.098-.457.641-1.098 1.19-2.378 1.19-1.555 0-2.561-.732-2.561-2.013 0-1.373 1.006-2.196 2.835-2.196h2.104v-.458c0-.915-.64-1.464-1.738-1.464-1.006 0-1.646.458-1.738 1.19h-1.097c.183-1.373 1.28-2.196 2.927-2.196 1.829 0 2.835.915 2.835 2.562v3.019c0 .366.091.458.457.458h.274Zm-1.92-2.196h-2.195c-1.006 0-1.555.366-1.555 1.189 0 .732.549 1.19 1.555 1.19 1.372 0 2.195-.824 2.195-2.013v-.366ZM952.589 319.02v1.098h-.549c-1.463 0-1.829 1.189-1.829 2.379v3.568h-1.098v-6.954h1.006l.183 1.098c.366-.549.823-1.098 2.104-1.098h.183v-.091ZM953.047 319.02h1.189l2.195 5.581 2.103-5.581h1.189l-3.201 8.143c-.457 1.098-.731 1.556-1.646 1.556h-1.372v-1.007h1.006c.64 0 .732-.183 1.006-.823l.366-.824-2.835-7.045ZM964.479 316.458h3.658c1.92 0 3.201 1.189 3.201 2.928 0 1.738-1.281 2.928-3.201 2.928h-2.47v3.66h-1.188v-9.516Zm1.188 1.098v3.66h2.378c1.281 0 2.104-.732 2.104-1.83s-.823-1.83-2.104-1.83h-2.378ZM978.746 325.059v1.006h-.64c-.915 0-1.281-.366-1.281-1.098-.457.641-1.097 1.19-2.378 1.19-1.554 0-2.56-.732-2.56-2.013 0-1.373 1.006-2.196 2.835-2.196h2.103v-.458c0-.915-.64-1.464-1.737-1.464-1.006 0-1.647.458-1.738 1.19h-1.097c.182-1.373 1.28-2.196 2.926-2.196 1.829 0 2.835.915 2.835 2.562v3.019c0 .366.092.458.457.458h.275Zm-1.921-2.196h-2.195c-1.006 0-1.554.366-1.554 1.189 0 .732.548 1.19 1.554 1.19 1.372 0 2.195-.824 2.195-2.013v-.366ZM978.836 319.02h1.189l2.195 5.581 2.103-5.581h1.189l-3.201 8.143c-.457 1.098-.731 1.556-1.646 1.556h-1.372v-1.007h1.006c.64 0 .732-.183 1.006-.823l.366-.824-2.835-7.045ZM989.995 319.02v1.098h-.549c-1.463 0-1.829 1.189-1.829 2.379v3.568h-1.097v-6.954h1.006l.182 1.098c.366-.549.824-1.098 2.104-1.098h.183v-.091ZM990.451 322.588c0-2.104 1.463-3.568 3.475-3.568s3.476 1.464 3.476 3.568c0 2.105-1.464 3.569-3.476 3.569s-3.475-1.464-3.475-3.569Zm5.762 0c0-1.464-.915-2.562-2.287-2.562-1.371 0-2.286 1.098-2.286 2.562 0 1.464.915 2.562 2.286 2.562 1.372 0 2.287-1.098 2.287-2.562ZM998.773 316.458h1.098v9.607h-1.098v-9.607ZM1001.61 316.458h1.1v9.607h-1.1v-9.607ZM1007.46 326.065l3.66-9.607h1.37l3.66 9.607h-1.28l-1.01-2.562h-4.2l-1.01 2.562h-1.19Zm2.66-3.66h3.47l-1.74-4.666-1.73 4.666ZM1017.25 316.458h1.1v9.607h-1.1v-9.607ZM1020.08 316.458h1.1v9.607h-1.1v-9.607ZM1022.64 322.588c0-2.104 1.47-3.568 3.48-3.568s3.47 1.464 3.47 3.568c0 2.105-1.46 3.569-3.47 3.569-2.01 0-3.48-1.464-3.48-3.569Zm5.76 0c0-1.464-.91-2.562-2.28-2.562-1.37 0-2.29 1.098-2.29 2.562 0 1.464.92 2.562 2.29 2.562s2.28-1.098 2.28-2.562ZM1030.78 322.588c0-2.104 1.38-3.568 3.39-3.568 1.73 0 2.83.915 3.11 2.47h-1.19c-.19-.915-.92-1.464-1.92-1.464-1.37 0-2.29 1.098-2.29 2.562 0 1.464.92 2.562 2.29 2.562 1 0 1.64-.549 1.92-1.464h1.19c-.28 1.556-1.38 2.471-3.11 2.471-2.11 0-3.39-1.373-3.39-3.569ZM1045.14 325.059v1.006h-.64c-.91 0-1.28-.366-1.28-1.098-.46.641-1.1 1.19-2.38 1.19-1.55 0-2.56-.732-2.56-2.013 0-1.373 1.01-2.196 2.84-2.196h2.1v-.458c0-.915-.64-1.464-1.74-1.464-1 0-1.64.458-1.74 1.19h-1.09c.18-1.373 1.28-2.196 2.92-2.196 1.83 0 2.84.915 2.84 2.562v3.019c0 .366.09.458.46.458h.27Zm-1.92-2.196h-2.2c-1 0-1.55.366-1.55 1.189 0 .732.55 1.19 1.55 1.19 1.38 0 2.2-.824 2.2-2.013v-.366ZM1046.7 320.118h-1.28v-1.007h1.28v-1.922h1.09v1.922h1.83v1.007h-1.83v4.117c0 .549.19.824.83.824h1.09v1.006h-1.18c-1.38 0-1.83-.549-1.83-1.83v-4.117ZM1050.72 317.098c0-.458.28-.732.73-.732.46 0 .73.274.73.732 0 .458-.27.732-.73.732-.45 0-.73-.274-.73-.732Zm.09 1.922h1.1v6.954h-1.1v-6.954ZM1053.37 322.588c0-2.104 1.47-3.568 3.48-3.568s3.47 1.464 3.47 3.568c0 2.105-1.46 3.569-3.47 3.569-2.01 0-3.48-1.464-3.48-3.569Zm5.86 0c0-1.464-.92-2.562-2.29-2.562s-2.29 1.098-2.29 2.562c0 1.464.92 2.562 2.29 2.562 1.28 0 2.29-1.098 2.29-2.562ZM1068 322.131v3.934h-1.09v-3.843c0-1.464-.64-2.196-1.92-2.196-1.28 0-2.11 1.007-2.11 2.562v3.477h-1.09v-6.954h1l.18.915c.46-.549 1.1-1.006 2.29-1.006 1.56-.092 2.74.823 2.74 3.111Z" fill="#030E2E"/><path d="M1007.74 421.686c6.06 0 10.97-4.916 10.97-10.98s-4.91-10.981-10.97-10.981c-6.06 0-10.978 4.917-10.978 10.981s4.918 10.98 10.978 10.98Z" fill="#625C3C"/><path d="M1007.74 416.196c3.03 0 5.48-2.458 5.48-5.49s-2.45-5.49-5.48-5.49a5.491 5.491 0 0 0-5.49 5.49c0 3.032 2.46 5.49 5.49 5.49Z" fill="#F0E94C"/><path opacity=".3" d="M242.571 203.591h-1.682V212h1.682v-8.409Zm11.421 0h-1.682v5.526l-4.541-5.526h-1.465V212h1.681v-5.526l4.541 5.526h1.466v-8.409Zm9.164 0h-5.429V212h1.682v-3.364h3.747v-1.681h-3.747v-1.682h3.747v-1.682Zm2.851 4.205c0 .6.108 1.153.324 1.669.204.517.504.961.877 1.334.372.372.817.672 1.333.877a4.271 4.271 0 0 0 1.67.324c.601 0 1.153-.108 1.67-.324a3.922 3.922 0 0 0 1.333-.877c.372-.373.673-.817.889-1.334a4.488 4.488 0 0 0 .312-1.669 4.49 4.49 0 0 0-.312-1.67 4.124 4.124 0 0 0-.889-1.334 4.117 4.117 0 0 0-1.333-.888 4.474 4.474 0 0 0-1.67-.313c-.601 0-1.153.108-1.67.313a4.117 4.117 0 0 0-1.333.888 3.897 3.897 0 0 0-.877 1.334 4.268 4.268 0 0 0-.324 1.67Zm6.727 0c0 .372-.061.708-.181 1.009-.132.312-.3.576-.528.805a2.323 2.323 0 0 1-.793.516 2.58 2.58 0 0 1-1.021.192 2.48 2.48 0 0 1-1.009-.192 2.262 2.262 0 0 1-.805-.516 2.287 2.287 0 0 1-.517-.805 2.484 2.484 0 0 1-.192-1.009c0-.373.06-.709.192-1.021a2.33 2.33 0 0 1 .517-.793c.228-.229.493-.397.805-.529.3-.12.637-.18 1.009-.18.372 0 .709.06 1.021.18.3.132.565.3.793.529.228.228.396.492.528.793.12.312.181.648.181 1.021Zm4.901 1.645c.217.517.505.949.877 1.322.385.372.829.672 1.358.877a4.762 4.762 0 0 0 1.729.312c.553 0 1.07-.096 1.55-.276a3.571 3.571 0 0 0 1.273-.817c.361-.361.637-.805.853-1.334.204-.528.313-1.141.313-1.825v-.553h-4.301v1.682h2.367c-.048.24-.145.444-.289.636-.144.181-.3.337-.492.457s-.397.204-.625.264c-.228.06-.456.096-.685.096-.384 0-.732-.06-1.045-.192a2.26 2.26 0 0 1-1.321-1.309 2.88 2.88 0 0 1-.192-1.033c0-.373.072-.709.192-1.021.12-.313.3-.577.516-.805.217-.217.481-.385.793-.517.313-.12.649-.18 1.009-.18.457 0 .889.084 1.286.252.396.18.756.445 1.081.817l.817-1.562a4.02 4.02 0 0 0-1.43-.901 4.883 4.883 0 0 0-1.67-.288c-.636 0-1.213.096-1.741.313a4.04 4.04 0 0 0-1.358.888c-.372.373-.66.817-.865 1.334a4.462 4.462 0 0 0-.312 1.682c0 .6.108 1.165.312 1.681Zm12.923 2.547v-2.811h1.045l1.802 2.811h2.042l-1.982-2.991c.264-.096.504-.228.72-.397.217-.168.409-.36.565-.588.156-.228.276-.481.372-.757a2.98 2.98 0 0 0 .121-.877c0-.384-.061-.757-.205-1.093a2.986 2.986 0 0 0-.576-.889 2.832 2.832 0 0 0-.889-.589 2.898 2.898 0 0 0-1.117-.216h-3.58v8.397h1.682Zm2.714-4.817c-.192.216-.468.324-.816.324h-1.898v-2.234h1.898c.348 0 .624.12.816.336.205.217.301.481.301.781 0 .312-.096.565-.301.793Zm7.76 1.826 1.43-3.099 1.429 3.099h-2.859Zm3.64 1.682.613 1.321h1.849l-3.892-8.409h-1.561L297.789 212h1.85l.612-1.321h4.421Zm8.729-7.088h-3.292V212h1.682v-2.535h1.61c.432 0 .829-.072 1.189-.228.361-.144.673-.348.937-.613.252-.252.457-.564.613-.924.144-.349.216-.745.216-1.166 0-.42-.072-.817-.216-1.177a3.169 3.169 0 0 0-.613-.937 3.175 3.175 0 0 0-.937-.613 3.176 3.176 0 0 0-1.189-.216Zm1.273 2.943c0 .361-.108.661-.324.889-.228.24-.541.361-.949.361h-1.61v-2.511h1.61c.408 0 .721.12.949.348.216.241.324.541.324.913Zm11.915-2.943h-1.682v3.364h-3.688v-3.364h-1.682V212h1.682v-3.364h3.688V212h1.682v-8.409Zm5.454 0h-1.682V212h1.682v-8.409Zm3.673 5.874c.216.517.504.961.889 1.346.372.384.816.672 1.333.889a4.262 4.262 0 0 0 1.67.312c.636 0 1.213-.096 1.742-.3a4.556 4.556 0 0 0 1.429-.889l-.829-1.562c-.661.721-1.441 1.069-2.366 1.069-.361 0-.697-.06-.997-.18a2.727 2.727 0 0 1-.793-.516 2.562 2.562 0 0 1-.529-.793 2.831 2.831 0 0 1-.18-1.033c0-.361.06-.709.18-1.021a2.29 2.29 0 0 1 .529-.793c.228-.228.492-.397.793-.517a2.576 2.576 0 0 1 1.021-.192c.456 0 .865.084 1.225.264.36.168.697.409 1.009.733l.805-1.538a4.225 4.225 0 0 0-1.382-.852 4.627 4.627 0 0 0-1.645-.289c-.601 0-1.153.108-1.67.325a4.052 4.052 0 0 0-1.345.877 4.093 4.093 0 0 0-.889 1.333 4.363 4.363 0 0 0-.313 1.658c0 .6.108 1.165.313 1.669Zm9.928-3.459c0 .396.072.745.204 1.021.132.276.312.516.529.709.216.192.456.348.732.468.265.132.529.228.793.312.204.06.409.12.589.181.18.06.336.12.468.192.133.084.241.168.325.276.072.108.108.24.108.396a.651.651 0 0 1-.264.553c-.181.132-.433.204-.757.204-.709 0-1.153-.36-1.322-1.093l-1.501.649c.084.372.216.697.396.961.18.276.397.492.649.66.252.181.528.301.829.385.3.084.612.12.937.12.384 0 .745-.06 1.081-.168a2.54 2.54 0 0 0 .853-.469c.24-.204.432-.456.576-.756a2.58 2.58 0 0 0 .205-1.046c0-.396-.06-.72-.181-.997a2.276 2.276 0 0 0-.492-.696 3.306 3.306 0 0 0-.709-.469 8.4 8.4 0 0 0-.829-.324c-.228-.072-.432-.144-.612-.204a2.039 2.039 0 0 1-.493-.217.852.852 0 0 1-.312-.264.534.534 0 0 1-.12-.372c0-.204.084-.385.252-.529.168-.144.42-.216.769-.216.336 0 .612.084.829.24.216.156.372.433.456.817l1.526-.613c-.157-.696-.481-1.225-.973-1.585-.505-.361-1.118-.541-1.826-.541-.385 0-.745.048-1.069.156a2.53 2.53 0 0 0-.865.481 1.977 1.977 0 0 0-.577.757c-.132.3-.204.636-.204 1.021Z" fill="#fff"/></svg>