<svg width="248" height="152" viewBox="0 0 248 152" fill="none" xmlns="http://www.w3.org/2000/svg">
<g clip-path="url(#clip0_2024_7090)">
<path fill-rule="evenodd" clip-rule="evenodd" d="M52.5662 56.3095L40.6519 66.3175C39.8302 67.0037 38.828 67.4385 37.7655 67.5699C36.703 67.7013 35.6252 67.5236 34.661 67.0582C33.6969 66.5927 32.8874 65.8592 32.3295 64.9455C31.7715 64.0318 31.4887 62.9767 31.515 61.9064L31.8963 46.3506C31.8961 46.2905 31.9115 46.2313 31.9409 46.1789C31.9703 46.1264 32.0127 46.0824 32.064 46.0512C32.1153 46.0199 32.1738 46.0023 32.2339 46.0002C32.294 45.9981 32.3536 46.0116 32.407 46.0392L35.4643 47.5119C35.6197 47.5858 35.7501 47.7038 35.839 47.8513C35.9279 47.9987 35.9716 48.1689 35.9645 48.3409L35.2649 64.6664C35.2593 64.7704 35.2846 64.8737 35.3377 64.9634C35.3907 65.0531 35.4691 65.1251 35.563 65.1703C35.6568 65.2156 35.7619 65.2321 35.8651 65.2177C35.9683 65.2033 36.065 65.1588 36.1429 65.0896L48.4735 54.3751C48.6031 54.262 48.763 54.1895 48.9333 54.1665C49.1037 54.1435 49.2771 54.171 49.432 54.2457L52.4928 55.7183C52.5471 55.7431 52.5942 55.7815 52.6295 55.8296C52.6649 55.8778 52.6873 55.9341 52.6947 55.9934C52.702 56.0527 52.6941 56.1129 52.6716 56.1682C52.6491 56.2235 52.6129 56.2722 52.5662 56.3095ZM28.7711 61.9111L28.3758 46.3552C28.3754 46.2953 28.3596 46.2367 28.3299 46.1847C28.3003 46.1327 28.2578 46.0892 28.2066 46.0584C28.1554 46.0275 28.0971 46.0102 28.0373 46.0083C27.9775 46.0064 27.9182 46.0198 27.8651 46.0473L24.8078 47.52C24.6536 47.5952 24.5245 47.7136 24.4363 47.8608C24.3481 48.0079 24.3046 48.1776 24.3111 48.3491L25.0107 64.6745C25.016 64.7788 24.9905 64.8825 24.9372 64.9724C24.884 65.0623 24.8054 65.1345 24.7114 65.18C24.6173 65.2255 24.512 65.2424 24.4085 65.2284C24.3049 65.2143 24.2078 65.1701 24.1292 65.1013L11.7951 54.3867C11.6655 54.2737 11.5056 54.2011 11.3352 54.1781C11.1649 54.1551 10.9915 54.1827 10.8366 54.2573L7.77578 55.73C7.72146 55.7548 7.67439 55.7931 7.63905 55.8413C7.60372 55.8894 7.58134 55.9458 7.57398 56.0051C7.56661 56.0643 7.57452 56.1245 7.59699 56.1798C7.61947 56.2352 7.65573 56.2838 7.70234 56.3211L19.6272 66.3221C20.4492 67.009 21.4519 67.4444 22.515 67.5762C23.5781 67.7079 24.6567 67.5305 25.6215 67.065C26.5864 66.5996 27.3966 65.8659 27.9552 64.9518C28.5138 64.0377 28.7971 62.982 28.7711 61.9111ZM17.9207 68.4594L5.51305 59.0707C5.46629 59.0336 5.41083 59.0091 5.35194 58.9996C5.29306 58.99 5.2327 58.9956 5.17661 59.016C5.12053 59.0363 5.07059 59.0706 5.03152 59.1157C4.99244 59.1608 4.96553 59.2151 4.95337 59.2735L4.20128 62.5827C4.16305 62.7514 4.17592 62.9276 4.23822 63.089C4.30052 63.2503 4.40942 63.3895 4.55109 63.4887L17.7492 73.1223C17.8326 73.1844 17.896 73.2695 17.9318 73.367C17.9676 73.4646 17.9743 73.5705 17.9509 73.6718C17.9275 73.7731 17.8752 73.8653 17.8002 73.9374C17.7253 74.0094 17.631 74.058 17.5289 74.0773L1.46232 77.0402C1.29299 77.0719 1.13661 77.1523 1.01234 77.2716C0.888065 77.3909 0.801301 77.5439 0.762709 77.7118L0.0106188 81.0209C-0.0040058 81.0789 -0.00351313 81.1397 0.0120279 81.1974C0.027569 81.2552 0.0576429 81.308 0.0993939 81.3508C0.141145 81.3936 0.193178 81.425 0.250512 81.4419C0.307846 81.4589 0.368586 81.4609 0.42691 81.4477L15.6749 78.3589C16.725 78.1449 17.691 77.6325 18.4571 76.8832C19.2231 76.1338 19.7567 75.1793 19.9938 74.1342C20.2309 73.0891 20.1614 71.9978 19.7937 70.9913C19.426 69.9847 18.7756 69.1056 17.9207 68.4594ZM1.1973 84.8697L16.2774 81.0218C17.317 80.7543 18.4117 80.7929 19.4298 81.1329C20.4479 81.473 21.3461 82.1001 22.0162 82.9387C22.6862 83.7773 23.0996 84.7917 23.2067 85.8597C23.3137 86.9278 23.1097 88.0041 22.6194 88.9589L15.4659 102.811C15.4399 102.865 15.4005 102.912 15.3513 102.946C15.3022 102.981 15.245 103.002 15.1853 103.008C15.1255 103.014 15.0652 103.005 15.0102 102.98C14.9552 102.956 14.9073 102.919 14.8712 102.871L12.7724 100.216C12.6646 100.081 12.5989 99.9178 12.5833 99.7461C12.5678 99.5744 12.6031 99.402 12.6849 99.2502L20.3806 84.8417C20.4303 84.7501 20.452 84.6458 20.4429 84.5419C20.4338 84.4381 20.3944 84.3391 20.3296 84.2575C20.2647 84.1758 20.1772 84.1151 20.0781 84.0827C19.979 84.0504 19.8725 84.048 19.772 84.0757L4.03072 88.3887C3.86424 88.4346 3.68799 88.4305 3.52381 88.377C3.35964 88.3235 3.21478 88.223 3.10722 88.0879L1.00839 85.4364C0.969678 85.3906 0.943407 85.3356 0.932085 85.2767C0.920763 85.2178 0.924773 85.1569 0.943742 85.1C0.962711 85.0431 0.996015 84.992 1.04042 84.9517C1.08482 84.9114 1.13884 84.8831 1.1973 84.8697ZM25.0673 90.1396L18.6764 104.324C18.6508 104.378 18.6393 104.437 18.6431 104.497C18.6469 104.556 18.6658 104.614 18.698 104.664C18.7302 104.714 18.7747 104.755 18.8273 104.783C18.8798 104.811 18.9387 104.825 18.9982 104.824H22.3913C22.5637 104.824 22.7323 104.774 22.8765 104.68C23.0206 104.585 23.1341 104.451 23.2029 104.293L29.6568 89.2826C29.698 89.1873 29.7661 89.1063 29.8528 89.0493C29.9395 88.9924 30.041 88.962 30.1448 88.962C30.2485 88.962 30.35 88.9924 30.4367 89.0493C30.5234 89.1063 30.5916 89.1873 30.6328 89.2826L37.1007 104.268C37.1677 104.427 37.2803 104.562 37.4241 104.657C37.5679 104.751 37.7365 104.801 37.9087 104.8H41.3018C41.3617 104.802 41.4209 104.788 41.474 104.76C41.527 104.732 41.572 104.691 41.6046 104.641C41.6373 104.591 41.6565 104.533 41.6604 104.473C41.6644 104.414 41.6529 104.354 41.6271 104.3L35.2117 90.1361C34.7695 89.1614 34.0559 88.3349 33.1561 87.7553C32.2564 87.1757 31.2087 86.8676 30.1384 86.868C29.0682 86.8684 28.0206 87.1771 27.1213 87.7573C26.222 88.3376 25.5089 89.1646 25.0673 90.1396ZM44.7846 102.794L37.6801 88.9519C37.1882 87.9992 36.9818 86.9247 37.0857 85.8576C37.1895 84.7904 37.5992 83.7759 38.2656 82.936C38.9319 82.096 39.8266 81.4662 40.8422 81.1223C41.8577 80.7784 42.9509 80.735 43.9906 80.9973L59.0707 84.8451C59.1291 84.8586 59.1832 84.8868 59.2276 84.9271C59.272 84.9675 59.3053 85.0186 59.3242 85.0755C59.3432 85.1324 59.3472 85.1932 59.3359 85.2521C59.3246 85.311 59.2983 85.366 59.2596 85.4118L57.1607 88.0668C57.0523 88.2009 56.9074 88.3006 56.7435 88.354C56.5796 88.4074 56.4038 88.4121 56.2373 88.3677L40.475 84.0651C40.3745 84.0374 40.2681 84.0398 40.1689 84.0722C40.0698 84.1045 39.9823 84.1653 39.9174 84.2469C39.8526 84.3286 39.8132 84.4275 39.8041 84.5313C39.795 84.6352 39.8167 84.7395 39.8664 84.8311L47.5621 99.2361C47.6439 99.3879 47.6792 99.5604 47.6637 99.732C47.6481 99.9037 47.5824 100.067 47.4747 100.202L45.3758 102.853C45.3395 102.9 45.2918 102.937 45.2372 102.961C45.1826 102.984 45.1228 102.994 45.0637 102.988C45.0045 102.982 44.9478 102.961 44.899 102.927C44.8502 102.893 44.8108 102.847 44.7846 102.794ZM44.6156 78.3481L59.8707 81.4264C59.929 81.4396 59.9897 81.4376 60.0471 81.4206C60.1044 81.4037 60.1564 81.3723 60.1982 81.3295C60.2399 81.2867 60.27 81.2339 60.2855 81.1761C60.3011 81.1184 60.3016 81.0576 60.2869 80.9996L59.5278 77.6905C59.4897 77.5224 59.403 77.3692 59.2787 77.2498C59.1543 77.1304 58.9977 77.0501 58.8282 77.0188L42.7581 74.0665C42.6563 74.0467 42.5624 73.9977 42.4879 73.9254C42.4134 73.8532 42.3615 73.7609 42.3385 73.6597C42.3155 73.5585 42.3225 73.4528 42.3585 73.3555C42.3945 73.2582 42.458 73.1734 42.5413 73.1115L55.7325 63.4709C55.8731 63.3707 55.9812 63.2315 56.0434 63.0704C56.1056 62.9093 56.1191 62.7336 56.0823 62.5649L55.3267 59.2523C55.3145 59.1938 55.2876 59.1395 55.2485 59.0944C55.2095 59.0493 55.1595 59.015 55.1034 58.9947C55.0474 58.9743 54.987 58.9687 54.9281 58.9782C54.8692 58.9878 54.8138 59.0123 54.767 59.0493L42.3629 68.4486C41.5079 69.0952 40.8577 69.9749 40.4904 70.982C40.1231 71.989 40.0542 73.0807 40.292 74.1259C40.5299 75.1712 41.0644 76.1256 41.8313 76.8745C42.5983 77.6234 43.565 78.1351 44.6156 78.3481ZM76.1401 56.7764H105.73V61.1502H93.3114V95.0614H88.5528V61.1502H76.1371L76.1401 56.7764ZM129.471 95.0649V90.9623H128.072C126.831 90.9623 126.211 90.2878 126.211 88.9388V76.9051C126.217 73.6607 125.245 71.1725 123.295 69.4405C121.346 67.7085 118.584 66.8425 115.012 66.8425C111.664 66.8425 108.943 67.6084 106.847 69.1402C104.752 70.672 103.54 72.8044 103.211 75.5375H107.696C107.836 74.8409 108.115 74.1796 108.516 73.5926C108.916 73.0056 109.431 72.5049 110.028 72.1202C111.286 71.2629 112.882 70.8343 114.816 70.8343C117.001 70.8382 118.705 71.3494 119.928 72.368C121.15 73.3866 121.762 74.8086 121.762 76.6339V78.5467H113.557C109.912 78.5448 107.132 79.2922 105.217 80.789C103.302 82.2858 102.345 84.4377 102.345 87.2446C102.347 89.76 103.286 91.7467 105.162 93.2046C107.038 94.6626 109.526 95.3915 112.626 95.3915C116.71 95.3935 119.828 93.8442 121.98 90.7436C122.013 92.1666 122.414 93.2425 123.182 93.9715C123.95 94.7005 125.226 95.0649 127.01 95.0649H129.471ZM113.119 82.3198H121.762V83.7019C121.76 86.0715 120.975 87.9765 119.409 89.417C117.842 90.8574 115.691 91.5776 112.956 91.5776C111.097 91.5795 109.62 91.1606 108.524 90.3209C108.001 89.9391 107.579 89.4361 107.293 88.855C107.008 88.274 106.868 87.6323 106.885 86.9851C106.887 83.8749 108.965 82.3198 113.119 82.3198ZM131.802 56.7764H136.286V82.1442L150.463 67.1685H155.822L145.104 78.5985L156.589 95.0614H151.163L141.864 81.8147L136.286 87.6668V95.0497H131.802V56.7764ZM162.016 68.6211C160.014 69.808 158.395 71.5446 157.35 73.6247C156.239 75.7824 155.684 78.2803 155.686 81.1184C155.635 83.7107 156.227 86.2751 157.409 88.5829C158.501 90.6936 160.183 92.4419 162.249 93.6157C164.327 94.7995 166.752 95.3914 169.524 95.3914C172.697 95.3934 175.376 94.4914 177.563 92.6855C179.723 90.9276 181.178 88.4524 181.666 85.7108H177.117C176.709 87.3978 175.71 88.8825 174.3 89.8951C172.897 90.8981 171.192 91.3996 169.186 91.3996C166.597 91.3996 164.5 90.5793 162.896 88.9387C161.293 87.298 160.454 85.1102 160.38 82.3751V81.9931H182.048C182.122 81.1184 182.158 80.4798 182.158 80.0774C182.083 77.3774 181.481 75.0262 180.354 73.024C179.276 71.0727 177.656 69.4762 175.688 68.4287C173.596 67.3425 171.266 66.7972 168.909 66.8424C166.492 66.7969 164.109 67.4119 162.016 68.6211ZM174.854 72.7499C176.404 74.064 177.287 75.9049 177.505 78.2725H160.66C160.737 77.2344 161.018 76.2217 161.488 75.2925C161.957 74.3633 162.605 73.5359 163.395 72.8578C164.933 71.4982 166.921 70.7583 168.973 70.7818C171.345 70.7798 173.305 71.4359 174.854 72.7499ZM190.784 56.7764V78.9805C190.784 87.003 194.047 91.0142 200.573 91.0142C207.172 91.0142 210.477 87.003 210.486 78.9805V56.7764H215.245V78.7064C215.245 84.1765 213.996 88.3248 211.498 91.1512C209 93.9777 205.363 95.3899 200.587 95.388C195.811 95.388 192.192 93.9757 189.731 91.1512C187.27 88.3268 186.039 84.1785 186.037 78.7064V56.7764H190.784ZM246.213 73.4584C245.143 71.3872 243.488 69.6758 241.454 68.5365C239.334 67.3808 236.95 66.796 234.535 66.8394C230.488 66.8394 227.298 68.4441 224.965 71.6535L224.362 67.1689H220.481V105.999H224.965V90.796C225.897 92.2366 227.2 93.3984 228.738 94.1579C230.344 94.9782 232.276 95.3884 234.535 95.3884C236.954 95.4238 239.337 94.7998 241.428 93.5835C243.463 92.3887 245.121 90.6457 246.213 88.5537C247.362 86.4037 247.936 83.9243 247.936 81.1154C247.936 78.1626 247.362 75.6103 246.213 73.4584ZM243.341 81.1154C243.339 84.142 242.492 86.6117 240.798 88.5245V88.5216C239.101 90.4383 236.866 91.3966 234.092 91.3966C232.405 91.4243 230.744 90.969 229.307 90.0845C227.888 89.1947 226.758 87.9124 226.053 86.393C225.265 84.7077 224.872 82.8647 224.904 81.0046C224.872 79.18 225.265 77.373 226.053 75.7269C226.766 74.2345 227.896 72.9806 229.307 72.1171C230.75 71.2487 232.408 70.8032 234.092 70.8312C236.866 70.8332 239.101 71.7905 240.798 73.7033C242.495 75.618 243.343 78.0887 243.341 81.1154Z" fill="#1F1F1F"/>
</g>
<defs>
<clipPath id="clip0_2024_7090">
<rect width="248" height="152" fill="white"/>
</clipPath>
</defs>
</svg>
