<svg width="311" height="152" viewBox="0 0 311 152" fill="none" xmlns="http://www.w3.org/2000/svg">
<g clip-path="url(#clip0_2024_6994)">
<path fill-rule="evenodd" clip-rule="evenodd" d="M64.0833 67.1238C58.6849 67.1238 54.3085 62.5912 54.3085 57L64.0833 56.9999L73.8582 57C73.8582 62.5912 69.4818 67.1238 64.0833 67.1238ZM18.8202 57.0014C8.41715 57.0533 0 65.4583 0 75.8186C0 86.0464 8.20319 94.3684 18.422 94.6295L18.4219 94.6358H18.917H27.5672V57.104L46.9939 94.6344H64.8358L45.3552 56.9999H27.5133L27.5141 57.0014H18.917L18.8847 57.0014C18.8632 57.0013 18.8417 57.0013 18.8202 57.0014ZM118.388 83.1917H112.441C111.125 87.2524 107.388 90.0474 102.124 90.0474C95.0714 90.0474 90.0185 84.3519 90.0185 76.336C90.0185 68.5838 94.8082 62.3082 102.177 62.3082C107.177 62.3082 110.651 65.1559 111.862 69.4276H117.809C116.493 61.6226 110.177 57.1928 102.124 57.1928C91.4922 57.1928 84.3866 65.3142 84.3866 76.336C84.3866 87.2524 91.2817 95.1628 102.124 95.1628C110.441 95.1628 117.072 90.5748 118.388 83.1917ZM133.609 95.1628C141.347 95.1628 147.136 89.4146 147.136 81.4514C147.136 73.4883 141.347 67.74 133.609 67.74C125.872 67.74 120.188 73.4355 120.188 81.4514C120.188 89.3619 125.925 95.1628 133.609 95.1628ZM133.609 90.4693C128.714 90.4693 125.504 86.3559 125.504 81.4514C125.504 76.4942 128.714 72.4335 133.609 72.4335C138.504 72.4335 141.82 76.4942 141.82 81.4514C141.82 86.3559 138.504 90.4693 133.609 90.4693ZM163.09 94.6355H156.563L146.458 68.2674H152.037L159.669 89.0454H160.037L167.616 68.2674H173.143L163.09 94.6355ZM197.131 81.0823C197.131 72.0117 191.499 67.74 185.077 67.74C177.919 67.74 172.287 73.1191 172.287 81.7151C172.287 89.8365 177.709 95.1628 185.288 95.1628C191.499 95.1628 195.92 91.9987 197.025 86.7251H191.867C191.025 89.4146 188.604 90.7857 185.288 90.7857C180.656 90.7857 177.814 87.5161 177.551 82.8226H197.025C197.036 82.6892 197.046 82.5617 197.056 82.4391C197.097 81.9318 197.131 81.507 197.131 81.0823ZM185.077 72.1171C189.13 72.1171 191.867 74.9649 191.92 79.0256H177.603C178.13 75.1758 180.919 72.1171 185.077 72.1171ZM205.73 94.6355H200.362V68.2674H205.204L205.73 71.4316H206.099C207.572 69.4276 209.73 67.74 213.783 67.74C219.626 67.74 223.626 71.4843 223.626 78.2873V94.6355H218.257V79.4475C218.257 74.5957 215.625 72.4335 212.257 72.4335C208.836 72.4335 205.73 74.6485 205.73 79.8693V94.6355ZM237.45 95.1628C239.187 95.1628 240.555 94.8464 241.555 94.5827V90.4166C240.766 90.6803 239.818 90.8385 238.976 90.8385C236.187 90.8385 235.555 89.2564 235.555 87.5161V72.5918H242.239V68.2674H235.555V61.0953H230.66V64.3122C230.66 67.1599 229.502 68.2674 226.397 68.2674H224.554V72.5918H230.239V88.2544C230.239 91.2604 231.292 95.1628 237.45 95.1628ZM262.03 68.2674H267.399V94.6355H262.556L262.03 91.4713H261.661C260.188 93.4753 258.03 95.1628 253.977 95.1628C248.134 95.1628 244.134 91.4186 244.134 84.6156V68.2674H249.503V83.4554C249.503 88.3071 252.135 90.4693 255.503 90.4693C258.924 90.4693 262.03 88.2544 262.03 83.0335V68.2674ZM271.623 94.6355H276.992V81.346C276.992 76.8106 279.097 72.9609 284.098 72.9609C284.992 72.9609 285.835 73.0136 286.677 73.1191V67.74H284.992C280.624 67.74 278.782 69.4803 277.36 71.9589H276.992L276.466 68.2674H271.623V94.6355ZM299.135 67.74C305.557 67.74 311.189 72.0117 311.189 81.0823C311.189 81.5068 311.155 81.9313 311.114 82.4383L311.114 82.4391L311.113 82.4457C311.103 82.5663 311.093 82.6915 311.083 82.8226H291.609C291.872 87.5161 294.714 90.7857 299.346 90.7857C302.662 90.7857 305.083 89.4146 305.925 86.7251H311.083C309.978 91.9987 305.557 95.1628 299.346 95.1628C291.767 95.1628 286.345 89.8365 286.345 81.7151C286.345 73.1191 291.977 67.74 299.135 67.74ZM305.978 79.0256C305.925 74.9649 303.188 72.1171 299.135 72.1171C294.977 72.1171 292.188 75.1758 291.661 79.0256H305.978Z" fill="#1F1F1F"/>
</g>
<defs>
<clipPath id="clip0_2024_6994">
<rect width="311" height="152" fill="white"/>
</clipPath>
</defs>
</svg>
