<svg width="286" height="152" viewBox="0 0 286 152" fill="none" xmlns="http://www.w3.org/2000/svg">
<path fill-rule="evenodd" clip-rule="evenodd" d="M41.8308 97.6196L79.2498 75.9072V63.5508L41.8308 85.2633V97.6196ZM35.7261 51.2061L49.0559 43.4712L39.6249 38L2.20741 59.711L25.5579 73.2608L39.2042 65.3504C39.4847 65.1866 39.94 65.188 40.2234 65.3504L43.6147 67.3197C43.898 67.4835 43.898 67.7474 43.6147 67.9113L29.9727 75.8216L30.2705 75.9942L39.6249 81.4219L48.9793 75.9942L77.0438 59.711L53.4692 46.0321L40.1395 53.767C39.8576 53.9294 39.4008 53.9294 39.1204 53.767L35.7261 51.7963C35.4471 51.6339 35.4471 51.3685 35.7261 51.2061ZM0 75.9072L23.3534 89.4584V77.1021L0 63.5508V75.9072ZM0 92.2876L23.3534 105.837V94.5773L0 81.029V92.2876ZM27.7653 79.6615V92.0179L37.4189 97.6196V85.2633L28.0646 79.8341L27.7653 79.6615ZM41.8308 114L79.2498 92.2876V81.029L41.8308 102.74V114ZM27.7653 97.1382L37.4189 102.74V114L27.7653 108.398V97.1382ZM133.939 97.9952C129.521 97.9952 125.851 97.1817 122.927 95.5576C120.002 93.932 117.532 91.7293 115.518 88.948L121.039 84.5411C122.587 87.0861 124.429 88.9567 126.558 90.153C128.689 91.3465 131.091 91.9439 133.764 91.9439C136.631 91.9439 138.79 91.3175 140.243 90.0631C141.696 88.8102 142.422 87.2035 142.422 85.2459C142.422 83.9538 142.112 82.9068 141.492 82.1035C140.874 81.3001 140.05 80.6345 139.022 80.1052C137.995 79.5774 136.814 79.1569 135.477 78.8422C134.141 78.529 132.757 78.2158 131.323 77.9011C129.696 77.5502 128.069 77.1485 126.442 76.6975C124.815 76.248 123.362 75.6012 122.085 74.7587C120.806 73.9162 119.769 72.8199 118.976 71.4699C118.181 70.1169 117.785 68.3652 117.785 66.2103C117.785 64.5268 118.143 62.9404 118.859 61.4525C119.576 59.9633 120.583 58.6611 121.881 57.5445C123.178 56.4294 124.719 55.5463 126.5 54.901C128.283 54.2557 130.238 53.9309 132.369 53.9309C136.011 53.9309 139.1 54.5689 141.638 55.8406C144.175 57.1138 146.471 58.925 148.524 61.2756L143.293 65.4461C142.675 64.5862 142.016 63.8119 141.317 63.126C140.621 62.4401 139.837 61.8426 138.964 61.3351C138.094 60.8246 137.125 60.4331 136.06 60.159C134.993 59.885 133.764 59.7487 132.369 59.7487C129.503 59.7487 127.44 60.3447 126.182 61.5396C124.922 62.7344 124.293 64.2716 124.293 66.1523C124.293 67.2486 124.583 68.1404 125.163 68.8263C125.746 69.5108 126.52 70.0792 127.489 70.5288C128.457 70.9797 129.571 71.3524 130.83 71.6453C132.089 71.9383 133.414 72.2225 134.809 72.498C136.476 72.8504 138.152 73.2709 139.837 73.761C141.521 74.2497 143.032 74.9545 144.369 75.8753C145.705 76.7961 146.799 77.991 147.652 79.46C148.505 80.9275 148.93 82.8372 148.93 85.1879C148.93 86.8337 148.6 88.4288 147.942 89.9761C147.283 91.5234 146.315 92.8836 145.037 94.0596C143.759 95.2327 142.19 96.184 140.33 96.9091C138.471 97.6341 136.34 97.9952 133.939 97.9952ZM169.278 98.0546C167.07 98.0546 165.008 97.6428 163.089 96.8206C161.172 95.9984 159.631 94.7832 158.471 93.1779V110.098H152.369V65.6825H158.471V70.3823C159.672 68.7364 161.23 67.4357 163.149 66.4743C165.065 65.5143 167.108 65.0358 169.278 65.0358C171.37 65.0358 173.354 65.4273 175.234 66.2103C177.113 66.9948 178.778 68.11 180.231 69.5586C181.684 71.0087 182.837 72.7416 183.689 74.7587C184.542 76.7758 184.968 79.0394 184.968 81.5452C184.968 84.0118 184.532 86.2653 183.66 88.3012C182.788 90.3386 181.626 92.0817 180.173 93.5303C178.72 94.9804 177.045 96.0955 175.148 96.8786C173.249 97.6617 171.293 98.0546 169.278 98.0546ZM168.408 92.2383C169.84 92.2383 171.186 91.9642 172.445 91.4161C173.704 90.8679 174.799 90.1023 175.728 89.1249C176.659 88.1446 177.385 86.999 177.908 85.6867C178.43 84.3744 178.691 82.9735 178.691 81.4857C178.691 79.9979 178.43 78.5971 177.908 77.2862C177.385 75.9724 176.659 74.837 175.728 73.8785C174.799 72.9185 173.704 72.163 172.445 71.6149C171.186 71.0667 169.84 70.7927 168.408 70.7927C166.935 70.7927 165.57 71.0769 164.311 71.6453C163.05 72.2123 161.957 72.9765 161.026 73.9365C160.098 74.8965 159.371 76.0319 158.848 77.3442C158.325 78.6566 158.063 80.0371 158.063 81.4857C158.063 82.9735 158.325 84.3744 158.848 85.6867C159.371 86.999 160.098 88.1345 161.026 89.0944C161.957 90.0544 163.05 90.8186 164.311 91.3856C165.57 91.9541 166.935 92.2383 168.408 92.2383ZM188.057 65.6825H194.217V71.2045C194.875 69.2063 195.96 67.7083 197.471 66.7106C198.982 65.7115 200.745 65.2112 202.759 65.2112C203.843 65.2112 204.841 65.32 205.751 65.5346C206.661 65.7492 207.427 66.0537 208.045 66.4453L205.605 72.556C204.676 71.9296 203.359 71.6149 201.655 71.6149C199.408 71.6149 197.624 72.2225 196.309 73.4362C194.992 74.6514 194.333 76.6873 194.333 79.547V97.4079H188.057V65.6825ZM210.723 97.4093H217.057V65.6825H210.723V97.4093ZM209.445 56.164C209.445 54.872 209.861 53.7945 210.694 52.9332C211.528 52.0718 212.583 51.6397 213.861 51.6397C215.178 51.6397 216.253 52.0718 217.086 52.9332C217.92 53.7945 218.337 54.872 218.337 56.164C218.337 57.4575 217.92 58.5335 217.086 59.3963C216.253 60.2562 215.178 60.6869 213.861 60.6869C212.544 60.6869 211.477 60.2562 210.665 59.3963C209.851 58.5335 209.445 57.4575 209.445 56.164ZM221.025 65.6825H227.185V70.0894C228.269 68.561 229.654 67.3371 231.34 66.4163C233.024 65.4969 234.969 65.0358 237.18 65.0358C239.154 65.0358 240.946 65.3591 242.554 66.0044C244.162 66.6526 245.516 67.572 246.621 68.7669C247.725 69.9618 248.578 71.4293 249.178 73.1737C249.779 74.9168 250.079 76.8643 250.079 79.0191V97.4079H243.746V79.4889C243.746 76.786 243.068 74.6311 241.712 73.0258C240.356 71.4206 238.359 70.6172 235.727 70.6172C234.526 70.6172 233.411 70.8318 232.385 71.2625C231.358 71.6946 230.466 72.3109 229.712 73.1143C228.956 73.9162 228.366 74.8965 227.94 76.0522C227.513 77.2079 227.301 78.4898 227.301 79.8993V97.4079H221.025V65.6825ZM268.974 98.0546C266.921 98.0546 264.945 97.6617 263.047 96.8786C261.149 96.0955 259.474 94.9804 258.021 93.5303C256.568 92.0817 255.406 90.3386 254.534 88.3012C253.662 86.2653 253.226 84.0118 253.226 81.5452C253.226 79.0394 253.652 76.7758 254.505 74.7587C255.358 72.7416 256.51 71.0087 257.963 69.5586C259.416 68.11 261.101 66.9948 263.018 66.2103C264.935 65.4273 266.94 65.0358 269.032 65.0358C271.123 65.0358 273.129 65.4969 275.047 66.4163C276.964 67.3371 278.522 68.619 279.723 70.2648V65.6825H286V94.8818C286 97.231 285.584 99.3757 284.751 101.314C283.918 103.255 282.775 104.918 281.322 106.309C279.869 107.699 278.165 108.775 276.209 109.541C274.252 110.304 272.15 110.687 269.903 110.687C266.107 110.687 262.979 110.118 260.519 108.983C258.06 107.847 255.978 106.201 254.272 104.048L259.328 99.876C260.566 101.599 261.982 102.862 263.57 103.665C265.158 104.468 267.231 104.869 269.786 104.869C271.298 104.869 272.665 104.635 273.883 104.165C275.105 103.694 276.151 103.029 277.021 102.167C277.895 101.306 278.573 100.278 279.057 99.0828C279.54 97.8879 279.781 96.5654 279.781 95.1153V92.6486C278.581 94.3322 277.011 95.6562 275.076 96.6147C273.139 97.5747 271.105 98.0546 268.974 98.0546ZM269.786 92.2383C271.259 92.2383 272.625 91.9541 273.883 91.3856C275.142 90.8186 276.228 90.0544 277.137 89.0944C278.048 88.1345 278.765 86.999 279.288 85.6867C279.811 84.3744 280.073 82.9735 280.073 81.4857C280.073 80.0371 279.811 78.6566 279.288 77.3442C278.765 76.0319 278.048 74.8965 277.137 73.9365C276.228 72.9765 275.142 72.2123 273.883 71.6453C272.625 71.0769 271.259 70.7927 269.786 70.7927C268.316 70.7927 266.95 71.0667 265.691 71.6149C264.432 72.163 263.336 72.9185 262.408 73.8785C261.477 74.837 260.751 75.9724 260.228 77.2862C259.706 78.5971 259.445 79.9979 259.445 81.4857C259.445 82.9735 259.706 84.3744 260.228 85.6867C260.751 86.999 261.477 88.1446 262.408 89.1249C263.336 90.1023 264.432 90.8679 265.691 91.4161C266.95 91.9642 268.316 92.2383 269.786 92.2383Z" fill="#1F1F1F"/>
</svg>
