<svg fill="none" height="948" viewBox="0 0 1920 948" width="1920" xmlns="http://www.w3.org/2000/svg" xmlns:xlink="http://www.w3.org/1999/xlink"><clipPath id="a"><path d="m342 375h400.766v232.425h-400.766z"/></clipPath><path d="m0 0h1920v948h-1920z" fill="#f7f5f8"/><path d="m240 256h720v496h-720z" fill="#fff"/><path d="m1680 504h-720v248h720z" fill="#f8c836"/><path d="m1545 504h-135v248h135z" fill="#f09e00"/><path d="m1680 504h-135v248h135z" fill="#fcdab9"/><path d="m1680 256h-720v248h720z" fill="#3b274f"/><path d="m1680 256h-720v248h720z" fill="#3b274f"/><path d="m1680 256h-270v248h270z" fill="#552d7b"/><path d="m1680 256h-135v248h135z" fill="#d7cbe5"/><g fill="#14172e" opacity=".5"><path d="m246.912 204.452h4.752c0-.684 0-1.368 0-2.052-3.852 0-7.71 0-11.574 0v2.052h4.77v10.548h2.052c0-3.516 0-7.032 0-10.548z"/><path d="m253.488 218.6h2.07c1.92-4.2 3.84-8.4 5.76-12.6-.684 0-1.374 0-2.07 0-.84 1.836-1.68 3.672-2.52 5.508-.864-1.836-1.728-3.672-2.592-5.508-.768 0-1.536 0-2.304 0 1.296 2.58 2.586 5.166 3.87 7.758-.732 1.608-1.47 3.222-2.214 4.842z"/><path d="m267.028 213.362c-.804 0-1.452-.258-1.944-.774-.504-.516-.756-1.212-.756-2.088s.252-1.572.756-2.088c.492-.516 1.14-.774 1.944-.774.408 0 .774.066 1.098.198.336.132.624.33.864.594s.426.57.558.918c.12.348.18.732.18 1.152s-.06.804-.18 1.152c-.132.348-.318.654-.558.918s-.528.462-.864.594c-.324.132-.69.198-1.098.198zm-4.554 5.238h1.944c0-1.632 0-3.264 0-4.896.348.432.774.792 1.278 1.08s1.116.432 1.836.432c.576 0 1.122-.108 1.638-.324.504-.204.948-.51 1.332-.918.192-.204.36-.432.504-.684.144-.24.276-.51.396-.81.216-.576.324-1.236.324-1.98 0-.732-.108-1.392-.324-1.98-.12-.3-.252-.57-.396-.81-.144-.252-.312-.48-.504-.684-.384-.396-.828-.702-1.332-.918-.516-.216-1.068-.324-1.656-.324-.708 0-1.314.132-1.818.396-.264.132-.498.294-.702.486-.216.18-.408.384-.576.612 0-.432 0-.858 0-1.278-.648 0-1.296 0-1.944 0z"/><path d="m272.778 210.5c0 .684.12 1.314.36 1.89.12.3.264.57.432.81.168.252.36.48.576.684.42.408.924.732 1.512.972.576.24 1.206.36 1.89.36s1.32-.12 1.908-.36c.576-.24 1.08-.564 1.512-.972.204-.204.39-.432.558-.684.168-.24.312-.51.432-.81.24-.576.36-1.206.36-1.89s-.12-1.32-.36-1.908c-.12-.288-.264-.558-.432-.81s-.354-.48-.558-.684c-.432-.42-.936-.744-1.512-.972-.588-.228-1.224-.342-1.908-.342s-1.314.114-1.89.342c-.588.228-1.092.552-1.512.972-.432.42-.768.918-1.008 1.494-.24.588-.36 1.224-.36 1.908zm7.542 0c0 .204-.018.402-.054.594-.036.204-.084.39-.144.558-.072.168-.156.33-.252.486-.096.144-.204.276-.324.396-.252.252-.546.444-.882.576-.336.144-.708.216-1.116.216s-.78-.072-1.116-.216c-.336-.132-.624-.324-.864-.576-.132-.12-.246-.252-.342-.396-.096-.156-.174-.318-.234-.486-.144-.348-.216-.732-.216-1.152s.072-.804.216-1.152c.132-.348.324-.648.576-.9.24-.24.528-.432.864-.576.168-.06.348-.108.54-.144.18-.036.372-.054.576-.054s.402.018.594.054c.18.036.354.084.522.144.336.144.63.336.882.576.24.252.432.552.576.9.06.168.108.348.144.54.036.204.054.408.054.612z"/><path d="m290.866 210.5c0 .444-.06.834-.18 1.17-.12.348-.3.654-.54.918s-.522.456-.846.576c-.312.132-.672.198-1.08.198s-.78-.072-1.116-.216c-.336-.132-.624-.324-.864-.576s-.426-.558-.558-.918c-.06-.168-.108-.354-.144-.558-.036-.192-.054-.39-.054-.594 0-.42.066-.81.198-1.17.06-.168.138-.33.234-.486.096-.144.204-.282.324-.414.24-.252.528-.45.864-.594.168-.06.348-.108.54-.144.18-.036.372-.054.576-.054.408 0 .768.066 1.08.198.324.12.606.312.846.576s.42.564.54.9c.12.348.18.744.18 1.188zm-7.38-.018c0 .732.108 1.386.324 1.962.204.576.498 1.062.882 1.458.384.408.84.714 1.368.918.528.216 1.11.324 1.746.324.684 0 1.29-.132 1.818-.396.516-.252.918-.588 1.206-1.008v.666c0 .348-.036.678-.108.99-.084.324-.228.606-.432.846-.192.252-.462.45-.81.594s-.792.216-1.332.216c-.648 0-1.2-.126-1.656-.378-.468-.252-.87-.618-1.206-1.098-.396.48-.792.96-1.188 1.44.204.276.438.522.702.738.252.228.534.42.846.576.636.336 1.464.504 2.484.504.924 0 1.68-.126 2.268-.378.6-.24 1.068-.564 1.404-.972.348-.42.594-.888.738-1.404.132-.528.198-1.068.198-1.62 0-2.82 0-5.64 0-8.46-.648 0-1.302 0-1.962 0v1.242c-.252-.396-.636-.738-1.152-1.026s-1.134-.432-1.854-.432c-.588 0-1.146.108-1.674.324-.516.216-.966.522-1.35.918-.396.408-.702.9-.918 1.476-.12.3-.204.612-.252.936-.06.324-.09.672-.09 1.044z"/><path d="m296.936 207.422c0-.48 0-.954 0-1.422-.624 0-1.248 0-1.872 0v9h1.944c0-1.38 0-2.754 0-4.122 0-.96.186-1.71.558-2.25.372-.528 1.008-.792 1.908-.792.18 0 .354.012.522.036.084.012.162.024.234.036s.15.03.234.054c0-.696 0-1.386 0-2.07-.288-.072-.582-.108-.882-.108-.636 0-1.164.144-1.584.432-.432.288-.786.69-1.062 1.206z"/><path d="m307.32 210.842v.522c0 .264-.054.522-.162.774-.12.264-.282.492-.486.684-.192.192-.444.354-.756.486-.156.06-.312.108-.468.144-.168.024-.348.036-.54.036-.492 0-.858-.108-1.098-.324-.252-.204-.378-.48-.378-.828 0-.3.108-.558.324-.774.204-.204.528-.336.972-.396zm-5.634-2.898c.528.324 1.05.654 1.566.99.132-.504.408-.864.828-1.08.42-.204.906-.306 1.458-.306.6 0 1.05.108 1.35.324.288.228.432.516.432.864v.198c0 .24-.174.378-.522.414-.828.084-1.662.168-2.502.252-.828.072-1.512.348-2.052.828-.552.48-.828 1.134-.828 1.962 0 .408.072.78.216 1.116.072.168.156.33.252.486.108.144.228.276.36.396.252.252.57.444.954.576.372.144.792.216 1.26.216.684 0 1.266-.132 1.746-.396.468-.276.84-.618 1.116-1.026v1.242h1.944c0-1.908 0-3.81 0-5.706 0-1.164-.306-2.04-.918-2.628-.312-.3-.702-.522-1.17-.666-.48-.144-1.038-.216-1.674-.216-.528 0-1.002.048-1.422.144s-.786.24-1.098.432c-.624.384-1.056.912-1.296 1.584z"/><path d="m315.913 213.362c-.804 0-1.452-.258-1.944-.774-.504-.516-.756-1.212-.756-2.088s.252-1.572.756-2.088c.492-.516 1.14-.774 1.944-.774.408 0 .774.066 1.098.198.336.132.624.33.864.594s.426.57.558.918c.12.348.18.732.18 1.152s-.06.804-.18 1.152c-.132.348-.318.654-.558.918s-.528.462-.864.594c-.324.132-.69.198-1.098.198zm-4.554 5.238h1.944c0-1.632 0-3.264 0-4.896.348.432.774.792 1.278 1.08s1.116.432 1.836.432c.576 0 1.122-.108 1.638-.324.504-.204.948-.51 1.332-.918.192-.204.36-.432.504-.684.144-.24.276-.51.396-.81.216-.576.324-1.236.324-1.98 0-.732-.108-1.392-.324-1.98-.12-.3-.252-.57-.396-.81-.144-.252-.312-.48-.504-.684-.384-.396-.828-.702-1.332-.918-.516-.216-1.068-.324-1.656-.324-.708 0-1.314.132-1.818.396-.264.132-.498.294-.702.486-.216.18-.408.384-.576.612 0-.432 0-.858 0-1.278-.648 0-1.296 0-1.944 0z"/><path d="m324.236 202.4c-.648 0-1.296 0-1.944 0v12.6h1.944c0-1.416 0-2.832 0-4.248 0-.228.012-.45.036-.666.012-.204.042-.402.09-.594.072-.384.198-.714.378-.99s.42-.492.72-.648.666-.234 1.098-.234c.6 0 1.062.192 1.386.576.324.372.486.912.486 1.62v5.184h1.98c0-1.812 0-3.624 0-5.436 0-.576-.066-1.098-.198-1.566-.12-.456-.318-.852-.594-1.188-.264-.324-.606-.576-1.026-.756-.408-.18-.894-.27-1.458-.27-.648 0-1.212.126-1.692.378-.48.264-.882.624-1.206 1.08 0-1.62 0-3.234 0-4.842z"/><path d="m333.204 218.6h2.07c1.92-4.2 3.84-8.4 5.76-12.6-.684 0-1.374 0-2.07 0-.84 1.836-1.68 3.672-2.52 5.508-.864-1.836-1.728-3.672-2.592-5.508-.768 0-1.536 0-2.304 0 1.296 2.58 2.586 5.166 3.87 7.758-.732 1.608-1.47 3.222-2.214 4.842z"/></g><g clip-path="url(#a)"><g fill="#1e2225"><path d="m354.564 375h-10.195v42.182h10.195z"/><path d="m369.036 399.139c.021-3.604 2.121-5.746 5.314-5.746 3.192 0 5.087 2.101 5.067 5.602v18.187h10.071v-20.164c.021-7.127-4.325-11.884-10.978-11.884-4.675 0-8.218 2.368-9.618 6.22h-.35v-5.809h-9.578v31.637h10.072z"/><path d="m411.581 385.545h-5.705v-7.579h-10.072v7.579h-4.181v7.415h4.181v15.386c-.061 6.405 4.099 9.618 11.205 9.289 2.43-.124 4.181-.618 5.149-.906l-1.524-7.271c-.433.103-1.442.309-2.204.309-1.627 0-2.554-.659-2.554-2.533v-14.274h5.705z"/><path d="m429.169 417.779c8.3 0 13.758-4.016 14.912-10.236l-9.248-.268c-.783 2.101-2.843 3.234-5.479 3.234-3.872 0-6.261-2.575-6.261-6.447v-.268h21.091v-2.513c0-10.422-6.344-16.147-15.324-16.147-9.557 0-15.695 6.549-15.695 16.353 0 10.134 6.056 16.292 16.004 16.292zm-6.076-19.834c.144-3.152 2.636-5.541 5.973-5.541 3.316 0 5.705 2.307 5.746 5.541z"/><path d="m447.328 417.182h10.071v-17.178c0-3.769 2.678-6.302 6.282-6.302 1.195 0 2.987.206 3.955.535v-8.753c-.845-.227-1.895-.371-2.822-.371-3.46 0-6.22 2.018-7.373 6.199h-.33v-5.767h-9.783z"/><path d="m498.058 385.545h-5.705v-7.579h-10.072v7.579h-4.181v7.415h4.181v15.386c-.062 6.405 4.099 9.618 11.204 9.289 2.431-.124 4.182-.618 5.15-.906l-1.525-7.271c-.432.103-1.441.309-2.203.309-1.628 0-2.554-.659-2.554-2.533v-14.274h5.705z"/><path d="m507.355 429.004c7.25 0 10.855-3.666 12.605-8.794l11.926-34.644-10.608-.021-5.911 22.574h-.329l-5.829-22.574h-10.546l11.246 32.79-.391.948c-1.092 2.265-3.152 2.368-6.117 1.4l-2.225 7.312c1.524.597 3.769 1.009 6.179 1.009z"/><path d="m533.748 429.045h10.071v-16.992h.206c1.277 2.925 4.12 5.582 8.898 5.582 7.003 0 12.646-5.479 12.646-16.251 0-11.163-5.973-16.25-12.584-16.25-5.005 0-7.745 2.924-8.96 5.828h-.309v-5.417h-9.968zm9.865-27.681c0-5.17 2.142-8.363 5.829-8.363 3.728 0 5.788 3.275 5.788 8.363 0 5.108-2.06 8.424-5.788 8.424-3.687 0-5.829-3.296-5.829-8.424z"/><path d="m583.635 417.779c8.301 0 13.759-4.016 14.912-10.236l-9.247-.268c-.783 2.101-2.843 3.234-5.479 3.234-3.872 0-6.262-2.575-6.262-6.447v-.268h21.091v-2.513c0-10.422-6.343-16.147-15.323-16.147-9.557 0-15.695 6.549-15.695 16.353 0 10.134 6.055 16.292 16.003 16.292zm-6.076-19.834c.145-3.152 2.637-5.541 5.973-5.541 3.317 0 5.706 2.307 5.747 5.541z"/><path d="m362.349 451.545h-6.034v-1.771c0-1.812.741-2.925 3.089-2.925.948 0 2.101.206 2.842.433l1.607-7.374c-1.195-.329-3.934-.885-6.715-.885-6.446 0-10.875 3.584-10.875 10.916v1.606h-4.263v7.415h4.263v24.222h10.052v-24.222h6.034z"/><path d="m372.867 483.717c4.408 0 7.456-1.709 9.186-4.943h.247v4.408h9.475v-21.503c0-6.694-5.953-10.545-14.006-10.545-8.506 0-13.326 4.284-14.129 10.051l9.289.329c.432-2.018 2.101-3.254 4.758-3.254 2.471 0 4.037 1.195 4.037 3.316v.103c0 1.936-2.101 2.348-7.498 2.822-6.405.535-11.76 2.904-11.76 9.907 0 6.261 4.346 9.309 10.401 9.309zm3.11-6.591c-2.327 0-3.975-1.112-3.975-3.213 0-2.039 1.606-3.275 4.469-3.707 1.875-.268 4.182-.68 5.314-1.277v3.007c0 3.09-2.595 5.19-5.808 5.19z"/><path d="m395.933 483.182h10.072v-18.722c0-3.131 1.833-5.129 4.469-5.129 2.616 0 4.346 1.833 4.346 4.758v19.093h9.681v-18.887c0-3.028 1.668-4.964 4.448-4.964 2.554 0 4.367 1.709 4.367 4.861v18.99h10.072v-21.297c0-6.694-4.12-10.751-10.093-10.751-4.675 0-8.362 2.451-9.536 6.22h-.329c-.845-3.79-4.243-6.22-8.63-6.22-4.326 0-7.621 2.368-8.939 6.22h-.351v-5.809h-9.577z"/><path d="m447.628 483.182h10.072v-31.637h-10.072zm5.047-35.323c2.862 0 5.169-2.163 5.169-4.82s-2.307-4.799-5.169-4.799c-2.843 0-5.17 2.142-5.17 4.799s2.327 4.82 5.17 4.82z"/><path d="m472.183 441h-10.072v42.182h10.072z"/><path d="m482.752 495.004c7.25 0 10.854-3.666 12.605-8.794l11.925-34.644-10.607-.021-5.911 22.574h-.33l-5.829-22.574h-10.545l11.246 32.79-.392.948c-1.091 2.265-3.151 2.368-6.117 1.4l-2.224 7.312c1.524.597 3.769 1.009 6.179 1.009z"/><path d="m512.826 483.779c2.821 0 5.314-2.389 5.355-5.355-.041-2.925-2.534-5.293-5.355-5.293-2.966 0-5.397 2.368-5.355 5.293-.042 2.966 2.389 5.355 5.355 5.355z"/></g><g fill="#747779" opacity=".9"><path d="m345.381 544.754h1.545l2.729-9.852h.096l2.729 9.852h1.546l3.38-12.363h-1.521l-2.584 10.069h-.121l-2.632-10.069h-1.69l-2.632 10.069h-.121l-2.584-10.069h-1.521z"/><path d="m359.078 544.754h1.425v-9.272h-1.425zm.725-10.818c.555 0 1.014-.435 1.014-.966s-.459-.966-1.014-.966-1.014.435-1.014.966.459.966 1.014.966z"/><path d="m367.145 535.482h-1.98v-2.222h-1.424v2.222h-1.401v1.207h1.401v5.795c0 1.618 1.303 2.391 2.511 2.391.531 0 .869-.097 1.062-.169l-.289-1.28c-.121.024-.314.073-.628.073-.628 0-1.232-.194-1.232-1.401v-5.409h1.98z"/><path d="m370.912 539.176c0-1.618 1.033-2.535 2.439-2.535 1.34 0 2.149.845 2.149 2.318v5.795h1.425v-5.892c0-2.384-1.268-3.501-3.163-3.501-1.461 0-2.294.61-2.729 1.569h-.121v-4.539h-1.424v12.363h1.424z"/><path d="m388.08 544.947c2.511 0 4.202-1.907 4.202-4.781 0-2.898-1.691-4.805-4.202-4.805s-4.202 1.907-4.202 4.805c0 2.874 1.691 4.781 4.202 4.781zm0-1.279c-1.908 0-2.777-1.642-2.777-3.502 0-1.859.869-3.525 2.777-3.525s2.777 1.666 2.777 3.525c0 1.86-.869 3.502-2.777 3.502z"/><path d="m395.881 539.176c0-1.618 1.002-2.535 2.367-2.535 1.322 0 2.125.863 2.125 2.318v5.795h1.424v-5.892c0-2.366-1.261-3.501-3.139-3.501-1.4 0-2.27.628-2.704 1.569h-.121v-1.448h-1.377v9.272h1.425z"/><path d="m409.713 538.79h-5.409v1.328h5.409z"/><path d="m415.722 544.947c1.786 0 2.39-1.11 2.704-1.617h.169v1.424h1.377v-12.363h-1.425v4.564h-.121c-.314-.483-.869-1.594-2.68-1.594-2.343 0-3.961 1.859-3.961 4.781 0 2.946 1.618 4.805 3.937 4.805zm.193-1.279c-1.787 0-2.705-1.57-2.705-3.55 0-1.956.894-3.477 2.705-3.477 1.738 0 2.656 1.4 2.656 3.477 0 2.101-.942 3.55-2.656 3.55z"/><path d="m426.666 544.947c1.884 0 3.26-.941 3.695-2.342l-1.376-.386c-.363.966-1.202 1.449-2.319 1.449-1.672 0-2.825-1.081-2.891-3.067h6.731v-.604c0-3.453-2.053-4.636-3.984-4.636-2.512 0-4.178 1.98-4.178 4.829 0 2.85 1.642 4.757 4.322 4.757zm-2.891-5.578c.096-1.442 1.117-2.728 2.747-2.728 1.545 0 2.535 1.159 2.535 2.728z"/><path d="m432.673 544.754h1.425v-5.795c0-1.358.99-2.318 2.101-2.318 1.08 0 1.835.706 1.835 1.762v6.351h1.449v-6.037c0-1.195.748-2.076 2.052-2.076 1.015 0 1.884.537 1.884 1.907v6.206h1.425v-6.206c0-2.179-1.171-3.187-2.826-3.187-1.328 0-2.3.61-2.777 1.569h-.096c-.459-.99-1.268-1.569-2.487-1.569-1.208 0-2.101.579-2.488 1.569h-.12v-1.448h-1.377z"/><path d="m450.177 544.972c1.618 0 2.463-.87 2.753-1.473h.073v1.255h1.424v-6.109c0-2.946-2.245-3.284-3.429-3.284-1.4 0-2.994.483-3.718 2.173l1.352.483c.314-.676 1.056-1.401 2.415-1.401 1.31 0 1.956.695 1.956 1.884v.048c0 .689-.701.628-2.391.845-1.721.224-3.598.604-3.598 2.729 0 1.811 1.401 2.85 3.163 2.85zm.218-1.28c-1.135 0-1.956-.507-1.956-1.497 0-1.087.99-1.425 2.101-1.57.603-.072 2.221-.241 2.463-.531v1.304c0 1.159-.918 2.294-2.608 2.294z"/><path d="m458.452 539.176c0-1.618 1.003-2.535 2.367-2.535 1.322 0 2.125.863 2.125 2.318v5.795h1.425v-5.892c0-2.366-1.262-3.501-3.14-3.501-1.4 0-2.269.628-2.704 1.569h-.121v-1.448h-1.376v9.272h1.424z"/><path d="m470.473 544.947c1.787 0 2.391-1.11 2.705-1.617h.169v1.424h1.376v-12.363h-1.424v4.564h-.121c-.314-.483-.869-1.594-2.68-1.594-2.343 0-3.961 1.859-3.961 4.781 0 2.946 1.618 4.805 3.936 4.805zm.194-1.279c-1.787 0-2.705-1.57-2.705-3.55 0-1.956.894-3.477 2.705-3.477 1.738 0 2.656 1.4 2.656 3.477 0 2.101-.942 3.55-2.656 3.55z"/><path d="m488.88 537.558c-.447-1.316-1.449-2.197-3.284-2.197-1.956 0-3.405 1.111-3.405 2.68 0 1.28.761 2.137 2.463 2.536l1.546.362c.935.217 1.376.664 1.376 1.304 0 .797-.845 1.449-2.173 1.449-1.165 0-1.896-.501-2.149-1.497l-1.353.338c.332 1.575 1.63 2.414 3.526 2.414 2.155 0 3.622-1.177 3.622-2.777 0-1.291-.809-2.106-2.463-2.511l-1.376-.338c-1.099-.272-1.594-.64-1.594-1.352 0-.797.845-1.377 1.98-1.377 1.244 0 1.757.689 2.004 1.328z"/><path d="m492.618 539.176c0-1.618 1.033-2.535 2.439-2.535 1.341 0 2.149.845 2.149 2.318v5.795h1.425v-5.892c0-2.384-1.268-3.501-3.163-3.501-1.461 0-2.294.61-2.729 1.569h-.121v-4.539h-1.424v12.363h1.424z"/><path d="m501.238 544.754h1.424v-9.272h-1.424zm.724-10.818c.556 0 1.014-.435 1.014-.966s-.458-.966-1.014-.966c-.555 0-1.014.435-1.014.966s.459.966 1.014.966z"/><path d="m505.272 548.232h1.425v-4.902h.12c.314.507.918 1.617 2.705 1.617 2.318 0 3.936-1.859 3.936-4.805 0-2.922-1.618-4.781-3.96-4.781-1.811 0-2.367 1.111-2.681 1.594h-.169v-1.473h-1.376zm1.4-8.114c0-2.077.918-3.477 2.657-3.477 1.811 0 2.704 1.521 2.704 3.477 0 1.98-.917 3.55-2.704 3.55-1.715 0-2.657-1.449-2.657-3.55z"/><path d="m515.631 548.232h1.425v-4.902h.121c.314.507.917 1.617 2.704 1.617 2.318 0 3.936-1.859 3.936-4.805 0-2.922-1.618-4.781-3.96-4.781-1.811 0-2.366 1.111-2.68 1.594h-.169v-1.473h-1.377zm1.401-8.114c0-2.077.917-3.477 2.656-3.477 1.811 0 2.705 1.521 2.705 3.477 0 1.98-.918 3.55-2.705 3.55-1.714 0-2.656-1.449-2.656-3.55z"/><path d="m525.991 544.754h1.424v-9.272h-1.424zm.724-10.818c.555 0 1.014-.435 1.014-.966s-.459-.966-1.014-.966-1.014.435-1.014.966.459.966 1.014.966z"/><path d="m531.449 539.176c0-1.618 1.003-2.535 2.367-2.535 1.322 0 2.125.863 2.125 2.318v5.795h1.425v-5.892c0-2.366-1.262-3.501-3.14-3.501-1.4 0-2.269.628-2.704 1.569h-.121v-1.448h-1.376v9.272h1.424z"/><path d="m543.712 548.425c2.222 0 4.009-1.014 4.009-3.405v-9.538h-1.377v1.473h-.145c-.314-.483-.893-1.594-2.704-1.594-2.343 0-3.961 1.859-3.961 4.709 0 2.897 1.691 4.539 3.937 4.539 1.811 0 2.39-1.062 2.704-1.569h.121v1.883c0 1.546-1.087 2.246-2.584 2.246-1.684 0-2.276-.887-2.656-1.401l-1.135.797c.579.972 1.72 1.86 3.791 1.86zm-.048-5.095c-1.787 0-2.705-1.353-2.705-3.285 0-1.883.894-3.404 2.705-3.404 1.738 0 2.656 1.4 2.656 3.404 0 2.053-.942 3.285-2.656 3.285z"/><path d="m552.453 543.064h-1.545l-.072.676c-.175 1.636-.52 3.266-.677 4.033h1.087c.29-.821.906-2.681 1.111-4.057z"/><path d="m562.603 544.972c1.618 0 2.463-.87 2.753-1.473h.072v1.255h1.425v-6.109c0-2.946-2.246-3.284-3.429-3.284-1.4 0-2.994.483-3.719 2.173l1.353.483c.314-.676 1.056-1.401 2.414-1.401 1.31 0 1.956.695 1.956 1.884v.048c0 .689-.7.628-2.39.845-1.721.224-3.598.604-3.598 2.729 0 1.811 1.4 2.85 3.163 2.85zm.217-1.28c-1.135 0-1.956-.507-1.956-1.497 0-1.087.99-1.425 2.101-1.57.604-.072 2.222-.241 2.463-.531v1.304c0 1.159-.917 2.294-2.608 2.294z"/><path d="m570.878 539.176c0-1.618 1.002-2.535 2.367-2.535 1.322 0 2.125.863 2.125 2.318v5.795h1.424v-5.892c0-2.366-1.261-3.501-3.139-3.501-1.4 0-2.27.628-2.704 1.569h-.121v-1.448h-1.377v9.272h1.425z"/><path d="m582.899 544.947c1.787 0 2.391-1.11 2.705-1.617h.169v1.424h1.376v-12.363h-1.424v4.564h-.121c-.314-.483-.87-1.594-2.681-1.594-2.342 0-3.96 1.859-3.96 4.781 0 2.946 1.618 4.805 3.936 4.805zm.193-1.279c-1.787 0-2.704-1.57-2.704-3.55 0-1.956.893-3.477 2.704-3.477 1.739 0 2.657 1.4 2.657 3.477 0 2.101-.942 3.55-2.657 3.55z"/><path d="m598.505 544.947c2.052 0 3.405-1.255 3.646-2.897h-1.425c-.265 1.014-1.11 1.618-2.221 1.618-1.691 0-2.777-1.401-2.777-3.55 0-2.101 1.111-3.477 2.777-3.477 1.255 0 2.004.772 2.221 1.618h1.425c-.241-1.739-1.714-2.898-3.67-2.898-2.512 0-4.178 1.98-4.178 4.805 0 2.777 1.594 4.781 4.202 4.781z"/><path d="m608.001 544.947c2.511 0 4.202-1.907 4.202-4.781 0-2.898-1.691-4.805-4.202-4.805-2.512 0-4.202 1.907-4.202 4.805 0 2.874 1.69 4.781 4.202 4.781zm0-1.279c-1.908 0-2.777-1.642-2.777-3.502 0-1.859.869-3.525 2.777-3.525 1.907 0 2.777 1.666 2.777 3.525 0 1.86-.87 3.502-2.777 3.502z"/><path d="m614.377 544.754h1.425v-5.795c0-1.358.99-2.318 2.101-2.318 1.08 0 1.835.706 1.835 1.762v6.351h1.449v-6.037c0-1.195.749-2.076 2.053-2.076 1.014 0 1.883.537 1.883 1.907v6.206h1.425v-6.206c0-2.179-1.171-3.187-2.826-3.187-1.328 0-2.3.61-2.777 1.569h-.096c-.459-.99-1.268-1.569-2.487-1.569-1.208 0-2.101.579-2.488 1.569h-.12v-1.448h-1.377z"/><path d="m629.153 548.232h1.424v-4.902h.121c.314.507.918 1.617 2.705 1.617 2.318 0 3.936-1.859 3.936-4.805 0-2.922-1.618-4.781-3.96-4.781-1.812 0-2.367 1.111-2.681 1.594h-.169v-1.473h-1.376zm1.4-8.114c0-2.077.918-3.477 2.657-3.477 1.811 0 2.704 1.521 2.704 3.477 0 1.98-.918 3.55-2.704 3.55-1.715 0-2.657-1.449-2.657-3.55z"/><path d="m640.937 532.391h-1.425v12.363h1.425z"/><path d="m647.434 544.947c1.884 0 3.26-.941 3.695-2.342l-1.377-.386c-.362.966-1.201 1.449-2.318 1.449-1.672 0-2.825-1.081-2.892-3.067h6.732v-.604c0-3.453-2.053-4.636-3.985-4.636-2.511 0-4.177 1.98-4.177 4.829 0 2.85 1.642 4.757 4.322 4.757zm-2.892-5.578c.097-1.442 1.117-2.728 2.747-2.728 1.546 0 2.536 1.159 2.536 2.728z"/><path d="m657.473 535.482h-1.98v-2.222h-1.424v2.222h-1.401v1.207h1.401v5.795c0 1.618 1.304 2.391 2.511 2.391.531 0 .869-.097 1.062-.169l-.289-1.28c-.121.024-.314.073-.628.073-.628 0-1.232-.194-1.232-1.401v-5.409h1.98z"/><path d="m663.405 544.947c1.883 0 3.26-.941 3.694-2.342l-1.376-.386c-.362.966-1.201 1.449-2.318 1.449-1.672 0-2.826-1.081-2.892-3.067h6.731v-.604c0-3.453-2.052-4.636-3.984-4.636-2.511 0-4.178 1.98-4.178 4.829 0 2.85 1.642 4.757 4.323 4.757zm-2.892-5.578c.097-1.442 1.117-2.728 2.747-2.728 1.545 0 2.535 1.159 2.535 2.728z"/><path d="m346.974 564.482h-1.98v-2.222h-1.424v2.222h-1.401v1.207h1.401v5.795c0 1.618 1.304 2.391 2.511 2.391.531 0 .869-.097 1.062-.169l-.289-1.28c-.121.024-.314.073-.628.073-.628 0-1.232-.194-1.232-1.401v-5.409h1.98z"/><path d="m349.118 573.754h1.424v-5.868c0-1.255.99-2.173 2.343-2.173.38 0 .772.073.869.097v-1.449c-.163-.012-.537-.024-.749-.024-1.11 0-2.076.628-2.414 1.545h-.097v-1.4h-1.376z"/><path d="m358.171 573.972c1.618 0 2.464-.87 2.753-1.473h.073v1.255h1.424v-6.109c0-2.946-2.245-3.284-3.429-3.284-1.4 0-2.994.483-3.718 2.173l1.352.483c.314-.676 1.056-1.401 2.415-1.401 1.31 0 1.956.695 1.956 1.884v.048c0 .689-.701.628-2.391.845-1.72.224-3.598.604-3.598 2.729 0 1.811 1.401 2.85 3.163 2.85zm.218-1.28c-1.135 0-1.956-.507-1.956-1.497 0-1.087.99-1.425 2.101-1.57.603-.072 2.221-.241 2.463-.531v1.304c0 1.159-.918 2.294-2.608 2.294z"/><path d="m366.447 568.176c0-1.618 1.002-2.535 2.366-2.535 1.322 0 2.125.863 2.125 2.318v5.795h1.425v-5.892c0-2.366-1.262-3.501-3.139-3.501-1.401 0-2.27.628-2.705 1.569h-.121v-1.448h-1.376v9.272h1.425z"/><path d="m381.534 566.558c-.446-1.316-1.449-2.197-3.284-2.197-1.956 0-3.405 1.111-3.405 2.68 0 1.28.761 2.137 2.464 2.536l1.545.362c.936.217 1.376.664 1.376 1.304 0 .797-.845 1.449-2.173 1.449-1.165 0-1.896-.501-2.149-1.497l-1.352.338c.332 1.575 1.63 2.414 3.525 2.414 2.155 0 3.622-1.177 3.622-2.777 0-1.291-.809-2.106-2.463-2.511l-1.376-.338c-1.099-.272-1.594-.64-1.594-1.352 0-.797.845-1.377 1.98-1.377 1.244 0 1.757.689 2.005 1.328z"/><path d="m383.848 577.232h1.425v-4.902h.12c.314.507.918 1.617 2.705 1.617 2.318 0 3.936-1.859 3.936-4.805 0-2.922-1.618-4.781-3.96-4.781-1.811 0-2.367 1.111-2.681 1.594h-.169v-1.473h-1.376zm1.401-8.114c0-2.077.917-3.477 2.656-3.477 1.811 0 2.704 1.521 2.704 3.477 0 1.98-.917 3.55-2.704 3.55-1.715 0-2.656-1.449-2.656-3.55z"/><path d="m396.936 573.972c1.618 0 2.463-.87 2.753-1.473h.072v1.255h1.425v-6.109c0-2.946-2.246-3.284-3.429-3.284-1.4 0-2.994.483-3.719 2.173l1.353.483c.314-.676 1.056-1.401 2.414-1.401 1.31 0 1.956.695 1.956 1.884v.048c0 .689-.7.628-2.39.845-1.721.224-3.598.604-3.598 2.729 0 1.811 1.4 2.85 3.163 2.85zm.217-1.28c-1.135 0-1.956-.507-1.956-1.497 0-1.087.991-1.425 2.101-1.57.604-.072 2.222-.241 2.463-.531v1.304c0 1.159-.917 2.294-2.608 2.294z"/><path d="m403.786 573.754h1.425v-5.868c0-1.255.99-2.173 2.343-2.173.38 0 .772.073.869.097v-1.449c-.163-.012-.537-.024-.749-.024-1.111 0-2.076.628-2.415 1.545h-.096v-1.4h-1.377z"/><path d="m413.717 573.947c1.884 0 3.26-.941 3.695-2.342l-1.377-.386c-.362.966-1.201 1.449-2.318 1.449-1.672 0-2.825-1.081-2.891-3.067h6.731v-.604c0-3.453-2.053-4.636-3.985-4.636-2.511 0-4.177 1.98-4.177 4.829 0 2.85 1.642 4.757 4.322 4.757zm-2.891-5.578c.096-1.442 1.116-2.728 2.746-2.728 1.546 0 2.536 1.159 2.536 2.728z"/><path d="m421.149 568.176c0-1.618 1.002-2.535 2.366-2.535 1.322 0 2.125.863 2.125 2.318v5.795h1.425v-5.892c0-2.366-1.262-3.501-3.139-3.501-1.401 0-2.27.628-2.705 1.569h-.121v-1.448h-1.376v9.272h1.425z"/><path d="m433.435 573.947c2.053 0 3.405-1.255 3.647-2.897h-1.425c-.266 1.014-1.111 1.618-2.222 1.618-1.69 0-2.777-1.401-2.777-3.55 0-2.101 1.111-3.477 2.777-3.477 1.256 0 2.005.772 2.222 1.618h1.425c-.242-1.739-1.715-2.898-3.671-2.898-2.511 0-4.177 1.98-4.177 4.805 0 2.777 1.593 4.781 4.201 4.781z"/><path d="m440.082 577.207c1.286 0 2.197-.682 2.729-2.1l3.948-10.601-1.558-.024-2.559 7.389h-.097l-2.56-7.389h-1.545l3.429 9.321-.266.724c-.507 1.388-1.159 1.521-2.197 1.256l-.362 1.255c.145.073.555.169 1.038.169z"/><path d="m457.554 564.482h-2.076v-.942c0-.918.386-1.401 1.328-1.401.41 0 .652.097.797.145l.41-1.231c-.217-.097-.652-.242-1.352-.242-1.328 0-2.608.797-2.608 2.391v1.28h-1.497v1.207h1.497v8.065h1.425v-8.065h2.076z"/><path d="m459.551 573.754h1.425v-5.868c0-1.255.99-2.173 2.342-2.173.381 0 .773.073.87.097v-1.449c-.163-.012-.538-.024-.749-.024-1.111 0-2.077.628-2.415 1.545h-.096v-1.4h-1.377z"/><path d="m469.361 573.947c2.512 0 4.202-1.907 4.202-4.781 0-2.898-1.69-4.805-4.202-4.805-2.511 0-4.202 1.907-4.202 4.805 0 2.874 1.691 4.781 4.202 4.781zm0-1.279c-1.908 0-2.777-1.642-2.777-3.502 0-1.859.869-3.525 2.777-3.525s2.777 1.666 2.777 3.525c0 1.86-.869 3.502-2.777 3.502z"/><path d="m475.738 573.754h1.424v-5.795c0-1.358.99-2.318 2.101-2.318 1.081 0 1.835.706 1.835 1.762v6.351h1.449v-6.037c0-1.195.749-2.076 2.053-2.076 1.014 0 1.883.537 1.883 1.907v6.206h1.425v-6.206c0-2.179-1.171-3.187-2.825-3.187-1.328 0-2.3.61-2.777 1.569h-.097c-.459-.99-1.268-1.569-2.487-1.569-1.207 0-2.101.579-2.487 1.569h-.121v-1.448h-1.376z"/><path d="m503.046 577.232v-12.75h-1.377v1.473h-.169c-.314-.483-.869-1.594-2.68-1.594-2.342 0-3.96 1.859-3.96 4.781 0 2.946 1.618 4.805 3.936 4.805 1.787 0 2.39-1.11 2.704-1.617h.121v4.902zm-1.401-8.114c0 2.101-.942 3.55-2.656 3.55-1.787 0-2.705-1.57-2.705-3.55 0-1.956.894-3.477 2.705-3.477 1.739 0 2.656 1.4 2.656 3.477z"/><path d="m511.497 569.963c0 1.739-1.328 2.536-2.39 2.536-1.183 0-2.029-.87-2.029-2.222v-5.795h-1.424v5.892c0 2.366 1.255 3.501 2.994 3.501 1.401 0 2.318-.749 2.753-1.69h.096v1.569h1.425v-9.272h-1.425z"/><path d="m519.299 573.947c2.511 0 4.201-1.907 4.201-4.781 0-2.898-1.69-4.805-4.201-4.805-2.512 0-4.202 1.907-4.202 4.805 0 2.874 1.69 4.781 4.202 4.781zm0-1.279c-1.908 0-2.777-1.642-2.777-3.502 0-1.859.869-3.525 2.777-3.525 1.907 0 2.777 1.666 2.777 3.525 0 1.86-.87 3.502-2.777 3.502z"/><path d="m529.708 564.482h-1.98v-2.222h-1.425v2.222h-1.401v1.207h1.401v5.795c0 1.618 1.304 2.391 2.511 2.391.532 0 .87-.097 1.063-.169l-.29-1.28c-.121.024-.314.073-.628.073-.628 0-1.231-.194-1.231-1.401v-5.409h1.98z"/><path d="m531.851 573.754h1.425v-9.272h-1.425zm.724-10.818c.556 0 1.015-.435 1.015-.966s-.459-.966-1.015-.966c-.555 0-1.014.435-1.014.966s.459.966 1.014.966z"/><path d="m537.31 568.176c0-1.618 1.002-2.535 2.366-2.535 1.322 0 2.125.863 2.125 2.318v5.795h1.425v-5.892c0-2.366-1.262-3.501-3.139-3.501-1.401 0-2.27.628-2.705 1.569h-.12v-1.448h-1.377v9.272h1.425z"/><path d="m549.572 577.425c2.222 0 4.009-1.014 4.009-3.405v-9.538h-1.377v1.473h-.144c-.314-.483-.894-1.594-2.705-1.594-2.342 0-3.96 1.859-3.96 4.709 0 2.897 1.69 4.539 3.936 4.539 1.811 0 2.391-1.062 2.704-1.569h.121v1.883c0 1.546-1.086 2.246-2.584 2.246-1.684 0-2.276-.887-2.656-1.401l-1.135.797c.58.972 1.721 1.86 3.791 1.86zm-.048-5.095c-1.787 0-2.704-1.353-2.704-3.285 0-1.883.893-3.404 2.704-3.404 1.739 0 2.656 1.4 2.656 3.404 0 2.053-.941 3.285-2.656 3.285z"/><path d="m565.003 564.482h-1.98v-2.222h-1.425v2.222h-1.401v1.207h1.401v5.795c0 1.618 1.304 2.391 2.511 2.391.532 0 .87-.097 1.063-.169l-.29-1.28c-.121.024-.314.073-.628.073-.628 0-1.231-.194-1.231-1.401v-5.409h1.98z"/><path d="m570.813 573.947c2.512 0 4.202-1.907 4.202-4.781 0-2.898-1.69-4.805-4.202-4.805-2.511 0-4.201 1.907-4.201 4.805 0 2.874 1.69 4.781 4.201 4.781zm0-1.279c-1.907 0-2.777-1.642-2.777-3.502 0-1.859.87-3.525 2.777-3.525 1.908 0 2.777 1.666 2.777 3.525 0 1.86-.869 3.502-2.777 3.502z"/><path d="m581.971 577.232h1.425v-4.902h.121c.313.507.917 1.617 2.704 1.617 2.318 0 3.936-1.859 3.936-4.805 0-2.922-1.618-4.781-3.96-4.781-1.811 0-2.367 1.111-2.68 1.594h-.17v-1.473h-1.376zm1.401-8.114c0-2.077.917-3.477 2.656-3.477 1.811 0 2.704 1.521 2.704 3.477 0 1.98-.917 3.55-2.704 3.55-1.715 0-2.656-1.449-2.656-3.55z"/><path d="m595.059 573.972c1.618 0 2.463-.87 2.753-1.473h.072v1.255h1.425v-6.109c0-2.946-2.246-3.284-3.429-3.284-1.4 0-2.994.483-3.719 2.173l1.353.483c.314-.676 1.056-1.401 2.414-1.401 1.31 0 1.956.695 1.956 1.884v.048c0 .689-.7.628-2.39.845-1.721.224-3.598.604-3.598 2.729 0 1.811 1.4 2.85 3.163 2.85zm.217-1.28c-1.134 0-1.956-.507-1.956-1.497 0-1.087.991-1.425 2.101-1.57.604-.072 2.222-.241 2.463-.531v1.304c0 1.159-.917 2.294-2.608 2.294z"/><path d="m602.495 577.207c1.286 0 2.198-.682 2.729-2.1l3.948-10.601-1.558-.024-2.559 7.389h-.097l-2.559-7.389h-1.546l3.429 9.321-.266.724c-.507 1.388-1.159 1.521-2.197 1.256l-.362 1.255c.145.073.555.169 1.038.169z"/><path d="m611.057 573.754h1.425v-5.795c0-1.358.99-2.318 2.101-2.318 1.08 0 1.835.706 1.835 1.762v6.351h1.449v-6.037c0-1.195.748-2.076 2.052-2.076 1.014 0 1.884.537 1.884 1.907v6.206h1.424v-6.206c0-2.179-1.171-3.187-2.825-3.187-1.328 0-2.3.61-2.777 1.569h-.096c-.459-.99-1.268-1.569-2.488-1.569-1.207 0-2.1.579-2.487 1.569h-.121v-1.448h-1.376z"/><path d="m629.72 573.947c1.884 0 3.26-.941 3.695-2.342l-1.377-.386c-.362.966-1.201 1.449-2.318 1.449-1.672 0-2.825-1.081-2.892-3.067h6.732v-.604c0-3.453-2.053-4.636-3.985-4.636-2.511 0-4.177 1.98-4.177 4.829 0 2.85 1.642 4.757 4.322 4.757zm-2.892-5.578c.097-1.442 1.117-2.728 2.747-2.728 1.546 0 2.536 1.159 2.536 2.728z"/><path d="m637.152 568.176c0-1.618 1.002-2.535 2.366-2.535 1.322 0 2.125.863 2.125 2.318v5.795h1.425v-5.892c0-2.366-1.262-3.501-3.139-3.501-1.401 0-2.27.628-2.705 1.569h-.121v-1.448h-1.376v9.272h1.425z"/><path d="m649.704 564.482h-1.98v-2.222h-1.425v2.222h-1.4v1.207h1.4v5.795c0 1.618 1.304 2.391 2.511 2.391.532 0 .87-.097 1.063-.169l-.29-1.28c-.121.024-.314.073-.628.073-.627 0-1.231-.194-1.231-1.401v-5.409h1.98z"/><path d="m653.972 572.064h-1.545l-.073.676c-.175 1.636-.519 3.266-.676 4.033h1.087c.289-.821.905-2.681 1.11-4.057z"/><path d="m665.426 564.482h-1.981v-2.222h-1.424v2.222h-1.401v1.207h1.401v5.795c0 1.618 1.304 2.391 2.511 2.391.531 0 .869-.097 1.063-.169l-.29-1.28c-.121.024-.314.073-.628.073-.628 0-1.232-.194-1.232-1.401v-5.409h1.981z"/><path d="m669.193 568.176c0-1.618 1.032-2.535 2.439-2.535 1.34 0 2.149.845 2.149 2.318v5.795h1.424v-5.892c0-2.384-1.267-3.501-3.163-3.501-1.461 0-2.294.61-2.729 1.569h-.12v-4.539h-1.425v12.363h1.425z"/><path d="m681.7 573.947c1.883 0 3.26-.941 3.694-2.342l-1.376-.386c-.362.966-1.202 1.449-2.318 1.449-1.673 0-2.826-1.081-2.892-3.067h6.731v-.604c0-3.453-2.052-4.636-3.984-4.636-2.512 0-4.178 1.98-4.178 4.829 0 2.85 1.642 4.757 4.323 4.757zm-2.892-5.578c.097-1.442 1.117-2.728 2.747-2.728 1.545 0 2.535 1.159 2.535 2.728z"/><path d="m703.113 567.572c0-3.911-2.294-6.35-5.458-6.35-3.163 0-5.457 2.439-5.457 6.35 0 3.912 2.294 6.351 5.457 6.351 3.164 0 5.458-2.439 5.458-6.351zm-1.449 0c0 3.212-1.763 4.951-4.009 4.951-2.245 0-4.008-1.739-4.008-4.951 0-3.211 1.763-4.95 4.008-4.95 2.246 0 4.009 1.739 4.009 4.95z"/><path d="m705.437 577.232h1.425v-4.902h.12c.314.507.918 1.617 2.705 1.617 2.318 0 3.936-1.859 3.936-4.805 0-2.922-1.618-4.781-3.96-4.781-1.811 0-2.367 1.111-2.681 1.594h-.169v-1.473h-1.376zm1.4-8.114c0-2.077.918-3.477 2.657-3.477 1.811 0 2.704 1.521 2.704 3.477 0 1.98-.917 3.55-2.704 3.55-1.715 0-2.657-1.449-2.657-3.55z"/><path d="m721.64 569.963c0 1.739-1.328 2.536-2.391 2.536-1.183 0-2.028-.87-2.028-2.222v-5.795h-1.425v5.892c0 2.366 1.256 3.501 2.995 3.501 1.4 0 2.318-.749 2.752-1.69h.097v1.569h1.425v-9.272h-1.425z"/><path d="m732.242 566.558c-.446-1.316-1.448-2.197-3.284-2.197-1.956 0-3.405 1.111-3.405 2.68 0 1.28.761 2.137 2.464 2.536l1.545.362c.936.217 1.376.664 1.376 1.304 0 .797-.845 1.449-2.173 1.449-1.165 0-1.896-.501-2.149-1.497l-1.352.338c.332 1.575 1.63 2.414 3.525 2.414 2.155 0 3.622-1.177 3.622-2.777 0-1.291-.809-2.106-2.463-2.511l-1.376-.338c-1.099-.272-1.594-.64-1.594-1.352 0-.797.845-1.377 1.98-1.377 1.244 0 1.757.689 2.005 1.328z"/><path d="m738.468 561.197c-2.511-.024-4.129 1.86-4.129 4.154 0 2.39 1.762 4.105 3.887 4.105 1.28 0 2.367-.628 3.043-1.642h.097c0 3.043-1.184 4.781-3.091 4.781-1.304 0-2.101-.821-2.367-1.956h-1.473c.29 1.956 1.763 3.284 3.84 3.284 2.777 0 4.491-2.463 4.491-6.858 0-4.564-2.27-5.843-4.298-5.868zm0 1.329c1.545 0 2.68 1.328 2.68 2.801s-1.207 2.801-2.728 2.801c-1.522 0-2.632-1.232-2.632-2.777 0-1.57 1.159-2.825 2.68-2.825z"/><path d="m343.135 591.391v12.363h1.401v-9.393h.12l3.864 9.393h1.352l3.864-9.393h.121v9.393h1.4v-12.363h-1.787l-4.202 10.262h-.144l-4.202-10.262z"/><path d="m360.794 603.972c1.618 0 2.464-.87 2.753-1.473h.073v1.255h1.424v-6.109c0-2.946-2.245-3.284-3.428-3.284-1.401 0-2.995.483-3.719 2.173l1.352.483c.314-.676 1.056-1.401 2.415-1.401 1.31 0 1.956.695 1.956 1.884v.048c0 .689-.701.628-2.391.845-1.72.224-3.598.604-3.598 2.729 0 1.811 1.401 2.85 3.163 2.85zm.218-1.28c-1.135 0-1.956-.507-1.956-1.497 0-1.087.99-1.425 2.101-1.57.603-.072 2.221-.241 2.463-.531v1.304c0 1.159-.918 2.294-2.608 2.294z"/><path d="m367.645 603.754h1.425v-5.868c0-1.255.99-2.173 2.342-2.173.38 0 .773.073.869.097v-1.449c-.163-.012-.537-.024-.748-.024-1.111 0-2.077.627-2.415 1.545h-.097v-1.4h-1.376z"/><path d="m373.97 603.754h1.425v-3.471l.996-.924 3.471 4.395h1.811l-4.208-5.312 3.918-3.96h-1.762l-4.057 4.129h-.169v-7.22h-1.425z"/><path d="m386.723 603.947c1.884 0 3.26-.941 3.695-2.342l-1.377-.386c-.362.966-1.201 1.449-2.318 1.449-1.672 0-2.825-1.081-2.892-3.067h6.732v-.604c0-3.453-2.053-4.636-3.985-4.636-2.511 0-4.177 1.98-4.177 4.829 0 2.85 1.642 4.757 4.322 4.757zm-2.892-5.578c.097-1.442 1.117-2.728 2.747-2.728 1.546 0 2.536 1.159 2.536 2.728z"/><path d="m396.763 594.482h-1.981v-2.222h-1.424v2.222h-1.401v1.207h1.401v5.795c0 1.618 1.304 2.391 2.511 2.391.531 0 .869-.097 1.063-.169l-.29-1.28c-.121.024-.314.073-.628.073-.628 0-1.232-.194-1.232-1.401v-5.409h1.981z"/><path d="m398.906 607.232h1.424v-4.902h.121c.314.507.918 1.617 2.705 1.617 2.318 0 3.936-1.859 3.936-4.805 0-2.922-1.618-4.781-3.961-4.781-1.811 0-2.366 1.111-2.68 1.594h-.169v-1.473h-1.376zm1.4-8.114c0-2.077.918-3.477 2.656-3.477 1.812 0 2.705 1.521 2.705 3.477 0 1.98-.918 3.55-2.705 3.55-1.714 0-2.656-1.449-2.656-3.55z"/><path d="m410.69 591.391h-1.425v12.363h1.425z"/><path d="m416.028 603.972c1.618 0 2.463-.87 2.753-1.473h.072v1.255h1.425v-6.109c0-2.946-2.246-3.284-3.429-3.284-1.401 0-2.994.483-3.719 2.173l1.352.483c.314-.676 1.057-1.401 2.415-1.401 1.31 0 1.956.695 1.956 1.884v.048c0 .689-.7.628-2.39.845-1.721.224-3.598.604-3.598 2.729 0 1.811 1.4 2.85 3.163 2.85zm.217-1.28c-1.135 0-1.956-.507-1.956-1.497 0-1.087.99-1.425 2.101-1.57.604-.072 2.222-.241 2.463-.531v1.304c0 1.159-.917 2.294-2.608 2.294z"/><path d="m426.645 603.947c2.053 0 3.405-1.255 3.647-2.897h-1.425c-.266 1.014-1.111 1.618-2.222 1.618-1.69 0-2.777-1.401-2.777-3.55 0-2.101 1.111-3.477 2.777-3.477 1.256 0 2.005.772 2.222 1.618h1.425c-.242-1.739-1.715-2.898-3.671-2.898-2.511 0-4.177 1.98-4.177 4.805 0 2.777 1.593 4.781 4.201 4.781z"/><path d="m436.262 603.947c1.884 0 3.26-.941 3.695-2.342l-1.377-.386c-.362.966-1.201 1.449-2.318 1.449-1.672 0-2.825-1.081-2.892-3.067h6.732v-.604c0-3.453-2.053-4.636-3.985-4.636-2.511 0-4.177 1.98-4.177 4.829 0 2.85 1.642 4.757 4.322 4.757zm-2.892-5.578c.097-1.442 1.117-2.728 2.747-2.728 1.546 0 2.536 1.159 2.536 2.728z"/><path d="m447.05 603.754h1.425v-9.272h-1.425zm.725-10.818c.555 0 1.014-.435 1.014-.966s-.459-.966-1.014-.966c-.556 0-1.015.435-1.015.966s.459.966 1.015.966z"/><path d="m457.653 596.558c-.447-1.316-1.449-2.197-3.285-2.197-1.956 0-3.404 1.111-3.404 2.68 0 1.28.76 2.137 2.463 2.536l1.545.362c.936.217 1.377.664 1.377 1.304 0 .797-.846 1.449-2.174 1.449-1.165 0-1.895-.501-2.149-1.497l-1.352.338c.332 1.575 1.63 2.414 3.525 2.414 2.156 0 3.623-1.177 3.623-2.777 0-1.291-.809-2.106-2.464-2.511l-1.376-.338c-1.099-.272-1.594-.64-1.594-1.352 0-.797.845-1.377 1.98-1.377 1.244 0 1.757.689 2.005 1.328z"/><path d="m465.665 607.207c1.286 0 2.197-.682 2.729-2.1l3.948-10.601-1.558-.024-2.559 7.389h-.097l-2.56-7.389h-1.545l3.429 9.321-.266.724c-.507 1.388-1.159 1.521-2.197 1.256l-.362 1.255c.145.073.555.169 1.038.169z"/><path d="m477.662 603.947c2.511 0 4.202-1.907 4.202-4.781 0-2.898-1.691-4.805-4.202-4.805s-4.202 1.907-4.202 4.805c0 2.874 1.691 4.781 4.202 4.781zm0-1.279c-1.908 0-2.777-1.642-2.777-3.502 0-1.859.869-3.525 2.777-3.525s2.777 1.666 2.777 3.525c0 1.86-.869 3.502-2.777 3.502z"/><path d="m489.882 599.963c0 1.739-1.328 2.536-2.39 2.536-1.184 0-2.029-.87-2.029-2.222v-5.795h-1.425v5.892c0 2.366 1.256 3.501 2.995 3.501 1.4 0 2.318-.749 2.753-1.69h.096v1.569h1.425v-9.272h-1.425z"/><path d="m493.916 603.754h1.425v-5.868c0-1.255.99-2.173 2.342-2.173.381 0 .773.073.87.097v-1.449c-.163-.012-.538-.024-.749-.024-1.111 0-2.077.627-2.415 1.545h-.096v-1.4h-1.377z"/><path d="m504.999 603.754h7.799v-1.328h-5.747v-.096l2.777-2.971c2.125-2.276 2.753-3.338 2.753-4.708 0-1.908-1.545-3.429-3.719-3.429-2.167 0-3.815 1.473-3.815 3.646h1.425c0-1.407.911-2.342 2.342-2.342 1.34 0 2.366.821 2.366 2.125 0 1.141-.67 1.986-2.1 3.549l-4.081 4.468z"/><path d="m514.736 601.219h5.82v2.535h1.425v-2.535h1.69v-1.328h-1.69v-8.5h-1.812l-5.433 8.596zm5.82-1.328h-4.202v-.097l4.105-6.496h.097z"/><path d="m530.328 590.811h-1.304l-3.984 14.803h1.304z"/><path d="m532.379 603.754h1.57l5.505-10.963v-1.4h-7.92v1.328h6.375v.096z"/><path d="m553.078 596.558c-.446-1.316-1.449-2.197-3.284-2.197-1.956 0-3.405 1.111-3.405 2.68 0 1.28.761 2.137 2.463 2.536l1.546.362c.936.217 1.376.664 1.376 1.304 0 .797-.845 1.449-2.173 1.449-1.165 0-1.896-.501-2.149-1.497l-1.352.338c.332 1.575 1.63 2.414 3.525 2.414 2.155 0 3.622-1.177 3.622-2.777 0-1.291-.809-2.106-2.463-2.511l-1.376-.338c-1.099-.272-1.594-.64-1.594-1.352 0-.797.845-1.377 1.98-1.377 1.244 0 1.757.689 2.004 1.328z"/><path d="m556.817 598.176c0-1.618 1.032-2.535 2.439-2.535 1.34 0 2.149.845 2.149 2.318v5.795h1.424v-5.892c0-2.384-1.267-3.501-3.163-3.501-1.461 0-2.294.61-2.729 1.569h-.12v-4.539h-1.425v12.363h1.425z"/><path d="m565.436 603.754h1.425v-9.272h-1.425zm.724-10.818c.556 0 1.015-.435 1.015-.966s-.459-.966-1.015-.966c-.555 0-1.014.435-1.014.966s.459.966 1.014.966z"/><path d="m569.47 607.232h1.425v-4.902h.121c.313.507.917 1.617 2.704 1.617 2.318 0 3.936-1.859 3.936-4.805 0-2.922-1.618-4.781-3.96-4.781-1.811 0-2.367 1.111-2.68 1.594h-.169v-1.473h-1.377zm1.401-8.114c0-2.077.917-3.477 2.656-3.477 1.811 0 2.704 1.521 2.704 3.477 0 1.98-.917 3.55-2.704 3.55-1.715 0-2.656-1.449-2.656-3.55z"/><path d="m579.829 607.232h1.425v-4.902h.121c.314.507.918 1.617 2.704 1.617 2.319 0 3.937-1.859 3.937-4.805 0-2.922-1.618-4.781-3.961-4.781-1.811 0-2.366 1.111-2.68 1.594h-.169v-1.473h-1.377zm1.401-8.114c0-2.077.918-3.477 2.656-3.477 1.811 0 2.705 1.521 2.705 3.477 0 1.98-.918 3.55-2.705 3.55-1.714 0-2.656-1.449-2.656-3.55z"/><path d="m590.189 603.754h1.425v-9.272h-1.425zm.724-10.818c.556 0 1.014-.435 1.014-.966s-.458-.966-1.014-.966c-.555 0-1.014.435-1.014.966s.459.966 1.014.966z"/><path d="m595.648 598.176c0-1.618 1.002-2.535 2.366-2.535 1.322 0 2.125.863 2.125 2.318v5.795h1.425v-5.892c0-2.366-1.262-3.501-3.139-3.501-1.401 0-2.27.628-2.705 1.569h-.121v-1.448h-1.376v9.272h1.425z"/><path d="m607.91 607.425c2.222 0 4.009-1.014 4.009-3.405v-9.538h-1.377v1.473h-.145c-.313-.483-.893-1.594-2.704-1.594-2.342 0-3.96 1.859-3.96 4.709 0 2.897 1.69 4.539 3.936 4.539 1.811 0 2.39-1.062 2.704-1.569h.121v1.883c0 1.546-1.087 2.246-2.584 2.246-1.684 0-2.276-.887-2.656-1.401l-1.135.797c.58.972 1.721 1.86 3.791 1.86zm-.048-5.095c-1.787 0-2.705-1.353-2.705-3.285 0-1.883.894-3.404 2.705-3.404 1.739 0 2.656 1.4 2.656 3.404 0 2.053-.942 3.285-2.656 3.285z"/><path d="m622.809 603.947c1.787 0 2.391-1.11 2.705-1.617h.169v1.424h1.376v-12.363h-1.424v4.564h-.121c-.314-.483-.869-1.594-2.68-1.594-2.343 0-3.961 1.859-3.961 4.781 0 2.946 1.618 4.805 3.936 4.805zm.194-1.279c-1.787 0-2.705-1.57-2.705-3.55 0-1.956.893-3.477 2.705-3.477 1.738 0 2.656 1.4 2.656 3.477 0 2.101-.942 3.55-2.656 3.55z"/><path d="m633.754 603.947c1.884 0 3.26-.941 3.695-2.342l-1.376-.386c-.363.966-1.202 1.449-2.319 1.449-1.672 0-2.825-1.081-2.891-3.067h6.731v-.604c0-3.453-2.053-4.636-3.985-4.636-2.511 0-4.177 1.98-4.177 4.829 0 2.85 1.642 4.757 4.322 4.757zm-2.891-5.578c.096-1.442 1.116-2.728 2.746-2.728 1.546 0 2.536 1.159 2.536 2.728z"/><path d="m646.329 596.558c-.446-1.316-1.449-2.197-3.284-2.197-1.956 0-3.405 1.111-3.405 2.68 0 1.28.761 2.137 2.463 2.536l1.546.362c.936.217 1.376.664 1.376 1.304 0 .797-.845 1.449-2.173 1.449-1.165 0-1.896-.501-2.149-1.497l-1.352.338c.332 1.575 1.63 2.414 3.525 2.414 2.155 0 3.622-1.177 3.622-2.777 0-1.291-.809-2.106-2.463-2.511l-1.376-.338c-1.099-.272-1.594-.64-1.594-1.352 0-.797.845-1.377 1.98-1.377 1.244 0 1.757.689 2.004 1.328z"/><path d="m652.676 594.482h-1.981v-2.222h-1.424v2.222h-1.401v1.207h1.401v5.795c0 1.618 1.304 2.391 2.511 2.391.531 0 .869-.097 1.063-.169l-.29-1.28c-.121.024-.314.073-.628.073-.628 0-1.232-.194-1.232-1.401v-5.409h1.981z"/><path d="m654.819 603.754h1.424v-9.272h-1.424zm.724-10.818c.556 0 1.014-.435 1.014-.966s-.458-.966-1.014-.966c-.555 0-1.014.435-1.014.966s.459.966 1.014.966z"/><path d="m660.278 598.176c0-1.618 1.002-2.535 2.366-2.535 1.322 0 2.125.863 2.125 2.318v5.795h1.425v-5.892c0-2.366-1.262-3.501-3.139-3.501-1.401 0-2.27.628-2.705 1.569h-.121v-1.448h-1.376v9.272h1.425z"/><path d="m671.526 603.972c1.618 0 2.463-.87 2.753-1.473h.072v1.255h1.425v-6.109c0-2.946-2.246-3.284-3.429-3.284-1.401 0-2.994.483-3.719 2.173l1.352.483c.314-.676 1.057-1.401 2.415-1.401 1.31 0 1.956.695 1.956 1.884v.048c0 .689-.7.628-2.39.845-1.721.224-3.598.604-3.598 2.729 0 1.811 1.4 2.85 3.163 2.85zm.217-1.28c-1.135 0-1.956-.507-1.956-1.497 0-1.087.99-1.425 2.101-1.57.604-.072 2.222-.241 2.463-.531v1.304c0 1.159-.917 2.294-2.608 2.294z"/><path d="m682.409 594.482h-1.98v-2.222h-1.425v2.222h-1.4v1.207h1.4v5.795c0 1.618 1.304 2.391 2.512 2.391.531 0 .869-.097 1.062-.169l-.29-1.28c-.12.024-.314.073-.628.073-.627 0-1.231-.194-1.231-1.401v-5.409h1.98z"/><path d="m684.552 603.754h1.425v-9.272h-1.425zm.725-10.818c.555 0 1.014-.435 1.014-.966s-.459-.966-1.014-.966c-.556 0-1.015.435-1.015.966s.459.966 1.015.966z"/><path d="m692.353 603.947c2.512 0 4.202-1.907 4.202-4.781 0-2.898-1.69-4.805-4.202-4.805-2.511 0-4.201 1.907-4.201 4.805 0 2.874 1.69 4.781 4.201 4.781zm0-1.279c-1.907 0-2.777-1.642-2.777-3.502 0-1.859.87-3.525 2.777-3.525 1.908 0 2.777 1.666 2.777 3.525 0 1.86-.869 3.502-2.777 3.502z"/><path d="m700.155 598.176c0-1.618 1.002-2.535 2.366-2.535 1.322 0 2.125.863 2.125 2.318v5.795h1.425v-5.892c0-2.366-1.262-3.501-3.139-3.501-1.401 0-2.27.628-2.705 1.569h-.121v-1.448h-1.376v9.272h1.425z"/><path d="m709.713 603.851c.597 0 1.086-.489 1.086-1.087 0-.597-.489-1.086-1.086-1.086-.598 0-1.087.489-1.087 1.086 0 .598.489 1.087 1.087 1.087z"/></g></g><g fill="#14172e" opacity=".5"><path d="m961.278 211.184c.324.768.768 1.44 1.332 2.016.576.564 1.242 1.008 1.998 1.332.372.156.762.276 1.17.36.408.072.834.108 1.278.108.96 0 1.824-.15 2.592-.45.78-.288 1.476-.714 2.088-1.278-.324-.648-.648-1.29-.972-1.926-.48.492-1.026.882-1.638 1.17s-1.308.432-2.088.432c-.6 0-1.152-.102-1.656-.306-.252-.096-.492-.222-.72-.378-.216-.144-.42-.312-.612-.504-.372-.384-.666-.828-.882-1.332-.216-.516-.324-1.098-.324-1.746 0-.612.108-1.182.324-1.71s.51-.978.882-1.35c.384-.384.834-.678 1.35-.882s1.08-.306 1.692-.306c.756 0 1.422.144 1.998.432.576.3 1.092.678 1.548 1.134.324-.636.648-1.272.972-1.908-.312-.276-.636-.516-.972-.72-.336-.216-.69-.396-1.062-.54-.732-.3-1.548-.45-2.448-.45-.456 0-.888.036-1.296.108-.42.084-.822.204-1.206.36s-.744.348-1.08.576c-.336.216-.648.468-.936.756-.564.552-1.008 1.218-1.332 1.998-.324.756-.486 1.584-.486 2.484 0 .912.162 1.752.486 2.52z"/><path d="m972.915 210.5c0 .684.12 1.314.36 1.89.12.3.264.57.432.81.168.252.36.48.576.684.42.408.924.732 1.512.972.576.24 1.206.36 1.89.36s1.32-.12 1.908-.36c.576-.24 1.08-.564 1.512-.972.204-.204.39-.432.558-.684.168-.24.312-.51.432-.81.24-.576.36-1.206.36-1.89s-.12-1.32-.36-1.908c-.12-.288-.264-.558-.432-.81s-.354-.48-.558-.684c-.432-.42-.936-.744-1.512-.972-.588-.228-1.224-.342-1.908-.342s-1.314.114-1.89.342c-.588.228-1.092.552-1.512.972-.432.42-.768.918-1.008 1.494-.24.588-.36 1.224-.36 1.908zm7.542 0c0 .204-.018.402-.054.594-.036.204-.084.39-.144.558-.072.168-.156.33-.252.486-.096.144-.204.276-.324.396-.252.252-.546.444-.882.576-.336.144-.708.216-1.116.216s-.78-.072-1.116-.216c-.336-.132-.624-.324-.864-.576-.132-.12-.246-.252-.342-.396-.096-.156-.174-.318-.234-.486-.144-.348-.216-.732-.216-1.152s.072-.804.216-1.152c.132-.348.324-.648.576-.9.24-.24.528-.432.864-.576.168-.06.348-.108.54-.144.18-.036.372-.054.576-.054s.402.018.594.054c.18.036.354.084.522.144.336.144.63.336.882.576.24.252.432.552.576.9.06.168.108.348.144.54.036.204.054.408.054.612z"/><path d="m986.107 202.4c-.66 0-1.32 0-1.98 0v12.6h1.98c0-4.2 0-8.4 0-12.6z"/><path d="m987.786 210.5c0 .684.12 1.314.36 1.89.12.3.264.57.432.81.168.252.36.48.576.684.42.408.924.732 1.512.972.576.24 1.206.36 1.89.36s1.32-.12 1.908-.36c.576-.24 1.08-.564 1.512-.972.204-.204.39-.432.558-.684.168-.24.312-.51.432-.81.24-.576.36-1.206.36-1.89s-.12-1.32-.36-1.908c-.12-.288-.264-.558-.432-.81s-.354-.48-.558-.684c-.432-.42-.936-.744-1.512-.972-.588-.228-1.224-.342-1.908-.342s-1.314.114-1.89.342c-.588.228-1.092.552-1.512.972-.432.42-.768.918-1.008 1.494-.24.588-.36 1.224-.36 1.908zm7.542 0c0 .204-.018.402-.054.594-.036.204-.084.39-.144.558-.072.168-.156.33-.252.486-.096.144-.204.276-.324.396-.252.252-.546.444-.882.576-.336.144-.708.216-1.116.216s-.78-.072-1.116-.216c-.336-.132-.624-.324-.864-.576-.132-.12-.246-.252-.342-.396-.096-.156-.174-.318-.234-.486-.144-.348-.216-.732-.216-1.152s.072-.804.216-1.152c.132-.348.324-.648.576-.9.24-.24.528-.432.864-.576.168-.06.348-.108.54-.144.18-.036.372-.054.576-.054s.402.018.594.054c.18.036.354.084.522.144.336.144.63.336.882.576.24.252.432.552.576.9.06.168.108.348.144.54.036.204.054.408.054.612z"/><path d="m1000.87 207.422c0-.48 0-.954 0-1.422-.62 0-1.248 0-1.872 0v9h1.942c0-1.38 0-2.754 0-4.122 0-.96.19-1.71.56-2.25.37-.528 1.01-.792 1.91-.792.18 0 .35.012.52.036.08.012.16.024.23.036.08.012.15.03.24.054 0-.696 0-1.386 0-2.07-.29-.072-.58-.108-.88-.108-.64 0-1.17.144-1.59.432-.43.288-.78.69-1.06 1.206z"/><path d="m1005.57 208.538c0 .492.1.9.3 1.224.21.336.46.606.76.81.15.096.32.186.5.27.17.072.35.138.54.198.39.12.75.216 1.08.288.69.144 1.19.282 1.51.414.33.144.49.39.49.738s-.14.594-.43.738c-.29.156-.66.234-1.12.234-.59 0-1.13-.108-1.62-.324-.5-.204-.89-.54-1.17-1.008-.44.42-.89.846-1.33 1.278.19.312.43.588.7.828.28.228.59.414.94.558.71.288 1.49.432 2.36.432.54 0 1.03-.06 1.49-.18.44-.108.83-.282 1.15-.522.31-.228.56-.522.74-.882s.27-.786.27-1.278-.08-.9-.25-1.224c-.18-.312-.42-.57-.7-.774-.29-.204-.62-.366-.98-.486-.37-.108-.75-.204-1.13-.288-.71-.168-1.24-.312-1.58-.432-.36-.132-.54-.366-.54-.702 0-.276.13-.492.41-.648.13-.084.29-.144.47-.18.17-.036.36-.054.59-.054.57 0 1.05.102 1.46.306.4.216.7.486.92.81.44-.42.88-.84 1.31-1.26-.37-.504-.84-.906-1.42-1.206-.58-.288-1.3-.432-2.16-.432-.56 0-1.06.06-1.49.18-.45.132-.83.318-1.14.558s-.54.528-.7.864c-.16.348-.23.732-.23 1.152z"/></g><g fill="#fff"><path d="m1518 470.258v-1.094l-2.06-.34v-1.117l-1.1-.184v1.122l-1.68-.274v-1.129l-1.1-.179v1.128l-2.06-.339v1.093l2.06.34v1.719l-2.06-.34v1.094l2.06.34v1.121l1.1.179v-1.121l1.68.274v1.129l1.1.183v-1.133l2.06.34v-1.093l-2.06-.34v-1.719zm-3.16 1.199-1.68-.273v-1.719l1.68.273z"/><path d="m1518.11 458.85c0-1.711-.98-2.957-2.33-2.953-1-.004-1.72.621-1.88 1.742h-.06c-.19-.867-.84-1.449-1.73-1.445-1.22-.004-2.22 1.035-2.22 2.633 0 1.555.93 2.758 2.27 2.789v-1.395c-.68-.023-1.09-.648-1.09-1.386 0-.746.45-1.242 1.12-1.239.7-.003 1.17.575 1.17 1.403v.707h1.11v-.707c0-1.012.51-1.613 1.23-1.61.71-.003 1.19.61 1.19 1.465 0 .805-.41 1.426-1.07 1.461v1.469c1.36-.039 2.29-1.246 2.29-2.934z"/><path d="m1518 453.598v-3.238c0-1.832-.93-2.73-2.18-2.73-1.21 0-1.92.859-1.96 1.71h-.08c-.19-.781-.73-1.398-1.71-1.398-1.19 0-2.07.859-2.07 2.594v3.062zm-1.21-1.449h-2.34v-1.598c0-.894.54-1.449 1.26-1.449.63 0 1.08.438 1.08 1.488zm-3.39 0h-2.2v-1.465c0-.851.44-1.293 1.06-1.293.7 0 1.14.571 1.14 1.324z"/><path d="m1518 445.567v-5.484h-1.21v3.484h-.06l-1.4-1.379c-1.49-1.555-2.22-1.984-3.12-1.984-1.34 0-2.32 1.09-2.32 2.699 0 1.586.98 2.711 2.5 2.711v-1.379c-.81 0-1.32-.516-1.32-1.313 0-.761.46-1.328 1.22-1.328.66 0 1.14.407 1.94 1.196l2.72 2.777z"/><path d="m1518 437.562v-1.504l-6.76-3.398h-1.24v5.449h1.21v-3.949h.06z"/><path d="m1516.52 431.308v-3.816h1.48v-1.383h-1.48v-1.024h-1.2v1.024h-5.32v1.804l5.36 3.395zm-1.2-3.832v2.348h-.06l-3.62-2.286v-.062z"/><path d="m1518 422.879v-1.449h-3.4v-3.324h-1.21v3.324h-2.18v-3.676h-1.21v5.125z"/><path d="m1373 470.258v-1.094l-2.06-.34v-1.117l-1.1-.184v1.122l-1.68-.274v-1.129l-1.1-.179v1.128l-2.06-.339v1.093l2.06.34v1.719l-2.06-.34v1.094l2.06.34v1.121l1.1.179v-1.121l1.68.274v1.129l1.1.183v-1.133l2.06.34v-1.093l-2.06-.34v-1.719zm-3.16 1.199-1.68-.273v-1.719l1.68.273z"/><path d="m1373.11 458.85c0-1.711-.98-2.957-2.33-2.953-1-.004-1.72.621-1.88 1.742h-.06c-.19-.867-.84-1.449-1.73-1.445-1.22-.004-2.22 1.035-2.22 2.633 0 1.555.93 2.758 2.27 2.789v-1.395c-.68-.023-1.09-.648-1.09-1.386 0-.746.45-1.242 1.12-1.239.7-.003 1.17.575 1.17 1.403v.707h1.11v-.707c0-1.012.51-1.613 1.23-1.61.71-.003 1.19.61 1.19 1.465 0 .805-.41 1.426-1.07 1.461v1.469c1.36-.039 2.29-1.246 2.29-2.934z"/><path d="m1373 453.598v-3.238c0-1.832-.93-2.73-2.18-2.73-1.21 0-1.92.859-1.96 1.71h-.08c-.19-.781-.73-1.398-1.71-1.398-1.19 0-2.07.859-2.07 2.594v3.062zm-1.21-1.449h-2.34v-1.598c0-.894.54-1.449 1.26-1.449.63 0 1.08.438 1.08 1.488zm-3.39 0h-2.2v-1.465c0-.851.44-1.293 1.06-1.293.7 0 1.14.571 1.14 1.324z"/><path d="m1373 445.567v-5.484h-1.21v3.484h-.06l-1.4-1.379c-1.49-1.555-2.22-1.984-3.12-1.984-1.34 0-2.32 1.09-2.32 2.699 0 1.586.98 2.711 2.5 2.711v-1.379c-.81 0-1.32-.516-1.32-1.313 0-.761.46-1.328 1.22-1.328.66 0 1.14.407 1.94 1.196l2.72 2.777z"/><path d="m1373 437.562v-1.504l-6.76-3.398h-1.24v5.449h1.21v-3.949h.06z"/><path d="m1371.52 431.308v-3.816h1.48v-1.383h-1.48v-1.024h-1.2v1.024h-5.32v1.804l5.36 3.395zm-1.2-3.832v2.348h-.06l-3.62-2.286v-.062z"/><path d="m1373 422.879v-1.449h-3.4v-3.324h-1.21v3.324h-2.18v-3.676h-1.21v5.125z"/><path d="m1373 716.258v-1.094l-2.06-.34v-1.117l-1.1-.184v1.122l-1.68-.274v-1.129l-1.1-.18v1.129l-2.06-.339v1.093l2.06.34v1.719l-2.06-.34v1.094l2.06.34v1.121l1.1.179v-1.121l1.68.274v1.129l1.1.183v-1.133l2.06.34v-1.093l-2.06-.34v-1.719zm-3.16 1.199-1.68-.273v-1.719l1.68.273z"/><path d="m1373 707.643v-1.449h-3.4v-3.324h-1.21v3.324h-2.18v-3.676h-1.21v5.125z"/><path d="m1373.11 697.552c0-1.73-.95-2.968-2.25-2.972-1 .004-1.84.742-2 1.672h-.05c-.18-.809-.91-1.371-1.77-1.375-1.24.004-2.15 1.136-2.15 2.675 0 1.551.91 2.684 2.15 2.68.86.004 1.59-.551 1.77-1.375h.05c.16.945 1 1.676 2 1.672 1.3.004 2.25-1.231 2.25-2.977zm-1.12 0c0 .907-.5 1.493-1.24 1.485-.76.008-1.3-.621-1.3-1.485 0-.851.54-1.476 1.3-1.484.74.008 1.24.59 1.24 1.484zm-3.64 0c0 .743-.48 1.274-1.18 1.266-.69.008-1.15-.508-1.15-1.266 0-.746.46-1.257 1.15-1.265.7.008 1.18.535 1.18 1.265z"/><path d="m1367.7 685.49c-1.78.246-2.81 1.613-2.81 3.386 0 2.09 1.52 3.665 4.11 3.665 2.58 0 4.11-1.555 4.11-3.665 0-1.902-1.23-3.164-2.76-3.386l-.01 1.461c.94.183 1.47.949 1.47 1.906 0 1.297-.97 2.227-2.81 2.227-1.8 0-2.81-.922-2.81-2.231 0-.973.55-1.734 1.51-1.902z"/><path d="m1373.11 680.517c0-1.73-.95-2.969-2.25-2.973-1 .004-1.84.743-2 1.672h-.05c-.18-.808-.91-1.371-1.77-1.375-1.24.004-2.15 1.137-2.15 2.676 0 1.551.91 2.684 2.15 2.68.86.004 1.59-.551 1.77-1.375h.05c.16.945 1 1.675 2 1.672 1.3.003 2.25-1.231 2.25-2.977zm-1.12 0c0 .906-.5 1.492-1.24 1.484-.76.008-1.3-.621-1.3-1.484 0-.852.54-1.477 1.3-1.484.74.007 1.24.589 1.24 1.484zm-3.64 0c0 .742-.48 1.273-1.18 1.266-.69.007-1.15-.508-1.15-1.266 0-.746.46-1.258 1.15-1.266.7.008 1.18.536 1.18 1.266z"/><path d="m1373.11 672.509c0-1.711-.98-2.957-2.33-2.953-1-.004-1.72.621-1.88 1.742h-.06c-.19-.867-.84-1.449-1.73-1.445-1.22-.004-2.22 1.035-2.22 2.633 0 1.554.93 2.757 2.27 2.789v-1.395c-.68-.023-1.09-.648-1.09-1.387 0-.746.45-1.242 1.12-1.238.7-.004 1.17.574 1.17 1.403v.707h1.11v-.707c0-1.012.51-1.614 1.23-1.61.71-.004 1.19.61 1.19 1.465 0 .805-.41 1.426-1.07 1.461v1.469c1.36-.039 2.29-1.246 2.29-2.934z"/><path d="m1373.11 664.405c.01-1.726-1.18-2.886-2.76-2.882-1.51-.004-2.6 1.074-2.6 2.476 0 .86.41 1.617 1.1 2v.055c-1.71-.004-2.73-.621-2.73-1.731 0-.687.4-1.152 1.04-1.3v-1.426c-1.32.172-2.29 1.215-2.29 2.726 0 1.922 1.6 3.137 4.36 3.137 2.93 0 3.87-1.519 3.88-3.055zm-1.17.008c0 .856-.71 1.481-1.55 1.485-.84-.008-1.54-.657-1.54-1.504 0-.848.67-1.469 1.53-1.465.88-.004 1.56.637 1.56 1.484z"/></g><g fill="#1e2225" opacity=".3"><path d="m1655 470.258v-1.094l-2.06-.34v-1.117l-1.1-.184v1.122l-1.68-.274v-1.129l-1.1-.179v1.128l-2.06-.339v1.093l2.06.34v1.719l-2.06-.34v1.094l2.06.34v1.121l1.1.179v-1.121l1.68.274v1.129l1.1.183v-1.133l2.06.34v-1.093l-2.06-.34v-1.719zm-3.16 1.199-1.68-.273v-1.719l1.68.273z"/><path d="m1655 458.932c0-2.437-1.51-3.882-4.01-3.882-2.49 0-3.99 1.445-3.99 3.828v2.765h8zm-1.25 1.262h-5.5v-1.234c0-1.625.91-2.473 2.74-2.473 1.84 0 2.76.848 2.76 2.516z"/><path d="m1655 452.578v-1.504l-6.76-3.399h-1.24v5.45h1.21v-3.95h.06z"/><path d="m1649.7 438.609c-1.78.246-2.81 1.613-2.81 3.387 0 2.089 1.52 3.664 4.11 3.664 2.58 0 4.11-1.555 4.11-3.664 0-1.903-1.23-3.164-2.76-3.387l-.01 1.461c.94.183 1.47.949 1.47 1.906 0 1.297-.97 2.227-2.81 2.227-1.8 0-2.81-.922-2.81-2.231 0-.972.55-1.734 1.51-1.902z"/><path d="m1655 436.402v-3.238c0-1.833-.93-2.731-2.18-2.731-1.21 0-1.92.859-1.96 1.711h-.08c-.19-.781-.73-1.398-1.71-1.398-1.19 0-2.07.859-2.07 2.593v3.063zm-1.21-1.449h-2.34v-1.598c0-.895.54-1.449 1.26-1.449.63 0 1.08.437 1.08 1.488zm-3.39 0h-2.2v-1.465c0-.852.44-1.293 1.06-1.293.7 0 1.14.57 1.14 1.324z"/><path d="m1655 428.292v-5.234h-1.21v3.785h-2.19v-3.484h-1.21v3.484h-2.18v-3.754h-1.21v5.203z"/><path d="m1655.11 418.028c0-1.692-1.15-2.872-2.74-2.872-1.54 0-2.65 1.071-2.65 2.524 0 .648.26 1.223.61 1.519v.047l-2.12-.23v-3.442h-1.21v4.641l4.12.418.22-1.309c-.3-.269-.5-.777-.49-1.257 0-.879.65-1.512 1.56-1.508.89-.004 1.53.613 1.53 1.469 0 .722-.46 1.304-1.12 1.355v1.406c1.33-.039 2.29-1.199 2.29-2.761z"/></g><path d="m1518 722.258v-1.094l-2.06-.34v-1.117l-1.1-.184v1.122l-1.68-.274v-1.129l-1.1-.18v1.129l-2.06-.339v1.093l2.06.34v1.719l-2.06-.34v1.094l2.06.34v1.121l1.1.179v-1.121l1.68.274v1.129l1.1.183v-1.133l2.06.34v-1.093l-2.06-.34v-1.719zm-3.16 1.199-1.68-.273v-1.719l1.68.273z" fill="#fff"/><path d="m1518 713.643v-1.449h-3.4v-3.324h-1.21v3.324h-2.18v-3.676h-1.21v5.125z" fill="#fff"/><path d="m1518.15 703.439c.01-1.93-1.52-3.082-4.14-3.082-2.61 0-4.12 1.16-4.12 3.082s1.5 3.078 4.12 3.082c2.62 0 4.14-1.152 4.14-3.082zm-1.22 0c0 .996-1 1.621-2.92 1.617-1.91-.004-2.91-.625-2.91-1.617 0-.996 1-1.617 2.91-1.621 1.92 0 2.92.621 2.92 1.621z" fill="#fff"/><path d="m1509.87 695.402c-.01 1.734 1.18 2.887 2.76 2.887 1.51 0 2.6-1.079 2.6-2.481 0-.863-.42-1.613-1.1-2v-.055c1.71.004 2.73.625 2.73 1.731 0 .691-.4 1.156-1.04 1.301v1.425c1.32-.164 2.29-1.21 2.29-2.726 0-1.918-1.6-3.133-4.36-3.137-2.93.004-3.87 1.52-3.88 3.055zm1.17-.004c0-.856.71-1.484 1.55-1.484.83 0 1.54.656 1.54 1.5 0 .851-.67 1.468-1.54 1.468s-1.55-.636-1.55-1.484z" fill="#fff"/><path d="m1518 690.088v-5.234h-1.21v3.785h-2.19v-3.484h-1.21v3.484h-2.18v-3.754h-1.21v5.203z" fill="#fff"/><path d="m1518.15 679.648c.01-1.93-1.52-3.082-4.14-3.082-2.61 0-4.12 1.16-4.12 3.082s1.5 3.078 4.12 3.082c2.62 0 4.14-1.153 4.14-3.082zm-1.22 0c0 .996-1 1.621-2.92 1.617-1.91-.004-2.91-.625-2.91-1.617 0-.996 1-1.617 2.91-1.621 1.92 0 2.92.621 2.92 1.621z" fill="#fff"/><path d="m1518.15 671.431c.01-1.93-1.52-3.082-4.14-3.082-2.61 0-4.12 1.16-4.12 3.082s1.5 3.078 4.12 3.082c2.62 0 4.14-1.152 4.14-3.082zm-1.22 0c0 .996-1 1.621-2.92 1.617-1.91-.004-2.91-.625-2.91-1.617 0-.996 1-1.617 2.91-1.621 1.92 0 2.92.621 2.92 1.621z" fill="#fff"/><g fill="#1e2225" opacity=".3"><path d="m1655 722.258v-1.094l-2.06-.34v-1.117l-1.1-.184v1.122l-1.68-.274v-1.129l-1.1-.18v1.129l-2.06-.339v1.093l2.06.34v1.719l-2.06-.34v1.094l2.06.34v1.121l1.1.179v-1.121l1.68.274v1.129l1.1.183v-1.133l2.06.34v-1.093l-2.06-.34v-1.719zm-3.16 1.199-1.68-.273v-1.719l1.68.273z"/><path d="m1655 713.643v-1.449h-3.4v-3.324h-1.21v3.324h-2.18v-3.676h-1.21v5.125z"/><path d="m1649.7 699.47c-1.78.246-2.81 1.614-2.81 3.387 0 2.09 1.52 3.664 4.11 3.664 2.58 0 4.11-1.555 4.11-3.664 0-1.902-1.23-3.164-2.76-3.387l-.01 1.461c.94.184 1.47.95 1.47 1.907 0 1.296-.97 2.226-2.81 2.226-1.8 0-2.81-.922-2.81-2.23 0-.973.55-1.735 1.51-1.903z"/><path d="m1655 694.552c0-2.437-1.51-3.883-4.01-3.883-2.49 0-3.99 1.446-3.99 3.829v2.765h8zm-1.25 1.262h-5.5v-1.234c0-1.625.91-2.473 2.74-2.473 1.84 0 2.76.848 2.76 2.516z"/><path d="m1655 687.761-1.97-.66v-3.008l1.97-.664v-1.547l-8 2.821v1.789l8 2.816zm-3.14-1.051-3.22-1.082v-.062l3.22-1.082z"/><path d="m1655 679.949v-3.239c0-1.832-.93-2.73-2.18-2.73-1.21 0-1.92.859-1.96 1.711h-.08c-.19-.782-.73-1.399-1.71-1.399-1.19 0-2.07.86-2.07 2.594v3.063zm-1.21-1.45h-2.34v-1.597c0-.895.54-1.45 1.26-1.45.63 0 1.08.438 1.08 1.489zm-3.39 0h-2.2v-1.465c0-.851.44-1.293 1.06-1.293.7 0 1.14.571 1.14 1.325z"/><path d="m1646.87 669.14c-.01 1.734 1.18 2.887 2.76 2.887 1.51 0 2.6-1.079 2.6-2.481 0-.863-.42-1.613-1.1-2v-.055c1.71.004 2.73.625 2.73 1.731 0 .691-.4 1.156-1.04 1.301v1.425c1.32-.164 2.29-1.211 2.29-2.726 0-1.918-1.6-3.133-4.36-3.137-2.93.004-3.87 1.52-3.88 3.055zm1.17-.004c0-.856.71-1.484 1.55-1.484.83 0 1.54.656 1.54 1.5 0 .851-.67 1.468-1.54 1.468s-1.55-.636-1.55-1.484z"/></g></svg>