<svg width="130" height="130" viewBox="0 0 130 130" fill="none" xmlns="http://www.w3.org/2000/svg">
<path fill-rule="evenodd" clip-rule="evenodd" d="M50.585 58.9187H69.4587V68.92H50.585V89.9988H62.4894C67.2012 89.9988 71.0556 89.3644 74.0569 88.0869C77.0581 86.8138 79.4119 85.0506 81.1225 82.7931C82.8721 80.4455 84.0631 77.7298 84.605 74.8525C85.2371 71.6069 85.5448 68.3065 85.5237 65C85.5448 61.6935 85.2371 58.3931 84.605 55.1475C84.0637 52.27 82.8726 49.5542 81.1225 47.2069C79.4119 44.9494 77.0537 43.1862 74.0569 41.9131C71.0556 40.6356 67.2012 40.0013 62.4894 40.0013H50.585V58.9231V58.9187ZM38.4838 68.92H32L32 58.9231H38.4838V30L67.1356 30C72.4294 30 77.01 30.9187 80.8819 32.7431C84.7537 34.5762 87.9125 37.0744 90.3669 40.2463C92.8169 43.4137 94.6412 47.1238 95.8356 51.3719C97.03 55.62 97.625 60.1656 97.625 65C97.655 69.6035 97.0514 74.1892 95.8312 78.6281C94.6412 82.8719 92.8169 86.5863 90.3625 89.7538C87.9125 92.9256 84.7537 95.4237 80.8819 97.2569C77.01 99.0856 72.425 100 67.1356 100H38.4838V68.92Z" fill="#565656"/>
</svg>
