<svg width="615" height="615" viewBox="0 0 615 615" fill="none" xmlns="http://www.w3.org/2000/svg">
<path d="M3.26908 352.695L225.342 244.179L447.414 352.695L225.342 462.235L3.26908 352.695Z" stroke="#4C49C7" stroke-width="2"/>
<path d="M3.25006 265.735L225.342 156.068L447.433 265.735L225.342 376.438L3.25006 265.735Z" stroke="url(#paint0_linear_2033_6374)" stroke-width="2"/>
<path d="M226.114 317.27C226.068 317.27 226.031 317.307 226.031 317.353C226.031 317.398 226.068 317.435 226.114 317.435C226.16 317.435 226.197 317.398 226.197 317.353C226.197 317.307 226.16 317.27 226.114 317.27Z" fill="url(#paint1_linear_2033_6374)"/>
<path d="M240.09 324.149C240.131 324.149 240.17 324.165 240.199 324.194C240.228 324.223 240.244 324.262 240.244 324.303C240.244 324.344 240.228 324.383 240.199 324.411C240.17 324.44 240.131 324.456 240.09 324.456C240.07 324.456 240.05 324.452 240.032 324.445C240.013 324.437 239.996 324.426 239.982 324.411C239.967 324.397 239.956 324.38 239.948 324.362C239.941 324.343 239.937 324.323 239.937 324.303C239.937 324.283 239.941 324.263 239.948 324.244C239.956 324.226 239.967 324.208 239.982 324.194C239.996 324.18 240.013 324.169 240.032 324.161C240.05 324.154 240.07 324.149 240.09 324.149Z" fill="url(#paint2_linear_2033_6374)"/>
<path d="M254.067 331.029C253.936 331.029 253.83 331.135 253.83 331.265C253.83 331.395 253.936 331.501 254.067 331.501C254.197 331.501 254.303 331.395 254.303 331.265C254.303 331.135 254.197 331.029 254.067 331.029Z" fill="url(#paint3_linear_2033_6374)"/>
<path d="M268.043 337.897C268.124 337.897 268.203 337.929 268.26 337.987C268.318 338.044 268.35 338.122 268.35 338.203C268.35 338.285 268.318 338.363 268.26 338.421C268.203 338.478 268.124 338.51 268.043 338.51C267.961 338.51 267.883 338.478 267.826 338.421C267.768 338.363 267.735 338.285 267.735 338.203C267.735 338.122 267.768 338.044 267.826 337.987C267.883 337.929 267.961 337.897 268.043 337.897Z" fill="url(#paint4_linear_2033_6374)"/>
<path d="M282.019 344.764C282.07 344.764 282.12 344.774 282.167 344.794C282.214 344.814 282.256 344.843 282.291 344.879C282.326 344.915 282.354 344.958 282.372 345.006C282.391 345.053 282.399 345.103 282.398 345.154C282.398 345.254 282.358 345.35 282.287 345.42C282.216 345.491 282.12 345.531 282.019 345.531C281.97 345.531 281.92 345.521 281.874 345.502C281.829 345.483 281.787 345.456 281.752 345.42C281.717 345.385 281.689 345.344 281.67 345.298C281.651 345.253 281.641 345.203 281.641 345.154C281.639 345.103 281.648 345.053 281.666 345.006C281.685 344.958 281.712 344.915 281.747 344.879C281.783 344.843 281.825 344.814 281.872 344.794C281.919 344.774 281.969 344.764 282.019 344.764Z" fill="url(#paint5_linear_2033_6374)"/>
<path d="M295.996 351.655C296.056 351.655 296.115 351.667 296.17 351.69C296.226 351.714 296.276 351.748 296.318 351.791C296.36 351.833 296.392 351.885 296.414 351.94C296.436 351.996 296.447 352.056 296.445 352.115C296.445 352.234 296.398 352.348 296.313 352.432C296.229 352.516 296.115 352.564 295.996 352.564C295.936 352.565 295.876 352.555 295.82 352.533C295.764 352.511 295.713 352.479 295.67 352.437C295.627 352.395 295.593 352.345 295.57 352.29C295.546 352.235 295.534 352.175 295.535 352.115C295.533 352.055 295.544 351.994 295.566 351.937C295.589 351.881 295.623 351.83 295.666 351.786C295.709 351.743 295.761 351.709 295.817 351.687C295.874 351.664 295.935 351.653 295.996 351.655Z" fill="url(#paint6_linear_2033_6374)"/>
<path d="M309.972 358.535C310.113 358.535 310.248 358.591 310.348 358.69C310.448 358.79 310.504 358.925 310.504 359.066C310.504 359.207 310.448 359.342 310.348 359.441C310.248 359.541 310.113 359.597 309.972 359.597C309.831 359.597 309.695 359.541 309.596 359.441C309.496 359.342 309.44 359.207 309.44 359.066C309.44 358.925 309.496 358.79 309.596 358.69C309.695 358.591 309.831 358.535 309.972 358.535Z" fill="url(#paint7_linear_2033_6374)"/>
<path d="M323.936 365.426C323.603 365.426 323.333 365.696 323.333 366.028C323.333 366.36 323.603 366.63 323.936 366.63C324.269 366.63 324.539 366.36 324.539 366.028C324.539 365.696 324.269 365.426 323.936 365.426Z" fill="url(#paint8_linear_2033_6374)"/>
<path d="M337.913 372.294C337.534 372.294 337.227 372.6 337.227 372.978C337.227 373.356 337.534 373.663 337.913 373.663C338.291 373.663 338.598 373.356 338.598 372.978C338.598 372.6 338.291 372.294 337.913 372.294Z" fill="url(#paint9_linear_2033_6374)"/>
<path d="M351.889 379.173C351.471 379.173 351.132 379.511 351.132 379.928C351.132 380.346 351.471 380.684 351.889 380.684C352.307 380.684 352.646 380.346 352.646 379.928C352.646 379.511 352.307 379.173 351.889 379.173Z" fill="url(#paint10_linear_2033_6374)"/>
<path d="M365.865 386.064C365.975 386.064 366.085 386.086 366.186 386.128C366.288 386.17 366.381 386.232 366.459 386.31C366.537 386.388 366.599 386.48 366.641 386.582C366.683 386.683 366.705 386.792 366.705 386.902C366.705 387.012 366.683 387.12 366.641 387.221C366.598 387.322 366.536 387.414 366.458 387.49C366.38 387.567 366.287 387.628 366.186 387.668C366.084 387.709 365.975 387.73 365.865 387.728C365.646 387.728 365.435 387.641 365.28 387.486C365.125 387.331 365.038 387.121 365.038 386.902C365.036 386.793 365.056 386.684 365.097 386.582C365.138 386.481 365.199 386.388 365.276 386.31C365.353 386.232 365.444 386.171 365.546 386.128C365.647 386.086 365.755 386.064 365.865 386.064Z" fill="url(#paint11_linear_2033_6374)"/>
<path d="M379.806 392.92C379.926 392.919 380.045 392.941 380.156 392.986C380.267 393.031 380.368 393.098 380.453 393.183C380.538 393.268 380.605 393.368 380.65 393.479C380.696 393.59 380.718 393.709 380.716 393.829C380.716 394.07 380.62 394.301 380.45 394.471C380.279 394.642 380.047 394.738 379.806 394.738C379.565 394.735 379.336 394.638 379.166 394.468C378.996 394.298 378.899 394.069 378.895 393.829C378.895 393.588 378.991 393.357 379.162 393.187C379.333 393.016 379.565 392.92 379.806 392.92Z" fill="url(#paint12_linear_2033_6374)"/>
<path d="M393.818 399.8C394.078 399.8 394.328 399.903 394.512 400.087C394.696 400.271 394.799 400.52 394.799 400.779C394.799 401.039 394.696 401.288 394.512 401.472C394.328 401.656 394.078 401.758 393.818 401.758C393.558 401.758 393.308 401.656 393.124 401.472C392.94 401.288 392.836 401.039 392.836 400.779C392.836 400.52 392.94 400.271 393.124 400.087C393.308 399.903 393.558 399.8 393.818 399.8Z" fill="url(#paint13_linear_2033_6374)"/>
<path d="M407.794 406.679C407.206 406.679 406.73 407.155 406.73 407.741C406.73 408.328 407.206 408.803 407.794 408.803C408.382 408.803 408.858 408.328 408.858 407.741C408.858 407.155 408.382 406.679 407.794 406.679Z" fill="url(#paint14_linear_2033_6374)"/>
<path d="M421.77 413.547C422.084 413.547 422.385 413.671 422.606 413.893C422.828 414.114 422.953 414.414 422.953 414.727C422.953 415.04 422.828 415.34 422.606 415.561C422.385 415.783 422.084 415.907 421.77 415.907C421.457 415.907 421.156 415.783 420.934 415.561C420.713 415.34 420.588 415.04 420.588 414.727C420.588 414.414 420.713 414.114 420.934 413.893C421.156 413.671 421.457 413.547 421.77 413.547Z" fill="url(#paint15_linear_2033_6374)"/>
<path d="M435.747 420.426C436.06 420.426 436.361 420.551 436.583 420.772C436.805 420.993 436.929 421.294 436.929 421.606C436.929 421.919 436.805 422.219 436.583 422.441C436.361 422.662 436.06 422.786 435.747 422.786C435.433 422.786 435.132 422.662 434.91 422.441C434.689 422.219 434.564 421.919 434.564 421.606C434.564 421.294 434.689 420.993 434.91 420.772C435.132 420.551 435.433 420.426 435.747 420.426Z" fill="url(#paint16_linear_2033_6374)"/>
<path d="M449.723 427.306C449.892 427.306 450.059 427.339 450.214 427.404C450.37 427.468 450.511 427.564 450.63 427.683C450.749 427.803 450.843 427.944 450.906 428.1C450.97 428.256 451.002 428.423 451 428.592C451 428.93 450.865 429.254 450.626 429.493C450.386 429.732 450.062 429.866 449.723 429.866C449.546 429.875 449.37 429.846 449.205 429.783C449.04 429.719 448.889 429.622 448.764 429.498C448.638 429.374 448.54 429.225 448.475 429.061C448.41 428.897 448.38 428.721 448.387 428.545C448.393 428.376 448.432 428.21 448.503 428.056C448.573 427.902 448.674 427.764 448.798 427.649C448.922 427.534 449.067 427.444 449.226 427.385C449.385 427.326 449.554 427.299 449.723 427.306Z" fill="url(#paint17_linear_2033_6374)"/>
<path d="M435.747 434.197C436.104 434.197 436.447 434.339 436.7 434.591C436.953 434.843 437.095 435.186 437.095 435.542C437.095 435.899 436.953 436.241 436.7 436.494C436.447 436.746 436.104 436.887 435.747 436.887C435.389 436.887 435.046 436.746 434.794 436.494C434.541 436.241 434.399 435.899 434.399 435.542C434.399 435.186 434.541 434.843 434.794 434.591C435.046 434.339 435.389 434.197 435.747 434.197Z" fill="url(#paint18_linear_2033_6374)"/>
<path d="M421.77 441.077C422.147 441.077 422.508 441.226 422.774 441.491C423.04 441.757 423.189 442.117 423.189 442.492C423.189 442.868 423.04 443.228 422.774 443.494C422.508 443.759 422.147 443.909 421.77 443.909C421.394 443.909 421.033 443.759 420.767 443.494C420.501 443.228 420.352 442.868 420.352 442.492C420.352 442.117 420.501 441.757 420.767 441.491C421.033 441.226 421.394 441.077 421.77 441.077Z" fill="url(#paint19_linear_2033_6374)"/>
<path d="M407.794 447.968C408.187 447.968 408.564 448.123 408.843 448.399C409.122 448.676 409.281 449.05 409.284 449.443C409.284 449.638 409.245 449.832 409.17 450.012C409.096 450.192 408.986 450.356 408.848 450.494C408.709 450.632 408.545 450.742 408.364 450.816C408.183 450.891 407.99 450.93 407.794 450.93C407.399 450.93 407.02 450.773 406.741 450.494C406.461 450.215 406.304 449.837 406.304 449.443C406.307 449.05 406.466 448.676 406.745 448.399C407.024 448.123 407.401 447.968 407.794 447.968Z" fill="url(#paint20_linear_2033_6374)"/>
<path d="M393.818 454.847C394.23 454.847 394.625 455.009 394.917 455.299C395.21 455.589 395.375 455.982 395.379 456.393C395.379 456.806 395.214 457.202 394.922 457.494C394.629 457.786 394.232 457.951 393.818 457.951C393.406 457.947 393.012 457.782 392.722 457.49C392.432 457.198 392.269 456.804 392.269 456.393C392.269 455.983 392.432 455.59 392.722 455.3C393.013 455.01 393.407 454.847 393.818 454.847Z" fill="url(#paint21_linear_2033_6374)"/>
<path d="M379.806 461.727C380.02 461.727 380.231 461.769 380.429 461.851C380.626 461.933 380.805 462.053 380.956 462.204C381.106 462.356 381.225 462.535 381.306 462.733C381.387 462.93 381.428 463.142 381.426 463.355C381.426 463.784 381.255 464.195 380.951 464.498C380.648 464.801 380.236 464.972 379.806 464.972C379.376 464.972 378.964 464.801 378.661 464.498C378.357 464.195 378.186 463.784 378.186 463.355C378.184 463.142 378.225 462.93 378.306 462.733C378.387 462.535 378.506 462.356 378.656 462.204C378.807 462.053 378.986 461.933 379.183 461.851C379.381 461.769 379.592 461.727 379.806 461.727Z" fill="url(#paint22_linear_2033_6374)"/>
<path d="M365.865 468.665C366.314 468.665 366.744 468.843 367.061 469.159C367.378 469.476 367.556 469.905 367.556 470.353C367.556 470.8 367.378 471.23 367.061 471.546C366.744 471.862 366.314 472.04 365.865 472.04C365.417 472.04 364.987 471.862 364.669 471.546C364.352 471.23 364.174 470.8 364.174 470.353C364.174 469.905 364.352 469.476 364.669 469.159C364.987 468.843 365.417 468.665 365.865 468.665Z" fill="url(#paint23_linear_2033_6374)"/>
<path d="M351.889 475.497C352.356 475.497 352.804 475.683 353.135 476.012C353.465 476.342 353.651 476.789 353.651 477.255C353.651 477.722 353.465 478.169 353.135 478.499C352.804 478.828 352.356 479.014 351.889 479.014C351.424 479.011 350.979 478.824 350.651 478.495C350.323 478.165 350.139 477.72 350.139 477.255C350.139 476.791 350.323 476.346 350.651 476.017C350.979 475.687 351.424 475.5 351.889 475.497Z" fill="url(#paint24_linear_2033_6374)"/>
<path d="M337.913 482.388C338.153 482.387 338.391 482.433 338.613 482.523C338.835 482.614 339.038 482.748 339.208 482.917C339.378 483.086 339.513 483.286 339.606 483.507C339.698 483.729 339.746 483.966 339.746 484.206C339.746 484.445 339.698 484.683 339.606 484.904C339.513 485.125 339.378 485.326 339.208 485.495C339.038 485.664 338.835 485.797 338.613 485.888C338.391 485.979 338.153 486.024 337.913 486.023C337.43 486.023 336.966 485.831 336.625 485.491C336.283 485.15 336.092 484.688 336.092 484.206C336.092 483.724 336.283 483.262 336.625 482.921C336.966 482.58 337.43 482.388 337.913 482.388Z" fill="url(#paint25_linear_2033_6374)"/>
<path d="M323.948 489.268C324.45 489.268 324.931 489.467 325.286 489.821C325.641 490.175 325.84 490.655 325.84 491.156C325.84 491.657 325.641 492.137 325.286 492.491C324.931 492.845 324.45 493.044 323.948 493.044C323.699 493.046 323.453 492.998 323.222 492.904C322.992 492.809 322.783 492.67 322.607 492.495C322.431 492.319 322.292 492.11 322.197 491.88C322.103 491.651 322.055 491.404 322.056 491.156C322.056 490.655 322.256 490.175 322.61 489.821C322.965 489.467 323.446 489.268 323.948 489.268Z" fill="url(#paint26_linear_2033_6374)"/>
<path d="M309.972 496.159C310.489 496.159 310.985 496.364 311.351 496.729C311.717 497.095 311.923 497.59 311.923 498.107C311.924 498.363 311.875 498.617 311.778 498.855C311.68 499.093 311.537 499.308 311.356 499.49C311.174 499.673 310.959 499.817 310.721 499.916C310.484 500.014 310.229 500.065 309.972 500.065C309.451 500.065 308.952 499.859 308.584 499.492C308.216 499.124 308.009 498.626 308.009 498.107C308.009 497.85 308.06 497.596 308.159 497.359C308.257 497.122 308.402 496.906 308.585 496.725C308.767 496.544 308.983 496.401 309.221 496.304C309.46 496.207 309.715 496.157 309.972 496.159Z" fill="url(#paint27_linear_2033_6374)"/>
<path d="M295.996 503.039C296.533 503.042 297.047 503.257 297.426 503.637C297.805 504.018 298.018 504.532 298.018 505.068C298.014 505.603 297.8 506.114 297.422 506.492C297.043 506.869 296.531 507.083 295.996 507.086C295.458 507.086 294.943 506.874 294.562 506.496C294.18 506.118 293.965 505.605 293.962 505.068C293.962 504.53 294.176 504.014 294.557 503.633C294.939 503.253 295.456 503.039 295.996 503.039Z" fill="url(#paint28_linear_2033_6374)"/>
<path d="M282.019 509.965C282.574 509.965 283.107 510.186 283.499 510.577C283.892 510.969 284.112 511.5 284.112 512.054C284.112 512.608 283.892 513.139 283.499 513.531C283.107 513.922 282.574 514.143 282.019 514.143C281.464 514.143 280.932 513.922 280.539 513.531C280.147 513.139 279.926 512.608 279.926 512.054C279.926 511.5 280.147 510.969 280.539 510.577C280.932 510.186 281.464 509.965 282.019 509.965Z" fill="url(#paint29_linear_2033_6374)"/>
<path d="M268.043 516.809C266.848 516.809 265.879 517.776 265.879 518.969C265.879 520.161 266.848 521.128 268.043 521.128C269.238 521.128 270.207 520.161 270.207 518.969C270.207 517.776 269.238 516.809 268.043 516.809Z" fill="url(#paint30_linear_2033_6374)"/>
<path d="M254.067 523.701C252.832 523.701 251.832 524.699 251.832 525.931C251.832 527.163 252.832 528.161 254.067 528.161C255.301 528.161 256.301 527.163 256.301 525.931C256.301 524.699 255.301 523.701 254.067 523.701Z" fill="url(#paint31_linear_2033_6374)"/>
<path d="M240.09 530.592C238.823 530.592 237.796 531.617 237.796 532.881C237.796 534.145 238.823 535.17 240.09 535.17C241.357 535.17 242.384 534.145 242.384 532.881C242.384 531.617 241.357 530.592 240.09 530.592Z" fill="url(#paint32_linear_2033_6374)"/>
<path d="M226.114 537.471C224.808 537.471 223.749 538.528 223.749 539.831C223.749 541.135 224.808 542.191 226.114 542.191C227.42 542.191 228.479 541.135 228.479 539.831C228.479 538.528 227.42 537.471 226.114 537.471Z" fill="url(#paint33_linear_2033_6374)"/>
<path d="M212.138 530.58C212.445 530.571 212.751 530.623 213.038 530.734C213.324 530.844 213.585 531.012 213.806 531.225C214.027 531.439 214.202 531.694 214.322 531.976C214.441 532.259 214.503 532.563 214.503 532.87C214.487 533.485 214.231 534.07 213.79 534.5C213.348 534.93 212.755 535.17 212.138 535.17C211.835 535.17 211.536 535.111 211.257 534.995C210.978 534.879 210.725 534.709 210.512 534.495C210.298 534.282 210.13 534.028 210.015 533.749C209.9 533.47 209.842 533.171 209.844 532.87C209.844 532.262 210.085 531.68 210.516 531.25C210.946 530.821 211.529 530.58 212.138 530.58Z" fill="url(#paint34_linear_2033_6374)"/>
<path d="M198.161 523.689C198.755 523.689 199.325 523.924 199.746 524.342C200.167 524.759 200.405 525.327 200.408 525.919C200.408 526.213 200.35 526.504 200.237 526.775C200.124 527.047 199.958 527.293 199.749 527.5C199.541 527.707 199.293 527.872 199.02 527.983C198.748 528.094 198.456 528.151 198.161 528.149C197.569 528.149 197 527.914 196.581 527.496C196.162 527.078 195.927 526.511 195.927 525.919C195.927 525.328 196.162 524.76 196.581 524.342C197 523.924 197.569 523.689 198.161 523.689Z" fill="url(#paint35_linear_2033_6374)"/>
<path d="M184.197 516.798C184.482 516.798 184.765 516.854 185.028 516.963C185.291 517.072 185.53 517.233 185.731 517.434C185.932 517.636 186.092 517.876 186.2 518.139C186.308 518.402 186.362 518.684 186.361 518.969C186.362 519.253 186.308 519.536 186.2 519.799C186.092 520.062 185.932 520.302 185.731 520.504C185.53 520.705 185.291 520.865 185.028 520.974C184.765 521.084 184.482 521.14 184.197 521.14C183.62 521.14 183.067 520.911 182.659 520.504C182.251 520.097 182.021 519.545 182.021 518.969C182.021 518.393 182.251 517.841 182.659 517.434C183.067 517.027 183.62 516.798 184.197 516.798Z" fill="url(#paint36_linear_2033_6374)"/>
<path d="M170.221 509.907C170.78 509.91 171.315 510.134 171.71 510.529C172.104 510.925 172.325 511.461 172.325 512.019C172.325 512.576 172.104 513.11 171.709 513.504C171.314 513.898 170.779 514.119 170.221 514.119C169.661 514.119 169.125 513.898 168.728 513.504C168.332 513.111 168.107 512.577 168.104 512.019C168.104 511.459 168.327 510.921 168.724 510.525C169.121 510.129 169.659 509.907 170.221 509.907Z" fill="url(#paint37_linear_2033_6374)"/>
<path d="M156.244 503.015C156.788 503.018 157.308 503.236 157.691 503.621C158.075 504.005 158.29 504.526 158.29 505.068C158.287 505.609 158.07 506.126 157.687 506.508C157.304 506.89 156.786 507.107 156.244 507.11C155.702 507.11 155.182 506.895 154.798 506.512C154.414 506.129 154.199 505.61 154.199 505.068C154.197 504.799 154.249 504.533 154.351 504.284C154.453 504.035 154.604 503.808 154.794 503.617C154.984 503.426 155.21 503.275 155.459 503.172C155.708 503.068 155.975 503.015 156.244 503.015Z" fill="url(#paint38_linear_2033_6374)"/>
<path d="M142.268 496.135C142.793 496.135 143.296 496.343 143.669 496.712C144.041 497.081 144.251 497.583 144.255 498.107C144.255 498.367 144.203 498.624 144.103 498.865C144.004 499.105 143.857 499.324 143.673 499.508C143.488 499.692 143.269 499.838 143.028 499.938C142.787 500.037 142.529 500.089 142.268 500.089C142.007 500.089 141.749 500.037 141.508 499.938C141.267 499.838 141.048 499.692 140.863 499.508C140.679 499.324 140.533 499.105 140.433 498.865C140.333 498.624 140.282 498.367 140.282 498.107C140.285 497.583 140.495 497.081 140.868 496.712C141.24 496.343 141.743 496.135 142.268 496.135Z" fill="url(#paint39_linear_2033_6374)"/>
<path d="M128.292 489.244C127.227 489.244 126.364 490.106 126.364 491.168C126.364 492.23 127.227 493.091 128.292 493.091C129.356 493.091 130.219 492.23 130.219 491.168C130.219 490.106 129.356 489.244 128.292 489.244Z" fill="url(#paint40_linear_2033_6374)"/>
<path d="M114.315 482.353C114.808 482.353 115.28 482.549 115.628 482.896C115.976 483.243 116.172 483.714 116.172 484.206C116.172 484.449 116.124 484.69 116.03 484.915C115.937 485.14 115.8 485.344 115.628 485.516C115.456 485.688 115.251 485.824 115.026 485.918C114.801 486.011 114.559 486.059 114.315 486.059C113.823 486.059 113.351 485.863 113.003 485.516C112.655 485.168 112.459 484.697 112.459 484.206C112.459 483.714 112.655 483.243 113.003 482.896C113.351 482.549 113.823 482.353 114.315 482.353Z" fill="url(#paint41_linear_2033_6374)"/>
<path d="M100.339 475.462C100.816 475.462 101.273 475.651 101.61 475.987C101.947 476.323 102.136 476.78 102.136 477.255C102.136 477.491 102.09 477.724 102 477.942C101.909 478.16 101.777 478.357 101.61 478.524C101.443 478.691 101.245 478.822 101.027 478.912C100.809 479.003 100.575 479.049 100.339 479.049C100.103 479.049 99.8695 479.003 99.6514 478.912C99.4334 478.822 99.2352 478.691 99.0683 478.524C98.9014 478.357 98.7689 478.16 98.6786 477.942C98.5883 477.724 98.5418 477.491 98.5418 477.255C98.5418 476.78 98.7312 476.323 99.0683 475.987C99.4054 475.651 99.8624 475.462 100.339 475.462Z" fill="url(#paint42_linear_2033_6374)"/>
<path d="M86.363 468.571C86.5912 468.571 86.8172 468.615 87.0281 468.702C87.239 468.79 87.4305 468.918 87.5919 469.079C87.7533 469.24 87.8813 469.431 87.9686 469.642C88.056 469.852 88.1011 470.078 88.1011 470.305C88.1011 470.533 88.0561 470.758 87.9686 470.967C87.8811 471.177 87.7529 471.367 87.5913 471.527C87.4297 471.688 87.238 471.814 87.0272 471.9C86.8164 471.986 86.5907 472.03 86.363 472.028C85.9051 472.028 85.4659 471.847 85.1422 471.523C84.8184 471.2 84.6367 470.762 84.6367 470.305C84.6351 470.078 84.6785 469.853 84.7646 469.642C84.8506 469.432 84.9777 469.241 85.1381 469.079C85.2986 468.918 85.4894 468.79 85.6996 468.703C85.9098 468.616 86.1353 468.571 86.363 468.571Z" fill="url(#paint43_linear_2033_6374)"/>
<path d="M72.3866 461.691C71.4658 461.691 70.7194 462.436 70.7194 463.355C70.7194 464.274 71.4658 465.019 72.3866 465.019C73.3073 465.019 74.0538 464.274 74.0538 463.355C74.0538 462.436 73.3073 461.691 72.3866 461.691Z" fill="url(#paint44_linear_2033_6374)"/>
<path d="M58.4102 454.8C58.6208 454.798 58.8298 454.839 59.0248 454.918C59.2198 454.997 59.3973 455.115 59.5468 455.263C59.6962 455.411 59.8148 455.587 59.8958 455.781C59.9767 455.975 60.0185 456.183 60.0184 456.393C60.0184 456.819 59.8489 457.227 59.5473 457.528C59.2458 457.829 58.8367 457.998 58.4102 457.998C58.1996 457.998 57.9912 457.956 57.7968 457.876C57.6023 457.795 57.4258 457.676 57.2775 457.527C57.1291 457.378 57.0117 457.201 56.9322 457.006C56.8527 456.812 56.8126 456.603 56.8141 456.393C56.8125 456.183 56.8525 455.976 56.9322 455.782C57.0118 455.588 57.1295 455.411 57.278 455.263C57.4265 455.115 57.6033 454.998 57.7977 454.918C57.992 454.839 58.2002 454.798 58.4102 454.8Z" fill="url(#paint45_linear_2033_6374)"/>
<path d="M44.4341 447.909C44.8429 447.909 45.2349 448.07 45.5251 448.357C45.8152 448.645 45.9798 449.035 45.9829 449.443C45.9829 449.646 45.943 449.847 45.8651 450.034C45.7873 450.222 45.6732 450.392 45.5294 450.536C45.3855 450.679 45.2147 450.793 45.0268 450.871C44.8389 450.949 44.6375 450.989 44.4341 450.989C44.0254 450.985 43.6343 450.821 43.3464 450.532C43.0584 450.242 42.8969 449.851 42.8969 449.443C42.8969 449.036 43.0587 448.645 43.347 448.358C43.6353 448.07 44.0265 447.909 44.4341 447.909Z" fill="url(#paint46_linear_2033_6374)"/>
<path d="M30.4577 441.029C29.6414 441.029 28.9796 441.69 28.9796 442.504C28.9796 443.319 29.6414 443.979 30.4577 443.979C31.274 443.979 31.9357 443.319 31.9357 442.504C31.9357 441.69 31.274 441.029 30.4577 441.029Z" fill="url(#paint47_linear_2033_6374)"/>
<path d="M16.4932 434.126C16.679 434.126 16.8629 434.163 17.0344 434.234C17.2059 434.305 17.3615 434.41 17.4923 434.542C17.6231 434.673 17.7266 434.83 17.7966 435.001C17.8666 435.173 17.9018 435.357 17.9002 435.542C17.9002 435.727 17.8638 435.909 17.7931 436.079C17.7224 436.25 17.6189 436.405 17.4882 436.535C17.3576 436.666 17.2023 436.769 17.0316 436.839C16.8608 436.91 16.6779 436.947 16.4932 436.947C16.3074 436.948 16.1231 436.913 15.951 436.843C15.779 436.773 15.6225 436.67 15.4906 436.539C15.3587 436.409 15.254 436.253 15.1826 436.082C15.1111 435.911 15.0743 435.728 15.0743 435.542C15.0743 435.167 15.2236 434.807 15.4897 434.541C15.7558 434.275 16.1169 434.126 16.4932 434.126Z" fill="url(#paint48_linear_2033_6374)"/>
<path d="M2.51682 427.235C2.8754 427.238 3.21844 427.383 3.47092 427.637C3.72336 427.891 3.86499 428.234 3.86496 428.592C3.86496 428.949 3.72284 429.291 3.47006 429.543C3.21725 429.796 2.87433 429.937 2.51682 429.937C2.15823 429.937 1.81424 429.796 1.55957 429.544C1.30487 429.292 1.16025 428.95 1.15714 428.592C1.16022 428.233 1.30435 427.889 1.55869 427.636C1.81305 427.382 2.15714 427.238 2.51682 427.235Z" fill="url(#paint49_linear_2033_6374)"/>
<path d="M16.4932 420.367C16.6603 420.367 16.8259 420.4 16.9802 420.464C17.1345 420.529 17.2745 420.623 17.3921 420.741C17.5097 420.86 17.6026 421 17.6655 421.155C17.7284 421.309 17.76 421.475 17.7585 421.642C17.7585 421.976 17.6251 422.298 17.3878 422.535C17.1505 422.771 16.8287 422.905 16.4932 422.905C16.326 422.906 16.1602 422.875 16.0053 422.812C15.8504 422.749 15.7095 422.656 15.5908 422.539C15.472 422.421 15.378 422.282 15.3136 422.128C15.2493 421.974 15.2161 421.808 15.2161 421.642C15.2161 421.304 15.3507 420.979 15.5902 420.74C15.8297 420.501 16.1545 420.367 16.4932 420.367Z" fill="url(#paint50_linear_2033_6374)"/>
<path d="M30.4696 413.488C30.7832 413.488 31.0838 413.612 31.3056 413.833C31.5273 414.055 31.652 414.355 31.652 414.668C31.652 414.981 31.5273 415.281 31.3056 415.502C31.0838 415.724 30.7832 415.848 30.4696 415.848C30.156 415.848 29.855 415.724 29.6333 415.502C29.4116 415.281 29.2872 414.981 29.2872 414.668C29.2872 414.355 29.4116 414.055 29.6333 413.833C29.855 413.612 30.156 413.488 30.4696 413.488Z" fill="url(#paint51_linear_2033_6374)"/>
<path d="M44.4341 406.62C44.7358 406.62 45.0261 406.734 45.2459 406.941C45.4657 407.147 45.5985 407.429 45.6166 407.729C45.5985 408.03 45.4657 408.312 45.2459 408.519C45.0261 408.725 44.7358 408.839 44.4341 408.838C44.1393 408.838 43.8565 408.722 43.648 408.514C43.4396 408.306 43.3224 408.023 43.3224 407.729C43.3224 407.435 43.4396 407.153 43.648 406.945C43.8565 406.737 44.1393 406.62 44.4341 406.62Z" fill="url(#paint52_linear_2033_6374)"/>
<path d="M58.4102 399.753C58.5463 399.751 58.6816 399.777 58.8077 399.828C58.9339 399.878 59.0487 399.953 59.1455 400.049C59.2423 400.144 59.3191 400.258 59.3715 400.384C59.424 400.509 59.4509 400.644 59.4509 400.779C59.4509 400.915 59.424 401.049 59.3715 401.175C59.3191 401.3 59.2423 401.414 59.1455 401.509C59.0487 401.605 58.9339 401.68 58.8077 401.731C58.6816 401.782 58.5463 401.807 58.4102 401.806C58.1374 401.806 57.8757 401.697 57.6827 401.505C57.4898 401.312 57.3817 401.052 57.3817 400.779C57.3817 400.507 57.4898 400.246 57.6827 400.053C57.8757 399.861 58.1374 399.753 58.4102 399.753Z" fill="url(#paint53_linear_2033_6374)"/>
<path d="M72.3866 392.873C71.8576 392.873 71.4288 393.301 71.4288 393.829C71.4288 394.357 71.8576 394.785 72.3866 394.785C72.9155 394.785 73.3443 394.357 73.3443 393.829C73.3443 393.301 72.9155 392.873 72.3866 392.873Z" fill="url(#paint54_linear_2033_6374)"/>
<path d="M86.363 386.006C86.595 386.006 86.8175 386.097 86.9816 386.261C87.1457 386.425 87.2379 386.647 87.2379 386.879C87.2379 387.11 87.1457 387.333 86.9816 387.496C86.8175 387.66 86.595 387.752 86.363 387.752C86.1309 387.752 85.9082 387.66 85.7441 387.496C85.58 387.333 85.488 387.11 85.488 386.879C85.488 386.647 85.58 386.425 85.7441 386.261C85.9082 386.097 86.1309 386.006 86.363 386.006Z" fill="url(#paint55_linear_2033_6374)"/>
<path d="M100.339 379.138C99.9016 379.138 99.5469 379.492 99.5469 379.928C99.5469 380.365 99.9016 380.719 100.339 380.719C100.777 380.719 101.131 380.365 101.131 379.928C101.131 379.492 100.777 379.138 100.339 379.138Z" fill="url(#paint56_linear_2033_6374)"/>
<path d="M114.315 372.258C114.505 372.258 114.687 372.333 114.822 372.465C114.956 372.597 115.034 372.777 115.037 372.966C115.037 373.157 114.961 373.341 114.826 373.476C114.69 373.611 114.507 373.686 114.315 373.686C114.124 373.686 113.941 373.611 113.805 373.476C113.67 373.341 113.594 373.157 113.594 372.966C113.597 372.777 113.675 372.597 113.81 372.465C113.945 372.333 114.126 372.258 114.315 372.258Z" fill="url(#paint57_linear_2033_6374)"/>
<path d="M128.292 365.379C128.461 365.379 128.624 365.446 128.743 365.565C128.863 365.685 128.93 365.847 128.93 366.016C128.93 366.185 128.863 366.347 128.743 366.466C128.624 366.586 128.461 366.653 128.292 366.653C128.122 366.653 127.96 366.586 127.84 366.466C127.721 366.347 127.653 366.185 127.653 366.016C127.653 365.847 127.721 365.685 127.84 365.565C127.96 365.446 128.122 365.379 128.292 365.379Z" fill="url(#paint58_linear_2033_6374)"/>
<path d="M142.268 358.511C142.341 358.511 142.413 358.525 142.481 358.553C142.548 358.581 142.609 358.622 142.661 358.674C142.713 358.725 142.754 358.786 142.781 358.853C142.809 358.921 142.824 358.993 142.824 359.066C142.824 359.213 142.765 359.354 142.661 359.458C142.557 359.562 142.416 359.62 142.268 359.62C142.121 359.62 141.979 359.562 141.875 359.458C141.771 359.354 141.712 359.213 141.712 359.066C141.712 358.993 141.727 358.921 141.755 358.853C141.783 358.786 141.823 358.725 141.875 358.674C141.927 358.622 141.988 358.581 142.055 358.553C142.123 358.525 142.195 358.511 142.268 358.511Z" fill="url(#paint59_linear_2033_6374)"/>
<path d="M156.244 351.632C156.308 351.631 156.37 351.644 156.428 351.669C156.486 351.693 156.539 351.729 156.583 351.774C156.627 351.819 156.662 351.872 156.685 351.931C156.708 351.99 156.719 352.053 156.718 352.115C156.718 352.241 156.668 352.361 156.579 352.449C156.49 352.538 156.37 352.587 156.244 352.587C156.181 352.589 156.119 352.578 156.06 352.555C156.001 352.532 155.948 352.498 155.902 352.454C155.857 352.41 155.821 352.357 155.797 352.299C155.772 352.241 155.76 352.178 155.76 352.115C155.76 351.987 155.811 351.864 155.902 351.773C155.993 351.683 156.116 351.632 156.244 351.632Z" fill="url(#paint60_linear_2033_6374)"/>
<path d="M170.221 344.764C170.325 344.767 170.424 344.811 170.497 344.886C170.57 344.961 170.611 345.061 170.611 345.165C170.611 345.268 170.57 345.368 170.497 345.441C170.423 345.514 170.324 345.555 170.221 345.555C170.116 345.555 170.015 345.514 169.94 345.442C169.865 345.369 169.822 345.27 169.819 345.165C169.819 345.059 169.861 344.957 169.936 344.882C170.012 344.807 170.114 344.764 170.221 344.764Z" fill="url(#paint61_linear_2033_6374)"/>
<path d="M184.197 337.885C184.281 337.888 184.36 337.922 184.419 337.981C184.479 338.041 184.513 338.12 184.516 338.203C184.513 338.287 184.479 338.366 184.419 338.425C184.36 338.484 184.281 338.519 184.197 338.522C184.155 338.522 184.114 338.514 184.075 338.498C184.036 338.482 184.001 338.458 183.971 338.429C183.942 338.399 183.918 338.364 183.902 338.325C183.886 338.287 183.878 338.245 183.878 338.203C183.878 338.161 183.886 338.12 183.902 338.082C183.918 338.043 183.942 338.008 183.971 337.978C184.001 337.948 184.036 337.925 184.075 337.909C184.114 337.893 184.155 337.885 184.197 337.885Z" fill="url(#paint62_linear_2033_6374)"/>
<path d="M198.161 331.017C198.193 331.016 198.226 331.02 198.256 331.032C198.286 331.043 198.313 331.06 198.336 331.082C198.359 331.104 198.378 331.131 198.391 331.16C198.403 331.19 198.41 331.221 198.41 331.253C198.41 331.285 198.403 331.318 198.391 331.348C198.378 331.378 198.36 331.406 198.337 331.429C198.314 331.452 198.287 331.47 198.257 331.482C198.226 331.495 198.194 331.501 198.161 331.501C198.098 331.498 198.038 331.47 197.994 331.424C197.95 331.378 197.925 331.317 197.925 331.253C197.925 331.19 197.95 331.131 197.994 331.086C198.039 331.042 198.099 331.017 198.161 331.017Z" fill="url(#paint63_linear_2033_6374)"/>
<path d="M212.138 324.138C212.182 324.138 212.224 324.155 212.255 324.186C212.286 324.217 212.303 324.259 212.303 324.303C212.303 324.347 212.286 324.388 212.255 324.419C212.224 324.45 212.182 324.468 212.138 324.468C212.116 324.468 212.096 324.464 212.076 324.455C212.057 324.447 212.039 324.434 212.025 324.419C212.01 324.403 211.999 324.385 211.992 324.365C211.985 324.345 211.982 324.324 211.984 324.303C211.984 324.261 212 324.221 212.028 324.19C212.057 324.159 212.096 324.141 212.138 324.138Z" fill="url(#paint64_linear_2033_6374)"/>
<path d="M225.499 69.1602L225.499 521.322" stroke="#4C49C7" stroke-width="2" stroke-linecap="square" stroke-linejoin="round"/>
<path d="M252.058 94.6659L225.392 68L198.726 94.6659" stroke="#4C49C7" stroke-width="2" stroke-linecap="square"/>
<mask id="path-6-outside-1_2033_6374" maskUnits="userSpaceOnUse" x="205.5" y="514" width="40" height="40" fill="black">
<rect fill="white" x="205.5" y="514" width="40" height="40"/>
<path d="M240.5 534C240.5 542.284 233.784 549 225.5 549C217.216 549 210.5 542.284 210.5 534C210.5 525.716 217.216 519 225.5 519C233.784 519 240.5 525.716 240.5 534Z"/>
</mask>
<path d="M240.5 534C240.5 542.284 233.784 549 225.5 549C217.216 549 210.5 542.284 210.5 534C210.5 525.716 217.216 519 225.5 519C233.784 519 240.5 525.716 240.5 534Z" fill="url(#paint65_linear_2033_6374)"/>
<path d="M235.5 534C235.5 539.523 231.023 544 225.5 544V554C236.546 554 245.5 545.046 245.5 534H235.5ZM225.5 544C219.977 544 215.5 539.523 215.5 534H205.5C205.5 545.046 214.454 554 225.5 554V544ZM215.5 534C215.5 528.477 219.977 524 225.5 524V514C214.454 514 205.5 522.954 205.5 534H215.5ZM225.5 524C231.023 524 235.5 528.477 235.5 534H245.5C245.5 522.954 236.546 514 225.5 514V524Z" fill="#161616" mask="url(#path-6-outside-1_2033_6374)"/>
<defs>
<linearGradient id="paint0_linear_2033_6374" x1="-238.993" y1="266.254" x2="498.378" y2="266.431" gradientUnits="userSpaceOnUse">
<stop offset="0.0294552" stop-color="#66FFA4"/>
<stop offset="0.270586" stop-color="#61D9AB"/>
<stop offset="0.534845" stop-color="#4D49C7"/>
<stop offset="0.62698" stop-color="#4D49C7"/>
<stop offset="0.771064" stop-color="#579AFF"/>
<stop offset="0.818233" stop-color="#558CF5"/>
<stop offset="1" stop-color="#66FFA4"/>
</linearGradient>
<linearGradient id="paint1_linear_2033_6374" x1="220.646" y1="570.307" x2="226.026" y2="350.25" gradientUnits="userSpaceOnUse">
<stop stop-color="#4D49C7"/>
<stop offset="0.505208" stop-color="#579AFF"/>
<stop offset="1" stop-color="#66FFA4" stop-opacity="0.06"/>
</linearGradient>
<linearGradient id="paint2_linear_2033_6374" x1="220.646" y1="570.307" x2="226.026" y2="350.25" gradientUnits="userSpaceOnUse">
<stop stop-color="#4D49C7"/>
<stop offset="0.505208" stop-color="#579AFF"/>
<stop offset="1" stop-color="#66FFA4" stop-opacity="0.06"/>
</linearGradient>
<linearGradient id="paint3_linear_2033_6374" x1="220.646" y1="570.307" x2="226.026" y2="350.25" gradientUnits="userSpaceOnUse">
<stop stop-color="#4D49C7"/>
<stop offset="0.505208" stop-color="#579AFF"/>
<stop offset="1" stop-color="#66FFA4" stop-opacity="0.06"/>
</linearGradient>
<linearGradient id="paint4_linear_2033_6374" x1="220.646" y1="570.307" x2="226.026" y2="350.25" gradientUnits="userSpaceOnUse">
<stop stop-color="#4D49C7"/>
<stop offset="0.505208" stop-color="#579AFF"/>
<stop offset="1" stop-color="#66FFA4" stop-opacity="0.06"/>
</linearGradient>
<linearGradient id="paint5_linear_2033_6374" x1="220.646" y1="570.307" x2="226.026" y2="350.25" gradientUnits="userSpaceOnUse">
<stop stop-color="#4D49C7"/>
<stop offset="0.505208" stop-color="#579AFF"/>
<stop offset="1" stop-color="#66FFA4" stop-opacity="0.06"/>
</linearGradient>
<linearGradient id="paint6_linear_2033_6374" x1="220.646" y1="570.307" x2="226.026" y2="350.25" gradientUnits="userSpaceOnUse">
<stop stop-color="#4D49C7"/>
<stop offset="0.505208" stop-color="#579AFF"/>
<stop offset="1" stop-color="#66FFA4" stop-opacity="0.06"/>
</linearGradient>
<linearGradient id="paint7_linear_2033_6374" x1="220.646" y1="570.307" x2="226.026" y2="350.25" gradientUnits="userSpaceOnUse">
<stop stop-color="#4D49C7"/>
<stop offset="0.505208" stop-color="#579AFF"/>
<stop offset="1" stop-color="#66FFA4" stop-opacity="0.06"/>
</linearGradient>
<linearGradient id="paint8_linear_2033_6374" x1="220.646" y1="570.307" x2="226.026" y2="350.25" gradientUnits="userSpaceOnUse">
<stop stop-color="#4D49C7"/>
<stop offset="0.505208" stop-color="#579AFF"/>
<stop offset="1" stop-color="#66FFA4" stop-opacity="0.06"/>
</linearGradient>
<linearGradient id="paint9_linear_2033_6374" x1="220.646" y1="570.307" x2="226.026" y2="350.25" gradientUnits="userSpaceOnUse">
<stop stop-color="#4D49C7"/>
<stop offset="0.505208" stop-color="#579AFF"/>
<stop offset="1" stop-color="#66FFA4" stop-opacity="0.06"/>
</linearGradient>
<linearGradient id="paint10_linear_2033_6374" x1="220.646" y1="570.307" x2="226.026" y2="350.25" gradientUnits="userSpaceOnUse">
<stop stop-color="#4D49C7"/>
<stop offset="0.505208" stop-color="#579AFF"/>
<stop offset="1" stop-color="#66FFA4" stop-opacity="0.06"/>
</linearGradient>
<linearGradient id="paint11_linear_2033_6374" x1="220.646" y1="570.307" x2="226.026" y2="350.25" gradientUnits="userSpaceOnUse">
<stop stop-color="#4D49C7"/>
<stop offset="0.505208" stop-color="#579AFF"/>
<stop offset="1" stop-color="#66FFA4" stop-opacity="0.06"/>
</linearGradient>
<linearGradient id="paint12_linear_2033_6374" x1="220.646" y1="570.307" x2="226.026" y2="350.25" gradientUnits="userSpaceOnUse">
<stop stop-color="#4D49C7"/>
<stop offset="0.505208" stop-color="#579AFF"/>
<stop offset="1" stop-color="#66FFA4" stop-opacity="0.06"/>
</linearGradient>
<linearGradient id="paint13_linear_2033_6374" x1="220.646" y1="570.307" x2="226.026" y2="350.25" gradientUnits="userSpaceOnUse">
<stop stop-color="#4D49C7"/>
<stop offset="0.505208" stop-color="#579AFF"/>
<stop offset="1" stop-color="#66FFA4" stop-opacity="0.06"/>
</linearGradient>
<linearGradient id="paint14_linear_2033_6374" x1="220.646" y1="570.307" x2="226.026" y2="350.25" gradientUnits="userSpaceOnUse">
<stop stop-color="#4D49C7"/>
<stop offset="0.505208" stop-color="#579AFF"/>
<stop offset="1" stop-color="#66FFA4" stop-opacity="0.06"/>
</linearGradient>
<linearGradient id="paint15_linear_2033_6374" x1="220.646" y1="570.307" x2="226.026" y2="350.25" gradientUnits="userSpaceOnUse">
<stop stop-color="#4D49C7"/>
<stop offset="0.505208" stop-color="#579AFF"/>
<stop offset="1" stop-color="#66FFA4" stop-opacity="0.06"/>
</linearGradient>
<linearGradient id="paint16_linear_2033_6374" x1="220.646" y1="570.307" x2="226.026" y2="350.25" gradientUnits="userSpaceOnUse">
<stop stop-color="#4D49C7"/>
<stop offset="0.505208" stop-color="#579AFF"/>
<stop offset="1" stop-color="#66FFA4" stop-opacity="0.06"/>
</linearGradient>
<linearGradient id="paint17_linear_2033_6374" x1="220.646" y1="570.307" x2="226.026" y2="350.25" gradientUnits="userSpaceOnUse">
<stop stop-color="#4D49C7"/>
<stop offset="0.505208" stop-color="#579AFF"/>
<stop offset="1" stop-color="#66FFA4" stop-opacity="0.06"/>
</linearGradient>
<linearGradient id="paint18_linear_2033_6374" x1="220.646" y1="570.307" x2="226.026" y2="350.25" gradientUnits="userSpaceOnUse">
<stop stop-color="#4D49C7"/>
<stop offset="0.505208" stop-color="#579AFF"/>
<stop offset="1" stop-color="#66FFA4" stop-opacity="0.06"/>
</linearGradient>
<linearGradient id="paint19_linear_2033_6374" x1="220.646" y1="570.307" x2="226.026" y2="350.25" gradientUnits="userSpaceOnUse">
<stop stop-color="#4D49C7"/>
<stop offset="0.505208" stop-color="#579AFF"/>
<stop offset="1" stop-color="#66FFA4" stop-opacity="0.06"/>
</linearGradient>
<linearGradient id="paint20_linear_2033_6374" x1="220.646" y1="570.307" x2="226.026" y2="350.25" gradientUnits="userSpaceOnUse">
<stop stop-color="#4D49C7"/>
<stop offset="0.505208" stop-color="#579AFF"/>
<stop offset="1" stop-color="#66FFA4" stop-opacity="0.06"/>
</linearGradient>
<linearGradient id="paint21_linear_2033_6374" x1="220.646" y1="570.307" x2="226.026" y2="350.25" gradientUnits="userSpaceOnUse">
<stop stop-color="#4D49C7"/>
<stop offset="0.505208" stop-color="#579AFF"/>
<stop offset="1" stop-color="#66FFA4" stop-opacity="0.06"/>
</linearGradient>
<linearGradient id="paint22_linear_2033_6374" x1="220.646" y1="570.307" x2="226.026" y2="350.25" gradientUnits="userSpaceOnUse">
<stop stop-color="#4D49C7"/>
<stop offset="0.505208" stop-color="#579AFF"/>
<stop offset="1" stop-color="#66FFA4" stop-opacity="0.06"/>
</linearGradient>
<linearGradient id="paint23_linear_2033_6374" x1="220.646" y1="570.307" x2="226.026" y2="350.25" gradientUnits="userSpaceOnUse">
<stop stop-color="#4D49C7"/>
<stop offset="0.505208" stop-color="#579AFF"/>
<stop offset="1" stop-color="#66FFA4" stop-opacity="0.06"/>
</linearGradient>
<linearGradient id="paint24_linear_2033_6374" x1="220.646" y1="570.307" x2="226.026" y2="350.25" gradientUnits="userSpaceOnUse">
<stop stop-color="#4D49C7"/>
<stop offset="0.505208" stop-color="#579AFF"/>
<stop offset="1" stop-color="#66FFA4" stop-opacity="0.06"/>
</linearGradient>
<linearGradient id="paint25_linear_2033_6374" x1="220.646" y1="570.307" x2="226.026" y2="350.25" gradientUnits="userSpaceOnUse">
<stop stop-color="#4D49C7"/>
<stop offset="0.505208" stop-color="#579AFF"/>
<stop offset="1" stop-color="#66FFA4" stop-opacity="0.06"/>
</linearGradient>
<linearGradient id="paint26_linear_2033_6374" x1="220.646" y1="570.307" x2="226.026" y2="350.25" gradientUnits="userSpaceOnUse">
<stop stop-color="#4D49C7"/>
<stop offset="0.505208" stop-color="#579AFF"/>
<stop offset="1" stop-color="#66FFA4" stop-opacity="0.06"/>
</linearGradient>
<linearGradient id="paint27_linear_2033_6374" x1="220.646" y1="570.307" x2="226.026" y2="350.25" gradientUnits="userSpaceOnUse">
<stop stop-color="#4D49C7"/>
<stop offset="0.505208" stop-color="#579AFF"/>
<stop offset="1" stop-color="#66FFA4" stop-opacity="0.06"/>
</linearGradient>
<linearGradient id="paint28_linear_2033_6374" x1="220.646" y1="570.307" x2="226.026" y2="350.25" gradientUnits="userSpaceOnUse">
<stop stop-color="#4D49C7"/>
<stop offset="0.505208" stop-color="#579AFF"/>
<stop offset="1" stop-color="#66FFA4" stop-opacity="0.06"/>
</linearGradient>
<linearGradient id="paint29_linear_2033_6374" x1="220.646" y1="570.307" x2="226.026" y2="350.25" gradientUnits="userSpaceOnUse">
<stop stop-color="#4D49C7"/>
<stop offset="0.505208" stop-color="#579AFF"/>
<stop offset="1" stop-color="#66FFA4" stop-opacity="0.06"/>
</linearGradient>
<linearGradient id="paint30_linear_2033_6374" x1="220.646" y1="570.307" x2="226.026" y2="350.25" gradientUnits="userSpaceOnUse">
<stop stop-color="#4D49C7"/>
<stop offset="0.505208" stop-color="#579AFF"/>
<stop offset="1" stop-color="#66FFA4" stop-opacity="0.06"/>
</linearGradient>
<linearGradient id="paint31_linear_2033_6374" x1="220.646" y1="570.307" x2="226.026" y2="350.25" gradientUnits="userSpaceOnUse">
<stop stop-color="#4D49C7"/>
<stop offset="0.505208" stop-color="#579AFF"/>
<stop offset="1" stop-color="#66FFA4" stop-opacity="0.06"/>
</linearGradient>
<linearGradient id="paint32_linear_2033_6374" x1="220.646" y1="570.307" x2="226.026" y2="350.25" gradientUnits="userSpaceOnUse">
<stop stop-color="#4D49C7"/>
<stop offset="0.505208" stop-color="#579AFF"/>
<stop offset="1" stop-color="#66FFA4" stop-opacity="0.06"/>
</linearGradient>
<linearGradient id="paint33_linear_2033_6374" x1="220.646" y1="570.307" x2="226.026" y2="350.25" gradientUnits="userSpaceOnUse">
<stop stop-color="#4D49C7"/>
<stop offset="0.505208" stop-color="#579AFF"/>
<stop offset="1" stop-color="#66FFA4" stop-opacity="0.06"/>
</linearGradient>
<linearGradient id="paint34_linear_2033_6374" x1="220.646" y1="570.307" x2="226.026" y2="350.25" gradientUnits="userSpaceOnUse">
<stop stop-color="#4D49C7"/>
<stop offset="0.505208" stop-color="#579AFF"/>
<stop offset="1" stop-color="#66FFA4" stop-opacity="0.06"/>
</linearGradient>
<linearGradient id="paint35_linear_2033_6374" x1="220.646" y1="570.307" x2="226.026" y2="350.25" gradientUnits="userSpaceOnUse">
<stop stop-color="#4D49C7"/>
<stop offset="0.505208" stop-color="#579AFF"/>
<stop offset="1" stop-color="#66FFA4" stop-opacity="0.06"/>
</linearGradient>
<linearGradient id="paint36_linear_2033_6374" x1="220.646" y1="570.307" x2="226.026" y2="350.25" gradientUnits="userSpaceOnUse">
<stop stop-color="#4D49C7"/>
<stop offset="0.505208" stop-color="#579AFF"/>
<stop offset="1" stop-color="#66FFA4" stop-opacity="0.06"/>
</linearGradient>
<linearGradient id="paint37_linear_2033_6374" x1="220.646" y1="570.307" x2="226.026" y2="350.25" gradientUnits="userSpaceOnUse">
<stop stop-color="#4D49C7"/>
<stop offset="0.505208" stop-color="#579AFF"/>
<stop offset="1" stop-color="#66FFA4" stop-opacity="0.06"/>
</linearGradient>
<linearGradient id="paint38_linear_2033_6374" x1="220.646" y1="570.307" x2="226.026" y2="350.25" gradientUnits="userSpaceOnUse">
<stop stop-color="#4D49C7"/>
<stop offset="0.505208" stop-color="#579AFF"/>
<stop offset="1" stop-color="#66FFA4" stop-opacity="0.06"/>
</linearGradient>
<linearGradient id="paint39_linear_2033_6374" x1="220.646" y1="570.307" x2="226.026" y2="350.25" gradientUnits="userSpaceOnUse">
<stop stop-color="#4D49C7"/>
<stop offset="0.505208" stop-color="#579AFF"/>
<stop offset="1" stop-color="#66FFA4" stop-opacity="0.06"/>
</linearGradient>
<linearGradient id="paint40_linear_2033_6374" x1="220.646" y1="570.307" x2="226.026" y2="350.25" gradientUnits="userSpaceOnUse">
<stop stop-color="#4D49C7"/>
<stop offset="0.505208" stop-color="#579AFF"/>
<stop offset="1" stop-color="#66FFA4" stop-opacity="0.06"/>
</linearGradient>
<linearGradient id="paint41_linear_2033_6374" x1="220.646" y1="570.307" x2="226.026" y2="350.25" gradientUnits="userSpaceOnUse">
<stop stop-color="#4D49C7"/>
<stop offset="0.505208" stop-color="#579AFF"/>
<stop offset="1" stop-color="#66FFA4" stop-opacity="0.06"/>
</linearGradient>
<linearGradient id="paint42_linear_2033_6374" x1="220.646" y1="570.307" x2="226.026" y2="350.25" gradientUnits="userSpaceOnUse">
<stop stop-color="#4D49C7"/>
<stop offset="0.505208" stop-color="#579AFF"/>
<stop offset="1" stop-color="#66FFA4" stop-opacity="0.06"/>
</linearGradient>
<linearGradient id="paint43_linear_2033_6374" x1="220.646" y1="570.307" x2="226.026" y2="350.25" gradientUnits="userSpaceOnUse">
<stop stop-color="#4D49C7"/>
<stop offset="0.505208" stop-color="#579AFF"/>
<stop offset="1" stop-color="#66FFA4" stop-opacity="0.06"/>
</linearGradient>
<linearGradient id="paint44_linear_2033_6374" x1="220.646" y1="570.307" x2="226.026" y2="350.25" gradientUnits="userSpaceOnUse">
<stop stop-color="#4D49C7"/>
<stop offset="0.505208" stop-color="#579AFF"/>
<stop offset="1" stop-color="#66FFA4" stop-opacity="0.06"/>
</linearGradient>
<linearGradient id="paint45_linear_2033_6374" x1="220.646" y1="570.307" x2="226.026" y2="350.25" gradientUnits="userSpaceOnUse">
<stop stop-color="#4D49C7"/>
<stop offset="0.505208" stop-color="#579AFF"/>
<stop offset="1" stop-color="#66FFA4" stop-opacity="0.06"/>
</linearGradient>
<linearGradient id="paint46_linear_2033_6374" x1="220.646" y1="570.307" x2="226.026" y2="350.25" gradientUnits="userSpaceOnUse">
<stop stop-color="#4D49C7"/>
<stop offset="0.505208" stop-color="#579AFF"/>
<stop offset="1" stop-color="#66FFA4" stop-opacity="0.06"/>
</linearGradient>
<linearGradient id="paint47_linear_2033_6374" x1="220.646" y1="570.307" x2="226.026" y2="350.25" gradientUnits="userSpaceOnUse">
<stop stop-color="#4D49C7"/>
<stop offset="0.505208" stop-color="#579AFF"/>
<stop offset="1" stop-color="#66FFA4" stop-opacity="0.06"/>
</linearGradient>
<linearGradient id="paint48_linear_2033_6374" x1="220.646" y1="570.307" x2="226.026" y2="350.25" gradientUnits="userSpaceOnUse">
<stop stop-color="#4D49C7"/>
<stop offset="0.505208" stop-color="#579AFF"/>
<stop offset="1" stop-color="#66FFA4" stop-opacity="0.06"/>
</linearGradient>
<linearGradient id="paint49_linear_2033_6374" x1="220.646" y1="570.307" x2="226.026" y2="350.25" gradientUnits="userSpaceOnUse">
<stop stop-color="#4D49C7"/>
<stop offset="0.505208" stop-color="#579AFF"/>
<stop offset="1" stop-color="#66FFA4" stop-opacity="0.06"/>
</linearGradient>
<linearGradient id="paint50_linear_2033_6374" x1="220.646" y1="570.307" x2="226.026" y2="350.25" gradientUnits="userSpaceOnUse">
<stop stop-color="#4D49C7"/>
<stop offset="0.505208" stop-color="#579AFF"/>
<stop offset="1" stop-color="#66FFA4" stop-opacity="0.06"/>
</linearGradient>
<linearGradient id="paint51_linear_2033_6374" x1="220.646" y1="570.307" x2="226.026" y2="350.25" gradientUnits="userSpaceOnUse">
<stop stop-color="#4D49C7"/>
<stop offset="0.505208" stop-color="#579AFF"/>
<stop offset="1" stop-color="#66FFA4" stop-opacity="0.06"/>
</linearGradient>
<linearGradient id="paint52_linear_2033_6374" x1="220.646" y1="570.307" x2="226.026" y2="350.25" gradientUnits="userSpaceOnUse">
<stop stop-color="#4D49C7"/>
<stop offset="0.505208" stop-color="#579AFF"/>
<stop offset="1" stop-color="#66FFA4" stop-opacity="0.06"/>
</linearGradient>
<linearGradient id="paint53_linear_2033_6374" x1="220.646" y1="570.307" x2="226.026" y2="350.25" gradientUnits="userSpaceOnUse">
<stop stop-color="#4D49C7"/>
<stop offset="0.505208" stop-color="#579AFF"/>
<stop offset="1" stop-color="#66FFA4" stop-opacity="0.06"/>
</linearGradient>
<linearGradient id="paint54_linear_2033_6374" x1="220.646" y1="570.307" x2="226.026" y2="350.25" gradientUnits="userSpaceOnUse">
<stop stop-color="#4D49C7"/>
<stop offset="0.505208" stop-color="#579AFF"/>
<stop offset="1" stop-color="#66FFA4" stop-opacity="0.06"/>
</linearGradient>
<linearGradient id="paint55_linear_2033_6374" x1="220.646" y1="570.307" x2="226.026" y2="350.25" gradientUnits="userSpaceOnUse">
<stop stop-color="#4D49C7"/>
<stop offset="0.505208" stop-color="#579AFF"/>
<stop offset="1" stop-color="#66FFA4" stop-opacity="0.06"/>
</linearGradient>
<linearGradient id="paint56_linear_2033_6374" x1="220.646" y1="570.307" x2="226.026" y2="350.25" gradientUnits="userSpaceOnUse">
<stop stop-color="#4D49C7"/>
<stop offset="0.505208" stop-color="#579AFF"/>
<stop offset="1" stop-color="#66FFA4" stop-opacity="0.06"/>
</linearGradient>
<linearGradient id="paint57_linear_2033_6374" x1="220.646" y1="570.307" x2="226.026" y2="350.25" gradientUnits="userSpaceOnUse">
<stop stop-color="#4D49C7"/>
<stop offset="0.505208" stop-color="#579AFF"/>
<stop offset="1" stop-color="#66FFA4" stop-opacity="0.06"/>
</linearGradient>
<linearGradient id="paint58_linear_2033_6374" x1="220.646" y1="570.307" x2="226.026" y2="350.25" gradientUnits="userSpaceOnUse">
<stop stop-color="#4D49C7"/>
<stop offset="0.505208" stop-color="#579AFF"/>
<stop offset="1" stop-color="#66FFA4" stop-opacity="0.06"/>
</linearGradient>
<linearGradient id="paint59_linear_2033_6374" x1="220.646" y1="570.307" x2="226.026" y2="350.25" gradientUnits="userSpaceOnUse">
<stop stop-color="#4D49C7"/>
<stop offset="0.505208" stop-color="#579AFF"/>
<stop offset="1" stop-color="#66FFA4" stop-opacity="0.06"/>
</linearGradient>
<linearGradient id="paint60_linear_2033_6374" x1="220.646" y1="570.307" x2="226.026" y2="350.25" gradientUnits="userSpaceOnUse">
<stop stop-color="#4D49C7"/>
<stop offset="0.505208" stop-color="#579AFF"/>
<stop offset="1" stop-color="#66FFA4" stop-opacity="0.06"/>
</linearGradient>
<linearGradient id="paint61_linear_2033_6374" x1="220.646" y1="570.307" x2="226.026" y2="350.25" gradientUnits="userSpaceOnUse">
<stop stop-color="#4D49C7"/>
<stop offset="0.505208" stop-color="#579AFF"/>
<stop offset="1" stop-color="#66FFA4" stop-opacity="0.06"/>
</linearGradient>
<linearGradient id="paint62_linear_2033_6374" x1="220.646" y1="570.307" x2="226.026" y2="350.25" gradientUnits="userSpaceOnUse">
<stop stop-color="#4D49C7"/>
<stop offset="0.505208" stop-color="#579AFF"/>
<stop offset="1" stop-color="#66FFA4" stop-opacity="0.06"/>
</linearGradient>
<linearGradient id="paint63_linear_2033_6374" x1="220.646" y1="570.307" x2="226.026" y2="350.25" gradientUnits="userSpaceOnUse">
<stop stop-color="#4D49C7"/>
<stop offset="0.505208" stop-color="#579AFF"/>
<stop offset="1" stop-color="#66FFA4" stop-opacity="0.06"/>
</linearGradient>
<linearGradient id="paint64_linear_2033_6374" x1="220.646" y1="570.307" x2="226.026" y2="350.25" gradientUnits="userSpaceOnUse">
<stop stop-color="#4D49C7"/>
<stop offset="0.505208" stop-color="#579AFF"/>
<stop offset="1" stop-color="#66FFA4" stop-opacity="0.06"/>
</linearGradient>
<linearGradient id="paint65_linear_2033_6374" x1="208.485" y1="524.951" x2="246.735" y2="545.951" gradientUnits="userSpaceOnUse">
<stop stop-color="#4D49C7"/>
<stop offset="0.505208" stop-color="#579AFF"/>
<stop offset="1" stop-color="#66FFA4"/>
</linearGradient>
</defs>
</svg>
