<svg width="1920" height="955" viewBox="0 0 1920 955" fill="none" xmlns="http://www.w3.org/2000/svg">
<rect width="1920" height="955" fill="#1250FF"/>
<g opacity="0.3">
<path d="M240.889 103.591H242.571V110.318H246.391V112H240.889V103.591Z" fill="white"/>
<path d="M252.574 112C251.781 112 251.065 111.82 250.424 111.459C249.783 111.091 249.279 110.587 248.91 109.946C248.55 109.305 248.37 108.588 248.37 107.796C248.37 107.003 248.55 106.286 248.91 105.645C249.279 105.005 249.783 104.504 250.424 104.144C251.065 103.775 251.781 103.591 252.574 103.591C253.367 103.591 254.084 103.775 254.724 104.144C255.365 104.504 255.866 105.005 256.226 105.645C256.594 106.286 256.779 107.003 256.779 107.796C256.779 108.588 256.594 109.305 256.226 109.946C255.866 110.587 255.365 111.091 254.724 111.459C254.084 111.82 253.367 112 252.574 112ZM252.574 110.318C253.055 110.318 253.487 110.21 253.872 109.994C254.256 109.778 254.556 109.477 254.773 109.093C254.989 108.709 255.097 108.276 255.097 107.796C255.097 107.307 254.989 106.875 254.773 106.498C254.556 106.114 254.256 105.814 253.872 105.597C253.487 105.381 253.055 105.273 252.574 105.273C252.086 105.273 251.649 105.381 251.265 105.597C250.888 105.814 250.592 106.114 250.376 106.498C250.16 106.875 250.052 107.307 250.052 107.796C250.052 108.276 250.16 108.709 250.376 109.093C250.592 109.477 250.888 109.778 251.265 109.994C251.649 110.21 252.086 110.318 252.574 110.318Z" fill="white"/>
<path d="M259.592 107.808C259.592 107.007 259.769 106.286 260.121 105.645C260.481 105.005 260.986 104.504 261.635 104.144C262.283 103.775 263.028 103.591 263.869 103.591C264.462 103.591 265.022 103.691 265.551 103.892C266.087 104.084 266.556 104.38 266.956 104.78L266.139 106.342C265.523 105.629 264.738 105.273 263.785 105.273C263.296 105.273 262.86 105.381 262.475 105.597C262.099 105.806 261.803 106.102 261.587 106.486C261.378 106.871 261.274 107.307 261.274 107.796C261.274 108.292 261.378 108.733 261.587 109.117C261.803 109.501 262.103 109.802 262.487 110.018C262.88 110.226 263.328 110.33 263.833 110.33C264.321 110.33 264.766 110.206 265.166 109.958C265.567 109.702 265.815 109.341 265.911 108.877H263.557V107.195H267.845V107.748C267.845 108.636 267.669 109.401 267.317 110.042C266.964 110.683 266.484 111.171 265.875 111.507C265.274 111.836 264.606 112 263.869 112C263.036 112 262.295 111.82 261.647 111.459C260.998 111.099 260.493 110.603 260.133 109.97C259.773 109.329 259.592 108.608 259.592 107.808Z" fill="white"/>
<path d="M274.761 112C273.969 112 273.252 111.82 272.611 111.459C271.97 111.091 271.466 110.587 271.098 109.946C270.737 109.305 270.557 108.588 270.557 107.796C270.557 107.003 270.737 106.286 271.098 105.645C271.466 105.005 271.97 104.504 272.611 104.144C273.252 103.775 273.969 103.591 274.761 103.591C275.554 103.591 276.271 103.775 276.912 104.144C277.552 104.504 278.053 105.005 278.413 105.645C278.782 106.286 278.966 107.003 278.966 107.796C278.966 108.588 278.782 109.305 278.413 109.946C278.053 110.587 277.552 111.091 276.912 111.459C276.271 111.82 275.554 112 274.761 112ZM274.761 110.318C275.242 110.318 275.674 110.21 276.059 109.994C276.443 109.778 276.743 109.477 276.96 109.093C277.176 108.709 277.284 108.276 277.284 107.796C277.284 107.307 277.176 106.875 276.96 106.498C276.743 106.114 276.443 105.814 276.059 105.597C275.674 105.381 275.242 105.273 274.761 105.273C274.273 105.273 273.836 105.381 273.452 105.597C273.076 105.814 272.779 106.114 272.563 106.498C272.347 106.875 272.239 107.307 272.239 107.796C272.239 108.276 272.347 108.709 272.563 109.093C272.779 109.477 273.076 109.778 273.452 109.994C273.836 110.21 274.273 110.318 274.761 110.318Z" fill="white"/>
<path d="M284.013 105.273H280.974V103.591H288.734V105.273H285.695V112H284.013V105.273Z" fill="white"/>
<path d="M294.516 108.745L291.08 103.591H293.11L295.357 106.955L297.603 103.591H299.633L296.198 108.745V112H294.516V108.745Z" fill="white"/>
<path d="M302.277 103.591H305.569C306.129 103.591 306.634 103.719 307.082 103.976C307.539 104.232 307.891 104.584 308.139 105.033C308.395 105.473 308.524 105.974 308.524 106.534C308.524 107.095 308.395 107.599 308.139 108.048C307.891 108.488 307.543 108.837 307.094 109.093C306.646 109.341 306.137 109.465 305.569 109.465H303.959V112H302.277V103.591ZM305.569 107.784C305.961 107.784 306.269 107.667 306.493 107.435C306.726 107.203 306.842 106.903 306.842 106.534C306.842 106.158 306.726 105.854 306.493 105.621C306.269 105.389 305.961 105.273 305.569 105.273H303.959V107.784H305.569Z" fill="white"/>
<path d="M311.705 103.591H317.135V105.273H313.387V106.955H317.135V108.636H313.387V110.318H317.135V112H311.705V103.591Z" fill="white"/>
</g>
<path d="M1029.74 481.868C1030.03 486.646 1028.61 491.373 1025.73 495.193C1022.53 498.235 1018.29 499.931 1013.88 499.931C1009.47 499.931 1005.23 498.235 1002.04 495.193C999.16 491.37 997.746 486.643 998.053 481.868V446.872H984.404V482.729C984.318 488.083 985.538 493.378 987.958 498.154C990.237 502.697 993.829 506.448 998.268 508.922C1003.11 511.381 1008.46 512.663 1013.9 512.663C1019.33 512.663 1024.68 511.381 1029.52 508.922C1033.95 506.447 1037.54 502.695 1039.81 498.154C1042.23 493.38 1043.46 488.086 1043.39 482.729V447.034H1029.74V481.868Z" fill="white"/>
<path d="M856.32 490.455C856.429 492.105 856.917 493.708 857.746 495.139C858.589 496.592 859.76 497.827 861.165 498.746C864.48 501.03 868.451 502.165 872.472 501.977C875.976 502.136 879.457 501.335 882.54 499.662C883.666 499.027 884.597 498.096 885.232 496.97C885.915 495.87 886.278 494.603 886.281 493.309C886.363 492.396 886.243 491.478 885.932 490.617C885.616 489.765 885.13 488.987 884.505 488.328C883.158 487.146 881.524 486.339 879.767 485.986C877.775 485.529 874.733 485.044 870.614 484.533C865.877 484.054 861.192 483.153 856.616 481.841C853.243 480.87 850.193 479.011 847.786 476.457C845.435 473.645 844.234 470.049 844.421 466.389C844.363 462.636 845.514 458.964 847.705 455.917C850.074 452.734 853.267 450.259 856.939 448.756C861.165 447.028 865.699 446.176 870.264 446.253C877.303 445.926 884.269 447.808 890.185 451.637C892.68 453.366 894.728 455.664 896.161 458.34C897.628 461.001 898.449 463.971 898.557 467.008H885.393C885.235 465.549 884.757 464.143 883.993 462.889C883.227 461.634 882.199 460.56 880.978 459.74C878.091 457.743 874.633 456.741 871.126 456.886C867.773 456.723 864.443 457.506 861.515 459.147C860.401 459.752 859.47 460.647 858.821 461.736C858.172 462.826 857.828 464.071 857.827 465.339C857.748 466.15 857.863 466.969 858.163 467.727C858.462 468.485 858.938 469.162 859.55 469.7C860.895 470.746 862.475 471.449 864.153 471.746C866.011 472.123 868.999 472.553 873.118 473.065C877.898 473.488 882.624 474.39 887.224 475.757C890.735 476.818 893.885 478.83 896.323 481.572C898.721 484.632 899.935 488.456 899.741 492.339C899.812 496.228 898.559 500.025 896.188 503.107C893.638 506.278 890.267 508.69 886.443 510.08C882.002 511.776 877.278 512.607 872.525 512.529C865.062 512.87 857.685 510.814 851.474 506.661C848.898 504.831 846.801 502.408 845.357 499.597C843.914 496.786 843.169 493.669 843.183 490.509L856.32 490.455Z" fill="white"/>
<path d="M924.159 508.465C919.229 505.805 915.193 501.751 912.556 496.809C909.743 491.471 908.335 485.505 908.464 479.473C908.328 473.44 909.737 467.472 912.556 462.136C915.225 457.202 919.264 453.145 924.185 450.453C929.526 447.7 935.447 446.264 941.455 446.264C947.463 446.264 953.383 447.7 958.724 450.453C963.645 453.145 967.684 457.202 970.353 462.136C973.162 467.456 974.57 473.404 974.445 479.419C974.568 485.451 973.16 491.415 970.353 496.755C967.696 501.678 963.653 505.712 958.724 508.358C953.355 511.032 947.439 512.423 941.441 512.423C935.443 512.423 929.527 511.032 924.159 508.358V508.465ZM955.251 495.005C958.915 490.688 960.835 485.159 960.635 479.5C960.834 473.849 958.913 468.328 955.251 464.021C953.536 462.049 951.402 460.486 949.006 459.444C944.123 457.543 938.705 457.543 933.823 459.444C931.441 460.485 929.325 462.049 927.631 464.021C924.064 468.37 922.224 473.88 922.463 479.5C922.225 485.127 924.065 490.646 927.631 495.005C929.332 496.969 931.447 498.532 933.823 499.582C938.705 501.483 944.123 501.483 949.006 499.582C951.456 498.542 953.637 496.959 955.386 494.952L955.251 495.005Z" fill="white"/>
<path d="M1212.63 490.133C1211.85 493.526 1209.82 496.503 1206.95 498.478C1203.81 500.541 1200.1 501.585 1196.34 501.466C1193.99 501.585 1191.64 501.216 1189.44 500.382C1187.24 499.548 1185.24 498.267 1183.56 496.62C1180.16 492.952 1178.24 488.158 1178.17 483.16V482.353H1227.01C1227.26 480.642 1227.39 478.914 1227.38 477.184C1227.44 471.468 1225.98 465.839 1223.16 460.871C1220.49 456.299 1216.59 452.569 1211.9 450.103C1206.8 447.499 1201.13 446.195 1195.4 446.307C1189.68 446.205 1184.03 447.627 1179.03 450.426C1174.29 453.162 1170.42 457.197 1167.89 462.055C1165.14 467.481 1163.77 473.5 1163.91 479.58C1163.78 485.618 1165.21 491.587 1168.05 496.916C1170.72 501.826 1174.76 505.849 1179.68 508.492C1185.12 511.326 1191.18 512.734 1197.31 512.584C1204.32 512.836 1211.2 510.605 1216.72 506.285C1220.52 503.263 1223.41 499.247 1225.07 494.682L1212.63 490.133ZM1184.39 461.436C1187.62 458.698 1191.74 457.234 1195.97 457.317C1200.29 457.177 1204.52 458.59 1207.89 461.302C1211.13 464.128 1213.14 468.107 1213.49 472.392H1178.82C1178.99 470.286 1179.57 468.235 1180.54 466.358C1181.51 464.481 1182.85 462.817 1184.47 461.463L1184.39 461.436Z" fill="white"/>
<path d="M1142.61 488.544C1141.93 492.096 1140.02 495.296 1137.23 497.589C1134.24 499.901 1130.53 501.092 1126.76 500.954C1124.24 501.042 1121.74 500.545 1119.44 499.504C1117.15 498.462 1115.13 496.904 1113.54 494.951C1110.06 490.503 1108.28 484.955 1108.53 479.311C1108.26 473.738 1110.04 468.257 1113.54 463.913C1115.13 461.964 1117.16 460.415 1119.46 459.39C1121.75 458.367 1124.25 457.879 1126.76 457.963C1130.4 457.778 1133.98 458.892 1136.88 461.106C1139.77 463.319 1141.78 466.489 1142.56 470.05L1155.43 465.366C1153.91 460.406 1150.97 455.998 1146.97 452.687C1141.32 448.264 1134.28 445.994 1127.11 446.28C1121.14 446.164 1115.25 447.582 1109.99 450.399C1105.13 453.065 1101.15 457.087 1098.54 461.974C1095.76 467.322 1094.38 473.284 1094.51 479.311C1094.38 485.365 1095.74 491.358 1098.49 496.755C1101.02 501.682 1104.96 505.748 1109.8 508.438C1114.99 511.269 1120.84 512.689 1126.76 512.557C1133.99 512.857 1141.1 510.598 1146.84 506.177C1150.97 502.815 1153.99 498.283 1155.51 493.174L1142.61 488.544Z" fill="white"/>
<path d="M1064.03 453.71C1066.57 451.215 1069.59 449.267 1072.91 447.989C1076.23 446.711 1079.78 446.129 1083.33 446.28C1085.98 446.287 1088.62 446.65 1091.17 447.357V460.252C1090.25 460.252 1088.48 460.09 1085.65 460.09C1083.63 459.952 1081.61 460.236 1079.71 460.921C1077.81 461.607 1076.08 462.681 1074.61 464.074C1072.06 466.73 1070.78 471.217 1070.76 477.534V511.803H1056.66V474.115C1056.46 470.393 1057.01 466.669 1058.27 463.164C1059.54 459.658 1061.5 456.443 1064.03 453.71Z" fill="white"/>
<path fill-rule="evenodd" clip-rule="evenodd" d="M761.109 432.228C757.465 422.351 745.449 417.214 735.468 422.997L701.554 442.66C698.845 444.23 696.596 446.488 695.033 449.205C693.47 451.922 692.647 455.003 692.647 458.139V496.977C692.647 510.722 707.491 519.356 719.391 512.46L753.304 492.811C756.014 491.24 758.264 488.982 759.828 486.265C761.391 483.547 762.214 480.465 762.215 477.328V454.45L772.583 448.443C772.704 448.373 772.825 448.306 772.947 448.241V487.415C772.947 489.471 772.408 491.489 771.384 493.268C770.361 495.046 768.889 496.522 767.119 497.547L726.864 520.884L727.764 523.325C731.409 533.201 743.424 538.339 753.405 532.556L787.318 512.893L787.319 512.892C790.029 511.322 792.278 509.065 793.841 506.348C795.404 503.631 796.226 500.549 796.226 497.413V458.576C796.226 444.83 781.382 436.197 769.482 443.093L735.569 462.742C732.859 464.312 730.609 466.57 729.046 469.288C727.482 472.005 726.659 475.088 726.658 478.224V501.102L716.29 507.109C716.17 507.179 716.048 507.247 715.927 507.312V468.137C715.927 466.082 716.466 464.063 717.489 462.285C718.513 460.506 719.984 459.031 721.754 458.005L762.01 434.669L761.109 432.228ZM732.842 497.52L750.203 487.461C751.973 486.435 753.444 484.959 754.468 483.181C755.491 481.402 756.031 479.384 756.031 477.328V458.033L738.67 468.092C736.9 469.117 735.429 470.593 734.406 472.372C733.382 474.151 732.843 476.169 732.842 478.224V497.52ZM709.743 468.138V508.664C703.965 508.283 698.831 503.534 698.831 496.977V458.139C698.831 456.084 699.37 454.066 700.393 452.288C701.416 450.51 702.886 449.035 704.655 448.01L738.569 428.347C744.223 425.071 750.95 427.167 754.154 432.075L718.655 452.654L718.654 452.655C715.943 454.225 713.693 456.483 712.129 459.201C710.566 461.919 709.743 465.001 709.743 468.138ZM779.13 487.415V446.888C784.908 447.27 790.042 452.019 790.042 458.576V497.414C790.042 499.468 789.504 501.486 788.481 503.264C787.458 505.042 785.987 506.517 784.218 507.542L750.305 527.205C744.651 530.481 737.923 528.386 734.719 523.478L770.22 502.898C772.93 501.327 775.18 499.069 776.744 496.352C778.308 493.634 779.131 490.552 779.13 487.415Z" fill="white"/>
</svg>
