<svg width="1920" height="1007" viewBox="0 0 1920 1007" fill="none" xmlns="http://www.w3.org/2000/svg">
<path d="M0 0H1920V1007H0V0Z" fill="white"/>
<path d="M240 287H1686V1007H240V287Z" fill="#030E2E"/>
<path d="M882.641 607V618.859H871.145V607H882.641ZM871.578 625.699H882.301V669.332H871.578V625.699ZM932.872 625.699V671.765C932.872 680.852 926.255 687 916.416 687H894.747V678.518H914.952C919.221 678.518 922.266 675.316 922.266 670.729V664.494C920.094 667.87 915.039 670.03 909.552 670.03C896.322 670.03 888.65 660.855 888.65 647.524C888.65 634.192 896.317 625.018 909.382 625.018C914.858 625.018 919.648 627.265 922.184 630.641V625.71L932.872 625.699V625.699ZM922.916 647.518C922.916 639.467 918.231 634.187 910.987 634.187C903.742 634.187 899.227 639.467 899.227 647.518C899.227 655.569 903.842 660.849 910.987 660.849C918.243 660.838 922.94 655.598 922.94 647.518H922.916ZM941.838 607H952.461V632.452C954.898 627.69 959.952 625.006 966.218 625.006C976.063 625.006 982.505 632.108 982.505 642.325V669.332H971.881V644.572C971.881 638.599 968.139 634.443 962.652 634.443C956.719 634.443 952.461 639.1 952.461 645.504V669.32H941.838V607V607ZM991.125 607H1001.75V669.332H991.125V607ZM1021.43 607V618.859H1009.93V607H1021.43ZM1010.36 625.699H1021.09V669.332H1010.36V625.699ZM1029.41 625.699H1040.13V632.452C1042.56 627.69 1047.53 625.006 1053.8 625.006C1063.73 625.006 1070.17 632.109 1070.17 642.326V669.332H1059.46V644.573C1059.46 638.6 1055.81 634.443 1050.32 634.443C1044.3 634.443 1040.13 639.1 1040.13 645.504V669.32H1029.41V625.699V625.699ZM1119 654.789C1117.35 664.051 1109.16 670.024 1098.36 670.024C1083.98 670.024 1075.98 658.771 1075.98 647.32C1075.98 635.869 1083.12 624.983 1097.49 624.983C1112.21 624.983 1118.83 635.642 1118.83 646.022C1118.83 647.495 1118.74 648.793 1118.65 649.649H1086.25C1087.04 656.664 1091.56 661.164 1098.34 661.164C1103.83 661.164 1107.4 658.911 1108.53 654.76L1119 654.789V654.789ZM1086.51 642.669H1108.11C1107.68 637.127 1103.85 632.97 1097.49 632.97C1091.48 632.982 1087.65 636.09 1086.51 642.669ZM849.201 647.21V669.372H861.734V643.717H852.715C851.783 643.717 850.889 644.085 850.23 644.74C849.904 645.063 849.645 645.448 849.468 645.872C849.292 646.296 849.201 646.751 849.201 647.21V647.21ZM820.539 627.655V607.041H808V631.148H817.025C817.957 631.148 818.85 630.78 819.509 630.125C819.835 629.802 820.093 629.417 820.27 628.993C820.447 628.569 820.538 628.114 820.539 627.655V627.655ZM849.2 607.041V629.983C849.2 630.601 848.953 631.193 848.514 631.63C848.073 632.067 847.478 632.313 846.858 632.312H824.052C823.121 632.312 822.227 632.68 821.568 633.335C821.242 633.659 820.983 634.043 820.806 634.467C820.63 634.891 820.539 635.346 820.539 635.805V640.206C820.539 640.824 820.292 641.416 819.853 641.853C819.412 642.29 818.816 642.535 818.196 642.535H809.148C808.838 642.535 808.541 642.657 808.322 642.875C808.102 643.093 807.978 643.39 807.977 643.699V669.372H820.515V644.881C820.515 644.263 820.762 643.671 821.201 643.234C821.641 642.797 822.237 642.552 822.858 642.552H845.663C846.595 642.552 847.488 642.184 848.147 641.529C848.473 641.206 848.732 640.821 848.908 640.397C849.085 639.973 849.176 639.518 849.177 639.059V634.641C849.177 634.023 849.423 633.431 849.863 632.994C850.303 632.557 850.898 632.312 851.519 632.312H860.567C860.72 632.313 860.872 632.284 861.014 632.226C861.157 632.168 861.286 632.082 861.395 631.974C861.504 631.866 861.59 631.737 861.649 631.595C861.708 631.454 861.739 631.302 861.739 631.148V607.041H849.2Z" fill="#F1F4FE"/>
<path opacity="0.3" d="M239.889 203.591H241.571V210.318H245.391V212H239.889V203.591V203.591ZM251.574 212C250.781 212 250.065 211.82 249.424 211.459C248.792 211.1 248.269 210.577 247.91 209.946C247.55 209.305 247.37 208.588 247.37 207.796C247.37 207.003 247.55 206.286 247.91 205.645C248.267 205.016 248.791 204.496 249.424 204.144C250.065 203.775 250.781 203.591 251.574 203.591C252.367 203.591 253.084 203.775 253.724 204.144C254.365 204.504 254.866 205.005 255.226 205.645C255.594 206.286 255.779 207.003 255.779 207.796C255.779 208.588 255.594 209.305 255.226 209.946C254.874 210.579 254.354 211.102 253.724 211.459C253.084 211.82 252.367 212 251.574 212ZM251.574 210.318C252.055 210.318 252.487 210.21 252.872 209.994C253.25 209.783 253.562 209.471 253.773 209.093C253.989 208.709 254.097 208.276 254.097 207.796C254.097 207.307 253.989 206.875 253.773 206.498C253.562 206.12 253.25 205.808 252.872 205.597C252.475 205.378 252.027 205.266 251.574 205.273C251.086 205.273 250.649 205.381 250.265 205.597C249.891 205.81 249.584 206.122 249.376 206.498C249.155 206.894 249.043 207.342 249.052 207.796C249.052 208.276 249.16 208.709 249.376 209.093C249.592 209.477 249.888 209.778 250.265 209.994C250.649 210.21 251.086 210.318 251.574 210.318ZM258.592 207.808C258.592 207.007 258.769 206.286 259.121 205.645C259.481 205.005 259.986 204.504 260.635 204.144C261.283 203.775 262.028 203.591 262.869 203.591C263.462 203.591 264.022 203.691 264.551 203.892C265.079 204.079 265.56 204.383 265.956 204.78L265.139 206.342C264.523 205.629 263.738 205.273 262.785 205.273C262.327 205.265 261.876 205.377 261.475 205.597C261.101 205.804 260.793 206.112 260.587 206.486C260.373 206.889 260.266 207.34 260.274 207.796C260.274 208.292 260.378 208.733 260.587 209.117C260.803 209.501 261.103 209.802 261.487 210.018C261.88 210.226 262.328 210.33 262.833 210.33C263.303 210.335 263.766 210.206 264.166 209.958C264.567 209.702 264.815 209.341 264.911 208.877H262.557V207.195H266.845V207.748C266.845 208.636 266.669 209.401 266.317 210.042C265.987 210.659 265.487 211.168 264.875 211.507C264.259 211.84 263.568 212.009 262.869 212C262.036 212 261.295 211.82 260.647 211.459C260.013 211.114 259.488 210.598 259.133 209.97C258.773 209.329 258.592 208.608 258.592 207.808V207.808ZM273.761 212C272.969 212 272.252 211.82 271.611 211.459C270.979 211.1 270.456 210.578 270.098 209.946C269.737 209.305 269.557 208.588 269.557 207.796C269.557 207.003 269.737 206.286 270.098 205.645C270.455 205.015 270.978 204.496 271.611 204.144C272.252 203.775 272.969 203.591 273.761 203.591C274.554 203.591 275.271 203.775 275.912 204.144C276.552 204.504 277.053 205.005 277.413 205.645C277.782 206.286 277.966 207.003 277.966 207.796C277.966 208.588 277.782 209.305 277.413 209.946C277.061 210.579 276.541 211.102 275.912 211.459C275.271 211.82 274.554 212 273.761 212ZM273.761 210.318C274.242 210.318 274.674 210.21 275.059 209.994C275.437 209.783 275.749 209.471 275.96 209.093C276.176 208.709 276.284 208.276 276.284 207.796C276.284 207.307 276.176 206.875 275.96 206.498C275.749 206.12 275.437 205.808 275.059 205.597C274.662 205.378 274.214 205.266 273.761 205.273C273.273 205.273 272.836 205.381 272.452 205.597C272.079 205.811 271.771 206.122 271.563 206.498C271.342 206.894 271.23 207.342 271.239 207.796C271.239 208.276 271.347 208.709 271.563 209.093C271.779 209.477 272.076 209.778 272.452 209.994C272.836 210.21 273.273 210.318 273.761 210.318ZM283.013 205.273H279.974V203.591H287.734V205.273H284.695V212H283.013V205.273V205.273ZM293.516 208.745L290.08 203.591H292.11L294.357 206.955L296.603 203.591H298.633L295.198 208.745V212H293.516V208.745V208.745ZM301.277 203.591H304.569C305.129 203.591 305.634 203.719 306.082 203.976C306.539 204.232 306.891 204.584 307.139 205.033C307.395 205.473 307.524 205.974 307.524 206.534C307.531 207.064 307.398 207.586 307.139 208.048C306.891 208.488 306.543 208.837 306.094 209.093C305.626 209.346 305.101 209.474 304.569 209.465H302.959V212H301.277V203.591V203.591ZM304.569 207.784C304.961 207.784 305.269 207.667 305.493 207.435C305.726 207.203 305.842 206.903 305.842 206.534C305.842 206.158 305.726 205.854 305.493 205.621C305.269 205.389 304.961 205.273 304.569 205.273H302.959V207.784H304.569V207.784ZM310.705 203.591H316.135V205.273H312.387V206.955H316.135V208.636H312.387V210.318H316.135V212H310.705V203.591V203.591Z" fill="#12183D"/>
</svg>
