<svg xmlns="http://www.w3.org/2000/svg" width="168" height="65" viewBox="0 0 168 65">
    <path fill="#1F1F1F" fill-rule="evenodd" d="M40.894 38.22c-.314 4.443-1.279 6.853-3.077 7.69-.652.304-1.805.32-2.436.034-1.563-.71-2.672-2.866-3.228-6.278-.352-2.163-.386-6.973-.065-9.33.451-3.31 1.403-5.266 2.886-5.926 1.017-.453 2.425-.185 3.331.633 2.012 1.818 3.027 6.985 2.589 13.177zm3.466-12.645c-1.98-1.866-4.474-2.76-7.699-2.76-3.418 0-6.17 1.06-8.289 3.19-2.269 2.284-3.469 5.47-3.469 9.207 0 3.878 1.085 7.009 3.187 9.202 1.16 1.21 2.288 1.934 3.906 2.51.572.204.993.301 2.523.586.131.024 1.01.029 1.952.01 1.276-.026 1.92-.083 2.523-.223 1.689-.395 3.036-.997 4.24-1.896 2.927-2.186 4.532-5.54 4.68-9.781.146-4.182-1.115-7.747-3.554-10.045zm88.405 11.187c.573 1.19.728 2.97.397 4.57-.685 3.314-3.297 5.483-7.342 6.097-1.116.17-3.38.164-4.855-.012-1.901-.227-4.642-.878-5.065-1.202-.142-.109-.167-.5-.227-3.476l-.067-3.353.269-.102c.585-.223.611-.203.997.735 1.476 3.595 3.289 5.299 5.865 5.51 1.895.154 3.343-.604 4.066-2.13.277-.585.302-.719.302-1.59 0-.906-.016-.983-.33-1.562a3.655 3.655 0 0 0-.892-1.077c-.64-.532-2.33-1.376-3.966-1.98-2.08-.768-3.3-1.485-4.24-2.49-1.091-1.168-1.585-2.505-1.593-4.316-.006-1.276.174-2.092.697-3.15.983-1.991 2.864-3.423 5.402-4.112.873-.237 1.046-.25 3.161-.253 1.772-.002 2.435.034 3.19.173 1.001.184 2.523.598 3.106.845l.345.146.07 2.965c.04 1.631.042 2.995.006 3.031-.036.036-.237.116-.446.178-.332.098-.388.092-.435-.046-.309-.892-.942-2.336-1.25-2.851-.968-1.618-2.04-2.492-3.465-2.828-1.18-.279-2.193-.149-3.001.385-.966.637-1.472 1.66-1.482 2.994-.007.884.158 1.394.664 2.057.612.803 2.108 1.697 4.602 2.752 3.36 1.42 4.715 2.426 5.517 4.092zM16.981 16.169l-3.496-.03-.047.22c-.126.583-.378 13.117-.267 13.283.06.09.535.095 2.12.021 1.124-.052 2.236-.139 2.472-.193.959-.221 1.713-.902 2.248-2.03.342-.719.703-1.86.703-2.221 0-.2.04-.215.62-.215h.618v11.053l-.581-.028L20.79 36l-.222-.876c-.502-1.99-1.504-3.269-2.805-3.58-.47-.113-4.496-.273-4.586-.183-.1.1.054 6.537.208 8.728.217 3.083.776 4.53 1.985 5.138.34.171 2.453.627 2.907.627.032 0 .057.236.057.524v.524H1.293V45.87l.478-.102c.263-.057.772-.151 1.132-.21 1.306-.217 2.097-.93 2.522-2.274.516-1.635.619-3.32.693-11.425.07-7.67-.082-11.767-.501-13.583-.27-1.17-.7-1.912-1.397-2.418-.46-.333-.88-.458-2.023-.6l-.857-.108-.028-.594-.028-.595h26.55l.056 1.452c.03.798.076 2.85.102 4.561l.047 3.11-.673.204c-.37.113-.683.192-.695.175a17.97 17.97 0 0 1-.284-.79 20.907 20.907 0 0 0-.725-1.74c-1.132-2.39-2.488-3.769-4.372-4.444l-.814-.29-3.495-.03zm50.642 7.302c-.068.245-2.264 6.046-2.303 6.085-.02.02-.35-.118-.733-.306-1.336-.656-3.045-.897-4.382-.618-.658.137-1.589.58-1.887.897l-.236.251v5.443c0 6.973.141 8.694.789 9.627.447.644.913.814 2.615.958l.738.062V46.901H48.219l.028-.5.03-.5.845-.164c.465-.091.979-.243 1.142-.337.44-.255.879-.973 1.048-1.718.332-1.457.446-12.131.16-14.87-.22-2.1-.74-2.818-2.214-3.055-1.071-.172-1.03-.151-1.03-.51 0-.18.039-.35.085-.379.113-.07.768-.207 5.485-1.154 2.2-.441 4.102-.827 4.228-.856l.23-.055-.066 2.624c-.052 2.097-.04 2.624.057 2.623.066 0 .326-.376.577-.835 1.511-2.764 3.61-4.335 5.974-4.472.884-.052 1.57.057 2.36.373.37.148.496.244.465.355zm38.48 8.804c-1.987.11-6.256.167-6.307.082-.072-.115.106-1.81.281-2.688.424-2.115 1.103-3.643 2.037-4.584.502-.506.731-.664 1.14-.785.282-.084.602-.152.71-.152.437.001.952.224 1.336.578 1.03.949 1.62 2.987 1.736 6.004l.057 1.49-.99.055zm1.942-8.885c-1.11-.405-2.16-.575-3.545-.575-3.278 0-5.956 1.075-8.028 3.224-1.652 1.714-2.632 3.638-3.23 6.344-.18.815-.21 1.239-.21 2.951 0 1.7.03 2.138.205 2.924 1.11 4.994 4.395 8.282 9.115 9.124 1.196.214 2.959.23 4.139.039 2.206-.358 4.378-1.417 5.94-2.895.855-.81 1.138-1.2 1.02-1.406-.318-.546-.304-.545-1.115-.048-1.29.793-1.937 1.012-3.452 1.167-1.771.182-3.404-.114-4.913-.89-1.002-.515-2.201-1.699-2.8-2.764-.82-1.453-1.263-3.15-1.395-5.332-.056-.916-.044-1.145.063-1.213.074-.046 3.248-.084 7.107-.085l6.974-.001v-.276c0-.626-.206-2.31-.39-3.192-.74-3.548-2.697-6.078-5.485-7.096zM83.614 38.091c-.438 2.774-1.234 4.915-2.343 6.298-.538.67-1.43 1.305-2.128 1.512-.45.134-1.415.165-2.274.074-.193-.02-.399-.095-.458-.166-.163-.197-.34-13.12-.231-16.901l.086-3 .762-.219c1.124-.324 2.333-.274 3.19.133 1.723.816 2.855 2.832 3.442 6.132.192 1.075.163 4.808-.046 6.137zm-.22-14.816c-1.866-.388-4.265-.084-6.09.77-.454.214-.89.388-.967.388-.122 0-.136-.705-.104-5.553l.035-5.553-.381.076c-.21.043-2.353.442-4.762.888a591.96 591.96 0 0 0-4.588.86c-.175.04-.205.107-.186.405.02.332.048.362.399.44 1.207.265 1.422.36 1.87.823.55.568.798 1.293.961 2.806.13 1.206.159 21.982.035 25.048l-.074 1.819.982.21c3.718.795 7.423 1.07 9.74.722 2.893-.434 5.014-1.427 6.81-3.188 2.598-2.546 3.848-6.14 3.68-10.568-.088-2.28-.46-3.77-1.405-5.617-1.28-2.503-3.47-4.26-5.956-4.776z"/>
</svg>
