<svg width="1920" height="480" fill="none" xmlns="http://www.w3.org/2000/svg"><path fill="#fff" d="M0 0h1920v480H0z"/><g opacity=".3" fill="#181819"><path d="M852.969 377.591h3.051c.785 0 1.489.185 2.114.553.625.36 1.113.861 1.466 1.501.36.633.54 1.35.54 2.151 0 .801-.18 1.521-.54 2.162a3.945 3.945 0 0 1-1.466 1.502c-.625.36-1.329.54-2.114.54h-3.051v-8.409Zm3.051 6.727c.472 0 .893-.108 1.261-.324a2.28 2.28 0 0 0 .865-.901 2.68 2.68 0 0 0 .312-1.297c0-.481-.104-.913-.312-1.298a2.287 2.287 0 0 0-.865-.901 2.446 2.446 0 0 0-1.261-.324h-1.369v5.045h1.369ZM863.441 377.591h5.429v1.682h-3.748v1.682h3.748v1.682h-3.748v1.681h3.748V386h-5.429v-8.409ZM874.801 386c-.745 0-1.365-.184-1.862-.553-.488-.376-.809-.9-.961-1.573l1.514-.625c.16.713.596 1.069 1.309 1.069.32 0 .569-.06.745-.18a.631.631 0 0 0 .276-.552.596.596 0 0 0-.144-.421 1.228 1.228 0 0 0-.444-.3 13.25 13.25 0 0 0-.937-.349c-.713-.248-1.266-.56-1.658-.937-.385-.384-.577-.9-.577-1.549 0-.745.244-1.338.733-1.778.497-.44 1.153-.661 1.97-.661.745 0 1.361.189 1.85.565.496.368.821.889.973 1.562l-1.514.624c-.08-.36-.228-.628-.444-.805-.208-.176-.497-.264-.865-.264-.32 0-.573.064-.757.192-.176.12-.264.301-.264.541 0 .176.048.32.144.432.096.104.244.2.445.289.2.088.512.204.937.348.712.248 1.261.565 1.645.949.393.376.589.889.589 1.538 0 .744-.248 1.337-.745 1.777-.488.441-1.141.661-1.958.661ZM880.924 377.591h1.681V386h-1.681v-8.409ZM885.906 381.808c0-.801.176-1.522.528-2.163a3.848 3.848 0 0 1 1.514-1.501c.649-.368 1.393-.553 2.234-.553.593 0 1.154.1 1.682.301a3.746 3.746 0 0 1 1.406.889l-.817 1.561c-.617-.713-1.402-1.069-2.355-1.069-.488 0-.925.108-1.309.324a2.262 2.262 0 0 0-.889.889 2.71 2.71 0 0 0-.312 1.31c0 .496.104.937.312 1.321.216.384.516.685.901.901.392.208.841.312 1.345.312.489 0 .933-.124 1.334-.372.4-.256.648-.617.744-1.081h-2.354v-1.682h4.288v.553c0 .889-.176 1.653-.528 2.294a3.63 3.63 0 0 1-1.442 1.466c-.6.328-1.269.492-2.006.492-.833 0-1.573-.18-2.222-.54a3.874 3.874 0 0 1-1.514-1.49c-.36-.641-.54-1.361-.54-2.162ZM897.351 377.591h1.465l4.541 5.526v-5.526h1.682V386h-1.466l-4.54-5.526V386h-1.682v-8.409ZM920.197 384.667h-4.421l-.613 1.333h-1.849l3.892-8.409h1.561l3.892 8.409h-1.85l-.612-1.333Zm-.781-1.682-1.43-3.087-1.429 3.087h2.859ZM924.746 381.784c0-.785.184-1.498.553-2.139a3.952 3.952 0 0 1 1.513-1.501 4.242 4.242 0 0 1 2.15-.553c.585 0 1.134.1 1.646.301.521.192.981.472 1.382.84l-.805 1.538a3.464 3.464 0 0 0-1.033-.745 2.812 2.812 0 0 0-1.202-.252c-.48 0-.913.108-1.297.324a2.247 2.247 0 0 0-.901.889 2.63 2.63 0 0 0-.324 1.31c0 .488.108.925.324 1.309.216.384.513.685.889.901.384.208.813.312 1.285.312.921 0 1.71-.356 2.367-1.069l.829 1.562c-.865.793-1.922 1.189-3.172 1.189a4.209 4.209 0 0 1-2.138-.553 4.032 4.032 0 0 1-1.513-1.513c-.369-.641-.553-1.357-.553-2.15ZM939.661 386l-1.802-2.811h-1.045V386h-1.682v-8.409h3.58c.521 0 .993.124 1.418.373.432.24.768.576 1.009 1.009.248.424.372.897.372 1.417 0 .609-.164 1.149-.492 1.622a2.62 2.62 0 0 1-1.31.997l2.006 2.991h-2.054Zm-2.847-4.493h1.898c.329 0 .597-.104.805-.312.208-.216.312-.484.312-.805 0-.328-.104-.596-.312-.805-.208-.208-.476-.312-.805-.312h-1.898v2.234ZM948.401 386c-.792 0-1.509-.18-2.15-.54a4.042 4.042 0 0 1-1.513-1.514c-.361-.641-.541-1.357-.541-2.15 0-.793.18-1.51.541-2.151a3.952 3.952 0 0 1 1.513-1.501 4.242 4.242 0 0 1 2.15-.553c.793 0 1.51.185 2.151.553.64.36 1.141.861 1.501 1.501.369.641.553 1.358.553 2.151 0 .793-.184 1.509-.553 2.15a3.955 3.955 0 0 1-1.501 1.514c-.641.36-1.358.54-2.151.54Zm0-1.682c.481 0 .913-.108 1.298-.324.384-.216.685-.517.901-.901.216-.384.324-.817.324-1.297 0-.489-.108-.921-.324-1.298a2.33 2.33 0 0 0-.901-.901 2.605 2.605 0 0 0-1.298-.324c-.488 0-.925.108-1.309.324a2.353 2.353 0 0 0-.889.901 2.562 2.562 0 0 0-.324 1.298c0 .48.108.913.324 1.297.216.384.513.685.889.901.384.216.821.324 1.309.324ZM958.208 386c-.744 0-1.365-.184-1.862-.553-.488-.376-.808-.9-.961-1.573l1.514-.625c.16.713.597 1.069 1.309 1.069.321 0 .569-.06.745-.18a.631.631 0 0 0 .276-.552.596.596 0 0 0-.144-.421 1.228 1.228 0 0 0-.444-.3 13.06 13.06 0 0 0-.937-.349c-.713-.248-1.266-.56-1.658-.937-.384-.384-.577-.9-.577-1.549 0-.745.245-1.338.733-1.778.497-.44 1.153-.661 1.97-.661.745 0 1.362.189 1.85.565.497.368.821.889.973 1.562l-1.513.624c-.08-.36-.229-.628-.445-.805-.208-.176-.496-.264-.865-.264-.32 0-.572.064-.757.192-.176.12-.264.301-.264.541 0 .176.048.32.144.432.096.104.245.2.445.289.2.088.512.204.937.348.713.248 1.261.565 1.645.949.393.376.589.889.589 1.538 0 .744-.248 1.337-.745 1.777-.488.441-1.141.661-1.958.661ZM966.709 386c-.744 0-1.365-.184-1.862-.553-.488-.376-.808-.9-.961-1.573l1.514-.625c.16.713.597 1.069 1.309 1.069.321 0 .569-.06.745-.18a.631.631 0 0 0 .276-.552.596.596 0 0 0-.144-.421 1.228 1.228 0 0 0-.444-.3 13.06 13.06 0 0 0-.937-.349c-.713-.248-1.266-.56-1.658-.937-.384-.384-.577-.9-.577-1.549 0-.745.245-1.338.733-1.778.497-.44 1.153-.661 1.97-.661.745 0 1.362.189 1.85.565.497.368.821.889.973 1.562l-1.513.624c-.08-.36-.229-.628-.445-.805-.208-.176-.496-.264-.865-.264-.32 0-.572.064-.757.192-.176.12-.264.301-.264.541 0 .176.048.32.144.432.096.104.245.2.445.289.2.088.512.204.937.348.713.248 1.261.565 1.646.949.392.376.588.889.588 1.538 0 .744-.248 1.337-.745 1.777-.488.441-1.141.661-1.958.661ZM978.248 377.591h3.291a2.99 2.99 0 0 1 1.514.385 2.68 2.68 0 0 1 1.057 1.057c.256.44.384.941.384 1.501a3 3 0 0 1-.384 1.514c-.248.44-.597.789-1.045 1.045a3.101 3.101 0 0 1-1.526.372h-1.61V386h-1.681v-8.409Zm3.291 4.193c.393 0 .701-.116.925-.349.232-.232.348-.532.348-.901 0-.376-.116-.68-.348-.913-.224-.232-.532-.348-.925-.348h-1.61v2.511h1.61ZM987.675 377.591h1.682v6.727h3.82V386h-5.502v-8.409ZM1002.3 384.667h-4.419l-.612 1.333h-1.85l3.892-8.409h1.559l3.89 8.409h-1.85l-.61-1.333Zm-.78-1.682-1.43-3.087-1.428 3.087h2.858ZM1008.99 379.273h-3.04v-1.682h7.76v1.682h-3.04V386h-1.68v-6.727ZM1016.66 377.591h5.43v1.682h-3.75v1.682h3.75v1.682h-3.75V386h-1.68v-8.409ZM1029 386c-.79 0-1.5-.18-2.15-.54a4.049 4.049 0 0 1-1.51-1.514c-.36-.641-.54-1.357-.54-2.15 0-.793.18-1.51.54-2.151.37-.64.87-1.141 1.51-1.501a4.271 4.271 0 0 1 2.15-.553c.8 0 1.51.185 2.16.553.64.36 1.14.861 1.5 1.501.37.641.55 1.358.55 2.151 0 .793-.18 1.509-.55 2.15a3.952 3.952 0 0 1-1.5 1.514c-.65.36-1.36.54-2.16.54Zm0-1.682c.49 0 .92-.108 1.3-.324.39-.216.69-.517.9-.901.22-.384.33-.817.33-1.297 0-.489-.11-.921-.33-1.298a2.25 2.25 0 0 0-.9-.901 2.575 2.575 0 0 0-1.3-.324c-.48 0-.92.108-1.3.324-.38.217-.68.517-.89.901-.22.377-.33.809-.33 1.298 0 .48.11.913.33 1.297.21.384.51.685.89.901.38.216.82.324 1.3.324ZM1041.03 386l-1.8-2.811h-1.04V386h-1.69v-8.409h3.58c.52 0 1 .124 1.42.373.43.24.77.576 1.01 1.009.25.424.37.897.37 1.417 0 .609-.16 1.149-.49 1.622-.33.472-.76.805-1.31.997l2.01 2.991h-2.06Zm-2.84-4.493h1.89c.33 0 .6-.104.81-.312.21-.216.31-.484.31-.805 0-.328-.1-.596-.31-.805-.21-.208-.48-.312-.81-.312h-1.89v2.234ZM1046.21 377.591h1.62l3.55 6.211 3.53-6.211h1.62V386h-1.68v-4.889l-2.79 4.889h-1.38l-2.79-4.889V386h-1.68v-8.409ZM1062.69 386c-.75 0-1.37-.184-1.86-.553-.49-.376-.81-.9-.96-1.573l1.51-.625c.16.713.6 1.069 1.31 1.069.32 0 .57-.06.74-.18a.621.621 0 0 0 .28-.552.623.623 0 0 0-.14-.421c-.1-.112-.25-.212-.45-.3s-.51-.204-.94-.349c-.71-.248-1.26-.56-1.65-.937-.39-.384-.58-.9-.58-1.549 0-.745.24-1.338.73-1.778.5-.44 1.16-.661 1.97-.661.75 0 1.36.189 1.85.565.5.368.82.889.98 1.562l-1.52.624c-.08-.36-.23-.628-.44-.805-.21-.176-.5-.264-.87-.264-.32 0-.57.064-.75.192-.18.12-.27.301-.27.541 0 .176.05.32.15.432.09.104.24.2.44.289.2.088.51.204.94.348.71.248 1.26.565 1.64.949.39.376.59.889.59 1.538 0 .744-.25 1.337-.74 1.777-.49.441-1.14.661-1.96.661Z"/></g><path d="M492.887 243.128c1.008 2.352 2.352 4.48 4.144 6.216a17.847 17.847 0 0 0 6.16 4.144c2.352 1.008 4.872 1.512 7.616 1.512 2.968 0 5.656-.448 8.064-1.4 2.408-.952 4.592-2.24 6.496-3.976l-3.024-5.992c-1.512 1.512-3.192 2.744-5.096 3.64-1.904.896-4.032 1.344-6.496 1.344a14.05 14.05 0 0 1-5.152-.952c-1.568-.672-2.968-1.568-4.144-2.744-1.176-1.176-2.072-2.576-2.744-4.144-.616-1.624-.952-3.416-.952-5.432 0-1.904.336-3.696.952-5.32.672-1.624 1.568-3.024 2.744-4.2 1.176-1.176 2.576-2.128 4.2-2.744a14.656 14.656 0 0 1 5.264-.952c2.352 0 4.424.448 6.216 1.4 1.792.896 3.36 2.072 4.816 3.472l3.024-5.936c-1.904-1.68-4.032-2.968-6.328-3.92-2.296-.952-4.816-1.4-7.616-1.4s-5.376.504-7.784 1.456c-2.408 1.008-4.48 2.408-6.216 4.144-1.792 1.736-3.136 3.808-4.144 6.216-1.008 2.352-1.512 4.928-1.512 7.728 0 2.856.504 5.432 1.512 7.84ZM536.839 215.8h-6.16V255h6.16v-39.2ZM542.622 241.112c0 2.184.336 4.144 1.064 5.88.672 1.792 1.624 3.304 2.912 4.592 1.232 1.288 2.744 2.296 4.592 3.024 1.792.728 3.808 1.064 6.048 1.064 2.632 0 4.872-.448 6.72-1.4 1.848-.896 3.304-1.904 4.48-3.024l-2.856-4.872c-.952 1.008-2.128 1.848-3.528 2.576s-3.024 1.064-4.872 1.064c-1.008 0-1.96-.168-2.912-.448s-1.848-.728-2.576-1.344c-.784-.56-1.4-1.288-1.904-2.184-.504-.896-.84-1.96-1.008-3.136v-.056h21.504v-1.736c0-2.184-.28-4.144-.896-5.992-.616-1.792-1.456-3.36-2.632-4.648-1.176-1.288-2.576-2.352-4.256-3.08-1.736-.728-3.64-1.064-5.824-1.064-2.184 0-4.088.392-5.824 1.12-1.736.784-3.248 1.848-4.424 3.192a13.311 13.311 0 0 0-2.8 4.704c-.672 1.792-1.008 3.696-1.008 5.768Zm21.056-2.856h-14.84c.392-2.016 1.176-3.64 2.464-4.816 1.288-1.176 3.024-1.736 5.264-1.736 2.184 0 3.92.616 5.096 1.792 1.176 1.232 1.848 2.8 2.016 4.76ZM592.734 242.064v1.624c0 .84-.168 1.624-.504 2.408a7.33 7.33 0 0 1-1.512 2.128c-.616.616-1.4 1.12-2.352 1.512-.952.392-1.96.56-3.136.56-1.512 0-2.688-.336-3.416-1.008-.784-.616-1.176-1.512-1.176-2.576 0-.952.336-1.736 1.008-2.408.616-.616 1.624-1.064 3.024-1.232l8.064-1.008Zm-17.528-9.016 4.872 3.08c.392-1.568 1.288-2.688 2.576-3.36 1.288-.616 2.8-.952 4.536-.952 1.848 0 3.248.336 4.2 1.008.896.728 1.344 1.624 1.344 2.688v.616c0 .728-.56 1.176-1.624 1.288l-7.784.784c-2.576.224-4.704 1.064-6.384 2.576-1.736 1.512-2.576 3.528-2.576 6.104 0 1.288.224 2.408.672 3.472.448 1.064 1.064 2.016 1.904 2.744.784.784 1.792 1.4 2.968 1.792 1.176.448 2.464.672 3.92.672 2.128 0 3.92-.392 5.432-1.232 1.456-.84 2.632-1.904 3.472-3.192V255h6.048v-17.752c0-3.64-.952-6.328-2.856-8.176-1.96-1.848-4.872-2.744-8.848-2.744-3.304 0-5.88.616-7.84 1.792-1.96 1.176-3.304 2.856-4.032 4.928ZM611.739 230.864V227h-5.88v28h6.048v-13.216c0-1.4.112-2.744.392-3.92.224-1.176.616-2.24 1.176-3.08a6.007 6.007 0 0 1 2.24-2.016c.896-.504 2.016-.728 3.36-.728 1.792 0 3.248.56 4.312 1.68 1.064 1.12 1.568 2.856 1.568 5.152V255h6.16v-16.912c0-1.792-.224-3.416-.616-4.872-.392-1.4-1.008-2.632-1.848-3.696-.84-1.008-1.904-1.792-3.192-2.352-1.288-.56-2.8-.84-4.536-.84-1.96 0-3.696.392-5.264 1.176-1.568.784-2.856 1.904-3.92 3.36ZM672.508 242.064v1.624c0 .84-.168 1.624-.504 2.408a7.33 7.33 0 0 1-1.512 2.128c-.616.616-1.4 1.12-2.352 1.512-.952.392-1.96.56-3.136.56-1.512 0-2.688-.336-3.416-1.008-.784-.616-1.176-1.512-1.176-2.576 0-.952.336-1.736 1.008-2.408.616-.616 1.624-1.064 3.024-1.232l8.064-1.008Zm-17.528-9.016 4.872 3.08c.392-1.568 1.288-2.688 2.576-3.36 1.288-.616 2.8-.952 4.536-.952 1.848 0 3.248.336 4.2 1.008.896.728 1.344 1.624 1.344 2.688v.616c0 .728-.56 1.176-1.624 1.288l-7.784.784c-2.576.224-4.704 1.064-6.384 2.576-1.736 1.512-2.576 3.528-2.576 6.104 0 1.288.224 2.408.672 3.472.448 1.064 1.064 2.016 1.904 2.744.784.784 1.792 1.4 2.968 1.792 1.176.448 2.464.672 3.92.672 2.128 0 3.92-.392 5.432-1.232 1.456-.84 2.632-1.904 3.472-3.192V255h6.048v-17.752c0-3.64-.952-6.328-2.856-8.176-1.96-1.848-4.872-2.744-8.848-2.744-3.304 0-5.88.616-7.84 1.792-1.96 1.176-3.304 2.856-4.032 4.928ZM691.512 230.864V227h-5.88v28h6.048v-13.216c0-1.4.112-2.744.392-3.92.224-1.176.616-2.24 1.176-3.08a6.007 6.007 0 0 1 2.24-2.016c.896-.504 2.016-.728 3.36-.728 1.792 0 3.248.56 4.312 1.68 1.064 1.12 1.568 2.856 1.568 5.152V255h6.16v-16.912c0-1.792-.224-3.416-.616-4.872-.392-1.4-1.008-2.632-1.848-3.696-.84-1.008-1.904-1.792-3.192-2.352-1.288-.56-2.8-.84-4.536-.84-1.96 0-3.696.392-5.264 1.176-1.568.784-2.856 1.904-3.92 3.36ZM731.387 232.096c2.52 0 4.536.784 6.104 2.408 1.512 1.624 2.296 3.752 2.296 6.496 0 2.744-.784 4.872-2.296 6.496-1.568 1.624-3.584 2.408-6.104 2.408s-4.592-.84-6.104-2.464c-1.512-1.624-2.296-3.808-2.296-6.44 0-2.632.784-4.816 2.296-6.44 1.512-1.624 3.584-2.464 6.104-2.464Zm14.168-16.296h-6.048v15.232c-1.064-1.344-2.408-2.464-3.976-3.36-1.568-.896-3.472-1.344-5.712-1.344-1.792 0-3.472.336-5.04.952a11.37 11.37 0 0 0-4.144 2.912 14.042 14.042 0 0 0-2.8 4.592c-.728 1.848-1.064 3.92-1.064 6.216 0 2.296.336 4.368 1.064 6.16.672 1.848 1.624 3.36 2.8 4.592a11.37 11.37 0 0 0 4.144 2.912c1.568.672 3.248 1.008 5.096 1.008 2.184 0 4.088-.448 5.712-1.288a11.938 11.938 0 0 0 3.92-3.36V255h6.048v-39.2ZM785.849 254.496v-5.544c-.896.168-1.624.28-2.24.336-.616.056-1.344.112-2.072.112-1.064 0-1.848-.28-2.296-.784-.504-.504-.728-1.232-.728-2.184v-14.28h7.392V227h-7.392v-7.504h-6.048V227h-5.32v5.152h5.32v14.672c0 3.08.672 5.264 2.072 6.552 1.344 1.288 3.304 1.904 5.88 1.904 1.848 0 3.64-.28 5.432-.784ZM789.709 241.112c0 2.184.336 4.144 1.064 5.88.672 1.792 1.624 3.304 2.912 4.592 1.232 1.288 2.744 2.296 4.592 3.024 1.792.728 3.808 1.064 6.048 1.064 2.632 0 4.872-.448 6.72-1.4 1.848-.896 3.304-1.904 4.48-3.024l-2.856-4.872c-.952 1.008-2.128 1.848-3.528 2.576s-3.024 1.064-4.872 1.064c-1.008 0-1.96-.168-2.912-.448s-1.848-.728-2.576-1.344c-.784-.56-1.4-1.288-1.904-2.184-.504-.896-.84-1.96-1.008-3.136v-.056h21.504v-1.736c0-2.184-.28-4.144-.896-5.992-.616-1.792-1.456-3.36-2.632-4.648-1.176-1.288-2.576-2.352-4.256-3.08-1.736-.728-3.64-1.064-5.824-1.064-2.184 0-4.088.392-5.824 1.12-1.736.784-3.248 1.848-4.424 3.192a13.311 13.311 0 0 0-2.8 4.704c-.672 1.792-1.008 3.696-1.008 5.768Zm21.056-2.856h-14.84c.392-2.016 1.176-3.64 2.464-4.816 1.288-1.176 3.024-1.736 5.264-1.736 2.184 0 3.92.616 5.096 1.792 1.176 1.232 1.848 2.8 2.016 4.76ZM820.949 241.056c0 2.184.336 4.144 1.064 5.936.728 1.792 1.68 3.304 2.968 4.592 1.288 1.288 2.8 2.296 4.592 3.024 1.792.728 3.808 1.064 5.992 1.064 2.352 0 4.424-.392 6.216-1.176 1.792-.784 3.304-1.792 4.48-2.968l-3.472-4.816a13.846 13.846 0 0 1-3.08 2.184c-1.176.616-2.576.896-4.144.896a9.122 9.122 0 0 1-3.304-.616 6.882 6.882 0 0 1-2.688-1.792 7.664 7.664 0 0 1-1.736-2.744c-.448-1.064-.672-2.296-.672-3.64 0-1.344.224-2.576.672-3.64a8.433 8.433 0 0 1 1.736-2.8 7.43 7.43 0 0 1 2.688-1.736 9.661 9.661 0 0 1 3.36-.616c1.512 0 2.8.28 3.92.84a11.45 11.45 0 0 1 2.968 2.128l3.64-4.76a13.757 13.757 0 0 0-4.48-3.024c-1.736-.728-3.696-1.064-5.88-1.064-2.184 0-4.2.336-5.992 1.064a13.732 13.732 0 0 0-4.704 3.08c-1.288 1.288-2.296 2.856-3.024 4.648-.728 1.792-1.12 3.752-1.12 5.936ZM857.517 215.8h-6.048V255h6.048v-13.216c0-1.4.112-2.744.392-3.92.224-1.176.616-2.24 1.176-3.08a6.007 6.007 0 0 1 2.24-2.016c.952-.504 2.072-.728 3.416-.728 1.848 0 3.304.616 4.312 1.792 1.008 1.176 1.512 2.856 1.512 5.04V255h6.16v-16.912c0-1.792-.224-3.416-.616-4.872-.392-1.4-1.008-2.632-1.848-3.696-.84-1.008-1.904-1.792-3.192-2.352-1.288-.56-2.8-.84-4.536-.84-2.016 0-3.752.392-5.264 1.176-1.512.84-2.744 1.96-3.752 3.36V215.8ZM890.065 230.864V227h-5.88v28h6.048v-13.216c0-1.4.112-2.744.392-3.92.224-1.176.616-2.24 1.176-3.08a6.007 6.007 0 0 1 2.24-2.016c.896-.504 2.016-.728 3.36-.728 1.792 0 3.248.56 4.312 1.68 1.064 1.12 1.568 2.856 1.568 5.152V255h6.16v-16.912c0-1.792-.224-3.416-.616-4.872-.392-1.4-1.008-2.632-1.848-3.696-.84-1.008-1.904-1.792-3.192-2.352-1.288-.56-2.8-.84-4.536-.84-1.96 0-3.696.392-5.264 1.176-1.568.784-2.856 1.904-3.92 3.36ZM915.324 241c0 2.128.392 4.088 1.12 5.88a12.871 12.871 0 0 0 3.136 4.648c1.288 1.288 2.856 2.296 4.704 3.024 1.792.728 3.752 1.12 5.88 1.12s4.088-.392 5.936-1.12a14.746 14.746 0 0 0 4.704-3.024c1.288-1.288 2.352-2.8 3.08-4.648.728-1.792 1.12-3.752 1.12-5.88s-.392-4.088-1.12-5.936a14.043 14.043 0 0 0-3.08-4.648 14.746 14.746 0 0 0-4.704-3.024c-1.848-.728-3.808-1.064-5.936-1.064s-4.088.336-5.88 1.064c-1.848.728-3.416 1.736-4.704 3.024a13.37 13.37 0 0 0-3.136 4.648 15.992 15.992 0 0 0-1.12 5.936Zm23.464 0c0 1.288-.224 2.52-.616 3.584-.448 1.064-1.064 2.016-1.792 2.744-.784.784-1.68 1.4-2.744 1.792-1.064.448-2.184.672-3.472.672-1.288 0-2.408-.224-3.472-.672a6.882 6.882 0 0 1-2.688-1.792c-.784-.728-1.4-1.68-1.792-2.744-.448-1.064-.672-2.296-.672-3.584 0-1.288.224-2.52.672-3.584a7.747 7.747 0 0 1 1.792-2.8 8.368 8.368 0 0 1 2.688-1.792 9.82 9.82 0 0 1 3.472-.616 9.82 9.82 0 0 1 3.472.616 9.308 9.308 0 0 1 2.744 1.792 9.593 9.593 0 0 1 1.792 2.8c.392 1.064.616 2.296.616 3.584ZM956.926 215.8h-6.16V255h6.16v-39.2ZM962.71 241c0 2.128.392 4.088 1.12 5.88a12.871 12.871 0 0 0 3.136 4.648c1.288 1.288 2.856 2.296 4.704 3.024 1.792.728 3.752 1.12 5.88 1.12s4.088-.392 5.936-1.12a14.746 14.746 0 0 0 4.704-3.024c1.288-1.288 2.352-2.8 3.08-4.648.728-1.792 1.12-3.752 1.12-5.88s-.392-4.088-1.12-5.936a14.043 14.043 0 0 0-3.08-4.648 14.746 14.746 0 0 0-4.704-3.024c-1.848-.728-3.808-1.064-5.936-1.064s-4.088.336-5.88 1.064c-1.848.728-3.416 1.736-4.704 3.024a13.37 13.37 0 0 0-3.136 4.648 15.992 15.992 0 0 0-1.12 5.936Zm23.464 0c0 1.288-.224 2.52-.616 3.584-.448 1.064-1.064 2.016-1.792 2.744-.784.784-1.68 1.4-2.744 1.792-1.064.448-2.184.672-3.472.672-1.288 0-2.408-.224-3.472-.672a6.882 6.882 0 0 1-2.688-1.792c-.784-.728-1.4-1.68-1.792-2.744-.448-1.064-.672-2.296-.672-3.584 0-1.288.224-2.52.672-3.584a7.747 7.747 0 0 1 1.792-2.8 8.368 8.368 0 0 1 2.688-1.792 9.82 9.82 0 0 1 3.472-.616 9.82 9.82 0 0 1 3.472.616 9.308 9.308 0 0 1 2.744 1.792 9.593 9.593 0 0 1 1.792 2.8c.392 1.064.616 2.296.616 3.584ZM1019.54 241c0 2.744-.72 4.872-2.24 6.496-1.51 1.624-3.47 2.408-5.99 2.408-1.29 0-2.41-.224-3.47-.672a6.933 6.933 0 0 1-2.69-1.792 8.077 8.077 0 0 1-1.73-2.856c-.4-1.064-.62-2.296-.62-3.584 0-1.288.22-2.52.62-3.64.39-1.064 1-2.016 1.73-2.8.73-.784 1.63-1.4 2.69-1.848a9.784 9.784 0 0 1 3.47-.616c2.52 0 4.48.784 5.99 2.408 1.52 1.624 2.24 3.752 2.24 6.496Zm-22.956-.056c0 2.296.336 4.312 1.008 6.104a12.273 12.273 0 0 0 2.748 4.536c1.17 1.288 2.63 2.24 4.25 2.856 1.63.672 3.47 1.008 5.43 1.008 2.13 0 4.04-.392 5.66-1.232 1.62-.784 2.86-1.848 3.75-3.136v2.072c0 1.064-.11 2.128-.33 3.08-.28 1.008-.73 1.904-1.35 2.632-.61.784-1.45 1.4-2.52 1.848-1.06.448-2.46.672-4.14.672-2.02 0-3.75-.392-5.15-1.176-1.46-.784-2.69-1.904-3.76-3.416l-3.692 4.48a13.61 13.61 0 0 0 4.812 4.088c1.96 1.064 4.54 1.568 7.73 1.568 2.86 0 5.21-.392 7.06-1.176 1.85-.728 3.3-1.736 4.37-3.024a11.775 11.775 0 0 0 2.29-4.368c.39-1.624.62-3.304.62-5.04V227h-6.11v3.864c-.78-1.232-1.96-2.296-3.58-3.192-1.62-.896-3.53-1.344-5.77-1.344-1.85 0-3.58.336-5.21 1.008a12.235 12.235 0 0 0-4.2 2.856c-1.228 1.288-2.18 2.8-2.852 4.592-.728 1.848-1.064 3.864-1.064 6.16ZM1032.27 218.936c0 1.176.39 2.184 1.23 3.024.84.84 1.85 1.232 3.02 1.232 1.18 0 2.19-.392 3.03-1.232.84-.84 1.23-1.848 1.23-3.024s-.39-2.184-1.23-3.024c-.84-.84-1.85-1.232-3.03-1.232-1.17 0-2.18.392-3.02 1.232-.84.84-1.23 1.848-1.23 3.024Zm7.28 8.064h-6.05v28h6.05v-28ZM1045.71 241.056c0 2.184.34 4.144 1.06 5.936.73 1.792 1.68 3.304 2.97 4.592a13.696 13.696 0 0 0 4.59 3.024c1.8.728 3.81 1.064 6 1.064 2.35 0 4.42-.392 6.21-1.176 1.79-.784 3.31-1.792 4.48-2.968l-3.47-4.816c-.9.84-1.9 1.568-3.08 2.184-1.18.616-2.58.896-4.14.896-1.18 0-2.3-.224-3.31-.616a6.933 6.933 0 0 1-2.69-1.792 7.734 7.734 0 0 1-1.73-2.744c-.45-1.064-.67-2.296-.67-3.64 0-1.344.22-2.576.67-3.64a8.517 8.517 0 0 1 1.73-2.8 7.49 7.49 0 0 1 2.69-1.736 9.713 9.713 0 0 1 3.36-.616c1.51 0 2.8.28 3.92.84a11.46 11.46 0 0 1 2.97 2.128l3.64-4.76c-1.29-1.288-2.74-2.296-4.48-3.024-1.74-.728-3.7-1.064-5.88-1.064-2.18 0-4.2.336-5.99 1.064a13.758 13.758 0 0 0-4.71 3.08c-1.28 1.288-2.29 2.856-3.02 4.648-.73 1.792-1.12 3.752-1.12 5.936ZM1093.14 242.064v1.624c0 .84-.17 1.624-.5 2.408-.39.84-.9 1.512-1.51 2.128-.62.616-1.4 1.12-2.36 1.512-.95.392-1.96.56-3.13.56-1.51 0-2.69-.336-3.42-1.008-.78-.616-1.17-1.512-1.17-2.576 0-.952.33-1.736 1-2.408.62-.616 1.63-1.064 3.03-1.232l8.06-1.008Zm-17.53-9.016 4.88 3.08c.39-1.568 1.28-2.688 2.57-3.36 1.29-.616 2.8-.952 4.54-.952 1.85 0 3.25.336 4.2 1.008.89.728 1.34 1.624 1.34 2.688v.616c0 .728-.56 1.176-1.62 1.288l-7.79.784c-2.57.224-4.7 1.064-6.38 2.576-1.74 1.512-2.58 3.528-2.58 6.104 0 1.288.23 2.408.68 3.472.44 1.064 1.06 2.016 1.9 2.744.78.784 1.79 1.4 2.97 1.792 1.17.448 2.46.672 3.92.672 2.13 0 3.92-.392 5.43-1.232 1.46-.84 2.63-1.904 3.47-3.192V255h6.05v-17.752c0-3.64-.95-6.328-2.86-8.176-1.96-1.848-4.87-2.744-8.84-2.744-3.31 0-5.88.616-7.84 1.792-1.96 1.176-3.31 2.856-4.04 4.928ZM1112.43 215.8h-6.16V255h6.16v-39.2ZM1126.33 215.8h-6.16V255h6.16v-39.2ZM1135.87 266.2h6.44l17.92-39.2h-6.44l-7.84 17.136-8.07-17.136h-7.17l12.04 24.136-6.88 15.064ZM1197.93 242.064v1.624c0 .84-.16 1.624-.5 2.408-.39.84-.9 1.512-1.51 2.128-.62.616-1.4 1.12-2.35 1.512-.96.392-1.96.56-3.14.56-1.51 0-2.69-.336-3.42-1.008-.78-.616-1.17-1.512-1.17-2.576 0-.952.33-1.736 1.01-2.408.61-.616 1.62-1.064 3.02-1.232l8.06-1.008Zm-17.52-9.016 4.87 3.08c.39-1.568 1.29-2.688 2.57-3.36 1.29-.616 2.8-.952 4.54-.952 1.85 0 3.25.336 4.2 1.008.9.728 1.34 1.624 1.34 2.688v.616c0 .728-.56 1.176-1.62 1.288l-7.78.784c-2.58.224-4.71 1.064-6.39 2.576-1.73 1.512-2.57 3.528-2.57 6.104 0 1.288.22 2.408.67 3.472.45 1.064 1.06 2.016 1.9 2.744.79.784 1.79 1.4 2.97 1.792 1.18.448 2.46.672 3.92.672 2.13 0 3.92-.392 5.43-1.232 1.46-.84 2.63-1.904 3.47-3.192V255h6.05v-17.752c0-3.64-.95-6.328-2.85-8.176-1.96-1.848-4.88-2.744-8.85-2.744-3.31 0-5.88.616-7.84 1.792-1.96 1.176-3.31 2.856-4.03 4.928ZM1223.71 232.096c2.52 0 4.54.784 6.11 2.408 1.51 1.624 2.29 3.752 2.29 6.496 0 2.744-.78 4.872-2.29 6.496-1.57 1.624-3.59 2.408-6.11 2.408-2.52 0-4.59-.84-6.1-2.464-1.51-1.624-2.29-3.808-2.29-6.44 0-2.632.78-4.816 2.29-6.44 1.51-1.624 3.58-2.464 6.1-2.464Zm14.17-16.296h-6.05v15.232c-1.06-1.344-2.4-2.464-3.97-3.36-1.57-.896-3.47-1.344-5.71-1.344-1.8 0-3.48.336-5.04.952a11.376 11.376 0 0 0-4.15 2.912 14.11 14.11 0 0 0-2.8 4.592c-.73 1.848-1.06 3.92-1.06 6.216 0 2.296.33 4.368 1.06 6.16.67 1.848 1.63 3.36 2.8 4.592a11.376 11.376 0 0 0 4.15 2.912c1.56.672 3.25 1.008 5.09 1.008 2.19 0 4.09-.448 5.71-1.288 1.57-.84 2.86-1.96 3.92-3.36V255h6.05v-39.2ZM1254.71 255h4.7l12.43-28h-6.89l-7.89 19.432-7.9-19.432h-6.89l12.44 28ZM1293.13 242.064v1.624c0 .84-.17 1.624-.5 2.408-.4.84-.9 1.512-1.52 2.128-.61.616-1.4 1.12-2.35 1.512-.95.392-1.96.56-3.13.56-1.52 0-2.69-.336-3.42-1.008-.78-.616-1.18-1.512-1.18-2.576 0-.952.34-1.736 1.01-2.408.62-.616 1.63-1.064 3.03-1.232l8.06-1.008Zm-17.53-9.016 4.87 3.08c.4-1.568 1.29-2.688 2.58-3.36 1.29-.616 2.8-.952 4.54-.952 1.84 0 3.24.336 4.2 1.008.89.728 1.34 1.624 1.34 2.688v.616c0 .728-.56 1.176-1.62 1.288l-7.79.784c-2.57.224-4.7 1.064-6.38 2.576-1.74 1.512-2.58 3.528-2.58 6.104 0 1.288.23 2.408.67 3.472.45 1.064 1.07 2.016 1.91 2.744.78.784 1.79 1.4 2.97 1.792 1.17.448 2.46.672 3.92.672 2.12 0 3.92-.392 5.43-1.232 1.45-.84 2.63-1.904 3.47-3.192V255h6.05v-17.752c0-3.64-.95-6.328-2.86-8.176-1.96-1.848-4.87-2.744-8.85-2.744-3.3 0-5.88.616-7.84 1.792-1.96 1.176-3.3 2.856-4.03 4.928ZM1312.13 230.864V227h-5.88v28h6.05v-13.216c0-1.4.11-2.744.39-3.92.23-1.176.62-2.24 1.18-3.08a6.023 6.023 0 0 1 2.24-2.016c.9-.504 2.02-.728 3.36-.728 1.79 0 3.25.56 4.31 1.68 1.07 1.12 1.57 2.856 1.57 5.152V255h6.16v-16.912c0-1.792-.22-3.416-.62-4.872-.39-1.4-1-2.632-1.84-3.696-.84-1.008-1.91-1.792-3.2-2.352-1.28-.56-2.8-.84-4.53-.84-1.96 0-3.7.392-5.27 1.176-1.56.784-2.85 1.904-3.92 3.36ZM1337.39 241.056c0 2.184.34 4.144 1.07 5.936.73 1.792 1.68 3.304 2.97 4.592 1.28 1.288 2.8 2.296 4.59 3.024 1.79.728 3.81 1.064 5.99 1.064 2.35 0 4.42-.392 6.22-1.176 1.79-.784 3.3-1.792 4.48-2.968l-3.48-4.816c-.89.84-1.9 1.568-3.08 2.184-1.17.616-2.57.896-4.14.896-1.18 0-2.3-.224-3.3-.616a6.86 6.86 0 0 1-2.69-1.792 7.618 7.618 0 0 1-1.74-2.744c-.45-1.064-.67-2.296-.67-3.64 0-1.344.22-2.576.67-3.64a8.378 8.378 0 0 1 1.74-2.8 7.404 7.404 0 0 1 2.69-1.736 9.627 9.627 0 0 1 3.36-.616c1.51 0 2.8.28 3.92.84 1.12.56 2.12 1.288 2.96 2.128l3.64-4.76a13.631 13.631 0 0 0-4.48-3.024c-1.73-.728-3.69-1.064-5.88-1.064-2.18 0-4.2.336-5.99 1.064a13.715 13.715 0 0 0-4.7 3.08c-1.29 1.288-2.3 2.856-3.03 4.648-.72 1.792-1.12 3.752-1.12 5.936ZM1365.95 241.112c0 2.184.34 4.144 1.07 5.88.67 1.792 1.62 3.304 2.91 4.592 1.23 1.288 2.74 2.296 4.59 3.024 1.79.728 3.81 1.064 6.05 1.064 2.63 0 4.87-.448 6.72-1.4 1.85-.896 3.3-1.904 4.48-3.024l-2.86-4.872c-.95 1.008-2.12 1.848-3.52 2.576s-3.03 1.064-4.88 1.064c-1 0-1.96-.168-2.91-.448-.95-.28-1.85-.728-2.57-1.344-.79-.56-1.4-1.288-1.91-2.184-.5-.896-.84-1.96-1.01-3.136v-.056h21.51v-1.736c0-2.184-.28-4.144-.9-5.992-.61-1.792-1.45-3.36-2.63-4.648-1.18-1.288-2.58-2.352-4.26-3.08-1.73-.728-3.64-1.064-5.82-1.064s-4.09.392-5.82 1.12c-1.74.784-3.25 1.848-4.43 3.192a13.4 13.4 0 0 0-2.8 4.704c-.67 1.792-1.01 3.696-1.01 5.768Zm21.06-2.856h-14.84c.39-2.016 1.18-3.64 2.46-4.816 1.29-1.176 3.03-1.736 5.27-1.736 2.18 0 3.92.616 5.09 1.792 1.18 1.232 1.85 2.8 2.02 4.76ZM1411.81 232.096c2.52 0 4.54.784 6.1 2.408 1.52 1.624 2.3 3.752 2.3 6.496 0 2.744-.78 4.872-2.3 6.496-1.56 1.624-3.58 2.408-6.1 2.408-2.52 0-4.59-.84-6.1-2.464-1.52-1.624-2.3-3.808-2.3-6.44 0-2.632.78-4.816 2.3-6.44 1.51-1.624 3.58-2.464 6.1-2.464Zm14.17-16.296h-6.05v15.232c-1.06-1.344-2.41-2.464-3.98-3.36-1.56-.896-3.47-1.344-5.71-1.344-1.79 0-3.47.336-5.04.952a11.34 11.34 0 0 0-4.14 2.912 13.941 13.941 0 0 0-2.8 4.592c-.73 1.848-1.07 3.92-1.07 6.216 0 2.296.34 4.368 1.07 6.16.67 1.848 1.62 3.36 2.8 4.592a11.34 11.34 0 0 0 4.14 2.912c1.57.672 3.25 1.008 5.1 1.008 2.18 0 4.09-.448 5.71-1.288 1.57-.84 2.86-1.96 3.92-3.36V255h6.05v-39.2ZM802.163 322h4.704l12.432-28h-6.888l-7.896 19.432L796.619 294h-6.888l12.432 28ZM822.779 285.936c0 1.176.392 2.184 1.232 3.024.84.84 1.848 1.232 3.024 1.232s2.184-.392 3.024-1.232c.84-.84 1.232-1.848 1.232-3.024s-.392-2.184-1.232-3.024c-.84-.84-1.848-1.232-3.024-1.232s-2.184.392-3.024 1.232c-.84.84-1.232 1.848-1.232 3.024Zm7.28 8.064h-6.048v28h6.048v-28ZM837.396 301.896c0 1.512.336 2.8.952 3.808.616 1.064 1.4 1.904 2.352 2.52.952.616 2.072 1.12 3.248 1.456 1.176.392 2.296.672 3.36.896 2.128.448 3.696.896 4.704 1.288 1.008.448 1.512 1.232 1.512 2.296 0 1.064-.448 1.848-1.344 2.296-.896.504-2.072.728-3.472.728-1.848 0-3.528-.336-5.04-1.008a7.13 7.13 0 0 1-3.64-3.136l-4.144 3.976c1.176 1.96 2.912 3.416 5.096 4.312 2.184.896 4.648 1.344 7.336 1.344 1.68 0 3.248-.168 4.648-.56a10.03 10.03 0 0 0 3.584-1.624c.952-.728 1.736-1.624 2.296-2.744.56-1.12.84-2.464.84-3.976s-.28-2.8-.784-3.808c-.56-.952-1.288-1.792-2.184-2.408a12.729 12.729 0 0 0-3.024-1.512c-1.176-.336-2.352-.616-3.528-.896-2.184-.504-3.864-.952-4.928-1.344-1.12-.392-1.68-1.12-1.68-2.184 0-.84.448-1.512 1.288-2.016.84-.504 1.904-.728 3.304-.728 1.736 0 3.248.336 4.536.952 1.232.672 2.184 1.512 2.856 2.52l4.088-3.92c-1.176-1.568-2.632-2.8-4.424-3.752-1.792-.896-4.032-1.344-6.72-1.344-3.528 0-6.216.784-8.176 2.296-1.96 1.512-2.912 3.64-2.912 6.272ZM889.909 294h-6.048v13.216c0 1.344-.112 2.576-.336 3.752-.28 1.176-.672 2.24-1.176 3.08a5.955 5.955 0 0 1-2.184 2.072c-.896.504-2.016.784-3.36.784-2.072 0-3.528-.616-4.312-1.848-.84-1.176-1.232-2.856-1.232-4.928V294h-6.216v16.968c0 1.736.168 3.36.56 4.76s.952 2.632 1.792 3.696c.84 1.064 1.904 1.848 3.192 2.408 1.288.56 2.8.84 4.592.84 2.128 0 3.864-.448 5.264-1.288 1.4-.84 2.576-2.016 3.64-3.528V322h5.824v-28ZM914.673 309.064v1.624c0 .84-.168 1.624-.504 2.408a7.33 7.33 0 0 1-1.512 2.128c-.616.616-1.4 1.12-2.352 1.512-.952.392-1.96.56-3.136.56-1.512 0-2.688-.336-3.416-1.008-.784-.616-1.176-1.512-1.176-2.576 0-.952.336-1.736 1.008-2.408.616-.616 1.624-1.064 3.024-1.232l8.064-1.008Zm-17.528-9.016 4.872 3.08c.392-1.568 1.288-2.688 2.576-3.36 1.288-.616 2.8-.952 4.536-.952 1.848 0 3.248.336 4.2 1.008.896.728 1.344 1.624 1.344 2.688v.616c0 .728-.56 1.176-1.624 1.288l-7.784.784c-2.576.224-4.704 1.064-6.384 2.576-1.736 1.512-2.576 3.528-2.576 6.104 0 1.288.224 2.408.672 3.472.448 1.064 1.064 2.016 1.904 2.744.784.784 1.792 1.4 2.968 1.792 1.176.448 2.464.672 3.92.672 2.128 0 3.92-.392 5.432-1.232 1.456-.84 2.632-1.904 3.472-3.192V322h6.048v-17.752c0-3.64-.952-6.328-2.856-8.176-1.96-1.848-4.872-2.744-8.848-2.744-3.304 0-5.88.616-7.84 1.792-1.96 1.176-3.304 2.856-4.032 4.928ZM933.957 282.8h-6.16V322h6.16v-39.2ZM970.995 299.096c2.52 0 4.536.784 6.104 2.408 1.512 1.624 2.296 3.752 2.296 6.496 0 2.744-.784 4.872-2.296 6.496-1.568 1.624-3.584 2.408-6.104 2.408s-4.592-.84-6.104-2.464c-1.512-1.624-2.296-3.808-2.296-6.44 0-2.632.784-4.816 2.296-6.44 1.512-1.624 3.584-2.464 6.104-2.464Zm14.168-16.296h-6.048v15.232c-1.064-1.344-2.408-2.464-3.976-3.36-1.568-.896-3.472-1.344-5.712-1.344-1.792 0-3.472.336-5.04.952a11.37 11.37 0 0 0-4.144 2.912 14.042 14.042 0 0 0-2.8 4.592c-.728 1.848-1.064 3.92-1.064 6.216 0 2.296.336 4.368 1.064 6.16.672 1.848 1.624 3.36 2.8 4.592a11.37 11.37 0 0 0 4.144 2.912c1.568.672 3.248 1.008 5.096 1.008 2.184 0 4.088-.448 5.712-1.288a11.938 11.938 0 0 0 3.92-3.36V322h6.048v-39.2ZM990.955 308.112c0 2.184.336 4.144 1.064 5.88.672 1.792 1.624 3.304 2.912 4.592 1.232 1.288 2.744 2.296 4.592 3.024 1.787.728 3.807 1.064 6.047 1.064 2.63 0 4.87-.448 6.72-1.4 1.85-.896 3.3-1.904 4.48-3.024l-2.86-4.872c-.95 1.008-2.12 1.848-3.52 2.576s-3.03 1.064-4.88 1.064c-1 0-1.96-.168-2.91-.448-.95-.28-1.85-.728-2.57-1.344-.787-.56-1.403-1.288-1.907-2.184-.504-.896-.84-1.96-1.008-3.136v-.056h21.505v-1.736c0-2.184-.28-4.144-.9-5.992-.61-1.792-1.45-3.36-2.63-4.648-1.18-1.288-2.58-2.352-4.26-3.08-1.73-.728-3.64-1.064-5.82-1.064s-4.09.392-5.823 1.12c-1.736.784-3.248 1.848-4.424 3.192a13.311 13.311 0 0 0-2.8 4.704c-.672 1.792-1.008 3.696-1.008 5.768Zm21.055-2.856h-14.839c.392-2.016 1.176-3.64 2.464-4.816 1.285-1.176 3.025-1.736 5.265-1.736 2.18 0 3.92.616 5.09 1.792 1.18 1.232 1.85 2.8 2.02 4.76ZM1023.37 301.896c0 1.512.34 2.8.95 3.808.62 1.064 1.4 1.904 2.35 2.52.96.616 2.08 1.12 3.25 1.456 1.18.392 2.3.672 3.36.896 2.13.448 3.7.896 4.71 1.288 1 .448 1.51 1.232 1.51 2.296 0 1.064-.45 1.848-1.35 2.296-.89.504-2.07.728-3.47.728-1.85 0-3.53-.336-5.04-1.008a7.123 7.123 0 0 1-3.64-3.136l-4.14 3.976c1.17 1.96 2.91 3.416 5.09 4.312 2.19.896 4.65 1.344 7.34 1.344 1.68 0 3.25-.168 4.65-.56 1.4-.336 2.57-.896 3.58-1.624.95-.728 1.74-1.624 2.3-2.744.56-1.12.84-2.464.84-3.976s-.28-2.8-.79-3.808c-.56-.952-1.28-1.792-2.18-2.408-.9-.616-1.9-1.12-3.02-1.512-1.18-.336-2.36-.616-3.53-.896-2.19-.504-3.87-.952-4.93-1.344-1.12-.392-1.68-1.12-1.68-2.184 0-.84.45-1.512 1.29-2.016.84-.504 1.9-.728 3.3-.728 1.74 0 3.25.336 4.54.952 1.23.672 2.18 1.512 2.85 2.52l4.09-3.92c-1.17-1.568-2.63-2.8-4.42-3.752-1.79-.896-4.03-1.344-6.72-1.344-3.53 0-6.22.784-8.18 2.296-1.96 1.512-2.91 3.64-2.91 6.272ZM1050.12 285.936c0 1.176.4 2.184 1.24 3.024.84.84 1.84 1.232 3.02 1.232s2.18-.392 3.02-1.232c.84-.84 1.24-1.848 1.24-3.024s-.4-2.184-1.24-3.024c-.84-.84-1.84-1.232-3.02-1.232s-2.18.392-3.02 1.232c-.84.84-1.24 1.848-1.24 3.024Zm7.28 8.064h-6.04v28h6.04v-28ZM1086.92 308c0 2.744-.73 4.872-2.24 6.496-1.52 1.624-3.48 2.408-6 2.408-1.28 0-2.4-.224-3.47-.672a6.933 6.933 0 0 1-2.69-1.792 8.224 8.224 0 0 1-1.73-2.856 10.507 10.507 0 0 1-.62-3.584c0-1.288.23-2.52.62-3.64a8.517 8.517 0 0 1 1.73-2.8c.73-.784 1.63-1.4 2.69-1.848a9.866 9.866 0 0 1 3.47-.616c2.52 0 4.48.784 6 2.408 1.51 1.624 2.24 3.752 2.24 6.496Zm-22.96-.056c0 2.296.33 4.312 1 6.104a12.33 12.33 0 0 0 2.75 4.536c1.17 1.288 2.63 2.24 4.25 2.856 1.63.672 3.48 1.008 5.44 1.008 2.12 0 4.03-.392 5.65-1.232 1.63-.784 2.86-1.848 3.75-3.136v2.072c0 1.064-.11 2.128-.33 3.08-.28 1.008-.73 1.904-1.35 2.632-.61.784-1.45 1.4-2.52 1.848-1.06.448-2.46.672-4.14.672-2.02 0-3.75-.392-5.15-1.176-1.46-.784-2.69-1.904-3.75-3.416l-3.7 4.48a13.654 13.654 0 0 0 4.82 4.088c1.96 1.064 4.53 1.568 7.72 1.568 2.86 0 5.21-.392 7.06-1.176 1.85-.728 3.3-1.736 4.37-3.024 1.06-1.288 1.85-2.744 2.29-4.368.4-1.624.62-3.304.62-5.04V294h-6.1v3.864c-.79-1.232-1.96-2.296-3.59-3.192-1.62-.896-3.53-1.344-5.77-1.344-1.84 0-3.58.336-5.2 1.008-1.63.672-3.03 1.624-4.2 2.856-1.24 1.288-2.19 2.8-2.86 4.592-.73 1.848-1.06 3.864-1.06 6.16ZM1106.42 297.864V294h-5.88v28h6.05v-13.216c0-1.4.11-2.744.39-3.92.22-1.176.61-2.24 1.17-3.08a6.023 6.023 0 0 1 2.24-2.016c.9-.504 2.02-.728 3.36-.728 1.8 0 3.25.56 4.32 1.68 1.06 1.12 1.56 2.856 1.56 5.152V322h6.16v-16.912c0-1.792-.22-3.416-.61-4.872-.39-1.4-1.01-2.632-1.85-3.696-.84-1.008-1.9-1.792-3.19-2.352-1.29-.56-2.8-.84-4.54-.84-1.96 0-3.69.392-5.26 1.176-1.57.784-2.86 1.904-3.92 3.36Z" fill="#181819"/></svg>