<svg width="168" height="65" viewBox="0 0 168 65" fill="none" xmlns="http://www.w3.org/2000/svg">
<path d="M12.5748 36.337C9.37477 35.4867 6.61095 34.752 6.61095 31.8789C6.62344 31.3828 6.73574 30.8943 6.9411 30.4428C7.14647 29.9913 7.44066 29.5861 7.80601 29.2516C8.17136 28.917 8.60033 28.66 9.06717 28.496C9.534 28.3319 10.0291 28.2643 10.5226 28.297C13.2236 28.297 14.0359 30.0461 14.825 31.7382C15.4755 33.1385 16.0898 34.4611 17.7419 34.4611C18.0528 34.4776 18.3638 34.4309 18.6562 34.3236C18.9485 34.2163 19.2162 34.0508 19.4431 33.8369C19.67 33.6231 19.8514 33.3654 19.9764 33.0793C20.1013 32.7932 20.1672 32.4847 20.1702 32.1724C20.1702 29.219 16.4521 26.1655 10.2327 26.1655C4.58456 26.1655 0.487884 29.1646 0.487884 33.2973C0.487884 38.813 4.88314 39.9543 8.75954 40.9618C11.9355 41.7863 14.6778 42.4985 14.6778 45.3337C14.6778 47.5783 13.0696 48.9156 10.3755 48.9156C7.32428 48.9156 6.47328 47.1285 5.65067 45.4001C4.98984 44.0128 4.36514 42.7023 2.6227 42.7023C0.98007 42.7023 0 43.6105 0 45.1377C0 47.9944 3.88156 50.9487 10.3755 50.9487C16.514 50.9487 20.8017 48.0756 20.8017 43.9627C20.8017 38.5238 16.4306 37.3609 12.5748 36.3362V36.337ZM53.1406 26.1655C52.7643 26.1327 52.3854 26.1813 52.0294 26.308C51.6735 26.4347 51.3487 26.6365 51.077 26.8998C50.8054 27.1631 50.5932 27.4818 50.4547 27.8343C50.3163 28.1869 50.2548 28.5652 50.2744 28.9436C50.2744 30.5753 51.2089 31.5491 52.1984 32.5816C53.2903 33.7195 54.4184 34.8979 54.4184 37.114C54.4184 43.2988 50.3845 48.2793 47.0459 48.2793C46.708 48.2941 46.3706 48.239 46.0547 48.1176C45.7388 47.9961 45.4512 47.8108 45.2097 47.5731C44.4817 46.8307 44.1272 45.5176 44.1573 43.6709L44.2554 27.5269C44.2711 27.3261 44.241 27.1244 44.1675 26.937C44.094 26.7496 43.979 26.5814 43.8312 26.4452C43.6205 26.3014 43.3805 26.2066 43.1286 26.1677C42.8768 26.1287 42.6194 26.1465 42.3753 26.2198L37.6023 27.1954C37.3306 27.2161 37.0758 27.3356 36.8857 27.5314C36.6956 27.7272 36.5832 27.986 36.5698 28.259V28.4049C36.5698 28.8901 36.9303 29.2199 37.3123 29.5686C37.6496 29.8094 37.9258 30.1262 38.1187 30.4935C38.3117 30.8609 38.4159 31.2686 38.4232 31.6838V38.4349C38.4232 44.5973 35.2937 48.2767 32.2683 48.2767C31.9426 48.2871 31.6183 48.2299 31.3156 48.1087C31.013 47.9875 30.7385 47.8048 30.5095 47.5722C29.773 46.8212 29.3995 45.5063 29.4296 43.7659L29.5269 27.5226C29.5428 27.3493 29.5202 27.1746 29.4607 27.0111C29.4011 26.8476 29.3062 26.6995 29.1827 26.5773C28.9561 26.4401 28.7043 26.3503 28.4423 26.3131C28.1803 26.2758 27.9135 26.292 27.6579 26.3606L22.4822 27.1937C22.2204 27.2266 21.9786 27.3513 21.7996 27.5458C21.6206 27.7402 21.5158 27.9919 21.5039 28.2564V28.4023C21.5039 28.8875 21.8653 29.2173 22.2473 29.5661C22.5844 29.8068 22.8605 30.1237 23.0533 30.491C23.2461 30.8584 23.3502 31.2661 23.3573 31.6812V41.6093C23.3573 50.0785 28.8067 50.9927 31.1488 50.9927C32.7629 51.0351 34.3607 50.6594 35.7878 49.9017C37.215 49.1441 38.4235 48.0302 39.2966 46.6675C39.7889 47.999 40.6933 49.1373 41.8772 49.9156C43.0612 50.6939 44.4624 51.0714 45.8757 50.9927C51.9291 50.9927 58.0564 45.1981 58.0564 34.1235C58.0564 29.2112 56.1737 26.1594 53.1415 26.1594L53.1406 26.1655ZM71.3894 37.7641C69.1477 38.1175 66.8737 38.2186 64.6097 38.0654C64.5235 37.3438 64.4813 36.6175 64.4833 35.8907C64.4833 31.6043 66.8263 28.493 70.0539 28.493C71.257 28.506 72.4094 28.9813 73.2738 29.8211C74.1382 30.6609 74.6487 31.8012 74.7004 33.0072C74.752 36.5468 73.0526 37.3972 71.3868 37.7641H71.3894ZM80.8519 42.6134C80.616 42.5284 80.3592 42.5218 80.1193 42.5945C79.8795 42.6673 79.6693 42.8156 79.5199 43.0174L79.5001 43.0485C78.4813 45.0919 75.6994 46.519 72.7334 46.519C69.2244 46.519 66.4907 44.3668 65.1957 40.6027C67.6425 40.8862 70.118 40.7942 72.5372 40.3299C77.5443 39.249 80.5344 36.5114 80.5344 33.0046C80.5554 32.1894 80.4094 31.3785 80.1054 30.6222C79.8014 29.8659 79.3459 29.1803 78.767 28.6078C77.1527 27.0029 74.5266 26.1335 71.3756 26.1663C64.4316 26.2173 59.391 31.3566 59.391 38.3874C59.391 45.9311 64.3456 50.9996 71.718 50.9996C74.2926 51.0757 76.7982 50.1583 78.7188 48.4364C80.1157 47.1811 81.0613 45.499 81.4095 43.6502V43.6407C81.4463 43.4315 81.4112 43.216 81.3099 43.0295C81.2085 42.843 81.0471 42.6965 80.8519 42.6142V42.6134ZM91.3143 48.1619C90.982 47.9664 90.7045 47.6897 90.5076 47.3576C90.3106 47.0255 90.2007 46.6488 90.1879 46.2626V15.1754C90.1957 14.9781 90.1528 14.7822 90.0633 14.6063C89.9738 14.4305 89.8407 14.2807 89.6768 14.1714C89.4409 14.0512 89.1784 13.9934 88.914 14.0033C88.6496 14.0133 88.3921 14.0908 88.1658 14.2284L83.2405 16.675C82.8034 16.8943 82.3086 17.1421 82.3086 17.7214V17.8664C82.3086 18.2929 82.6244 18.5968 82.9893 18.949C83.4901 19.4299 84.113 19.3168 84.113 20.4797V46.2635C84.1087 46.6395 84.0141 47.0089 83.8372 47.3405C83.6603 47.672 83.4064 47.9558 83.0968 48.1679C82.8783 48.3073 82.6939 48.4943 82.5575 48.7151C82.421 48.9359 82.336 49.1847 82.3086 49.443V49.5907C82.3086 50.1484 82.7836 50.5092 83.5176 50.5092H90.9297C91.6697 50.5092 92.1877 50.1311 92.1877 49.5907V49.443C92.1877 48.8655 91.7626 48.5236 91.3143 48.1619V48.1619ZM102.382 48.1619C102.05 47.9662 101.773 47.6895 101.576 47.3574C101.38 47.0253 101.27 46.6487 101.257 46.2626V15.1754C101.265 14.9773 101.221 14.7804 101.131 14.6041C101.04 14.4277 100.906 14.2778 100.741 14.1688C100.505 14.0489 100.242 13.9911 99.9783 14.0011C99.7141 14.0111 99.4567 14.0884 99.2306 14.2258L94.307 16.675C93.8707 16.8943 93.3768 17.1421 93.3768 17.7214V17.8664C93.3768 18.2929 93.6917 18.5968 94.0574 18.949C94.5582 19.4299 95.1812 19.3168 95.1812 20.4797V46.2635C95.177 46.6396 95.0823 47.0091 94.9052 47.3407C94.7281 47.6723 94.4739 47.956 94.1641 48.1679C93.9458 48.3074 93.7616 48.4945 93.6253 48.7152C93.4889 48.936 93.404 49.1848 93.3768 49.443V49.5907C93.3768 50.1484 93.8509 50.5092 94.5858 50.5092H101.997C102.738 50.5092 103.255 50.1311 103.255 49.5907V49.443C103.255 48.8655 102.831 48.5236 102.382 48.1619" fill="black"/>
</svg>
