<svg width="211" height="70" viewBox="0 0 211 70" fill="none" xmlns="http://www.w3.org/2000/svg">
<path fill-rule="evenodd" clip-rule="evenodd" d="M32.9696 24V24C32.9696 27.3091 35.5597 29.9916 38.7547 29.9916C41.9497 29.9916 44.5397 27.3091 44.5397 24V24L32.9696 24ZM0.828125 35.1377C0.828125 29.0061 5.80966 24.0317 11.9665 24.0011L12.0047 24.001L12.0238 24.0011H17.1087L17.1081 24H27.6675L39.1967 46.2733H28.6374L17.1433 24.0679V46.2743H12.0238H11.7308L11.7308 46.2705C5.68303 46.116 0.828125 41.1908 0.828125 35.1377Z" fill="#1F1F1F"/>
<path d="M70.8947 39.4993H67.3747C66.596 41.9025 64.3843 43.5567 61.2692 43.5567C57.095 43.5567 54.1046 40.1859 54.1046 35.4419C54.1046 30.8539 56.9393 27.1398 61.3004 27.1398C64.2597 27.1398 66.3156 28.8252 67.0321 31.3532H70.5521C69.7733 26.734 66.0353 24.1123 61.2692 24.1123C54.9768 24.1123 50.7715 28.9188 50.7715 35.4419C50.7715 41.9025 54.8522 46.5842 61.2692 46.5842C66.191 46.5842 70.116 43.8688 70.8947 39.4993Z" fill="#1F1F1F"/>
<path d="M79.9031 46.5842C84.4822 46.5842 87.9088 43.1822 87.9088 38.4693C87.9088 33.7565 84.4822 30.3545 79.9031 30.3545C75.324 30.3545 71.9597 33.7253 71.9597 38.4693C71.9597 43.151 75.3551 46.5842 79.9031 46.5842ZM79.9031 43.8064C77.0061 43.8064 75.1059 41.372 75.1059 38.4693C75.1059 35.5355 77.0061 33.1323 79.9031 33.1323C82.8001 33.1323 84.7626 35.5355 84.7626 38.4693C84.7626 41.372 82.8001 43.8064 79.9031 43.8064Z" fill="#1F1F1F"/>
<path d="M93.4879 46.2721H97.3506L103.3 30.6666H100.03L95.5438 42.9637H95.3258L90.809 30.6666H87.507L93.4879 46.2721Z" fill="#1F1F1F"/>
<path d="M117.497 38.2509C117.497 32.8826 114.164 30.3545 110.363 30.3545C106.127 30.3545 102.794 33.538 102.794 38.6254C102.794 43.4319 106.002 46.5842 110.488 46.5842C114.164 46.5842 116.781 44.7115 117.435 41.5904H114.382C113.883 43.1822 112.451 43.9937 110.488 43.9937C107.747 43.9937 106.065 42.0586 105.909 39.2808H117.435C117.466 38.8751 117.497 38.563 117.497 38.2509ZM110.363 32.945C112.762 32.945 114.382 34.6304 114.413 37.0336H105.94C106.252 34.7552 107.903 32.945 110.363 32.945Z" fill="#1F1F1F"/>
<path d="M119.409 46.2721H122.586V37.533C122.586 34.4431 124.424 33.1323 126.449 33.1323C128.443 33.1323 130 34.4119 130 37.2833V46.2721H133.178V36.5967C133.178 32.5705 130.81 30.3545 127.352 30.3545C124.954 30.3545 123.677 31.3532 122.804 32.5393H122.586L122.275 30.6666H119.409V46.2721Z" fill="#1F1F1F"/>
<path d="M141.359 46.5842C142.387 46.5842 143.197 46.3969 143.789 46.2409V43.7752C143.322 43.9312 142.761 44.0249 142.262 44.0249C140.611 44.0249 140.238 43.0886 140.238 42.0586V33.2259H144.194V30.6666H140.238V26.4219H137.341V28.3258C137.341 30.0112 136.655 30.6666 134.817 30.6666H133.727V33.2259H137.091V42.4955C137.091 44.2746 137.714 46.5842 141.359 46.5842Z" fill="#1F1F1F"/>
<path d="M159.084 30.6666H155.906V39.4057C155.906 42.4955 154.068 43.8064 152.044 43.8064C150.05 43.8064 148.493 42.5268 148.493 39.6554V30.6666H145.315V40.342C145.315 44.3682 147.683 46.5842 151.14 46.5842C153.539 46.5842 154.816 45.5854 155.688 44.3994H155.906L156.218 46.2721H159.084V30.6666Z" fill="#1F1F1F"/>
<path d="M161.584 46.2721H164.761V38.4069C164.761 35.7228 166.007 33.4444 168.967 33.4444C169.496 33.4444 169.995 33.4756 170.493 33.538V30.3545H169.496C166.911 30.3545 165.821 31.3845 164.979 32.8514H164.761L164.45 30.6666H161.584V46.2721Z" fill="#1F1F1F"/>
<path d="M185 38.2509C185 32.8826 181.667 30.3545 177.867 30.3545C173.63 30.3545 170.297 33.538 170.297 38.6254C170.297 43.4319 173.505 46.5842 177.991 46.5842C181.667 46.5842 184.284 44.7115 184.938 41.5904H181.885C181.387 43.1822 179.954 43.9937 177.991 43.9937C175.25 43.9937 173.568 42.0586 173.412 39.2808H184.938C184.969 38.8751 185 38.563 185 38.2509ZM177.867 32.945C180.265 32.945 181.885 34.6304 181.916 37.0336H173.443C173.755 34.7552 175.406 32.945 177.867 32.945Z" fill="#1F1F1F"/>
</svg>
