<svg xmlns="http://www.w3.org/2000/svg" width="1920" height="1080" fill="none">
  <path fill="#F5F7FB" d="M0 0h1920v1080H0z"/>
  <g stroke="#141D26" clip-path="url(#a)">
    <path stroke-dasharray="2 3" stroke-linecap="square" stroke-opacity=".3" d="M1325.4 457.3h174.3c5.5 0 10 4.5 10 10V580"/>
    <path stroke-miterlimit="10" d="M1377.5 476h108.1m-108.1 28.4h108.1m-108.1 28.4h108.1"/>
    <path stroke-miterlimit="10" stroke-opacity=".4" d="m1537.5 580.6-31.3 31c-1.8 1.5-4 2.4-6.5 2.4h-151.5c-3.8 0-7.5 1.5-10.2 4.2l-33.4 33.4c-5 5-13.7 1.5-13.7-5.7V467.8c0-2.5 1-4.9 2.5-6.7l32.2-32.1"/>
    <path fill="#141D26" fill-opacity=".1" stroke-miterlimit="10" d="M1537.5 580.6c-1.8 1.5-4.1 2.5-6.6 2.5h-198.7c-5.5 0-10-4.5-10-10V436.5c0-3 1.3-5.7 3.4-7.5 1.8-1.5 4-2.5 6.6-2.5h198.7c5.5 0 10 4.5 10 10v136.6c0 3-1.3 5.7-3.4 7.5Z"/>
  </g>
  <g clip-path="url(#b)">
    <path fill="#141D26" stroke="#F5F7FB" d="M1075.9 605.5c0-24.9-54-45.2-120.6-45.2s-120.6 20.3-120.6 45.2c0 24.9 54 45.2 120.6 45.2s120.6-20.2 120.6-45.2Z" opacity=".1"/>
    <path stroke="url(#c)" stroke-dasharray="2 3" stroke-linejoin="round" d="M1075.9 605.5c0-24.9-54-45.2-120.6-45.2s-120.6 20.3-120.6 45.2"/>
    <path stroke="#141D26" stroke-miterlimit="10" d="M1075.9 474.7v130.8"/>
    <path stroke="#141D26" stroke-dasharray="2 3" stroke-linecap="square" stroke-opacity=".3" d="M854.5 452v126.5"/>
    <path stroke="#141D26" stroke-miterlimit="10" stroke-opacity=".6" d="M904.9 646.1V515.7l50.4-41m100.8 155.4V499.5l-201.6-49.6"/>
    <path stroke="#141D26" stroke-miterlimit="10" d="M834.7 474.7v130.8c0 24.9 54 45.2 120.6 45.2s120.6-20.2 120.6-45.2"/>
    <path stroke="#141D26" stroke-miterlimit="10" d="M955.3 519.8c66.6 0 120.6-20.2 120.6-45.2 0-25-54-45.1-120.6-45.1s-120.6 20.2-120.6 45.2c0 25 54 45.2 120.6 45.2v-.1Z"/>
  </g>
  <g clip-path="url(#d)">
    <path fill="#141D26" fill-opacity=".1" stroke="#F5F7FB" d="M378.5 540.1c0 16.7 54 30.3 120.6 30.3s120.6-13.6 120.6-30.3c0-16.7-54-30.3-120.6-30.3s-120.6 13.6-120.6 30.3Z"/>
    <path stroke="url(#e)" stroke-dasharray="2 3" stroke-linejoin="round" d="M378.5 540.1c0-16.7 54-30.3 120.6-30.3s120.6 13.5 120.6 30.3"/>
    <path stroke="#141D26" stroke-miterlimit="10" stroke-opacity=".4" d="M499.1 419.5c-50.3 0-91 54-91 120.6s40.7 120.6 91 120.6"/>
    <path stroke="#141D26" stroke-miterlimit="10" stroke-opacity=".6" d="M499.1 419.5c-16.7 0-30.3 54-30.3 120.6s13.6 120.6 30.3 120.6"/>
    <path stroke="#141D26" stroke-miterlimit="10" stroke-opacity=".8" d="M499.1 419.5c16.7 0 30.3 54 30.3 120.6s-13.6 120.6-30.3 120.6"/>
    <path stroke="#141D26" stroke-miterlimit="10" stroke-opacity=".5" d="M499.1 419.5c-33.4 0-60.5 54-60.5 120.6s27.1 120.6 60.5 120.6"/>
    <path stroke="#141D26" stroke-miterlimit="10" stroke-opacity=".9" d="M499.1 419.5c33.4 0 60.5 54 60.5 120.6s-27.1 120.6-60.5 120.6"/>
    <path stroke="#141D26" stroke-miterlimit="10" d="M499.1 419.5c50.3 0 91 54 91 120.6s-40.8 120.6-91 120.6"/>
    <path stroke="#141D26" stroke-miterlimit="10" stroke-opacity=".7" d="M499.1 419.5v241.2"/>
    <path stroke="#141D26" stroke-linejoin="round" d="M499.1 660.7c66.6 0 120.6-54 120.6-120.6s-54-120.6-120.6-120.6-120.6 54-120.6 120.6 54 120.6 120.6 120.6Z"/>
    <path stroke="url(#f)" stroke-linejoin="round" d="M619.7 540.1c0 16.7-54 30.3-120.6 30.3s-120.6-13.6-120.6-30.3"/>
  </g>
  <path fill="#141D26" d="M242.568 203.6h-1.68v8.4h1.68v-8.4Zm5.459 0h-1.68v8.4h5.496v-1.68h-3.816v-6.72Zm8.494 0h-1.68v8.4h5.496v-1.68h-3.816v-6.72Zm14.435 0h-1.68v4.512c0 .348-.06.648-.168.924-.108.276-.264.504-.468.696-.204.192-.432.336-.696.432-.276.108-.564.156-.888.156-.324 0-.612-.048-.888-.156-.276-.096-.504-.24-.708-.432-.204-.192-.36-.42-.468-.696-.108-.276-.168-.576-.168-.924V203.6h-1.68v4.512c0 .576.096 1.104.3 1.572.204.48.48.888.828 1.236s.756.612 1.236.792c.468.192.984.288 1.548.288.564 0 1.08-.096 1.56-.288.468-.18.888-.444 1.236-.792.348-.348.612-.756.816-1.236.192-.468.288-.996.288-1.572V203.6Zm3.305 2.412c0 .396.072.744.204 1.02s.312.516.528.708c.216.192.456.348.732.468.264.132.528.228.792.312.204.06.408.12.588.18s.336.12.468.192c.132.084.24.168.324.276.072.108.108.24.108.396 0 .228-.084.42-.264.552-.18.132-.432.204-.756.204-.708 0-1.152-.36-1.32-1.092l-1.5.648c.084.372.216.696.396.96.18.276.396.492.648.66.252.18.528.3.828.384.3.084.612.12.936.12.384 0 .744-.06 1.08-.168.324-.108.612-.264.852-.468.24-.204.432-.456.576-.756.132-.3.204-.648.204-1.044s-.06-.72-.18-.996c-.132-.276-.288-.504-.492-.696-.204-.18-.444-.336-.708-.468-.264-.12-.54-.228-.828-.324-.228-.072-.432-.144-.612-.204-.192-.06-.36-.132-.492-.216-.132-.072-.24-.156-.312-.264-.084-.096-.12-.216-.12-.372 0-.204.084-.384.252-.528.168-.144.42-.216.768-.216.336 0 .612.084.828.24.216.156.372.432.456.816l1.524-.612c-.156-.696-.48-1.224-.972-1.584-.504-.36-1.116-.54-1.824-.54-.384 0-.744.048-1.068.156-.336.108-.624.276-.864.48-.252.204-.444.456-.576.756-.132.3-.204.636-.204 1.02Zm12.799-.732h3.036v-1.68h-7.752v1.68h3.036V212h1.68v-6.72Zm7.813 6.708v-2.808h1.044l1.8 2.808h2.04l-1.98-2.988c.264-.096.504-.228.72-.396.216-.168.408-.36.564-.588.156-.228.276-.48.372-.756.084-.276.12-.564.12-.876 0-.384-.06-.756-.204-1.092-.144-.336-.336-.636-.576-.888-.252-.252-.552-.444-.888-.588-.348-.144-.72-.216-1.116-.216h-3.576v8.388h1.68Zm2.712-4.812c-.192.216-.468.324-.816.324h-1.896v-2.232h1.896c.348 0 .624.12.816.336.204.216.3.48.3.78 0 .312-.096.564-.3.792Zm7.754 1.824 1.428-3.096 1.428 3.096h-2.856Zm3.636 1.68.612 1.32h1.848l-3.888-8.4h-1.56l-3.888 8.4h1.848l.612-1.32h4.416Zm9.322-5.4h3.036v-1.68h-7.752v1.68h3.036V212h1.68v-6.72Zm7.669-1.68h-1.68v8.4h1.68v-8.4Zm3.347 4.2c0 .6.108 1.152.324 1.668.204.516.504.96.876 1.332.372.372.816.672 1.332.876.516.216 1.068.324 1.668.324.6 0 1.152-.108 1.668-.324.516-.204.96-.504 1.332-.876.372-.372.672-.816.888-1.332.204-.516.312-1.068.312-1.668 0-.6-.108-1.152-.312-1.668-.216-.516-.516-.96-.888-1.332-.372-.372-.816-.672-1.332-.888-.516-.204-1.068-.312-1.668-.312-.6 0-1.152.108-1.668.312-.516.216-.96.516-1.332.888-.372.372-.672.816-.876 1.332-.216.516-.324 1.068-.324 1.668Zm6.72 0c0 .372-.06.708-.18 1.008-.132.312-.3.576-.528.804-.228.228-.492.396-.792.516-.312.132-.648.192-1.02.192s-.708-.06-1.008-.192c-.312-.12-.576-.288-.804-.516-.228-.228-.396-.492-.516-.804-.132-.3-.192-.636-.192-1.008s.06-.708.192-1.02c.12-.3.288-.564.516-.792.228-.228.492-.396.804-.528.3-.12.636-.18 1.008-.18s.708.06 1.02.18c.3.132.564.3.792.528.228.228.396.492.528.792.12.312.18.648.18 1.02Zm12.651-4.2h-1.68v5.52l-4.536-5.52h-1.464v8.4h1.68v-5.52l4.536 5.52h1.464v-8.4Zm3.457 2.412c0 .396.072.744.204 1.02s.312.516.528.708c.216.192.456.348.732.468.264.132.528.228.792.312.204.06.408.12.588.18s.336.12.468.192c.132.084.24.168.324.276.072.108.108.24.108.396 0 .228-.084.42-.264.552-.18.132-.432.204-.756.204-.708 0-1.152-.36-1.32-1.092l-1.5.648c.084.372.216.696.396.96.18.276.396.492.648.66.252.18.528.3.828.384.3.084.612.12.936.12.384 0 .744-.06 1.08-.168.324-.108.612-.264.852-.468.24-.204.432-.456.576-.756.132-.3.204-.648.204-1.044s-.06-.72-.18-.996c-.132-.276-.288-.504-.492-.696-.204-.18-.444-.336-.708-.468-.264-.12-.54-.228-.828-.324-.228-.072-.432-.144-.612-.204-.192-.06-.36-.132-.492-.216-.132-.072-.24-.156-.312-.264-.084-.096-.12-.216-.12-.372 0-.204.084-.384.252-.528.168-.144.42-.216.768-.216.336 0 .612.084.828.24.216.156.372.432.456.816l1.524-.612c-.156-.696-.48-1.224-.972-1.584-.504-.36-1.116-.54-1.824-.54-.384 0-.744.048-1.068.156-.336.108-.624.276-.864.48-.252.204-.444.456-.576.756-.132.3-.204.636-.204 1.02Z" opacity=".3"/>
  <defs>
    <linearGradient id="c" x1="834.2" x2="1076.38" y1="605" y2="605" gradientUnits="userSpaceOnUse">
      <stop stop-color="#fff" stop-opacity=".1"/>
      <stop offset="1" stop-color="#fff"/>
    </linearGradient>
    <linearGradient id="e" x1="378" x2="620.19" y1="524.782" y2="524.782" gradientUnits="userSpaceOnUse">
      <stop stop-color="#141D26" stop-opacity=".1"/>
      <stop offset="1" stop-color="#141D26"/>
    </linearGradient>
    <linearGradient id="f" x1="378" x2="620.19" y1="555.082" y2="555.082" gradientUnits="userSpaceOnUse">
      <stop stop-color="#141D26" stop-opacity=".3"/>
      <stop offset=".489583" stop-color="#141D26"/>
    </linearGradient>
    <clipPath id="a">
      <path fill="#fff" d="M0 0h251v228.4H0z" transform="translate(1290.4 426)"/>
    </clipPath>
    <clipPath id="b">
      <path fill="#fff" d="M0 0h242.2v222.2H0z" transform="translate(834.2 429)"/>
    </clipPath>
    <clipPath id="d">
      <path fill="#fff" d="M0 0h242.2v242.2H0z" transform="translate(378 419)"/>
    </clipPath>
  </defs>
</svg>
