<svg width="224" height="152" viewBox="0 0 224 152" fill="none" xmlns="http://www.w3.org/2000/svg">
<path fill-rule="evenodd" clip-rule="evenodd" d="M22.5339 54L40.6044 62.7149L33.3817 68.4823L40.6041 62.7151L45.067 82.2971L32.5623 98L28.1097 88.7418L28.1124 88.7401L35.0634 80.01L32.5817 69.1221L32.5804 69.1203L22.5339 64.2759L12.4865 69.1203L12.4862 69.1217L10.0043 80.01L16.9545 88.7401L16.958 88.7418L12.5054 98L0 82.2963L4.46307 62.7152L12.4844 69.1203L4.46331 62.7149L22.5339 54ZM162.119 59.7796C165.407 59.7796 168.654 60.8075 171.095 62.6109L171.396 62.8404L171.711 63.0884L169.078 66.5117L168.756 66.25C167.066 64.8792 164.584 64.0604 162.119 64.0604C157.975 64.0604 156.505 66.4856 156.505 68.563C156.505 69.9227 157.159 71.2349 158.297 72.1671C159.342 73.0558 161.041 73.6222 162.491 74.0738L162.821 74.176L162.944 74.2134C165.058 74.8502 167.455 75.5743 169.52 77.3813C171.135 78.7958 172.861 81.4291 172.861 84.5783C172.861 89.2155 169.5 94.2054 162.119 94.2054C158.408 94.2054 154.921 92.9966 152.256 90.7938L151.952 90.5352L151.651 90.2723L154.461 86.9735L154.769 87.2527C156.651 88.9513 159.329 89.9246 162.119 89.9246C165.276 89.9246 168.461 88.2721 168.461 84.5783C168.461 83.1002 167.679 81.4901 166.47 80.4757C165.334 79.4873 163.644 78.9228 161.677 78.3098L161.28 78.1864L160.942 78.0817C159.131 77.5334 157.259 76.9651 155.257 75.269C153.734 73.9878 152.105 71.5789 152.105 68.6627C152.105 63.4323 156.223 59.7796 162.119 59.7796ZM59.5278 60.0766V74.3559H72.8918V60.0766H77.2922V93.9079H72.8918V78.6366H59.5278V93.9079H55.1287V60.0766H59.5278ZM99.62 60.0766V64.3574L88.3419 64.3579C87.0027 64.3619 86.3414 64.3977 85.9199 64.72C85.3069 65.1992 85.2563 66.0102 85.2531 67.9023L85.2529 74.3546L96.708 74.3048V78.5855L85.2529 78.6354L85.2531 86.082C85.2563 87.9731 85.307 88.7854 85.9224 89.2669C86.3416 89.5871 87.0028 89.6227 88.3419 89.6266L99.62 89.6271V93.9079L88.594 93.9078C86.5259 93.9051 84.5748 93.8432 82.9345 92.4199C81.0013 90.6933 80.8632 88.5832 80.8533 86.3378L80.8526 67.9062C80.8551 65.6498 80.9215 63.5201 82.7148 61.7676L82.9295 61.5671C84.5722 60.1438 86.5177 60.0796 88.5831 60.0767L99.62 60.0766ZM113.873 59.7787C115.319 59.7787 116.713 60.3258 117.697 61.2805C118.589 62.1373 119.01 62.9612 119.951 66.5773L120.04 66.9246L127.114 93.9079H122.588L120.064 84.2397H107.682L105.158 93.9079H100.632L107.707 66.9234C108.711 63.0127 109.13 62.164 110.05 61.2792C111.032 60.3258 112.427 59.7787 113.873 59.7787ZM136.197 60.077C139.46 60.0863 144.076 60.2629 147.36 63.6195C150.688 67.0171 150.775 71.6576 150.778 76.5909V77.3922C150.775 82.3266 150.688 86.9671 147.36 90.3648C144.076 93.7213 139.46 93.898 136.197 93.9073L135.503 93.9076C134.271 93.905 132.335 93.8431 130.694 92.4198C128.687 90.6268 128.616 88.4202 128.613 86.0781V67.9062C128.616 65.5641 128.687 63.3575 130.689 61.567C132.335 60.1413 134.271 60.0793 135.503 60.0766L136.197 60.077ZM193.975 60.0766V64.3574L182.697 64.3579C181.357 64.3619 180.696 64.3977 180.275 64.72C179.662 65.1992 179.611 66.0102 179.608 67.9023L179.608 74.3546L191.063 74.3048V78.5855L179.608 78.6354V85.8174C179.608 87.8986 179.634 88.7635 180.277 89.2669C180.696 89.5871 181.357 89.6227 182.697 89.6266L193.975 89.6271V93.9079L182.949 93.9078C180.881 93.9051 178.929 93.8432 177.289 92.4199C175.282 90.6269 175.21 88.4203 175.207 86.0782V67.9062C175.21 65.6498 175.276 63.5201 177.069 61.7676L177.284 61.5671C178.927 60.1438 180.872 60.0796 182.938 60.0767L193.975 60.0766ZM218.485 60.076V64.3568H209.36V93.9073H204.96V64.3568H195.835V60.076H218.485ZM135.946 64.3574L135.455 64.3575C134.757 64.3603 134.11 64.3902 133.679 64.7199C133.067 65.1991 133.017 66.0101 133.013 67.9022L133.013 85.8173C133.013 87.8985 133.039 88.7634 133.683 89.2668C134.11 89.5942 134.757 89.624 135.455 89.6267L135.946 89.6269C138.59 89.6244 142.075 89.5508 144.162 87.4187C146.238 85.2981 146.367 82.1557 146.376 77.865V76.1182C146.367 71.8286 146.238 68.6861 144.162 66.5656C142.15 64.5096 138.837 64.3678 136.233 64.358L135.946 64.3574ZM113.873 64.0595C113.593 64.0595 113.307 64.168 113.142 64.335C112.888 64.5942 112.648 65.3179 112.054 67.6436L111.984 67.9191L108.817 79.9589H118.93L115.763 67.9228C115.116 65.3755 114.867 64.6041 114.603 64.335C114.44 64.168 114.153 64.0595 113.873 64.0595ZM221.884 60.0757C222.177 60.0757 222.451 60.1318 222.707 60.2427C222.963 60.3536 223.187 60.5044 223.38 60.6976C223.572 60.8895 223.724 61.1151 223.833 61.3743C223.944 61.6335 224 61.9089 224 62.2018C224 62.4934 223.944 62.7688 223.833 63.0255C223.724 63.2823 223.572 63.5078 223.38 63.6998C223.187 63.8917 222.963 64.0437 222.707 64.1534C222.451 64.2655 222.177 64.3204 221.884 64.3204C221.592 64.3204 221.317 64.2655 221.062 64.1534C220.804 64.0437 220.58 63.8917 220.389 63.6998C220.196 63.5078 220.045 63.2823 219.934 63.0255C219.824 62.7688 219.769 62.4934 219.769 62.2018C219.769 61.9089 219.824 61.6335 219.934 61.3743C220.045 61.1151 220.196 60.8895 220.389 60.6976C220.58 60.5044 220.804 60.3536 221.062 60.2427C221.317 60.1318 221.592 60.0757 221.884 60.0757ZM221.884 60.4459C221.642 60.4459 221.415 60.492 221.201 60.5842C220.988 60.6764 220.803 60.801 220.645 60.9605C220.486 61.1188 220.361 61.3045 220.269 61.5176C220.177 61.732 220.131 61.9588 220.131 62.2018C220.131 62.4436 220.177 62.6704 220.269 62.8822C220.361 63.0928 220.486 63.2773 220.645 63.4368C220.803 63.5951 220.988 63.7209 221.201 63.8132C221.415 63.9041 221.642 63.9502 221.884 63.9502C222.126 63.9502 222.352 63.9041 222.564 63.8132C222.774 63.7209 222.958 63.5951 223.118 63.4368C223.276 63.2773 223.401 63.0928 223.494 62.8822C223.584 62.6704 223.63 62.4436 223.63 62.2018C223.63 61.9588 223.584 61.732 223.494 61.5176C223.401 61.3045 223.276 61.1188 223.118 60.9605C222.958 60.801 222.774 60.6764 222.564 60.5842C222.352 60.492 222.126 60.4459 221.884 60.4459ZM222.103 60.9855C222.199 60.9855 222.289 61.0042 222.372 61.0416C222.459 61.0789 222.535 61.1288 222.598 61.1923C222.66 61.2547 222.711 61.3257 222.748 61.4054C222.764 61.4516 222.778 61.4964 222.789 61.54C222.799 61.5837 222.804 61.6285 222.804 61.6746C222.804 61.7619 222.789 61.8379 222.761 61.9002C222.752 61.9338 222.738 61.9675 222.719 61.9999C222.701 62.0348 222.681 62.0659 222.66 62.0946C222.614 62.1532 222.56 62.2018 222.498 62.2392C222.439 62.2803 222.375 62.3139 222.304 62.3389L223.023 63.2985L222.66 63.4106L221.903 62.3638H221.478V63.4106H221.12V60.9855H222.103ZM222.103 61.3045H221.478V62.0323H222.103C222.145 62.0323 222.191 62.0223 222.242 61.9999C222.283 61.9849 222.32 61.9588 222.354 61.9251C222.366 61.9052 222.379 61.8852 222.391 61.869C222.403 61.8528 222.415 61.8341 222.422 61.813C222.443 61.7619 222.454 61.7145 222.454 61.6684C222.454 61.6186 222.443 61.5724 222.422 61.5313C222.415 61.5101 222.403 61.4889 222.391 61.4678C222.379 61.4466 222.366 61.4279 222.354 61.4117C222.329 61.3868 222.291 61.3593 222.242 61.3307C222.22 61.322 222.198 61.3157 222.176 61.312C222.152 61.307 222.128 61.3045 222.103 61.3045Z" fill="black"/>
</svg>
