<svg width="1920" height="1080" viewBox="0 0 1920 1080" fill="none" xmlns="http://www.w3.org/2000/svg">
<rect width="1920" height="1080" fill="white"/>
<rect x="405.487" y="347.513" width="105.377" height="105.377" transform="rotate(-45 405.487 347.513)" stroke="black" stroke-width="1.23624"/>
<path d="M480 273L447.539 347.513L480 422.026" stroke="black" stroke-width="1.23624"/>
<line x1="406.124" y1="347.494" x2="554.474" y2="347.494" stroke="black" stroke-width="1.23624"/>
<rect x="913.873" y="740.939" width="89.0095" height="89.0095" transform="rotate(-45 913.873 740.939)" stroke="black" stroke-width="1.23624"/>
<path d="M880.451 740.983L943.39 678.043L1006.33 740.983L943.39 803.922L880.451 740.983Z" stroke="black" stroke-width="1.23624"/>
<line x1="880.248" y1="740.567" x2="1039.72" y2="740.567" stroke="black" stroke-width="1.23624"/>
<line x1="943.297" y1="677.765" x2="976.675" y2="677.765" stroke="black" stroke-width="1.23624"/>
<line x1="943.297" y1="804.111" x2="976.675" y2="804.111" stroke="black" stroke-width="1.23624"/>
<rect x="1363.49" y="347.513" width="105.377" height="105.377" transform="rotate(-45 1363.49 347.513)" stroke="black" stroke-width="1.23624"/>
<path d="M1438 273L1399.36 347.513L1438 422.026" stroke="black" stroke-width="1.23624"/>
<path d="M1438 422.026L1476.64 347.513L1438 273" stroke="black" stroke-width="1.23624"/>
<line x1="1364.12" y1="347.494" x2="1512.47" y2="347.494" stroke="black" stroke-width="1.23624"/>
<line x1="1437.68" y1="273.937" x2="1437.68" y2="422.286" stroke="black" stroke-width="1.23624"/>
<circle cx="480" cy="738.765" r="65.5209" stroke="black" stroke-width="1.23624"/>
<ellipse cx="480" cy="738.764" rx="18.5437" ry="65.5209" stroke="black" stroke-width="1.23624"/>
<circle cx="960" cy="348.111" r="65.5209" stroke="black" stroke-width="1.23624"/>
<circle cx="997.705" cy="348.729" r="27.8155" stroke="black" stroke-width="1.23624"/>
<line x1="1410.19" y1="733.202" x2="1374.33" y2="733.202" stroke="black" stroke-width="1.23624"/>
<line x1="1410.64" y1="747.953" x2="1379.59" y2="765.879" stroke="black" stroke-width="1.23624"/>
<line x1="1418.76" y1="760.09" x2="1400.83" y2="791.138" stroke="black" stroke-width="1.23624"/>
<line x1="1431.82" y1="768.436" x2="1431.82" y2="804.287" stroke="black" stroke-width="1.23624"/>
<line x1="1446.57" y1="766.89" x2="1464.5" y2="797.938" stroke="black" stroke-width="1.23624"/>
<line x1="1459.94" y1="759.246" x2="1490.99" y2="777.171" stroke="black" stroke-width="1.23624"/>
<line x1="1417.43" y1="720.139" x2="1386.39" y2="702.213" stroke="black" stroke-width="1.23624"/>
<line x1="1430.05" y1="712.016" x2="1412.12" y2="680.968" stroke="black" stroke-width="1.23624"/>
<line x1="1445.42" y1="711.566" x2="1445.42" y2="675.715" stroke="black" stroke-width="1.23624"/>
<line x1="1457.86" y1="718.816" x2="1475.79" y2="687.768" stroke="black" stroke-width="1.23624"/>
<line x1="1465.51" y1="731.43" x2="1496.55" y2="713.504" stroke="black" stroke-width="1.23624"/>
<line x1="1465.82" y1="745.564" x2="1501.67" y2="745.564" stroke="black" stroke-width="1.23624"/>
<g opacity="0.3">
<path d="M241.389 103.591H243.071V112H241.389V103.591Z" fill="black"/>
<path d="M246.491 107.784C246.491 106.999 246.675 106.286 247.044 105.645C247.412 105.005 247.917 104.504 248.557 104.144C249.198 103.775 249.915 103.591 250.708 103.591C251.292 103.591 251.841 103.691 252.353 103.892C252.874 104.084 253.334 104.364 253.735 104.732L252.93 106.27C252.61 105.942 252.265 105.693 251.897 105.525C251.537 105.357 251.136 105.273 250.696 105.273C250.215 105.273 249.783 105.381 249.398 105.597C249.014 105.806 248.714 106.102 248.497 106.486C248.281 106.871 248.173 107.307 248.173 107.796C248.173 108.284 248.281 108.721 248.497 109.105C248.714 109.489 249.01 109.79 249.386 110.006C249.771 110.214 250.199 110.318 250.672 110.318C251.593 110.318 252.381 109.962 253.038 109.249L253.867 110.811C253.002 111.604 251.945 112 250.696 112C249.911 112 249.198 111.816 248.557 111.447C247.917 111.079 247.412 110.575 247.044 109.934C246.675 109.293 246.491 108.576 246.491 107.784Z" fill="black"/>
<path d="M260.508 112C259.715 112 258.998 111.82 258.358 111.459C257.717 111.091 257.212 110.587 256.844 109.946C256.484 109.305 256.303 108.588 256.303 107.796C256.303 107.003 256.484 106.286 256.844 105.645C257.212 105.005 257.717 104.504 258.358 104.144C258.998 103.775 259.715 103.591 260.508 103.591C261.301 103.591 262.017 103.775 262.658 104.144C263.299 104.504 263.799 105.005 264.16 105.645C264.528 106.286 264.712 107.003 264.712 107.796C264.712 108.588 264.528 109.305 264.16 109.946C263.799 110.587 263.299 111.091 262.658 111.459C262.017 111.82 261.301 112 260.508 112ZM260.508 110.318C260.988 110.318 261.421 110.21 261.805 109.994C262.19 109.778 262.49 109.477 262.706 109.093C262.922 108.709 263.03 108.276 263.03 107.796C263.03 107.307 262.922 106.875 262.706 106.498C262.49 106.114 262.19 105.814 261.805 105.597C261.421 105.381 260.988 105.273 260.508 105.273C260.019 105.273 259.583 105.381 259.198 105.597C258.822 105.814 258.526 106.114 258.309 106.498C258.093 106.875 257.985 107.307 257.985 107.796C257.985 108.276 258.093 108.709 258.309 109.093C258.526 109.477 258.822 109.778 259.198 109.994C259.583 110.21 260.019 110.318 260.508 110.318Z" fill="black"/>
<path d="M268.007 103.591H269.472L274.013 109.117V103.591H275.695V112H274.229L269.688 106.474V112H268.007V103.591Z" fill="black"/>
<path d="M281.854 112C281.109 112 280.489 111.816 279.992 111.447C279.504 111.071 279.183 110.546 279.031 109.874L280.545 109.249C280.705 109.962 281.141 110.318 281.854 110.318C282.174 110.318 282.423 110.258 282.599 110.138C282.783 110.01 282.875 109.826 282.875 109.585C282.875 109.409 282.827 109.269 282.731 109.165C282.635 109.053 282.487 108.953 282.286 108.865C282.086 108.777 281.774 108.661 281.349 108.516C280.637 108.268 280.084 107.956 279.692 107.579C279.307 107.195 279.115 106.678 279.115 106.03C279.115 105.285 279.359 104.692 279.848 104.252C280.344 103.811 281.001 103.591 281.818 103.591C282.563 103.591 283.179 103.779 283.668 104.156C284.164 104.524 284.489 105.045 284.641 105.717L283.127 106.342C283.047 105.982 282.899 105.713 282.683 105.537C282.475 105.361 282.186 105.273 281.818 105.273C281.498 105.273 281.245 105.337 281.061 105.465C280.885 105.585 280.797 105.766 280.797 106.006C280.797 106.182 280.845 106.326 280.941 106.438C281.037 106.542 281.185 106.638 281.385 106.727C281.586 106.815 281.898 106.931 282.322 107.075C283.035 107.323 283.584 107.639 283.968 108.024C284.361 108.4 284.557 108.913 284.557 109.561C284.557 110.306 284.309 110.899 283.812 111.339C283.323 111.78 282.671 112 281.854 112Z" fill="black"/>
</g>
</svg>
