<svg width="1920" height="960" viewBox="0 0 1920 960" fill="none" xmlns="http://www.w3.org/2000/svg">
<g id="coventure-case-2">
<rect width="1920" height="960" fill="#0E3531"/>
<g id="Logo">
<path fill-rule="evenodd" clip-rule="evenodd" d="M775.106 447H744.452L777.922 512.577H808.576L775.106 447ZM697 479.789C697 461.736 711.489 447.091 729.395 447C729.448 447 742.922 447 744.452 447L744.452 512.577H728.71C711.12 512.122 697 497.611 697 479.789ZM789.954 447C789.954 456.757 797.496 464.666 806.8 464.666C816.104 464.666 823.646 456.757 823.646 447L789.954 447Z" fill="white"/>
<path d="M896.114 491.902H886.024C883.791 498.916 877.451 503.743 868.521 503.743C856.555 503.743 847.982 493.906 847.982 480.062C847.982 466.673 856.108 455.835 868.61 455.835C877.094 455.835 882.987 460.753 885.041 468.131H895.132C892.9 454.651 882.184 447 868.521 447C850.482 447 838.427 461.026 838.427 480.062C838.427 498.916 850.125 512.577 868.521 512.577C882.63 512.577 893.882 504.654 896.114 491.902Z" fill="white"/>
<path d="M921.939 512.577C935.066 512.577 944.888 502.65 944.888 488.897C944.888 475.144 935.066 465.216 921.939 465.216C908.812 465.216 899.167 475.053 899.167 488.897C899.167 502.559 908.901 512.577 921.939 512.577ZM921.939 504.471C913.634 504.471 908.186 497.367 908.186 488.897C908.186 480.335 913.634 473.322 921.939 473.322C930.243 473.322 935.869 480.335 935.869 488.897C935.869 497.367 930.243 504.471 921.939 504.471Z" fill="white"/>
<path d="M960.882 512.577H971.955L989.011 466.395H979.635L966.776 502.923H966.151L953.202 466.395H943.737L960.882 512.577Z" fill="white"/>
<path d="M1029.71 488.259C1029.71 472.593 1020.15 465.216 1009.26 465.216C997.115 465.216 987.56 474.506 987.56 489.352C987.56 503.378 996.757 512.577 1009.62 512.577C1020.15 512.577 1027.65 507.113 1029.53 498.005H1020.78C1019.35 502.65 1015.24 505.018 1009.62 505.018C1001.76 505.018 996.936 499.371 996.489 491.265H1029.53C1029.62 490.081 1029.71 489.17 1029.71 488.259ZM1009.26 472.776C1016.14 472.776 1020.78 477.694 1020.87 484.707H996.579C997.472 478.058 1002.2 472.776 1009.26 472.776Z" fill="white"/>
<path d="M1035.19 512.577H1044.3V486.164C1044.3 477.147 1049.57 473.322 1055.37 473.322C1061.09 473.322 1065.55 477.056 1065.55 485.436V512.577H1074.66V483.432C1074.66 471.683 1067.87 465.216 1057.96 465.216C1051.09 465.216 1047.42 468.131 1044.92 471.592H1044.3L1043.41 466.127H1035.19V512.577Z" fill="white"/>
<path d="M1098.11 512.577C1101.06 512.577 1103.38 512.031 1105.08 511.576V504.38C1103.74 504.836 1102.13 505.109 1100.7 505.109C1095.97 505.109 1094.9 502.377 1094.9 499.371V473.595H1106.24V466.127H1094.9V453.74H1086.59V459.296C1086.59 464.214 1084.63 466.127 1079.36 466.127H1076.24V473.595H1085.88V500.646C1085.88 505.838 1087.67 512.577 1098.11 512.577Z" fill="white"/>
<path d="M1148.93 466.127H1139.82V491.629C1139.82 500.646 1134.55 504.471 1128.74 504.471C1123.03 504.471 1118.56 500.737 1118.56 492.358V466.127H1109.45V494.362C1109.45 506.111 1116.24 512.577 1126.15 512.577C1133.03 512.577 1136.69 509.663 1139.19 506.202H1139.82L1140.71 512.577H1148.93V466.127Z" fill="white"/>
<path d="M1156.09 512.577H1165.2V488.982C1165.2 481.15 1168.77 474.501 1177.26 474.501C1178.77 474.501 1180.2 474.592 1181.63 474.774V465.484H1178.77C1171.36 465.484 1168.24 468.489 1165.83 472.77H1165.2L1164.31 466.395H1156.09V512.577Z" fill="white"/>
<path d="M1223.22 488.259C1223.22 472.593 1213.66 465.216 1202.77 465.216C1190.63 465.216 1181.07 474.506 1181.07 489.352C1181.07 503.378 1190.27 512.577 1203.13 512.577C1213.66 512.577 1221.17 507.113 1223.04 498.005H1214.29C1212.86 502.65 1208.75 505.018 1203.13 505.018C1195.27 505.018 1190.45 499.371 1190 491.265H1223.04C1223.13 490.081 1223.22 489.17 1223.22 488.259ZM1202.77 472.776C1209.65 472.776 1214.29 477.694 1214.38 484.707H1190.09C1190.98 478.058 1195.72 472.776 1202.77 472.776Z" fill="white"/>
</g>
<g id="Deliverables" opacity="0.3">
<path d="M240.924 88.6016H242.292V95.6336H246.288V97.0016H240.924V88.6016Z" fill="white"/>
<path d="M252.386 97.0016C251.594 97.0016 250.878 96.8216 250.238 96.4616C249.598 96.0936 249.094 95.5896 248.726 94.9496C248.366 94.3096 248.186 93.5936 248.186 92.8016C248.186 92.0096 248.366 91.2936 248.726 90.6536C249.094 90.0136 249.598 89.5136 250.238 89.1536C250.878 88.7856 251.594 88.6016 252.386 88.6016C253.178 88.6016 253.894 88.7856 254.534 89.1536C255.174 89.5136 255.674 90.0136 256.034 90.6536C256.402 91.2936 256.586 92.0096 256.586 92.8016C256.586 93.5936 256.402 94.3096 256.034 94.9496C255.674 95.5896 255.174 96.0936 254.534 96.4616C253.894 96.8216 253.178 97.0016 252.386 97.0016ZM252.386 95.6336C252.93 95.6336 253.414 95.5136 253.838 95.2736C254.27 95.0256 254.606 94.6896 254.846 94.2656C255.094 93.8336 255.218 93.3456 255.218 92.8016C255.218 92.2576 255.094 91.7736 254.846 91.3496C254.606 90.9176 254.27 90.5816 253.838 90.3416C253.414 90.0936 252.93 89.9696 252.386 89.9696C251.842 89.9696 251.354 90.0936 250.922 90.3416C250.498 90.5816 250.162 90.9176 249.914 91.3496C249.674 91.7736 249.554 92.2576 249.554 92.8016C249.554 93.3456 249.674 93.8336 249.914 94.2656C250.162 94.6896 250.498 95.0256 250.922 95.2736C251.354 95.5136 251.842 95.6336 252.386 95.6336Z" fill="white"/>
<path d="M259.479 92.8136C259.479 92.0136 259.659 91.2936 260.019 90.6536C260.379 90.0136 260.883 89.5136 261.531 89.1536C262.179 88.7856 262.911 88.6016 263.727 88.6016C264.311 88.6016 264.855 88.7016 265.359 88.9016C265.863 89.1016 266.319 89.3896 266.727 89.7656L266.079 91.0496C265.399 90.3296 264.595 89.9696 263.667 89.9696C263.123 89.9696 262.635 90.0896 262.203 90.3296C261.779 90.5696 261.447 90.9056 261.207 91.3376C260.967 91.7616 260.847 92.2496 260.847 92.8016C260.847 93.3616 260.967 93.8576 261.207 94.2896C261.447 94.7136 261.783 95.0456 262.215 95.2856C262.647 95.5256 263.139 95.6456 263.691 95.6456C264.331 95.6456 264.879 95.4696 265.335 95.1176C265.799 94.7656 266.079 94.2936 266.175 93.7016H263.379V92.3336H267.747V92.6216C267.747 93.5016 267.579 94.2736 267.243 94.9376C266.907 95.6016 266.435 96.1136 265.827 96.4736C265.227 96.8256 264.535 97.0016 263.751 97.0016C262.927 97.0016 262.191 96.8216 261.543 96.4616C260.895 96.0936 260.387 95.5936 260.019 94.9616C259.659 94.3216 259.479 93.6056 259.479 92.8136Z" fill="white"/>
<path d="M274.691 97.0016C273.899 97.0016 273.183 96.8216 272.543 96.4616C271.903 96.0936 271.399 95.5896 271.031 94.9496C270.671 94.3096 270.491 93.5936 270.491 92.8016C270.491 92.0096 270.671 91.2936 271.031 90.6536C271.399 90.0136 271.903 89.5136 272.543 89.1536C273.183 88.7856 273.899 88.6016 274.691 88.6016C275.483 88.6016 276.199 88.7856 276.839 89.1536C277.479 89.5136 277.979 90.0136 278.339 90.6536C278.707 91.2936 278.891 92.0096 278.891 92.8016C278.891 93.5936 278.707 94.3096 278.339 94.9496C277.979 95.5896 277.479 96.0936 276.839 96.4616C276.199 96.8216 275.483 97.0016 274.691 97.0016ZM274.691 95.6336C275.235 95.6336 275.719 95.5136 276.143 95.2736C276.575 95.0256 276.911 94.6896 277.151 94.2656C277.399 93.8336 277.523 93.3456 277.523 92.8016C277.523 92.2576 277.399 91.7736 277.151 91.3496C276.911 90.9176 276.575 90.5816 276.143 90.3416C275.719 90.0936 275.235 89.9696 274.691 89.9696C274.147 89.9696 273.659 90.0936 273.227 90.3416C272.803 90.5816 272.467 90.9176 272.219 91.3496C271.979 91.7736 271.859 92.2576 271.859 92.8016C271.859 93.3456 271.979 93.8336 272.219 94.2656C272.467 94.6896 272.803 95.0256 273.227 95.2736C273.659 95.5136 274.147 95.6336 274.691 95.6336Z" fill="white"/>
<path d="M284.052 89.9696H280.872V88.6016H288.588V89.9696H285.42V97.0016H284.052V89.9696Z" fill="white"/>
<path d="M294.4 93.5936L291.004 88.6016H292.66L295.084 92.1656L297.52 88.6016H299.176L295.768 93.5936V97.0016H294.4V93.5936Z" fill="white"/>
<path d="M301.885 88.6016H305.017C305.569 88.6016 306.065 88.7256 306.505 88.9736C306.945 89.2216 307.289 89.5656 307.537 90.0056C307.785 90.4456 307.909 90.9376 307.909 91.4816C307.909 92.0336 307.785 92.5296 307.537 92.9696C307.289 93.4016 306.945 93.7416 306.505 93.9896C306.065 94.2376 305.569 94.3616 305.017 94.3616H303.253V97.0016H301.885V88.6016ZM305.017 92.9936C305.457 92.9936 305.821 92.8536 306.109 92.5736C306.397 92.2856 306.541 91.9216 306.541 91.4816C306.541 91.0416 306.397 90.6816 306.109 90.4016C305.821 90.1136 305.457 89.9696 305.017 89.9696H303.253V92.9936H305.017Z" fill="white"/>
<path d="M311.162 88.6016H316.454V89.9696H312.53V92.1176H316.454V93.4856H312.53V95.6336H316.454V97.0016H311.162V88.6016Z" fill="white"/>
</g>
</g>
</svg>
