<svg width="130" height="70" viewBox="0 0 130 70" fill="none" xmlns="http://www.w3.org/2000/svg">
<path d="M37.123 25.1554C37.123 23.7797 38.2079 22.6738 39.5574 22.6738C40.9069 22.6738 41.9918 23.7797 41.9918 25.1554C41.9918 26.531 40.9069 27.6369 39.5574 27.6369C38.2079 27.6369 37.123 26.531 37.123 25.1554Z" fill="#1F1F1F"/>
<path d="M41.1639 30.7959H37.3535V45.9549H41.1639V30.7959Z" fill="#1F1F1F"/>
<path d="M44.4551 30.3881H47.9479L48.2654 32.1684H48.5036C49.4032 30.9815 50.6469 30.0645 52.8696 30.0645C56.4154 30.0645 58.6645 32.3572 58.6645 36.3492V45.5472H54.8542V37.1584C54.8542 34.6769 53.4517 33.4631 51.6789 33.4631C49.8531 33.4631 48.2654 34.6499 48.2654 37.3473V45.5741H44.4551V30.3881Z" fill="#1F1F1F"/>
<path d="M63.2134 41.4201V33.463H60.0381V30.388H61.0436C62.8694 30.388 63.5838 29.7137 63.5838 28.0953V26.2881H67.0237V30.415H70.9135V33.49H67.0237V40.9616C67.0237 41.7978 67.2354 42.8497 69.0083 42.8497C69.4581 42.8497 70.0138 42.7688 70.4636 42.6339V45.574C69.8021 45.7359 68.9289 45.8977 67.844 45.8977C63.6897 45.8438 63.2134 43.0925 63.2134 41.4201Z" fill="#1F1F1F"/>
<path d="M88.9347 30.3875H92.3746L92.7186 32.5454H92.9567C93.8828 31.0349 94.8883 30.0908 97.4021 30.0908H98.4606V33.975C97.9313 33.8941 97.4021 33.8401 96.8464 33.8401C93.5653 33.8401 92.7186 36.2947 92.7186 38.4795V45.5465H88.9082V30.3875H88.9347Z" fill="#1F1F1F"/>
<path d="M99.3613 37.9401C99.3613 33.2737 102.748 30.0908 107.22 30.0908C111.692 30.0908 115.079 33.3006 115.079 37.9401C115.079 42.6334 111.719 45.8433 107.22 45.8433C102.775 45.8433 99.3613 42.6065 99.3613 37.9401ZM111.269 37.9401C111.269 35.4315 109.628 33.4625 107.194 33.4625C104.759 33.4625 103.145 35.4315 103.145 37.9401C103.145 40.4756 104.759 42.4986 107.194 42.4986C109.681 42.4986 111.269 40.4756 111.269 37.9401Z" fill="#1F1F1F"/>
<path d="M116.721 40.6913H120.399C120.61 42.3367 121.801 42.9571 123.309 42.9571C124.474 42.9571 125.479 42.4986 125.479 41.4196C125.479 40.2598 124.474 39.7743 122.86 39.3697L121.457 39.019C119.473 38.5335 117.197 37.7243 117.197 34.7302C117.197 31.7092 119.817 30.0908 122.754 30.0908C126.776 30.0908 128.602 32.2487 128.813 34.7302H125.162C125.003 33.6513 124.183 32.977 122.78 32.977C121.616 32.977 120.822 33.5434 120.822 34.5144C120.822 35.5664 121.828 35.8361 123.257 36.2407L124.659 36.5914C127.252 37.2657 129.104 38.4795 129.104 41.3117C129.104 44.4406 126.485 45.8433 123.336 45.8433C119.129 45.8433 116.932 43.8203 116.721 40.6913Z" fill="#1F1F1F"/>
<path d="M83.1403 41.2308C82.6375 42.2828 81.5262 42.8492 80.0444 42.8492C77.7423 42.8492 76.3663 41.2848 76.2075 39.1269H86.7919C86.8183 38.6953 86.8448 38.3717 86.8448 38.021C86.8448 32.6533 83.4843 30.3066 79.8856 30.3066C75.8371 30.3066 72.4766 33.3007 72.4766 38.2638C72.4766 42.8762 75.6519 45.8972 80.0444 45.8972C82.955 45.8972 85.1513 44.7104 86.2362 42.7144L83.1403 41.2308ZM79.912 33.3816C81.8437 33.3816 83.2196 34.7033 83.299 36.5645H76.2605C76.5251 34.7572 77.8746 33.3816 79.912 33.3816Z" fill="#1F1F1F"/>
<path d="M21.9623 34.3258V40.1521C21.9623 40.26 21.8829 40.3409 21.777 40.3409H18.5488C18.443 40.3409 18.3636 40.26 18.3636 40.1521V34.3258C18.3371 32.7074 17.0406 31.3857 15.4264 31.3857C13.8123 31.3857 12.4893 32.7344 12.4893 34.3528V40.1251C12.4893 40.233 12.3835 40.3409 12.2776 40.3409H9.10231C8.99647 40.3409 8.89062 40.26 8.89062 40.1251V34.2988C8.89062 33.9212 8.94355 33.5436 8.99647 33.1929C9.02293 33.0581 9.10231 32.9502 9.20815 32.8962C10.981 31.9522 12.3305 30.3338 12.9656 28.3917C13.0185 28.2838 13.0979 28.1759 13.2037 28.1489C13.8917 27.8792 14.6591 27.7443 15.4264 27.7443C19.0251 27.7173 21.9358 30.6844 21.9623 34.3258Z" fill="#1F1F1F"/>
<path d="M17.8081 19.1941C15.4531 18.8165 13.2304 19.0053 11.14 19.6257C10.9548 19.6797 10.8754 19.9494 11.0342 20.0843C11.7751 20.8395 12.3837 21.7296 12.7806 22.7546C12.8335 22.8895 12.9393 22.9434 13.0716 22.9165C14.6064 22.5928 16.2205 22.5658 17.8875 22.9434C23.1532 24.1033 27.0694 28.8506 27.2282 34.3262C27.4398 41.1504 22.0683 46.7879 15.4002 46.7879C8.91729 46.7879 3.59867 41.3932 3.59867 34.7308C3.59867 34.515 3.59867 34.2992 3.62513 34.1104C3.65159 33.8676 3.49282 33.6518 3.25468 33.5979C2.30209 33.3282 1.40242 32.8696 0.635059 32.2492C0.449834 32.1144 0.211686 32.2223 0.158765 32.438C0.0529216 33.1933 0 33.9486 0 34.7308C0 43.4162 6.93273 50.4562 15.4266 50.4562C24.4762 50.4562 31.7265 42.4721 30.7739 33.0584C30.0595 26.0184 24.6615 20.2461 17.8081 19.1941Z" fill="#1F1F1F"/>
<path d="M2.4082 26.7576C2.4082 25.0583 3.7577 23.6826 5.42473 23.6826C7.09176 23.6826 8.44126 25.0583 8.44126 26.7576C8.44126 28.4569 7.09176 29.8325 5.42473 29.8325C3.7577 29.8325 2.4082 28.4569 2.4082 26.7576Z" fill="#1F1F1F"/>
</svg>
