<svg width="1920" height="595" viewBox="0 0 1920 595" fill="none" xmlns="http://www.w3.org/2000/svg">
<g clip-path="url(#clip0)">
<rect width="1920" height="595" fill="#F8C836"/>
<path d="M748.297 216H773.652V208.862H757.086V201.387H772.356V194.232H757.086V186.774H773.652V179.636H748.297V216ZM785.345 216.462C789.144 216.462 791.772 214.988 793.264 212.2H793.477V216H801.644V197.463C801.644 191.692 796.513 188.372 789.57 188.372C782.237 188.372 778.083 192.065 777.39 197.037L785.398 197.321C785.771 195.581 787.209 194.516 789.499 194.516C791.63 194.516 792.98 195.545 792.98 197.374V197.463C792.98 199.132 791.169 199.487 786.517 199.896C780.994 200.357 776.378 202.399 776.378 208.436C776.378 213.834 780.124 216.462 785.345 216.462ZM788.026 210.78C786.019 210.78 784.599 209.821 784.599 208.01C784.599 206.252 785.984 205.187 788.452 204.814C790.068 204.583 792.056 204.228 793.033 203.713V206.305C793.033 208.969 790.796 210.78 788.026 210.78ZM829.264 197.055C828.802 191.657 824.381 188.372 816.994 188.372C809.608 188.372 804.903 191.586 804.938 197.055C804.903 201.245 807.584 203.944 813.035 204.956L817.794 205.862C820.048 206.305 821.078 207.016 821.114 208.223C821.078 209.59 819.551 210.496 817.332 210.496C814.864 210.496 813.195 209.43 812.822 207.442L804.246 207.655C804.867 213.053 809.502 216.515 817.296 216.515C824.594 216.515 829.903 212.875 829.938 207.264C829.903 203.287 827.275 200.925 821.842 199.878L816.586 198.884C814.278 198.422 813.532 197.605 813.55 196.558C813.532 195.173 815.148 194.32 817.154 194.32C819.445 194.32 821.043 195.545 821.291 197.268L829.264 197.055ZM832.713 216H841.396V188.727H832.713V216ZM837.063 185.549C839.531 185.549 841.52 183.685 841.52 181.394C841.52 179.104 839.531 177.257 837.063 177.257C834.613 177.257 832.607 179.104 832.607 181.394C832.607 183.685 834.613 185.549 837.063 185.549ZM854.105 179.636H845.422V216H854.105V179.636ZM863.44 226.192C869.69 226.192 872.797 223.031 874.306 218.61L884.587 188.745L875.443 188.727L870.347 208.188H870.063L865.038 188.727H855.947L865.642 216.994L865.304 217.811C864.363 219.764 862.588 219.853 860.031 219.018L858.113 225.322C859.427 225.837 861.363 226.192 863.44 226.192ZM903.347 216.462C907.146 216.462 909.774 214.988 911.266 212.2H911.479V216H919.646V197.463C919.646 191.692 914.515 188.372 907.572 188.372C900.239 188.372 896.085 192.065 895.392 197.037L903.4 197.321C903.773 195.581 905.211 194.516 907.501 194.516C909.632 194.516 910.982 195.545 910.982 197.374V197.463C910.982 199.132 909.17 199.487 904.518 199.896C898.996 200.357 894.38 202.399 894.38 208.436C894.38 213.834 898.126 216.462 903.347 216.462ZM906.028 210.78C904.021 210.78 902.601 209.821 902.601 208.01C902.601 206.252 903.986 205.187 906.454 204.814C908.07 204.583 910.058 204.228 911.035 203.713V206.305C911.035 208.969 908.798 210.78 906.028 210.78ZM936.186 216.515C943.857 216.515 948.615 212.058 948.846 205.311H940.732C940.412 208.205 938.672 209.786 936.293 209.786C933.239 209.786 931.25 207.211 931.25 202.364C931.25 197.552 933.256 194.977 936.293 194.977C938.778 194.977 940.394 196.664 940.732 199.452H948.846C948.651 192.74 943.75 188.372 936.168 188.372C927.592 188.372 922.408 194.089 922.408 202.452C922.408 210.78 927.557 216.515 936.186 216.515ZM964.52 216.515C972.191 216.515 976.949 212.058 977.18 205.311H969.066C968.746 208.205 967.006 209.786 964.627 209.786C961.573 209.786 959.584 207.211 959.584 202.364C959.584 197.552 961.59 194.977 964.627 194.977C967.112 194.977 968.728 196.664 969.066 199.452H977.18C976.985 192.74 972.084 188.372 964.502 188.372C955.926 188.372 950.742 194.089 950.742 202.452C950.742 210.78 955.891 216.515 964.52 216.515ZM992.872 216.515C1000.03 216.515 1004.73 213.053 1005.73 207.69L997.755 207.46C997.08 209.271 995.304 210.247 993.032 210.247C989.694 210.247 987.634 208.028 987.634 204.69V204.459H1005.82V202.293C1005.82 193.308 1000.35 188.372 992.605 188.372C984.367 188.372 979.076 194.018 979.076 202.47C979.076 211.206 984.296 216.515 992.872 216.515ZM987.634 199.416C987.758 196.7 989.907 194.64 992.783 194.64C995.642 194.64 997.701 196.629 997.737 199.416H987.634ZM1032.56 197.055C1032.1 191.657 1027.68 188.372 1020.29 188.372C1012.91 188.372 1008.2 191.586 1008.24 197.055C1008.2 201.245 1010.88 203.944 1016.33 204.956L1021.09 205.862C1023.35 206.305 1024.38 207.016 1024.41 208.223C1024.38 209.59 1022.85 210.496 1020.63 210.496C1018.16 210.496 1016.49 209.43 1016.12 207.442L1007.54 207.655C1008.16 213.053 1012.8 216.515 1020.59 216.515C1027.89 216.515 1033.2 212.875 1033.24 207.264C1033.2 203.287 1030.57 200.925 1025.14 199.878L1019.88 198.884C1017.57 198.422 1016.83 197.605 1016.85 196.558C1016.83 195.173 1018.44 194.32 1020.45 194.32C1022.74 194.32 1024.34 195.545 1024.59 197.268L1032.56 197.055ZM1059.82 197.055C1059.36 191.657 1054.94 188.372 1047.55 188.372C1040.16 188.372 1035.46 191.586 1035.5 197.055C1035.46 201.245 1038.14 203.944 1043.59 204.956L1048.35 205.862C1050.61 206.305 1051.63 207.016 1051.67 208.223C1051.63 209.59 1050.11 210.496 1047.89 210.496C1045.42 210.496 1043.75 209.43 1043.38 207.442L1034.8 207.655C1035.42 213.053 1040.06 216.515 1047.85 216.515C1055.15 216.515 1060.46 212.875 1060.5 207.264C1060.46 203.287 1057.83 200.925 1052.4 199.878L1047.14 198.884C1044.83 198.422 1044.09 197.605 1044.11 196.558C1044.09 195.173 1045.7 194.32 1047.71 194.32C1050 194.32 1051.6 195.545 1051.85 197.268L1059.82 197.055ZM1077.82 226.192C1084.07 226.192 1087.18 223.031 1088.69 218.61L1098.97 188.745L1089.82 188.727L1084.73 208.188H1084.44L1079.42 188.727H1070.33L1080.02 216.994L1079.69 217.811C1078.74 219.764 1076.97 219.853 1074.41 219.018L1072.49 225.322C1073.81 225.837 1075.74 226.192 1077.82 226.192ZM1112.65 216.515C1121.22 216.515 1126.43 210.851 1126.43 202.452C1126.43 194.036 1121.22 188.372 1112.65 188.372C1104.07 188.372 1098.87 194.036 1098.87 202.452C1098.87 210.851 1104.07 216.515 1112.65 216.515ZM1112.7 209.963C1109.49 209.963 1107.71 206.909 1107.71 202.399C1107.71 197.871 1109.49 194.8 1112.7 194.8C1115.81 194.8 1117.59 197.871 1117.59 202.399C1117.59 206.909 1115.81 209.963 1112.7 209.963ZM1146.97 204.228C1146.97 207.406 1144.95 209.182 1142.37 209.182C1139.71 209.182 1138.08 207.371 1138.06 204.406V188.727H1129.38V206.11C1129.39 212.271 1133.14 216.355 1138.75 216.355C1142.83 216.355 1145.87 214.26 1147.08 210.922H1147.36V216H1155.64V188.727H1146.97V204.228ZM1159.66 216H1168.34V201.192C1168.34 197.942 1170.65 195.759 1173.76 195.759C1174.79 195.759 1176.33 195.936 1177.17 196.22V188.674C1176.44 188.479 1175.54 188.354 1174.74 188.354C1171.75 188.354 1169.37 190.094 1168.38 193.699H1168.1V188.727H1159.66V216ZM730.581 260.446C730.599 257.339 732.41 255.492 735.162 255.492C737.914 255.492 739.548 257.303 739.53 260.322V276H748.213V258.617C748.23 252.474 744.484 248.372 738.749 248.372C734.718 248.372 731.664 250.414 730.457 253.734H730.155V248.727H721.899V276H730.581V260.446ZM764.837 276.515C771.992 276.515 776.697 273.053 777.692 267.69L769.719 267.46C769.045 269.271 767.269 270.247 764.996 270.247C761.658 270.247 759.599 268.028 759.599 264.69V264.459H777.781V262.293C777.781 253.308 772.312 248.372 764.57 248.372C756.332 248.372 751.04 254.018 751.04 262.47C751.04 271.206 756.261 276.515 764.837 276.515ZM759.599 259.416C759.723 256.7 761.871 254.64 764.748 254.64C767.607 254.64 769.666 256.629 769.702 259.416H759.599ZM796.109 248.727H791.191V242.193H782.508V248.727H778.904V255.119H782.508V268.383C782.455 273.905 786.042 276.675 792.167 276.391C794.263 276.284 795.772 275.858 796.606 275.609L795.292 269.342C794.92 269.43 794.05 269.608 793.393 269.608C791.99 269.608 791.191 269.04 791.191 267.424V255.119H796.109V248.727ZM804.135 276H813.439L817.7 260.109H818.002L822.264 276H831.55L838.67 248.727H829.952L826.383 266.075H826.152L822.104 248.727H813.599L809.657 266.199H809.426L805.751 248.727H797.033L804.135 276ZM852.799 276.515C861.375 276.515 866.578 270.851 866.578 262.452C866.578 254.036 861.375 248.372 852.799 248.372C844.223 248.372 839.021 254.036 839.021 262.452C839.021 270.851 844.223 276.515 852.799 276.515ZM852.853 269.963C849.639 269.963 847.863 266.909 847.863 262.399C847.863 257.871 849.639 254.8 852.853 254.8C855.96 254.8 857.735 257.871 857.735 262.399C857.735 266.909 855.96 269.963 852.853 269.963ZM869.526 276H878.208V261.192C878.208 257.942 880.516 255.759 883.624 255.759C884.653 255.759 886.198 255.936 887.033 256.22V248.674C886.305 248.479 885.399 248.354 884.6 248.354C881.617 248.354 879.238 250.094 878.244 253.699H877.96V248.727H869.526V276ZM889.07 276H897.753V267.815L899.511 265.684L906.009 276H916.041L905.974 260.606L915.651 248.727H905.814L898.144 258.493H897.753V239.636H889.07V276ZM926.5 276H935.183V248.727H926.5V276ZM930.85 245.549C933.318 245.549 935.307 243.685 935.307 241.394C935.307 239.104 933.318 237.257 930.85 237.257C928.4 237.257 926.394 239.104 926.394 241.394C926.394 243.685 928.4 245.549 930.85 245.549ZM947.892 260.446C947.909 257.339 949.721 255.492 952.473 255.492C955.225 255.492 956.858 257.303 956.841 260.322V276H965.523V258.617C965.541 252.474 961.794 248.372 956.059 248.372C952.029 248.372 948.975 250.414 947.767 253.734H947.466V248.727H939.209V276H947.892V260.446ZM991.372 276.515C999.948 276.515 1005.15 270.851 1005.15 262.452C1005.15 254.036 999.948 248.372 991.372 248.372C982.796 248.372 977.593 254.036 977.593 262.452C977.593 270.851 982.796 276.515 991.372 276.515ZM991.425 269.963C988.211 269.963 986.436 266.909 986.436 262.399C986.436 257.871 988.211 254.8 991.425 254.8C994.532 254.8 996.308 257.871 996.308 262.399C996.308 266.909 994.532 269.963 991.425 269.963ZM1016.78 260.446C1016.8 257.339 1018.61 255.492 1021.36 255.492C1024.11 255.492 1025.75 257.303 1025.73 260.322V276H1034.41V258.617C1034.43 252.474 1030.68 248.372 1024.95 248.372C1020.92 248.372 1017.86 250.414 1016.66 253.734H1016.35V248.727H1008.1V276H1016.78V260.446ZM1051.04 276.515C1058.19 276.515 1062.9 273.053 1063.89 267.69L1055.92 267.46C1055.24 269.271 1053.47 270.247 1051.2 270.247C1047.86 270.247 1045.8 268.028 1045.8 264.69V264.459H1063.98V262.293C1063.98 253.308 1058.51 248.372 1050.77 248.372C1042.53 248.372 1037.24 254.018 1037.24 262.47C1037.24 271.206 1042.46 276.515 1051.04 276.515ZM1045.8 259.416C1045.92 256.7 1048.07 254.64 1050.95 254.64C1053.81 254.64 1055.87 256.629 1055.9 259.416H1045.8ZM1076.16 286.227H1084.84V271.579H1085.02C1086.12 274.1 1088.57 276.391 1092.69 276.391C1098.72 276.391 1103.59 271.668 1103.59 262.381C1103.59 252.758 1098.44 248.372 1092.74 248.372C1088.43 248.372 1086.06 250.893 1085.02 253.397H1084.75V248.727H1076.16V286.227ZM1084.66 262.364C1084.66 257.907 1086.51 255.155 1089.69 255.155C1092.9 255.155 1094.68 257.978 1094.68 262.364C1094.68 266.767 1092.9 269.626 1089.69 269.626C1086.51 269.626 1084.66 266.785 1084.66 262.364ZM1115.32 239.636H1106.64V276H1115.32V239.636ZM1127.04 276.462C1130.84 276.462 1133.46 274.988 1134.96 272.2H1135.17V276H1143.34V257.463C1143.34 251.692 1138.2 248.372 1131.26 248.372C1123.93 248.372 1119.77 252.065 1119.08 257.037L1127.09 257.321C1127.46 255.581 1128.9 254.516 1131.19 254.516C1133.32 254.516 1134.67 255.545 1134.67 257.374V257.463C1134.67 259.132 1132.86 259.487 1128.21 259.896C1122.69 260.357 1118.07 262.399 1118.07 268.436C1118.07 273.834 1121.82 276.462 1127.04 276.462ZM1129.72 270.78C1127.71 270.78 1126.29 269.821 1126.29 268.01C1126.29 266.252 1127.68 265.187 1130.14 264.814C1131.76 264.583 1133.75 264.228 1134.72 263.713V266.305C1134.72 268.969 1132.49 270.78 1129.72 270.78ZM1159.88 276.515C1167.55 276.515 1172.3 272.058 1172.54 265.311H1164.42C1164.1 268.205 1162.36 269.786 1159.98 269.786C1156.93 269.786 1154.94 267.211 1154.94 262.364C1154.94 257.552 1156.95 254.977 1159.98 254.977C1162.47 254.977 1164.08 256.664 1164.42 259.452H1172.54C1172.34 252.74 1167.44 248.372 1159.86 248.372C1151.28 248.372 1146.1 254.089 1146.1 262.452C1146.1 270.78 1151.25 276.515 1159.88 276.515ZM1188.23 276.515C1195.38 276.515 1200.09 273.053 1201.08 267.69L1193.11 267.46C1192.44 269.271 1190.66 270.247 1188.39 270.247C1185.05 270.247 1182.99 268.028 1182.99 264.69V264.459H1201.17V262.293C1201.17 253.308 1195.7 248.372 1187.96 248.372C1179.72 248.372 1174.43 254.018 1174.43 262.47C1174.43 271.206 1179.65 276.515 1188.23 276.515ZM1182.99 259.416C1183.11 256.7 1185.26 254.64 1188.14 254.64C1191 254.64 1193.06 256.629 1193.09 259.416H1182.99Z" fill="#1E2225"/>
<line x1="793" y1="401.5" x2="1124" y2="401.5" stroke="#D9B134"/>
<circle cx="797" cy="401" r="45" fill="#F8C836"/>
<circle cx="797" cy="401" r="44.5" stroke="#1E2225" stroke-opacity="0.14"/>
<path d="M780.25 405.309L779.38 404.816L779.38 404.817L780.25 405.309ZM798.082 391.59C798.082 394.677 795.58 397.18 792.493 397.18V399.18C796.684 399.18 800.082 395.781 800.082 391.59H798.082ZM792.493 397.18C789.405 397.18 786.903 394.677 786.903 391.59H784.903C784.903 395.781 788.301 399.18 792.493 399.18V397.18ZM786.903 391.59C786.903 388.503 789.405 386 792.493 386V384C788.301 384 784.903 387.398 784.903 391.59H786.903ZM792.493 386C795.58 386 798.082 388.503 798.082 391.59H800.082C800.082 387.398 796.684 384 792.493 384V386ZM799.614 398.961C797.495 397.818 795.059 397.18 792.493 397.18V399.18C794.726 399.18 796.835 399.734 798.664 400.721L799.614 398.961ZM792.493 397.18C786.864 397.18 781.966 400.254 779.38 404.816L781.12 405.802C783.364 401.843 787.611 399.18 792.493 399.18V397.18ZM779.38 404.817C777.347 408.41 779.999 412.828 784.099 412.828V410.828C781.496 410.828 779.859 408.031 781.121 405.801L779.38 404.817ZM784.099 411.828C784.099 412.828 784.099 412.828 784.099 412.828C784.099 412.828 784.099 412.828 784.1 412.828C784.1 412.828 784.1 412.828 784.1 412.828C784.1 412.828 784.101 412.828 784.101 412.828C784.101 412.828 784.102 412.828 784.102 412.828C784.102 412.828 784.103 412.828 784.103 412.828C784.104 412.828 784.104 412.828 784.105 412.828C784.105 412.828 784.106 412.828 784.106 412.828C784.107 412.828 784.107 412.828 784.108 412.828C784.109 412.828 784.109 412.828 784.11 412.828C784.111 412.828 784.112 412.828 784.112 412.828C784.113 412.828 784.114 412.828 784.115 412.828C784.116 412.828 784.117 412.828 784.118 412.828C784.118 412.828 784.119 412.828 784.12 412.828C784.121 412.828 784.122 412.828 784.124 412.828C784.125 412.828 784.126 412.828 784.127 412.828C784.128 412.828 784.129 412.828 784.13 412.828C784.132 412.828 784.133 412.828 784.134 412.828C784.135 412.828 784.137 412.828 784.138 412.828C784.14 412.828 784.141 412.828 784.142 412.828C784.144 412.828 784.145 412.828 784.147 412.828C784.148 412.828 784.15 412.828 784.151 412.828C784.153 412.828 784.154 412.828 784.156 412.828C784.158 412.828 784.159 412.828 784.161 412.828C784.163 412.828 784.165 412.828 784.166 412.828C784.168 412.828 784.17 412.828 784.172 412.828C784.174 412.828 784.175 412.828 784.177 412.828C784.179 412.828 784.181 412.828 784.183 412.828C784.185 412.828 784.187 412.828 784.189 412.828C784.191 412.828 784.193 412.828 784.195 412.828C784.197 412.828 784.2 412.828 784.202 412.828C784.204 412.828 784.206 412.828 784.208 412.828C784.211 412.828 784.213 412.828 784.215 412.828C784.218 412.828 784.22 412.828 784.222 412.828C784.225 412.828 784.227 412.828 784.229 412.828C784.232 412.828 784.234 412.828 784.237 412.828C784.239 412.828 784.242 412.828 784.244 412.828C784.247 412.828 784.25 412.828 784.252 412.828C784.255 412.828 784.258 412.828 784.26 412.828C784.263 412.828 784.266 412.828 784.268 412.828C784.271 412.828 784.274 412.828 784.277 412.828C784.28 412.828 784.283 412.828 784.285 412.828C784.288 412.828 784.291 412.828 784.294 412.828C784.297 412.828 784.3 412.828 784.303 412.828C784.306 412.828 784.309 412.828 784.312 412.828C784.315 412.828 784.319 412.828 784.322 412.828C784.325 412.828 784.328 412.828 784.331 412.828C784.334 412.828 784.338 412.828 784.341 412.828C784.344 412.828 784.348 412.828 784.351 412.828C784.354 412.828 784.358 412.828 784.361 412.828C784.364 412.828 784.368 412.828 784.371 412.828C784.375 412.828 784.378 412.828 784.382 412.828C784.385 412.828 784.389 412.828 784.392 412.828C784.396 412.828 784.4 412.828 784.403 412.828C784.407 412.828 784.411 412.828 784.414 412.828C784.418 412.828 784.422 412.828 784.426 412.828C784.429 412.828 784.433 412.828 784.437 412.828C784.441 412.828 784.445 412.828 784.449 412.828C784.453 412.828 784.456 412.828 784.46 412.828C784.464 412.828 784.468 412.828 784.472 412.828C784.476 412.828 784.48 412.828 784.484 412.828C784.489 412.828 784.493 412.828 784.497 412.828C784.501 412.828 784.505 412.828 784.509 412.828C784.514 412.828 784.518 412.828 784.522 412.828C784.526 412.828 784.531 412.828 784.535 412.828C784.539 412.828 784.544 412.828 784.548 412.828C784.552 412.828 784.557 412.828 784.561 412.828C784.566 412.828 784.57 412.828 784.574 412.828C784.579 412.828 784.583 412.828 784.588 412.828C784.593 412.828 784.597 412.828 784.602 412.828C784.606 412.828 784.611 412.828 784.616 412.828C784.62 412.828 784.625 412.828 784.63 412.828C784.635 412.828 784.639 412.828 784.644 412.828C784.649 412.828 784.654 412.828 784.658 412.828C784.663 412.828 784.668 412.828 784.673 412.828C784.678 412.828 784.683 412.828 784.688 412.828C784.693 412.828 784.698 412.828 784.703 412.828C784.708 412.828 784.713 412.828 784.718 412.828C784.723 412.828 784.728 412.828 784.733 412.828C784.738 412.828 784.744 412.828 784.749 412.828C784.754 412.828 784.759 412.828 784.764 412.828C784.77 412.828 784.775 412.828 784.78 412.828C784.785 412.828 784.791 412.828 784.796 412.828C784.801 412.828 784.807 412.828 784.812 412.828C784.818 412.828 784.823 412.828 784.829 412.828C784.834 412.828 784.839 412.828 784.845 412.828C784.85 412.828 784.856 412.828 784.862 412.828C784.867 412.828 784.873 412.828 784.878 412.828C784.884 412.828 784.89 412.828 784.895 412.828C784.901 412.828 784.907 412.828 784.912 412.828C784.918 412.828 784.924 412.828 784.93 412.828C784.935 412.828 784.941 412.828 784.947 412.828C784.953 412.828 784.959 412.828 784.965 412.828C784.971 412.828 784.977 412.828 784.982 412.828C784.988 412.828 784.994 412.828 785 412.828C785.006 412.828 785.012 412.828 785.018 412.828C785.025 412.828 785.031 412.828 785.037 412.828C785.043 412.828 785.049 412.828 785.055 412.828C785.061 412.828 785.067 412.828 785.074 412.828C785.08 412.828 785.086 412.828 785.092 412.828C785.099 412.828 785.105 412.828 785.111 412.828C785.117 412.828 785.124 412.828 785.13 412.828C785.137 412.828 785.143 412.828 785.149 412.828C785.156 412.828 785.162 412.828 785.169 412.828C785.175 412.828 785.182 412.828 785.188 412.828C785.195 412.828 785.201 412.828 785.208 412.828C785.214 412.828 785.221 412.828 785.228 412.828C785.234 412.828 785.241 412.828 785.247 412.828C785.254 412.828 785.261 412.828 785.268 412.828C785.274 412.828 785.281 412.828 785.288 412.828C785.294 412.828 785.301 412.828 785.308 412.828C785.315 412.828 785.322 412.828 785.329 412.828C785.335 412.828 785.342 412.828 785.349 412.828C785.356 412.828 785.363 412.828 785.37 412.828C785.377 412.828 785.384 412.828 785.391 412.828C785.398 412.828 785.405 412.828 785.412 412.828C785.419 412.828 785.426 412.828 785.433 412.828C785.44 412.828 785.448 412.828 785.455 412.828C785.462 412.828 785.469 412.828 785.476 412.828C785.484 412.828 785.491 412.828 785.498 412.828C785.505 412.828 785.513 412.828 785.52 412.828C785.527 412.828 785.534 412.828 785.542 412.828C785.549 412.828 785.556 412.828 785.564 412.828C785.571 412.828 785.579 412.828 785.586 412.828C785.594 412.828 785.601 412.828 785.608 412.828C785.616 412.828 785.623 412.828 785.631 412.828C785.639 412.828 785.646 412.828 785.654 412.828C785.661 412.828 785.669 412.828 785.676 412.828C785.684 412.828 785.692 412.828 785.699 412.828C785.707 412.828 785.715 412.828 785.722 412.828C785.73 412.828 785.738 412.828 785.746 412.828C785.753 412.828 785.761 412.828 785.769 412.828C785.777 412.828 785.785 412.828 785.792 412.828C785.8 412.828 785.808 412.828 785.816 412.828C785.824 412.828 785.832 412.828 785.84 412.828C785.848 412.828 785.856 412.828 785.864 412.828C785.872 412.828 785.88 412.828 785.888 412.828C785.896 412.828 785.904 412.828 785.912 412.828C785.92 412.828 785.928 412.828 785.936 412.828C785.944 412.828 785.952 412.828 785.96 412.828C785.969 412.828 785.977 412.828 785.985 412.828C785.993 412.828 786.001 412.828 786.01 412.828C786.018 412.828 786.026 412.828 786.034 412.828C786.043 412.828 786.051 412.828 786.059 412.828C786.068 412.828 786.076 412.828 786.084 412.828C786.093 412.828 786.101 412.828 786.11 412.828C786.118 412.828 786.126 412.828 786.135 412.828C786.143 412.828 786.152 412.828 786.16 412.828C786.169 412.828 786.177 412.828 786.186 412.828C786.194 412.828 786.203 412.828 786.211 412.828C786.22 412.828 786.229 412.828 786.237 412.828C786.246 412.828 786.254 412.828 786.263 412.828C786.272 412.828 786.28 412.828 786.289 412.828C786.298 412.828 786.307 412.828 786.315 412.828C786.324 412.828 786.333 412.828 786.342 412.828C786.35 412.828 786.359 412.828 786.368 412.828C786.377 412.828 786.386 412.828 786.394 412.828C786.403 412.828 786.412 412.828 786.421 412.828C786.43 412.828 786.439 412.828 786.448 412.828C786.457 412.828 786.466 412.828 786.475 412.828C786.484 412.828 786.493 412.828 786.502 412.828C786.511 412.828 786.52 412.828 786.529 412.828C786.538 412.828 786.547 412.828 786.556 412.828C786.565 412.828 786.574 412.828 786.583 412.828C786.592 412.828 786.601 412.828 786.611 412.828C786.62 412.828 786.629 412.828 786.638 412.828C786.647 412.828 786.657 412.828 786.666 412.828C786.675 412.828 786.684 412.828 786.694 412.828C786.703 412.828 786.712 412.828 786.721 412.828C786.731 412.828 786.74 412.828 786.749 412.828C786.759 412.828 786.768 412.828 786.777 412.828C786.787 412.828 786.796 412.828 786.806 412.828C786.815 412.828 786.825 412.828 786.834 412.828C786.843 412.828 786.853 412.828 786.862 412.828C786.872 412.828 786.881 412.828 786.891 412.828C786.9 412.828 786.91 412.828 786.92 412.828C786.929 412.828 786.939 412.828 786.948 412.828C786.958 412.828 786.967 412.828 786.977 412.828C786.987 412.828 786.996 412.828 787.006 412.828C787.016 412.828 787.025 412.828 787.035 412.828C787.045 412.828 787.055 412.828 787.064 412.828C787.074 412.828 787.084 412.828 787.093 412.828C787.103 412.828 787.113 412.828 787.123 412.828C787.133 412.828 787.142 412.828 787.152 412.828C787.162 412.828 787.172 412.828 787.182 412.828C787.192 412.828 787.202 412.828 787.212 412.828C787.221 412.828 787.231 412.828 787.241 412.828C787.251 412.828 787.261 412.828 787.271 412.828C787.281 412.828 787.291 412.828 787.301 412.828C787.311 412.828 787.321 412.828 787.331 412.828C787.341 412.828 787.351 412.828 787.361 412.828C787.371 412.828 787.381 412.828 787.391 412.828C787.402 412.828 787.412 412.828 787.422 412.828C787.432 412.828 787.442 412.828 787.452 412.828C787.462 412.828 787.473 412.828 787.483 412.828C787.493 412.828 787.503 412.828 787.513 412.828C787.524 412.828 787.534 412.828 787.544 412.828C787.554 412.828 787.565 412.828 787.575 412.828C787.585 412.828 787.595 412.828 787.606 412.828C787.616 412.828 787.626 412.828 787.637 412.828C787.647 412.828 787.657 412.828 787.668 412.828C787.678 412.828 787.689 412.828 787.699 412.828C787.709 412.828 787.72 412.828 787.73 412.828C787.741 412.828 787.751 412.828 787.762 412.828C787.772 412.828 787.782 412.828 787.793 412.828C787.803 412.828 787.814 412.828 787.824 412.828C787.835 412.828 787.846 412.828 787.856 412.828C787.867 412.828 787.877 412.828 787.888 412.828C787.898 412.828 787.909 412.828 787.92 412.828C787.93 412.828 787.941 412.828 787.951 412.828C787.962 412.828 787.973 412.828 787.983 412.828C787.994 412.828 788.005 412.828 788.015 412.828C788.026 412.828 788.037 412.828 788.047 412.828C788.058 412.828 788.069 412.828 788.08 412.828C788.09 412.828 788.101 412.828 788.112 412.828C788.123 412.828 788.133 412.828 788.144 412.828C788.155 412.828 788.166 412.828 788.177 412.828C788.187 412.828 788.198 412.828 788.209 412.828C788.22 412.828 788.231 412.828 788.242 412.828C788.253 412.828 788.263 412.828 788.274 412.828C788.285 412.828 788.296 412.828 788.307 412.828C788.318 412.828 788.329 412.828 788.34 412.828C788.351 412.828 788.362 412.828 788.373 412.828C788.384 412.828 788.395 412.828 788.406 412.828C788.417 412.828 788.428 412.828 788.439 412.828C788.45 412.828 788.461 412.828 788.472 412.828C788.483 412.828 788.494 412.828 788.505 412.828C788.516 412.828 788.527 412.828 788.538 412.828C788.549 412.828 788.56 412.828 788.572 412.828C788.583 412.828 788.594 412.828 788.605 412.828C788.616 412.828 788.627 412.828 788.638 412.828C788.65 412.828 788.661 412.828 788.672 412.828C788.683 412.828 788.694 412.828 788.706 412.828C788.717 412.828 788.728 412.828 788.739 412.828C788.75 412.828 788.762 412.828 788.773 412.828C788.784 412.828 788.796 412.828 788.807 412.828C788.818 412.828 788.829 412.828 788.841 412.828C788.852 412.828 788.863 412.828 788.875 412.828C788.886 412.828 788.897 412.828 788.909 412.828C788.92 412.828 788.931 412.828 788.943 412.828C788.954 412.828 788.965 412.828 788.977 412.828C788.988 412.828 789 412.828 789.011 412.828C789.022 412.828 789.034 412.828 789.045 412.828C789.057 412.828 789.068 412.828 789.08 412.828C789.091 412.828 789.102 412.828 789.114 412.828C789.125 412.828 789.137 412.828 789.148 412.828C789.16 412.828 789.171 412.828 789.183 412.828C789.194 412.828 789.206 412.828 789.217 412.828C789.229 412.828 789.241 412.828 789.252 412.828C789.264 412.828 789.275 412.828 789.287 412.828C789.298 412.828 789.31 412.828 789.321 412.828C789.333 412.828 789.345 412.828 789.356 412.828C789.368 412.828 789.379 412.828 789.391 412.828C789.403 412.828 789.414 412.828 789.426 412.828C789.438 412.828 789.449 412.828 789.461 412.828C789.473 412.828 789.484 412.828 789.496 412.828C789.508 412.828 789.519 412.828 789.531 412.828C789.543 412.828 789.554 412.828 789.566 412.828C789.578 412.828 789.59 412.828 789.601 412.828C789.613 412.828 789.625 412.828 789.636 412.828C789.648 412.828 789.66 412.828 789.672 412.828C789.684 412.828 789.695 412.828 789.707 412.828C789.719 412.828 789.731 412.828 789.742 412.828C789.754 412.828 789.766 412.828 789.778 412.828C789.79 412.828 789.801 412.828 789.813 412.828C789.825 412.828 789.837 412.828 789.849 412.828C789.861 412.828 789.873 412.828 789.884 412.828C789.896 412.828 789.908 412.828 789.92 412.828C789.932 412.828 789.944 412.828 789.956 412.828C789.968 412.828 789.979 412.828 789.991 412.828C790.003 412.828 790.015 412.828 790.027 412.828C790.039 412.828 790.051 412.828 790.063 412.828C790.075 412.828 790.087 412.828 790.099 412.828C790.111 412.828 790.123 412.828 790.135 412.828C790.147 412.828 790.158 412.828 790.17 412.828C790.182 412.828 790.194 412.828 790.206 412.828C790.218 412.828 790.23 412.828 790.242 412.828C790.254 412.828 790.266 412.828 790.278 412.828C790.29 412.828 790.302 412.828 790.314 412.828C790.327 412.828 790.339 412.828 790.351 412.828C790.363 412.828 790.375 412.828 790.387 412.828C790.399 412.828 790.411 412.828 790.423 412.828C790.435 412.828 790.447 412.828 790.459 412.828C790.471 412.828 790.483 412.828 790.495 412.828C790.507 412.828 790.52 412.828 790.532 412.828C790.544 412.828 790.556 412.828 790.568 412.828C790.58 412.828 790.592 412.828 790.604 412.828C790.616 412.828 790.629 412.828 790.641 412.828C790.653 412.828 790.665 412.828 790.677 412.828C790.689 412.828 790.701 412.828 790.714 412.828C790.726 412.828 790.738 412.828 790.75 412.828C790.762 412.828 790.774 412.828 790.787 412.828C790.799 412.828 790.811 412.828 790.823 412.828C790.835 412.828 790.848 412.828 790.86 412.828C790.872 412.828 790.884 412.828 790.896 412.828C790.909 412.828 790.921 412.828 790.933 412.828C790.945 412.828 790.957 412.828 790.97 412.828C790.982 412.828 790.994 412.828 791.006 412.828C791.019 412.828 791.031 412.828 791.043 412.828C791.055 412.828 791.068 412.828 791.08 412.828C791.092 412.828 791.104 412.828 791.117 412.828C791.129 412.828 791.141 412.828 791.153 412.828C791.166 412.828 791.178 412.828 791.19 412.828C791.202 412.828 791.215 412.828 791.227 412.828C791.239 412.828 791.252 412.828 791.264 412.828C791.276 412.828 791.288 412.828 791.301 412.828C791.313 412.828 791.325 412.828 791.338 412.828C791.35 412.828 791.362 412.828 791.374 412.828C791.387 412.828 791.399 412.828 791.411 412.828C791.424 412.828 791.436 412.828 791.448 412.828C791.461 412.828 791.473 412.828 791.485 412.828C791.498 412.828 791.51 412.828 791.522 412.828C791.535 412.828 791.547 412.828 791.559 412.828C791.572 412.828 791.584 412.828 791.596 412.828C791.609 412.828 791.621 412.828 791.633 412.828C791.646 412.828 791.658 412.828 791.67 412.828C791.683 412.828 791.695 412.828 791.707 412.828C791.72 412.828 791.732 412.828 791.745 412.828C791.757 412.828 791.769 412.828 791.782 412.828C791.794 412.828 791.806 412.828 791.819 412.828C791.831 412.828 791.844 412.828 791.856 412.828C791.868 412.828 791.881 412.828 791.893 412.828C791.905 412.828 791.918 412.828 791.93 412.828C791.943 412.828 791.955 412.828 791.967 412.828C791.98 412.828 791.992 412.828 792.004 412.828C792.017 412.828 792.029 412.828 792.042 412.828C792.054 412.828 792.066 412.828 792.079 412.828C792.091 412.828 792.104 412.828 792.116 412.828C792.128 412.828 792.141 412.828 792.153 412.828C792.166 412.828 792.178 412.828 792.19 412.828C792.203 412.828 792.215 412.828 792.228 412.828C792.24 412.828 792.252 412.828 792.265 412.828C792.277 412.828 792.29 412.828 792.302 412.828C792.314 412.828 792.327 412.828 792.339 412.828C792.352 412.828 792.364 412.828 792.376 412.828C792.389 412.828 792.401 412.828 792.414 412.828C792.426 412.828 792.438 412.828 792.451 412.828C792.463 412.828 792.476 412.828 792.488 412.828C792.5 412.828 792.513 412.828 792.525 412.828C792.538 412.828 792.55 412.828 792.562 412.828C792.575 412.828 792.587 412.828 792.6 412.828C792.612 412.828 792.624 412.828 792.637 412.828C792.649 412.828 792.662 412.828 792.674 412.828C792.686 412.828 792.699 412.828 792.711 412.828C792.724 412.828 792.736 412.828 792.748 412.828C792.761 412.828 792.773 412.828 792.786 412.828C792.798 412.828 792.81 412.828 792.823 412.828C792.835 412.828 792.848 412.828 792.86 412.828C792.872 412.828 792.885 412.828 792.897 412.828C792.91 412.828 792.922 412.828 792.934 412.828C792.947 412.828 792.959 412.828 792.971 412.828C792.984 412.828 792.996 412.828 793.009 412.828C793.021 412.828 793.033 412.828 793.046 412.828C793.058 412.828 793.07 412.828 793.083 412.828C793.095 412.828 793.108 412.828 793.12 412.828C793.132 412.828 793.145 412.828 793.157 412.828C793.169 412.828 793.182 412.828 793.194 412.828C793.207 412.828 793.219 412.828 793.231 412.828C793.244 412.828 793.256 412.828 793.268 412.828C793.281 412.828 793.293 412.828 793.305 412.828C793.318 412.828 793.33 412.828 793.342 412.828C793.355 412.828 793.367 412.828 793.379 412.828C793.392 412.828 793.404 412.828 793.416 412.828C793.429 412.828 793.441 412.828 793.453 412.828C793.466 412.828 793.478 412.828 793.49 412.828C793.503 412.828 793.515 412.828 793.527 412.828C793.54 412.828 793.552 412.828 793.564 412.828C793.577 412.828 793.589 412.828 793.601 412.828C793.614 412.828 793.626 412.828 793.638 412.828C793.65 412.828 793.663 412.828 793.675 412.828C793.687 412.828 793.7 412.828 793.712 412.828C793.724 412.828 793.736 412.828 793.749 412.828C793.761 412.828 793.773 412.828 793.786 412.828C793.798 412.828 793.81 412.828 793.822 412.828C793.835 412.828 793.847 412.828 793.859 412.828C793.871 412.828 793.884 412.828 793.896 412.828C793.908 412.828 793.92 412.828 793.933 412.828C793.945 412.828 793.957 412.828 793.969 412.828C793.981 412.828 793.994 412.828 794.006 412.828C794.018 412.828 794.03 412.828 794.043 412.828C794.055 412.828 794.067 412.828 794.079 412.828C794.091 412.828 794.104 412.828 794.116 412.828C794.128 412.828 794.14 412.828 794.152 412.828C794.165 412.828 794.177 412.828 794.189 412.828C794.201 412.828 794.213 412.828 794.225 412.828C794.238 412.828 794.25 412.828 794.262 412.828C794.274 412.828 794.286 412.828 794.298 412.828C794.31 412.828 794.323 412.828 794.335 412.828C794.347 412.828 794.359 412.828 794.371 412.828C794.383 412.828 794.395 412.828 794.407 412.828C794.419 412.828 794.432 412.828 794.444 412.828C794.456 412.828 794.468 412.828 794.48 412.828C794.492 412.828 794.504 412.828 794.516 412.828C794.528 412.828 794.54 412.828 794.552 412.828C794.564 412.828 794.576 412.828 794.588 412.828C794.601 412.828 794.613 412.828 794.625 412.828C794.637 412.828 794.649 412.828 794.661 412.828C794.673 412.828 794.685 412.828 794.697 412.828C794.709 412.828 794.721 412.828 794.733 412.828C794.745 412.828 794.757 412.828 794.769 412.828C794.781 412.828 794.793 412.828 794.805 412.828C794.817 412.828 794.829 412.828 794.841 412.828C794.852 412.828 794.864 412.828 794.876 412.828C794.888 412.828 794.9 412.828 794.912 412.828C794.924 412.828 794.936 412.828 794.948 412.828C794.96 412.828 794.972 412.828 794.984 412.828C794.996 412.828 795.007 412.828 795.019 412.828C795.031 412.828 795.043 412.828 795.055 412.828C795.067 412.828 795.079 412.828 795.09 412.828C795.102 412.828 795.114 412.828 795.126 412.828C795.138 412.828 795.15 412.828 795.161 412.828C795.173 412.828 795.185 412.828 795.197 412.828C795.209 412.828 795.221 412.828 795.232 412.828C795.244 412.828 795.256 412.828 795.268 412.828C795.279 412.828 795.291 412.828 795.303 412.828C795.315 412.828 795.326 412.828 795.338 412.828C795.35 412.828 795.362 412.828 795.373 412.828C795.385 412.828 795.397 412.828 795.408 412.828C795.42 412.828 795.432 412.828 795.444 412.828C795.455 412.828 795.467 412.828 795.479 412.828C795.49 412.828 795.502 412.828 795.514 412.828C795.525 412.828 795.537 412.828 795.548 412.828C795.56 412.828 795.572 412.828 795.583 412.828C795.595 412.828 795.607 412.828 795.618 412.828C795.63 412.828 795.641 412.828 795.653 412.828C795.664 412.828 795.676 412.828 795.688 412.828C795.699 412.828 795.711 412.828 795.722 412.828C795.734 412.828 795.745 412.828 795.757 412.828C795.768 412.828 795.78 412.828 795.791 412.828C795.803 412.828 795.814 412.828 795.826 412.828C795.837 412.828 795.849 412.828 795.86 412.828C795.872 412.828 795.883 412.828 795.895 412.828C795.906 412.828 795.917 412.828 795.929 412.828C795.94 412.828 795.952 412.828 795.963 412.828C795.974 412.828 795.986 412.828 795.997 412.828C796.009 412.828 796.02 412.828 796.031 412.828C796.043 412.828 796.054 412.828 796.065 412.828C796.077 412.828 796.088 412.828 796.099 412.828C796.111 412.828 796.122 412.828 796.133 412.828C796.144 412.828 796.156 412.828 796.167 412.828C796.178 412.828 796.189 412.828 796.201 412.828C796.212 412.828 796.223 412.828 796.234 412.828C796.246 412.828 796.257 412.828 796.268 412.828C796.279 412.828 796.29 412.828 796.302 412.828C796.313 412.828 796.324 412.828 796.335 412.828C796.346 412.828 796.357 412.828 796.368 412.828C796.38 412.828 796.391 412.828 796.402 412.828C796.413 412.828 796.424 412.828 796.435 412.828C796.446 412.828 796.457 412.828 796.468 412.828C796.479 412.828 796.49 412.828 796.501 412.828C796.512 412.828 796.524 412.828 796.535 412.828C796.546 412.828 796.557 412.828 796.567 412.828C796.578 412.828 796.589 412.828 796.6 412.828C796.611 412.828 796.622 412.828 796.633 412.828C796.644 412.828 796.655 412.828 796.666 412.828C796.677 412.828 796.688 412.828 796.699 412.828C796.71 412.828 796.72 412.828 796.731 412.828C796.742 412.828 796.753 412.828 796.764 412.828C796.775 412.828 796.785 412.828 796.796 412.828C796.807 412.828 796.818 412.828 796.829 412.828C796.839 412.828 796.85 412.828 796.861 412.828C796.872 412.828 796.882 412.828 796.893 412.828C796.904 412.828 796.915 412.828 796.925 412.828C796.936 412.828 796.947 412.828 796.957 412.828C796.968 412.828 796.979 412.828 796.989 412.828C797 412.828 797.011 412.828 797.021 412.828C797.032 412.828 797.042 412.828 797.053 412.828C797.064 412.828 797.074 412.828 797.085 412.828C797.095 412.828 797.106 412.828 797.116 412.828C797.127 412.828 797.137 412.828 797.148 412.828C797.158 412.828 797.169 412.828 797.179 412.828C797.19 412.828 797.2 412.828 797.211 412.828C797.221 412.828 797.231 412.828 797.242 412.828C797.252 412.828 797.263 412.828 797.273 412.828C797.283 412.828 797.294 412.828 797.304 412.828C797.315 412.828 797.325 412.828 797.335 412.828C797.346 412.828 797.356 412.828 797.366 412.828C797.376 412.828 797.387 412.828 797.397 412.828C797.407 412.828 797.417 412.828 797.428 412.828C797.438 412.828 797.448 412.828 797.458 412.828C797.469 412.828 797.479 412.828 797.489 412.828C797.499 412.828 797.509 412.828 797.519 412.828C797.53 412.828 797.54 412.828 797.55 412.828C797.56 412.828 797.57 412.828 797.58 412.828C797.59 412.828 797.6 412.828 797.61 412.828C797.62 412.828 797.63 412.828 797.64 412.828C797.65 412.828 797.66 412.828 797.67 412.828C797.68 412.828 797.69 412.828 797.7 412.828C797.71 412.828 797.72 412.828 797.73 412.828C797.74 412.828 797.75 412.828 797.76 412.828C797.769 412.828 797.779 412.828 797.789 412.828C797.799 412.828 797.809 412.828 797.819 412.828C797.829 412.828 797.838 412.828 797.848 412.828C797.858 412.828 797.868 412.828 797.877 412.828C797.887 412.828 797.897 412.828 797.907 412.828C797.916 412.828 797.926 412.828 797.936 412.828C797.945 412.828 797.955 412.828 797.965 412.828C797.974 412.828 797.984 412.828 797.993 412.828C798.003 412.828 798.013 412.828 798.022 412.828C798.032 412.828 798.041 412.828 798.051 412.828C798.06 412.828 798.07 412.828 798.079 412.828C798.089 412.828 798.098 412.828 798.108 412.828C798.117 412.828 798.127 412.828 798.136 412.828C798.146 412.828 798.155 412.828 798.165 412.828C798.174 412.828 798.183 412.828 798.193 412.828C798.202 412.828 798.211 412.828 798.221 412.828C798.23 412.828 798.239 412.828 798.249 412.828C798.258 412.828 798.267 412.828 798.276 412.828C798.286 412.828 798.295 412.828 798.304 412.828C798.313 412.828 798.322 412.828 798.332 412.828C798.341 412.828 798.35 412.828 798.359 412.828C798.368 412.828 798.377 412.828 798.386 412.828V410.828C798.377 410.828 798.368 410.828 798.359 410.828C798.35 410.828 798.341 410.828 798.332 410.828C798.322 410.828 798.313 410.828 798.304 410.828C798.295 410.828 798.286 410.828 798.276 410.828C798.267 410.828 798.258 410.828 798.249 410.828C798.239 410.828 798.23 410.828 798.221 410.828C798.211 410.828 798.202 410.828 798.193 410.828C798.183 410.828 798.174 410.828 798.165 410.828C798.155 410.828 798.146 410.828 798.136 410.828C798.127 410.828 798.117 410.828 798.108 410.828C798.098 410.828 798.089 410.828 798.079 410.828C798.07 410.828 798.06 410.828 798.051 410.828C798.041 410.828 798.032 410.828 798.022 410.828C798.013 410.828 798.003 410.828 797.993 410.828C797.984 410.828 797.974 410.828 797.965 410.828C797.955 410.828 797.945 410.828 797.936 410.828C797.926 410.828 797.916 410.828 797.907 410.828C797.897 410.828 797.887 410.828 797.877 410.828C797.868 410.828 797.858 410.828 797.848 410.828C797.838 410.828 797.829 410.828 797.819 410.828C797.809 410.828 797.799 410.828 797.789 410.828C797.779 410.828 797.769 410.828 797.76 410.828C797.75 410.828 797.74 410.828 797.73 410.828C797.72 410.828 797.71 410.828 797.7 410.828C797.69 410.828 797.68 410.828 797.67 410.828C797.66 410.828 797.65 410.828 797.64 410.828C797.63 410.828 797.62 410.828 797.61 410.828C797.6 410.828 797.59 410.828 797.58 410.828C797.57 410.828 797.56 410.828 797.55 410.828C797.54 410.828 797.53 410.828 797.519 410.828C797.509 410.828 797.499 410.828 797.489 410.828C797.479 410.828 797.469 410.828 797.458 410.828C797.448 410.828 797.438 410.828 797.428 410.828C797.417 410.828 797.407 410.828 797.397 410.828C797.387 410.828 797.376 410.828 797.366 410.828C797.356 410.828 797.346 410.828 797.335 410.828C797.325 410.828 797.315 410.828 797.304 410.828C797.294 410.828 797.283 410.828 797.273 410.828C797.263 410.828 797.252 410.828 797.242 410.828C797.231 410.828 797.221 410.828 797.211 410.828C797.2 410.828 797.19 410.828 797.179 410.828C797.169 410.828 797.158 410.828 797.148 410.828C797.137 410.828 797.127 410.828 797.116 410.828C797.106 410.828 797.095 410.828 797.085 410.828C797.074 410.828 797.064 410.828 797.053 410.828C797.042 410.828 797.032 410.828 797.021 410.828C797.011 410.828 797 410.828 796.989 410.828C796.979 410.828 796.968 410.828 796.957 410.828C796.947 410.828 796.936 410.828 796.925 410.828C796.915 410.828 796.904 410.828 796.893 410.828C796.882 410.828 796.872 410.828 796.861 410.828C796.85 410.828 796.839 410.828 796.829 410.828C796.818 410.828 796.807 410.828 796.796 410.828C796.785 410.828 796.775 410.828 796.764 410.828C796.753 410.828 796.742 410.828 796.731 410.828C796.72 410.828 796.71 410.828 796.699 410.828C796.688 410.828 796.677 410.828 796.666 410.828C796.655 410.828 796.644 410.828 796.633 410.828C796.622 410.828 796.611 410.828 796.6 410.828C796.589 410.828 796.578 410.828 796.567 410.828C796.557 410.828 796.546 410.828 796.535 410.828C796.524 410.828 796.512 410.828 796.501 410.828C796.49 410.828 796.479 410.828 796.468 410.828C796.457 410.828 796.446 410.828 796.435 410.828C796.424 410.828 796.413 410.828 796.402 410.828C796.391 410.828 796.38 410.828 796.368 410.828C796.357 410.828 796.346 410.828 796.335 410.828C796.324 410.828 796.313 410.828 796.302 410.828C796.29 410.828 796.279 410.828 796.268 410.828C796.257 410.828 796.246 410.828 796.234 410.828C796.223 410.828 796.212 410.828 796.201 410.828C796.189 410.828 796.178 410.828 796.167 410.828C796.156 410.828 796.144 410.828 796.133 410.828C796.122 410.828 796.111 410.828 796.099 410.828C796.088 410.828 796.077 410.828 796.065 410.828C796.054 410.828 796.043 410.828 796.031 410.828C796.02 410.828 796.009 410.828 795.997 410.828C795.986 410.828 795.974 410.828 795.963 410.828C795.952 410.828 795.94 410.828 795.929 410.828C795.917 410.828 795.906 410.828 795.895 410.828C795.883 410.828 795.872 410.828 795.86 410.828C795.849 410.828 795.837 410.828 795.826 410.828C795.814 410.828 795.803 410.828 795.791 410.828C795.78 410.828 795.768 410.828 795.757 410.828C795.745 410.828 795.734 410.828 795.722 410.828C795.711 410.828 795.699 410.828 795.688 410.828C795.676 410.828 795.664 410.828 795.653 410.828C795.641 410.828 795.63 410.828 795.618 410.828C795.607 410.828 795.595 410.828 795.583 410.828C795.572 410.828 795.56 410.828 795.548 410.828C795.537 410.828 795.525 410.828 795.514 410.828C795.502 410.828 795.49 410.828 795.479 410.828C795.467 410.828 795.455 410.828 795.444 410.828C795.432 410.828 795.42 410.828 795.408 410.828C795.397 410.828 795.385 410.828 795.373 410.828C795.362 410.828 795.35 410.828 795.338 410.828C795.326 410.828 795.315 410.828 795.303 410.828C795.291 410.828 795.279 410.828 795.268 410.828C795.256 410.828 795.244 410.828 795.232 410.828C795.221 410.828 795.209 410.828 795.197 410.828C795.185 410.828 795.173 410.828 795.161 410.828C795.15 410.828 795.138 410.828 795.126 410.828C795.114 410.828 795.102 410.828 795.09 410.828C795.079 410.828 795.067 410.828 795.055 410.828C795.043 410.828 795.031 410.828 795.019 410.828C795.007 410.828 794.996 410.828 794.984 410.828C794.972 410.828 794.96 410.828 794.948 410.828C794.936 410.828 794.924 410.828 794.912 410.828C794.9 410.828 794.888 410.828 794.876 410.828C794.864 410.828 794.852 410.828 794.841 410.828C794.829 410.828 794.817 410.828 794.805 410.828C794.793 410.828 794.781 410.828 794.769 410.828C794.757 410.828 794.745 410.828 794.733 410.828C794.721 410.828 794.709 410.828 794.697 410.828C794.685 410.828 794.673 410.828 794.661 410.828C794.649 410.828 794.637 410.828 794.625 410.828C794.613 410.828 794.601 410.828 794.588 410.828C794.576 410.828 794.564 410.828 794.552 410.828C794.54 410.828 794.528 410.828 794.516 410.828C794.504 410.828 794.492 410.828 794.48 410.828C794.468 410.828 794.456 410.828 794.444 410.828C794.432 410.828 794.419 410.828 794.407 410.828C794.395 410.828 794.383 410.828 794.371 410.828C794.359 410.828 794.347 410.828 794.335 410.828C794.323 410.828 794.31 410.828 794.298 410.828C794.286 410.828 794.274 410.828 794.262 410.828C794.25 410.828 794.238 410.828 794.225 410.828C794.213 410.828 794.201 410.828 794.189 410.828C794.177 410.828 794.165 410.828 794.152 410.828C794.14 410.828 794.128 410.828 794.116 410.828C794.104 410.828 794.091 410.828 794.079 410.828C794.067 410.828 794.055 410.828 794.043 410.828C794.03 410.828 794.018 410.828 794.006 410.828C793.994 410.828 793.981 410.828 793.969 410.828C793.957 410.828 793.945 410.828 793.933 410.828C793.92 410.828 793.908 410.828 793.896 410.828C793.884 410.828 793.871 410.828 793.859 410.828C793.847 410.828 793.835 410.828 793.822 410.828C793.81 410.828 793.798 410.828 793.786 410.828C793.773 410.828 793.761 410.828 793.749 410.828C793.736 410.828 793.724 410.828 793.712 410.828C793.7 410.828 793.687 410.828 793.675 410.828C793.663 410.828 793.65 410.828 793.638 410.828C793.626 410.828 793.614 410.828 793.601 410.828C793.589 410.828 793.577 410.828 793.564 410.828C793.552 410.828 793.54 410.828 793.527 410.828C793.515 410.828 793.503 410.828 793.49 410.828C793.478 410.828 793.466 410.828 793.453 410.828C793.441 410.828 793.429 410.828 793.416 410.828C793.404 410.828 793.392 410.828 793.379 410.828C793.367 410.828 793.355 410.828 793.342 410.828C793.33 410.828 793.318 410.828 793.305 410.828C793.293 410.828 793.281 410.828 793.268 410.828C793.256 410.828 793.244 410.828 793.231 410.828C793.219 410.828 793.207 410.828 793.194 410.828C793.182 410.828 793.169 410.828 793.157 410.828C793.145 410.828 793.132 410.828 793.12 410.828C793.108 410.828 793.095 410.828 793.083 410.828C793.07 410.828 793.058 410.828 793.046 410.828C793.033 410.828 793.021 410.828 793.009 410.828C792.996 410.828 792.984 410.828 792.971 410.828C792.959 410.828 792.947 410.828 792.934 410.828C792.922 410.828 792.91 410.828 792.897 410.828C792.885 410.828 792.872 410.828 792.86 410.828C792.848 410.828 792.835 410.828 792.823 410.828C792.81 410.828 792.798 410.828 792.786 410.828C792.773 410.828 792.761 410.828 792.748 410.828C792.736 410.828 792.724 410.828 792.711 410.828C792.699 410.828 792.686 410.828 792.674 410.828C792.662 410.828 792.649 410.828 792.637 410.828C792.624 410.828 792.612 410.828 792.6 410.828C792.587 410.828 792.575 410.828 792.562 410.828C792.55 410.828 792.538 410.828 792.525 410.828C792.513 410.828 792.5 410.828 792.488 410.828C792.476 410.828 792.463 410.828 792.451 410.828C792.438 410.828 792.426 410.828 792.414 410.828C792.401 410.828 792.389 410.828 792.376 410.828C792.364 410.828 792.352 410.828 792.339 410.828C792.327 410.828 792.314 410.828 792.302 410.828C792.29 410.828 792.277 410.828 792.265 410.828C792.252 410.828 792.24 410.828 792.228 410.828C792.215 410.828 792.203 410.828 792.19 410.828C792.178 410.828 792.166 410.828 792.153 410.828C792.141 410.828 792.128 410.828 792.116 410.828C792.104 410.828 792.091 410.828 792.079 410.828C792.066 410.828 792.054 410.828 792.042 410.828C792.029 410.828 792.017 410.828 792.004 410.828C791.992 410.828 791.98 410.828 791.967 410.828C791.955 410.828 791.943 410.828 791.93 410.828C791.918 410.828 791.905 410.828 791.893 410.828C791.881 410.828 791.868 410.828 791.856 410.828C791.844 410.828 791.831 410.828 791.819 410.828C791.806 410.828 791.794 410.828 791.782 410.828C791.769 410.828 791.757 410.828 791.745 410.828C791.732 410.828 791.72 410.828 791.707 410.828C791.695 410.828 791.683 410.828 791.67 410.828C791.658 410.828 791.646 410.828 791.633 410.828C791.621 410.828 791.609 410.828 791.596 410.828C791.584 410.828 791.572 410.828 791.559 410.828C791.547 410.828 791.535 410.828 791.522 410.828C791.51 410.828 791.498 410.828 791.485 410.828C791.473 410.828 791.461 410.828 791.448 410.828C791.436 410.828 791.424 410.828 791.411 410.828C791.399 410.828 791.387 410.828 791.374 410.828C791.362 410.828 791.35 410.828 791.338 410.828C791.325 410.828 791.313 410.828 791.301 410.828C791.288 410.828 791.276 410.828 791.264 410.828C791.252 410.828 791.239 410.828 791.227 410.828C791.215 410.828 791.202 410.828 791.19 410.828C791.178 410.828 791.166 410.828 791.153 410.828C791.141 410.828 791.129 410.828 791.117 410.828C791.104 410.828 791.092 410.828 791.08 410.828C791.068 410.828 791.055 410.828 791.043 410.828C791.031 410.828 791.019 410.828 791.006 410.828C790.994 410.828 790.982 410.828 790.97 410.828C790.957 410.828 790.945 410.828 790.933 410.828C790.921 410.828 790.909 410.828 790.896 410.828C790.884 410.828 790.872 410.828 790.86 410.828C790.848 410.828 790.835 410.828 790.823 410.828C790.811 410.828 790.799 410.828 790.787 410.828C790.774 410.828 790.762 410.828 790.75 410.828C790.738 410.828 790.726 410.828 790.714 410.828C790.701 410.828 790.689 410.828 790.677 410.828C790.665 410.828 790.653 410.828 790.641 410.828C790.629 410.828 790.616 410.828 790.604 410.828C790.592 410.828 790.58 410.828 790.568 410.828C790.556 410.828 790.544 410.828 790.532 410.828C790.52 410.828 790.507 410.828 790.495 410.828C790.483 410.828 790.471 410.828 790.459 410.828C790.447 410.828 790.435 410.828 790.423 410.828C790.411 410.828 790.399 410.828 790.387 410.828C790.375 410.828 790.363 410.828 790.351 410.828C790.339 410.828 790.327 410.828 790.314 410.828C790.302 410.828 790.29 410.828 790.278 410.828C790.266 410.828 790.254 410.828 790.242 410.828C790.23 410.828 790.218 410.828 790.206 410.828C790.194 410.828 790.182 410.828 790.17 410.828C790.158 410.828 790.147 410.828 790.135 410.828C790.123 410.828 790.111 410.828 790.099 410.828C790.087 410.828 790.075 410.828 790.063 410.828C790.051 410.828 790.039 410.828 790.027 410.828C790.015 410.828 790.003 410.828 789.991 410.828C789.979 410.828 789.968 410.828 789.956 410.828C789.944 410.828 789.932 410.828 789.92 410.828C789.908 410.828 789.896 410.828 789.884 410.828C789.873 410.828 789.861 410.828 789.849 410.828C789.837 410.828 789.825 410.828 789.813 410.828C789.801 410.828 789.79 410.828 789.778 410.828C789.766 410.828 789.754 410.828 789.742 410.828C789.731 410.828 789.719 410.828 789.707 410.828C789.695 410.828 789.684 410.828 789.672 410.828C789.66 410.828 789.648 410.828 789.636 410.828C789.625 410.828 789.613 410.828 789.601 410.828C789.59 410.828 789.578 410.828 789.566 410.828C789.554 410.828 789.543 410.828 789.531 410.828C789.519 410.828 789.508 410.828 789.496 410.828C789.484 410.828 789.473 410.828 789.461 410.828C789.449 410.828 789.438 410.828 789.426 410.828C789.414 410.828 789.403 410.828 789.391 410.828C789.379 410.828 789.368 410.828 789.356 410.828C789.345 410.828 789.333 410.828 789.321 410.828C789.31 410.828 789.298 410.828 789.287 410.828C789.275 410.828 789.264 410.828 789.252 410.828C789.241 410.828 789.229 410.828 789.217 410.828C789.206 410.828 789.194 410.828 789.183 410.828C789.171 410.828 789.16 410.828 789.148 410.828C789.137 410.828 789.125 410.828 789.114 410.828C789.102 410.828 789.091 410.828 789.08 410.828C789.068 410.828 789.057 410.828 789.045 410.828C789.034 410.828 789.022 410.828 789.011 410.828C789 410.828 788.988 410.828 788.977 410.828C788.965 410.828 788.954 410.828 788.943 410.828C788.931 410.828 788.92 410.828 788.909 410.828C788.897 410.828 788.886 410.828 788.875 410.828C788.863 410.828 788.852 410.828 788.841 410.828C788.829 410.828 788.818 410.828 788.807 410.828C788.796 410.828 788.784 410.828 788.773 410.828C788.762 410.828 788.75 410.828 788.739 410.828C788.728 410.828 788.717 410.828 788.706 410.828C788.694 410.828 788.683 410.828 788.672 410.828C788.661 410.828 788.65 410.828 788.638 410.828C788.627 410.828 788.616 410.828 788.605 410.828C788.594 410.828 788.583 410.828 788.572 410.828C788.56 410.828 788.549 410.828 788.538 410.828C788.527 410.828 788.516 410.828 788.505 410.828C788.494 410.828 788.483 410.828 788.472 410.828C788.461 410.828 788.45 410.828 788.439 410.828C788.428 410.828 788.417 410.828 788.406 410.828C788.395 410.828 788.384 410.828 788.373 410.828C788.362 410.828 788.351 410.828 788.34 410.828C788.329 410.828 788.318 410.828 788.307 410.828C788.296 410.828 788.285 410.828 788.274 410.828C788.263 410.828 788.253 410.828 788.242 410.828C788.231 410.828 788.22 410.828 788.209 410.828C788.198 410.828 788.187 410.828 788.177 410.828C788.166 410.828 788.155 410.828 788.144 410.828C788.133 410.828 788.123 410.828 788.112 410.828C788.101 410.828 788.09 410.828 788.08 410.828C788.069 410.828 788.058 410.828 788.047 410.828C788.037 410.828 788.026 410.828 788.015 410.828C788.005 410.828 787.994 410.828 787.983 410.828C787.973 410.828 787.962 410.828 787.951 410.828C787.941 410.828 787.93 410.828 787.92 410.828C787.909 410.828 787.898 410.828 787.888 410.828C787.877 410.828 787.867 410.828 787.856 410.828C787.846 410.828 787.835 410.828 787.824 410.828C787.814 410.828 787.803 410.828 787.793 410.828C787.782 410.828 787.772 410.828 787.762 410.828C787.751 410.828 787.741 410.828 787.73 410.828C787.72 410.828 787.709 410.828 787.699 410.828C787.689 410.828 787.678 410.828 787.668 410.828C787.657 410.828 787.647 410.828 787.637 410.828C787.626 410.828 787.616 410.828 787.606 410.828C787.595 410.828 787.585 410.828 787.575 410.828C787.565 410.828 787.554 410.828 787.544 410.828C787.534 410.828 787.524 410.828 787.513 410.828C787.503 410.828 787.493 410.828 787.483 410.828C787.473 410.828 787.462 410.828 787.452 410.828C787.442 410.828 787.432 410.828 787.422 410.828C787.412 410.828 787.402 410.828 787.391 410.828C787.381 410.828 787.371 410.828 787.361 410.828C787.351 410.828 787.341 410.828 787.331 410.828C787.321 410.828 787.311 410.828 787.301 410.828C787.291 410.828 787.281 410.828 787.271 410.828C787.261 410.828 787.251 410.828 787.241 410.828C787.231 410.828 787.221 410.828 787.212 410.828C787.202 410.828 787.192 410.828 787.182 410.828C787.172 410.828 787.162 410.828 787.152 410.828C787.142 410.828 787.133 410.828 787.123 410.828C787.113 410.828 787.103 410.828 787.093 410.828C787.084 410.828 787.074 410.828 787.064 410.828C787.055 410.828 787.045 410.828 787.035 410.828C787.025 410.828 787.016 410.828 787.006 410.828C786.996 410.828 786.987 410.828 786.977 410.828C786.967 410.828 786.958 410.828 786.948 410.828C786.939 410.828 786.929 410.828 786.92 410.828C786.91 410.828 786.9 410.828 786.891 410.828C786.881 410.828 786.872 410.828 786.862 410.828C786.853 410.828 786.843 410.828 786.834 410.828C786.825 410.828 786.815 410.828 786.806 410.828C786.796 410.828 786.787 410.828 786.777 410.828C786.768 410.828 786.759 410.828 786.749 410.828C786.74 410.828 786.731 410.828 786.721 410.828C786.712 410.828 786.703 410.828 786.694 410.828C786.684 410.828 786.675 410.828 786.666 410.828C786.657 410.828 786.647 410.828 786.638 410.828C786.629 410.828 786.62 410.828 786.611 410.828C786.601 410.828 786.592 410.828 786.583 410.828C786.574 410.828 786.565 410.828 786.556 410.828C786.547 410.828 786.538 410.828 786.529 410.828C786.52 410.828 786.511 410.828 786.502 410.828C786.493 410.828 786.484 410.828 786.475 410.828C786.466 410.828 786.457 410.828 786.448 410.828C786.439 410.828 786.43 410.828 786.421 410.828C786.412 410.828 786.403 410.828 786.394 410.828C786.386 410.828 786.377 410.828 786.368 410.828C786.359 410.828 786.35 410.828 786.342 410.828C786.333 410.828 786.324 410.828 786.315 410.828C786.307 410.828 786.298 410.828 786.289 410.828C786.28 410.828 786.272 410.828 786.263 410.828C786.254 410.828 786.246 410.828 786.237 410.828C786.229 410.828 786.22 410.828 786.211 410.828C786.203 410.828 786.194 410.828 786.186 410.828C786.177 410.828 786.169 410.828 786.16 410.828C786.152 410.828 786.143 410.828 786.135 410.828C786.126 410.828 786.118 410.828 786.11 410.828C786.101 410.828 786.093 410.828 786.084 410.828C786.076 410.828 786.068 410.828 786.059 410.828C786.051 410.828 786.043 410.828 786.034 410.828C786.026 410.828 786.018 410.828 786.01 410.828C786.001 410.828 785.993 410.828 785.985 410.828C785.977 410.828 785.969 410.828 785.96 410.828C785.952 410.828 785.944 410.828 785.936 410.828C785.928 410.828 785.92 410.828 785.912 410.828C785.904 410.828 785.896 410.828 785.888 410.828C785.88 410.828 785.872 410.828 785.864 410.828C785.856 410.828 785.848 410.828 785.84 410.828C785.832 410.828 785.824 410.828 785.816 410.828C785.808 410.828 785.8 410.828 785.792 410.828C785.785 410.828 785.777 410.828 785.769 410.828C785.761 410.828 785.753 410.828 785.746 410.828C785.738 410.828 785.73 410.828 785.722 410.828C785.715 410.828 785.707 410.828 785.699 410.828C785.692 410.828 785.684 410.828 785.676 410.828C785.669 410.828 785.661 410.828 785.654 410.828C785.646 410.828 785.639 410.828 785.631 410.828C785.623 410.828 785.616 410.828 785.608 410.828C785.601 410.828 785.594 410.828 785.586 410.828C785.579 410.828 785.571 410.828 785.564 410.828C785.556 410.828 785.549 410.828 785.542 410.828C785.534 410.828 785.527 410.828 785.52 410.828C785.513 410.828 785.505 410.828 785.498 410.828C785.491 410.828 785.484 410.828 785.476 410.828C785.469 410.828 785.462 410.828 785.455 410.828C785.448 410.828 785.44 410.828 785.433 410.828C785.426 410.828 785.419 410.828 785.412 410.828C785.405 410.828 785.398 410.828 785.391 410.828C785.384 410.828 785.377 410.828 785.37 410.828C785.363 410.828 785.356 410.828 785.349 410.828C785.342 410.828 785.335 410.828 785.329 410.828C785.322 410.828 785.315 410.828 785.308 410.828C785.301 410.828 785.294 410.828 785.288 410.828C785.281 410.828 785.274 410.828 785.268 410.828C785.261 410.828 785.254 410.828 785.247 410.828C785.241 410.828 785.234 410.828 785.228 410.828C785.221 410.828 785.214 410.828 785.208 410.828C785.201 410.828 785.195 410.828 785.188 410.828C785.182 410.828 785.175 410.828 785.169 410.828C785.162 410.828 785.156 410.828 785.149 410.828C785.143 410.828 785.137 410.828 785.13 410.828C785.124 410.828 785.117 410.828 785.111 410.828C785.105 410.828 785.099 410.828 785.092 410.828C785.086 410.828 785.08 410.828 785.074 410.828C785.067 410.828 785.061 410.828 785.055 410.828C785.049 410.828 785.043 410.828 785.037 410.828C785.031 410.828 785.025 410.828 785.018 410.828C785.012 410.828 785.006 410.828 785 410.828C784.994 410.828 784.988 410.828 784.982 410.828C784.977 410.828 784.971 410.828 784.965 410.828C784.959 410.828 784.953 410.828 784.947 410.828C784.941 410.828 784.935 410.828 784.93 410.828C784.924 410.828 784.918 410.828 784.912 410.828C784.907 410.828 784.901 410.828 784.895 410.828C784.89 410.828 784.884 410.828 784.878 410.828C784.873 410.828 784.867 410.828 784.862 410.828C784.856 410.828 784.85 410.828 784.845 410.828C784.839 410.828 784.834 410.828 784.829 410.828C784.823 410.828 784.818 410.828 784.812 410.828C784.807 410.828 784.801 410.828 784.796 410.828C784.791 410.828 784.785 410.828 784.78 410.828C784.775 410.828 784.77 410.828 784.764 410.828C784.759 410.828 784.754 410.828 784.749 410.828C784.744 410.828 784.738 410.828 784.733 410.828C784.728 410.828 784.723 410.828 784.718 410.828C784.713 410.828 784.708 410.828 784.703 410.828C784.698 410.828 784.693 410.828 784.688 410.828C784.683 410.828 784.678 410.828 784.673 410.828C784.668 410.828 784.663 410.828 784.658 410.828C784.654 410.828 784.649 410.828 784.644 410.828C784.639 410.828 784.635 410.828 784.63 410.828C784.625 410.828 784.62 410.828 784.616 410.828C784.611 410.828 784.606 410.828 784.602 410.828C784.597 410.828 784.593 410.828 784.588 410.828C784.583 410.828 784.579 410.828 784.574 410.828C784.57 410.828 784.566 410.828 784.561 410.828C784.557 410.828 784.552 410.828 784.548 410.828C784.544 410.828 784.539 410.828 784.535 410.828C784.531 410.828 784.526 410.828 784.522 410.828C784.518 410.828 784.514 410.828 784.509 410.828C784.505 410.828 784.501 410.828 784.497 410.828C784.493 410.828 784.489 410.828 784.484 410.828C784.48 410.828 784.476 410.828 784.472 410.828C784.468 410.828 784.464 410.828 784.46 410.828C784.456 410.828 784.453 410.828 784.449 410.828C784.445 410.828 784.441 410.828 784.437 410.828C784.433 410.828 784.429 410.828 784.426 410.828C784.422 410.828 784.418 410.828 784.414 410.828C784.411 410.828 784.407 410.828 784.403 410.828C784.4 410.828 784.396 410.828 784.392 410.828C784.389 410.828 784.385 410.828 784.382 410.828C784.378 410.828 784.375 410.828 784.371 410.828C784.368 410.828 784.364 410.828 784.361 410.828C784.358 410.828 784.354 410.828 784.351 410.828C784.348 410.828 784.344 410.828 784.341 410.828C784.338 410.828 784.334 410.828 784.331 410.828C784.328 410.828 784.325 410.828 784.322 410.828C784.319 410.828 784.315 410.828 784.312 410.828C784.309 410.828 784.306 410.828 784.303 410.828C784.3 410.828 784.297 410.828 784.294 410.828C784.291 410.828 784.288 410.828 784.285 410.828C784.283 410.828 784.28 410.828 784.277 410.828C784.274 410.828 784.271 410.828 784.268 410.828C784.266 410.828 784.263 410.828 784.26 410.828C784.258 410.828 784.255 410.828 784.252 410.828C784.25 410.828 784.247 410.828 784.244 410.828C784.242 410.828 784.239 410.828 784.237 410.828C784.234 410.828 784.232 410.828 784.229 410.828C784.227 410.828 784.225 410.828 784.222 410.828C784.22 410.828 784.218 410.828 784.215 410.828C784.213 410.828 784.211 410.828 784.208 410.828C784.206 410.828 784.204 410.828 784.202 410.828C784.2 410.828 784.197 410.828 784.195 410.828C784.193 410.828 784.191 410.828 784.189 410.828C784.187 410.828 784.185 410.828 784.183 410.828C784.181 410.828 784.179 410.828 784.177 410.828C784.175 410.828 784.174 410.828 784.172 410.828C784.17 410.828 784.168 410.828 784.166 410.828C784.165 410.828 784.163 410.828 784.161 410.828C784.159 410.828 784.158 410.828 784.156 410.828C784.154 410.828 784.153 410.828 784.151 410.828C784.15 410.828 784.148 410.828 784.147 410.828C784.145 410.828 784.144 410.828 784.142 410.828C784.141 410.828 784.14 410.828 784.138 410.828C784.137 410.828 784.135 410.828 784.134 410.828C784.133 410.828 784.132 410.828 784.13 410.828C784.129 410.828 784.128 410.828 784.127 410.828C784.126 410.828 784.125 410.828 784.124 410.828C784.122 410.828 784.121 410.828 784.12 410.828C784.119 410.828 784.118 410.828 784.118 410.828C784.117 410.828 784.116 410.828 784.115 410.828C784.114 410.828 784.113 410.828 784.112 410.828C784.112 410.828 784.111 410.828 784.11 410.828C784.109 410.828 784.109 410.828 784.108 410.828C784.107 410.828 784.107 410.828 784.106 410.828C784.106 410.828 784.105 410.828 784.105 410.828C784.104 410.828 784.104 410.828 784.103 410.828C784.103 410.828 784.102 410.828 784.102 410.828C784.102 410.828 784.101 410.828 784.101 410.828C784.101 410.828 784.1 410.828 784.1 410.828C784.1 410.828 784.1 410.828 784.1 410.828C784.099 410.828 784.099 410.828 784.099 410.828C784.099 410.828 784.099 410.828 784.099 411.828Z" fill="#1E2225"/>
<circle cx="806.464" cy="406.776" r="9.83864" stroke="#1E2225" stroke-width="2"/>
<path d="M806.463 411.398V412.939" stroke="#1E2225" stroke-width="2" stroke-linecap="round"/>
<path d="M806.467 400.615V402.155" stroke="#1E2225" stroke-width="2" stroke-linecap="round"/>
<path d="M809.623 404.464C809.61 402.993 808.077 402.469 806.464 402.469C804.602 402.469 803.178 402.91 803.178 404.778C803.178 406.284 805.064 406.397 806.553 406.644C808.043 406.891 809.751 407.083 809.751 409.042C809.751 410.616 807.966 411.085 806.553 411.085C805.141 411.085 803.178 410.717 803.178 409.131" stroke="#1E2225" stroke-width="2" stroke-linecap="round" stroke-linejoin="round"/>
<path d="M768.984 472.383C768.7 470.031 766.921 468.679 764.564 468.679C761.874 468.679 759.821 470.578 759.821 473.909C759.821 477.23 761.84 479.139 764.564 479.139C767.174 479.139 768.75 477.404 768.984 475.53L766.806 475.52C766.602 476.609 765.747 477.235 764.599 477.235C763.053 477.235 762.004 476.087 762.004 473.909C762.004 471.791 763.038 470.583 764.614 470.583C765.792 470.583 766.642 471.264 766.806 472.383H768.984ZM775.385 475.749C775.39 476.773 774.689 477.31 773.928 477.31C773.128 477.31 772.611 476.748 772.606 475.848V471.364H770.488V476.226C770.493 478.011 771.537 479.099 773.073 479.099C774.221 479.099 775.047 478.508 775.39 477.613H775.469V479H777.503V471.364H775.385V475.749ZM785.55 473.541C785.362 472.134 784.228 471.264 782.299 471.264C780.345 471.264 779.058 472.169 779.062 473.641C779.058 474.784 779.778 475.525 781.27 475.823L782.592 476.087C783.259 476.221 783.562 476.464 783.572 476.847C783.562 477.3 783.07 477.623 782.329 477.623C781.573 477.623 781.071 477.3 780.942 476.678L778.859 476.788C779.058 478.249 780.3 479.149 782.324 479.149C784.303 479.149 785.719 478.14 785.724 476.634C785.719 475.53 784.999 474.869 783.517 474.565L782.135 474.287C781.424 474.133 781.161 473.889 781.165 473.521C781.161 473.064 781.678 472.766 782.334 472.766C783.07 472.766 783.507 473.168 783.612 473.661L785.55 473.541ZM791.12 471.364H789.683V469.534H787.565V471.364H786.521V472.955H787.565V476.932C787.555 478.428 788.574 479.169 790.111 479.104C790.657 479.085 791.045 478.975 791.259 478.906L790.926 477.33C790.822 477.349 790.598 477.399 790.399 477.399C789.976 477.399 789.683 477.24 789.683 476.653V472.955H791.12V471.364ZM795.868 479.149C798.184 479.149 799.626 477.563 799.626 475.212C799.626 472.845 798.184 471.264 795.868 471.264C793.551 471.264 792.109 472.845 792.109 475.212C792.109 477.563 793.551 479.149 795.868 479.149ZM795.878 477.509C794.809 477.509 794.262 476.529 794.262 475.197C794.262 473.864 794.809 472.88 795.878 472.88C796.927 472.88 797.474 473.864 797.474 475.197C797.474 476.529 796.927 477.509 795.878 477.509ZM801.003 479H803.121V474.416C803.121 473.571 803.658 473.009 804.364 473.009C805.06 473.009 805.528 473.487 805.528 474.237V479H807.581V474.337C807.581 473.546 808.033 473.009 808.804 473.009C809.48 473.009 809.987 473.432 809.987 474.282V479H812.1V473.864C812.1 472.209 811.116 471.264 809.694 471.264C808.575 471.264 807.705 471.836 807.392 472.711H807.312C807.069 471.826 806.288 471.264 805.239 471.264C804.21 471.264 803.43 471.811 803.111 472.711H803.022V471.364H801.003V479ZM817.253 479.149C819.142 479.149 820.415 478.229 820.713 476.812L818.754 476.683C818.541 477.265 817.994 477.568 817.288 477.568C816.229 477.568 815.558 476.867 815.558 475.729V475.724H820.758V475.142C820.758 472.547 819.187 471.264 817.169 471.264C814.921 471.264 813.465 472.86 813.465 475.217C813.465 477.638 814.901 479.149 817.253 479.149ZM815.558 474.411C815.602 473.541 816.264 472.845 817.203 472.845C818.123 472.845 818.759 473.501 818.764 474.411H815.558ZM822.14 479H824.258V474.68C824.258 473.74 824.944 473.094 825.879 473.094C826.172 473.094 826.575 473.143 826.774 473.208V471.329C826.585 471.284 826.321 471.254 826.107 471.254C825.252 471.254 824.551 471.751 824.273 472.696H824.193V471.364H822.14V479ZM834.222 473.541C834.033 472.134 832.9 471.264 830.971 471.264C829.017 471.264 827.729 472.169 827.734 473.641C827.729 474.784 828.45 475.525 829.942 475.823L831.264 476.087C831.93 476.221 832.234 476.464 832.244 476.847C832.234 477.3 831.741 477.623 831.001 477.623C830.245 477.623 829.743 477.3 829.614 476.678L827.531 476.788C827.729 478.249 828.972 479.149 830.996 479.149C832.974 479.149 834.391 478.14 834.396 476.634C834.391 475.53 833.67 474.869 832.189 474.565L830.807 474.287C830.096 474.133 829.832 473.889 829.837 473.521C829.832 473.064 830.349 472.766 831.006 472.766C831.741 472.766 832.179 473.168 832.283 473.661L834.222 473.541Z" fill="#1E2225"/>
<circle cx="961" cy="401" r="45" fill="#F8C836"/>
<circle cx="961" cy="401" r="44.5" stroke="#1E2225" stroke-opacity="0.14"/>
<path d="M964.531 385.936C963.534 385.936 962.765 385.057 962.188 384.244C961.653 383.491 960.772 383 959.774 383C958.776 383 957.895 383.491 957.361 384.244C956.784 385.057 956.014 385.936 955.018 385.936H953.407V393.141C953.407 393.64 953.811 394.043 954.309 394.043H965.177C965.675 394.043 966.079 393.64 966.079 393.141V385.936H964.531Z" stroke="#1E2225" stroke-width="2" stroke-miterlimit="10" stroke-linecap="round" stroke-linejoin="round"/>
<path d="M961.074 389.227L958.413 389.227" stroke="#1E2225" stroke-width="2" stroke-linecap="round" stroke-linejoin="round"/>
<path d="M980.425 406.444C980.425 411.38 976.424 415.381 971.487 415.381C966.551 415.381 962.55 411.38 962.55 406.444C962.55 401.507 966.551 397.506 971.487 397.506C976.424 397.506 980.425 401.507 980.425 406.444Z" stroke="#1E2225" stroke-width="2"/>
<path fill-rule="evenodd" clip-rule="evenodd" d="M972.489 389.699C972.489 388.15 971.234 386.895 969.685 386.895H965.837V388.895L969.685 388.895C970.129 388.895 970.489 389.255 970.489 389.699V397.559C970.817 397.523 971.15 397.504 971.488 397.504C971.826 397.504 972.161 397.523 972.489 397.559V389.699ZM972.489 415.324C972.161 415.36 971.826 415.379 971.488 415.379C970.005 415.379 968.606 415.018 967.375 414.379H949.804C949.36 414.379 949 414.019 949 413.575L949 389.699C949 389.255 949.36 388.895 949.804 388.895H953.503V386.895H949.804C948.256 386.895 947 388.15 947 389.699V413.575C947 415.123 948.256 416.379 949.804 416.379H971.489H972.489V415.379V415.324Z" fill="#1E2225"/>
<path d="M971.488 410.637V412.036" stroke="#1E2225" stroke-width="2" stroke-linecap="round"/>
<path d="M971.49 400.844V402.243" stroke="#1E2225" stroke-width="2" stroke-linecap="round"/>
<path d="M974.359 404.342C974.347 403.005 972.955 402.529 971.49 402.529C969.797 402.529 968.504 402.93 968.504 404.627C968.504 405.996 970.217 406.098 971.57 406.322C972.923 406.546 974.475 406.721 974.475 408.501C974.475 409.93 972.854 410.357 971.57 410.357C970.287 410.357 968.504 410.022 968.504 408.581" stroke="#1E2225" stroke-width="2" stroke-linecap="round" stroke-linejoin="round"/>
<path d="M934.849 468.818H932.458L935.973 479H938.747L942.257 468.818H939.871L937.405 476.554H937.31L934.849 468.818ZM946.048 479.149C947.937 479.149 949.21 478.229 949.508 476.812L947.549 476.683C947.336 477.265 946.789 477.568 946.083 477.568C945.024 477.568 944.353 476.867 944.353 475.729V475.724H949.553V475.142C949.553 472.547 947.982 471.264 945.963 471.264C943.716 471.264 942.26 472.86 942.26 475.217C942.26 477.638 943.696 479.149 946.048 479.149ZM944.353 474.411C944.397 473.541 945.059 472.845 945.998 472.845C946.918 472.845 947.554 473.501 947.559 474.411H944.353ZM953.053 474.585C953.058 473.601 953.645 473.024 954.5 473.024C955.35 473.024 955.862 473.581 955.857 474.516V479H957.975V474.138C957.975 472.358 956.931 471.264 955.34 471.264C954.206 471.264 953.386 471.821 953.043 472.711H952.953V471.364H950.935V479H953.053V474.585ZM962.458 479.124C963.691 479.124 964.332 478.413 964.626 477.777H964.715V479H966.803V468.818H964.69V472.646H964.626C964.342 472.025 963.731 471.264 962.453 471.264C960.778 471.264 959.361 472.567 959.361 475.192C959.361 477.747 960.718 479.124 962.458 479.124ZM963.129 477.439C962.09 477.439 961.523 476.514 961.523 475.182C961.523 473.859 962.08 472.95 963.129 472.95C964.158 472.95 964.735 473.82 964.735 475.182C964.735 476.544 964.148 477.439 963.129 477.439ZM971.995 479.149C974.311 479.149 975.753 477.563 975.753 475.212C975.753 472.845 974.311 471.264 971.995 471.264C969.678 471.264 968.236 472.845 968.236 475.212C968.236 477.563 969.678 479.149 971.995 479.149ZM972.005 477.509C970.936 477.509 970.389 476.529 970.389 475.197C970.389 473.864 970.936 472.88 972.005 472.88C973.054 472.88 973.6 473.864 973.6 475.197C973.6 476.529 973.054 477.509 972.005 477.509ZM977.13 479H979.248V474.68C979.248 473.74 979.934 473.094 980.869 473.094C981.162 473.094 981.565 473.143 981.764 473.208V471.329C981.575 471.284 981.311 471.254 981.098 471.254C980.243 471.254 979.542 471.751 979.263 472.696H979.184V471.364H977.13V479ZM989.213 473.541C989.024 472.134 987.89 471.264 985.961 471.264C984.007 471.264 982.72 472.169 982.725 473.641C982.72 474.784 983.441 475.525 984.932 475.823L986.254 476.087C986.921 476.221 987.224 476.464 987.234 476.847C987.224 477.3 986.732 477.623 985.991 477.623C985.235 477.623 984.733 477.3 984.604 476.678L982.521 476.788C982.72 478.249 983.963 479.149 985.986 479.149C987.965 479.149 989.382 478.14 989.387 476.634C989.382 475.53 988.661 474.869 987.179 474.565L985.797 474.287C985.086 474.133 984.823 473.889 984.828 473.521C984.823 473.064 985.34 472.766 985.996 472.766C986.732 472.766 987.169 473.168 987.274 473.661L989.213 473.541Z" fill="#1E2225"/>
<circle cx="1125" cy="401" r="45" fill="#F8C836"/>
<circle cx="1125" cy="401" r="44.5" stroke="#1E2225" stroke-opacity="0.14"/>
<path d="M1131.39 394.926H1136.7C1137.66 394.926 1138.45 395.788 1138.45 396.843C1138.45 396.843 1138.45 398.236 1138.45 399.386H1142.81C1143.77 399.386 1144.56 400.249 1144.56 401.303V406.574" stroke="#1E2225" stroke-width="2" stroke-miterlimit="10" stroke-linecap="round" stroke-linejoin="round"/>
<path d="M1112.46 387H1129.45C1130.41 387 1131.21 387.822 1131.21 388.827V394.911" stroke="#1E2225" stroke-width="2" stroke-miterlimit="10" stroke-linecap="round" stroke-linejoin="round"/>
<path d="M1126.98 400.207H1131.91C1132.87 400.207 1133.66 401.07 1133.66 402.124C1133.66 402.124 1133.66 403.517 1133.66 404.667H1138.02C1138.98 404.667 1139.77 405.53 1139.77 406.584V411.855C1139.77 412.718 1139.16 413.293 1138.46 413.293H1137.48" stroke="#1E2225" stroke-width="2" stroke-miterlimit="10" stroke-linecap="round" stroke-linejoin="round"/>
<path d="M1126.42 412.911V393.77C1126.42 392.879 1125.62 392.15 1124.66 392.15H1109.39C1108.07 392.15 1107 393.222 1107 394.544V410.168C1107 411.863 1108.37 413.236 1110.07 413.236H1111.25" stroke="#1E2225" stroke-width="2" stroke-miterlimit="10" stroke-linecap="round" stroke-linejoin="round"/>
<path d="M1134.65 415.504C1136.22 415.504 1137.42 414.306 1137.42 412.739C1137.42 411.173 1136.22 409.975 1134.65 409.975C1133.09 409.975 1131.89 411.173 1131.89 412.739C1131.89 414.306 1133.09 415.504 1134.65 415.504Z" stroke="#1E2225" stroke-width="2" stroke-miterlimit="10" stroke-linecap="round" stroke-linejoin="round"/>
<path d="M1114.11 415.504C1115.68 415.504 1116.88 414.306 1116.88 412.739C1116.88 411.173 1115.68 409.975 1114.11 409.975C1112.55 409.975 1111.35 411.173 1111.35 412.739C1111.35 414.306 1112.55 415.504 1114.11 415.504Z" stroke="#1E2225" stroke-width="2" stroke-miterlimit="10" stroke-linecap="round" stroke-linejoin="round"/>
<path d="M1116.84 412.293C1116.29 412.293 1115.84 412.741 1115.84 413.293C1115.84 413.845 1116.29 414.293 1116.84 414.293V412.293ZM1131.62 412.293H1116.84V414.293H1131.62V412.293Z" fill="#1E2225"/>
<path d="M1106.93 472.383C1106.65 470.031 1104.87 468.679 1102.51 468.679C1099.82 468.679 1097.77 470.578 1097.77 473.909C1097.77 477.23 1099.79 479.139 1102.51 479.139C1105.12 479.139 1106.7 477.404 1106.93 475.53L1104.75 475.52C1104.55 476.609 1103.69 477.235 1102.55 477.235C1101 477.235 1099.95 476.087 1099.95 473.909C1099.95 471.791 1100.98 470.583 1102.56 470.583C1103.74 470.583 1104.59 471.264 1104.75 472.383H1106.93ZM1110.61 479.144C1111.74 479.144 1112.47 478.652 1112.84 477.941H1112.9V479H1114.91V473.849C1114.91 472.03 1113.37 471.264 1111.67 471.264C1109.84 471.264 1108.64 472.139 1108.34 473.531L1110.3 473.69C1110.45 473.183 1110.9 472.81 1111.66 472.81C1112.38 472.81 1112.79 473.173 1112.79 473.8V473.83C1112.79 474.322 1112.27 474.386 1110.94 474.516C1109.43 474.655 1108.08 475.162 1108.08 476.867C1108.08 478.379 1109.15 479.144 1110.61 479.144ZM1111.22 477.683C1110.57 477.683 1110.1 477.379 1110.1 476.798C1110.1 476.201 1110.59 475.908 1111.34 475.803C1111.8 475.739 1112.56 475.629 1112.81 475.46V476.271C1112.81 477.071 1112.15 477.683 1111.22 477.683ZM1116.56 479H1118.67V474.68C1118.67 473.74 1119.36 473.094 1120.29 473.094C1120.59 473.094 1120.99 473.143 1121.19 473.208V471.329C1121 471.284 1120.74 471.254 1120.52 471.254C1119.67 471.254 1118.97 471.751 1118.69 472.696H1118.61V471.364H1116.56V479ZM1122.28 479H1124.4V474.68C1124.4 473.74 1125.09 473.094 1126.02 473.094C1126.32 473.094 1126.72 473.143 1126.92 473.208V471.329C1126.73 471.284 1126.46 471.254 1126.25 471.254C1125.4 471.254 1124.69 471.751 1124.42 472.696H1124.34V471.364H1122.28V479ZM1128.01 479H1130.13V471.364H1128.01V479ZM1129.08 470.379C1129.71 470.379 1130.22 469.897 1130.22 469.305C1130.22 468.719 1129.71 468.237 1129.08 468.237C1128.45 468.237 1127.93 468.719 1127.93 469.305C1127.93 469.897 1128.45 470.379 1129.08 470.379ZM1135.31 479.149C1137.2 479.149 1138.47 478.229 1138.77 476.812L1136.81 476.683C1136.59 477.265 1136.05 477.568 1135.34 477.568C1134.28 477.568 1133.61 476.867 1133.61 475.729V475.724H1138.81V475.142C1138.81 472.547 1137.24 471.264 1135.22 471.264C1132.98 471.264 1131.52 472.86 1131.52 475.217C1131.52 477.638 1132.96 479.149 1135.31 479.149ZM1133.61 474.411C1133.66 473.541 1134.32 472.845 1135.26 472.845C1136.18 472.845 1136.81 473.501 1136.82 474.411H1133.61ZM1140.19 479H1142.31V474.68C1142.31 473.74 1143 473.094 1143.93 473.094C1144.23 473.094 1144.63 473.143 1144.83 473.208V471.329C1144.64 471.284 1144.37 471.254 1144.16 471.254C1143.31 471.254 1142.61 471.751 1142.33 472.696H1142.25V471.364H1140.19V479ZM1152.28 473.541C1152.09 472.134 1150.95 471.264 1149.02 471.264C1147.07 471.264 1145.78 472.169 1145.79 473.641C1145.78 474.784 1146.5 475.525 1148 475.823L1149.32 476.087C1149.98 476.221 1150.29 476.464 1150.3 476.847C1150.29 477.3 1149.8 477.623 1149.05 477.623C1148.3 477.623 1147.8 477.3 1147.67 476.678L1145.58 476.788C1145.78 478.249 1147.03 479.149 1149.05 479.149C1151.03 479.149 1152.45 478.14 1152.45 476.634C1152.45 475.53 1151.72 474.869 1150.24 474.565L1148.86 474.287C1148.15 474.133 1147.89 473.889 1147.89 473.521C1147.89 473.064 1148.4 472.766 1149.06 472.766C1149.8 472.766 1150.23 473.168 1150.34 473.661L1152.28 473.541Z" fill="#1E2225"/>
</g>
<defs>
<clipPath id="clip0">
<rect width="1920" height="595" fill="white"/>
</clipPath>
</defs>
</svg>
