<svg width="240" height="94" viewBox="0 0 240 94" fill="none" xmlns="http://www.w3.org/2000/svg">
<path d="M0.000496114 34.0034C3.63326 34.0034 7.26602 34.0034 10.8983 34.0034C10.8988 34.246 10.8978 34.489 10.8993 34.7316C10.2733 34.7683 9.64437 34.8313 9.03527 34.986C8.69551 35.0778 8.35574 35.1993 8.07203 35.4126C7.83791 35.5901 7.68713 35.8535 7.57949 36.1219C7.35232 36.7399 7.32504 37.4075 7.32107 38.0593C7.32157 44.1775 7.32107 50.2953 7.32157 56.4135C7.32306 56.7826 7.35182 57.1744 7.55271 57.4953C7.71341 57.7443 8.01251 57.847 8.28878 57.9045C8.7466 57.9918 9.21384 58.0072 9.6781 58.0251C10.8016 58.0389 11.9265 58.0459 13.0495 58.0027C14.2637 57.9581 15.4804 57.8743 16.6743 57.6412C17.201 57.5315 17.7273 57.3946 18.2144 57.1615C18.8885 56.8337 19.4276 56.295 19.9068 55.73C20.6205 54.8496 21.1815 53.8561 21.677 52.8398C22.0049 52.8393 22.3327 52.8383 22.6606 52.8403C22.0406 55.0446 21.4171 57.2478 20.7986 59.4526C20.7911 59.5171 20.7554 59.5463 20.6919 59.5409C13.7955 59.5423 6.89847 59.5419 0.00198408 59.5414C0.0034721 59.2983 -0.00297608 59.0558 0.00694408 58.8132C0.689947 58.7383 1.37592 58.6451 2.03065 58.4298C2.3481 58.3182 2.6839 58.1848 2.89867 57.9125C3.11493 57.6183 3.21165 57.2567 3.27911 56.9031C3.38823 56.2816 3.39616 55.6487 3.39319 55.0198C3.39368 49.465 3.39319 43.9107 3.39319 38.3559C3.38972 37.6312 3.37484 36.8902 3.15213 36.1938C3.03209 35.8034 2.79252 35.4319 2.41258 35.2534C1.66758 34.8799 0.818412 34.8035 0 34.7325C0.00297605 34.4895 0.00248014 34.2465 0.000496114 34.0034Z" fill="#B5B5B5"/>
<path d="M18.4595 34.0029C21.8864 34.0029 25.3133 34.0029 28.7397 34.0029C28.7432 34.2276 28.7432 34.4523 28.7402 34.677C28.1445 34.6939 27.5429 34.6988 26.9571 34.8189C26.5226 34.9116 26.0851 35.176 25.9333 35.614C25.7523 36.1174 25.9145 36.6551 26.0722 37.1417C26.3877 38.0176 26.7746 38.8653 27.1471 39.7179C29.2462 44.3903 31.3363 49.0662 33.4399 53.7366C35.0365 49.4992 36.6312 45.2618 38.2274 41.0244C38.6252 39.9451 39.0616 38.8787 39.4064 37.7805C39.5552 37.2607 39.7114 36.7216 39.64 36.1755C39.5978 35.799 39.4153 35.4364 39.1197 35.1963C38.9059 35.0262 38.651 34.9101 38.3856 34.8486C37.8722 34.7256 37.343 34.6929 36.8172 34.6765C36.8177 34.4518 36.8172 34.2276 36.8177 34.0029C39.4461 34.0024 42.0744 34.0039 44.7022 34.0024C44.7052 34.2266 44.7037 34.4508 44.7042 34.6755C43.9617 34.7871 43.1621 34.9875 42.6483 35.5773C41.9935 36.3049 41.5913 37.2156 41.2232 38.1119C39.6737 42.0402 38.1366 45.9736 36.592 49.9039C35.2741 53.2689 33.9463 56.6303 32.6349 59.9977C32.4375 60.0012 32.2406 60.0002 32.0436 59.9992C30.4395 56.4245 28.8355 52.8497 27.2319 49.2745C25.5792 45.6006 23.9404 41.9202 22.2797 38.2502C21.8616 37.3763 21.4405 36.4914 20.8507 35.7181C20.2902 34.99 19.3354 34.7375 18.459 34.676C18.459 34.4513 18.459 34.2271 18.4595 34.0029Z" fill="#B5B5B5"/>
<path d="M46.2542 34.0024C48.7923 34.0034 51.3308 34.0039 53.8689 34.002C56.8276 40.4074 59.7798 46.8158 62.734 53.2232C65.6193 46.8173 68.4991 40.4084 71.3854 34.0024C73.9433 34.0044 76.5007 34.001 79.0586 34.0039C79.0601 34.2465 79.0596 34.4885 79.0591 34.7306C78.4014 34.7842 77.7373 34.8551 77.1073 35.0604C76.7666 35.176 76.4174 35.3327 76.1947 35.6274C75.9432 35.9661 75.8376 36.3858 75.7666 36.795C75.6555 37.4909 75.6659 38.1977 75.6684 38.9C75.6684 44.0917 75.6684 49.2839 75.6679 54.4762C75.6699 55.2509 75.6461 56.0316 75.7731 56.799C75.8395 57.1759 75.9348 57.5603 76.158 57.8778C76.3653 58.1729 76.71 58.3242 77.0384 58.4442C77.6892 58.6664 78.3771 58.7498 79.0586 58.8162C79.0601 59.0578 79.0591 59.2988 79.0596 59.5404C75.4532 59.5419 71.8472 59.5409 68.2407 59.5409C68.2397 59.2993 68.2402 59.0573 68.2402 58.8157C68.882 58.7607 69.5269 58.6858 70.1488 58.5107C70.5114 58.3956 70.8953 58.2642 71.1587 57.975C71.4648 57.606 71.5525 57.1169 71.6314 56.6576C71.7673 55.7221 71.7361 54.7738 71.7405 53.8313C71.7386 48.4164 71.7445 43.0015 71.7376 37.5866C68.4386 44.9017 65.1476 52.2208 61.8576 59.5404C61.6756 59.5414 61.493 59.5478 61.312 59.529C59.5259 55.6204 57.7144 51.7233 55.9199 47.8182C54.48 44.7068 53.0549 41.5889 51.6086 38.4804C51.6165 42.8036 51.6096 47.1268 51.6121 51.45C51.6235 52.7069 51.5768 53.9663 51.6641 55.2212C51.7162 55.8223 51.8025 56.425 51.992 56.9998C52.1284 57.3892 52.3114 57.7815 52.6289 58.0568C52.8769 58.2597 53.1794 58.3822 53.4815 58.4814C54.046 58.6625 54.6352 58.7413 55.2205 58.8217C55.2146 59.0612 55.218 59.3008 55.217 59.5409C52.2028 59.5414 49.1886 59.5414 46.1748 59.5409C46.1738 59.2988 46.1743 59.0573 46.1738 58.8157C46.837 58.7374 47.5036 58.6411 48.136 58.4184C48.5442 58.2701 48.9579 58.0712 49.2372 57.7265C49.5363 57.3341 49.6459 56.8391 49.7396 56.365C49.9484 55.1349 49.9073 53.8824 49.9132 52.6399C49.9132 48.1932 49.9132 43.746 49.9132 39.2993C49.9028 38.5538 49.943 37.8043 49.8502 37.0628C49.7867 36.5787 49.69 36.0782 49.4128 35.6666C49.1965 35.3461 48.8275 35.1795 48.4728 35.0614C47.7556 34.8352 46.9987 34.7787 46.2527 34.7321C46.2567 34.4885 46.2552 34.2455 46.2542 34.0024Z" fill="#B5B5B5"/>
<path d="M83.2578 34.0055C86.8266 33.9975 90.3954 34.0084 93.9636 34C93.975 34.2435 93.9686 34.4876 93.9691 34.7311C93.356 34.7817 92.7395 34.8477 92.1478 35.0218C91.8209 35.1279 91.4846 35.2509 91.2301 35.49C90.9563 35.7534 90.8219 36.1219 90.7366 36.4835C90.6077 37.0648 90.5789 37.663 90.5784 38.2572C90.5784 40.7412 90.5784 43.2252 90.5789 45.7092C94.4805 45.7083 98.3821 45.7092 102.284 45.7083C102.282 43.125 102.289 40.5413 102.28 37.9581C102.261 37.2856 102.223 36.5936 101.961 35.9647C101.833 35.6492 101.593 35.3814 101.283 35.239C100.541 34.8755 99.7014 34.8015 98.8905 34.7321C98.8939 34.4886 98.8925 34.2455 98.892 34.0025C102.462 34.004 106.033 34.002 109.604 34.0035C109.603 34.2455 109.602 34.4881 109.605 34.7301C108.771 34.808 107.903 34.8799 107.15 35.2782C106.758 35.4826 106.528 35.8903 106.418 36.3045C106.161 37.23 106.22 38.2002 106.212 39.15C106.212 44.5233 106.212 49.897 106.212 55.2703C106.213 55.8595 106.235 56.4528 106.361 57.0301C106.426 57.3307 106.53 57.6273 106.705 57.8823C106.917 58.1694 107.255 58.3247 107.582 58.4447C108.233 58.6669 108.921 58.7478 109.603 58.8157C109.603 59.0568 109.603 59.2984 109.604 59.5399C106.033 59.5429 102.463 59.5404 98.893 59.5409C98.892 59.2989 98.8925 59.0573 98.8925 58.8157C99.5154 58.7478 100.141 58.6674 100.746 58.4963C101.085 58.3862 101.444 58.2691 101.703 58.0112C101.978 57.7151 102.068 57.3059 102.143 56.9215C102.309 55.984 102.279 55.0277 102.284 54.0804C102.284 51.8563 102.286 49.6322 102.283 47.4081C98.3816 47.4066 94.48 47.4091 90.5784 47.4066C90.5784 50.0111 90.5784 52.6152 90.5784 55.2197C90.5784 55.87 90.6017 56.5272 90.7574 57.1611C90.8532 57.5162 90.996 57.8847 91.2951 58.1189C91.5525 58.3153 91.8606 58.4338 92.1691 58.5256C92.7559 58.6917 93.3645 58.7577 93.9696 58.8177C93.9696 59.0583 93.9701 59.2994 93.9696 59.5409C90.3998 59.5414 86.8296 59.5414 83.2598 59.5409C83.2583 59.2994 83.2588 59.0578 83.2593 58.8167C83.9185 58.7389 84.5817 58.6481 85.217 58.4482C85.5608 58.3316 85.9273 58.1908 86.1555 57.8937C86.4293 57.4939 86.5002 57.0009 86.5662 56.5316C86.6917 55.4717 86.6386 54.4018 86.6505 53.3368C86.6505 48.3277 86.6505 43.318 86.651 38.3083C86.6505 37.6982 86.6262 37.0832 86.4928 36.4855C86.406 36.1249 86.2755 35.7544 86.0027 35.4905C85.7374 35.242 85.3862 35.1155 85.0449 35.0099C84.4636 34.8432 83.859 34.7802 83.2583 34.7311C83.2593 34.4891 83.2598 34.2475 83.2578 34.0055Z" fill="#B5B5B5"/>
</svg>
