<svg height="76" viewBox="0 0 182 76" width="182" xmlns="http://www.w3.org/2000/svg"><g fill="none" fill-rule="evenodd"><path d="m-1267-13158h1920v19814h-1920z"/><g fill="#b5b5b5" fill-rule="nonzero"><path d="m13.197 25.577c-.564 1.133-.275 2.437.942 3.257 1.026.692 2.164.77 2.326.696-1.127-.878-1.84-2.47-.436-3.427.467-.318 1.075-.482 1.67-.484.596.002 1.203.166 1.67.484 1.405.958.692 2.549-.436 3.427.163.073 1.301-.003 2.327-.696 1.217-.82 1.506-2.124.942-3.257-.457-.917-1.348-1.658-2.488-2.051a5.17 5.17 0 0 0 -.587-.161c.354-.158.574-.375.574-.615 0-.483-.89-.874-1.99-.874-1.097 0-1.987.391-1.987.874 0 .238.217.453.566.61a5.23 5.23 0 0 0 -.605.166c-1.141.393-2.032 1.134-2.488 2.051zm9.189-1.47c.63-.186 1.304-.204 1.986.068.923.37 1.606 1.106 1.786 1.968.153.724-.08 1.375-.704 1.713-.642.348-1.181 1.013-.588 1.763.282.358.7.591 1.167.62.563.037.982-.24 1.32-.583.546-.554.775-1.291.758-2.067-.025-1.036-.649-2.053-1.649-2.82-1.26-.967-2.938-1.33-4.16-.74-.017.008.053.086.084.078zm-12.488 6.24a1.73 1.73 0 0 0 1.249-.664c.632-.8.057-1.511-.63-1.883-.665-.36-.915-1.056-.752-1.83.193-.92.923-1.708 1.909-2.102.726-.29 1.449-.271 2.121-.073.033.01.107-.075.09-.082-1.306-.631-3.1-.243-4.445.79-1.067.82-1.734 1.906-1.76 3.013-.02.827.225 1.616.808 2.207.36.366.81.662 1.41.624zm10.938 1.628c.216-.38.036-.957.036-.957-2.872 1.95-6.484 0-6.484 0-.326.36-.199.94-.199.94 1.113.445 2.106.651 2.965.717a.665.665 0 0 0 -.272.528c0 .38.33.687.739.687.408 0 .74-.308.74-.687a.663.663 0 0 0 -.25-.51c1.749-.075 2.725-.718 2.725-.718zm11.51 12.528c-.276-.732-.913-1.256-1.622-1.547-.611-.25-1.262-.254-1.916-.098-1.055.25-1.843.913-2.92 1.135-.362.076-.744-.035-.913-.385-.2-.415-.003-.836.354-1.072.91-.597 1.92-.655 2.877-1.038a3.822 3.822 0 0 0 2.037-1.984c.467-1.034.493-2.267-.081-3.34-.895-1.677-2.982-2.512-4.774-1.821-.727.28-1.315.761-1.835 1.337-.461.512-.757 1.106-1.022 1.716-.933-2.66-2.43-4.346-2.43-4.346 1.138 2.07 1.55 3.983 1.568 5.646a10.75 10.75 0 0 1 -.679 3.867 10.302 10.302 0 0 1 -1.134 2.215c-.12.062-.23.13-.33.202l-.075-.059.066.066c-.306.221-.512.484-.582.77a.915.915 0 0 0 -.03.218c0 .927 1.422 1.679 3.176 1.679s3.175-.752 3.175-1.68c0-.775-.995-1.426-2.346-1.619.57-2.253.38-4.334-.104-6.079.174-.414.381-.813.62-1.193a2.706 2.706 0 0 1 2.24-1.277 2.783 2.783 0 0 1 2.142.932c.352.396.557.859.64 1.379.075.468.02.948-.16 1.387-.033.08-.069.159-.109.238-.619 1.213-1.982 1.42-3.083 2.05-.616.351-.876 1.03-.748 1.705.1.524.479.905.932 1.12.513.245 1.075.261 1.642.148.696-.138 1.296-.394 1.983-.48 1.125-.143 2.27-.111 3.293.482.19.11.197-.147.148-.274zm-16.855-.32.019-.014s-1.286-1.141-1.949-3.244a8.346 8.346 0 0 1 -.38-2.215c-.058-1.603.317-3.53 1.535-5.744 0 0-2.155 2.122-2.8 5.6-.148-.312-.29-.627-.424-.946-.29-.684-.598-1.359-1.114-1.93-.519-.576-1.107-1.057-1.835-1.337-1.791-.691-3.878.144-4.774 1.82-.573 1.075-.547 2.307-.08 3.34a3.814 3.814 0 0 0 2.037 1.984c.957.384 1.968.442 2.876 1.039.358.235.554.657.354 1.072-.168.35-.55.46-.911.385-1.078-.222-1.867-.885-2.92-1.135-.656-.156-1.306-.153-1.918.098-.709.29-1.345.815-1.622 1.547-.047.127-.04.384.15.274 1.021-.593 2.166-.625 3.292-.483.687.087 1.287.343 1.982.48.568.114 1.13.098 1.643-.146.453-.216.833-.597.932-1.121.128-.676-.132-1.354-.748-1.706-1.102-.63-2.465-.836-3.083-2.05a3.33 3.33 0 0 1 -.11-.237 2.567 2.567 0 0 1 -.158-1.387c.082-.52.286-.983.638-1.379a2.782 2.782 0 0 1 2.141-.932 2.706 2.706 0 0 1 2.242 1.277c.495.782.798 1.593 1.074 2.42l.169.516c-.048 1.026.05 2.142.361 3.333-1.4.159-2.45.816-2.45 1.604 0 .906 1.39 1.64 3.104 1.64 1.231 0 2.292-.38 2.794-.93.196-.216.309-.456.309-.71a.962.962 0 0 0 -.153-.508 1.43 1.43 0 0 0 -.223-.275zm116.702-15.349c.86 0 1.658-.51 1.658-1.626 0-.892-.606-1.625-1.562-1.625-.924 0-1.721.638-1.721 1.69 0 .86.638 1.561 1.625 1.561zm-87.194 6.292c-.19.064-.19.542.033.638 1.306 0 2.995-.287 4.398-.957 1.37-.669 3.186-2.134 3.186-5.067 0-2.199-1.083-3.857-2.549-4.781-1.498-.924-3.474-1.275-6.12-1.275-2.645 0-4.62.033-6.31.255-.255.128-.287.606-.063.798l1.147.127c1.434.128 1.498.702 1.498 3.41v11.76c0 3.347-.064 3.73-1.912 3.985l-.67.094c-.191.192-.127.703.064.798a80.66 80.66 0 0 1 3.888-.095c1.275 0 2.327.03 4.143.095.192-.095.255-.637.064-.798l-.86-.094c-2.04-.223-2.104-.638-2.104-3.985v-14.214c0-1.02.032-1.148 1.721-1.148 3.315 0 5.13 2.009 5.13 5.1 0 2.773-1.241 4.717-4.684 5.354z"/><path d="m60.415 41.915c-.989 1.243-1.881 1.561-2.933 1.561-3.41 0-5.29-2.74-5.29-5.96 0-.795.032-.86.86-.86h5.896c1.34 0 1.785-.031 1.881-.222.063-.128.127-.383.127-.83 0-1.912-1.785-3.792-4.526-3.792-3.824 0-6.405 3.282-6.405 7.202 0 1.403.382 2.901 1.338 4.145.925 1.21 2.55 2.102 4.621 2.102 1.658 0 3.953-.796 5.004-2.964-.032-.287-.255-.478-.573-.382zm-4.334-9.147c1.848 0 2.453 1.116 2.453 2.008 0 .414-.096.542-.192.606-.254.191-.955.317-3.314.317h-2.263c-.223 0-.223-.095-.223-.158.033-1.052 1.658-2.773 3.539-2.773zm9.45.829h3.601c.287-.191.35-1.052-.032-1.34h-3.537c-.542 0-.574-.03-.574-.604v-1.435c-.127-.223-.51-.223-.67-.159-.318.638-.924 1.498-1.338 1.881-.319.286-1.115.7-2.04.987-.127.192-.095.542.096.67h.893c.637 0 .668.063.668.924v7.298c0 1.913.574 3.442 3.315 3.442 1.625 0 2.773-.796 3.347-1.465.063-.192-.064-.542-.32-.542-.095 0-.51.35-.796.446a2.416 2.416 0 0 1 -.86.158c-2.104 0-2.327-1.689-2.327-3.537v-5.96c0-.668.032-.764.574-.764zm19.422-8.638c-1.497-.924-3.473-1.275-6.119-1.275-2.645 0-4.621.033-6.31.255-.255.128-.287.606-.064.798l1.148.127c1.433.128 1.497.702 1.497 3.41v11.76c0 3.347-.064 3.73-1.912 3.985l-.668.094c-.193.192-.129.703.062.798a80.71 80.71 0 0 1 3.888-.095c1.275 0 2.327.03 4.144.095.191-.095.255-.637.063-.798l-.86-.094c-2.04-.223-2.103-.638-2.103-3.985v-14.214c0-1.02.032-1.148 1.72-1.148 3.315 0 5.132 2.009 5.132 5.1 0 2.773-1.243 4.717-4.685 5.354-.191.064-.191.542.032.638 1.307 0 2.995-.287 4.398-.957 1.37-.669 3.188-2.134 3.188-5.067 0-2.199-1.084-3.857-2.55-4.781zm18.963 6.92c-1.18 0-2.391.988-3.506 1.913-.064-.033-.096-.129-.096-.288v-1.85c0-.126-.096-.19-.255-.222-.797.479-2.486 1.307-3.219 1.562-.16.095-.16.446-.032.573l.287.192c.86.574.86.733.86 1.976v5.577c0 2.11-.224 2.516-1.176 2.716a7.107 7.107 0 0 1 -.17-.009c-1.24-.074-1.609-1.717-1.546-3.183l.191-5.546c.096-2.39-1.02-3.729-3.314-3.729-1.867 0-4.55 1.457-5.54 2.89-.32.438-.358.677-.343 1.245.136.662.64 1 1.244 1 .709 0 1.284-.587 1.284-1.311 0-.158-.008-.871.009-1.147.063-.988 1.147-1.434 2.04-1.434 1.975 0 2.358 1.594 2.326 2.772l-.031 1.466c-.033.478-.065.765-.542.926l-3.793 1.369c-2.04.733-2.646 1.466-2.646 2.71 0 .891.383 1.689.989 2.23.54.479 1.306.734 2.23.734.893 0 1.594-.415 2.295-.797.638-.351 1.02-.638 1.243-.638.191 0 .382.255.51.446.35.448.834.77 1.382.92-.07.05-.094.087-.051.105l.425-.027c.122.016.245.027.366.027.712 0 1.37-.052 1.876-.124a64.58 64.58 0 0 1 1.923-.041c1.114 0 2.038.032 3.536.096.223-.097.286-.638.064-.798l-1.147-.094c-1.212-.097-1.275-.479-1.275-2.774v-4.334c0-1.084.096-2.009.415-2.454.254-.35.636-.638 1.147-.638.446 0 .924.192 1.402.51.223.128.383.223.7.223a1.414 1.414 0 0 0 1.371-1.466c0-.764-.637-1.274-1.433-1.274zm-11.148 9.403c0 .669-.031 1.114-.413 1.497-.319.32-1.307.797-1.945.797-.218 0-.411-.025-.587-.07-1.132-.284-1.42-1.373-1.42-1.842 0-1.243.924-1.721 2.804-2.358.18-.06.353-.113.517-.158.36-.1.658-.16.79-.16.19 0 .318.063.318.413l-.064 1.88zm48.052-3.957c-1.116-.637-2.455-1.339-2.455-2.645 0-1.147.797-1.944 2.04-1.944 1.307 0 2.263.924 2.805 2.327.16.19.637.127.764-.096 0-.86-.222-1.881-.508-2.581-.288-.255-1.467-.574-2.806-.574-2.422 0-4.334 1.307-4.334 3.633 0 1.753 1.307 2.869 3.156 3.92 1.178.67 2.452 1.467 2.452 2.932 0 1.37-.987 2.04-2.135 2.04-1.817 0-2.835-1.53-3.378-3.283-.16-.19-.573-.16-.731.032-.065 1.052.126 2.614.38 3.219.798.638 1.912.956 3.412.956 2.357 0 4.588-1.21 4.588-3.633 0-2.263-1.562-3.346-3.25-4.303zm14.075 4.59c-.99 1.243-1.88 1.561-2.933 1.561-3.41 0-5.29-2.74-5.29-5.96 0-.795.032-.86.86-.86h5.897c1.338 0 1.784-.031 1.88-.222.064-.128.127-.383.127-.83 0-1.912-1.785-3.792-4.526-3.792-3.824 0-6.406 3.282-6.406 7.202 0 1.403.383 2.901 1.339 4.145.926 1.21 2.55 2.102 4.622 2.102 1.657 0 3.951-.796 5.004-2.964-.033-.287-.256-.478-.574-.382zm-4.335-9.147c1.849 0 2.454 1.116 2.454 2.008 0 .414-.096.542-.191.606-.255.191-.956.317-3.315.317h-2.262c-.223 0-.223-.095-.223-.158.032-1.052 1.657-2.773 3.537-2.773zm-14.918 11.462-.668-.094c-1.149-.16-1.212-.479-1.212-2.774v-5.736c0-1.308.063-2.837.127-3.952-.031-.128-.159-.192-.318-.192-.733.478-2.55 1.307-3.283 1.562-.16.096-.16.446-.03.573l.285.192c.86.574.86.733.86 1.976v5.577c0 2.295-.031 2.613-1.21 2.774l-.412.057c-.311.035-.624.044-.937.028-.798-.195-.748-1.623-.748-4.06v-13.99c0-1.402.064-2.995.096-3.95a.35.35 0 0 0 -.319-.192c-1.148.605-2.646 1.083-3.442 1.337-.16.096-.16.543 0 .639l.319.19c.956.574.987.765.987 2.645v4.814c0 .254-.031.446-.19.446-.35-.128-1.053-.287-2.136-.287-4.335 0-7.712 2.867-7.712 7.33 0 1.469.455 2.826 1.263 3.888-.313.249-.879.713-1.418.71-1.243-.004-1.53-1.306-1.465-2.772l.19-5.545c.096-2.39-1.02-3.73-3.315-3.73-1.866 0-4.551 1.458-5.539 2.89-.322.44-.36.678-.344 1.246.135.661.64 1 1.244 1 .71 0 1.284-.586 1.284-1.312 0-.157-.008-.87.01-1.146.062-.988 1.147-1.434 2.039-1.434 1.976 0 2.358 1.594 2.326 2.772l-.031 1.466c-.032.479-.064.766-.542.925l-3.793 1.37c-2.039.734-2.646 1.466-2.646 2.71 0 .891.384 1.689.99 2.23.54.478 1.305.733 2.23.733.892 0 1.593-.414 2.295-.797.637-.35 1.02-.637 1.243-.637.19 0 .381.255.51.447.541.7 1.305.99 2.07.987 1.633-.005 2.808-.9 3.297-1.417 1.012.95 2.379 1.535 3.998 1.535 1.529 0 2.613-.51 4.015-1.466h.127c.064.128.064-.083.064.395v.542c0 .09.056.165.137.211l-.074.033.137-.003a.353.353 0 0 0 .152.014l.072-.019c1.22-.023 2.236-.004 3.26-.055.009.006 1.95.019 3.098.019 1.115 0 2.04.032 2.995.095.225-.095.288-.637.064-.798zm-23.859-2.816c0 .67-.031 1.117-.414 1.498-.32.32-1.308.797-1.944.797-.163 0-.31-.016-.45-.041-1.245-.229-1.558-1.384-1.558-1.87 0-1.244.924-1.721 2.805-2.36.268-.09.529-.164.751-.219a2.86 2.86 0 0 1 .555-.099c.192 0 .32.064.32.414zm13.954.246c0 .51-.031.988-.223 1.179-.508.51-1.593.893-2.453.893-3.124 0-4.749-2.741-4.749-5.642 0-2.772 1.498-5.29 4.398-5.29 1.243 0 2.2.668 2.677 1.338.223.32.35.606.35 1.243zm33.419-8.203c0 .716-.576 1.285-1.308 1.285s-1.316-.569-1.316-1.285c0-.717.584-1.277 1.323-1.277.725 0 1.3.56 1.3 1.277zm-2.297 0c0 .569.429 1.02.996 1.02.553.008.974-.451.974-1.012 0-.569-.42-1.028-.989-1.028-.552 0-.98.46-.98 1.02zm.787.662h-.297v-1.277c.118-.016.28-.039.491-.039.242 0 .35.04.436.101a.32.32 0 0 1 .132.272c0 .156-.116.258-.264.305v.015c.124.04.186.14.225.31.04.196.07.266.094.313h-.312c-.039-.047-.062-.155-.1-.312-.024-.132-.102-.195-.265-.195h-.14zm.007-.717h.14c.164 0 .296-.054.296-.187 0-.116-.085-.195-.273-.195a.699.699 0 0 0 -.163.016z"/></g></g></svg>