<?xml version="1.0" encoding="UTF-8"?>
<svg width="168px" height="64px" viewBox="0 0 168 64" version="1.1" xmlns="http://www.w3.org/2000/svg" xmlns:xlink="http://www.w3.org/1999/xlink">
    <!-- Generator: Sketch 51.3 (57544) - http://www.bohemiancoding.com/sketch -->
    <title>svg-about-us-wins-logo-hubspot</title>
    <desc>Created with Sketch.</desc>
    <defs></defs>
    <g id="v1-launch" stroke="none" stroke-width="1" fill="none" fill-rule="evenodd">
        <g id="local-assets-pt.1" transform="translate(-1253.000000, -20428.000000)" fill="#1F1F1F" fill-rule="nonzero">
            <g id="Group-12-Copy" transform="translate(1253.000000, 20428.000000)">
                <path d="M13.3202378,20.8827549 L13.3202378,30.7174604 L4.28810809,30.7174604 L4.28810809,20.8827549 L0,20.8827549 L0,44.3591487 L4.28810809,44.3591487 L4.28810809,34.8437927 L13.3202378,34.8437927 L13.3202378,44.3591487 L17.6083459,44.3591487 L17.6083459,20.8827549 L13.3202378,20.8827549 Z M31.3319725,36.7703949 C31.3319725,38.7296313 29.7436976,40.3179062 27.7844613,40.3179062 C25.8252249,40.3179062 24.23695,38.7296313 24.23695,36.7703949 L24.23695,26.7150861 L20.1694452,26.7150861 L20.1694452,36.7703949 C20.1694452,40.971991 23.5755118,44.3780575 27.7771078,44.3780575 C31.9787039,44.3780575 35.3847704,40.971991 35.3847704,36.7703949 L35.3847704,26.7150861 L31.3319725,26.7150861 L31.3319725,36.7703949 Z M61.4684852,27.7508711 C61.4684852,25.689806 62.8320238,25.0364 64.3258233,25.0364 C65.5296871,25.0364 67.1201319,25.9524289 68.1601189,27.0638494 L70.8241664,23.9249795 C69.4942436,22.1265373 66.7965803,20.8827549 64.5884463,20.8827549 C60.1763802,20.8827549 56.9849857,23.466965 56.9849857,27.7508711 C56.9849857,35.6988931 66.6999351,33.1777125 66.6999351,37.6254954 C66.6999351,38.9974378 65.3679113,40.2097055 63.842597,40.2097055 C61.4369705,40.2097055 60.6575055,39.0331546 59.5523879,37.7893721 L56.5963036,40.8631115 C58.4871891,43.1846987 60.8192812,44.3633506 63.6135898,44.3633506 C67.8050526,44.3633506 71.1771317,41.7476257 71.1771317,37.6591111 C71.1771317,28.8349788 61.4621823,31.5767628 61.4621823,27.7508711 L61.4684852,27.7508711 Z M121.56923,40.6088925 C119.165704,40.6088925 118.482885,39.5689054 118.482885,37.9763597 L118.482885,30.9275588 L122.218434,30.9275588 L122.218434,27.3558862 L118.482885,27.3558862 L118.482885,22.6433793 L114.358653,24.4943461 L114.358653,38.8524699 C114.358653,42.5249898 116.89244,44.3759565 120.367467,44.3759565 C120.912479,44.3858854 121.457147,44.3422556 121.993629,44.2456955 L123,40.541661 C122.546187,40.5731757 122.025143,40.6046905 121.56923,40.6046905 L121.56923,40.6088925 Z M46.8141227,26.8327412 C44.7992792,26.8327412 43.393721,27.4168147 42.0343844,28.7509395 L42.0343844,21.0235208 L37.9605767,21.0235208 L37.9605767,35.3459278 C37.9605767,40.7076387 41.8368919,44.3801585 46.1922315,44.3801585 C51.0244944,44.3801585 55.2747848,40.6425082 55.2747848,35.6085508 C55.2747848,30.637623 51.3627528,26.8348422 46.8141227,26.8348422 L46.8141227,26.8327412 Z M46.7889109,40.281139 C44.2361599,40.281139 42.1667464,38.2117254 42.1667464,35.6589744 C42.1667464,33.1062235 44.2361599,31.0368099 46.7889109,31.0368099 C49.3416619,31.0368099 51.4110754,33.1062235 51.4110754,35.6589744 C51.4110754,38.2117254 49.3416619,40.281139 46.7889109,40.281139 Z M91.0482372,35.3942505 C91.0482372,30.3518892 86.8063508,26.6226428 81.9656839,26.6226428 C77.6103444,26.6226428 73.7340291,30.2951626 73.7340291,35.6568735 L73.7340291,49.9876845 L77.8078368,49.9876845 L77.8078368,42.2497609 C79.1650724,43.5817846 80.5727316,44.1679591 82.5854742,44.1679591 C87.1341043,44.1679591 91.0461362,40.3672793 91.0461362,35.3942505 L91.0482372,35.3942505 Z M87.1908308,35.3438269 C87.1908308,37.8965778 85.1214173,39.9659914 82.5686663,39.9659914 C80.0159153,39.9659914 77.9465018,37.8965778 77.9465018,35.3438269 C77.9465018,32.7910759 80.0159153,30.7216623 82.5686663,30.7216623 C85.1214173,30.7216623 87.1908308,32.7910759 87.1908308,35.3438269 Z M104.202597,26.3159993 C107.909511,26.8792217 110.874635,29.6893517 111.635872,33.3607213 C112.397109,37.0320909 110.793721,40.7894748 107.616335,42.7801166 C104.438949,44.7707584 100.358483,44.5743256 97.3870049,42.2876787 L94.0611475,45.6135362 C94.1480776,45.8853486 94.1941024,46.1685776 94.1977114,46.4539297 C94.196551,48.063936 92.8908526,49.3683803 91.280846,49.3679935 C89.6708394,49.3676067 88.3657678,48.0625352 88.365381,46.4525286 C88.3649942,44.842522 89.6694386,43.5368235 91.2794448,43.5356631 C91.5647861,43.5393963 91.8479969,43.585418 92.1198384,43.6722271 L95.4814126,40.3106529 C93.3664961,37.2969763 93.3123131,33.2957703 95.3448486,30.2259303 L84.2915724,21.6266033 C83.7604259,21.9349634 83.157716,22.0986803 82.5435539,22.1014256 C81.1072554,22.0997236 79.8134488,21.2328722 79.2655693,19.9051733 C78.7176898,18.5774745 79.0236628,17.0504684 80.0407816,16.0363553 C81.0579004,15.0222421 82.5858053,14.7207895 83.9118769,15.2725959 C85.2379485,15.8244023 86.1009672,17.1207686 86.0984186,18.5570658 C86.0941487,18.8560622 86.0517877,19.1532951 85.9723595,19.44158 L97.1958154,28.183774 C98.4212198,27.1981566 99.8852935,26.5538192 101.439803,26.3159993 L101.439803,22.2232827 C100.335792,21.7074288 99.628113,20.6013229 99.6224518,19.3827525 L99.6224518,19.2882082 C99.6224518,17.5476962 101.033416,16.1367324 102.773928,16.1367324 L102.868472,16.1367324 C104.608984,16.1367324 106.019948,17.5476962 106.019948,19.2882082 L106.019948,19.3827525 C106.014286,20.6013229 105.306608,21.7074288 104.202597,22.2232827 L104.202597,26.3159993 Z M102.824351,39.774902 L102.828553,39.772801 C105.369701,39.772801 107.429708,37.7127939 107.429708,35.1716463 C107.428547,32.6313198 105.368879,30.5725939 102.828553,30.5725945 C100.288226,30.5725952 98.2285592,32.631322 98.2273994,35.1716486 C98.2262396,37.7119751 100.284025,39.7725818 102.824351,39.774902 Z" id="Combined-Shape"></path>
            </g>
        </g>
    </g>
</svg>