<svg width="1920" height="388" viewBox="0 0 1920 388" fill="none" xmlns="http://www.w3.org/2000/svg">
<g clip-path="url(#clip0_2052_52689)">
<rect width="1920" height="388" fill="white"/>
<rect width="1920" height="197" transform="translate(0 194)" fill="white"/>
<path d="M542.228 237.128C543.236 239.48 544.58 241.608 546.372 243.344C548.108 245.136 550.18 246.536 552.532 247.488C554.884 248.496 557.404 249 560.148 249C563.116 249 565.804 248.552 568.212 247.6C570.62 246.648 572.804 245.36 574.708 243.624L571.684 237.632C570.172 239.144 568.492 240.376 566.588 241.272C564.684 242.168 562.556 242.616 560.092 242.616C558.244 242.616 556.508 242.28 554.94 241.664C553.372 240.992 551.972 240.096 550.796 238.92C549.62 237.744 548.724 236.344 548.052 234.776C547.436 233.152 547.1 231.36 547.1 229.344C547.1 227.44 547.436 225.648 548.052 224.024C548.724 222.4 549.62 221 550.796 219.824C551.972 218.648 553.372 217.696 554.996 217.08C556.62 216.464 558.356 216.128 560.26 216.128C562.612 216.128 564.684 216.576 566.476 217.528C568.268 218.424 569.836 219.6 571.292 221L574.316 215.064C572.412 213.384 570.284 212.096 567.988 211.144C565.692 210.192 563.172 209.744 560.372 209.744C557.572 209.744 554.996 210.248 552.588 211.2C550.18 212.208 548.108 213.608 546.372 215.344C544.58 217.08 543.236 219.152 542.228 221.56C541.22 223.912 540.716 226.488 540.716 229.288C540.716 232.144 541.22 234.72 542.228 237.128Z" fill="#181819"/>
<path d="M596.932 236.064V237.688C596.932 238.528 596.764 239.312 596.428 240.096C596.036 240.936 595.532 241.608 594.916 242.224C594.3 242.84 593.516 243.344 592.564 243.736C591.612 244.128 590.604 244.296 589.428 244.296C587.916 244.296 586.74 243.96 586.012 243.288C585.228 242.672 584.836 241.776 584.836 240.712C584.836 239.76 585.172 238.976 585.844 238.304C586.46 237.688 587.468 237.24 588.868 237.072L596.932 236.064ZM579.404 227.048L584.276 230.128C584.668 228.56 585.564 227.44 586.852 226.768C588.14 226.152 589.652 225.816 591.388 225.816C593.236 225.816 594.636 226.152 595.588 226.824C596.484 227.552 596.932 228.448 596.932 229.512V230.128C596.932 230.856 596.372 231.304 595.308 231.416L587.524 232.2C584.948 232.424 582.82 233.264 581.14 234.776C579.404 236.288 578.564 238.304 578.564 240.88C578.564 242.168 578.788 243.288 579.236 244.352C579.684 245.416 580.3 246.368 581.14 247.096C581.924 247.88 582.932 248.496 584.108 248.888C585.284 249.336 586.572 249.56 588.028 249.56C590.156 249.56 591.948 249.168 593.46 248.328C594.916 247.488 596.092 246.424 596.932 245.136V249H602.98V231.248C602.98 227.608 602.028 224.92 600.124 223.072C598.164 221.224 595.252 220.328 591.276 220.328C587.972 220.328 585.396 220.944 583.436 222.12C581.476 223.296 580.132 224.976 579.404 227.048Z" fill="#181819"/>
<path d="M615.88 225.424V221H610.057V249H616.104V236.176C616.104 233.208 616.664 230.856 617.84 229.176C619.016 227.552 620.977 226.712 623.777 226.712C624.337 226.712 624.896 226.768 625.4 226.824C625.904 226.88 626.352 226.992 626.856 227.104V220.664C625.96 220.44 625.065 220.328 624.113 220.328C622.153 220.328 620.472 220.776 619.184 221.672C617.84 222.568 616.72 223.8 615.88 225.424Z" fill="#181819"/>
<path d="M629.875 235.112C629.875 237.296 630.211 239.256 630.939 240.992C631.611 242.784 632.563 244.296 633.851 245.584C635.083 246.872 636.595 247.88 638.443 248.608C640.235 249.336 642.251 249.672 644.491 249.672C647.123 249.672 649.363 249.224 651.211 248.272C653.059 247.376 654.515 246.368 655.691 245.248L652.835 240.376C651.883 241.384 650.707 242.224 649.307 242.952C647.907 243.68 646.283 244.016 644.435 244.016C643.427 244.016 642.475 243.848 641.523 243.568C640.571 243.288 639.675 242.84 638.947 242.224C638.163 241.664 637.547 240.936 637.043 240.04C636.539 239.144 636.203 238.08 636.035 236.904V236.848H657.539V235.112C657.539 232.928 657.259 230.968 656.643 229.12C656.027 227.328 655.187 225.76 654.011 224.472C652.835 223.184 651.435 222.12 649.755 221.392C648.019 220.664 646.115 220.328 643.931 220.328C641.747 220.328 639.843 220.72 638.107 221.448C636.371 222.232 634.859 223.296 633.683 224.64C632.451 225.984 631.499 227.552 630.883 229.344C630.211 231.136 629.875 233.04 629.875 235.112ZM650.931 232.256H636.091C636.483 230.24 637.267 228.616 638.555 227.44C639.843 226.264 641.579 225.704 643.819 225.704C646.003 225.704 647.739 226.32 648.915 227.496C650.091 228.728 650.763 230.296 650.931 232.256Z" fill="#181819"/>
<path d="M671.587 226.152H679.651V221H671.587V219.88C671.587 218.032 671.923 216.744 672.595 215.96C673.267 215.232 674.443 214.84 676.067 214.84C676.683 214.84 677.299 214.896 677.915 214.952C678.531 215.008 679.203 215.12 679.987 215.288V209.688C679.147 209.576 678.363 209.464 677.635 209.352C676.851 209.296 676.011 209.24 675.115 209.24C673.715 209.24 672.483 209.408 671.307 209.8C670.131 210.192 669.123 210.752 668.283 211.592C667.443 212.432 666.771 213.496 666.267 214.784C665.763 216.072 665.539 217.64 665.539 219.488V221H660.163V226.152H665.539V249H671.587V226.152Z" fill="#181819"/>
<path d="M709.827 221H703.779V234.216C703.779 235.56 703.667 236.792 703.443 237.968C703.163 239.144 702.771 240.208 702.267 241.048C701.707 241.944 700.979 242.616 700.083 243.12C699.187 243.624 698.067 243.904 696.723 243.904C694.651 243.904 693.195 243.288 692.411 242.056C691.571 240.88 691.179 239.2 691.179 237.128V221H684.963V237.968C684.963 239.704 685.131 241.328 685.523 242.728C685.915 244.128 686.475 245.36 687.315 246.424C688.155 247.488 689.219 248.272 690.507 248.832C691.795 249.392 693.307 249.672 695.099 249.672C697.227 249.672 698.963 249.224 700.363 248.384C701.763 247.544 702.939 246.368 704.003 244.856V249H709.827V221Z" fill="#181819"/>
<path d="M723.839 209.8H717.679V249H723.839V209.8Z" fill="#181819"/>
<path d="M737.743 209.8H731.583V249H737.743V209.8Z" fill="#181819"/>
<path d="M747.279 260.2H753.719L771.639 221H765.199L757.359 238.136L749.295 221H742.127L754.167 245.136L747.279 260.2Z" fill="#181819"/>
<path d="M790.475 235.056C790.475 237.24 790.811 239.2 791.539 240.992C792.267 242.784 793.219 244.296 794.507 245.584C795.795 246.872 797.307 247.88 799.099 248.608C800.891 249.336 802.907 249.672 805.091 249.672C807.443 249.672 809.515 249.28 811.307 248.496C813.099 247.712 814.611 246.704 815.787 245.528L812.315 240.712C811.419 241.552 810.411 242.28 809.235 242.896C808.059 243.512 806.659 243.792 805.091 243.792C803.915 243.792 802.795 243.568 801.787 243.176C800.723 242.784 799.827 242.168 799.099 241.384C798.371 240.656 797.755 239.704 797.363 238.64C796.915 237.576 796.691 236.344 796.691 235C796.691 233.656 796.915 232.424 797.363 231.36C797.755 230.296 798.371 229.344 799.099 228.56C799.827 227.832 800.723 227.216 801.787 226.824C802.851 226.432 803.971 226.208 805.147 226.208C806.659 226.208 807.947 226.488 809.067 227.048C810.187 227.608 811.195 228.336 812.035 229.176L815.675 224.416C814.387 223.128 812.931 222.12 811.195 221.392C809.459 220.664 807.499 220.328 805.315 220.328C803.131 220.328 801.115 220.664 799.323 221.392C797.475 222.12 795.907 223.184 794.619 224.472C793.331 225.76 792.323 227.328 791.595 229.12C790.867 230.912 790.475 232.872 790.475 235.056Z" fill="#181819"/>
<path d="M826.819 225.424V221H820.995V249H827.043V236.176C827.043 233.208 827.603 230.856 828.779 229.176C829.955 227.552 831.915 226.712 834.715 226.712C835.275 226.712 835.835 226.768 836.339 226.824C836.843 226.88 837.291 226.992 837.795 227.104V220.664C836.899 220.44 836.003 220.328 835.051 220.328C833.091 220.328 831.411 220.776 830.123 221.672C828.779 222.568 827.659 223.8 826.819 225.424Z" fill="#181819"/>
<path d="M859.686 236.064V237.688C859.686 238.528 859.518 239.312 859.182 240.096C858.79 240.936 858.286 241.608 857.67 242.224C857.054 242.84 856.27 243.344 855.318 243.736C854.366 244.128 853.358 244.296 852.182 244.296C850.67 244.296 849.494 243.96 848.766 243.288C847.982 242.672 847.59 241.776 847.59 240.712C847.59 239.76 847.926 238.976 848.598 238.304C849.214 237.688 850.222 237.24 851.622 237.072L859.686 236.064ZM842.158 227.048L847.03 230.128C847.422 228.56 848.318 227.44 849.606 226.768C850.894 226.152 852.406 225.816 854.142 225.816C855.99 225.816 857.39 226.152 858.342 226.824C859.238 227.552 859.686 228.448 859.686 229.512V230.128C859.686 230.856 859.126 231.304 858.062 231.416L850.278 232.2C847.702 232.424 845.574 233.264 843.894 234.776C842.158 236.288 841.318 238.304 841.318 240.88C841.318 242.168 841.542 243.288 841.99 244.352C842.438 245.416 843.054 246.368 843.894 247.096C844.678 247.88 845.686 248.496 846.862 248.888C848.038 249.336 849.326 249.56 850.782 249.56C852.91 249.56 854.702 249.168 856.214 248.328C857.67 247.488 858.846 246.424 859.686 245.136V249H865.734V231.248C865.734 227.608 864.782 224.92 862.878 223.072C860.918 221.224 858.006 220.328 854.03 220.328C850.726 220.328 848.15 220.944 846.19 222.12C844.23 223.296 842.886 224.976 842.158 227.048Z" fill="#181819"/>
<path d="M881.322 226.152H889.386V221H881.322V219.88C881.322 218.032 881.658 216.744 882.33 215.96C883.002 215.232 884.178 214.84 885.802 214.84C886.418 214.84 887.034 214.896 887.65 214.952C888.266 215.008 888.938 215.12 889.722 215.288V209.688C888.882 209.576 888.098 209.464 887.37 209.352C886.586 209.296 885.746 209.24 884.85 209.24C883.45 209.24 882.218 209.408 881.042 209.8C879.866 210.192 878.858 210.752 878.018 211.592C877.178 212.432 876.506 213.496 876.002 214.784C875.498 216.072 875.274 217.64 875.274 219.488V221H869.898V226.152H875.274V249H881.322V226.152Z" fill="#181819"/>
<path d="M910.602 248.496V242.952C909.706 243.12 908.978 243.232 908.362 243.288C907.746 243.344 907.018 243.4 906.29 243.4C905.226 243.4 904.442 243.12 903.994 242.616C903.49 242.112 903.266 241.384 903.266 240.432V226.152H910.658V221H903.266V213.496H897.218V221H891.898V226.152H897.218V240.824C897.218 243.904 897.89 246.088 899.29 247.376C900.634 248.664 902.594 249.28 905.17 249.28C907.018 249.28 908.81 249 910.602 248.496Z" fill="#181819"/>
<path d="M914.462 235.112C914.462 237.296 914.798 239.256 915.526 240.992C916.198 242.784 917.15 244.296 918.438 245.584C919.67 246.872 921.182 247.88 923.03 248.608C924.822 249.336 926.838 249.672 929.078 249.672C931.71 249.672 933.95 249.224 935.798 248.272C937.646 247.376 939.102 246.368 940.278 245.248L937.422 240.376C936.47 241.384 935.294 242.224 933.894 242.952C932.494 243.68 930.87 244.016 929.022 244.016C928.014 244.016 927.062 243.848 926.11 243.568C925.158 243.288 924.262 242.84 923.534 242.224C922.75 241.664 922.134 240.936 921.63 240.04C921.126 239.144 920.79 238.08 920.622 236.904V236.848H942.126V235.112C942.126 232.928 941.846 230.968 941.23 229.12C940.614 227.328 939.774 225.76 938.598 224.472C937.422 223.184 936.022 222.12 934.342 221.392C932.606 220.664 930.702 220.328 928.518 220.328C926.334 220.328 924.43 220.72 922.694 221.448C920.958 222.232 919.446 223.296 918.27 224.64C917.038 225.984 916.086 227.552 915.47 229.344C914.798 231.136 914.462 233.04 914.462 235.112ZM935.518 232.256H920.678C921.07 230.24 921.854 228.616 923.142 227.44C924.43 226.264 926.166 225.704 928.406 225.704C930.59 225.704 932.326 226.32 933.502 227.496C934.678 228.728 935.35 230.296 935.518 232.256Z" fill="#181819"/>
<path d="M960.318 226.096C962.838 226.096 964.854 226.88 966.422 228.504C967.934 230.128 968.718 232.256 968.718 235C968.718 237.744 967.934 239.872 966.422 241.496C964.854 243.12 962.838 243.904 960.318 243.904C957.798 243.904 955.726 243.064 954.214 241.44C952.702 239.816 951.918 237.632 951.918 235C951.918 232.368 952.702 230.184 954.214 228.56C955.726 226.936 957.798 226.096 960.318 226.096ZM974.486 209.8H968.438V225.032C967.374 223.688 966.03 222.568 964.462 221.672C962.894 220.776 960.99 220.328 958.75 220.328C956.958 220.328 955.278 220.664 953.71 221.28C952.086 221.952 950.742 222.904 949.566 224.192C948.39 225.48 947.438 226.992 946.766 228.784C946.038 230.632 945.702 232.704 945.702 235C945.702 237.296 946.038 239.368 946.766 241.16C947.438 243.008 948.39 244.52 949.566 245.752C950.742 247.04 952.086 247.992 953.71 248.664C955.278 249.336 956.958 249.672 958.806 249.672C960.99 249.672 962.894 249.224 964.518 248.384C966.086 247.544 967.374 246.424 968.438 245.024V249H974.486V209.8Z" fill="#181819"/>
<path d="M1015.79 236.064V237.688C1015.79 238.528 1015.62 239.312 1015.28 240.096C1014.89 240.936 1014.39 241.608 1013.77 242.224C1013.16 242.84 1012.37 243.344 1011.42 243.736C1010.47 244.128 1009.46 244.296 1008.28 244.296C1006.77 244.296 1005.6 243.96 1004.87 243.288C1004.08 242.672 1003.69 241.776 1003.69 240.712C1003.69 239.76 1004.03 238.976 1004.7 238.304C1005.32 237.688 1006.32 237.24 1007.72 237.072L1015.79 236.064ZM998.26 227.048L1003.13 230.128C1003.52 228.56 1004.42 227.44 1005.71 226.768C1007 226.152 1008.51 225.816 1010.24 225.816C1012.09 225.816 1013.49 226.152 1014.44 226.824C1015.34 227.552 1015.79 228.448 1015.79 229.512V230.128C1015.79 230.856 1015.23 231.304 1014.16 231.416L1006.38 232.2C1003.8 232.424 1001.68 233.264 999.996 234.776C998.26 236.288 997.42 238.304 997.42 240.88C997.42 242.168 997.644 243.288 998.092 244.352C998.54 245.416 999.156 246.368 999.996 247.096C1000.78 247.88 1001.79 248.496 1002.96 248.888C1004.14 249.336 1005.43 249.56 1006.88 249.56C1009.01 249.56 1010.8 249.168 1012.32 248.328C1013.77 247.488 1014.95 246.424 1015.79 245.136V249H1021.84V231.248C1021.84 227.608 1020.88 224.92 1018.98 223.072C1017.02 221.224 1014.11 220.328 1010.13 220.328C1006.83 220.328 1004.25 220.944 1002.29 222.12C1000.33 223.296 998.988 224.976 998.26 227.048Z" fill="#181819"/>
<path d="M1034.79 224.864V221H1028.91V249H1034.96V235.784C1034.96 234.384 1035.07 233.04 1035.35 231.864C1035.58 230.688 1035.97 229.624 1036.53 228.784C1037.09 227.944 1037.82 227.272 1038.77 226.768C1039.66 226.264 1040.78 226.04 1042.13 226.04C1043.92 226.04 1045.38 226.6 1046.44 227.72C1047.5 228.84 1048.01 230.576 1048.01 232.872V249H1054.17V232.088C1054.17 230.296 1053.94 228.672 1053.55 227.216C1053.16 225.816 1052.54 224.584 1051.7 223.52C1050.86 222.512 1049.8 221.728 1048.51 221.168C1047.22 220.608 1045.71 220.328 1043.98 220.328C1042.02 220.328 1040.28 220.72 1038.71 221.504C1037.14 222.288 1035.86 223.408 1034.79 224.864Z" fill="#181819"/>
<path d="M1074.67 226.096C1077.19 226.096 1079.2 226.88 1080.77 228.504C1082.28 230.128 1083.07 232.256 1083.07 235C1083.07 237.744 1082.28 239.872 1080.77 241.496C1079.2 243.12 1077.19 243.904 1074.67 243.904C1072.15 243.904 1070.08 243.064 1068.56 241.44C1067.05 239.816 1066.27 237.632 1066.27 235C1066.27 232.368 1067.05 230.184 1068.56 228.56C1070.08 226.936 1072.15 226.096 1074.67 226.096ZM1088.84 209.8H1082.79V225.032C1081.72 223.688 1080.38 222.568 1078.81 221.672C1077.24 220.776 1075.34 220.328 1073.1 220.328C1071.31 220.328 1069.63 220.664 1068.06 221.28C1066.44 221.952 1065.09 222.904 1063.92 224.192C1062.74 225.48 1061.79 226.992 1061.12 228.784C1060.39 230.632 1060.05 232.704 1060.05 235C1060.05 237.296 1060.39 239.368 1061.12 241.16C1061.79 243.008 1062.74 244.52 1063.92 245.752C1065.09 247.04 1066.44 247.992 1068.06 248.664C1069.63 249.336 1071.31 249.672 1073.16 249.672C1075.34 249.672 1077.24 249.224 1078.87 248.384C1080.44 247.544 1081.72 246.424 1082.79 245.024V249H1088.84V209.8Z" fill="#181819"/>
<path d="M1111.27 235.056C1111.27 237.24 1111.6 239.2 1112.33 240.992C1113.06 242.784 1114.01 244.296 1115.3 245.584C1116.59 246.872 1118.1 247.88 1119.89 248.608C1121.68 249.336 1123.7 249.672 1125.88 249.672C1128.23 249.672 1130.31 249.28 1132.1 248.496C1133.89 247.712 1135.4 246.704 1136.58 245.528L1133.11 240.712C1132.21 241.552 1131.2 242.28 1130.03 242.896C1128.85 243.512 1127.45 243.792 1125.88 243.792C1124.71 243.792 1123.59 243.568 1122.58 243.176C1121.51 242.784 1120.62 242.168 1119.89 241.384C1119.16 240.656 1118.55 239.704 1118.15 238.64C1117.71 237.576 1117.48 236.344 1117.48 235C1117.48 233.656 1117.71 232.424 1118.15 231.36C1118.55 230.296 1119.16 229.344 1119.89 228.56C1120.62 227.832 1121.51 227.216 1122.58 226.824C1123.64 226.432 1124.76 226.208 1125.94 226.208C1127.45 226.208 1128.74 226.488 1129.86 227.048C1130.98 227.608 1131.99 228.336 1132.83 229.176L1136.47 224.416C1135.18 223.128 1133.72 222.12 1131.99 221.392C1130.25 220.664 1128.29 220.328 1126.11 220.328C1123.92 220.328 1121.91 220.664 1120.11 221.392C1118.27 222.12 1116.7 223.184 1115.41 224.472C1114.12 225.76 1113.11 227.328 1112.39 229.12C1111.66 230.912 1111.27 232.872 1111.27 235.056Z" fill="#181819"/>
<path d="M1139.83 235C1139.83 237.128 1140.22 239.088 1140.95 240.88C1141.67 242.728 1142.74 244.24 1144.08 245.528C1145.37 246.816 1146.94 247.824 1148.79 248.552C1150.58 249.28 1152.54 249.672 1154.67 249.672C1156.79 249.672 1158.75 249.28 1160.6 248.552C1162.39 247.824 1163.96 246.816 1165.31 245.528C1166.59 244.24 1167.66 242.728 1168.39 240.88C1169.11 239.088 1169.51 237.128 1169.51 235C1169.51 232.872 1169.11 230.912 1168.39 229.064C1167.66 227.272 1166.59 225.704 1165.31 224.416C1163.96 223.128 1162.39 222.12 1160.6 221.392C1158.75 220.664 1156.79 220.328 1154.67 220.328C1152.54 220.328 1150.58 220.664 1148.79 221.392C1146.94 222.12 1145.37 223.128 1144.08 224.416C1142.74 225.704 1141.67 227.272 1140.95 229.064C1140.22 230.912 1139.83 232.872 1139.83 235ZM1163.29 235C1163.29 236.288 1163.07 237.52 1162.67 238.584C1162.23 239.648 1161.61 240.6 1160.88 241.328C1160.1 242.112 1159.2 242.728 1158.14 243.12C1157.07 243.568 1155.95 243.792 1154.67 243.792C1153.38 243.792 1152.26 243.568 1151.19 243.12C1150.13 242.728 1149.23 242.112 1148.51 241.328C1147.72 240.6 1147.11 239.648 1146.71 238.584C1146.27 237.52 1146.04 236.288 1146.04 235C1146.04 233.712 1146.27 232.48 1146.71 231.416C1147.11 230.352 1147.72 229.4 1148.51 228.616C1149.23 227.888 1150.13 227.272 1151.19 226.824C1152.26 226.432 1153.38 226.208 1154.67 226.208C1155.95 226.208 1157.07 226.432 1158.14 226.824C1159.2 227.272 1160.1 227.888 1160.88 228.616C1161.61 229.4 1162.23 230.352 1162.67 231.416C1163.07 232.48 1163.29 233.712 1163.29 235Z" fill="#181819"/>
<path d="M1181.15 224.864V221H1175.27V249H1181.32V235.784C1181.32 234.384 1181.43 233.04 1181.71 231.864C1181.93 230.688 1182.32 229.624 1182.88 228.784C1183.44 227.944 1184.17 227.272 1185.12 226.768C1186.02 226.264 1187.14 226.04 1188.48 226.04C1190.28 226.04 1191.73 226.6 1192.8 227.72C1193.86 228.84 1194.36 230.576 1194.36 232.872V249H1200.52V232.088C1200.52 230.296 1200.3 228.672 1199.91 227.216C1199.52 225.816 1198.9 224.584 1198.06 223.52C1197.22 222.512 1196.16 221.728 1194.87 221.168C1193.58 220.608 1192.07 220.328 1190.33 220.328C1188.37 220.328 1186.64 220.72 1185.07 221.504C1183.5 222.288 1182.21 223.408 1181.15 224.864Z" fill="#181819"/>
<path d="M1207.58 228.896C1207.58 230.408 1207.92 231.696 1208.53 232.704C1209.15 233.768 1209.93 234.608 1210.89 235.224C1211.84 235.84 1212.96 236.344 1214.13 236.68C1215.31 237.072 1216.43 237.352 1217.49 237.576C1219.62 238.024 1221.19 238.472 1222.2 238.864C1223.21 239.312 1223.71 240.096 1223.71 241.16C1223.71 242.224 1223.26 243.008 1222.37 243.456C1221.47 243.96 1220.29 244.184 1218.89 244.184C1217.05 244.184 1215.37 243.848 1213.85 243.176C1212.29 242.56 1211.05 241.496 1210.21 240.04L1206.07 244.016C1207.25 245.976 1208.98 247.432 1211.17 248.328C1213.35 249.224 1215.81 249.672 1218.5 249.672C1220.18 249.672 1221.75 249.504 1223.15 249.112C1224.55 248.776 1225.73 248.216 1226.73 247.488C1227.69 246.76 1228.47 245.864 1229.03 244.744C1229.59 243.624 1229.87 242.28 1229.87 240.768C1229.87 239.256 1229.59 237.968 1229.09 236.96C1228.53 236.008 1227.8 235.168 1226.9 234.552C1226.01 233.936 1225 233.432 1223.88 233.04C1222.7 232.704 1221.53 232.424 1220.35 232.144C1218.17 231.64 1216.49 231.192 1215.42 230.8C1214.3 230.408 1213.74 229.68 1213.74 228.616C1213.74 227.776 1214.19 227.104 1215.03 226.6C1215.87 226.096 1216.93 225.872 1218.33 225.872C1220.07 225.872 1221.58 226.208 1222.87 226.824C1224.1 227.496 1225.05 228.336 1225.73 229.344L1229.81 225.424C1228.64 223.856 1227.18 222.624 1225.39 221.672C1223.6 220.776 1221.36 220.328 1218.67 220.328C1215.14 220.328 1212.45 221.112 1210.49 222.624C1208.53 224.136 1207.58 226.264 1207.58 228.896Z" fill="#181819"/>
<path d="M1234.33 212.936C1234.33 214.112 1234.73 215.12 1235.57 215.96C1236.41 216.8 1237.41 217.192 1238.59 217.192C1239.77 217.192 1240.77 216.8 1241.61 215.96C1242.45 215.12 1242.85 214.112 1242.85 212.936C1242.85 211.76 1242.45 210.752 1241.61 209.912C1240.77 209.072 1239.77 208.68 1238.59 208.68C1237.41 208.68 1236.41 209.072 1235.57 209.912C1234.73 210.752 1234.33 211.76 1234.33 212.936ZM1241.61 221H1235.57V249H1241.61V221Z" fill="#181819"/>
<path d="M1248.95 228.896C1248.95 230.408 1249.29 231.696 1249.9 232.704C1250.52 233.768 1251.3 234.608 1252.26 235.224C1253.21 235.84 1254.33 236.344 1255.5 236.68C1256.68 237.072 1257.8 237.352 1258.86 237.576C1260.99 238.024 1262.56 238.472 1263.57 238.864C1264.58 239.312 1265.08 240.096 1265.08 241.16C1265.08 242.224 1264.63 243.008 1263.74 243.456C1262.84 243.96 1261.66 244.184 1260.26 244.184C1258.42 244.184 1256.74 243.848 1255.22 243.176C1253.66 242.56 1252.42 241.496 1251.58 240.04L1247.44 244.016C1248.62 245.976 1250.35 247.432 1252.54 248.328C1254.72 249.224 1257.18 249.672 1259.87 249.672C1261.55 249.672 1263.12 249.504 1264.52 249.112C1265.92 248.776 1267.1 248.216 1268.1 247.488C1269.06 246.76 1269.84 245.864 1270.4 244.744C1270.96 243.624 1271.24 242.28 1271.24 240.768C1271.24 239.256 1270.96 237.968 1270.46 236.96C1269.9 236.008 1269.17 235.168 1268.27 234.552C1267.38 233.936 1266.37 233.432 1265.25 233.04C1264.07 232.704 1262.9 232.424 1261.72 232.144C1259.54 231.64 1257.86 231.192 1256.79 230.8C1255.67 230.408 1255.11 229.68 1255.11 228.616C1255.11 227.776 1255.56 227.104 1256.4 226.6C1257.24 226.096 1258.3 225.872 1259.7 225.872C1261.44 225.872 1262.95 226.208 1264.24 226.824C1265.47 227.496 1266.42 228.336 1267.1 229.344L1271.18 225.424C1270.01 223.856 1268.55 222.624 1266.76 221.672C1264.97 220.776 1262.73 220.328 1260.04 220.328C1256.51 220.328 1253.82 221.112 1251.86 222.624C1249.9 224.136 1248.95 226.264 1248.95 228.896Z" fill="#181819"/>
<path d="M1292.5 248.496V242.952C1291.61 243.12 1290.88 243.232 1290.26 243.288C1289.65 243.344 1288.92 243.4 1288.19 243.4C1287.13 243.4 1286.34 243.12 1285.9 242.616C1285.39 242.112 1285.17 241.384 1285.17 240.432V226.152H1292.56V221H1285.17V213.496H1279.12V221H1273.8V226.152H1279.12V240.824C1279.12 243.904 1279.79 246.088 1281.19 247.376C1282.54 248.664 1284.5 249.28 1287.07 249.28C1288.92 249.28 1290.71 249 1292.5 248.496Z" fill="#181819"/>
<path d="M1296.36 235.112C1296.36 237.296 1296.7 239.256 1297.43 240.992C1298.1 242.784 1299.05 244.296 1300.34 245.584C1301.57 246.872 1303.08 247.88 1304.93 248.608C1306.72 249.336 1308.74 249.672 1310.98 249.672C1313.61 249.672 1315.85 249.224 1317.7 248.272C1319.55 247.376 1321 246.368 1322.18 245.248L1319.32 240.376C1318.37 241.384 1317.2 242.224 1315.8 242.952C1314.4 243.68 1312.77 244.016 1310.92 244.016C1309.92 244.016 1308.96 243.848 1308.01 243.568C1307.06 243.288 1306.16 242.84 1305.44 242.224C1304.65 241.664 1304.04 240.936 1303.53 240.04C1303.03 239.144 1302.69 238.08 1302.52 236.904V236.848H1324.03V235.112C1324.03 232.928 1323.75 230.968 1323.13 229.12C1322.52 227.328 1321.68 225.76 1320.5 224.472C1319.32 223.184 1317.92 222.12 1316.24 221.392C1314.51 220.664 1312.6 220.328 1310.42 220.328C1308.24 220.328 1306.33 220.72 1304.6 221.448C1302.86 222.232 1301.35 223.296 1300.17 224.64C1298.94 225.984 1297.99 227.552 1297.37 229.344C1296.7 231.136 1296.36 233.04 1296.36 235.112ZM1317.42 232.256H1302.58C1302.97 230.24 1303.76 228.616 1305.04 227.44C1306.33 226.264 1308.07 225.704 1310.31 225.704C1312.49 225.704 1314.23 226.32 1315.4 227.496C1316.58 228.728 1317.25 230.296 1317.42 232.256Z" fill="#181819"/>
<path d="M1335.44 224.864V221H1329.56V249H1335.61V235.784C1335.61 234.384 1335.72 233.04 1336 231.864C1336.23 230.688 1336.62 229.624 1337.18 228.784C1337.74 227.944 1338.47 227.272 1339.42 226.768C1340.32 226.264 1341.44 226.04 1342.78 226.04C1344.57 226.04 1346.03 226.6 1347.09 227.72C1348.16 228.84 1348.66 230.576 1348.66 232.872V249H1354.82V232.088C1354.82 230.296 1354.6 228.672 1354.2 227.216C1353.81 225.816 1353.2 224.584 1352.36 223.52C1351.52 222.512 1350.45 221.728 1349.16 221.168C1347.88 220.608 1346.36 220.328 1344.63 220.328C1342.67 220.328 1340.93 220.72 1339.36 221.504C1337.8 222.288 1336.51 223.408 1335.44 224.864Z" fill="#181819"/>
<path d="M1378.57 248.496V242.952C1377.67 243.12 1376.94 243.232 1376.33 243.288C1375.71 243.344 1374.98 243.4 1374.26 243.4C1373.19 243.4 1372.41 243.12 1371.96 242.616C1371.46 242.112 1371.23 241.384 1371.23 240.432V226.152H1378.62V221H1371.23V213.496H1365.18V221H1359.86V226.152H1365.18V240.824C1365.18 243.904 1365.86 246.088 1367.26 247.376C1368.6 248.664 1370.56 249.28 1373.14 249.28C1374.98 249.28 1376.78 249 1378.57 248.496Z" fill="#181819"/>
<path d="M769.283 316H773.987L786.419 288H779.531L771.635 307.432L763.739 288H756.851L769.283 316Z" fill="#181819"/>
<path d="M789.898 279.936C789.898 281.112 790.29 282.12 791.13 282.96C791.97 283.8 792.978 284.192 794.154 284.192C795.33 284.192 796.338 283.8 797.178 282.96C798.018 282.12 798.41 281.112 798.41 279.936C798.41 278.76 798.018 277.752 797.178 276.912C796.338 276.072 795.33 275.68 794.154 275.68C792.978 275.68 791.97 276.072 791.13 276.912C790.29 277.752 789.898 278.76 789.898 279.936ZM797.178 288H791.13V316H797.178V288Z" fill="#181819"/>
<path d="M804.516 295.896C804.516 297.408 804.852 298.696 805.468 299.704C806.084 300.768 806.868 301.608 807.82 302.224C808.772 302.84 809.892 303.344 811.068 303.68C812.244 304.072 813.364 304.352 814.428 304.576C816.556 305.024 818.124 305.472 819.132 305.864C820.14 306.312 820.644 307.096 820.644 308.16C820.644 309.224 820.196 310.008 819.3 310.456C818.404 310.96 817.228 311.184 815.828 311.184C813.98 311.184 812.3 310.848 810.788 310.176C809.22 309.56 807.988 308.496 807.148 307.04L803.004 311.016C804.18 312.976 805.916 314.432 808.1 315.328C810.284 316.224 812.748 316.672 815.436 316.672C817.116 316.672 818.684 316.504 820.084 316.112C821.484 315.776 822.66 315.216 823.668 314.488C824.62 313.76 825.404 312.864 825.964 311.744C826.524 310.624 826.804 309.28 826.804 307.768C826.804 306.256 826.524 304.968 826.02 303.96C825.46 303.008 824.732 302.168 823.836 301.552C822.94 300.936 821.932 300.432 820.812 300.04C819.636 299.704 818.46 299.424 817.284 299.144C815.1 298.64 813.42 298.192 812.356 297.8C811.236 297.408 810.676 296.68 810.676 295.616C810.676 294.776 811.124 294.104 811.964 293.6C812.804 293.096 813.868 292.872 815.268 292.872C817.004 292.872 818.516 293.208 819.804 293.824C821.036 294.496 821.988 295.336 822.66 296.344L826.748 292.424C825.572 290.856 824.116 289.624 822.324 288.672C820.532 287.776 818.292 287.328 815.604 287.328C812.076 287.328 809.388 288.112 807.428 289.624C805.468 291.136 804.516 293.264 804.516 295.896Z" fill="#181819"/>
<path d="M857.028 288H850.98V301.216C850.98 302.56 850.868 303.792 850.644 304.968C850.364 306.144 849.972 307.208 849.468 308.048C848.908 308.944 848.18 309.616 847.284 310.12C846.388 310.624 845.268 310.904 843.924 310.904C841.852 310.904 840.396 310.288 839.612 309.056C838.772 307.88 838.38 306.2 838.38 304.128V288H832.164V304.968C832.164 306.704 832.332 308.328 832.724 309.728C833.116 311.128 833.676 312.36 834.516 313.424C835.356 314.488 836.42 315.272 837.708 315.832C838.996 316.392 840.508 316.672 842.3 316.672C844.428 316.672 846.164 316.224 847.564 315.384C848.964 314.544 850.14 313.368 851.204 311.856V316H857.028V288Z" fill="#181819"/>
<path d="M881.793 303.064V304.688C881.793 305.528 881.625 306.312 881.289 307.096C880.897 307.936 880.393 308.608 879.777 309.224C879.161 309.84 878.377 310.344 877.425 310.736C876.473 311.128 875.465 311.296 874.289 311.296C872.777 311.296 871.601 310.96 870.873 310.288C870.089 309.672 869.697 308.776 869.697 307.712C869.697 306.76 870.033 305.976 870.705 305.304C871.321 304.688 872.329 304.24 873.729 304.072L881.793 303.064ZM864.265 294.048L869.137 297.128C869.529 295.56 870.425 294.44 871.713 293.768C873.001 293.152 874.513 292.816 876.249 292.816C878.097 292.816 879.497 293.152 880.449 293.824C881.345 294.552 881.793 295.448 881.793 296.512V297.128C881.793 297.856 881.233 298.304 880.169 298.416L872.385 299.2C869.809 299.424 867.681 300.264 866.001 301.776C864.265 303.288 863.425 305.304 863.425 307.88C863.425 309.168 863.649 310.288 864.097 311.352C864.545 312.416 865.161 313.368 866.001 314.096C866.785 314.88 867.793 315.496 868.969 315.888C870.145 316.336 871.433 316.56 872.889 316.56C875.017 316.56 876.809 316.168 878.321 315.328C879.777 314.488 880.953 313.424 881.793 312.136V316H887.841V298.248C887.841 294.608 886.889 291.92 884.985 290.072C883.025 288.224 880.113 287.328 876.137 287.328C872.833 287.328 870.257 287.944 868.297 289.12C866.337 290.296 864.993 291.976 864.265 294.048Z" fill="#181819"/>
<path d="M901.077 276.8H894.917V316H901.077V276.8Z" fill="#181819"/>
<path d="M931.619 276.8H925.459V316H931.619V276.8Z" fill="#181819"/>
<path d="M956.275 303.064V304.688C956.275 305.528 956.107 306.312 955.771 307.096C955.379 307.936 954.875 308.608 954.259 309.224C953.643 309.84 952.859 310.344 951.907 310.736C950.955 311.128 949.947 311.296 948.771 311.296C947.259 311.296 946.083 310.96 945.355 310.288C944.571 309.672 944.179 308.776 944.179 307.712C944.179 306.76 944.515 305.976 945.187 305.304C945.803 304.688 946.811 304.24 948.211 304.072L956.275 303.064ZM938.747 294.048L943.619 297.128C944.011 295.56 944.907 294.44 946.195 293.768C947.483 293.152 948.995 292.816 950.731 292.816C952.579 292.816 953.979 293.152 954.931 293.824C955.827 294.552 956.275 295.448 956.275 296.512V297.128C956.275 297.856 955.715 298.304 954.651 298.416L946.867 299.2C944.291 299.424 942.163 300.264 940.483 301.776C938.747 303.288 937.907 305.304 937.907 307.88C937.907 309.168 938.131 310.288 938.579 311.352C939.027 312.416 939.643 313.368 940.483 314.096C941.267 314.88 942.275 315.496 943.451 315.888C944.627 316.336 945.915 316.56 947.371 316.56C949.499 316.56 951.291 316.168 952.803 315.328C954.259 314.488 955.435 313.424 956.275 312.136V316H962.323V298.248C962.323 294.608 961.371 291.92 959.467 290.072C957.507 288.224 954.595 287.328 950.619 287.328C947.315 287.328 944.739 287.944 942.779 289.12C940.819 290.296 939.475 291.976 938.747 294.048Z" fill="#181819"/>
<path d="M975.279 291.864V288H969.399V316H975.447V302.784C975.447 301.384 975.559 300.04 975.839 298.864C976.063 297.688 976.455 296.624 977.015 295.784C977.575 294.944 978.303 294.272 979.255 293.768C980.151 293.264 981.271 293.04 982.615 293.04C984.407 293.04 985.863 293.6 986.927 294.72C987.991 295.84 988.495 297.576 988.495 299.872V316H994.655V299.088C994.655 297.296 994.431 295.672 994.039 294.216C993.647 292.816 993.031 291.584 992.191 290.52C991.351 289.512 990.287 288.728 988.999 288.168C987.711 287.608 986.199 287.328 984.463 287.328C982.503 287.328 980.767 287.72 979.199 288.504C977.631 289.288 976.343 290.408 975.279 291.864Z" fill="#181819"/>
<path d="M1023.89 302C1023.89 304.744 1023.16 306.872 1021.65 308.496C1020.14 310.12 1018.18 310.904 1015.66 310.904C1014.37 310.904 1013.25 310.68 1012.19 310.232C1011.12 309.84 1010.23 309.224 1009.5 308.44C1008.77 307.656 1008.15 306.704 1007.76 305.584C1007.37 304.52 1007.15 303.288 1007.15 302C1007.15 300.712 1007.37 299.48 1007.76 298.36C1008.15 297.296 1008.77 296.344 1009.5 295.56C1010.23 294.776 1011.12 294.16 1012.19 293.712C1013.25 293.32 1014.37 293.096 1015.66 293.096C1018.18 293.096 1020.14 293.88 1021.65 295.504C1023.16 297.128 1023.89 299.256 1023.89 302ZM1000.93 301.944C1000.93 304.24 1001.27 306.256 1001.94 308.048C1002.55 309.84 1003.51 311.352 1004.68 312.584C1005.86 313.872 1007.31 314.824 1008.94 315.44C1010.56 316.112 1012.41 316.448 1014.37 316.448C1016.5 316.448 1018.4 316.056 1020.03 315.216C1021.65 314.432 1022.88 313.368 1023.78 312.08V314.152C1023.78 315.216 1023.67 316.28 1023.44 317.232C1023.16 318.24 1022.71 319.136 1022.1 319.864C1021.48 320.648 1020.64 321.264 1019.58 321.712C1018.51 322.16 1017.11 322.384 1015.43 322.384C1013.42 322.384 1011.68 321.992 1010.28 321.208C1008.83 320.424 1007.59 319.304 1006.53 317.792L1002.83 322.272C1004.12 324.008 1005.69 325.352 1007.65 326.36C1009.61 327.424 1012.19 327.928 1015.38 327.928C1018.23 327.928 1020.59 327.536 1022.43 326.752C1024.28 326.024 1025.74 325.016 1026.8 323.728C1027.87 322.44 1028.65 320.984 1029.1 319.36C1029.49 317.736 1029.71 316.056 1029.71 314.32V288H1023.61V291.864C1022.83 290.632 1021.65 289.568 1020.03 288.672C1018.4 287.776 1016.5 287.328 1014.26 287.328C1012.41 287.328 1010.67 287.664 1009.05 288.336C1007.43 289.008 1006.03 289.96 1004.85 291.192C1003.62 292.48 1002.67 293.992 1001.99 295.784C1001.27 297.632 1000.93 299.648 1000.93 301.944Z" fill="#181819"/>
<path d="M1062.38 288H1056.33V301.216C1056.33 302.56 1056.22 303.792 1055.99 304.968C1055.71 306.144 1055.32 307.208 1054.82 308.048C1054.26 308.944 1053.53 309.616 1052.63 310.12C1051.74 310.624 1050.62 310.904 1049.27 310.904C1047.2 310.904 1045.74 310.288 1044.96 309.056C1044.12 307.88 1043.73 306.2 1043.73 304.128V288H1037.51V304.968C1037.51 306.704 1037.68 308.328 1038.07 309.728C1038.46 311.128 1039.02 312.36 1039.86 313.424C1040.7 314.488 1041.77 315.272 1043.06 315.832C1044.34 316.392 1045.86 316.672 1047.65 316.672C1049.78 316.672 1051.51 316.224 1052.91 315.384C1054.31 314.544 1055.49 313.368 1056.55 311.856V316H1062.38V288Z" fill="#181819"/>
<path d="M1087.14 303.064V304.688C1087.14 305.528 1086.97 306.312 1086.64 307.096C1086.24 307.936 1085.74 308.608 1085.12 309.224C1084.51 309.84 1083.72 310.344 1082.77 310.736C1081.82 311.128 1080.81 311.296 1079.64 311.296C1078.12 311.296 1076.95 310.96 1076.22 310.288C1075.44 309.672 1075.04 308.776 1075.04 307.712C1075.04 306.76 1075.38 305.976 1076.05 305.304C1076.67 304.688 1077.68 304.24 1079.08 304.072L1087.14 303.064ZM1069.61 294.048L1074.48 297.128C1074.88 295.56 1075.77 294.44 1077.06 293.768C1078.35 293.152 1079.86 292.816 1081.6 292.816C1083.44 292.816 1084.84 293.152 1085.8 293.824C1086.69 294.552 1087.14 295.448 1087.14 296.512V297.128C1087.14 297.856 1086.58 298.304 1085.52 298.416L1077.73 299.2C1075.16 299.424 1073.03 300.264 1071.35 301.776C1069.61 303.288 1068.77 305.304 1068.77 307.88C1068.77 309.168 1069 310.288 1069.44 311.352C1069.89 312.416 1070.51 313.368 1071.35 314.096C1072.13 314.88 1073.14 315.496 1074.32 315.888C1075.49 316.336 1076.78 316.56 1078.24 316.56C1080.36 316.56 1082.16 316.168 1083.67 315.328C1085.12 314.488 1086.3 313.424 1087.14 312.136V316H1093.19V298.248C1093.19 294.608 1092.24 291.92 1090.33 290.072C1088.37 288.224 1085.46 287.328 1081.48 287.328C1078.18 287.328 1075.6 287.944 1073.64 289.12C1071.68 290.296 1070.34 291.976 1069.61 294.048Z" fill="#181819"/>
<path d="M1121.66 302C1121.66 304.744 1120.93 306.872 1119.42 308.496C1117.9 310.12 1115.94 310.904 1113.42 310.904C1112.14 310.904 1111.02 310.68 1109.95 310.232C1108.89 309.84 1107.99 309.224 1107.26 308.44C1106.54 307.656 1105.92 306.704 1105.53 305.584C1105.14 304.52 1104.91 303.288 1104.91 302C1104.91 300.712 1105.14 299.48 1105.53 298.36C1105.92 297.296 1106.54 296.344 1107.26 295.56C1107.99 294.776 1108.89 294.16 1109.95 293.712C1111.02 293.32 1112.14 293.096 1113.42 293.096C1115.94 293.096 1117.9 293.88 1119.42 295.504C1120.93 297.128 1121.66 299.256 1121.66 302ZM1098.7 301.944C1098.7 304.24 1099.03 306.256 1099.7 308.048C1100.32 309.84 1101.27 311.352 1102.45 312.584C1103.62 313.872 1105.08 314.824 1106.7 315.44C1108.33 316.112 1110.18 316.448 1112.14 316.448C1114.26 316.448 1116.17 316.056 1117.79 315.216C1119.42 314.432 1120.65 313.368 1121.54 312.08V314.152C1121.54 315.216 1121.43 316.28 1121.21 317.232C1120.93 318.24 1120.48 319.136 1119.86 319.864C1119.25 320.648 1118.41 321.264 1117.34 321.712C1116.28 322.16 1114.88 322.384 1113.2 322.384C1111.18 322.384 1109.45 321.992 1108.05 321.208C1106.59 320.424 1105.36 319.304 1104.3 317.792L1100.6 322.272C1101.89 324.008 1103.46 325.352 1105.42 326.36C1107.38 327.424 1109.95 327.928 1113.14 327.928C1116 327.928 1118.35 327.536 1120.2 326.752C1122.05 326.024 1123.5 325.016 1124.57 323.728C1125.63 322.44 1126.42 320.984 1126.86 319.36C1127.26 317.736 1127.48 316.056 1127.48 314.32V288H1121.38V291.864C1120.59 290.632 1119.42 289.568 1117.79 288.672C1116.17 287.776 1114.26 287.328 1112.02 287.328C1110.18 287.328 1108.44 287.664 1106.82 288.336C1105.19 289.008 1103.79 289.96 1102.62 291.192C1101.38 292.48 1100.43 293.992 1099.76 295.784C1099.03 297.632 1098.7 299.648 1098.7 301.944Z" fill="#181819"/>
<path d="M1133.32 302.112C1133.32 304.296 1133.65 306.256 1134.38 307.992C1135.05 309.784 1136.01 311.296 1137.29 312.584C1138.53 313.872 1140.04 314.88 1141.89 315.608C1143.68 316.336 1145.69 316.672 1147.93 316.672C1150.57 316.672 1152.81 316.224 1154.65 315.272C1156.5 314.376 1157.96 313.368 1159.13 312.248L1156.28 307.376C1155.33 308.384 1154.15 309.224 1152.75 309.952C1151.35 310.68 1149.73 311.016 1147.88 311.016C1146.87 311.016 1145.92 310.848 1144.97 310.568C1144.01 310.288 1143.12 309.84 1142.39 309.224C1141.61 308.664 1140.99 307.936 1140.49 307.04C1139.98 306.144 1139.65 305.08 1139.48 303.904V303.848H1160.98V302.112C1160.98 299.928 1160.7 297.968 1160.09 296.12C1159.47 294.328 1158.63 292.76 1157.45 291.472C1156.28 290.184 1154.88 289.12 1153.2 288.392C1151.46 287.664 1149.56 287.328 1147.37 287.328C1145.19 287.328 1143.29 287.72 1141.55 288.448C1139.81 289.232 1138.3 290.296 1137.13 291.64C1135.89 292.984 1134.94 294.552 1134.33 296.344C1133.65 298.136 1133.32 300.04 1133.32 302.112ZM1154.37 299.256H1139.53C1139.93 297.24 1140.71 295.616 1142 294.44C1143.29 293.264 1145.02 292.704 1147.26 292.704C1149.45 292.704 1151.18 293.32 1152.36 294.496C1153.53 295.728 1154.21 297.296 1154.37 299.256Z" fill="#181819"/>
<g opacity="0.3">
<path d="M852.969 371.591H856.02C856.805 371.591 857.51 371.776 858.134 372.144C858.759 372.504 859.248 373.005 859.6 373.645C859.96 374.278 860.14 374.995 860.14 375.796C860.14 376.597 859.96 377.317 859.6 377.958C859.248 378.591 858.759 379.091 858.134 379.46C857.51 379.82 856.805 380 856.02 380H852.969V371.591ZM856.02 378.318C856.493 378.318 856.913 378.21 857.281 377.994C857.65 377.778 857.938 377.477 858.146 377.093C858.355 376.709 858.459 376.276 858.459 375.796C858.459 375.315 858.355 374.883 858.146 374.498C857.938 374.114 857.65 373.814 857.281 373.597C856.913 373.381 856.493 373.273 856.02 373.273H854.651V378.318H856.02Z" fill="#181819"/>
<path d="M863.441 371.591H868.87V373.273H865.123V374.955H868.87V376.637H865.123V378.318H868.87V380H863.441V371.591Z" fill="#181819"/>
<path d="M874.801 380C874.057 380 873.436 379.816 872.939 379.447C872.451 379.071 872.131 378.547 871.978 377.874L873.492 377.249C873.652 377.962 874.089 378.318 874.801 378.318C875.122 378.318 875.37 378.258 875.546 378.138C875.73 378.01 875.822 377.826 875.822 377.586C875.822 377.409 875.774 377.269 875.678 377.165C875.582 377.053 875.434 376.953 875.234 376.865C875.034 376.777 874.721 376.661 874.297 376.516C873.584 376.268 873.031 375.956 872.639 375.579C872.255 375.195 872.062 374.679 872.062 374.03C872.062 373.285 872.307 372.692 872.795 372.252C873.292 371.812 873.948 371.591 874.765 371.591C875.51 371.591 876.127 371.78 876.615 372.156C877.112 372.524 877.436 373.045 877.588 373.718L876.075 374.342C875.995 373.982 875.846 373.714 875.63 373.537C875.422 373.361 875.134 373.273 874.765 373.273C874.445 373.273 874.193 373.337 874.008 373.465C873.832 373.585 873.744 373.766 873.744 374.006C873.744 374.182 873.792 374.326 873.888 374.438C873.984 374.542 874.133 374.638 874.333 374.727C874.533 374.815 874.845 374.931 875.27 375.075C875.983 375.323 876.531 375.64 876.916 376.024C877.308 376.4 877.504 376.913 877.504 377.562C877.504 378.306 877.256 378.899 876.759 379.339C876.271 379.78 875.618 380 874.801 380Z" fill="#181819"/>
<path d="M880.924 371.591H882.606V380H880.924V371.591Z" fill="#181819"/>
<path d="M885.906 375.808C885.906 375.007 886.082 374.286 886.435 373.645C886.795 373.005 887.3 372.504 887.948 372.144C888.597 371.776 889.342 371.591 890.183 371.591C890.775 371.591 891.336 371.691 891.864 371.892C892.401 372.084 892.869 372.38 893.27 372.781L892.453 374.342C891.836 373.629 891.051 373.273 890.098 373.273C889.61 373.273 889.173 373.381 888.789 373.597C888.413 373.806 888.116 374.102 887.9 374.486C887.692 374.871 887.588 375.307 887.588 375.796C887.588 376.292 887.692 376.733 887.9 377.117C888.116 377.501 888.417 377.802 888.801 378.018C889.194 378.226 889.642 378.33 890.146 378.33C890.635 378.33 891.079 378.206 891.48 377.958C891.88 377.702 892.129 377.341 892.225 376.877H889.87V375.195H894.159V375.748C894.159 376.637 893.982 377.401 893.63 378.042C893.278 378.683 892.797 379.171 892.189 379.508C891.588 379.836 890.919 380 890.183 380C889.35 380 888.609 379.82 887.96 379.46C887.312 379.099 886.807 378.603 886.447 377.97C886.086 377.329 885.906 376.609 885.906 375.808Z" fill="#181819"/>
<path d="M897.351 371.591H898.817L903.357 377.117V371.591H905.039V380H903.574L899.033 374.474V380H897.351V371.591Z" fill="#181819"/>
<path d="M920.197 378.667H915.776L915.164 380H913.314L917.206 371.591H918.767L922.66 380H920.81L920.197 378.667ZM919.416 376.985L917.987 373.898L916.557 376.985H919.416Z" fill="#181819"/>
<path d="M924.746 375.784C924.746 374.999 924.93 374.286 925.299 373.645C925.667 373.005 926.172 372.504 926.812 372.144C927.453 371.776 928.17 371.591 928.963 371.591C929.547 371.591 930.096 371.691 930.608 371.892C931.129 372.084 931.589 372.364 931.99 372.732L931.185 374.27C930.865 373.942 930.52 373.693 930.152 373.525C929.791 373.357 929.391 373.273 928.951 373.273C928.47 373.273 928.038 373.381 927.653 373.597C927.269 373.806 926.969 374.102 926.752 374.486C926.536 374.871 926.428 375.307 926.428 375.796C926.428 376.284 926.536 376.721 926.752 377.105C926.969 377.489 927.265 377.79 927.641 378.006C928.026 378.214 928.454 378.318 928.927 378.318C929.848 378.318 930.636 377.962 931.293 377.249L932.122 378.811C931.257 379.604 930.2 380 928.951 380C928.166 380 927.453 379.816 926.812 379.447C926.172 379.079 925.667 378.575 925.299 377.934C924.93 377.293 924.746 376.577 924.746 375.784Z" fill="#181819"/>
<path d="M939.661 380L937.86 377.189H936.814V380H935.133V371.591H938.712C939.233 371.591 939.705 371.715 940.13 371.964C940.562 372.204 940.899 372.54 941.139 372.973C941.387 373.397 941.511 373.87 941.511 374.39C941.511 374.999 941.347 375.539 941.019 376.012C940.69 376.484 940.254 376.817 939.709 377.009L941.716 380H939.661ZM936.814 375.507H938.712C939.041 375.507 939.309 375.403 939.517 375.195C939.725 374.979 939.83 374.711 939.83 374.39C939.83 374.062 939.725 373.794 939.517 373.585C939.309 373.377 939.041 373.273 938.712 373.273H936.814V375.507Z" fill="#181819"/>
<path d="M948.402 380C947.609 380 946.892 379.82 946.251 379.46C945.611 379.091 945.106 378.587 944.738 377.946C944.377 377.305 944.197 376.589 944.197 375.796C944.197 375.003 944.377 374.286 944.738 373.645C945.106 373.005 945.611 372.504 946.251 372.144C946.892 371.776 947.609 371.591 948.402 371.591C949.194 371.591 949.911 371.776 950.552 372.144C951.193 372.504 951.693 373.005 952.053 373.645C952.422 374.286 952.606 375.003 952.606 375.796C952.606 376.589 952.422 377.305 952.053 377.946C951.693 378.587 951.193 379.091 950.552 379.46C949.911 379.82 949.194 380 948.402 380ZM948.402 378.318C948.882 378.318 949.315 378.21 949.699 377.994C950.083 377.778 950.384 377.477 950.6 377.093C950.816 376.709 950.924 376.276 950.924 375.796C950.924 375.307 950.816 374.875 950.6 374.498C950.384 374.114 950.083 373.814 949.699 373.597C949.315 373.381 948.882 373.273 948.402 373.273C947.913 373.273 947.477 373.381 947.092 373.597C946.716 373.814 946.42 374.114 946.203 374.498C945.987 374.875 945.879 375.307 945.879 375.796C945.879 376.276 945.987 376.709 946.203 377.093C946.42 377.477 946.716 377.778 947.092 377.994C947.477 378.21 947.913 378.318 948.402 378.318Z" fill="#181819"/>
<path d="M958.208 380C957.464 380 956.843 379.816 956.347 379.447C955.858 379.071 955.538 378.547 955.386 377.874L956.899 377.249C957.059 377.962 957.496 378.318 958.208 378.318C958.529 378.318 958.777 378.258 958.953 378.138C959.137 378.01 959.23 377.826 959.23 377.586C959.23 377.409 959.182 377.269 959.085 377.165C958.989 377.053 958.841 376.953 958.641 376.865C958.441 376.777 958.128 376.661 957.704 376.516C956.991 376.268 956.439 375.956 956.046 375.579C955.662 375.195 955.47 374.679 955.47 374.03C955.47 373.285 955.714 372.692 956.202 372.252C956.699 371.812 957.356 371.591 958.172 371.591C958.917 371.591 959.534 371.78 960.022 372.156C960.519 372.524 960.843 373.045 960.995 373.718L959.482 374.342C959.402 373.982 959.254 373.714 959.037 373.537C958.829 373.361 958.541 373.273 958.172 373.273C957.852 373.273 957.6 373.337 957.416 373.465C957.239 373.585 957.151 373.766 957.151 374.006C957.151 374.182 957.199 374.326 957.296 374.438C957.392 374.542 957.54 374.638 957.74 374.727C957.94 374.815 958.253 374.931 958.677 375.075C959.39 375.323 959.938 375.64 960.323 376.024C960.715 376.4 960.911 376.913 960.911 377.562C960.911 378.306 960.663 378.899 960.167 379.339C959.678 379.78 959.025 380 958.208 380Z" fill="#181819"/>
<path d="M966.71 380C965.965 380 965.344 379.816 964.848 379.447C964.359 379.071 964.039 378.547 963.887 377.874L965.4 377.249C965.56 377.962 965.997 378.318 966.71 378.318C967.03 378.318 967.278 378.258 967.454 378.138C967.638 378.01 967.731 377.826 967.731 377.586C967.731 377.409 967.683 377.269 967.586 377.165C967.49 377.053 967.342 376.953 967.142 376.865C966.942 376.777 966.629 376.661 966.205 376.516C965.492 376.268 964.94 375.956 964.547 375.579C964.163 375.195 963.971 374.679 963.971 374.03C963.971 373.285 964.215 372.692 964.703 372.252C965.2 371.812 965.857 371.591 966.674 371.591C967.418 371.591 968.035 371.78 968.523 372.156C969.02 372.524 969.344 373.045 969.496 373.718L967.983 374.342C967.903 373.982 967.755 373.714 967.538 373.537C967.33 373.361 967.042 373.273 966.674 373.273C966.353 373.273 966.101 373.337 965.917 373.465C965.741 373.585 965.652 373.766 965.652 374.006C965.652 374.182 965.7 374.326 965.797 374.438C965.893 374.542 966.041 374.638 966.241 374.727C966.441 374.815 966.754 374.931 967.178 375.075C967.891 375.323 968.439 375.64 968.824 376.024C969.216 376.4 969.412 376.913 969.412 377.562C969.412 378.306 969.164 378.899 968.668 379.339C968.179 379.78 967.526 380 966.71 380Z" fill="#181819"/>
<path d="M978.248 371.591H981.539C982.1 371.591 982.604 371.719 983.053 371.976C983.509 372.232 983.862 372.584 984.11 373.033C984.366 373.473 984.494 373.974 984.494 374.534C984.494 375.095 984.366 375.599 984.11 376.048C983.862 376.488 983.513 376.837 983.065 377.093C982.616 377.341 982.108 377.465 981.539 377.465H979.93V380H978.248V371.591ZM981.539 375.784C981.932 375.784 982.24 375.668 982.464 375.435C982.697 375.203 982.813 374.903 982.813 374.534C982.813 374.158 982.697 373.854 982.464 373.621C982.24 373.389 981.932 373.273 981.539 373.273H979.93V375.784H981.539Z" fill="#181819"/>
<path d="M987.676 371.591H989.357V378.318H993.177V380H987.676V371.591Z" fill="#181819"/>
<path d="M1002.3 378.667H997.881L997.269 380H995.419L999.311 371.591H1000.87L1004.76 380H1002.91L1002.3 378.667ZM1001.52 376.985L1000.09 373.898L998.662 376.985H1001.52Z" fill="#181819"/>
<path d="M1008.99 373.273H1005.95V371.591H1013.71V373.273H1010.67V380H1008.99V373.273Z" fill="#181819"/>
<path d="M1016.66 371.591H1022.09V373.273H1018.34V374.955H1022.09V376.637H1018.34V380H1016.66V371.591Z" fill="#181819"/>
<path d="M1029.01 380C1028.21 380 1027.5 379.82 1026.85 379.46C1026.21 379.091 1025.71 378.587 1025.34 377.946C1024.98 377.305 1024.8 376.589 1024.8 375.796C1024.8 375.003 1024.98 374.286 1025.34 373.645C1025.71 373.005 1026.21 372.504 1026.85 372.144C1027.5 371.776 1028.21 371.591 1029.01 371.591C1029.8 371.591 1030.51 371.776 1031.16 372.144C1031.8 372.504 1032.3 373.005 1032.66 373.645C1033.03 374.286 1033.21 375.003 1033.21 375.796C1033.21 376.589 1033.03 377.305 1032.66 377.946C1032.3 378.587 1031.8 379.091 1031.16 379.46C1030.51 379.82 1029.8 380 1029.01 380ZM1029.01 378.318C1029.49 378.318 1029.92 378.21 1030.3 377.994C1030.69 377.778 1030.99 377.477 1031.2 377.093C1031.42 376.709 1031.53 376.276 1031.53 375.796C1031.53 375.307 1031.42 374.875 1031.2 374.498C1030.99 374.114 1030.69 373.814 1030.3 373.597C1029.92 373.381 1029.49 373.273 1029.01 373.273C1028.52 373.273 1028.08 373.381 1027.7 373.597C1027.32 373.814 1027.02 374.114 1026.81 374.498C1026.59 374.875 1026.48 375.307 1026.48 375.796C1026.48 376.276 1026.59 376.709 1026.81 377.093C1027.02 377.477 1027.32 377.778 1027.7 377.994C1028.08 378.21 1028.52 378.318 1029.01 378.318Z" fill="#181819"/>
<path d="M1041.03 380L1039.23 377.189H1038.19V380H1036.5V371.591H1040.08C1040.6 371.591 1041.08 371.715 1041.5 371.964C1041.93 372.204 1042.27 372.54 1042.51 372.973C1042.76 373.397 1042.88 373.87 1042.88 374.39C1042.88 374.999 1042.72 375.539 1042.39 376.012C1042.06 376.484 1041.63 376.817 1041.08 377.009L1043.09 380H1041.03ZM1038.19 375.507H1040.08C1040.41 375.507 1040.68 375.403 1040.89 375.195C1041.1 374.979 1041.2 374.711 1041.2 374.39C1041.2 374.062 1041.1 373.794 1040.89 373.585C1040.68 373.377 1040.41 373.273 1040.08 373.273H1038.19V375.507Z" fill="#181819"/>
<path d="M1046.21 371.591H1047.83L1051.38 377.802L1054.91 371.591H1056.53V380H1054.85V375.111L1052.06 380H1050.68L1047.89 375.111V380H1046.21V371.591Z" fill="#181819"/>
<path d="M1062.69 380C1061.94 380 1061.32 379.816 1060.83 379.447C1060.34 379.071 1060.02 378.547 1059.87 377.874L1061.38 377.249C1061.54 377.962 1061.98 378.318 1062.69 378.318C1063.01 378.318 1063.26 378.258 1063.43 378.138C1063.62 378.01 1063.71 377.826 1063.71 377.586C1063.71 377.409 1063.66 377.269 1063.57 377.165C1063.47 377.053 1063.32 376.953 1063.12 376.865C1062.92 376.777 1062.61 376.661 1062.18 376.516C1061.47 376.268 1060.92 375.956 1060.53 375.579C1060.14 375.195 1059.95 374.679 1059.95 374.03C1059.95 373.285 1060.19 372.692 1060.68 372.252C1061.18 371.812 1061.84 371.591 1062.65 371.591C1063.4 371.591 1064.01 371.78 1064.5 372.156C1065 372.524 1065.32 373.045 1065.48 373.718L1063.96 374.342C1063.88 373.982 1063.73 373.714 1063.52 373.537C1063.31 373.361 1063.02 373.273 1062.65 373.273C1062.33 373.273 1062.08 373.337 1061.9 373.465C1061.72 373.585 1061.63 373.766 1061.63 374.006C1061.63 374.182 1061.68 374.326 1061.78 374.438C1061.87 374.542 1062.02 374.638 1062.22 374.727C1062.42 374.815 1062.73 374.931 1063.16 375.075C1063.87 375.323 1064.42 375.64 1064.8 376.024C1065.2 376.4 1065.39 376.913 1065.39 377.562C1065.39 378.306 1065.14 378.899 1064.65 379.339C1064.16 379.78 1063.51 380 1062.69 380Z" fill="#181819"/>
</g>
</g>
<defs>
<clipPath id="clip0_2052_52689">
<rect width="1920" height="388" fill="white"/>
</clipPath>
</defs>
</svg>
