<?xml version="1.0" encoding="UTF-8"?>
<svg width="182px" height="76px" viewBox="0 0 182 76" version="1.1" xmlns="http://www.w3.org/2000/svg" xmlns:xlink="http://www.w3.org/1999/xlink">
    <!-- Generator: Sketch 55.1 (78136) - https://sketchapp.com -->
    <title>svg-home-partners-testimonials-pet-paradise</title>
    <desc>Created with Sketch.</desc>
    <g id="assets" stroke="none" stroke-width="1" fill="none" fill-rule="evenodd">
        <g id="local-assets-pt.1" transform="translate(-1605.000000, -12393.000000)" fill="#B5B5B5" fill-rule="nonzero">
            <g id="Group-16" transform="translate(1605.000000, 12393.000000)">
                <g id="all-black-1" transform="translate(1.000000, 24.000000)">
                    <path d="M147.900679,0 L150,0 L150,18.4611418 C149.340213,22.1515357 146.785039,25.3588457 143.489105,26.9640294 C141.320805,28.0188644 138.834609,28.1809116 136.483369,27.8384724 C133.394367,27.340101 130.66525,25.3435582 128.919814,22.7385743 C127.033424,19.9654283 126.568574,16.3270118 127.387309,13.0891269 C128.107077,10.1722787 130.095434,7.68959451 132.557638,6.09052575 C135.244769,4.35081232 138.64567,4.03589056 141.695684,4.79720628 C144.175883,5.43927977 146.263208,7.09949839 147.906677,9.05323632 C147.894681,6.03549088 147.903678,3.01774544 147.900679,0 L147.900679,0 Z M136.354411,6.98025617 C133.586305,7.65596209 131.205075,9.74117221 130.050448,12.382846 C129.228714,14.2203992 129.120749,16.3270118 129.48963,18.2929797 C129.969475,20.7053416 131.522972,22.7966667 133.496335,24.1664235 C135.997526,25.8786194 139.32645,26.1446213 142.10955,25.019464 C144.190878,24.1358485 145.927316,22.4603424 146.949986,20.4179372 C148.05063,18.152335 148.188586,15.4372814 147.387844,13.0493795 C146.587103,10.7440299 144.86566,8.81169438 142.742346,7.692652 C140.78098,6.70202432 138.480723,6.47271235 136.354411,6.98025617 Z" id="Shape"></path>
                    <path d="M0,3.15821327 C1.11885074,2.85197554 2.28085275,3.1087203 3.35655222,3.45517106 C6.20761816,4.41100397 8.58710239,6.69696035 9.67204856,9.50877949 C10.2545907,11.0059417 10.3100709,12.6361163 10.3285643,14.2229845 C10.3254821,16.4408881 10.3316465,18.6618849 10.3162353,20.8797885 C11.0590536,17.5080801 13.5741561,14.5415955 16.9307083,13.5888559 C19.5105377,12.7041691 22.3616037,13.7033084 24.3835488,15.3891625 C26.1095995,16.7533124 27.1205721,18.7856173 27.6784564,20.8797885 C27.6846208,18.0401295 27.5890716,15.194284 27.7308543,12.3577184 C27.9311995,7.20735656 32.770306,2.69731002 37.9238003,3.01592099 C38.077912,8.29620182 37.9361293,13.579576 37.9977739,18.8598568 C38.0840765,22.6924683 35.6521943,26.3549478 32.2309152,27.9789358 C27.6815386,30.2556122 21.640361,28.5759447 18.9896403,24.1958172 C16.8197479,27.7438442 12.3936607,29.6276702 8.34052371,28.8110363 C3.99765678,28.1088548 0.465417251,24.2669633 0,19.8930224 L0,3.15821327 Z" id="Shape"></path>
                    <path d="M79.0191476,16.3057939 C78.6767867,10.7076865 82.9687473,5.35527379 88.4247349,4.25120261 C91.0982622,3.74426289 93.9678689,3.9744073 96.4173054,5.21843117 C100.07123,7.10623738 102.838128,10.8849599 102.990634,15.06177 C103.009309,19.2883411 102.993747,23.5118021 102.996859,27.7383732 C102.218766,27.7383732 101.440673,27.7383732 100.66258,27.7383732 C100.659468,26.2673149 100.656356,24.7962567 100.668805,23.3251985 C98.2753913,26.164683 94.7397371,28.201772 90.9333065,27.9840679 C84.6649899,28.2266525 78.9102146,22.5663439 79.0191476,16.3057939 L79.0191476,16.3057939 Z M88.8978154,6.57441718 C86.4297046,7.07202672 84.2666063,8.68303763 82.8878256,10.7605575 C81.2569428,13.2050644 80.9394809,16.4084258 81.8669677,19.1732689 C83.2799844,23.3687393 87.8084853,26.2455445 92.2218284,25.5862119 C95.8508538,25.2005645 99.0534843,22.4979226 100.195725,19.0613067 C100.762176,17.3227834 100.818199,15.425647 100.401141,13.6498029 C99.7101947,10.7698877 97.5595458,8.32849083 94.8735691,7.12489774 C93.0030337,6.32872246 90.8835085,6.148339 88.8978154,6.57441718 Z" id="Shape"></path>
                    <path d="M107.008126,8.53180468 C108.88935,6.28384313 111.784481,4.85690258 114.759013,5.01141206 C117.620551,5.00535287 120.326337,6.48985578 122.109835,8.66207739 C124.009383,10.8312694 124.980534,13.7033281 124.998858,16.5602388 C124.995804,20.3745024 125.004966,24.1857364 124.995804,28 C124.23232,27.9969704 123.47189,27.9969704 122.711461,27.9969704 C122.705353,24.1766476 122.705353,20.3563248 122.711461,16.536002 C122.714515,13.794216 121.483779,11.0706076 119.376563,9.28617453 C117.34875,7.42600149 114.215413,6.95338424 111.683701,8.01071386 C108.370181,9.43159522 106.25075,13.0216686 106.290451,16.5632684 C106.296559,20.3745024 106.296559,24.1857364 106.290451,27.9969704 C105.526968,27.9969704 104.766538,27.9969704 104.006108,28 C103.996946,24.1827068 104.006108,20.3654136 104,16.5481204 C104.021378,13.6366769 105.035284,10.7131151 107.008126,8.53180468 Z" id="Shape"></path>
                    <path d="M44.0017691,19.7097172 C44.0048386,14.8054671 43.9925606,9.90425003 44.0079081,5 C44.7476567,5 45.4874052,5.00303293 46.2271538,5.00303293 C46.2394318,9.78899864 46.2118063,14.5719314 46.2394318,19.3578971 C46.2240843,22.2937747 48.5262064,24.9809519 51.4023242,25.593604 C53.0138097,25.8817325 54.7664919,25.6997566 56.1692517,24.8202065 C58.0447138,23.694989 59.3369716,21.6143981 59.3461801,19.4306875 C59.3492496,14.6234912 59.3492496,9.81629502 59.3461801,5.00606586 C60.1135542,5.00303293 60.8839977,5.00303293 61.6513717,5.00606586 C61.6513717,9.80416329 61.6513717,14.6052937 61.6513717,19.4033911 C61.6053293,22.7911754 64.7392848,25.8362385 68.1679119,25.7149213 C71.8635852,25.8665678 75.0773476,22.4029602 74.776537,18.790739 C74.770398,14.1958479 74.7734675,9.59792396 74.7734675,5.00303293 C75.5162856,5.00303293 76.2560341,5.00303293 76.9988522,5.00606586 C76.9957827,9.91638175 77.0049912,14.8297306 76.9957827,19.7400465 C76.9251843,23.6858902 73.6653794,27.2829468 69.7302854,27.8652696 C66.1727395,28.511284 62.2775489,26.7764473 60.5003107,23.6464621 C58.5266247,27.1646625 53.9162415,28.8327747 50.0732324,27.5923058 C46.6967867,26.5156152 44.0355336,23.2673457 44.0017691,19.7097172 Z" id="Shape"></path>
                </g>
            </g>
        </g>
    </g>
</svg>