<svg viewBox="0 0 1920 1076" xmlns="http://www.w3.org/2000/svg" xmlns:xlink="http://www.w3.org/1999/xlink"><clipPath id="a"><path d="m240 276h1440v600h-1440z"/></clipPath><radialGradient id="b" cx="470.141294" cy="763.277473" gradientTransform="matrix(548.5 0 0 -548.5 -256552.5 419333.693802)" gradientUnits="userSpaceOnUse" r="1"><stop offset="0" stop-color="#105a86"/><stop offset=".57237400055" stop-color="#171f4e"/><stop offset="1" stop-color="#121836"/></radialGradient><linearGradient id="c" gradientTransform="matrix(1 0 0 -1 0 1074.708649)" gradientUnits="userSpaceOnUse" x1="240" x2="960" y1="298.708649" y2="298.708649"><stop offset="0" stop-color="#9bf8f4"/><stop offset="1" stop-color="#6f7bf7"/></linearGradient><path d="m0 0h1920v1076h-1920z" fill="#fff"/><g clip-path="url(#a)"><path d="m1680 276h-360v400h360z" fill="url(#b)"/><path d="m1320 676h360v200h-360z" fill="#448daf"/><path d="m1320 276h-360v400h360z" fill="#121835"/><path d="m240 276h720v400h-720z" fill="#0c0b14"/><path d="m960 676h360v200h-360z" fill="#7ea4f6"/><path d="m240 676h720v200h-720z" fill="#fff"/><path d="m240 676h720v200h-720z" fill="url(#c)"/></g><g fill="#fff" opacity=".3"><path d="m1351.93005371 839.59997559h-1.68005371v3.36004639h-3.68005371v-3.36004639h-1.67993164v8.40002441h1.67993164v-3.35998535h3.68005371v3.35998535h1.68005371z"/><path d="m1361.13000488 839.59997559h-5.43005371v8.40002441h5.43005371v-1.67999268h-3.75v-1.67999268h3.75v-1.67999268h-3.75v-1.67999268h3.75v-1.68005371z"/><path d="m1363.90002441 848h2.16992188l2.31005859-2.85601807 2.30993652 2.85601807h2.17004395l-3.40002441-4.20001221 3.40002441-4.20001221h-2.17004395l-2.31994629 2.85601807-2.30993652-2.85601807h-2.16003418l3.39001465 4.20001221z"/><path d="m1384.84997559 842.93597412-.22998047 1.5960083h-1.30993652l.23999023-1.5960083zm-.40002441 2.71203613-.33996582 2.35198975h1.11999512l.34997559-2.35198975h1.18005371l.17004395-1.11602783h-1.18005371l.23999023-1.5960083h1.16003418l.16992188-1.1159668h-1.15991211l.31994629-2.22003174h-1.14001465l-.31994629 2.22003174h-1.30004883l.33007813-2.22003174h-1.14001465l-.33007813 2.22003174h-1.27990723l-.17004395 1.1159668h1.2800293l-.22009277 1.5960083h-1.28991699l-.17004395 1.11602783h1.29003906l-.34997559 2.35198975h1.13000488l.34997559-2.35198975z"/><path d="m1396.08996582 839.59997559h-1.38000488l-4.65991211 5.62805176v1.44000244h4.35998535v1.33197021h1.67993164v-1.33197021h1.25v-1.68005371h-1.25zm-1.67993164 2.96405029v2.4239502h-1.98999023z"/><path d="m1406.25 839.59997559h-1.38000488l-4.67004395 5.62805176v1.44000244h4.36999512v1.33197021h1.68005371v-1.33197021h1.25v-1.68005371h-1.25zm-1.68005371 2.96405029v2.4239502h-1.98999023z"/><path d="m1410.7199707 841.9039917c0 .40802002.09008789.7800293.29003906 1.10400391.17993164.33599854.44995117.59997559.81994629.79199219-.36999512.1920166-.65991211.45599365-.83996582.79199219-.17993164.33599854-.27001953.70800781-.27001953 1.10400391 0 .34802246.07006836.67199707.20007324.94799805.13000488.2880249.32995605.52801514.57995605.73199463.23999023.20404053.5300293.34802246.85998535.45599365.33996582.10803223.70996094.16802979 1.10998535.16802979.39001465 0 .76000977-.05999756 1.10998535-.16802979.34008789-.10797119.63000488-.25195313.88000488-.45599365.23999023-.20397949.43005371-.44396973.56005859-.73199463.13000488-.27600098.20996094-.59997559.20996094-.94799805 0-.38397217-.09997559-.74395752-.2800293-1.07995605-.18994141-.33599854-.47998047-.61199951-.85998535-.81604004.38000488-.20397949.67004395-.47998047.85998535-.815979.18005371-.33599854.2800293-.69598389.2800293-1.09197998 0-.34802246-.07995605-.66003418-.20996094-.94805908-.13000488-.27593994-.32006836-.51599121-.56005859-.7199707-.25-.20397949-.53991699-.35998535-.88000488-.46801758-.34997559-.10797119-.7199707-.15600586-1.10998535-.15600586-.40002441 0-.77001953.04803467-1.10998535.15600586-.32995605.10803223-.61999512.26403809-.85998535.46801758-.25.20397949-.44995117.44403076-.57995605.7199707-.13000488.2880249-.20007324.61206055-.20007324.96002197zm3.83007813.20397949c0 .26403809-.10009766.46801758-.30004883.62402344-.20996094.15600586-.4699707.22802734-.77001953.22802734-.30993652 0-.56994629-.07202148-.77001953-.22802734-.19995117-.15600586-.30993652-.35998535-.30993652-.62402344 0-.25195313.08996582-.44396973.28991699-.59997559.19006348-.15600586.45007324-.22796631.79003906-.22796631.32006836 0 .58996582.07196045.7800293.22796631.18994141.15600586.29003906.34802246.29003906.59997559zm0 3.3840332c0 .25201416-.10009766.44396973-.29003906.59997559-.19006348.15600586-.45996094.22802734-.7800293.22802734-.33996582 0-.59997559-.07202148-.79003906-.22802734-.19995117-.15600586-.28991699-.34796143-.28991699-.59997559 0-.27600098.10998535-.47998047.30993652-.63598633.20007324-.14404297.46008301-.21600342.77001953-.21600342.30004883 0 .56005859.07196045.77001953.21600342.19995117.15600586.30004883.35998535.30004883.63598633z"/><path d="m1422.88000488 839.59997559h-3.04003906v8.40002441h3.04003906c.58996582 0 1.14001465-.10797119 1.65002441-.32397461.5-.20404053.92993164-.50402832 1.30993652-.8760376.35998535-.37200928.64001465-.80401611.84997559-1.32000732.20007324-.51599121.31005859-1.06799316.31005859-1.67999268s-.10998535-1.16400146-.31005859-1.67999268c-.20996094-.51599121-.48999023-.96002197-.84997559-1.33197021-.38000488-.37200928-.80993652-.66003418-1.30993652-.8760376-.51000977-.20397949-1.06005859-.31201172-1.65002441-.31201172zm2.43994141 4.20001221c0 .35998535-.05993652.69598389-.17993164.99603271-.11999512.31195068-.29003906.57598877-.48999023.80395508-.2199707.22802734-.4699707.39599609-.77001953.52801514s-.64001465.1920166-1 .1920166h-1.35998535v-5.03997803h1.35998535c.35998535 0 .69995117.05999756 1 .19195557.30004883.13201904.55004883.29998779.77001953.52801514.19995117.22802734.36999512.49200439.48999023.79199219.11999512.31201172.17993164.64801025.17993164 1.00799561z"/><path d="m1432.77001953 845 1.42993164-3.0960083 1.42004395 3.0960083zm3.63000488 1.67999268.61999512 1.32000732h1.83996582l-3.88000488-8.40002441h-1.55993652l-3.89001465 8.40002441h1.84997559l.60998535-1.32000732h4.41003418z"/><path d="m1447.26000977 839.59997559h-5.42004395v8.40002441h1.68005371v-3.35998535h3.73999023v-1.67999268h-3.73999023v-1.67999268h3.73999023v-1.68005371z"/></g><g fill="#fff" opacity=".3"><path d="m991.93499756 839.59997559h-1.67999268v3.36004639h-3.684021v-3.36004639h-1.67999268v8.40002441h1.67999268v-3.35998535h3.684021v3.35998535h1.67999268z"/><path d="m1001.13000488 839.59997559h-5.42700195v8.40002441h5.42700195v-1.67999268h-3.74700928v-1.67999268h3.74700928v-1.67999268h-3.74700928v-1.67999268h3.74700928v-1.68005371z"/><path d="m1003.90002441 848h2.16998291l2.30999756-2.85601807 2.30999756 2.85601807h2.16998291l-3.39996338-4.20001221 3.39996338-4.20001221h-2.16998291l-2.32000732 2.85601807-2.30999756-2.85601807h-2.15997314l3.38995361 4.20001221-3.38995361 4.20001221z"/><path d="m1024.84997559 842.93597412-.22998047 1.5960083h-1.30999756l.23999023-1.5960083h1.29998779zm-.40002441 2.71203613-.33996582 2.35198975h1.11999512l.34997559-2.35198975h1.18005371l.17004395-1.11602783h-1.18005371l.23999023-1.5960083h1.16003418l.16992188-1.1159668h-1.15991211l.31994629-2.22003174h-1.14001465l-.31994629 2.22003174h-1.30004883l.33007813-2.22003174h-1.14007568l-.32995605 2.22003174h-1.2800293l-.16998291 1.1159668h1.27996826l-.2199707 1.5960083h-1.28997803l-.17004395 1.11602783h1.29003906l-.35003662 2.35198975h1.13000488l.35003662-2.35198975h1.29992676z"/><path d="m1035.84997559 839.59997559h-5.7199707v1.68005371h3.69995117l-3.52990723 6.7199707h1.88989258l3.66003418-6.99597168z"/><path d="m1044.56005859 839.59997559h-5.42004395v8.40002441h5.42004395v-1.67999268h-3.7401123v-1.67999268h3.7401123v-1.67999268h-3.7401123v-1.67999268h3.7401123v-1.68005371z"/><path d="m1050.55004883 845 1.41992188-3.0960083 1.43005371 3.0960083zm3.63000488 1.67999268.60998535 1.32000732h1.84997559l-3.89001465-8.40002441h-1.56005859l-3.87988281 8.40002441h1.83996582l.61999512-1.32000732h4.41003418z"/><path d="m1065.13000488 839.59997559h-1.38000488l-4.66003418 5.62805176v1.44000244h4.35998535v1.33197021h1.68005371v-1.33197021h1.25v-1.68005371h-1.25zm-1.68005371 2.96405029v2.4239502h-1.98999023z"/><path d="m1075.18994141 839.59997559h-5.41992188v8.40002441h1.67993164v-3.35998535h3.73999023v-1.67999268h-3.73999023v-1.67999268h3.73999023v-1.68005371z"/><path d="m1081.16003418 848c.40002441 0 .77990723-.07202148 1.13000488-.20397949.34997559-.13201904.64990234-.32403564.89990234-.5760498.25-.25195313.44006348-.55194092.59008789-.9119873.14001465-.34796143.20996094-.74395752.20996094-1.17596436s-.06994629-.82800293-.20996094-1.17602539c-.15002441-.34802246-.34008789-.63598633-.59008789-.87597656s-.53991699-.42004395-.86999512-.55200195c-.32995605-.13201904-.68994141-.1920166-1.05993652-.1920166-.20996094 0-.44006348.03601074-.66003418.10797119-.23999023.07202148-.45996094.16802979-.66003418.27600098v-.02398682c.01000977-.17999268.06005859-.34796143.14001465-.5279541.07006836-.16802979.18005371-.32403564.31005859-.45605469.13000488-.13195801.29003906-.22796631.47998047-.31195068.19006348-.08404541.41003418-.11999512.66003418-.11999512s.51000977.03594971.76000977.09594727c.23999023.05999756.47998047.15600586.70996094.26403809l.66003418-1.52398682c-.38000488-.18005371-.72009277-.31201172-1.05004883-.39605713-.31994629-.08398438-.65002441-.11999512-.97998047-.11999512-.66003418 0-1.19995117.13201904-1.65002441.3840332-.43994141.25201416-.79992676.59997559-1.07995605 1.02001953-.27001953.41998291-.47998047.9119873-.59997559 1.45196533s-.18005371 1.10400391-.18005371 1.67999268c0 .51599121.05004883.99603271.14001465 1.41601563.07995605.43200684.2199707.815979.42993164 1.15197754.2401123.39599609.56005859.70800781.97009277.93603516.40002441.23999023.90002441.35998535 1.5.35998535zm-.06005859-3.98400879c.35998535 0 .65002441.10803223.88000488.31201172.2199707.20397949.33007813.47998047.33007813.82800293s-.11010742.63598633-.33007813.83996582c-.22998047.21600342-.52001953.32403564-.88000488.32403564-.34997559 0-.64001465-.10803223-.85998535-.31201172-.23999023-.20397949-.35998535-.47998047-.35998535-.83996582 0-.34802246.11999512-.62402344.33996582-.84002686.22998047-.20397949.52001953-.31201172.88000488-.31201172z"/></g><g fill="#1f1f1f" opacity=".3"><path d="m272.89099121 839.59997559h1.68002319v3.36004639h3.68399048v-3.36004639h1.67999268v8.40002441h-1.67999268v-3.35998535h-3.68399048v3.35998535h-1.68002319z"/><path d="m283.70300293 839.59997559h5.42401123v1.68005371h-3.74401855v1.67999268h3.74401855v1.67999268h-3.74401855v1.67999268h3.74401855v1.67999268h-5.42401123v-8.40002441z"/><path d="m295.29199219 843.79998779-3.39599609-4.20001221h2.16000366l2.31600952 2.85601807 2.315979-2.85601807h2.17199707l-3.39599609 4.20001221 3.39599609 4.20001221h-2.17199707l-2.315979-2.85601807-2.30401611 2.85601807h-2.17199707z"/><path d="m310.95800781 845.64801025-.34802246 2.35198975h-1.12799072l.34799194-2.35198975h-1.28399658l.16799927-1.11602783h1.28399658l.22802734-1.5960083h-1.2840271l.16799927-1.1159668h1.2840271l.32397461-2.22003174h1.14001465l-.33599854 2.22003174h1.3079834l.32400513-2.22003174h1.14001465l-.33599854 2.22003174h1.17599487l-.16799927 1.1159668h-1.16400146l-.23999023 1.5960083h1.17599487l-.16799927 1.11602783h-1.17599487l-.34802246 2.35198975h-1.12799072l.34799194-2.35198975zm.4079895-2.71203613-.23999023 1.5960083h1.3079834l.22799683-1.5960083h-1.29598999z"/><path d="m320.51098633 848c-.69598389 0-1.4039917-.16802979-2.12399292-.50402832l.6000061-1.52398682c.24798584.10400391.50799561.18798828.77999878.25201416s.52398682.0960083.75601196.0960083c.44799805 0 .81997681-.13201904 1.11599731-.39599609.29598999-.27203369.46398926-.62799072.5039978-1.06799316-.20800781.12799072-.41601563.22796631-.62399292.29998779-.20800781.07202148-.44400024.10797119-.70800781.10797119-.52801514 0-1-.1159668-1.41601563-.34796143-.4079895-.23999023-.72799683-.56799316-.95999146-.98400879-.22399902-.42401123-.33599854-.9039917-.33599854-1.44000244 0-.56799316.11999512-1.06799316.36001587-1.5.24798584-.44000244.59197998-.7800293 1.03198242-1.02001953.44799805-.24798584.95999146-.37200928 1.53601074-.37200928.97598267 0 1.72399902.35601807 2.24398804 1.0680542.46398926.65594482.6960144 1.60797119.6960144 2.85595703 0 1.45599365-.29602051 2.56799316-.88800049 3.33599854-.5920105.76000977-1.44799805 1.14001465-2.56802368 1.14001465zm.48001099-4.41601563c.36001587 0 .65200806-.10797119.87600708-.32397461.23199463-.21600342.34799194-.49603271.34799194-.84002686 0-.33599854-.11599731-.60797119-.34799194-.815979-.23199463-.21600342-.52401733-.32397461-.87600708-.32397461-.35998535 0-.65200806.10797119-.87600708.32397461s-.33599854.49597168-.33599854.83996582c0 .34405518.11199951.62005615.33599854.82800293.22399902.20800781.51602173.31201172.87600708.31201172z"/><path d="m327.33599854 839.59997559h3.57598877c.52001953 0 .96801758.10400391 1.34402466.31201172.37597656.20001221.66400146.4800415.86398315.84002686.20001221.35198975.30001831.75598145.30001831 1.2119751 0 .43200684-.0920105.8079834-.27600098 1.12799072-.184021.31201172-.44000244.54803467-.76800537.70800781.32800293.16802979.58398438.4119873.76800537.73199463.18399048.31201172.27600098.67999268.27600098 1.10400391 0 .45599365-.1000061.86401367-.30001831 1.22399902-.19998169.35198975-.48800659.63201904-.86398315.84002686-.37600708.20001221-.82400513.29998779-1.34402466.29998779h-3.57598877v-8.40002441zm3.54000854 3.36004639c.25598145 0 .46398926-.08001709.62399292-.24005127.16000366-.15997314.23999023-.36798096.23999023-.6239624 0-.23999023-.07998657-.43603516-.23999023-.5880127-.15200806-.15197754-.35998535-.22796631-.62399292-.22796631h-1.86001587v1.67999268zm0 3.35998535c.26400757 0 .47198486-.07202148.62399292-.21600342.16000366-.15197754.23999023-.35198975.23999023-.59997559 0-.26403809-.07998657-.4720459-.23999023-.62402344-.16000366-.16003418-.36801147-.23999023-.62399292-.23999023h-1.86001587v1.67999268z"/><path d="m336.78900146 839.59997559h5.42401123v1.68005371h-3.74401855v1.67999268h3.74401855v1.67999268h-3.74401855v3.35998535h-1.67999268v-8.40002441z"/><path d="m348 848c-.53601074 0-1.01199341-.0960083-1.42800903-.2880249-.41598511-.19195557-.73999023-.45996094-.97198486-.80395508-.23199463-.35198975-.34799194-.75604248-.34799194-1.21203613 0-.87200928.37197876-1.50396729 1.11599731-1.89599609-.34402466-.18395996-.61599731-.44000244-.81600952-.76800537-.20001221-.33599854-.29998779-.7119751-.29998779-1.12799072 0-.45599365.11599731-.85601807.34799194-1.20001221.23199463-.35198975.55599976-.6239624.97198486-.815979.41601563-.1920166.89199829-.2880249 1.42800903-.2880249s1.01199341.0960083 1.42800903.2880249c.41598511.1920166.73999023.46002197.97198486.80401611s.34799194.74395752.34799194 1.20001221c0 .41595459-.09997559.79199219-.29998779 1.12799072-.20001221.32800293-.47601318.58795166-.82800293.77996826.75201416.40002441 1.12799072 1.03198242 1.12799072 1.89599609 0 .45599365-.11599731.86004639-.34799194 1.21203613-.23199463.34399414-.55599976.61199951-.97198486.80395508-.41601563.1920166-.89199829.2880249-1.42800903.2880249zm0-5.03997803c.31201172 0 .56799316-.0760498.76800537-.22802734.19998169-.15197754.29998779-.35998535.29998779-.62402344 0-.24798584-.1000061-.44799805-.29998779-.59997559-.1920166-.15197754-.44799805-.22796631-.76800537-.22796631s-.57998657.07598877-.77999878.22796631c-.19198608.15197754-.28799438.35198975-.28799438.59997559 0 .26403809.1000061.4720459.29998779.62402344.20001221.15197754.45599365.22802734.76800537.22802734zm0 3.35998535c.32000732 0 .57598877-.07598877.76800537-.22802734.19998169-.15197754.29998779-.35198975.29998779-.59997559 0-.26397705-.1000061-.47198486-.29998779-.62402344-.20001221-.15197754-.45599365-.22796631-.76800537-.22796631s-.56799316.07598877-.76800537.22796631c-.19998169.15203857-.29998779.36004639-.29998779.62402344 0 .24798584.0960083.44799805.28799438.59997559.20001221.15203857.45999146.22802734.77999878.22802734z"/><path d="m354.28900146 839.59997559h5.42401123v1.68005371h-3.74401855v1.67999268h3.74401855v1.67999268h-3.74401855v3.35998535h-1.67999268v-8.40002441z"/><path d="m368.51199341 844.98797607h1.24801636v1.68005371h-1.24801636v1.33197021h-1.67999268v-1.33197021h-4.36801147v-1.44000244l4.66799927-5.62805176h1.38000488zm-3.67199707 0h1.99200439v-2.4239502z"/><path d="m387.00299072 847.5 5-4-5-4v3h-8v2h8z"/><path d="m402.7749939 845.64801025-.34799194 2.35198975h-1.12799072l.34799194-2.35198975h-1.28399658l.16799927-1.11602783h1.28399658l.22799683-1.5960083h-1.28399658l.16799927-1.1159668h1.28399658l.32400513-2.22003174h1.13998413l-.33599854 2.22003174h1.30801392l.32400513-2.22003174h1.13998413l-.33599854 2.22003174h1.17599487l-.16799927 1.1159668h-1.16400146l-.23999023 1.5960083h1.17599487l-.16799927 1.11602783h-1.17599487l-.34799194 2.35198975h-1.12802124l.34802246-2.35198975h-1.30801392zm.40802002-2.71203613-.24002075 1.5960083h1.30801392l.22799683-1.5960083h-1.29598999z"/><path d="m412.89099121 848c-.55200195 0-1.03997803-.10797119-1.46398926-.32397461-.41601563-.22399902-.75201416-.54803467-1.00799561-.9720459-.37600708-.63995361-.56399536-1.49597168-.56399536-2.56799316 0-.94396973.13598633-1.75598145.4079895-2.43597412.27999878-.67999268.68399048-1.20001221 1.21200562-1.55999756.52798462-.35998535 1.15600586-.54003906 1.88400269-.54003906.71200562 0 1.38800049.17199707 2.02798462.51605225l-.66000366 1.52398682c-.47998047-.23999023-.96798706-.35998535-1.46398926-.35998535-.44000244 0-.80801392.13598633-1.10400391.40795898-.29598999.26403809-.46398926.61199951-.5039978 1.04400635.20800781-.11999512.43200684-.21600342.67199707-.2880249.23999023-.07196045.45999146-.10797119.66000366-.10797119.52801514 0 1 .11999512 1.41601563.35998535.41598511.23199463.73999023.55999756.97198486.98400879s.34799194.90802002.34799194 1.45202637c0 .55999756-.11999512 1.05596924-.35998535 1.48797607-.24002075.43200684-.57601929.77203369-1.00799561 1.02001953-.43200684.23999023-.92001343.35998535-1.46401978.35998535zm-.05999756-1.67999268c.35202026 0 .64001465-.10803223.86401367-.32403564.23199463-.21594238.34799194-.49597168.34799194-.83996582s-.11199951-.61999512-.33599854-.82800293-.51599121-.31201172-.87600708-.31201172c-.35998535 0-.65600586.10803223-.88800049.32403564-.22399902.20794678-.33599854.48394775-.33599854.82800293 0 .34399414.11199951.6239624.33599854.83996582.23199463.20800781.52801514.31201172.88800049.31201172z"/><path d="m419.14099121 839.59997559h5.42401123v1.68005371h-3.74398804v1.67999268h3.74398804v1.67999268h-3.74398804v3.35998535h-1.68002319v-8.40002441z"/><path d="m431.0960083 841.2800293h-3.6960144v-1.68005371h5.72399902v1.40405273l-3.66000366 6.99597168h-1.89599609l3.52801514-6.7199707z"/><path d="m436.33599854 839.59997559h3.57598877c.52001953 0 .96801758.10400391 1.34402466.31201172.37597656.20001221.66400146.4800415.86398315.84002686.20001221.35198975.30001831.75598145.30001831 1.2119751 0 .43200684-.0920105.8079834-.27600098 1.12799072-.184021.31201172-.44000244.54803467-.76800537.70800781.32800293.16802979.58398438.4119873.76800537.73199463.18399048.31201172.27600098.67999268.27600098 1.10400391 0 .45599365-.1000061.86401367-.30001831 1.22399902-.19998169.35198975-.48800659.63201904-.86398315.84002686-.37600708.20001221-.82400513.29998779-1.34402466.29998779h-3.57598877v-8.40002441zm3.54000854 3.36004639c.25598145 0 .46398926-.08001709.62399292-.24005127.16000366-.15997314.23999023-.36798096.23999023-.6239624 0-.23999023-.07998657-.43603516-.23999023-.5880127-.15200806-.15197754-.35998535-.22796631-.62399292-.22796631h-1.86001587v1.67999268zm0 3.35998535c.26400757 0 .47198486-.07202148.62399292-.21600342.16000366-.15197754.23999023-.35198975.23999023-.59997559 0-.26403809-.07998657-.4720459-.23999023-.62402344-.16000366-.16003418-.36801147-.23999023-.62399292-.23999023h-1.86001587v1.67999268z"/><path d="m445.78900146 839.59997559h5.42401123v1.68005371h-3.74401855v1.67999268h3.74401855v1.67999268h-3.74401855v3.35998535h-1.67999268v-8.40002441z"/><path d="m457.74398804 841.2800293h-3.69598389v-1.68005371h5.72399902v1.40405273l-3.66000366 6.99597168h-1.89599609z"/></g><g fill="#fff"><g opacity=".3"><path d="m991.93499756 639.59997559h-1.67999268v3.36004639h-3.684021v-3.36004639h-1.67999268v8.40002441h1.67999268v-3.35998535h3.684021v3.35998535h1.67999268z"/><path d="m1001.13000488 639.59997559h-5.42700195v8.40002441h5.42700195v-1.67999268h-3.74700928v-1.67999268h3.74700928v-1.67999268h-3.74700928v-1.67999268h3.74700928v-1.68005371z"/><path d="m1003.90002441 648h2.16998291l2.30999756-2.85601807 2.30999756 2.85601807h2.16998291l-3.39996338-4.20001221 3.39996338-4.20001221h-2.16998291l-2.32000732 2.85601807-2.30999756-2.85601807h-2.15997314l3.38995361 4.20001221-3.38995361 4.20001221z"/><path d="m1024.84997559 642.93597412-.22998047 1.5960083h-1.30999756l.23999023-1.5960083h1.29998779zm-.40002441 2.71203613-.33996582 2.35198975h1.11999512l.34997559-2.35198975h1.18005371l.17004395-1.11602783h-1.18005371l.23999023-1.5960083h1.16003418l.16992188-1.1159668h-1.15991211l.31994629-2.22003174h-1.14001465l-.31994629 2.22003174h-1.30004883l.33007813-2.22003174h-1.14007568l-.32995605 2.22003174h-1.2800293l-.16998291 1.1159668h1.27996826l-.2199707 1.5960083h-1.28997803l-.17004395 1.11602783h1.29003906l-.35003662 2.35198975h1.13000488l.35003662-2.35198975h1.29992676z"/><path d="m1034.38000488 639.59997559h-1.42004395l-3.02001953 2.96405029 1.16003418 1.2119751 1.59997559-1.57202148v5.79602051h1.68005371v-8.40002441z"/><path d="m1037.93994141 641.4119873 1.26000977 1.03198242c.07006836-.14398193.17004395-.28796387.2800293-.4319458.10998535-.13201904.23999023-.26403809.38000488-.37200928.13000488-.10803223.29003906-.1920166.45996094-.26403809.17004395-.05999756.35009766-.09594727.55004883-.09594727.33996582 0 .60998535.09594727.83996582.29998779.22009277.20397949.32006836.46795654.32006836.79199219 0 .22796631-.06005859.44396973-.18005371.6239624-.13000488.1920166-.27001953.37200928-.44995117.54003906l-3.2199707 3.11999512v1.34399414h5.52990723v-1.67999268h-2.82995605l1.83996582-1.7880249c.27001953-.27600098.51000977-.5880127.71008301-.95996094.18994141-.37200928.27990723-.80401611.27990723-1.29602051 0-.39599609-.06994629-.75598145-.19995117-1.09197998-.13000488-.32403564-.32006836-.61199951-.57995605-.84002686-.25-.22796631-.54003906-.41998291-.88000488-.55200195-.35009766-.13201904-.72009277-.1920166-1.14001465-.1920166-.42004395 0-.7800293.05999756-1.10998535.16802979-.32006836.11999512-.60009766.26397705-.84008789.44396973-.23999023.18005371-.43994141.3840332-.60998535.5880127-.16992188.21600342-.29992676.41998291-.41003418.61199951z"/><path d="m1051.06005859 639.59997559h-1.42004395l-3.02001953 2.96405029 1.16003418 1.2119751 1.59997559-1.57202148v5.79602051h1.68005371v-8.40002441z"/><path d="m1054.95996094 641.9039917c0 .40802002.09008789.7800293.29003906 1.10400391.18005371.33599854.44995117.59997559.81994629.79199219-.36999512.1920166-.65991211.45599365-.83996582.79199219-.17993164.33599854-.27001953.70800781-.27001953 1.10400391 0 .34802246.07006836.67199707.20007324.94799805.13000488.2880249.32995605.52801514.57995605.73199463.23999023.20404053.52001953.34802246.85998535.45599365.33996582.10803223.71008301.16802979 1.10998535.16802979.39001465 0 .76000977-.05999756 1.10998535-.16802979.34008789-.10797119.61999512-.25195313.88000488-.45599365.23999023-.20397949.43005371-.44396973.56005859-.73199463.13000488-.27600098.20996094-.59997559.20996094-.94799805 0-.38397217-.09997559-.74395752-.2800293-1.07995605-.18994141-.33599854-.47998047-.61199951-.86999512-.81604004.39001465-.20397949.68005371-.47998047.86999512-.815979.18005371-.33599854.2800293-.69598389.2800293-1.09197998 0-.34802246-.07995605-.66003418-.20996094-.94805908-.13000488-.27593994-.32006836-.51599121-.56005859-.7199707-.26000977-.20397949-.53991699-.35998535-.88000488-.46801758-.34997559-.10797119-.7199707-.15600586-1.10998535-.15600586-.39990234 0-.77001953.04803467-1.10998535.15600586-.33996582.10803223-.61999512.26403809-.85998535.46801758-.25.20397949-.44995117.44403076-.57995605.7199707-.13000488.2880249-.20007324.61206055-.20007324.96002197zm3.83007813.20397949c0 .26403809-.10009766.46801758-.30004883.62402344-.20996094.15600586-.4699707.22802734-.77001953.22802734-.31994629 0-.56994629-.07202148-.77001953-.22802734-.20996094-.15600586-.30993652-.35998535-.30993652-.62402344 0-.25195313.08996582-.44396973.29003906-.59997559.18994141-.15600586.44995117-.22796631.78991699-.22796631.32006836 0 .59008789.07196045.7800293.22796631s.29003906.34802246.29003906.59997559zm0 3.3840332c0 .25201416-.10009766.44396973-.29003906.59997559s-.45996094.22802734-.7800293.22802734c-.33996582 0-.59997559-.07202148-.78991699-.22802734-.20007324-.15600586-.29003906-.34796143-.29003906-.59997559 0-.27600098.09997559-.47998047.30993652-.63598633.20007324-.14404297.45007324-.21600342.77001953-.21600342.30004883 0 .56005859.07196045.77001953.21600342.19995117.15600586.30004883.35998535.30004883.63598633z"/><path d="m1063.56994629 640.95599365 1.14001465 1.27203369c.19006348-.31201172.43005371-.55200195.72998047-.70800781.29003906-.15600586.59008789-.23999023.89001465-.23999023.35009766 0 .64001465.07196045.84008789.21594238.19995117.15600586.30993652.36004639.30993652.62402344 0 .25201416-.08996582.45599365-.29003906.61199951-.19995117.15600586-.47998047.22802734-.81994629.23999023h-.64001465v1.64404297h.64001465c.33996582.01196289.61999512.08398438.81994629.23999023.20007324.15600586.29003906.35998535.29003906.61199951 0 .27600098-.08996582.47998047-.29992676.6239624-.20007324.15600586-.4901123.22802734-.85009766.22802734-.30993652 0-.60998535-.08398438-.89990234-.23999023-.30004883-.15600586-.54003906-.39599609-.72009277-.72003174l-1.14990234 1.24798584c.22998047.39605713.56994629.72003174 1.04992676.98400879.4699707.27600098 1.05004883.40802002 1.70996094.40802002.44006348 0 .85009766-.05999756 1.20007324-.16802979.34997559-.10797119.65002441-.27593994.90002441-.47998047.23999023-.20397949.41992188-.44396973.54992676-.73199463s.19006348-.59997559.19006348-.94799805c0-.25201416-.0300293-.49200439-.09008789-.69598389-.07995605-.20404053-.15991211-.3840332-.26989746-.54003906-.11010742-.15594482-.23999023-.27600098-.36999512-.38397217-.14001465-.10803223-.29003906-.1920166-.44006348-.25201416.14001465-.05999756.2800293-.14398193.43005371-.25201416.14001465-.10797119.26989746-.23999023.38000488-.39599609.10998535-.15600586.18994141-.33599854.26989746-.53997803.06005859-.20397949.09008789-.43200684.09008789-.684021 0-.33599854-.06005859-.64794922-.19006348-.93597412-.13000488-.27600098-.30993652-.52801514-.54992676-.73199463-.25-.20397949-.55004883-.37200928-.90002441-.49200439-.34997559-.10803223-.76000977-.16802979-1.20007324-.16802979-.32995605 0-.63989258.03601074-.90991211.10803223-.29003906.07202148-.56005859.16796875-.7800293.28796387-.23999023.13201904-.44995117.27600098-.63000488.43200684-.18005371.16802979-.31994629.34802246-.43005371.52801514z"/><path d="m1078.05004883 639.59997559h-5.21008301v4.57202148c.35998535-.08398438.69006348-.15600586 1.01000977-.20397949.31005859-.03601074.58007813-.05999756.81005859-.05999756.58996582 0 1.02001953.10797119 1.29992676.32397461.26000977.21600342.39001465.50402832.39001465.87597656 0 .20404053-.0300293.3840332-.09997559.54003906-.08996582.15600586-.18005371.27600098-.31994629.37200928-.13000488.10797119-.27001953.17999268-.44006348.22796631-.17993164.04803467-.35998535.07202148-.55004883.07202148-.28991699 0-.59997559-.04803467-.93994141-.15600586-.32995605-.0960083-.67004395-.23999023-.98999023-.43200684l-.70996094 1.51202393c.29992676.20397949.68994141.38397217 1.15991211.5279541.47009277.15600586.97009277.22802734 1.48999023.22802734.44006348 0 .85009766-.05999756 1.23999023-.1920166.37011719-.13195801.70007324-.31201172.98010254-.56396484.27990723-.23999023.48999023-.54003906.64990234-.91204834.15002441-.35998535.23010254-.77996826.23010254-1.25994873 0-.45599365-.08007813-.86401367-.22009277-1.21203613-.15991211-.34796143-.35998535-.64801025-.61999512-.88800049-.27001953-.23999023-.58996582-.41998291-.95996094-.55200195-.38000488-.11999512-.80004883-.17999268-1.25-.17999268-.08996582 0-.17004395 0-.2800293.01202393-.10998535.01196289-.17993164.02398682-.19995117.03601074v-1.00799561h3.5300293v-1.68005371z"/></g><g opacity=".3"><path d="m272.89099121 639.59997559h1.68002319v3.36004639h3.68399048v-3.36004639h1.67999268v8.40002441h-1.67999268v-3.35998535h-3.68399048v3.35998535h-1.68002319z"/><path d="m283.70300293 639.59997559h5.42401123v1.68005371h-3.74401855v1.67999268h3.74401855v1.67999268h-3.74401855v1.67999268h3.74401855v1.67999268h-5.42401123v-8.40002441z"/><path d="m295.29199219 643.79998779-3.39599609-4.20001221h2.16000366l2.31600952 2.85601807 2.315979-2.85601807h2.17199707l-3.39599609 4.20001221 3.39599609 4.20001221h-2.17199707l-2.315979-2.85601807-2.30401611 2.85601807h-2.17199707z"/><path d="m310.95800781 645.64801025-.34802246 2.35198975h-1.12799072l.34799194-2.35198975h-1.28399658l.16799927-1.11602783h1.28399658l.22802734-1.5960083h-1.2840271l.16799927-1.1159668h1.2840271l.32397461-2.22003174h1.14001465l-.33599854 2.22003174h1.3079834l.32400513-2.22003174h1.14001465l-.33599854 2.22003174h1.17599487l-.16799927 1.1159668h-1.16400146l-.23999023 1.5960083h1.17599487l-.16799927 1.11602783h-1.17599487l-.34802246 2.35198975h-1.12799072l.34799194-2.35198975zm.4079895-2.71203613-.23999023 1.5960083h1.3079834l.22799683-1.5960083h-1.29598999z"/><path d="m322.15499878 648c-.74398804 0-1.42401123-.17602539-2.04000854-.52801514-.60800171-.35198975-1.08798218-.84796143-1.44000244-1.48797607-.35198975-.64001465-.52798462-1.36798096-.52798462-2.184021 0-.815979.17599487-1.54400635.52798462-2.18395996.35202026-.64001465.83200073-1.13604736 1.44000244-1.48803711.61599731-.35198975 1.29602051-.52801514 2.04000854-.52801514s1.42001343.17602539 2.02801514.52801514c.61599731.35198975 1.09997559.84802246 1.45199585 1.48803711.35198975.63995361.52798462 1.36798096.52798462 2.18395996 0 .81604004-.17599487 1.54400635-.52798462 2.184021-.35202026.64001465-.83599854 1.13598633-1.45199585 1.48797607-.60800171.35198975-1.2840271.52801514-2.02801514.52801514zm0-1.67999268c.44799805 0 .84799194-.10003662 1.20001221-.29998779.35198975-.20800781.62799072-.50402832.82800293-.88800049.19998169-.3840332.29998779-.82800293.29998779-1.33203125 0-.50396729-.1000061-.94799805-.29998779-1.33197021-.20001221-.3840332-.47601318-.67602539-.82800293-.8760376-.35202026-.20800781-.75201416-.31195068-1.20001221-.31195068s-.84799194.10394287-1.20001221.31195068c-.35198975.20001221-.62799072.49200439-.82797241.8760376-.20001221.38397217-.30001831.82800293-.30001831 1.33197021 0 .50402832.1000061.94799805.30001831 1.33203125.19998169.38397217.47598267.67999268.82797241.88800049.35202026.19995117.75201416.29998779 1.20001221.29998779z"/><path d="m329.34298706 643.7880249c0-.78399658.184021-1.49603271.55200195-2.13604736.36801147-.63995361.87200928-1.13995361 1.51202393-1.5.63998413-.36798096 1.35598755-.55200195 2.14797974-.55200195.58401489 0 1.13201904.10003662 1.64401245.30004883.51998901.19195557.97998047.47198486 1.38000488.83996582l-.80401611 1.53601074c-.32000732-.32800293-.66400146-.57598877-1.03198242-.74401855-.36001587-.16796875-.76000977-.25195313-1.20001221-.25195313-.48001099 0-.9119873.10797119-1.29598999.32397461-.38400269.20800781-.684021.50396729-.90002441.88800049-.2159729.38397217-.32397461.82000732-.32397461 1.3079834 0 .48803711.10800171.92401123.32397461 1.3079834.21600342.3840332.51202393.684021.88800049.90002441.38400269.20800781.81201172.31201172 1.2840271.31201172.91998291 0 1.70797729-.35601807 2.36398315-1.06799316l.82800293 1.55999756c-.86401367.79199219-1.92001343 1.18798828-3.16799927 1.18798828-.78399658 0-1.4960022-.184021-2.13598633-.55200195-.64001465-.36798096-1.14401245-.87200928-1.51202393-1.51202393-.36798096-.63995361-.55200195-1.35595703-.55200195-2.14794922z"/><path d="m343.48699951 648c-.74398804 0-1.42401123-.17602539-2.04000854-.52801514-.60800171-.35198975-1.08798218-.84796143-1.44000244-1.48797607-.35198975-.64001465-.52798462-1.36798096-.52798462-2.184021 0-.815979.17599487-1.54400635.52798462-2.18395996.35202026-.64001465.83200073-1.13604736 1.44000244-1.48803711.61599731-.35198975 1.29602051-.52801514 2.04000854-.52801514s1.42001343.17602539 2.02801514.52801514c.61599731.35198975 1.09997559.84802246 1.45199585 1.48803711.35198975.63995361.52798462 1.36798096.52798462 2.18395996 0 .81604004-.17599487 1.54400635-.52798462 2.184021-.35202026.64001465-.83599854 1.13598633-1.45199585 1.48797607-.60800171.35198975-1.2840271.52801514-2.02801514.52801514zm0-1.67999268c.44799805 0 .84799194-.10003662 1.20001221-.29998779.35198975-.20800781.62799072-.50402832.82800293-.88800049.19998169-.3840332.29998779-.82800293.29998779-1.33203125 0-.50396729-.1000061-.94799805-.29998779-1.33197021-.20001221-.3840332-.47601318-.67602539-.82800293-.8760376-.35202026-.20800781-.75201416-.31195068-1.20001221-.31195068s-.84799194.10394287-1.20001221.31195068c-.35198975.20001221-.62799072.49200439-.82797241.8760376-.20001221.38397217-.30001831.82800293-.30001831 1.33197021 0 .50402832.1000061.94799805.30001831 1.33203125.19998169.38397217.47598267.67999268.82797241.88800049.35202026.19995117.75201416.29998779 1.20001221.29998779z"/><path d="m351.03500366 639.59997559h3.57598877c.52001953 0 .96801758.10400391 1.34399414.31201172.37600708.20001221.66400146.4800415.86401367.84002686.20001221.35198975.29998779.75598145.29998779 1.2119751 0 .43200684-.09197998.8079834-.27600098 1.12799072-.18399048.31201172-.43997192.54803467-.76797485.70800781.32800293.16802979.58398438.4119873.76797485.73199463.184021.31201172.27600098.67999268.27600098 1.10400391 0 .45599365-.09997559.86401367-.29998779 1.22399902-.20001221.35198975-.48800659.63201904-.86401367.84002686-.37597656.20001221-.82397461.29998779-1.34399414.29998779h-3.57598877v-8.40002441zm3.54000854 3.36004639c.25598145 0 .46398926-.08001709.62399292-.24005127.16000366-.15997314.23999023-.36798096.23999023-.6239624 0-.23999023-.07998657-.43603516-.23999023-.5880127-.15200806-.15197754-.36001587-.22796631-.62399292-.22796631h-1.86001587v1.67999268zm0 3.35998535c.26397705 0 .47198486-.07202148.62399292-.21600342.16000366-.15197754.23999023-.35198975.23999023-.59997559 0-.26403809-.07998657-.4720459-.23999023-.62402344-.16000366-.16003418-.36801147-.23999023-.62399292-.23999023h-1.86001587v1.67999268z"/><path d="m364.29199219 648h-1.67999268v-5.79602051l-1.5960083 1.57202148-1.16400146-1.2119751 3.02401733-2.96405029h1.41598511v8.40002441z"/><path d="m373.8789978 644.98797607h1.24801636v1.68005371h-1.24801636v1.33197021h-1.67999268v-1.33197021h-4.36801147v-1.44000244l4.66799927-5.62805176h1.38000488zm-3.67199707 0h1.99200439v-2.4239502z"/></g><g opacity=".3"><path d="m1351.93005371 639.59997559h-1.68005371v3.36004639h-3.68005371v-3.36004639h-1.67993164v8.40002441h1.67993164v-3.35998535h3.68005371v3.35998535h1.68005371z"/><path d="m1361.13000488 639.59997559h-5.43005371v8.40002441h5.43005371v-1.67999268h-3.75v-1.67999268h3.75v-1.67999268h-3.75v-1.67999268h3.75v-1.68005371z"/><path d="m1363.90002441 648h2.16992188l2.31005859-2.85601807 2.30993652 2.85601807h2.17004395l-3.40002441-4.20001221 3.40002441-4.20001221h-2.17004395l-2.31994629 2.85601807-2.30993652-2.85601807h-2.16003418l3.39001465 4.20001221z"/><path d="m1384.84997559 642.93597412-.22998047 1.5960083h-1.30993652l.23999023-1.5960083zm-.40002441 2.71203613-.33996582 2.35198975h1.11999512l.34997559-2.35198975h1.18005371l.17004395-1.11602783h-1.18005371l.23999023-1.5960083h1.16003418l.16992188-1.1159668h-1.15991211l.31994629-2.22003174h-1.14001465l-.31994629 2.22003174h-1.30004883l.33007813-2.22003174h-1.14001465l-.33007813 2.22003174h-1.27990723l-.17004395 1.1159668h1.2800293l-.22009277 1.5960083h-1.28991699l-.17004395 1.11602783h1.29003906l-.34997559 2.35198975h1.13000488l.34997559-2.35198975z"/><path d="m1394.38000488 639.59997559h-1.42004395l-3.02001953 2.96405029 1.16003418 1.2119751 1.59997559-1.57202148v5.79602051h1.68005371v-8.40002441z"/><path d="m1398.20996094 643.79998779c0 .62402344.10009766 1.18798828.31005859 1.70404053.19995117.51599121.48999023.95996094.84997559 1.33197021s.7800293.64801025 1.27001953.85198975c.48999023.20404053 1.01000977.31201172 1.56994629.31201172.57006836 0 1.08007813-.10797119 1.58007813-.31201172.48999023-.20397949.90991211-.47998047 1.27001953-.85198975.35998535-.37200928.64990234-.815979.84997559-1.33197021.19995117-.51605225.30993652-1.08001709.30993652-1.70404053 0-.6239624-.10998535-1.20001221-.30993652-1.71600342-.20007324-.51599121-.48999023-.94799805-.84997559-1.32000732-.36010742-.37194824-.7800293-.65997314-1.27001953-.86395264-.5-.20404053-1.01000977-.30004883-1.58007813-.30004883-.55993652 0-1.07995605.0960083-1.56994629.30004883-.48999023.20397949-.91003418.49200439-1.27001953.86395264-.35998535.37200928-.65002441.80401611-.84997559 1.32000732-.20996094.51599121-.31005859 1.09204102-.31005859 1.71600342zm6.33007813 0c0 .3840332-.06005859.73199463-.17004395 1.04400635-.11999512.31201172-.2800293.57598877-.48999023.79199219-.19995117.22802734-.44995117.39599609-.72998047.50402832-.29003906.11999512-.59997559.17999268-.94006348.17999268-.32995605 0-.64001465-.05999756-.92993164-.17999268-.29003906-.10803223-.5300293-.27600098-.72998047-.50402832-.21008301-.21600342-.38000488-.47998047-.48010254-.79199219-.11999512-.31201172-.17993164-.65997314-.17993164-1.04400635 0-.38397217.05993652-.73199463.17993164-1.04400635.10009766-.31201172.27001953-.57598877.48010254-.80395508.19995117-.21600342.43994141-.3840332.72998047-.50402832.28991699-.10797119.59997559-.16796875.92993164-.16796875.34008789 0 .65002441.05999756.94006348.16796875.2800293.11999512.5300293.2880249.72998047.50402832.20996094.22796631.36999512.49194336.48999023.80395508.10998535.31201172.17004395.66003418.17004395 1.04400635z"/><path d="m1415.04003906 639.59997559h-5.21008301v4.57202148c.35998535-.08398438.70007324-.15600586 1.01000977-.20397949.31005859-.03601074.59008789-.05999756.82006836-.05999756.58996582 0 1.02001953.10797119 1.28991699.32397461.27001953.21600342.40002441.50402832.40002441.87597656 0 .20404053-.03991699.3840332-.10998535.54003906-.07995605.15600586-.17993164.27600098-.30993652.37200928-.13000488.10797119-.2800293.17999268-.44006348.22796631-.17993164.04803467-.35998535.07202148-.55993652.07202148-.2800293 0-.60009766-.04803467-.93005371-.15600586-.33996582-.0960083-.67004395-.23999023-1-.43200684l-.70996094 1.51202393c.29992676.20397949.69995117.38397217 1.16992188.5279541.47009277.15600586.97009277.22802734 1.48999023.22802734.44006348 0 .85009766-.05999756 1.23010254-.1920166.36999512-.13195801.70996094-.31201172.98999023-.56396484.26989746-.23999023.48999023-.54003906.64001465-.91204834.15991211-.35998535.22998047-.77996826.22998047-1.25994873 0-.45599365-.07006836-.86401367-.21008301-1.21203613-.15991211-.34796143-.35998535-.64801025-.63000488-.88800049-.26000977-.23999023-.58996582-.41998291-.95996094-.55200195-.36999512-.11999512-.79003906-.17999268-1.25-.17999268-.07995605 0-.16003418 0-.27001953.01202393-.10998535.01196289-.17993164.02398682-.20996094.03601074v-1.00799561h3.5300293v-1.68005371z"/><path d="m1421.0300293 645 1.42993164-3.0960083 1.43005371 3.0960083zm3.64001465 1.67999268.60998535 1.32000732h1.84997559l-3.89001465-8.40002441h-1.55993652l-3.89001465 8.40002441h1.84997559l.60998535-1.32000732h4.42004395z"/><path d="m1429.93005371 641.9039917c0 .40802002.09997559.7800293.28991699 1.10400391.18005371.33599854.45007324.59997559.83007813.79199219-.38000488.1920166-.66003418.45599365-.84008789.79199219-.17993164.33599854-.27990723.70800781-.27990723 1.10400391 0 .34802246.06994629.67199707.19995117.94799805.14001465.2880249.32995605.52801514.57995605.73199463.23999023.20404053.5300293.34802246.85998535.45599365.34008789.10803223.71008301.16802979 1.11010742.16802979.38989258 0 .76989746-.05999756 1.10998535-.16802979.33996582-.10797119.63000488-.25195313.88000488-.45599365.23999023-.20397949.42993164-.44396973.55993652-.73199463.14001465-.27600098.20996094-.59997559.20996094-.94799805 0-.38397217-.09997559-.74395752-.27990723-1.07995605-.19006348-.33599854-.47998047-.61199951-.85998535-.81604004.38000488-.20397949.66992188-.47998047.85998535-.815979.17993164-.33599854.27990723-.69598389.27990723-1.09197998 0-.34802246-.06994629-.66003418-.20996094-.94805908-.13000488-.27593994-.31994629-.51599121-.55993652-.7199707-.25-.20397949-.54003906-.35998535-.88000488-.46801758-.34008789-.10797119-.72009277-.15600586-1.10998535-.15600586-.40002441 0-.77001953.04803467-1.11010742.15600586-.32995605.10803223-.61999512.26403809-.85998535.46801758-.25.20397949-.43994141.44403076-.57995605.7199707-.13000488.2880249-.19995117.61206055-.19995117.96002197zm3.82995605.20397949c0 .26403809-.09997559.46801758-.30004883.62402344-.20996094.15600586-.4699707.22802734-.77001953.22802734-.30993652 0-.55993652-.07202148-.76989746-.22802734-.20007324-.15600586-.31005859-.35998535-.31005859-.62402344 0-.25195313.09997559-.44396973.29003906-.59997559.18994141-.15600586.44995117-.22796631.78991699-.22796631.32006836 0 .59008789.07196045.7800293.22796631.19006348.15600586.29003906.34802246.29003906.59997559zm0 3.3840332c0 .25201416-.09997559.44396973-.29003906.59997559-.18994141.15600586-.45996094.22802734-.7800293.22802734-.33996582 0-.59997559-.07202148-.78991699-.22802734-.19006348-.15600586-.29003906-.34796143-.29003906-.59997559 0-.27600098.10998535-.47998047.31005859-.63598633.20996094-.14404297.45996094-.21600342.76989746-.21600342.30004883 0 .56005859.07196045.77001953.21600342.20007324.15600586.30004883.35998535.30004883.63598633z"/><path d="m1441.72998047 648c.40002441 0 .7800293-.07202148 1.13000488-.20397949.34997559-.13201904.65002441-.32403564.90002441-.5760498.25-.25195313.44995117-.55194092.58996582-.9119873.14001465-.34796143.2199707-.74395752.2199707-1.17596436s-.07995605-.82800293-.2199707-1.17602539-.33996582-.63598633-.58996582-.87597656-.54003906-.42004395-.85998535-.55200195c-.33996582-.13201904-.70007324-.1920166-1.07006836-.1920166-.19995117 0-.42993164.03601074-.65991211.10797119-.23999023.07202148-.46008301.16802979-.66003418.27600098v-.02398682c.01000977-.17999268.05993652-.34796143.14001465-.5279541.07995605-.16802979.17993164-.32403564.31994629-.45605469.13000488-.13195801.2800293-.22796631.47998047-.31195068.19006348-.08404541.40002441-.11999512.66003418-.11999512.25 0 .5.03594971.75.09594727.23999023.05999756.47998047.15600586.70996094.26403809l.66003418-1.52398682c-.36999512-.18005371-.7199707-.31201172-1.04003906-.39605713-.32995605-.08398438-.64990234-.11999512-.98999023-.11999512-.65991211 0-1.19995117.13201904-1.63989258.3840332-.45007324.25201416-.81005859.59997559-1.08007813 1.02001953-.2800293.41998291-.47998047.9119873-.59997559 1.45196533s-.18005371 1.10400391-.18005371 1.67999268c0 .51599121.05004883.99603271.13000488 1.41601563.08007813.43200684.23010254.815979.43005371 1.15197754.23999023.39599609.56994629.70800781.9699707.93603516.40002441.23999023.90002441.35998535 1.5.35998535zm-.05993652-3.98400879c.35998535 0 .64990234.10803223.88000488.31201172.22998047.20397949.33996582.47998047.33996582.82800293s-.10998535.63598633-.33996582.83996582c-.23010254.21600342-.52001953.32403564-.88000488.32403564-.34008789 0-.63000488-.10803223-.85998535-.31201172-.2401123-.20397949-.36010742-.47998047-.36010742-.83996582 0-.34802246.11999512-.62402344.35009766-.84002686.22998047-.20397949.51000977-.31201172.86999512-.31201172z"/><path d="m1462 647.5 5-4-5-4v3h-8v2h8z"/><path d="m1479.47998047 642.93597412-.22998047 1.5960083h-1.31005859l.2401123-1.5960083zm-.40002441 2.71203613-.34997559 2.35198975h1.13000488l.34997559-2.35198975h1.18005371l.16003418-1.11602783h-1.17004395l.23999023-1.5960083h1.16003418l.16992188-1.1159668h-1.15991211l.31994629-2.22003174h-1.14001465l-.31994629 2.22003174h-1.30004883l.32006836-2.22003174h-1.14001465l-.32006836 2.22003174h-1.27990723l-.17004395 1.1159668h1.2800293l-.22998047 1.5960083h-1.2800293l-.17004395 1.11602783h1.29003906l-.34997559 2.35198975h1.13000488l.33996582-2.35198975h1.30993652z"/><path d="m1489.01000977 639.59997559h-1.42004395l-3.02001953 2.96405029 1.16003418 1.2119751 1.59997559-1.57202148v5.79602051h1.68005371v-8.40002441z"/><path d="m1492.56994629 641.4119873 1.26000977 1.03198242c.07006836-.14398193.17004395-.28796387.2800293-.4319458.09997559-.13201904.23999023-.26403809.38000488-.37200928.13000488-.10803223.29003906-.1920166.45996094-.26403809.16003418-.05999756.34008789-.09594727.55004883-.09594727.32995605 0 .60998535.09594727.83996582.29998779.21008301.20397949.32006836.46795654.32006836.79199219 0 .22796631-.06005859.44396973-.18005371.6239624-.13000488.1920166-.27001953.37200928-.44995117.54003906l-3.2199707 3.11999512v1.34399414h5.52990723v-1.67999268h-2.82995605l1.83996582-1.7880249c.27001953-.27600098.51000977-.5880127.70007324-.95996094.19995117-.37200928.28991699-.80401611.28991699-1.29602051 0-.39599609-.06994629-.75598145-.19995117-1.09197998-.13000488-.32403564-.32995605-.61199951-.57995605-.84002686-.25-.22796631-.54003906-.41998291-.89001465-.55200195-.34008789-.13201904-.72009277-.1920166-1.14001465-.1920166-.42004395 0-.7800293.05999756-1.09997559.16802979-.32006836.11999512-.60009766.26397705-.84008789.44396973-.23999023.18005371-.43994141.3840332-.60998535.5880127-.16992188.21600342-.29992676.41998291-.41003418.61199951z"/><path d="m1505.68994141 639.59997559h-1.41992188l-3.02001953 2.96405029 1.16003418 1.2119751 1.59997559-1.57202148v5.79602051h1.67993164v-8.40002441z"/><path d="m1509.58996582 641.9039917c0 .40802002.09008789.7800293.2800293 1.10400391.18005371.33599854.45996094.59997559.82995605.79199219-.36999512.1920166-.65991211.45599365-.83996582.79199219-.17993164.33599854-.27001953.70800781-.27001953 1.10400391 0 .34802246.07006836.67199707.20007324.94799805.13000488.2880249.31994629.52801514.57995605.73199463.23999023.20404053.52001953.34802246.85998535.45599365.33996582.10803223.70996094.16802979 1.09997559.16802979.40002441 0 .77001953-.05999756 1.11999512-.16802979.34008789-.10797119.61999512-.25195313.88000488-.45599365.23999023-.20397949.43005371-.44396973.56005859-.73199463.13000488-.27600098.19995117-.59997559.19995117-.94799805 0-.38397217-.08996582-.74395752-.27001953-1.07995605-.18994141-.33599854-.47998047-.61199951-.86999512-.81604004.39001465-.20397949.68005371-.47998047.86999512-.815979.18005371-.33599854.27001953-.69598389.27001953-1.09197998 0-.34802246-.06994629-.66003418-.19995117-.94805908-.13000488-.27593994-.32006836-.51599121-.56005859-.7199707-.26000977-.20397949-.53991699-.35998535-.88000488-.46801758-.34997559-.10797119-.7199707-.15600586-1.11999512-.15600586-.39001465 0-.76000977.04803467-1.09997559.15600586-.33996582.10803223-.61999512.26403809-.85998535.46801758-.26000977.20397949-.44995117.44403076-.57995605.7199707-.13000488.2880249-.20007324.61206055-.20007324.96002197zm3.82006836.20397949c0 .26403809-.09008789.46801758-.30004883.62402344-.19995117.15600586-.45996094.22802734-.76000977.22802734-.31994629 0-.56994629-.07202148-.77001953-.22802734-.20996094-.15600586-.30993652-.35998535-.30993652-.62402344 0-.25195313.08996582-.44396973.2800293-.59997559.19995117-.15600586.45996094-.22796631.79992676-.22796631.32006836 0 .58007813.07196045.7800293.22796631.18994141.15600586.2800293.34802246.2800293.59997559zm0 3.3840332c0 .25201416-.09008789.44396973-.2800293.59997559-.19995117.15600586-.45996094.22802734-.7800293.22802734-.33996582 0-.59997559-.07202148-.79992676-.22802734-.19006348-.15600586-.2800293-.34796143-.2800293-.59997559 0-.27600098.09997559-.47998047.30993652-.63598633.20007324-.14404297.45007324-.21600342.77001953-.21600342.30004883 0 .56005859.07196045.76000977.21600342.20996094.15600586.30004883.35998535.30004883.63598633z"/><path d="m1518.19995117 640.95599365 1.14001465 1.27203369c.19006348-.31201172.43005371-.55200195.72998047-.70800781.29003906-.15600586.59008789-.23999023.89001465-.23999023.35009766 0 .64001465.07196045.84008789.21594238.19995117.15600586.30993652.36004639.30993652.62402344 0 .25201416-.08996582.45599365-.29003906.61199951-.19995117.15600586-.47998047.22802734-.81994629.23999023h-.64001465v1.64404297h.64001465c.33996582.01196289.61999512.08398438.81994629.23999023.20007324.15600586.29003906.35998535.29003906.61199951 0 .27600098-.08996582.47998047-.29992676.6239624-.20007324.15600586-.4901123.22802734-.85009766.22802734-.30993652 0-.60998535-.08398438-.89990234-.23999023-.30004883-.15600586-.54003906-.39599609-.72009277-.72003174l-1.15002441 1.24798584c.23010254.39605713.57006836.72003174 1.05004883.98400879.4699707.27600098 1.05004883.40802002 1.70996094.40802002.44006348 0 .85009766-.05999756 1.20007324-.16802979.34997559-.10797119.65002441-.27593994.90002441-.47998047.23999023-.20397949.41992188-.44396973.54992676-.73199463s.19006348-.59997559.19006348-.94799805c0-.25201416-.0300293-.49200439-.09008789-.69598389-.07995605-.20404053-.15991211-.3840332-.26989746-.54003906-.11010742-.15594482-.2401123-.27600098-.36999512-.38397217-.14001465-.10803223-.29003906-.1920166-.44006348-.25201416.14001465-.05999756.2800293-.14398193.43005371-.25201416.13989258-.10797119.26989746-.23999023.38000488-.39599609.10998535-.15600586.18994141-.33599854.26989746-.53997803.06005859-.20397949.09008789-.43200684.09008789-.684021 0-.33599854-.06005859-.64794922-.19006348-.93597412-.13000488-.27600098-.30993652-.52801514-.54992676-.73199463-.25-.20397949-.55004883-.37200928-.90002441-.49200439-.34997559-.10803223-.76000977-.16802979-1.20007324-.16802979-.32995605 0-.63989258.03601074-.90991211.10803223-.29003906.07202148-.56005859.16796875-.7800293.28796387-.23999023.13201904-.44995117.27600098-.63000488.43200684-.18005371.16802979-.31994629.34802246-.43005371.52801514z"/><path d="m1530.07995605 648c.40002441 0 .7800293-.07202148 1.13000488-.20397949.35009766-.13201904.65002441-.32403564.90002441-.5760498.25-.25195313.44006348-.55194092.58996582-.9119873.14001465-.34796143.21008301-.74395752.21008301-1.17596436s-.07006836-.82800293-.21008301-1.17602539c-.14990234-.34802246-.33996582-.63598633-.58996582-.87597656s-.54003906-.42004395-.85998535-.55200195c-.33996582-.13201904-.69995117-.1920166-1.06994629-.1920166-.21008301 0-.43005371.03601074-.66003418.10797119-.23999023.07202148-.45996094.16802979-.66003418.27600098v-.02398682c.01000977-.17999268.06005859-.34796143.14001465-.5279541.06994629-.16802979.18005371-.32403564.31005859-.45605469.13989258-.13195801.28991699-.22796631.47998047-.31195068.19995117-.08404541.40991211-.11999512.65991211-.11999512.26000977 0 .51000977.03594971.76000977.09594727.23999023.05999756.47998047.15600586.71008301.26403809l.65991211-1.52398682c-.36999512-.18005371-.7199707-.31201172-1.04992676-.39605713-.32006836-.08398438-.64001465-.11999512-.97998047-.11999512-.66003418 0-1.20007324.13201904-1.64001465.3840332-.45007324.25201416-.81005859.59997559-1.08007813 1.02001953-.27990723.41998291-.47998047.9119873-.59997559 1.45196533s-.17993164 1.10400391-.17993164 1.67999268c0 .51599121.03991699.99603271.13000488 1.41601563.07995605.43200684.22998047.815979.42993164 1.15197754.23999023.39599609.56005859.70800781.9699707.93603516.40002441.23999023.90002441.35998535 1.5.35998535zm-.05993652-3.98400879c.35998535 0 .65002441.10803223.88000488.31201172s.32995605.47998047.32995605.82800293-.09997559.63598633-.32995605.83996582c-.22998047.21600342-.52001953.32403564-.88000488.32403564-.34997559 0-.63000488-.10803223-.85998535-.31201172-.23999023-.20397949-.35998535-.47998047-.35998535-.83996582 0-.34802246.11999512-.62402344.34997559-.84002686.2199707-.20397949.51000977-.31201172.86999512-.31201172z"/></g></g><g fill="#1f1f1f" opacity=".3"><path d="m240.53100586 207.78799438c0-.78399658.18399048-1.49598694.55198669-2.13600159.36801147-.63999939.87200928-1.13999939 1.51200867-1.5.63999939-.36799622 1.35600281-.55198669 2.147995-.55198669.58399963 0 1.13200378.09999084 1.64399719.29998779.52000427.19200134.98001099.47200012 1.38000488.8400116l-.80400085 1.53599548c-.31999207-.32800293-.66400146-.57600403-1.03199768-.7440033-.36000061-.16799927-.75999451-.2519989-1.19999695-.2519989-.47999573 0-.91200256.10800171-1.29600525.32400513-.38400269.20799255-.68399048.5039978-.8999939.88800049s-.32400513.81999207-.32400513 1.30799866c0 .48799133.10800171.92399597.32400513 1.30799866s.51199341.68400574.88800049.8999939c.38400269.20800781.81199646.31201172 1.28399658.31201172.91999817 0 1.70799255-.35600281 2.36399841-1.06800842l.82800293 1.55999756c-.86399841.79200745-1.91999817 1.18800354-3.16799927 1.18800354-.78399658 0-1.4960022-.18400574-2.13600159-.55200195s-1.14399719-.87199402-1.51200867-1.51199341c-.36799622-.63999939-.55198669-1.35600281-.55198669-2.14801025z"/><path d="m254.53300476 212c-.79200745 0-1.50801086-.17999268-2.14801025-.53999329-.63999939-.36801147-1.14399719-.87200928-1.51199341-1.51200867-.36000061-.63999939-.54000854-1.35600281-.54000854-2.147995 0-.79200745.18000793-1.50799561.54000854-2.14801025.36799622-.63999939.87199402-1.13999939 1.51199341-1.5.63999939-.36799622 1.35600281-.55198669 2.14801025-.55198669.79199219 0 1.50798035.18399048 2.147995.55198669.64001465.36000061 1.14001465.86000061 1.5 1.5.36801147.64001465.55200195 1.35600281.55200195 2.14801025 0 .79199219-.18399048 1.50799561-.55200195 2.147995-.35998535.63999939-.85998535 1.14399719-1.5 1.51200867-.64001465.36000061-1.35600281.53999329-2.147995.53999329zm0-1.67999268c.47999573 0 .91200256-.10800171 1.29598999-.32400513.38401794-.21600342.68400574-.51600647.90000916-.90000916.21600342-.38398743.32400513-.81599426.32400513-1.29598999 0-.48800659-.10800171-.91999817-.32400513-1.29600525-.21600342-.38400269-.51599121-.68399048-.90000916-.8999939-.38398743-.21600342-.81599426-.32400513-1.29598999-.32400513-.48800659 0-.92401123.10800171-1.30799866.32400513-.37600708.21600342-.67201233.51599121-.88800049.8999939-.21600342.37600708-.32400513.80799866-.32400513 1.29600525 0 .47999573.10800171.91200256.32400513 1.29598999.21598816.38400269.51199341.68400574.88800049.90000916.38398743.21600342.81999207.32400513 1.30799866.32400513z"/><path d="m262.02398682 203.6000061h1.68002319v6.72000122h3.815979v1.67999268h-5.4960022v-8.3999939z"/><path d="m273.69699097 212c-.79199219 0-1.50799561-.17999268-2.14797974-.53999329-.64001465-.36801147-1.14401245-.87200928-1.51202393-1.51200867-.35998535-.63999939-.53997803-1.35600281-.53997803-2.147995 0-.79200745.17999268-1.50799561.53997803-2.14801025.36801147-.63999939.87200928-1.13999939 1.51202393-1.5.63998413-.36799622 1.35598755-.55198669 2.14797974-.55198669.79202271 0 1.50799561.18399048 2.14801025.55198669.63998413.36000061 1.13998413.86000061 1.5 1.5.36801147.64001465.55200195 1.35600281.55200195 2.14801025 0 .79199219-.18399048 1.50799561-.55200195 2.147995-.36001587.63999939-.86001587 1.14399719-1.5 1.51200867-.64001465.36000061-1.35598755.53999329-2.14801025.53999329zm0-1.67999268c.48001099 0 .91201782-.10800171 1.29602051-.32400513s.68399048-.51600647.8999939-.90000916c.21600342-.38398743.32400513-.81599426.32400513-1.29598999 0-.48800659-.10800171-.91999817-.32400513-1.29600525-.21600342-.38400269-.51599121-.68399048-.8999939-.8999939s-.81600952-.32400513-1.29602051-.32400513c-.48797607 0-.92398071.10800171-1.3079834.32400513-.37600708.21600342-.67199707.51599121-.88800049.8999939-.21600342.37600708-.32400513.80799866-.32400513 1.29600525 0 .47999573.10800171.91200256.32400513 1.29598999.21600342.38400269.51199341.68400574.88800049.90000916.38400269.21600342.82000732.32400513 1.3079834.32400513z"/><path d="m285.71200562 212-1.80001831-2.80799866h-1.04397583v2.80799866h-1.68002319v-8.3999939h3.57601929c.51998901 0 .99200439.12399292 1.41598511.37199402.43200684.24000549.76800537.57600403 1.00799561 1.00799561.24801636.42401123.37200928.89601135.37200928 1.41600037 0 .60800171-.16400146 1.14801025-.49200439 1.62001038s-.76400757.80400085-1.3079834.99598694l2.0039978 2.98800659h-2.05200195zm-2.84399414-4.48800659h1.89599609c.32800293 0 .59597778-.10398865.8039856-.31199646.20800781-.21600342.31201172-.48399353.31201172-.80400085 0-.32800293-.10400391-.59599304-.31201172-.80400085-.20800781-.20799255-.47598267-.31199646-.8039856-.31199646h-1.89599609v2.23199463z"/><path d="m293.26300049 212c-.74398804 0-1.36401367-.18400574-1.85998535-.55200195-.48800659-.37599182-.80801392-.8999939-.96002197-1.57199097l1.51199341-.62400818c.16000366.71200562.5960083 1.06800842 1.30801392 1.06800842.32000732 0 .56799316-.06001282.74398804-.18000793.184021-.12800598.27600098-.31199646.27600098-.55200195 0-.17599487-.04800415-.31599426-.14398193-.41999817-.0960083-.11199951-.24401855-.21200562-.44400024-.30000305-.20001221-.08799744-.51199341-.20399475-.93600464-.34799194-.71200562-.2480011-1.26400757-.55999756-1.65600586-.93600464-.38400269-.38400269-.57598877-.8999939-.57598877-1.54800415 0-.74398804.24398804-1.33599854.73199463-1.77600098.4960022-.43998718 1.15200806-.6599884 1.96798706-.6599884.74401855 0 1.36001587.18798828 1.84802246.56399536.4960022.36799622.81997681.88800049.97198486 1.55999756l-1.51199341.62400818c-.08001709-.36000061-.22799683-.62800598-.44400024-.80400085-.20800781-.17601013-.4960022-.26400757-.86401367-.26400757-.31997681 0-.57199097.06399536-.75598145.19200134-.17599487.11999512-.26400757.30000305-.26400757.53999329 0 .17601013.04800415.32000732.14401245.43200684.09597778.10400391.24398804.19999695.44400024.28799438.19998169.0880127.51199341.20401001.93597412.3480072.71200562.2480011 1.26000977.56399536 1.64401245.94799805.39199829.37600708.5880127.88800049.5880127 1.53599548 0 .7440033-.24801636 1.33599854-.74401855 1.77600098-.48800659.44000244-1.13998413.66000366-1.95599365.66000366z"/></g></svg>