<svg width="1920" height="400" viewBox="0 0 1920 400" fill="none" xmlns="http://www.w3.org/2000/svg">
<rect width="1920" height="400" fill="#F2F2F2"/>
<path d="M563.944 214H569.544L585.344 241.6L601.094 214H606.694V249H600.994V225.85L587.744 249H582.894L569.644 225.85V249H563.944V214ZM610.983 236.5C610.983 234 611.55 231.75 612.683 229.75C613.85 227.75 615.433 226.2 617.433 225.1C619.467 223.967 621.733 223.4 624.233 223.4C626.733 223.4 628.983 223.967 630.983 225.1C633.017 226.2 634.6 227.75 635.733 229.75C636.9 231.75 637.483 234 637.483 236.5C637.483 239 636.9 241.25 635.733 243.25C634.6 245.25 633.017 246.817 630.983 247.95C628.983 249.05 626.733 249.6 624.233 249.6C621.733 249.6 619.467 249.05 617.433 247.95C615.433 246.817 613.85 245.25 612.683 243.25C611.55 241.25 610.983 239 610.983 236.5ZM631.933 236.5C631.933 234.167 631.217 232.283 629.783 230.85C628.35 229.383 626.5 228.65 624.233 228.65C621.967 228.65 620.117 229.383 618.683 230.85C617.25 232.283 616.533 234.167 616.533 236.5C616.533 238.833 617.25 240.733 618.683 242.2C620.117 243.633 621.967 244.35 624.233 244.35C626.5 244.35 628.35 243.633 629.783 242.2C631.217 240.733 631.933 238.833 631.933 236.5ZM665.078 249H659.628V245.45C658.661 246.783 657.444 247.817 655.978 248.55C654.511 249.25 652.878 249.6 651.078 249.6C648.811 249.6 646.778 249.05 644.978 247.95C643.211 246.85 641.828 245.317 640.828 243.35C639.861 241.35 639.378 239.067 639.378 236.5C639.378 233.933 639.861 231.667 640.828 229.7C641.828 227.7 643.211 226.15 644.978 225.05C646.744 223.95 648.761 223.4 651.028 223.4C654.561 223.4 657.428 224.8 659.628 227.6V214H665.078V249ZM652.428 228.55C650.194 228.55 648.378 229.283 646.978 230.75C645.611 232.217 644.928 234.133 644.928 236.5C644.928 238.867 645.611 240.783 646.978 242.25C648.378 243.717 650.194 244.45 652.428 244.45C654.661 244.45 656.461 243.733 657.828 242.3C659.194 240.833 659.878 238.9 659.878 236.5C659.878 234.1 659.194 232.183 657.828 230.75C656.461 229.283 654.661 228.55 652.428 228.55ZM668.749 236.6C668.749 234.133 669.265 231.9 670.299 229.9C671.332 227.9 672.799 226.317 674.699 225.15C676.599 223.983 678.799 223.4 681.299 223.4C683.832 223.4 686.015 223.967 687.849 225.1C689.682 226.2 691.065 227.75 691.999 229.75C692.965 231.75 693.449 234.033 693.449 236.6V238.15H674.249V238.2C674.482 240.233 675.315 241.8 676.749 242.9C678.182 244 679.849 244.55 681.749 244.55C684.649 244.55 687.149 243.467 689.249 241.3L691.799 245.65C690.632 246.817 689.215 247.767 687.549 248.5C685.882 249.233 683.965 249.6 681.799 249.6C679.165 249.6 676.865 249.067 674.899 248C672.932 246.9 671.415 245.367 670.349 243.4C669.282 241.433 668.749 239.167 668.749 236.6ZM687.549 234.05C687.382 232.25 686.749 230.833 685.649 229.8C684.582 228.733 683.099 228.2 681.199 228.2C679.265 228.2 677.715 228.717 676.549 229.75C675.382 230.75 674.632 232.183 674.299 234.05H687.549ZM702.287 227.95C703.887 224.917 706.337 223.4 709.637 223.4C710.47 223.4 711.287 223.5 712.087 223.7V229.45C711.087 229.217 710.17 229.1 709.337 229.1C706.937 229.1 705.187 229.817 704.087 231.25C703.02 232.683 702.487 234.783 702.487 237.55V249H697.087V224H702.287V227.95ZM715.032 224H720.282V227.8C721.215 226.333 722.382 225.233 723.782 224.5C725.215 223.767 726.799 223.4 728.532 223.4C731.399 223.4 733.615 224.3 735.182 226.1C736.782 227.867 737.582 230.383 737.582 233.65V249H732.082V234.6C732.082 232.633 731.615 231.133 730.682 230.1C729.749 229.033 728.399 228.5 726.632 228.5C724.599 228.5 723.049 229.25 721.982 230.75C720.949 232.217 720.432 234.367 720.432 237.2V249H715.032V224ZM755.89 229.4C756.557 227.433 757.79 225.95 759.59 224.95C761.39 223.917 763.69 223.4 766.49 223.4C773.457 223.4 776.94 226.65 776.94 233.15V249H771.54V245.55C770.674 246.85 769.557 247.85 768.19 248.55C766.824 249.25 765.29 249.6 763.59 249.6C761.09 249.6 759.057 248.867 757.49 247.4C755.924 245.933 755.14 244.05 755.14 241.75C755.14 239.583 755.857 237.817 757.29 236.45C758.724 235.05 760.674 234.233 763.14 234L770.09 233.3C770.624 233.267 770.99 233.167 771.19 233C771.424 232.8 771.54 232.517 771.54 232.15V231.6C771.54 230.533 771.107 229.717 770.24 229.15C769.374 228.55 768.157 228.25 766.59 228.25C764.857 228.25 763.44 228.6 762.34 229.3C761.24 229.967 760.54 230.917 760.24 232.15L755.89 229.4ZM764.34 238.35C763.207 238.483 762.324 238.833 761.69 239.4C761.057 239.967 760.74 240.7 760.74 241.6C760.74 242.6 761.107 243.4 761.84 244C762.574 244.567 763.574 244.85 764.84 244.85C766.74 244.85 768.324 244.283 769.59 243.15C770.89 241.983 771.54 240.567 771.54 238.9V237.45L764.34 238.35ZM781.759 224H787.009V227.8C787.942 226.333 789.109 225.233 790.509 224.5C791.942 223.767 793.525 223.4 795.259 223.4C798.125 223.4 800.342 224.3 801.909 226.1C803.509 227.867 804.309 230.383 804.309 233.65V249H798.809V234.6C798.809 232.633 798.342 231.133 797.409 230.1C796.475 229.033 795.125 228.5 793.359 228.5C791.325 228.5 789.775 229.25 788.709 230.75C787.675 232.217 787.159 234.367 787.159 237.2V249H781.759V224ZM833.761 249H828.311V245.45C827.345 246.783 826.128 247.817 824.661 248.55C823.195 249.25 821.561 249.6 819.761 249.6C817.495 249.6 815.461 249.05 813.661 247.95C811.895 246.85 810.511 245.317 809.511 243.35C808.545 241.35 808.061 239.067 808.061 236.5C808.061 233.933 808.545 231.667 809.511 229.7C810.511 227.7 811.895 226.15 813.661 225.05C815.428 223.95 817.445 223.4 819.711 223.4C823.245 223.4 826.111 224.8 828.311 227.6V214H833.761V249ZM821.111 228.55C818.878 228.55 817.061 229.283 815.661 230.75C814.295 232.217 813.611 234.133 813.611 236.5C813.611 238.867 814.295 240.783 815.661 242.25C817.061 243.717 818.878 244.45 821.111 244.45C823.345 244.45 825.145 243.733 826.511 242.3C827.878 240.833 828.561 238.9 828.561 236.5C828.561 234.1 827.878 232.183 826.511 230.75C825.145 229.283 823.345 228.55 821.111 228.55ZM857.738 227.95C859.338 224.917 861.788 223.4 865.088 223.4C865.921 223.4 866.738 223.5 867.538 223.7V229.45C866.538 229.217 865.621 229.1 864.788 229.1C862.388 229.1 860.638 229.817 859.538 231.25C858.471 232.683 857.938 234.783 857.938 237.55V249H852.538V224H857.738V227.95ZM867.317 236.6C867.317 234.133 867.834 231.9 868.867 229.9C869.901 227.9 871.367 226.317 873.267 225.15C875.167 223.983 877.367 223.4 879.867 223.4C882.401 223.4 884.584 223.967 886.417 225.1C888.251 226.2 889.634 227.75 890.567 229.75C891.534 231.75 892.017 234.033 892.017 236.6V238.15H872.817V238.2C873.051 240.233 873.884 241.8 875.317 242.9C876.751 244 878.417 244.55 880.317 244.55C883.217 244.55 885.717 243.467 887.817 241.3L890.367 245.65C889.201 246.817 887.784 247.767 886.117 248.5C884.451 249.233 882.534 249.6 880.367 249.6C877.734 249.6 875.434 249.067 873.467 248C871.501 246.9 869.984 245.367 868.917 243.4C867.851 241.433 867.317 239.167 867.317 236.6ZM886.117 234.05C885.951 232.25 885.317 230.833 884.217 229.8C883.151 228.733 881.667 228.2 879.767 228.2C877.834 228.2 876.284 228.717 875.117 229.75C873.951 230.75 873.201 232.183 872.867 234.05H886.117ZM903.031 249H897.631V228.6H892.131V224H897.631V222.65C897.631 219.517 898.398 217.2 899.931 215.7C901.464 214.167 903.548 213.4 906.181 213.4C907.148 213.4 908.598 213.533 910.531 213.8V218.8C909.031 218.533 907.864 218.4 907.031 218.4C905.598 218.4 904.564 218.767 903.931 219.5C903.331 220.2 903.031 221.367 903.031 223V224H910.231V228.6H903.031V249ZM920.231 249H914.831V224H920.231V249ZM917.481 220.6C916.381 220.6 915.464 220.25 914.731 219.55C914.031 218.817 913.681 217.9 913.681 216.8C913.681 215.7 914.031 214.8 914.731 214.1C915.464 213.367 916.381 213 917.481 213C918.581 213 919.481 213.367 920.181 214.1C920.914 214.8 921.281 215.7 921.281 216.8C921.281 217.9 920.914 218.817 920.181 219.55C919.481 220.25 918.581 220.6 917.481 220.6ZM925.954 224H931.204V227.8C932.137 226.333 933.304 225.233 934.704 224.5C936.137 223.767 937.721 223.4 939.454 223.4C942.321 223.4 944.537 224.3 946.104 226.1C947.704 227.867 948.504 230.383 948.504 233.65V249H943.004V234.6C943.004 232.633 942.537 231.133 941.604 230.1C940.671 229.033 939.321 228.5 937.554 228.5C935.521 228.5 933.971 229.25 932.904 230.75C931.871 232.217 931.354 234.367 931.354 237.2V249H925.954V224ZM952.257 236.6C952.257 234.133 952.773 231.9 953.807 229.9C954.84 227.9 956.307 226.317 958.207 225.15C960.107 223.983 962.307 223.4 964.807 223.4C967.34 223.4 969.523 223.967 971.357 225.1C973.19 226.2 974.573 227.75 975.507 229.75C976.473 231.75 976.957 234.033 976.957 236.6V238.15H957.757V238.2C957.99 240.233 958.823 241.8 960.257 242.9C961.69 244 963.357 244.55 965.257 244.55C968.157 244.55 970.657 243.467 972.757 241.3L975.307 245.65C974.14 246.817 972.723 247.767 971.057 248.5C969.39 249.233 967.473 249.6 965.307 249.6C962.673 249.6 960.373 249.067 958.407 248C956.44 246.9 954.923 245.367 953.857 243.4C952.79 241.433 952.257 239.167 952.257 236.6ZM971.057 234.05C970.89 232.25 970.257 230.833 969.157 229.8C968.09 228.733 966.607 228.2 964.707 228.2C962.773 228.2 961.223 228.717 960.057 229.75C958.89 230.75 958.14 232.183 957.807 234.05H971.057ZM1004.54 249H999.095V245.45C998.128 246.783 996.911 247.817 995.445 248.55C993.978 249.25 992.345 249.6 990.545 249.6C988.278 249.6 986.245 249.05 984.445 247.95C982.678 246.85 981.295 245.317 980.295 243.35C979.328 241.35 978.845 239.067 978.845 236.5C978.845 233.933 979.328 231.667 980.295 229.7C981.295 227.7 982.678 226.15 984.445 225.05C986.211 223.95 988.228 223.4 990.495 223.4C994.028 223.4 996.895 224.8 999.095 227.6V214H1004.54V249ZM991.895 228.55C989.661 228.55 987.845 229.283 986.445 230.75C985.078 232.217 984.395 234.133 984.395 236.5C984.395 238.867 985.078 240.783 986.445 242.25C987.845 243.717 989.661 244.45 991.895 244.45C994.128 244.45 995.928 243.733 997.295 242.3C998.661 240.833 999.345 238.9 999.345 236.5C999.345 234.1 998.661 232.183 997.295 230.75C995.928 229.283 994.128 228.55 991.895 228.55ZM1020.32 224H1026.47L1033.52 241.35L1040.57 224H1046.72L1035.62 249H1031.42L1020.32 224ZM1054.88 249H1049.48V224H1054.88V249ZM1052.13 220.6C1051.03 220.6 1050.11 220.25 1049.38 219.55C1048.68 218.817 1048.33 217.9 1048.33 216.8C1048.33 215.7 1048.68 214.8 1049.38 214.1C1050.11 213.367 1051.03 213 1052.13 213C1053.23 213 1054.13 213.367 1054.83 214.1C1055.56 214.8 1055.93 215.7 1055.93 216.8C1055.93 217.9 1055.56 218.817 1054.83 219.55C1054.13 220.25 1053.23 220.6 1052.13 220.6ZM1059.88 231.05C1059.88 228.683 1060.76 226.817 1062.53 225.45C1064.33 224.083 1066.76 223.4 1069.83 223.4C1074.23 223.4 1077.53 224.933 1079.73 228L1076.08 231.45C1075.41 230.45 1074.5 229.683 1073.33 229.15C1072.16 228.617 1070.86 228.35 1069.43 228.35C1068.16 228.35 1067.16 228.567 1066.43 229C1065.73 229.433 1065.38 230.05 1065.38 230.85C1065.38 231.417 1065.56 231.867 1065.93 232.2C1066.33 232.5 1066.9 232.767 1067.63 233C1068.36 233.233 1069.58 233.55 1071.28 233.95C1073.18 234.417 1074.73 234.933 1075.93 235.5C1077.13 236.033 1078.06 236.8 1078.73 237.8C1079.43 238.767 1079.78 240.05 1079.78 241.65C1079.78 244.217 1078.9 246.183 1077.13 247.55C1075.36 248.917 1072.86 249.6 1069.63 249.6C1067.1 249.6 1064.85 249.167 1062.88 248.3C1060.95 247.4 1059.5 246.15 1058.53 244.55L1062.23 241C1063 242.167 1064.03 243.083 1065.33 243.75C1066.63 244.383 1068.2 244.7 1070.03 244.7C1071.4 244.7 1072.45 244.467 1073.18 244C1073.91 243.533 1074.28 242.85 1074.28 241.95C1074.28 241.35 1074.1 240.883 1073.73 240.55C1073.4 240.183 1072.86 239.883 1072.13 239.65C1071.43 239.417 1070.3 239.133 1068.73 238.8C1066 238.2 1063.83 237.35 1062.23 236.25C1060.66 235.15 1059.88 233.417 1059.88 231.05ZM1105.27 249H1100.07V245.3C1099.1 246.733 1097.98 247.817 1096.72 248.55C1095.45 249.25 1093.92 249.6 1092.12 249.6C1089.02 249.6 1086.73 248.683 1085.27 246.85C1083.8 244.983 1083.07 242.417 1083.07 239.15V224H1088.62V238.4C1088.62 240.4 1088.98 241.917 1089.72 242.95C1090.48 243.95 1091.77 244.45 1093.57 244.45C1095.8 244.45 1097.4 243.667 1098.37 242.1C1099.37 240.533 1099.87 238.433 1099.87 235.8V224H1105.27V249ZM1110.23 229.4C1110.89 227.433 1112.13 225.95 1113.93 224.95C1115.73 223.917 1118.03 223.4 1120.83 223.4C1127.79 223.4 1131.28 226.65 1131.28 233.15V249H1125.88V245.55C1125.01 246.85 1123.89 247.85 1122.53 248.55C1121.16 249.25 1119.63 249.6 1117.93 249.6C1115.43 249.6 1113.39 248.867 1111.83 247.4C1110.26 245.933 1109.48 244.05 1109.48 241.75C1109.48 239.583 1110.19 237.817 1111.63 236.45C1113.06 235.05 1115.01 234.233 1117.48 234L1124.43 233.3C1124.96 233.267 1125.33 233.167 1125.53 233C1125.76 232.8 1125.88 232.517 1125.88 232.15V231.6C1125.88 230.533 1125.44 229.717 1124.58 229.15C1123.71 228.55 1122.49 228.25 1120.93 228.25C1119.19 228.25 1117.78 228.6 1116.68 229.3C1115.58 229.967 1114.88 230.917 1114.58 232.15L1110.23 229.4ZM1118.68 238.35C1117.54 238.483 1116.66 238.833 1116.03 239.4C1115.39 239.967 1115.08 240.7 1115.08 241.6C1115.08 242.6 1115.44 243.4 1116.18 244C1116.91 244.567 1117.91 244.85 1119.18 244.85C1121.08 244.85 1122.66 244.283 1123.93 243.15C1125.23 241.983 1125.88 240.567 1125.88 238.9V237.45L1118.68 238.35ZM1141.59 249H1136.09V214H1141.59V249ZM1165.86 249H1160.36V214H1165.86V249ZM1170.73 229.4C1171.39 227.433 1172.63 225.95 1174.43 224.95C1176.23 223.917 1178.53 223.4 1181.33 223.4C1188.29 223.4 1191.78 226.65 1191.78 233.15V249H1186.38V245.55C1185.51 246.85 1184.39 247.85 1183.03 248.55C1181.66 249.25 1180.13 249.6 1178.43 249.6C1175.93 249.6 1173.89 248.867 1172.33 247.4C1170.76 245.933 1169.98 244.05 1169.98 241.75C1169.98 239.583 1170.69 237.817 1172.13 236.45C1173.56 235.05 1175.51 234.233 1177.98 234L1184.93 233.3C1185.46 233.267 1185.83 233.167 1186.03 233C1186.26 232.8 1186.38 232.517 1186.38 232.15V231.6C1186.38 230.533 1185.94 229.717 1185.08 229.15C1184.21 228.55 1182.99 228.25 1181.43 228.25C1179.69 228.25 1178.28 228.6 1177.18 229.3C1176.08 229.967 1175.38 230.917 1175.08 232.15L1170.73 229.4ZM1179.18 238.35C1178.04 238.483 1177.16 238.833 1176.53 239.4C1175.89 239.967 1175.58 240.7 1175.58 241.6C1175.58 242.6 1175.94 243.4 1176.68 244C1177.41 244.567 1178.41 244.85 1179.68 244.85C1181.58 244.85 1183.16 244.283 1184.43 243.15C1185.73 241.983 1186.38 240.567 1186.38 238.9V237.45L1179.18 238.35ZM1196.6 224H1201.85V227.8C1202.78 226.333 1203.95 225.233 1205.35 224.5C1206.78 223.767 1208.36 223.4 1210.1 223.4C1212.96 223.4 1215.18 224.3 1216.75 226.1C1218.35 227.867 1219.15 230.383 1219.15 233.65V249H1213.65V234.6C1213.65 232.633 1213.18 231.133 1212.25 230.1C1211.31 229.033 1209.96 228.5 1208.2 228.5C1206.16 228.5 1204.61 229.25 1203.55 230.75C1202.51 232.217 1202 234.367 1202 237.2V249H1196.6V224ZM1222.9 236.45C1222.9 233.917 1223.4 231.667 1224.4 229.7C1225.4 227.7 1226.8 226.15 1228.6 225.05C1230.4 223.95 1232.47 223.4 1234.8 223.4C1236.6 223.4 1238.23 223.767 1239.7 224.5C1241.2 225.2 1242.35 226.183 1243.15 227.45V224H1248.6V247.5C1248.6 251.467 1247.5 254.483 1245.3 256.55C1243.13 258.617 1239.97 259.65 1235.8 259.65C1233.23 259.65 1231.03 259.233 1229.2 258.4C1227.37 257.6 1225.83 256.333 1224.6 254.6L1227.9 250.6C1229.8 253.333 1232.45 254.7 1235.85 254.7C1240.82 254.7 1243.3 252.25 1243.3 247.35V245.5C1242.47 246.733 1241.3 247.7 1239.8 248.4C1238.33 249.067 1236.7 249.4 1234.9 249.4C1232.5 249.4 1230.38 248.867 1228.55 247.8C1226.75 246.733 1225.35 245.233 1224.35 243.3C1223.38 241.333 1222.9 239.05 1222.9 236.45ZM1243.4 236.5C1243.4 234.067 1242.73 232.133 1241.4 230.7C1240.07 229.267 1238.28 228.55 1236.05 228.55C1233.78 228.55 1231.95 229.283 1230.55 230.75C1229.15 232.217 1228.45 234.133 1228.45 236.5C1228.45 238.867 1229.15 240.783 1230.55 242.25C1231.95 243.717 1233.78 244.45 1236.05 244.45C1238.28 244.45 1240.07 243.733 1241.4 242.3C1242.73 240.867 1243.4 238.933 1243.4 236.5ZM1276.27 249H1271.07V245.3C1270.1 246.733 1268.99 247.817 1267.72 248.55C1266.45 249.25 1264.92 249.6 1263.12 249.6C1260.02 249.6 1257.74 248.683 1256.27 246.85C1254.8 244.983 1254.07 242.417 1254.07 239.15V224H1259.62V238.4C1259.62 240.4 1259.99 241.917 1260.72 242.95C1261.49 243.95 1262.77 244.45 1264.57 244.45C1266.8 244.45 1268.4 243.667 1269.37 242.1C1270.37 240.533 1270.87 238.433 1270.87 235.8V224H1276.27V249ZM1281.23 229.4C1281.9 227.433 1283.13 225.95 1284.93 224.95C1286.73 223.917 1289.03 223.4 1291.83 223.4C1298.8 223.4 1302.28 226.65 1302.28 233.15V249H1296.88V245.55C1296.01 246.85 1294.9 247.85 1293.53 248.55C1292.16 249.25 1290.63 249.6 1288.93 249.6C1286.43 249.6 1284.4 248.867 1282.83 247.4C1281.26 245.933 1280.48 244.05 1280.48 241.75C1280.48 239.583 1281.2 237.817 1282.63 236.45C1284.06 235.05 1286.01 234.233 1288.48 234L1295.43 233.3C1295.96 233.267 1296.33 233.167 1296.53 233C1296.76 232.8 1296.88 232.517 1296.88 232.15V231.6C1296.88 230.533 1296.45 229.717 1295.58 229.15C1294.71 228.55 1293.5 228.25 1291.93 228.25C1290.2 228.25 1288.78 228.6 1287.68 229.3C1286.58 229.967 1285.88 230.917 1285.58 232.15L1281.23 229.4ZM1289.68 238.35C1288.55 238.483 1287.66 238.833 1287.03 239.4C1286.4 239.967 1286.08 240.7 1286.08 241.6C1286.08 242.6 1286.45 243.4 1287.18 244C1287.91 244.567 1288.91 244.85 1290.18 244.85C1292.08 244.85 1293.66 244.283 1294.93 243.15C1296.23 241.983 1296.88 240.567 1296.88 238.9V237.45L1289.68 238.35ZM1305.35 236.45C1305.35 233.917 1305.85 231.667 1306.85 229.7C1307.85 227.7 1309.25 226.15 1311.05 225.05C1312.85 223.95 1314.92 223.4 1317.25 223.4C1319.05 223.4 1320.68 223.767 1322.15 224.5C1323.65 225.2 1324.8 226.183 1325.6 227.45V224H1331.05V247.5C1331.05 251.467 1329.95 254.483 1327.75 256.55C1325.58 258.617 1322.42 259.65 1318.25 259.65C1315.68 259.65 1313.48 259.233 1311.65 258.4C1309.82 257.6 1308.28 256.333 1307.05 254.6L1310.35 250.6C1312.25 253.333 1314.9 254.7 1318.3 254.7C1323.27 254.7 1325.75 252.25 1325.75 247.35V245.5C1324.92 246.733 1323.75 247.7 1322.25 248.4C1320.78 249.067 1319.15 249.4 1317.35 249.4C1314.95 249.4 1312.83 248.867 1311 247.8C1309.2 246.733 1307.8 245.233 1306.8 243.3C1305.83 241.333 1305.35 239.05 1305.35 236.45ZM1325.85 236.5C1325.85 234.067 1325.18 232.133 1323.85 230.7C1322.52 229.267 1320.73 228.55 1318.5 228.55C1316.23 228.55 1314.4 229.283 1313 230.75C1311.6 232.217 1310.9 234.133 1310.9 236.5C1310.9 238.867 1311.6 240.783 1313 242.25C1314.4 243.717 1316.23 244.45 1318.5 244.45C1320.73 244.45 1322.52 243.733 1323.85 242.3C1325.18 240.867 1325.85 238.933 1325.85 236.5ZM1334.77 236.6C1334.77 234.133 1335.29 231.9 1336.32 229.9C1337.35 227.9 1338.82 226.317 1340.72 225.15C1342.62 223.983 1344.82 223.4 1347.32 223.4C1349.85 223.4 1352.04 223.967 1353.87 225.1C1355.7 226.2 1357.09 227.75 1358.02 229.75C1358.99 231.75 1359.47 234.033 1359.47 236.6V238.15H1340.27V238.2C1340.5 240.233 1341.34 241.8 1342.77 242.9C1344.2 244 1345.87 244.55 1347.77 244.55C1350.67 244.55 1353.17 243.467 1355.27 241.3L1357.82 245.65C1356.65 246.817 1355.24 247.767 1353.57 248.5C1351.9 249.233 1349.99 249.6 1347.82 249.6C1345.19 249.6 1342.89 249.067 1340.92 248C1338.95 246.9 1337.44 245.367 1336.37 243.4C1335.3 241.433 1334.77 239.167 1334.77 236.6ZM1353.57 234.05C1353.4 232.25 1352.77 230.833 1351.67 229.8C1350.6 228.733 1349.12 228.2 1347.22 228.2C1345.29 228.2 1343.74 228.717 1342.57 229.75C1341.4 230.75 1340.65 232.183 1340.32 234.05H1353.57ZM619.243 308.55C617.643 309.017 616.026 309.25 614.393 309.25C612.026 309.25 610.243 308.667 609.043 307.5C607.876 306.3 607.293 304.367 607.293 301.7V288.6H602.543V284H607.293V277.3H612.693V284H619.293V288.6H612.693V301.35C612.693 302.25 612.893 302.917 613.293 303.35C613.726 303.783 614.426 304 615.393 304C616.259 304 617.543 303.867 619.243 303.6V308.55ZM628.339 287.8C630.173 284.867 632.856 283.4 636.389 283.4C639.323 283.4 641.573 284.317 643.139 286.15C644.706 287.95 645.489 290.533 645.489 293.9V309H639.989V294.6C639.989 292.667 639.539 291.167 638.639 290.1C637.739 289.033 636.456 288.5 634.789 288.5C630.489 288.5 628.339 291.4 628.339 297.2V309H622.939V274H628.339V287.8ZM650.442 289.4C651.109 287.433 652.342 285.95 654.142 284.95C655.942 283.917 658.242 283.4 661.042 283.4C668.009 283.4 671.492 286.65 671.492 293.15V309H666.092V305.55C665.225 306.85 664.109 307.85 662.742 308.55C661.375 309.25 659.842 309.6 658.142 309.6C655.642 309.6 653.609 308.867 652.042 307.4C650.475 305.933 649.692 304.05 649.692 301.75C649.692 299.583 650.409 297.817 651.842 296.45C653.275 295.05 655.225 294.233 657.692 294L664.642 293.3C665.175 293.267 665.542 293.167 665.742 293C665.975 292.8 666.092 292.517 666.092 292.15V291.6C666.092 290.533 665.659 289.717 664.792 289.15C663.925 288.55 662.709 288.25 661.142 288.25C659.409 288.25 657.992 288.6 656.892 289.3C655.792 289.967 655.092 290.917 654.792 292.15L650.442 289.4ZM658.892 298.35C657.759 298.483 656.875 298.833 656.242 299.4C655.609 299.967 655.292 300.7 655.292 301.6C655.292 302.6 655.659 303.4 656.392 304C657.125 304.567 658.125 304.85 659.392 304.85C661.292 304.85 662.875 304.283 664.142 303.15C665.442 301.983 666.092 300.567 666.092 298.9V297.45L658.892 298.35ZM690.169 308.55C688.569 309.017 686.952 309.25 685.319 309.25C682.952 309.25 681.169 308.667 679.969 307.5C678.802 306.3 678.219 304.367 678.219 301.7V288.6H673.469V284H678.219V277.3H683.619V284H690.219V288.6H683.619V301.35C683.619 302.25 683.819 302.917 684.219 303.35C684.652 303.783 685.352 304 686.319 304C687.185 304 688.469 303.867 690.169 303.6V308.55ZM712.621 287.6C714.821 284.8 717.704 283.4 721.271 283.4C723.537 283.4 725.554 283.95 727.321 285.05C729.087 286.15 730.454 287.7 731.421 289.7C732.421 291.667 732.921 293.933 732.921 296.5C732.921 299.067 732.421 301.35 731.421 303.35C730.454 305.317 729.071 306.85 727.271 307.95C725.504 309.05 723.487 309.6 721.221 309.6C719.421 309.6 717.787 309.25 716.321 308.55C714.854 307.85 713.621 306.817 712.621 305.45V309H707.221V274H712.621V287.6ZM727.371 296.5C727.371 294.133 726.671 292.217 725.271 290.75C723.904 289.283 722.104 288.55 719.871 288.55C717.604 288.55 715.787 289.283 714.421 290.75C713.054 292.183 712.371 294.1 712.371 296.5C712.371 298.9 713.054 300.833 714.421 302.3C715.787 303.733 717.604 304.45 719.871 304.45C722.104 304.45 723.904 303.717 725.271 302.25C726.671 300.783 727.371 298.867 727.371 296.5ZM741.792 287.95C743.392 284.917 745.842 283.4 749.142 283.4C749.975 283.4 750.792 283.5 751.592 283.7V289.45C750.592 289.217 749.675 289.1 748.842 289.1C746.442 289.1 744.692 289.817 743.592 291.25C742.525 292.683 741.992 294.783 741.992 297.55V309H736.592V284H741.792V287.95ZM751.371 296.5C751.371 294 751.938 291.75 753.071 289.75C754.238 287.75 755.821 286.2 757.821 285.1C759.854 283.967 762.121 283.4 764.621 283.4C767.121 283.4 769.371 283.967 771.371 285.1C773.404 286.2 774.988 287.75 776.121 289.75C777.288 291.75 777.871 294 777.871 296.5C777.871 299 777.288 301.25 776.121 303.25C774.988 305.25 773.404 306.817 771.371 307.95C769.371 309.05 767.121 309.6 764.621 309.6C762.121 309.6 759.854 309.05 757.821 307.95C755.821 306.817 754.238 305.25 753.071 303.25C751.938 301.25 751.371 299 751.371 296.5ZM772.321 296.5C772.321 294.167 771.604 292.283 770.171 290.85C768.738 289.383 766.888 288.65 764.621 288.65C762.354 288.65 760.504 289.383 759.071 290.85C757.638 292.283 756.921 294.167 756.921 296.5C756.921 298.833 757.638 300.733 759.071 302.2C760.504 303.633 762.354 304.35 764.621 304.35C766.888 304.35 768.738 303.633 770.171 302.2C771.604 300.733 772.321 298.833 772.321 296.5ZM780.965 289.4C781.632 287.433 782.865 285.95 784.665 284.95C786.465 283.917 788.765 283.4 791.565 283.4C798.532 283.4 802.015 286.65 802.015 293.15V309H796.615V305.55C795.749 306.85 794.632 307.85 793.265 308.55C791.899 309.25 790.365 309.6 788.665 309.6C786.165 309.6 784.132 308.867 782.565 307.4C780.999 305.933 780.215 304.05 780.215 301.75C780.215 299.583 780.932 297.817 782.365 296.45C783.799 295.05 785.749 294.233 788.215 294L795.165 293.3C795.699 293.267 796.065 293.167 796.265 293C796.499 292.8 796.615 292.517 796.615 292.15V291.6C796.615 290.533 796.182 289.717 795.315 289.15C794.449 288.55 793.232 288.25 791.665 288.25C789.932 288.25 788.515 288.6 787.415 289.3C786.315 289.967 785.615 290.917 785.315 292.15L780.965 289.4ZM789.415 298.35C788.282 298.483 787.399 298.833 786.765 299.4C786.132 299.967 785.815 300.7 785.815 301.6C785.815 302.6 786.182 303.4 786.915 304C787.649 304.567 788.649 304.85 789.915 304.85C791.815 304.85 793.399 304.283 794.665 303.15C795.965 301.983 796.615 300.567 796.615 298.9V297.45L789.415 298.35ZM830.784 309H825.334V305.45C824.367 306.783 823.15 307.817 821.684 308.55C820.217 309.25 818.584 309.6 816.784 309.6C814.517 309.6 812.484 309.05 810.684 307.95C808.917 306.85 807.534 305.317 806.534 303.35C805.567 301.35 805.084 299.067 805.084 296.5C805.084 293.933 805.567 291.667 806.534 289.7C807.534 287.7 808.917 286.15 810.684 285.05C812.45 283.95 814.467 283.4 816.734 283.4C820.267 283.4 823.134 284.8 825.334 287.6V274H830.784V309ZM818.134 288.55C815.9 288.55 814.084 289.283 812.684 290.75C811.317 292.217 810.634 294.133 810.634 296.5C810.634 298.867 811.317 300.783 812.684 302.25C814.084 303.717 815.9 304.45 818.134 304.45C820.367 304.45 822.167 303.733 823.534 302.3C824.9 300.833 825.584 298.9 825.584 296.5C825.584 294.1 824.9 292.183 823.534 290.75C822.167 289.283 820.367 288.55 818.134 288.55ZM834.455 296.55C834.455 293.983 835.005 291.717 836.105 289.75C837.238 287.75 838.805 286.2 840.805 285.1C842.838 283.967 845.138 283.4 847.705 283.4C851.438 283.4 854.522 284.617 856.955 287.05L853.705 291.3C851.772 289.533 849.722 288.65 847.555 288.65C845.322 288.65 843.505 289.383 842.105 290.85C840.705 292.283 840.005 294.167 840.005 296.5C840.005 298.8 840.705 300.683 842.105 302.15C843.505 303.617 845.305 304.35 847.505 304.35C849.872 304.35 852.022 303.433 853.955 301.6L857.055 305.9C855.855 307.1 854.438 308.017 852.805 308.65C851.172 309.283 849.405 309.6 847.505 309.6C844.938 309.6 842.672 309.05 840.705 307.95C838.738 306.85 837.205 305.317 836.105 303.35C835.005 301.383 834.455 299.117 834.455 296.55ZM858.971 289.4C859.638 287.433 860.871 285.95 862.671 284.95C864.471 283.917 866.771 283.4 869.571 283.4C876.538 283.4 880.021 286.65 880.021 293.15V309H874.621V305.55C873.755 306.85 872.638 307.85 871.271 308.55C869.905 309.25 868.371 309.6 866.671 309.6C864.171 309.6 862.138 308.867 860.571 307.4C859.005 305.933 858.221 304.05 858.221 301.75C858.221 299.583 858.938 297.817 860.371 296.45C861.805 295.05 863.755 294.233 866.221 294L873.171 293.3C873.705 293.267 874.071 293.167 874.271 293C874.505 292.8 874.621 292.517 874.621 292.15V291.6C874.621 290.533 874.188 289.717 873.321 289.15C872.455 288.55 871.238 288.25 869.671 288.25C867.938 288.25 866.521 288.6 865.421 289.3C864.321 289.967 863.621 290.917 863.321 292.15L858.971 289.4ZM867.421 298.35C866.288 298.483 865.405 298.833 864.771 299.4C864.138 299.967 863.821 300.7 863.821 301.6C863.821 302.6 864.188 303.4 864.921 304C865.655 304.567 866.655 304.85 867.921 304.85C869.821 304.85 871.405 304.283 872.671 303.15C873.971 301.983 874.621 300.567 874.621 298.9V297.45L867.421 298.35ZM884.14 291.05C884.14 288.683 885.023 286.817 886.79 285.45C888.59 284.083 891.023 283.4 894.09 283.4C898.49 283.4 901.79 284.933 903.99 288L900.34 291.45C899.673 290.45 898.756 289.683 897.59 289.15C896.423 288.617 895.123 288.35 893.69 288.35C892.423 288.35 891.423 288.567 890.69 289C889.99 289.433 889.64 290.05 889.64 290.85C889.64 291.417 889.823 291.867 890.19 292.2C890.59 292.5 891.156 292.767 891.89 293C892.623 293.233 893.84 293.55 895.54 293.95C897.44 294.417 898.99 294.933 900.19 295.5C901.39 296.033 902.323 296.8 902.99 297.8C903.69 298.767 904.04 300.05 904.04 301.65C904.04 304.217 903.156 306.183 901.39 307.55C899.623 308.917 897.123 309.6 893.89 309.6C891.356 309.6 889.106 309.167 887.14 308.3C885.206 307.4 883.756 306.15 882.79 304.55L886.49 301C887.256 302.167 888.29 303.083 889.59 303.75C890.89 304.383 892.456 304.7 894.29 304.7C895.656 304.7 896.706 304.467 897.44 304C898.173 303.533 898.54 302.85 898.54 301.95C898.54 301.35 898.356 300.883 897.99 300.55C897.656 300.183 897.123 299.883 896.39 299.65C895.69 299.417 894.556 299.133 892.99 298.8C890.256 298.2 888.09 297.35 886.49 296.25C884.923 295.15 884.14 293.417 884.14 291.05ZM921.526 308.55C919.926 309.017 918.309 309.25 916.676 309.25C914.309 309.25 912.526 308.667 911.326 307.5C910.159 306.3 909.576 304.367 909.576 301.7V288.6H904.826V284H909.576V277.3H914.976V284H921.576V288.6H914.976V301.35C914.976 302.25 915.176 302.917 915.576 303.35C916.009 303.783 916.709 304 917.676 304C918.543 304 919.826 303.867 921.526 303.6V308.55ZM924.376 291.05C924.376 288.683 925.259 286.817 927.026 285.45C928.826 284.083 931.259 283.4 934.326 283.4C938.726 283.4 942.026 284.933 944.226 288L940.576 291.45C939.909 290.45 938.993 289.683 937.826 289.15C936.659 288.617 935.359 288.35 933.926 288.35C932.659 288.35 931.659 288.567 930.926 289C930.226 289.433 929.876 290.05 929.876 290.85C929.876 291.417 930.059 291.867 930.426 292.2C930.826 292.5 931.393 292.767 932.126 293C932.859 293.233 934.076 293.55 935.776 293.95C937.676 294.417 939.226 294.933 940.426 295.5C941.626 296.033 942.559 296.8 943.226 297.8C943.926 298.767 944.276 300.05 944.276 301.65C944.276 304.217 943.393 306.183 941.626 307.55C939.859 308.917 937.359 309.6 934.126 309.6C931.593 309.6 929.343 309.167 927.376 308.3C925.443 307.4 923.993 306.15 923.026 304.55L926.726 301C927.493 302.167 928.526 303.083 929.826 303.75C931.126 304.383 932.693 304.7 934.526 304.7C935.893 304.7 936.943 304.467 937.676 304C938.409 303.533 938.776 302.85 938.776 301.95C938.776 301.35 938.593 300.883 938.226 300.55C937.893 300.183 937.359 299.883 936.626 299.65C935.926 299.417 934.793 299.133 933.226 298.8C930.493 298.2 928.326 297.35 926.726 296.25C925.159 295.15 924.376 293.417 924.376 291.05ZM960.918 284H966.318V287.55C967.318 286.183 968.551 285.15 970.018 284.45C971.484 283.75 973.118 283.4 974.918 283.4C977.184 283.4 979.201 283.95 980.968 285.05C982.768 286.15 984.151 287.7 985.118 289.7C986.118 291.667 986.618 293.933 986.618 296.5C986.618 299.067 986.118 301.35 985.118 303.35C984.151 305.317 982.784 306.85 981.018 307.95C979.251 309.05 977.234 309.6 974.968 309.6C971.401 309.6 968.518 308.2 966.318 305.4V319H960.918V284ZM973.568 304.45C975.801 304.45 977.601 303.717 978.968 302.25C980.368 300.783 981.068 298.867 981.068 296.5C981.068 294.133 980.368 292.217 978.968 290.75C977.601 289.283 975.801 288.55 973.568 288.55C971.301 288.55 969.484 289.283 968.118 290.75C966.751 292.183 966.068 294.1 966.068 296.5C966.068 298.9 966.751 300.833 968.118 302.3C969.484 303.733 971.301 304.45 973.568 304.45ZM995.489 287.95C997.089 284.917 999.539 283.4 1002.84 283.4C1003.67 283.4 1004.49 283.5 1005.29 283.7V289.45C1004.29 289.217 1003.37 289.1 1002.54 289.1C1000.14 289.1 998.389 289.817 997.289 291.25C996.222 292.683 995.689 294.783 995.689 297.55V309H990.289V284H995.489V287.95ZM1005.07 296.5C1005.07 294 1005.63 291.75 1006.77 289.75C1007.93 287.75 1009.52 286.2 1011.52 285.1C1013.55 283.967 1015.82 283.4 1018.32 283.4C1020.82 283.4 1023.07 283.967 1025.07 285.1C1027.1 286.2 1028.68 287.75 1029.82 289.75C1030.98 291.75 1031.57 294 1031.57 296.5C1031.57 299 1030.98 301.25 1029.82 303.25C1028.68 305.25 1027.1 306.817 1025.07 307.95C1023.07 309.05 1020.82 309.6 1018.32 309.6C1015.82 309.6 1013.55 309.05 1011.52 307.95C1009.52 306.817 1007.93 305.25 1006.77 303.25C1005.63 301.25 1005.07 299 1005.07 296.5ZM1026.02 296.5C1026.02 294.167 1025.3 292.283 1023.87 290.85C1022.43 289.383 1020.58 288.65 1018.32 288.65C1016.05 288.65 1014.2 289.383 1012.77 290.85C1011.33 292.283 1010.62 294.167 1010.62 296.5C1010.62 298.833 1011.33 300.733 1012.77 302.2C1014.2 303.633 1016.05 304.35 1018.32 304.35C1020.58 304.35 1022.43 303.633 1023.87 302.2C1025.3 300.733 1026.02 298.833 1026.02 296.5ZM1042.59 309H1037.19V288.6H1031.69V284H1037.19V282.65C1037.19 279.517 1037.96 277.2 1039.49 275.7C1041.02 274.167 1043.11 273.4 1045.74 273.4C1046.71 273.4 1048.16 273.533 1050.09 273.8V278.8C1048.59 278.533 1047.42 278.4 1046.59 278.4C1045.16 278.4 1044.12 278.767 1043.49 279.5C1042.89 280.2 1042.59 281.367 1042.59 283V284H1049.79V288.6H1042.59V309ZM1049.45 296.6C1049.45 294.133 1049.97 291.9 1051 289.9C1052.04 287.9 1053.5 286.317 1055.4 285.15C1057.3 283.983 1059.5 283.4 1062 283.4C1064.54 283.4 1066.72 283.967 1068.55 285.1C1070.39 286.2 1071.77 287.75 1072.7 289.75C1073.67 291.75 1074.15 294.033 1074.15 296.6V298.15H1054.95V298.2C1055.19 300.233 1056.02 301.8 1057.45 302.9C1058.89 304 1060.55 304.55 1062.45 304.55C1065.35 304.55 1067.85 303.467 1069.95 301.3L1072.5 305.65C1071.34 306.817 1069.92 307.767 1068.25 308.5C1066.59 309.233 1064.67 309.6 1062.5 309.6C1059.87 309.6 1057.57 309.067 1055.6 308C1053.64 306.9 1052.12 305.367 1051.05 303.4C1049.99 301.433 1049.45 299.167 1049.45 296.6ZM1068.25 294.05C1068.09 292.25 1067.45 290.833 1066.35 289.8C1065.29 288.733 1063.8 288.2 1061.9 288.2C1059.97 288.2 1058.42 288.717 1057.25 289.75C1056.09 290.75 1055.34 292.183 1055 294.05H1068.25ZM1077.09 291.05C1077.09 288.683 1077.98 286.817 1079.74 285.45C1081.54 284.083 1083.98 283.4 1087.04 283.4C1091.44 283.4 1094.74 284.933 1096.94 288L1093.29 291.45C1092.63 290.45 1091.71 289.683 1090.54 289.15C1089.38 288.617 1088.08 288.35 1086.64 288.35C1085.38 288.35 1084.38 288.567 1083.64 289C1082.94 289.433 1082.59 290.05 1082.59 290.85C1082.59 291.417 1082.78 291.867 1083.14 292.2C1083.54 292.5 1084.11 292.767 1084.84 293C1085.58 293.233 1086.79 293.55 1088.49 293.95C1090.39 294.417 1091.94 294.933 1093.14 295.5C1094.34 296.033 1095.28 296.8 1095.94 297.8C1096.64 298.767 1096.99 300.05 1096.99 301.65C1096.99 304.217 1096.11 306.183 1094.34 307.55C1092.58 308.917 1090.08 309.6 1086.84 309.6C1084.31 309.6 1082.06 309.167 1080.09 308.3C1078.16 307.4 1076.71 306.15 1075.74 304.55L1079.44 301C1080.21 302.167 1081.24 303.083 1082.54 303.75C1083.84 304.383 1085.41 304.7 1087.24 304.7C1088.61 304.7 1089.66 304.467 1090.39 304C1091.13 303.533 1091.49 302.85 1091.49 301.95C1091.49 301.35 1091.31 300.883 1090.94 300.55C1090.61 300.183 1090.08 299.883 1089.34 299.65C1088.64 299.417 1087.51 299.133 1085.94 298.8C1083.21 298.2 1081.04 297.35 1079.44 296.25C1077.88 295.15 1077.09 293.417 1077.09 291.05ZM1099.58 291.05C1099.58 288.683 1100.46 286.817 1102.23 285.45C1104.03 284.083 1106.46 283.4 1109.53 283.4C1113.93 283.4 1117.23 284.933 1119.43 288L1115.78 291.45C1115.11 290.45 1114.2 289.683 1113.03 289.15C1111.86 288.617 1110.56 288.35 1109.13 288.35C1107.86 288.35 1106.86 288.567 1106.13 289C1105.43 289.433 1105.08 290.05 1105.08 290.85C1105.08 291.417 1105.26 291.867 1105.63 292.2C1106.03 292.5 1106.6 292.767 1107.33 293C1108.06 293.233 1109.28 293.55 1110.98 293.95C1112.88 294.417 1114.43 294.933 1115.63 295.5C1116.83 296.033 1117.76 296.8 1118.43 297.8C1119.13 298.767 1119.48 300.05 1119.48 301.65C1119.48 304.217 1118.6 306.183 1116.83 307.55C1115.06 308.917 1112.56 309.6 1109.33 309.6C1106.8 309.6 1104.55 309.167 1102.58 308.3C1100.65 307.4 1099.2 306.15 1098.23 304.55L1101.93 301C1102.7 302.167 1103.73 303.083 1105.03 303.75C1106.33 304.383 1107.9 304.7 1109.73 304.7C1111.1 304.7 1112.15 304.467 1112.88 304C1113.61 303.533 1113.98 302.85 1113.98 301.95C1113.98 301.35 1113.8 300.883 1113.43 300.55C1113.1 300.183 1112.56 299.883 1111.83 299.65C1111.13 299.417 1110 299.133 1108.43 298.8C1105.7 298.2 1103.53 297.35 1101.93 296.25C1100.36 295.15 1099.58 293.417 1099.58 291.05ZM1128.52 309H1123.12V284H1128.52V309ZM1125.77 280.6C1124.67 280.6 1123.75 280.25 1123.02 279.55C1122.32 278.817 1121.97 277.9 1121.97 276.8C1121.97 275.7 1122.32 274.8 1123.02 274.1C1123.75 273.367 1124.67 273 1125.77 273C1126.87 273 1127.77 273.367 1128.47 274.1C1129.2 274.8 1129.57 275.7 1129.57 276.8C1129.57 277.9 1129.2 278.817 1128.47 279.55C1127.77 280.25 1126.87 280.6 1125.77 280.6ZM1131.93 296.5C1131.93 294 1132.5 291.75 1133.63 289.75C1134.8 287.75 1136.38 286.2 1138.38 285.1C1140.41 283.967 1142.68 283.4 1145.18 283.4C1147.68 283.4 1149.93 283.967 1151.93 285.1C1153.96 286.2 1155.55 287.75 1156.68 289.75C1157.85 291.75 1158.43 294 1158.43 296.5C1158.43 299 1157.85 301.25 1156.68 303.25C1155.55 305.25 1153.96 306.817 1151.93 307.95C1149.93 309.05 1147.68 309.6 1145.18 309.6C1142.68 309.6 1140.41 309.05 1138.38 307.95C1136.38 306.817 1134.8 305.25 1133.63 303.25C1132.5 301.25 1131.93 299 1131.93 296.5ZM1152.88 296.5C1152.88 294.167 1152.16 292.283 1150.73 290.85C1149.3 289.383 1147.45 288.65 1145.18 288.65C1142.91 288.65 1141.06 289.383 1139.63 290.85C1138.2 292.283 1137.48 294.167 1137.48 296.5C1137.48 298.833 1138.2 300.733 1139.63 302.2C1141.06 303.633 1142.91 304.35 1145.18 304.35C1147.45 304.35 1149.3 303.633 1150.73 302.2C1152.16 300.733 1152.88 298.833 1152.88 296.5ZM1162.07 284H1167.32V287.8C1168.26 286.333 1169.42 285.233 1170.82 284.5C1172.26 283.767 1173.84 283.4 1175.57 283.4C1178.44 283.4 1180.66 284.3 1182.22 286.1C1183.82 287.867 1184.62 290.383 1184.62 293.65V309H1179.12V294.6C1179.12 292.633 1178.66 291.133 1177.72 290.1C1176.79 289.033 1175.44 288.5 1173.67 288.5C1171.64 288.5 1170.09 289.25 1169.02 290.75C1167.99 292.217 1167.47 294.367 1167.47 297.2V309H1162.07V284ZM1189.58 289.4C1190.24 287.433 1191.48 285.95 1193.28 284.95C1195.08 283.917 1197.38 283.4 1200.18 283.4C1207.14 283.4 1210.63 286.65 1210.63 293.15V309H1205.23V305.55C1204.36 306.85 1203.24 307.85 1201.88 308.55C1200.51 309.25 1198.98 309.6 1197.28 309.6C1194.78 309.6 1192.74 308.867 1191.18 307.4C1189.61 305.933 1188.83 304.05 1188.83 301.75C1188.83 299.583 1189.54 297.817 1190.98 296.45C1192.41 295.05 1194.36 294.233 1196.83 294L1203.78 293.3C1204.31 293.267 1204.68 293.167 1204.88 293C1205.11 292.8 1205.23 292.517 1205.23 292.15V291.6C1205.23 290.533 1204.79 289.717 1203.93 289.15C1203.06 288.55 1201.84 288.25 1200.28 288.25C1198.54 288.25 1197.13 288.6 1196.03 289.3C1194.93 289.967 1194.23 290.917 1193.93 292.15L1189.58 289.4ZM1198.03 298.35C1196.89 298.483 1196.01 298.833 1195.38 299.4C1194.74 299.967 1194.43 300.7 1194.43 301.6C1194.43 302.6 1194.79 303.4 1195.53 304C1196.26 304.567 1197.26 304.85 1198.53 304.85C1200.43 304.85 1202.01 304.283 1203.28 303.15C1204.58 301.983 1205.23 300.567 1205.23 298.9V297.45L1198.03 298.35ZM1220.95 309H1215.45V274H1220.95V309ZM1232.11 309H1226.71V284H1232.11V309ZM1229.36 280.6C1228.26 280.6 1227.34 280.25 1226.61 279.55C1225.91 278.817 1225.56 277.9 1225.56 276.8C1225.56 275.7 1225.91 274.8 1226.61 274.1C1227.34 273.367 1228.26 273 1229.36 273C1230.46 273 1231.36 273.367 1232.06 274.1C1232.79 274.8 1233.16 275.7 1233.16 276.8C1233.16 277.9 1232.79 278.817 1232.06 279.55C1231.36 280.25 1230.46 280.6 1229.36 280.6ZM1237.11 291.05C1237.11 288.683 1237.99 286.817 1239.76 285.45C1241.56 284.083 1243.99 283.4 1247.06 283.4C1251.46 283.4 1254.76 284.933 1256.96 288L1253.31 291.45C1252.64 290.45 1251.73 289.683 1250.56 289.15C1249.39 288.617 1248.09 288.35 1246.66 288.35C1245.39 288.35 1244.39 288.567 1243.66 289C1242.96 289.433 1242.61 290.05 1242.61 290.85C1242.61 291.417 1242.79 291.867 1243.16 292.2C1243.56 292.5 1244.13 292.767 1244.86 293C1245.59 293.233 1246.81 293.55 1248.51 293.95C1250.41 294.417 1251.96 294.933 1253.16 295.5C1254.36 296.033 1255.29 296.8 1255.96 297.8C1256.66 298.767 1257.01 300.05 1257.01 301.65C1257.01 304.217 1256.13 306.183 1254.36 307.55C1252.59 308.917 1250.09 309.6 1246.86 309.6C1244.33 309.6 1242.08 309.167 1240.11 308.3C1238.18 307.4 1236.73 306.15 1235.76 304.55L1239.46 301C1240.23 302.167 1241.26 303.083 1242.56 303.75C1243.86 304.383 1245.43 304.7 1247.26 304.7C1248.63 304.7 1249.68 304.467 1250.41 304C1251.14 303.533 1251.51 302.85 1251.51 301.95C1251.51 301.35 1251.33 300.883 1250.96 300.55C1250.63 300.183 1250.09 299.883 1249.36 299.65C1248.66 299.417 1247.53 299.133 1245.96 298.8C1243.23 298.2 1241.06 297.35 1239.46 296.25C1237.89 295.15 1237.11 293.417 1237.11 291.05ZM1281.4 288.2C1283.36 285 1286.33 283.4 1290.3 283.4C1293.33 283.4 1295.68 284.333 1297.35 286.2C1299.01 288.033 1299.85 290.7 1299.85 294.2V309H1294.4V294.6C1294.4 292.6 1293.95 291.083 1293.05 290.05C1292.18 289.017 1290.9 288.5 1289.2 288.5C1284.9 288.5 1282.75 291.4 1282.75 297.2V309H1277.35V294.6C1277.35 292.6 1276.9 291.083 1276 290.05C1275.1 289.017 1273.8 288.5 1272.1 288.5C1267.83 288.5 1265.7 291.4 1265.7 297.2V309H1260.3V284H1265.55V287.9C1267.15 284.9 1269.76 283.4 1273.4 283.4C1275.3 283.4 1276.91 283.8 1278.25 284.6C1279.61 285.4 1280.66 286.6 1281.4 288.2ZM1310.09 300.35C1311.33 300.35 1312.36 300.767 1313.19 301.6C1314.03 302.433 1314.44 303.467 1314.44 304.7C1314.44 305.933 1314.03 306.967 1313.19 307.8C1312.36 308.6 1311.33 309 1310.09 309C1308.86 309 1307.83 308.6 1306.99 307.8C1306.19 306.967 1305.79 305.933 1305.79 304.7C1305.79 303.467 1306.19 302.433 1306.99 301.6C1307.83 300.767 1308.86 300.35 1310.09 300.35Z" fill="black"/>
<path opacity="0.3" d="M854.947 353.6H857.911C858.695 353.6 859.403 353.784 860.035 354.152C860.667 354.512 861.163 355.012 861.523 355.652C861.883 356.284 862.063 357 862.063 357.8C862.063 358.6 861.883 359.32 861.523 359.96C861.163 360.592 860.667 361.092 860.035 361.46C859.403 361.82 858.695 362 857.911 362H854.947V353.6ZM857.911 360.632C858.447 360.632 858.927 360.512 859.351 360.272C859.775 360.024 860.103 359.688 860.335 359.264C860.575 358.832 860.695 358.344 860.695 357.8C860.695 357.256 860.575 356.772 860.335 356.348C860.103 355.916 859.775 355.58 859.351 355.34C858.927 355.092 858.447 354.968 857.911 354.968H856.315V360.632H857.911ZM865.432 353.6H870.724V354.968H866.8V357.116H870.724V358.484H866.8V360.632H870.724V362H865.432V353.6ZM876.591 362C875.879 362 875.283 361.82 874.803 361.46C874.331 361.092 874.015 360.584 873.855 359.936L875.091 359.396C875.195 359.812 875.371 360.124 875.619 360.332C875.867 360.532 876.195 360.632 876.603 360.632C876.987 360.632 877.283 360.548 877.491 360.38C877.707 360.212 877.815 359.972 877.815 359.66C877.815 359.444 877.759 359.268 877.647 359.132C877.535 358.988 877.379 358.868 877.179 358.772C876.979 358.676 876.675 358.556 876.267 358.412C875.795 358.244 875.391 358.068 875.055 357.884C874.727 357.692 874.459 357.44 874.251 357.128C874.043 356.808 873.939 356.416 873.939 355.952C873.939 355.24 874.175 354.672 874.647 354.248C875.127 353.816 875.755 353.6 876.531 353.6C877.243 353.6 877.839 353.784 878.319 354.152C878.799 354.512 879.119 355.016 879.279 355.664L878.043 356.204C877.843 355.38 877.339 354.968 876.531 354.968C876.147 354.968 875.847 355.052 875.631 355.22C875.415 355.388 875.307 355.628 875.307 355.94C875.307 356.156 875.363 356.336 875.475 356.48C875.587 356.616 875.743 356.732 875.943 356.828C876.151 356.924 876.459 357.044 876.867 357.188C877.339 357.356 877.739 357.536 878.067 357.728C878.395 357.912 878.663 358.164 878.871 358.484C879.079 358.796 879.183 359.184 879.183 359.648C879.183 360.36 878.947 360.932 878.475 361.364C878.003 361.788 877.375 362 876.591 362ZM882.674 353.6H884.042V362H882.674V353.6ZM887.405 357.812C887.405 357.012 887.585 356.292 887.945 355.652C888.305 355.012 888.809 354.512 889.457 354.152C890.105 353.784 890.837 353.6 891.653 353.6C892.237 353.6 892.781 353.7 893.285 353.9C893.789 354.1 894.245 354.388 894.653 354.764L894.005 356.048C893.325 355.328 892.521 354.968 891.593 354.968C891.049 354.968 890.561 355.088 890.129 355.328C889.705 355.568 889.373 355.904 889.133 356.336C888.893 356.76 888.773 357.248 888.773 357.8C888.773 358.36 888.893 358.856 889.133 359.288C889.373 359.712 889.709 360.044 890.141 360.284C890.573 360.524 891.065 360.644 891.617 360.644C892.257 360.644 892.805 360.468 893.261 360.116C893.725 359.764 894.005 359.292 894.101 358.7H891.305V357.332H895.673V357.62C895.673 358.5 895.505 359.272 895.169 359.936C894.833 360.6 894.361 361.112 893.753 361.472C893.153 361.824 892.461 362 891.677 362C890.853 362 890.117 361.82 889.469 361.46C888.821 361.092 888.313 360.592 887.945 359.96C887.585 359.32 887.405 358.604 887.405 357.812ZM898.897 353.6H900.157L905.125 359.72V353.6H906.493V362H905.233L900.265 355.892V362H898.897V353.6ZM921.802 360.536H917.026L916.354 362H914.854L918.754 353.6H920.086L923.986 362H922.486L921.802 360.536ZM921.166 359.168L919.414 355.388L917.662 359.168H921.166ZM926.099 357.788C926.099 357.004 926.283 356.292 926.651 355.652C927.019 355.012 927.523 354.512 928.163 354.152C928.811 353.784 929.527 353.6 930.311 353.6C931.431 353.6 932.423 353.98 933.287 354.74L932.639 356.012C932.303 355.676 931.943 355.42 931.559 355.244C931.183 355.06 930.759 354.968 930.287 354.968C929.751 354.968 929.267 355.088 928.835 355.328C928.411 355.568 928.075 355.904 927.827 356.336C927.587 356.76 927.467 357.248 927.467 357.8C927.467 358.352 927.587 358.844 927.827 359.276C928.075 359.7 928.407 360.032 928.823 360.272C929.247 360.512 929.723 360.632 930.251 360.632C931.203 360.632 932.027 360.276 932.723 359.564L933.371 360.848C932.515 361.616 931.479 362 930.263 362C929.495 362 928.791 361.816 928.151 361.448C927.519 361.08 927.019 360.576 926.651 359.936C926.283 359.288 926.099 358.572 926.099 357.788ZM941.119 362L939.127 358.976H937.855V362H936.487V353.6H939.847C940.367 353.6 940.835 353.716 941.251 353.948C941.667 354.18 941.991 354.5 942.223 354.908C942.463 355.316 942.583 355.776 942.583 356.288C942.583 356.92 942.407 357.468 942.055 357.932C941.711 358.388 941.247 358.696 940.663 358.856L942.823 362H941.119ZM937.855 357.608H939.847C940.255 357.608 940.583 357.488 940.831 357.248C941.087 357 941.215 356.68 941.215 356.288C941.215 355.896 941.087 355.58 940.831 355.34C940.583 355.092 940.255 354.968 939.847 354.968H937.855V357.608ZM949.507 362C948.715 362 947.999 361.82 947.359 361.46C946.719 361.092 946.215 360.588 945.847 359.948C945.487 359.308 945.307 358.592 945.307 357.8C945.307 357.008 945.487 356.292 945.847 355.652C946.215 355.012 946.719 354.512 947.359 354.152C947.999 353.784 948.715 353.6 949.507 353.6C950.299 353.6 951.015 353.784 951.655 354.152C952.295 354.512 952.795 355.012 953.155 355.652C953.523 356.292 953.707 357.008 953.707 357.8C953.707 358.592 953.523 359.308 953.155 359.948C952.795 360.588 952.295 361.092 951.655 361.46C951.015 361.82 950.299 362 949.507 362ZM949.507 360.632C950.051 360.632 950.535 360.512 950.959 360.272C951.391 360.024 951.727 359.688 951.967 359.264C952.215 358.832 952.339 358.344 952.339 357.8C952.339 357.256 952.215 356.772 951.967 356.348C951.727 355.916 951.391 355.58 950.959 355.34C950.535 355.092 950.051 354.968 949.507 354.968C948.963 354.968 948.475 355.092 948.043 355.34C947.619 355.58 947.283 355.916 947.035 356.348C946.795 356.772 946.675 357.256 946.675 357.8C946.675 358.344 946.795 358.832 947.035 359.264C947.283 359.688 947.619 360.024 948.043 360.272C948.475 360.512 948.963 360.632 949.507 360.632ZM959.231 362C958.519 362 957.923 361.82 957.443 361.46C956.971 361.092 956.655 360.584 956.495 359.936L957.731 359.396C957.835 359.812 958.011 360.124 958.259 360.332C958.507 360.532 958.835 360.632 959.243 360.632C959.627 360.632 959.923 360.548 960.131 360.38C960.347 360.212 960.455 359.972 960.455 359.66C960.455 359.444 960.399 359.268 960.287 359.132C960.175 358.988 960.019 358.868 959.819 358.772C959.619 358.676 959.315 358.556 958.907 358.412C958.435 358.244 958.031 358.068 957.695 357.884C957.367 357.692 957.099 357.44 956.891 357.128C956.683 356.808 956.579 356.416 956.579 355.952C956.579 355.24 956.815 354.672 957.287 354.248C957.767 353.816 958.395 353.6 959.171 353.6C959.883 353.6 960.479 353.784 960.959 354.152C961.439 354.512 961.759 355.016 961.919 355.664L960.683 356.204C960.483 355.38 959.979 354.968 959.171 354.968C958.787 354.968 958.487 355.052 958.271 355.22C958.055 355.388 957.947 355.628 957.947 355.94C957.947 356.156 958.003 356.336 958.115 356.48C958.227 356.616 958.383 356.732 958.583 356.828C958.791 356.924 959.099 357.044 959.507 357.188C959.979 357.356 960.379 357.536 960.707 357.728C961.035 357.912 961.303 358.164 961.511 358.484C961.719 358.796 961.823 359.184 961.823 359.648C961.823 360.36 961.587 360.932 961.115 361.364C960.643 361.788 960.015 362 959.231 362ZM967.595 362C966.883 362 966.287 361.82 965.807 361.46C965.335 361.092 965.019 360.584 964.859 359.936L966.095 359.396C966.199 359.812 966.375 360.124 966.623 360.332C966.871 360.532 967.199 360.632 967.607 360.632C967.991 360.632 968.287 360.548 968.495 360.38C968.711 360.212 968.819 359.972 968.819 359.66C968.819 359.444 968.763 359.268 968.651 359.132C968.539 358.988 968.383 358.868 968.183 358.772C967.983 358.676 967.679 358.556 967.271 358.412C966.799 358.244 966.395 358.068 966.059 357.884C965.731 357.692 965.463 357.44 965.255 357.128C965.047 356.808 964.943 356.416 964.943 355.952C964.943 355.24 965.179 354.672 965.651 354.248C966.131 353.816 966.759 353.6 967.535 353.6C968.247 353.6 968.843 353.784 969.323 354.152C969.803 354.512 970.123 355.016 970.283 355.664L969.047 356.204C968.847 355.38 968.343 354.968 967.535 354.968C967.151 354.968 966.851 355.052 966.635 355.22C966.419 355.388 966.311 355.628 966.311 355.94C966.311 356.156 966.367 356.336 966.479 356.48C966.591 356.616 966.747 356.732 966.947 356.828C967.155 356.924 967.463 357.044 967.871 357.188C968.343 357.356 968.743 357.536 969.071 357.728C969.399 357.912 969.667 358.164 969.875 358.484C970.083 358.796 970.187 359.184 970.187 359.648C970.187 360.36 969.951 360.932 969.479 361.364C969.007 361.788 968.379 362 967.595 362ZM979.123 353.6H982.255C982.807 353.6 983.303 353.724 983.743 353.972C984.183 354.22 984.527 354.564 984.775 355.004C985.023 355.444 985.147 355.936 985.147 356.48C985.147 357.032 985.023 357.528 984.775 357.968C984.527 358.4 984.183 358.74 983.743 358.988C983.303 359.236 982.807 359.36 982.255 359.36H980.491V362H979.123V353.6ZM982.255 357.992C982.695 357.992 983.059 357.852 983.347 357.572C983.635 357.284 983.779 356.92 983.779 356.48C983.779 356.04 983.635 355.68 983.347 355.4C983.059 355.112 982.695 354.968 982.255 354.968H980.491V357.992H982.255ZM988.401 353.6H989.769V360.632H993.765V362H988.401V353.6ZM1003.05 360.536H998.272L997.6 362H996.1L1000 353.6H1001.33L1005.23 362H1003.73L1003.05 360.536ZM1002.41 359.168L1000.66 355.388L998.908 359.168H1002.41ZM1009.62 354.968H1006.44V353.6H1014.16V354.968H1010.99V362H1009.62V354.968ZM1017.15 353.6H1022.44V354.968H1018.51V357.116H1022.44V358.484H1018.51V362H1017.15V353.6ZM1029.36 362C1028.57 362 1027.85 361.82 1027.21 361.46C1026.57 361.092 1026.07 360.588 1025.7 359.948C1025.34 359.308 1025.16 358.592 1025.16 357.8C1025.16 357.008 1025.34 356.292 1025.7 355.652C1026.07 355.012 1026.57 354.512 1027.21 354.152C1027.85 353.784 1028.57 353.6 1029.36 353.6C1030.15 353.6 1030.87 353.784 1031.51 354.152C1032.15 354.512 1032.65 355.012 1033.01 355.652C1033.37 356.292 1033.56 357.008 1033.56 357.8C1033.56 358.592 1033.37 359.308 1033.01 359.948C1032.65 360.588 1032.15 361.092 1031.51 361.46C1030.87 361.82 1030.15 362 1029.36 362ZM1029.36 360.632C1029.9 360.632 1030.39 360.512 1030.81 360.272C1031.24 360.024 1031.58 359.688 1031.82 359.264C1032.07 358.832 1032.19 358.344 1032.19 357.8C1032.19 357.256 1032.07 356.772 1031.82 356.348C1031.58 355.916 1031.24 355.58 1030.81 355.34C1030.39 355.092 1029.9 354.968 1029.36 354.968C1028.81 354.968 1028.33 355.092 1027.89 355.34C1027.47 355.58 1027.13 355.916 1026.89 356.348C1026.65 356.772 1026.53 357.256 1026.53 357.8C1026.53 358.344 1026.65 358.832 1026.89 359.264C1027.13 359.688 1027.47 360.024 1027.89 360.272C1028.33 360.512 1028.81 360.632 1029.36 360.632ZM1041.56 362L1039.57 358.976H1038.3V362H1036.93V353.6H1040.29C1040.81 353.6 1041.28 353.716 1041.7 353.948C1042.11 354.18 1042.44 354.5 1042.67 354.908C1042.91 355.316 1043.03 355.776 1043.03 356.288C1043.03 356.92 1042.85 357.468 1042.5 357.932C1042.16 358.388 1041.69 358.696 1041.11 358.856L1043.27 362H1041.56ZM1038.3 357.608H1040.29C1040.7 357.608 1041.03 357.488 1041.28 357.248C1041.53 357 1041.66 356.68 1041.66 356.288C1041.66 355.896 1041.53 355.58 1041.28 355.34C1041.03 355.092 1040.7 354.968 1040.29 354.968H1038.3V357.608ZM1046.43 353.6H1047.78L1051.57 360.224L1055.35 353.6H1056.69V362H1055.32V356.444L1052.14 362H1050.98L1047.8 356.444V362H1046.43V353.6ZM1062.82 362C1062.11 362 1061.51 361.82 1061.03 361.46C1060.56 361.092 1060.24 360.584 1060.08 359.936L1061.32 359.396C1061.42 359.812 1061.6 360.124 1061.85 360.332C1062.09 360.532 1062.42 360.632 1062.83 360.632C1063.21 360.632 1063.51 360.548 1063.72 360.38C1063.93 360.212 1064.04 359.972 1064.04 359.66C1064.04 359.444 1063.99 359.268 1063.87 359.132C1063.76 358.988 1063.61 358.868 1063.41 358.772C1063.21 358.676 1062.9 358.556 1062.49 358.412C1062.02 358.244 1061.62 358.068 1061.28 357.884C1060.95 357.692 1060.69 357.44 1060.48 357.128C1060.27 356.808 1060.17 356.416 1060.17 355.952C1060.17 355.24 1060.4 354.672 1060.87 354.248C1061.35 353.816 1061.98 353.6 1062.76 353.6C1063.47 353.6 1064.07 353.784 1064.55 354.152C1065.03 354.512 1065.35 355.016 1065.51 355.664L1064.27 356.204C1064.07 355.38 1063.57 354.968 1062.76 354.968C1062.37 354.968 1062.07 355.052 1061.86 355.22C1061.64 355.388 1061.53 355.628 1061.53 355.94C1061.53 356.156 1061.59 356.336 1061.7 356.48C1061.81 356.616 1061.97 356.732 1062.17 356.828C1062.38 356.924 1062.69 357.044 1063.09 357.188C1063.57 357.356 1063.97 357.536 1064.29 357.728C1064.62 357.912 1064.89 358.164 1065.1 358.484C1065.31 358.796 1065.41 359.184 1065.41 359.648C1065.41 360.36 1065.17 360.932 1064.7 361.364C1064.23 361.788 1063.6 362 1062.82 362Z" fill="black"/>
</svg>
