<svg width="322" height="152" viewBox="0 0 322 152" fill="none" xmlns="http://www.w3.org/2000/svg">
<path fill-rule="evenodd" clip-rule="evenodd" d="M70.7465 91.4558L70.2958 89.7323L57.5785 42.4599C57.2327 41.1815 56.4743 40.052 55.4205 39.246C54.3667 38.4399 53.0759 38.0021 51.7476 38H19.1277C17.7995 38.0025 16.509 38.4405 15.4552 39.2465C14.4014 40.0525 13.643 41.1817 13.2968 42.4599L0.126408 91.4582C-0.0842322 92.2416 -0.0305161 93.0723 0.279273 93.8222C0.589061 94.5722 1.13772 95.1997 1.84067 95.6081L32.4181 113.196C33.3359 113.723 34.3763 114 35.4352 114C36.4941 114 37.5345 113.723 38.4523 113.196L67.4673 96.4967L69.0199 95.6057C69.7251 95.1991 70.2763 94.5723 70.5884 93.8222C70.9004 93.0721 70.956 92.2405 70.7465 91.4558ZM4.7647 94.141C4.1336 93.7769 3.6406 93.2155 3.3621 92.5438C3.08361 91.8721 3.03518 91.1275 3.22431 90.4256L14.6021 48.094C14.6516 47.8844 14.7723 47.6983 14.9436 47.567C15.115 47.4358 15.3265 47.3676 15.5425 47.3739C15.7586 47.3672 15.9703 47.4352 16.1418 47.5665C16.3132 47.6978 16.4337 47.8842 16.4829 48.094L32.5479 107.863C32.6061 108.082 32.5978 108.314 32.5241 108.529C32.4504 108.744 32.3146 108.933 32.1338 109.071C31.9529 109.209 31.7351 109.291 31.5077 109.306C31.2803 109.321 31.0534 109.269 30.8557 109.156L9.23156 96.7066L4.7647 94.141ZM15.54 44.5984L15.5572 44.6618H15.5229L15.54 44.5984ZM40.0147 109.156C39.8173 109.271 39.59 109.325 39.362 109.31C39.1339 109.296 38.9153 109.214 38.7341 109.075C38.5529 108.936 38.4172 108.747 38.3443 108.531C38.2714 108.315 38.2647 108.082 38.325 107.863L39.0107 105.334L54.39 48.116C54.4486 47.9122 54.5722 47.733 54.7421 47.6054C54.912 47.4778 55.1189 47.4088 55.3316 47.4088C55.5443 47.4088 55.7512 47.4778 55.9211 47.6054C56.091 47.733 56.2146 47.9122 56.2732 48.116L67.651 90.4378C67.8379 91.1393 67.7881 91.8827 67.5093 92.5532C67.2304 93.2238 66.7381 93.7843 66.1082 94.1483L48.3754 104.357L40.0147 109.156ZM55.3328 44.6008L55.35 44.6643H55.3157L55.3328 44.6008ZM51.2749 40.7121C51.5053 40.7121 51.7334 40.7574 51.9461 40.8454C52.1589 40.9334 52.3521 41.0624 52.5148 41.225C52.6775 41.3876 52.8063 41.5806 52.894 41.7929C52.9817 42.0053 53.0266 42.2328 53.0259 42.4624C53.026 42.6132 53.0062 42.7634 52.9671 42.9091L36.3903 104.601C36.3302 104.803 36.2064 104.98 36.0371 105.106C35.8679 105.232 35.6623 105.3 35.4511 105.3C35.2399 105.3 35.0344 105.232 34.8651 105.106C34.6959 104.98 34.572 104.803 34.512 104.601L19.8134 49.92L17.9253 42.9115C17.8562 42.6527 17.8478 42.3815 17.9006 42.1189C17.9534 41.8563 18.066 41.6093 18.2298 41.397C18.3936 41.1847 18.6041 41.0127 18.8451 40.8944C19.0862 40.776 19.3513 40.7145 19.62 40.7145L51.2749 40.7121Z" fill="black"/>
<path d="M105.852 40.7217H123.702V43.0847H108.423V52.8809H122.781V55.2927H108.423V66.0849H123.702V68.4724H105.852V40.7217Z" fill="black"/>
<path fill-rule="evenodd" clip-rule="evenodd" d="M125.804 54.5706C125.804 63.0291 130.667 68.961 138.538 68.961C146.409 68.961 151.285 63.0267 151.285 54.5706C151.285 46.1145 146.399 40.2192 138.538 40.2192C130.677 40.2192 125.804 46.1121 125.804 54.5706ZM148.559 54.5804C148.559 62.1967 144.22 66.5199 138.538 66.5199C132.857 66.5199 128.52 62.1967 128.52 54.5804C128.52 46.9641 132.857 42.6799 138.538 42.6799C144.22 42.6799 148.559 46.9641 148.559 54.5804Z" fill="black"/>
<path d="M163.958 40.224C169.448 40.224 173.288 42.9092 174.324 47.6499H171.63C170.673 44.4349 167.957 42.6749 163.684 42.6749C160.882 42.6749 156.927 43.7831 156.927 47.4204C156.927 50.2131 159.192 51.5899 162.315 52.3173L165.616 53.0496C169.61 53.9675 174.983 55.5372 174.983 60.8612C174.983 66.1853 170.107 68.9755 164.697 68.9755C157.747 68.9755 153.91 65.1088 153.295 60.1338H155.989C156.932 64.5669 160.003 66.5198 164.58 66.5198C167.612 66.5198 172.296 65.4115 172.296 61.2787C172.296 57.9099 168.995 56.3037 165.079 55.4615L161.585 54.695C157.931 53.8869 154.294 52.0878 154.294 47.5351C154.294 42.4454 159.466 40.224 163.958 40.224Z" fill="black"/>
<path d="M191.46 43.4826L206.702 68.4724H210.424V40.7217H207.853V65.7505L192.611 40.7217H188.888V68.4724H191.46V43.4826Z" fill="black"/>
<path fill-rule="evenodd" clip-rule="evenodd" d="M214.355 58.2487C214.355 51.6284 218.501 47.5346 224.03 47.5346C229.827 47.5346 233.552 52.4315 233.243 58.8614H216.813C216.929 63.8755 220.039 66.7829 224.261 66.7829C227.486 66.7829 229.751 65.1766 230.557 62.3059H233.052C232.016 66.5925 228.676 68.9652 224.106 68.9652C218.079 68.9604 214.355 64.6396 214.355 58.2487ZM216.889 56.6791H230.633C230.633 53.198 228.137 49.6755 223.991 49.6755C220.154 49.6755 217.389 52.0873 216.889 56.6791Z" fill="black"/>
<path d="M239.557 43.2487H237.137L237.132 47.8795H233.704V49.9447H237.132V63.5735C237.132 67.6697 237.989 68.4729 241.663 68.4729H243.622V66.3173H242.397C239.633 66.3173 239.557 65.7437 239.557 63.1024V49.952H243.627V47.8869H239.557V43.2487Z" fill="black"/>
<path d="M257.615 47.8791H259.995L265.295 64.7545L269.703 47.8791H272.35L266.37 68.4724H264.141L258.729 51.1746L253.476 68.4724H251.272L245.282 47.8839H247.932L252.499 64.7277L257.615 47.8791Z" fill="black"/>
<path fill-rule="evenodd" clip-rule="evenodd" d="M291.677 58.2487C291.677 50.7471 287.262 47.5346 282.31 47.5346C277.395 47.5346 272.98 50.7471 272.98 58.2487C272.98 65.7503 277.395 68.9652 282.31 68.9652C287.269 68.9652 291.677 65.7503 291.677 58.2487ZM289.143 58.2389C289.143 64.1806 286.265 66.7829 282.31 66.7829C278.316 66.7829 275.514 64.1806 275.514 58.2389C275.514 52.2972 278.316 49.695 282.31 49.695C286.265 49.695 289.143 52.2972 289.143 58.2389Z" fill="black"/>
<path d="M304.216 50.289C304.026 50.2586 303.833 50.2463 303.641 50.2524H303.151C298.89 50.2524 297.518 53.3135 297.518 57.6758V68.4729H295.177V47.8796H297.44V51.6292C298.363 49.2173 301.089 47.7234 303.545 47.7234H303.851C303.981 47.7169 304.11 47.73 304.236 47.7624L304.216 50.289Z" fill="black"/>
<path d="M308.957 58.1733V40.7217H306.569V68.4724H308.95V61.2735L312.133 57.8291L319.235 68.4675H322L313.674 56.1447L321.312 47.879H318.402L308.957 58.1733Z" fill="black"/>
<path d="M105.852 82.7094H122.86V85.0724H108.423V94.8686H121.968V97.2804H108.423V110.46H105.852V82.7094Z" fill="black"/>
<path fill-rule="evenodd" clip-rule="evenodd" d="M142.743 100.236C142.743 92.7348 138.327 89.5223 133.376 89.5223C128.46 89.5223 124.045 92.7348 124.045 100.236C124.045 107.738 128.416 110.953 133.376 110.953C138.335 110.953 142.743 107.738 142.743 100.236ZM140.208 100.227C140.208 106.168 137.328 108.771 133.376 108.771C129.381 108.771 126.58 106.168 126.58 100.227C126.58 94.2849 129.381 91.6827 133.376 91.6827C137.328 91.6827 140.208 94.2849 140.208 100.227Z" fill="black"/>
<path d="M159.171 107.126C158.135 109.078 156.1 110.953 152.529 110.953C147.807 110.953 145.809 108.043 145.809 102.993V89.8668H148.189V102.341C148.189 106.208 149.113 108.81 153.144 108.81C156.406 108.81 159.171 105.824 159.171 101.462V89.8668H161.551V110.46H159.171V107.126Z" fill="black"/>
<path d="M175.483 89.5223C171.606 89.5223 169.647 91.3947 168.611 93.3476V89.8665H166.231V110.46H168.611V99.011C168.611 94.6487 171.298 91.6632 174.868 91.6632C179.017 91.6632 180.053 94.2679 180.053 98.1322V110.46H182.433V97.4804C182.433 92.4297 180.359 89.5223 175.483 89.5223Z" fill="black"/>
<path fill-rule="evenodd" clip-rule="evenodd" d="M194.192 89.5221C197.263 89.5221 199.683 90.938 201.179 93.4279V82.7114H203.559V110.46H201.179V107.091C199.683 109.532 197.261 110.958 194.192 110.958C189.432 110.958 185.555 107.091 185.555 100.241C185.555 93.3913 189.432 89.5221 194.192 89.5221ZM194.682 91.663C190.842 91.663 188.116 94.7632 188.116 100.236C188.116 105.709 190.842 108.809 194.682 108.809C197.79 108.809 201.324 106.368 201.324 100.236C201.324 94.1041 197.8 91.663 194.702 91.663H194.682Z" fill="black"/>
<path fill-rule="evenodd" clip-rule="evenodd" d="M213.806 110.953C217.644 110.953 220.218 109.498 221.562 107.316L221.689 110.47H224.109L224.094 110.197C223.972 108.043 223.864 106.121 223.864 103.879C223.864 103.172 223.871 102.43 223.88 101.585C223.891 100.466 223.903 99.1667 223.903 97.5318C223.903 91.4094 220.717 89.4199 215.917 89.4199C211.274 89.4199 208.049 92.0588 207.471 96.155H209.966C210.16 93.4307 212.232 91.5169 215.765 91.5169C218.721 91.5169 221.523 92.5104 221.523 97.2193V97.9517C211.58 98.9916 206.974 100.632 206.974 105.339C206.974 108.732 209.969 110.953 213.806 110.953ZM221.638 101.035C221.638 106.857 218.182 108.846 214.345 108.846C211.58 108.846 209.621 107.47 209.621 105.282C209.621 102.106 213.27 100.959 221.638 100.041V101.035Z" fill="black"/>
<path d="M228.94 85.2357H231.36V89.8739H235.428V91.9391H231.36V105.089C231.36 107.731 231.436 108.304 234.201 108.304H235.425V110.46H233.466C229.793 110.46 228.936 109.657 228.936 105.561V91.9317H225.507V89.8666H228.936L228.94 85.2357Z" fill="black"/>
<path d="M240.681 86.498V82.7094H238.293V86.498H240.681Z" fill="black"/>
<path d="M240.681 110.46V89.8667H238.293V110.46H240.681Z" fill="black"/>
<path fill-rule="evenodd" clip-rule="evenodd" d="M253.476 89.5223C258.428 89.5223 262.844 92.7348 262.844 100.236C262.844 107.738 258.435 110.953 253.476 110.953C248.561 110.953 244.146 107.738 244.146 100.236C244.146 92.7348 248.552 89.5223 253.476 89.5223ZM253.476 108.771C257.429 108.771 260.309 106.168 260.309 100.227C260.309 94.2849 257.429 91.6827 253.476 91.6827C249.482 91.6827 246.681 94.2849 246.681 100.227C246.681 106.168 249.472 108.771 253.476 108.771Z" fill="black"/>
<path d="M275.563 89.5223C271.687 89.5223 269.728 91.3947 268.692 93.3476V89.8665H266.311V110.46H268.692V99.011C268.692 94.6487 271.378 91.6632 274.949 91.6632C279.097 91.6632 280.133 94.2679 280.133 98.1322V110.46H282.513V97.4804C282.513 92.4297 280.439 89.5223 275.563 89.5223Z" fill="black"/>
</svg>
