<svg width="130" height="130" viewBox="0 0 130 130" fill="none" xmlns="http://www.w3.org/2000/svg">
<path fill-rule="evenodd" clip-rule="evenodd" d="M33.9469 30H62.5688C79.9769 30 93.1739 39.2575 98.0841 52.7238H107V60.8656H99.9625C100.098 62.1519 100.168 63.4644 100.168 64.7944V64.9956C100.168 66.4919 100.08 67.9706 99.9057 69.4144H107V77.5519H97.9137C92.8769 90.8344 79.7847 100 62.5732 100H33.9469V77.5519H24V69.4144H33.9469V60.8656H24V52.7281H33.9469V30ZM41.9455 77.5519V92.6981H62.5644C75.294 92.6981 84.7473 86.63 89.1463 77.5519H41.9455ZM91.597 69.4144H41.9455V60.8656H91.6144C91.7935 62.2088 91.8896 63.5869 91.8896 64.9956V65.1925C91.8896 66.6319 91.7892 68.0362 91.597 69.41V69.4144ZM62.5732 37.2844C75.3552 37.2844 84.839 43.5144 89.2118 52.7194H41.9455V37.2888H62.5644L62.5732 37.2844Z" fill="#565656"/>
</svg>
