<svg width="346" height="346" viewBox="0 0 346 346" fill="none" xmlns="http://www.w3.org/2000/svg">
<style>
  #waves {fill: #232323;}
  @media (prefers-color-scheme:dark) {
    #waves {fill: #fff;}
  }
</style>
<path id="waves" fill-rule="evenodd" clip-rule="evenodd" d="M17.7964 100.005C10.7347 107.142 8.76766 118.752 13.0952 127.637C15.6917 133.595 20.6683 137.906 26.7859 139.491C33.1198 141.138 39.8668 139.39 45.3352 134.51C77.8507 102.974 126.516 102.73 158.441 133.676C180.747 158.665 211.787 173 243.595 173C275.402 173 306.324 158.787 328.316 134.164C335.338 126.926 337.207 115.255 332.86 106.695C330.244 100.656 325.208 96.3046 319.071 94.7796C314.487 93.641 307.504 93.6613 299.734 100.595C285.139 116.881 265.291 125.889 243.85 125.909H243.772C222.134 125.909 201.933 116.698 186.668 99.7408C138.613 53.199 66.1467 53.2193 17.7964 100.005ZM318.993 202.954C325.558 204.621 330.825 209.501 333.184 216.047C337.115 224.24 335.13 235.259 328.388 242.395C305.884 267.341 275.734 281.125 243.599 281.125C211.464 281.105 181.275 267.239 158.574 242.091C126.656 211.127 77.9717 211.371 45.5027 242.863C39.7636 247.986 32.688 249.613 26.1038 247.559C20.011 245.75 15.0187 240.85 12.7585 234.467C8.86692 226.68 10.9306 215.376 17.8883 208.2C66.3953 161.216 138.782 161.338 186.759 208.139C201.952 224.972 222.137 234.101 243.756 234.101H243.835C265.278 234.08 285.129 225.135 299.732 208.911C305.039 203.381 312.075 201.287 318.993 202.954Z"/>
</svg>
