<?xml version="1.0" standalone="no"?>
<!DOCTYPE svg PUBLIC "-//W3C//DTD SVG 20010904//EN"
 "http://www.w3.org/TR/2001/REC-SVG-20010904/DTD/svg10.dtd">
<svg version="1.0" xmlns="http://www.w3.org/2000/svg"
 width="700.000000pt" height="700.000000pt" viewBox="0 0 700.000000 700.000000"
 preserveAspectRatio="xMidYMid meet">
<g transform="translate(0.000000,700.000000) scale(0.100000,-0.100000)"
fill="#000000" stroke="none">
<path d="M2429 4976 c-2 -2 -33 -6 -69 -9 -79 -7 -117 -14 -195 -34 -33 -8
-64 -16 -70 -17 -94 -18 -331 -128 -461 -213 -77 -51 -201 -150 -254 -203 -97
-97 -123 -259 -60 -387 90 -182 293 -214 451 -71 172 154 365 252 574 292 44
8 132 15 195 15 100 0 139 -4 235 -23 99 -20 270 -94 364 -159 69 -46 97 -70
206 -176 164 -159 273 -240 436 -322 81 -42 236 -103 289 -114 8 -2 44 -10 80
-19 107 -24 129 -27 280 -31 281 -8 524 52 773 191 137 76 236 151 358 273 88
88 110 116 129 166 82 212 -50 438 -255 439 -81 0 -141 -30 -235 -119 -186
-177 -361 -265 -586 -299 -338 -49 -665 70 -919 335 -62 64 -208 181 -295 236
-189 118 -398 196 -625 234 -65 10 -338 22 -346 15z"/>
<path d="M2399 3496 c-2 -2 -29 -7 -59 -10 -184 -21 -335 -67 -515 -156 -142
-71 -201 -107 -304 -188 -126 -100 -183 -162 -210 -232 -86 -219 65 -457 279
-437 68 6 119 31 186 89 54 48 156 125 193 146 13 8 39 22 57 33 238 133 555
163 834 79 162 -49 316 -145 465 -290 101 -99 190 -176 255 -220 19 -13 37
-27 40 -30 11 -15 191 -109 270 -143 89 -37 228 -77 344 -97 113 -21 387 -18
496 5 14 3 41 8 60 11 123 21 361 121 497 210 118 76 170 119 284 234 78 78
101 108 119 156 62 163 -6 353 -150 417 -56 25 -159 27 -212 4 -20 -9 -80 -58
-135 -108 -170 -159 -324 -242 -528 -285 -127 -27 -309 -23 -440 11 -202 52
-334 129 -517 303 -172 163 -278 240 -454 330 -44 23 -83 42 -86 42 -3 0 -23
8 -44 17 -22 9 -41 17 -44 18 -3 1 -36 11 -73 23 -136 43 -265 64 -438 68 -91
3 -167 3 -170 0z"/>
</g>
</svg>
