<svg width="292" height="152" viewBox="0 0 292 152" fill="none" xmlns="http://www.w3.org/2000/svg">
<path d="M292 73.048V67.941H285.622V60.0001L285.408 60.0661L279.417 61.8888L279.298 61.9246V67.941H269.845V64.589C269.845 63.0287 270.195 61.8342 270.887 61.0382C271.574 60.2511 272.556 59.851 273.807 59.851C274.708 59.851 275.639 60.0621 276.579 60.4792L276.814 60.5835V55.2043L276.703 55.1644C275.828 54.8515 274.638 54.6935 273.161 54.6935C271.301 54.6935 269.61 55.096 268.136 55.8944C266.661 56.6929 265.501 57.8336 264.69 59.2839C263.879 60.7326 263.469 62.4054 263.469 64.2566V67.9418H259.027V73.0489H263.469V94.564H269.842V73.0489H279.297V86.7225C279.297 92.3535 281.968 95.2068 287.234 95.2068C288.101 95.2068 289.011 95.105 289.941 94.9078C290.888 94.7058 291.533 94.5021 291.912 94.287L291.998 94.2373V89.083L291.739 89.2532C291.391 89.4822 290.963 89.6712 290.457 89.8097C289.95 89.9515 289.526 90.0232 289.198 90.0232C287.964 90.0232 287.051 89.6924 286.484 89.0398C285.911 88.3806 285.62 87.2285 285.62 85.6185V73.0497H291.999V73.048H292ZM244.796 90.0216C242.482 90.0216 240.658 89.2589 239.372 87.7557C238.079 86.2451 237.423 84.0924 237.423 81.3556C237.423 78.5323 238.079 76.3243 239.373 74.786C240.659 73.2591 242.466 72.4842 244.745 72.4842C246.954 72.4842 248.715 73.224 249.974 74.6858C251.241 76.154 251.885 78.3466 251.885 81.2024C251.885 84.094 251.28 86.3135 250.088 87.8005C248.903 89.2736 247.122 90.0216 244.796 90.0216ZM245.081 67.2989C240.666 67.2989 237.16 68.5855 234.659 71.1219C232.161 73.6599 230.894 77.1717 230.894 81.5609C230.894 85.7285 232.131 89.0805 234.569 91.5249C237.008 93.9676 240.326 95.2068 244.432 95.2068C248.712 95.2068 252.147 93.9024 254.647 91.3318C257.146 88.7611 258.411 85.282 258.411 80.9962C258.411 76.7618 257.223 73.3846 254.879 70.9573C252.534 68.5301 249.236 67.2989 245.081 67.2989ZM220.618 67.2989C217.614 67.2989 215.131 68.0624 213.233 69.5689C211.324 71.0836 210.356 73.0709 210.356 75.4753C210.356 76.726 210.564 77.8349 210.975 78.7768C211.391 79.7219 212.03 80.5538 212.881 81.2513C213.725 81.9446 215.028 82.669 216.755 83.4072C218.206 84.0012 219.29 84.5039 219.978 84.8999C220.65 85.2885 221.128 85.678 221.397 86.0585C221.657 86.4308 221.79 86.9384 221.79 87.5675C221.79 89.3559 220.444 90.2277 217.673 90.2277C216.646 90.2277 215.471 90.0134 214.188 89.5954C212.904 89.1726 211.702 88.568 210.62 87.7932L210.357 87.6066V93.7085L210.452 93.7549C211.355 94.1696 212.492 94.5192 213.832 94.7921C215.17 95.0675 216.385 95.2077 217.441 95.2077C220.7 95.2077 223.324 94.4401 225.237 92.9238C227.166 91.3994 228.141 89.3665 228.141 86.8765C228.141 85.084 227.616 83.5441 226.58 82.3023C225.551 81.0712 223.763 79.9427 221.272 78.943C219.288 78.1502 218.016 77.4935 217.493 76.9891C216.989 76.5003 216.729 75.8118 216.729 74.9383C216.729 74.1635 217.048 73.5442 217.698 73.0415C218.354 72.5364 219.266 72.2797 220.412 72.2797C221.474 72.2797 222.561 72.4467 223.641 72.7727C224.72 73.0994 225.67 73.5369 226.46 74.073L226.72 74.2498V68.46L226.621 68.4168C225.889 68.1056 224.927 67.8391 223.757 67.6224C222.592 67.4073 221.536 67.2989 220.618 67.2989ZM193.739 90.0216C191.426 90.0216 189.6 89.2589 188.317 87.7557C187.022 86.2451 186.368 84.0924 186.368 81.3556C186.368 78.5323 187.022 76.3243 188.317 74.786C189.601 73.2591 191.408 72.4842 193.688 72.4842C195.898 72.4842 197.657 73.224 198.918 74.6858C200.183 76.154 200.826 78.3466 200.826 81.2024C200.826 84.094 200.224 86.3135 199.032 87.8005C197.845 89.2736 196.066 90.0216 193.739 90.0216ZM194.023 67.2989C189.606 67.2989 186.101 68.5855 183.603 71.1219C181.103 73.6599 179.836 77.1717 179.836 81.5609C179.836 85.7301 181.075 89.0805 183.511 91.5249C185.95 93.9684 189.27 95.2068 193.376 95.2068C197.654 95.2068 201.091 93.9024 203.591 91.3318C206.087 88.7611 207.354 85.282 207.354 80.9962C207.354 76.7618 206.167 73.3846 203.821 70.9573C201.478 68.5301 198.181 67.2989 194.023 67.2989ZM170.161 72.551V67.9402H163.863V94.5624H170.161V80.9441C170.161 78.6277 170.689 76.7252 171.731 75.2895C172.759 73.8693 174.131 73.1499 175.805 73.1499C176.371 73.1499 177.008 73.2428 177.698 73.4269C178.381 73.6102 178.876 73.8082 179.167 74.0168L179.431 74.2075V67.8937L179.328 67.8506C178.741 67.6029 177.912 67.4774 176.862 67.4774C175.279 67.4774 173.864 67.9826 172.651 68.9782C171.585 69.8533 170.817 71.0535 170.228 72.5494H170.161V72.551ZM152.587 67.2989C149.7 67.2989 147.122 67.9149 144.931 69.1298C142.734 70.3462 141.037 72.0842 139.881 74.2947C138.731 76.5003 138.147 79.075 138.147 81.9455C138.147 84.4615 138.712 86.769 139.832 88.8043C140.953 90.8413 142.538 92.4358 144.543 93.5406C146.548 94.6446 148.863 95.2052 151.427 95.2052C154.42 95.2052 156.974 94.6112 159.022 93.4355L159.105 93.3891V87.6522L158.842 87.842C157.913 88.515 156.877 89.0512 155.761 89.4382C154.648 89.8244 153.631 90.0191 152.741 90.0191C150.271 90.0191 148.288 89.2516 146.85 87.7353C145.406 86.2157 144.674 84.0859 144.674 81.4036C144.674 78.7043 145.438 76.5182 146.941 74.9049C148.44 73.2966 150.428 72.481 152.847 72.481C154.916 72.481 156.934 73.1776 158.841 74.5538L159.104 74.7444V68.6996L159.019 68.6515C158.301 68.2514 157.323 67.9214 156.105 67.6713C154.898 67.4252 153.712 67.2989 152.587 67.2989ZM133.809 67.941H127.511V94.564H133.809V67.941ZM130.725 56.5992C129.688 56.5992 128.785 56.9504 128.043 57.6454C127.297 58.3429 126.918 59.2212 126.918 60.2568C126.918 61.2761 127.293 62.1381 128.029 62.8176C128.763 63.4947 129.67 63.8369 130.725 63.8369C131.78 63.8369 132.688 63.4947 133.432 62.8185C134.18 62.1389 134.559 61.2769 134.559 60.2568C134.559 59.2571 134.19 58.3885 133.463 57.6739C132.737 56.961 131.815 56.5992 130.725 56.5992ZM115.014 65.9766L114.807 65.9757L103.403 94.5624H98.8456L87.2608 65.9733H87.0536V94.564H81.015V57.414H90.2707L101.243 85.0074L112.547 57.414H121.44V94.564H115.014V65.9766ZM29.6227 74.4609H0.000819656V45H29.6219V74.4609H29.6227ZM62.3274 74.4609H32.7063V45H62.3274V74.4609ZM29.6219 107H0V77.5391H29.6211V107H29.6219ZM62.3274 107H32.7063V77.5391H62.3274V107Z" fill="#1F1F1F"/>
</svg>
