<svg height="76" viewBox="0 0 182 76" width="182" xmlns="http://www.w3.org/2000/svg"><g fill="none" fill-rule="evenodd"><path d="m-979-13158h1920v19814h-1920z"/><path d="m175.951 39.628c0-2.115-1.364-3.184-2.842-3.184s-2.842 1.07-2.842 3.184c0 2.091 1.364 3.183 2.842 3.183s2.842-1.069 2.842-3.183zm3.024 0c0 3.433-2.523 5.934-5.866 5.934-3.342 0-5.865-2.501-5.865-5.934 0-3.456 2.523-5.934 5.865-5.934 3.343 0 5.866 2.478 5.866 5.934zm-16.345 5.592h3.023v-11.185h-3.023zm1.5-16.734c1.046 0 1.865.841 1.865 1.887 0 1-.819 1.842-1.865 1.842-1.023 0-1.864-.841-1.864-1.842 0-1.046.841-1.887 1.864-1.887zm-5.41 12.755c1.16 0 2.092.932 2.092 2.069a2.082 2.082 0 0 1 -4.161 0c0-1.137.932-2.07 2.069-2.07zm-9.707.295c.068.887.727 1.706 2.046 1.706 1 0 1.478-.523 1.478-1.114 0-.5-.341-.91-1.206-1.092l-1.477-.34c-2.16-.478-3.138-1.774-3.138-3.343 0-2 1.774-3.66 4.184-3.66 3.183 0 4.251 2.023 4.388 3.228l-2.524.569c-.091-.66-.568-1.501-1.842-1.501-.795 0-1.432.477-1.432 1.114 0 .546.41.887 1.023 1l1.591.341c2.206.455 3.32 1.797 3.32 3.434 0 1.818-1.41 3.683-4.343 3.683-3.364 0-4.524-2.183-4.66-3.456zm-9.233-5.093c-1.523 0-2.796 1.115-2.796 3.16 0 2.024 1.273 3.184 2.796 3.184 1.546 0 2.774-1.137 2.774-3.183s-1.228-3.16-2.774-3.16zm-5.729 8.777v-16.46h2.979v6.502c.5-.795 1.727-1.523 3.387-1.523 3.274 0 5.161 2.524 5.161 5.843 0 3.388-2.092 5.912-5.275 5.912-1.546 0-2.728-.683-3.32-1.638v1.365h-2.932zm-4.387-4.525v-.5l-2.524.387c-.773.113-1.386.545-1.386 1.409 0 .66.477 1.296 1.455 1.296 1.273 0 2.455-.614 2.455-2.592zm-3.592-1.91 2.751-.409c.637-.09.841-.41.841-.796 0-.795-.614-1.454-1.887-1.454-1.319 0-2.046.84-2.137 1.818l-2.683-.568c.182-1.75 1.796-3.683 4.797-3.683 3.547 0 4.866 2 4.866 4.251v5.502c0 .591.068 1.387.136 1.774h-2.773c-.069-.296-.114-.91-.114-1.342-.569.887-1.637 1.66-3.297 1.66-2.387 0-3.842-1.614-3.842-3.365 0-2 1.478-3.115 3.342-3.387zm-14.625 6.435v-16.46h3.138v13.46h7.184v3zm-85.385-10.34-9.307-9.307h9.307zm0 13.866h-9.307l9.307-9.306zm-23.172-13.865v-9.307h9.307l-9.308 9.306zm9.306 13.866h-9.306v-9.306zm0-25.062h-11.196v26.951h15.755l-13.475-13.475 11.196-11.196 11.194 11.195-11.194 11.196 2.28 2.28h11.196v-26.951h-15.757zm2.28 15.208a1.735 1.735 0 0 1 -1.732-1.732c0-.956.777-1.733 1.733-1.733.955 0 1.732.777 1.732 1.733 0 .955-.777 1.732-1.732 1.732zm3.622-1.732a3.625 3.625 0 0 0 -3.621-3.621 3.625 3.625 0 0 0 -3.622 3.62 3.625 3.625 0 0 0 3.622 3.622 3.625 3.625 0 0 0 3.62-3.621zm89.576-3.126h2.25v2.683h-2.25v4.682c0 .978.455 1.296 1.319 1.296.363 0 .773-.045.932-.091v2.501c-.273.114-.819.273-1.705.273-2.183 0-3.547-1.296-3.547-3.456v-5.206h-2.024v-2.683h.569c1.182 0 1.728-.773 1.728-1.773v-1.57h2.728v3.343zm-13.684 5.593c0 2.023 1.32 3.16 2.865 3.16 1.546 0 2.32-1.023 2.57-1.887l2.66.886c-.5 1.865-2.251 3.775-5.23 3.775-3.296 0-5.888-2.501-5.888-5.934 0-3.456 2.546-5.934 5.797-5.934 3.047 0 4.775 1.887 5.252 3.774l-2.705.909c-.273-.932-.978-1.887-2.478-1.887-1.547 0-2.843 1.114-2.843 3.138zm-7.526 4.388c-.614 1.045-1.91 1.5-3.093 1.5-2.705 0-4.251-1.978-4.251-4.41v-7.071h3.024v6.457c0 1.25.636 2.25 2.046 2.25 1.341 0 2.114-.909 2.114-2.205v-6.502h3.024v9.162c0 .864.068 1.637.114 2.024h-2.887a7.646 7.646 0 0 1 -.091-1.205zm-14.484-1.228c1.546 0 2.75-1.182 2.75-3.206 0-2-1.204-3.115-2.75-3.115s-2.774 1.137-2.774 3.138c0 2 1.183 3.183 2.774 3.183zm5.684.41c0 .75.045 1.568.09 2.023h-2.887a7.716 7.716 0 0 1 -.113-1.296c-.5.886-1.637 1.569-3.138 1.569-3.183 0-5.456-2.501-5.456-5.89 0-3.273 2.205-5.842 5.365-5.842 1.933 0 2.842.796 3.16 1.387v-6.389h2.979v14.437zm-15.46-3.57c0-2.115-1.363-3.184-2.842-3.184-1.477 0-2.841 1.07-2.841 3.184 0 2.091 1.364 3.183 2.841 3.183 1.479 0 2.843-1.069 2.843-3.183zm3.024 0c0 3.433-2.523 5.934-5.866 5.934-3.342 0-5.865-2.501-5.865-5.934 0-3.456 2.523-5.934 5.865-5.934 3.343 0 5.866 2.478 5.866 5.934zm-12.292-2.592a4.578 4.578 0 0 0 -.91-.091c-1.546 0-2.887.75-2.887 3.16v5.116h-3.024v-11.186h2.933v1.66c.682-1.478 2.228-1.751 3.183-1.751.25 0 .478.022.705.045zm-13.936-.592c1.569 0 2.524-.909 2.524-2.296 0-1.432-.955-2.319-2.524-2.319h-2.478v4.615zm-2.5 2.706v6.07h-3.138v-16.118h6.025c3.182 0 5.297 2.114 5.297 5.024 0 2.934-2.115 5.025-5.297 5.025h-2.887z" fill="#b5b5b5"/></g></svg>