<svg width="1920" height="1036" viewBox="0 0 1920 1036" fill="none" xmlns="http://www.w3.org/2000/svg">
<rect width="1920" height="1036" fill="#E8EEF1"/>
<path fill-rule="evenodd" clip-rule="evenodd" d="M424.478 462.87C424.211 488.461 444.883 509.35 470.476 509.35H474.528L474.528 509.336C496.973 508.794 515.001 490.43 515.001 467.855V443.03C515.001 442.122 514.266 441.387 513.358 441.387C494.846 441.387 479.281 454.08 474.925 471.261L474.943 469.561C475.222 442.824 453.625 421 426.886 421C425.794 421 424.906 421.879 424.894 422.971L424.478 462.87Z" fill="#D2DDE2"/>
<path fill-rule="evenodd" clip-rule="evenodd" d="M416.003 470.489L416.377 434.65C441.999 434.655 462.693 455.569 462.425 481.19L462.337 489.653C462.268 490.561 462.23 491.478 462.224 492.403L462.039 518.208L462.031 518.96C436.242 517.915 415.731 496.536 416.003 470.489ZM462.02 520.961C462.017 520.961 462.014 520.961 462.01 520.961C435.118 519.904 413.719 497.621 414.003 470.468L414.377 434.621C414.388 433.529 415.276 432.65 416.368 432.65C442.584 432.65 463.857 453.628 464.417 479.647C469.811 464.147 484.551 453.038 501.87 453.038C502.777 453.038 503.513 453.774 503.513 454.681V479.506C503.513 501.752 486.007 519.909 464.02 520.952C464.017 520.953 464.014 520.953 464.011 520.953L464.01 521C463.662 521 463.315 520.996 462.968 520.989C462.653 520.996 462.336 521 462.019 521L462.02 520.961ZM464.039 518.225L464.034 518.949C484.91 517.9 501.513 500.642 501.513 479.506V455.04C481.888 455.223 465.832 470.427 464.336 489.741L464.039 518.225Z" fill="#1D1D1F"/>
<path d="M762.524 673C762.524 671.895 763.42 671 764.524 671H834.766C835.871 671 836.766 671.895 836.766 673V756.878C836.766 757.983 835.871 758.878 834.766 758.878H804.524C781.328 758.878 762.524 740.074 762.524 716.878V673Z" fill="#D2DDE2"/>
<path fill-rule="evenodd" clip-rule="evenodd" d="M754.524 685.122H824.766V769H802.524C798.803 769 795.181 768.577 791.703 767.775V767.441V734.051C791.703 732.927 790.776 732.023 789.652 732.052L756.071 732.904L756.012 732.905C755.041 729.098 754.524 725.11 754.524 721L754.524 685.122ZM752.524 685.122C752.524 684.017 753.42 683.122 754.524 683.122H824.766C825.871 683.122 826.766 684.018 826.766 685.122V769C826.766 770.105 825.871 771 824.766 771H802.524C774.91 771 752.524 748.614 752.524 721V685.122ZM789.703 766.944C773.803 762.755 761.283 750.574 756.615 734.89L789.703 734.051V766.944Z" fill="#1D1D1F"/>
<path fill-rule="evenodd" clip-rule="evenodd" d="M1157.19 453.978C1166.76 453.978 1174.52 446.596 1174.52 437.489C1174.52 428.382 1166.76 421 1157.19 421L1102.38 421C1092.8 421 1085.04 428.382 1085.04 437.489C1085.04 446.596 1092.8 453.978 1102.38 453.978L1157.19 453.978ZM1157.19 508.235C1166.76 508.235 1174.52 500.853 1174.52 491.746C1174.52 482.639 1166.76 475.257 1157.19 475.257L1102.38 475.257C1092.8 475.257 1085.04 482.639 1085.04 491.746C1085.04 500.853 1092.8 508.235 1102.38 508.235H1157.19Z" fill="#D2DDE2"/>
<path fill-rule="evenodd" clip-rule="evenodd" d="M1146.67 463.743L1091.86 463.743C1083.3 463.743 1076.52 457.163 1076.52 449.254C1076.52 441.345 1083.3 434.765 1091.86 434.765L1146.67 434.765C1155.24 434.765 1162.01 441.345 1162.01 449.254C1162.01 457.163 1155.24 463.743 1146.67 463.743ZM1164.01 449.254C1164.01 458.361 1156.25 465.743 1146.67 465.743L1091.86 465.743C1082.29 465.743 1074.52 458.361 1074.52 449.254C1074.52 440.147 1082.29 432.765 1091.86 432.765L1146.67 432.765C1156.25 432.765 1164.01 440.147 1164.01 449.254ZM1146.67 519H1091.86C1083.3 519 1076.52 512.419 1076.52 504.511C1076.52 496.602 1083.3 490.021 1091.86 490.021L1146.67 490.021C1155.24 490.021 1162.01 496.602 1162.01 504.511C1162.01 512.42 1155.24 519 1146.67 519ZM1164.01 504.511C1164.01 513.617 1156.25 521 1146.67 521H1091.86C1082.29 521 1074.52 513.617 1074.52 504.511C1074.52 495.404 1082.29 488.021 1091.86 488.021L1146.67 488.021C1156.25 488.021 1164.01 495.404 1164.01 504.511Z" fill="#1D1D1F"/>
<path d="M1177 713.5C1177 736.972 1157.97 756 1134.5 756C1111.03 756 1092 736.972 1092 713.5C1092 690.028 1111.03 671 1134.5 671C1157.97 671 1177 690.028 1177 713.5Z" fill="#D2DDE2"/>
<path d="M1120.26 770.398C1097.04 770.398 1078.22 751.578 1078.22 728.363" stroke="#1D1D1F" stroke-width="2" stroke-linecap="round" stroke-linejoin="round"/>
<path d="M1121.92 683.672C1145.13 683.672 1163.95 702.492 1163.95 725.708" stroke="#1D1D1F" stroke-width="2" stroke-linecap="round" stroke-linejoin="round"/>
<circle cx="1115" cy="685" r="6" stroke="#1D1D1F" stroke-width="2" stroke-linecap="round" stroke-linejoin="round"/>
<circle cx="1126.98" cy="768.791" r="6" stroke="#1D1D1F" stroke-width="2" stroke-linecap="round" stroke-linejoin="round"/>
<circle cx="1121.09" cy="726.603" r="24.7937" stroke="#1D1D1F" stroke-width="2" stroke-linecap="round" stroke-linejoin="round"/>
<path fill-rule="evenodd" clip-rule="evenodd" d="M765 420C763.895 420 763 420.895 763 422V465C763 466.105 763.895 467 765 467H783.498C782.352 470.071 781.725 473.395 781.725 476.865C781.725 492.44 794.351 505.067 809.926 505.067C825.502 505.067 838.128 492.44 838.128 476.865C838.128 461.314 825.541 448.703 810 448.664V422C810 420.895 809.105 420 808 420H765Z" fill="#D2DDE2"/>
<circle cx="798.94" cy="491.908" r="28.0923" fill="#E8EEF1" stroke="black" stroke-width="2" stroke-linecap="round" stroke-linejoin="round"/>
<rect x="752" y="429" width="47" height="47" rx="1" stroke="#1D1D1F" stroke-width="2" stroke-linecap="round" stroke-linejoin="round"/>
<circle cx="798.94" cy="491.908" r="28.0923" fill="#E8EEF1" stroke="black" stroke-width="2" stroke-linecap="round" stroke-linejoin="round"/>
<mask id="mask0" mask-type="alpha" maskUnits="userSpaceOnUse" x="771" y="464" width="56" height="57">
<path d="M825.891 492.694C825.891 507.666 813.936 519.778 799.219 519.778C784.503 519.778 772.548 507.666 772.548 492.694C772.548 477.721 784.503 465.609 799.219 465.609C813.936 465.609 825.891 477.721 825.891 492.694Z" fill="white" stroke="#1D1D1F" stroke-width="2" stroke-linecap="round" stroke-linejoin="round"/>
</mask>
<g mask="url(#mask0)">
<path d="M758.619 449.003C758.619 444.032 762.648 440.003 767.619 440.003H803.349C808.319 440.003 812.349 444.032 812.349 449.003V495.829C812.349 496.381 811.901 496.829 811.349 496.829H767.619C762.648 496.829 758.619 492.799 758.619 487.829V449.003Z" fill="#E8EEF1" stroke="#1D1D1F" stroke-width="2" stroke-linecap="round" stroke-linejoin="round"/>
</g>
<path d="M494.214 691.299C491.508 678.449 479.444 669 464.933 669C446.461 669 432.933 684.031 434.586 698.385C427.99 701.502 423.524 708.344 423.524 715.777C423.524 726.396 432.118 735.038 442.678 735.038H495.031C507.132 735.038 516.921 725.193 516.921 713.025C516.921 701.149 507.561 690.827 494.214 691.299Z" fill="#D2DDE2"/>
<path d="M483.235 703.505C483.335 703.98 483.763 704.315 484.249 704.298C496.997 703.848 505.921 713.682 505.921 725.025C505.921 736.646 496.575 746.038 485.031 746.038H432.678C422.676 746.038 414.524 737.849 414.524 727.777C414.524 720.739 418.76 714.244 425.013 711.289C425.401 711.106 425.628 710.696 425.579 710.271C424.007 696.61 436.954 682 454.933 682C469.018 682 480.637 691.162 483.235 703.505Z" stroke="black" stroke-width="2" stroke-linecap="round" stroke-linejoin="round"/>
<circle cx="472.001" cy="746" r="27" fill="#E8EEF1" stroke="black" stroke-width="2" stroke-linecap="round" stroke-linejoin="round"/>
<path d="M473.001 734V747H485.001" stroke="black" stroke-width="2" stroke-linecap="round" stroke-linejoin="round"/>
<path d="M1401.57 715.86C1401.27 715.307 1401.27 714.693 1401.57 714.14C1404.84 708.075 1425.73 672 1460.12 672C1494.51 672 1515.4 708.075 1518.67 714.14C1518.96 714.693 1518.96 715.307 1518.67 715.86C1515.4 721.925 1494.51 758 1460.12 758C1425.73 758 1404.84 721.925 1401.57 715.86Z" fill="#D2DDE2"/>
<path d="M1392.46 728.867C1392.16 728.312 1392.16 727.688 1392.46 727.133C1395.72 721.13 1416.24 686 1450 686C1483.76 686 1504.28 721.13 1507.54 727.133C1507.84 727.688 1507.84 728.312 1507.54 728.867C1504.28 734.87 1483.76 770 1450 770C1416.24 770 1395.72 734.87 1392.46 728.867Z" stroke="#1D1D1F" stroke-width="2" stroke-linecap="round" stroke-linejoin="round"/>
<path d="M1450.03 750.468C1462 750.468 1471.69 740.769 1471.69 728.806C1471.69 716.842 1462 707.143 1450.03 707.143C1438.07 707.143 1428.37 716.842 1428.37 728.806C1428.37 740.769 1438.07 750.468 1450.03 750.468Z" stroke="#1D1D1F" stroke-width="2" stroke-linecap="round" stroke-linejoin="round"/>
<path fill-rule="evenodd" clip-rule="evenodd" d="M1474.74 429.64C1474.74 436.621 1469.08 442.28 1462.1 442.28C1455.12 442.28 1449.46 436.621 1449.46 429.64C1449.46 422.659 1455.12 417 1462.1 417C1469.08 417 1474.74 422.659 1474.74 429.64ZM1430.48 449.333C1438.23 443.369 1449.34 444.812 1455.3 452.555L1461.74 460.919L1468.26 452.401C1474.34 444.447 1485.71 442.929 1493.66 449.009C1498.33 452.577 1500.78 457.97 1500.78 463.424C1500.78 467.264 1499.57 471.135 1497.06 474.421L1477.04 500.599C1474.02 504.557 1469.68 506.922 1465.11 507.549C1458.8 508.702 1452.08 506.371 1447.89 500.938L1427.26 474.152C1421.3 466.409 1422.74 455.297 1430.48 449.333Z" fill="#D2DDE2"/>
<rect x="1436.12" y="452.941" width="68.1024" height="33.8531" rx="16.9266" transform="rotate(52.3962 1436.12 452.941)" stroke="#1D1D1F" stroke-width="2" stroke-linecap="round" stroke-linejoin="round"/>
<rect x="1499.29" y="473.49" width="68.1024" height="34.7238" rx="17.3619" transform="rotate(127.396 1499.29 473.49)" stroke="#1D1D1F" stroke-width="2" stroke-linecap="round" stroke-linejoin="round"/>
<circle cx="1454.5" cy="442.5" r="12.5" stroke="#1D1D1F" stroke-width="2" stroke-linecap="round" stroke-linejoin="round"/>
<g opacity="0.3">
<path d="M242.571 273.843H240.889V282.252H242.571V273.843Z" fill="#12183D"/>
<path d="M246.244 279.717C246.46 280.234 246.748 280.678 247.132 281.063C247.505 281.447 247.949 281.735 248.466 281.952C248.982 282.168 249.535 282.264 250.136 282.264C250.772 282.264 251.349 282.168 251.877 281.964C252.406 281.759 252.886 281.459 253.307 281.075L252.478 279.513C251.817 280.234 251.037 280.582 250.112 280.582C249.751 280.582 249.415 280.522 249.115 280.402C248.814 280.27 248.55 280.102 248.322 279.886C248.093 279.657 247.925 279.393 247.793 279.093C247.673 278.78 247.613 278.444 247.613 278.06C247.613 277.699 247.673 277.351 247.793 277.039C247.925 276.726 248.093 276.462 248.322 276.246C248.55 276.017 248.814 275.849 249.115 275.729C249.427 275.597 249.763 275.537 250.136 275.537C250.592 275.537 251 275.621 251.361 275.801C251.721 275.969 252.058 276.21 252.37 276.534L253.175 274.996C252.766 274.624 252.31 274.336 251.793 274.144C251.277 273.951 250.736 273.855 250.148 273.855C249.547 273.855 248.994 273.963 248.478 274.18C247.961 274.384 247.517 274.684 247.132 275.056C246.76 275.429 246.46 275.873 246.244 276.39C246.039 276.894 245.931 277.447 245.931 278.048C245.931 278.648 246.039 279.213 246.244 279.717Z" fill="#12183D"/>
<path d="M256.016 278.048C256.016 278.648 256.124 279.201 256.34 279.717C256.544 280.234 256.845 280.678 257.217 281.051C257.589 281.423 258.034 281.723 258.55 281.928C259.067 282.144 259.619 282.252 260.22 282.252C260.821 282.252 261.373 282.144 261.89 281.928C262.406 281.723 262.851 281.423 263.223 281.051C263.596 280.678 263.896 280.234 264.112 279.717C264.316 279.201 264.424 278.648 264.424 278.048C264.424 277.447 264.316 276.894 264.112 276.378C263.896 275.861 263.596 275.417 263.223 275.044C262.851 274.672 262.406 274.372 261.89 274.156C261.373 273.951 260.821 273.843 260.22 273.843C259.619 273.843 259.067 273.951 258.55 274.156C258.034 274.372 257.589 274.672 257.217 275.044C256.845 275.417 256.544 275.861 256.34 276.378C256.124 276.894 256.016 277.447 256.016 278.048ZM262.743 278.048C262.743 278.42 262.683 278.756 262.562 279.057C262.43 279.369 262.262 279.633 262.034 279.861C261.806 280.09 261.541 280.258 261.241 280.378C260.929 280.51 260.592 280.57 260.22 280.57C259.848 280.57 259.511 280.51 259.211 280.378C258.899 280.258 258.634 280.09 258.406 279.861C258.178 279.633 258.01 279.369 257.89 279.057C257.757 278.756 257.697 278.42 257.697 278.048C257.697 277.675 257.757 277.339 257.89 277.027C258.01 276.726 258.178 276.462 258.406 276.234C258.634 276.005 258.899 275.837 259.211 275.705C259.511 275.585 259.848 275.525 260.22 275.525C260.592 275.525 260.929 275.585 261.241 275.705C261.541 275.837 261.806 276.005 262.034 276.234C262.262 276.462 262.43 276.726 262.562 277.027C262.683 277.339 262.743 277.675 262.743 278.048Z" fill="#12183D"/>
<path d="M275.405 273.843H273.723V279.369L269.182 273.843H267.717V282.252H269.398V276.726L273.939 282.252H275.405V273.843Z" fill="#12183D"/>
<path d="M278.707 278.048C278.707 278.648 278.815 279.201 279.032 279.717C279.236 280.234 279.536 280.678 279.908 281.051C280.281 281.423 280.725 281.723 281.242 281.928C281.758 282.144 282.311 282.252 282.912 282.252C283.512 282.252 284.065 282.144 284.581 281.928C285.098 281.723 285.542 281.423 285.915 281.051C286.287 280.678 286.587 280.234 286.804 279.717C287.008 279.201 287.116 278.648 287.116 278.048C287.116 277.447 287.008 276.894 286.804 276.378C286.587 275.861 286.287 275.417 285.915 275.044C285.542 274.672 285.098 274.372 284.581 274.156C284.065 273.951 283.512 273.843 282.912 273.843C282.311 273.843 281.758 273.951 281.242 274.156C280.725 274.372 280.281 274.672 279.908 275.044C279.536 275.417 279.236 275.861 279.032 276.378C278.815 276.894 278.707 277.447 278.707 278.048ZM285.434 278.048C285.434 278.42 285.374 278.756 285.254 279.057C285.122 279.369 284.954 279.633 284.726 279.861C284.497 280.09 284.233 280.258 283.933 280.378C283.62 280.51 283.284 280.57 282.912 280.57C282.539 280.57 282.203 280.51 281.903 280.378C281.59 280.258 281.326 280.09 281.098 279.861C280.869 279.633 280.701 279.369 280.581 279.057C280.449 278.756 280.389 278.42 280.389 278.048C280.389 277.675 280.449 277.339 280.581 277.027C280.701 276.726 280.869 276.462 281.098 276.234C281.326 276.005 281.59 275.837 281.903 275.705C282.203 275.585 282.539 275.525 282.912 275.525C283.284 275.525 283.62 275.585 283.933 275.705C284.233 275.837 284.497 276.005 284.726 276.234C284.954 276.462 285.122 276.726 285.254 277.027C285.374 277.339 285.434 277.675 285.434 278.048Z" fill="#12183D"/>
<path d="M290.336 279.693C290.552 280.21 290.841 280.642 291.213 281.015C291.597 281.387 292.042 281.687 292.57 281.892C293.099 282.096 293.676 282.204 294.3 282.204C294.853 282.204 295.369 282.108 295.85 281.928C296.33 281.747 296.763 281.471 297.123 281.111C297.483 280.75 297.76 280.306 297.976 279.777C298.18 279.249 298.288 278.636 298.288 277.951V277.399H293.988V279.081H296.354C296.306 279.321 296.21 279.525 296.066 279.717C295.922 279.898 295.766 280.054 295.574 280.174C295.381 280.294 295.177 280.378 294.949 280.438C294.721 280.498 294.492 280.534 294.264 280.534C293.88 280.534 293.531 280.474 293.219 280.342C292.907 280.222 292.642 280.054 292.414 279.825C292.198 279.609 292.018 279.345 291.898 279.033C291.778 278.72 291.705 278.372 291.705 278C291.705 277.627 291.778 277.291 291.898 276.978C292.018 276.666 292.198 276.402 292.414 276.174C292.63 275.957 292.895 275.789 293.207 275.657C293.519 275.537 293.856 275.477 294.216 275.477C294.673 275.477 295.105 275.561 295.501 275.729C295.898 275.909 296.258 276.174 296.583 276.546L297.399 274.984C296.979 274.576 296.498 274.276 295.97 274.083C295.441 273.891 294.877 273.795 294.3 273.795C293.664 273.795 293.087 273.891 292.558 274.107C292.03 274.324 291.585 274.612 291.201 274.996C290.829 275.369 290.54 275.813 290.336 276.33C290.132 276.834 290.024 277.399 290.024 278.012C290.024 278.612 290.132 279.177 290.336 279.693Z" fill="#12183D"/>
<path d="M303.258 282.24V279.429H304.303L306.105 282.24H308.147L306.165 279.249C306.43 279.153 306.67 279.021 306.886 278.852C307.102 278.684 307.295 278.492 307.451 278.264C307.607 278.036 307.727 277.783 307.823 277.507C307.907 277.231 307.943 276.942 307.943 276.63C307.943 276.246 307.883 275.873 307.739 275.537C307.595 275.201 307.403 274.9 307.162 274.648C306.91 274.396 306.61 274.204 306.273 274.059C305.925 273.915 305.553 273.843 305.156 273.843H301.577V282.24H303.258ZM305.973 277.423C305.781 277.639 305.505 277.747 305.156 277.747H303.258V275.513H305.156C305.505 275.513 305.781 275.633 305.973 275.849C306.177 276.066 306.273 276.33 306.273 276.63C306.273 276.942 306.177 277.195 305.973 277.423Z" fill="#12183D"/>
<path d="M313.733 279.249L315.162 276.15L316.592 279.249H313.733ZM317.373 280.931L317.985 282.252H319.835L315.943 273.843H314.382L310.489 282.252H312.339L312.952 280.931H317.373Z" fill="#12183D"/>
<path d="M326.102 273.843H322.81V282.252H324.492V279.717H326.102C326.534 279.717 326.93 279.645 327.291 279.489C327.651 279.345 327.964 279.141 328.228 278.876C328.48 278.624 328.684 278.312 328.84 277.951C328.985 277.603 329.057 277.207 329.057 276.786C329.057 276.366 328.985 275.969 328.84 275.609C328.684 275.249 328.48 274.936 328.228 274.672C327.964 274.42 327.651 274.216 327.291 274.059C326.93 273.915 326.534 273.843 326.102 273.843ZM327.375 276.786C327.375 277.147 327.267 277.447 327.051 277.675C326.822 277.915 326.51 278.036 326.102 278.036H324.492V275.525H326.102C326.51 275.525 326.822 275.645 327.051 275.873C327.267 276.114 327.375 276.414 327.375 276.786Z" fill="#12183D"/>
<path d="M339.289 273.843H337.608V277.207H333.92V273.843H332.238V282.252H333.92V278.888H337.608V282.252H339.289V273.843Z" fill="#12183D"/>
<path d="M345.596 282.252H347.278V278.997L350.714 273.843H348.684L346.437 277.207L344.191 273.843H342.161L345.596 278.997V282.252Z" fill="#12183D"/>
</g>
<line x1="240" y1="249.5" x2="1680" y2="249.5" stroke="#B8BAC5"/>
</svg>
