<svg height="76" viewBox="0 0 182 76" width="182" xmlns="http://www.w3.org/2000/svg"><g fill="none" fill-rule="evenodd"><path d="m-114-13158h1920v19814h-1920z"/><path d="m64.264 27.705c-.72 0-1.407.48-1.648 1.201l-3.534 11.222-4.118-11.29a1.703 1.703 0 0 0 -1.613-1.133c-.995 0-1.818.858-1.818 1.75 0 .206.068.446.136.653l5.663 14.652-.858 2.814c-.48 1.51-1.784 2.128-3.294 2.197-.927.035-1.682.755-1.682 1.647 0 1.03.824 1.682 1.75 1.682 3.26 0 5.663-1.887 6.589-4.702l6.142-18.36c.07-.17.103-.377.103-.548 0-1.03-.892-1.785-1.818-1.785zm15.946 6.932c0-2.162-1.407-3.672-3.672-3.672-2.334 0-3.672 1.338-3.672 3.672v4.255c0 2.3 1.338 3.638 3.672 3.638 2.333 0 3.672-1.338 3.672-3.638zm1.544-4.941c1.304 1.304 1.99 3.122 1.99 5.215v3.672c0 2.094-.686 3.913-1.99 5.217-1.304 1.303-3.123 1.99-5.216 1.99-2.094 0-3.912-.687-5.216-1.99-1.304-1.304-1.991-3.123-1.991-5.217v-3.672c0-2.093.687-3.911 1.99-5.215 1.305-1.305 3.123-1.991 5.217-1.991 2.093 0 3.912.686 5.216 1.99zm-34.477-1.717a13.152 13.152 0 0 0 -2.574-.274c-2.917 0-5.113 2.196-5.113 5.113v11.188c0 .995.789 1.783 1.785 1.783.96 0 1.75-.788 1.75-1.783v-11.462c0-.858.72-1.579 1.578-1.579.55 0 1.167.138 1.716.275.275.068.377.068.583.068.996 0 1.682-.72 1.682-1.647 0-.824-.583-1.51-1.407-1.682zm55.615-6.931c-.996 0-1.785.789-1.785 1.784v21.174c0 .995.789 1.783 1.785 1.783.96 0 1.75-.788 1.75-1.783v-21.174c0-.995-.79-1.784-1.75-1.784zm34.364 13.246c0-2.093-1.235-3.329-3.363-3.329-1.235 0-2.368.447-3.329 1.236v9.917c1.099.275 2.197.412 3.33.412 2.127 0 3.362-1.2 3.362-3.329zm1.647-4.736c1.235 1.236 1.888 3.02 1.888 5.01v4.324c0 2.025-.686 3.74-1.921 4.976-1.236 1.27-2.953 1.921-4.977 1.921-1.853 0-3.637-.308-5.354-.891a2.216 2.216 0 0 1 -1.509-2.094v-19.972c0-.995.789-1.784 1.784-1.784.961 0 1.75.789 1.75 1.784v5.765c1.064-.48 2.437-.892 3.57-.892 2.024 0 3.533.584 4.769 1.853zm-19.72 8.442h-3.535c-2.986 0-3.158 1.613-3.158 2.196 0 .619.172 2.334 3.158 2.334 1.166 0 2.436-.172 3.534-.446v-4.084zm3.533-4.46v9.264c0 .961-.618 1.785-1.51 2.094-1.68.583-3.637.891-5.558.891-2.094 0-3.741-.514-4.908-1.509s-1.785-2.402-1.785-4.084c0-1.681.618-2.985 1.785-3.946 1.167-.995 2.814-1.51 4.908-1.51h3.534v-1.2c0-1.442-1.064-2.575-2.848-2.575-1.613 0-2.506.206-3.707.927-.275.172-.651.309-.96.309-.927 0-1.682-.687-1.682-1.545 0-.617.274-1.235.858-1.578 1.852-1.064 3.465-1.373 5.936-1.373 3.844 0 5.937 2.78 5.937 5.834zm30.374 2.058-3.363-1.098c-.721-.24-1.408-.79-1.408-1.682 0-1.167.927-1.853 2.334-1.853 1.132 0 2.54.275 3.397.686.24.103.584.172.824.172.926 0 1.647-.755 1.647-1.647 0-.72-.446-1.339-1.132-1.613-1.133-.515-2.334-.858-4.668-.858-3.43 0-5.936 2.162-5.936 5.182 0 2.574 1.441 4.015 3.294 4.701l2.814 1.03c1.27.446 2.3.858 2.3 2.127 0 1.167-.859 1.785-2.506 1.785-1.51 0-2.642-.309-3.568-.79-.241-.102-.55-.205-.79-.205-.96 0-1.716.823-1.716 1.716 0 .686.412 1.27 1.064 1.578 1.27.584 2.917.96 4.942.96 3.671 0 6.108-2.367 6.108-5.386 0-2.506-1.373-4.05-3.637-4.805zm-140.973 2.874a5.06 5.06 0 0 1 -2.378-1.34l-1.857-1.857-3.643 3.643a2.609 2.609 0 0 0 -.77 1.858c0 .702.273 1.36.77 1.857a2.61 2.61 0 0 0 1.859.77 2.61 2.61 0 0 0 1.858-.77zm-4.235-6.689 1.857-1.857a5.054 5.054 0 0 1 2.38-1.339l-4.162-4.162a2.614 2.614 0 0 0 -1.86-.768c-.702 0-1.362.273-1.858.769a2.61 2.61 0 0 0 -.77 1.858c0 .701.273 1.361.77 1.858zm7.788 2.968c.36-.686.396-1.5.108-2.211a2.618 2.618 0 0 0 -.576-.87 2.61 2.61 0 0 0 -1.858-.768c-.702 0-1.363.273-1.86.77l-1.857 1.857 1.858 1.857a2.61 2.61 0 0 0 1.859.771c.7 0 1.359-.272 1.855-.767l.003-.004c.192-.191.348-.406.468-.635zm1.278-4.826a5.108 5.108 0 0 1 1.117 5.523 5.062 5.062 0 0 1 -1.117 1.684l-7.246 7.248a5.064 5.064 0 0 1 -3.604 1.492 5.064 5.064 0 0 1 -3.604-1.492 5.056 5.056 0 0 1 -1.494-3.603c0-1.362.53-2.643 1.494-3.606l3.642-3.642-3.642-3.642a5.06 5.06 0 0 1 -1.494-3.603c0-1.361.53-2.641 1.494-3.604a5.066 5.066 0 0 1 3.604-1.492c1.361 0 2.641.53 3.604 1.491zm16.544 1.52c1.03 0 1.785-.686 1.785-1.715 0-.961-.79-1.682-1.785-1.682h-3.329v-5.216c0-.995-.789-1.784-1.75-1.784-.995 0-1.784.789-1.784 1.784v17.605c0 3.157 2.3 5.352 5.113 5.352.686 0 1.339-.067 2.025-.204.858-.172 1.51-.825 1.51-1.682 0-1.03-.858-1.647-1.716-1.647-.652 0-.823.274-1.819.274-.892 0-1.579-.823-1.579-2.127v-8.957h3.33zm62.115 5.628a3.109 3.109 0 1 1 -6.218 0 3.109 3.109 0 0 1 6.218 0z" fill="#b5b5b5"/></g></svg>