<svg width="125" height="70" viewBox="0 0 125 70" fill="none" xmlns="http://www.w3.org/2000/svg">
<path d="M66.0393 25.2334C66.0393 26.6342 64.9093 27.7624 63.5074 27.7624C63.1748 27.7631 62.8454 27.6981 62.538 27.5713C62.2306 27.4444 61.9513 27.2582 61.7161 27.0232C61.481 26.7882 61.2946 26.5091 61.1676 26.202C61.0407 25.8949 60.9757 25.5657 60.9763 25.2334C60.9763 23.8326 62.0672 22.7044 63.5074 22.7044C64.9493 22.7435 66.0393 23.8717 66.0393 25.2334ZM55.6031 30.3313V30.954C55.6031 30.954 54.3967 29.3968 51.8266 29.3968C47.5815 29.3968 44.2709 32.6266 44.2709 37.1009C44.2709 41.537 47.5433 44.805 51.8266 44.805C54.4358 44.805 55.6031 43.2097 55.6031 43.2097V43.8715C55.6031 44.1824 55.8378 44.4151 56.149 44.4151H59.3023V29.785H56.149C56.005 29.7886 55.868 29.8474 55.7663 29.9493C55.6647 30.0512 55.6062 30.1883 55.6031 30.3321V30.3313ZM55.6031 39.708C55.0199 40.5644 53.8509 41.3034 52.4498 41.3034C49.957 41.3034 48.0483 39.7471 48.0483 37.1009C48.0483 34.4547 49.957 32.8984 52.4498 32.8984C53.8126 32.8984 55.059 33.6766 55.6031 34.4938V39.708ZM61.6395 29.7859H65.377V44.4168H61.6395V29.785V29.7859ZM117.484 29.3959C114.913 29.3959 113.705 30.9531 113.705 30.9531V22.7435H109.967V44.4168H113.122C113.266 44.4137 113.403 44.3552 113.504 44.2536C113.606 44.1519 113.664 44.015 113.666 43.8715V43.2106C113.666 43.2106 114.874 44.8059 117.444 44.8059C121.689 44.8059 124.999 41.5379 124.999 37.1027C124.999 32.6657 121.689 29.3959 117.483 29.3959H117.484ZM116.86 41.2643C115.419 41.2643 114.29 40.5261 113.705 39.669V34.4547C114.29 33.6766 115.536 32.8594 116.86 32.8594C119.352 32.8594 121.26 34.4156 121.26 37.0627C121.26 39.7081 119.352 41.2643 116.86 41.2643V41.2643ZM108.02 35.74V44.4551H104.281V36.1682C104.281 33.7565 103.502 32.7829 101.401 32.7829C100.272 32.7829 99.1034 33.3665 98.362 34.2228V44.4186H94.6246V29.785H97.5832C97.8952 29.785 98.1291 30.0577 98.1291 30.3304V30.9531C99.219 29.8241 100.66 29.3959 102.101 29.3959C103.736 29.3959 105.1 29.8632 106.19 30.7968C107.513 31.8867 108.02 33.2875 108.02 35.7383V35.74ZM85.5495 29.3959C82.9803 29.3959 81.773 30.9531 81.773 30.9531V22.7435H78.0347V44.4168H81.188C81.3319 44.414 81.4691 44.3556 81.5708 44.2539C81.6726 44.1522 81.731 44.0152 81.7339 43.8715V43.2106C81.7339 43.2106 82.942 44.8059 85.5113 44.8059C89.7563 44.8059 93.0661 41.5379 93.0661 37.1027C93.1052 32.6657 89.7946 29.3959 85.5495 29.3959ZM84.9263 41.2643C83.4861 41.2643 82.3571 40.5261 81.773 39.669V34.4547C82.3571 33.6766 83.6035 32.8594 84.9263 32.8594C87.4191 32.8594 89.327 34.4156 89.327 37.0627C89.327 39.7081 87.4191 41.2643 84.9263 41.2643V41.2643ZM74.8014 29.3959C75.9304 29.3959 76.5145 29.5913 76.5145 29.5913V33.0539C76.5145 33.0539 73.3994 32.0031 71.4525 34.222V44.4551H67.7133V29.785H70.8684C71.0119 29.7881 71.1486 29.8465 71.25 29.948C71.3514 30.0495 71.4096 30.1862 71.4125 30.3295V30.9522C72.1148 30.135 73.6332 29.3951 74.8014 29.3951V29.3959ZM35.9755 43.0933C35.7817 42.6261 35.587 42.1206 35.3923 41.6925C35.0794 40.9925 34.7682 40.3307 34.497 39.708L34.4579 39.669C31.7311 33.7385 28.8614 27.8747 25.8514 22.0826L25.7341 21.8481C25.4151 21.2428 25.1039 20.6323 24.8006 20.0192C24.4103 19.3183 24.0218 18.5801 23.3986 17.8793C22.1522 16.3221 20.3609 15.4658 18.453 15.4658C16.5061 15.4658 14.753 16.3221 13.4683 17.8011C12.8842 18.5011 12.4557 19.2402 12.0664 19.941C11.7621 20.5541 11.451 21.1638 11.1329 21.77L11.0155 22.0045C8.01689 27.8405 5.09647 33.7547 2.409 39.5908L2.36988 39.669C2.09783 40.2917 1.7858 40.9534 1.47464 41.6525C1.26624 42.1137 1.07146 42.5808 0.890555 43.0534C0.383828 44.4933 0.228247 45.855 0.422941 47.2567C0.631583 48.6803 1.20836 50.0249 2.09628 51.1577C2.9842 52.2904 4.15254 53.172 5.48586 53.7155C6.4842 54.1344 7.55732 54.3462 8.64008 54.3382C8.95125 54.3382 9.34063 54.2999 9.65267 54.26C10.9382 54.1045 12.2619 53.6772 13.5466 52.9382C15.1441 52.0428 16.6625 50.7584 18.3757 48.8912C20.0897 50.7584 21.6472 52.0428 23.2048 52.9382C24.4912 53.6772 25.814 54.1045 27.0987 54.26C27.4107 54.2999 27.8001 54.3382 28.1121 54.3382C29.2021 54.3382 30.292 54.1445 31.2655 53.7155C33.9921 52.6255 35.8999 50.1357 36.3284 47.2567C36.6378 45.895 36.4822 44.5332 35.9764 43.0933H35.9755ZM18.4139 45.1168C16.3105 42.4706 14.9477 39.9807 14.4809 37.8799C14.2862 36.9854 14.2462 36.2064 14.3636 35.5064C14.44 34.92 14.6535 34.3598 14.9868 33.8711C15.7273 32.8212 16.9728 32.1603 18.4139 32.1603C19.855 32.1603 21.1405 32.7821 21.841 33.8711C22.1531 34.3384 22.3869 34.8837 22.4651 35.5064C22.5816 36.2073 22.5425 37.0236 22.3478 37.8799C21.8784 39.9417 20.5164 42.4324 18.4139 45.1168ZM33.9512 46.9458C33.6783 48.9693 32.3154 50.7201 30.4076 51.4983C29.4732 51.8873 28.4607 52.0046 27.4481 51.8873C26.4746 51.7701 25.5011 51.4592 24.4885 50.8756C23.0866 50.0966 21.6855 48.8912 20.0488 47.1013C22.619 43.9496 24.1774 41.0698 24.7615 38.5026C25.0149 37.4189 25.0804 36.2997 24.9553 35.1938C24.8112 34.2436 24.4518 33.3388 23.9045 32.5485C22.6963 30.7968 20.6711 29.7859 18.413 29.7859C16.1549 29.7859 14.1298 30.8367 12.9225 32.5476C12.3748 33.3384 12.015 34.2438 11.8708 35.1947C11.7064 36.2989 11.7726 37.4252 12.0655 38.5026C12.6496 41.0698 14.2471 43.9878 16.7773 47.1395C15.1806 48.9302 13.7395 50.1357 12.3375 50.9147C11.325 51.4983 10.3524 51.8092 9.37888 51.9264C8.37539 52.0382 7.35974 51.9047 6.41935 51.5374C4.51152 50.7592 3.14779 49.0075 2.87574 46.984C2.74743 45.9591 2.86756 44.9184 3.22602 43.9496C3.34249 43.5605 3.53805 43.1715 3.73274 42.7042C4.00479 42.0816 4.31596 41.4198 4.62799 40.7589L4.6671 40.6807C7.3889 34.7927 10.2455 28.9679 13.2345 23.2108L13.351 22.9763C13.663 22.3935 13.9742 21.7709 14.2853 21.1872C14.5974 20.5646 14.9477 19.9801 15.3762 19.4746C16.1932 18.541 17.284 18.0347 18.4913 18.0347C19.6994 18.0347 20.7894 18.541 21.6072 19.4746C22.0357 19.9818 22.386 20.5654 22.6972 21.1872C23.0101 21.7709 23.3212 22.3935 23.6315 22.9763L23.7489 23.2108C26.7018 28.9929 29.5451 34.8303 32.2772 40.7198V40.7589C32.5892 41.3824 32.8613 42.0824 33.1724 42.706C33.368 43.1715 33.5627 43.5605 33.6792 43.9505C33.9903 44.9605 34.1068 45.934 33.9512 46.9458Z" fill="#1F1F1F"/>
</svg>
