<svg width="1920" height="470" viewBox="0 0 1920 470" fill="none" xmlns="http://www.w3.org/2000/svg">
<rect width="1920" height="470" fill="#212121"/>
<path d="M585.876 214H573.526V249H585.876C588.326 249 590.626 248.55 592.776 247.65C594.876 246.8 596.726 245.55 598.276 244C599.826 242.45 601.026 240.65 601.876 238.5C602.726 236.35 603.176 234.05 603.176 231.5C603.176 228.95 602.726 226.65 601.876 224.5C601.026 222.35 599.826 220.5 598.276 218.95C596.726 217.4 594.876 216.2 592.776 215.3C590.626 214.45 588.326 214 585.876 214ZM597.476 231.5C597.476 233.2 597.176 234.75 596.626 236.2C596.076 237.65 595.276 238.9 594.226 239.95C593.176 241 591.976 241.85 590.576 242.4C589.126 243 587.576 243.3 585.876 243.3H579.226V219.7H585.876C587.576 219.7 589.126 220 590.576 220.55C591.976 221.15 593.176 221.95 594.226 223C595.276 224.05 596.076 225.3 596.626 226.75C597.176 228.2 597.476 229.8 597.476 231.5Z" fill="white"/>
<path d="M605.819 236.6C605.819 238.55 606.119 240.3 606.769 241.85C607.369 243.45 608.219 244.8 609.369 245.95C610.469 247.1 611.819 248 613.469 248.65C615.069 249.3 616.869 249.6 618.869 249.6C621.219 249.6 623.219 249.2 624.869 248.35C626.519 247.55 627.819 246.65 628.869 245.65L626.319 241.3C625.469 242.2 624.419 242.95 623.169 243.6C621.919 244.25 620.469 244.55 618.819 244.55C617.919 244.55 617.069 244.4 616.219 244.15C615.369 243.9 614.569 243.5 613.919 242.95C613.219 242.45 612.669 241.8 612.219 241C611.769 240.2 611.469 239.25 611.319 238.2V238.15H630.519V236.6C630.519 234.65 630.269 232.9 629.719 231.25C629.169 229.65 628.419 228.25 627.369 227.1C626.319 225.95 625.069 225 623.569 224.35C622.019 223.7 620.319 223.4 618.369 223.4C616.419 223.4 614.719 223.75 613.169 224.4C611.619 225.1 610.269 226.05 609.219 227.25C608.119 228.45 607.269 229.85 606.719 231.45C606.119 233.05 605.819 234.75 605.819 236.6ZM624.619 234.05H611.369C611.719 232.25 612.419 230.8 613.569 229.75C614.719 228.7 616.269 228.2 618.269 228.2C620.219 228.2 621.769 228.75 622.819 229.8C623.869 230.9 624.469 232.3 624.619 234.05Z" fill="white"/>
<path d="M633.262 231.05C633.262 232.4 633.562 233.55 634.112 234.45C634.662 235.4 635.362 236.15 636.212 236.7C637.062 237.25 638.062 237.7 639.112 238C640.162 238.35 641.162 238.6 642.112 238.8C644.012 239.2 645.412 239.6 646.312 239.95C647.212 240.35 647.662 241.05 647.662 242C647.662 242.95 647.262 243.65 646.462 244.05C645.662 244.5 644.612 244.7 643.362 244.7C641.712 244.7 640.212 244.4 638.862 243.8C637.462 243.25 636.362 242.3 635.612 241L631.912 244.55C632.962 246.3 634.512 247.6 636.462 248.4C638.412 249.2 640.612 249.6 643.012 249.6C644.512 249.6 645.912 249.45 647.162 249.1C648.412 248.8 649.462 248.3 650.362 247.65C651.212 247 651.912 246.2 652.412 245.2C652.912 244.2 653.162 243 653.162 241.65C653.162 240.3 652.912 239.15 652.462 238.25C651.962 237.4 651.312 236.65 650.512 236.1C649.712 235.55 648.812 235.1 647.812 234.75C646.762 234.45 645.712 234.2 644.662 233.95C642.712 233.5 641.212 233.1 640.262 232.75C639.262 232.4 638.762 231.75 638.762 230.8C638.762 230.05 639.162 229.45 639.912 229C640.662 228.55 641.612 228.35 642.862 228.35C644.412 228.35 645.762 228.65 646.912 229.2C648.012 229.8 648.862 230.55 649.462 231.45L653.112 227.95C652.062 226.55 650.762 225.45 649.162 224.6C647.562 223.8 645.562 223.4 643.162 223.4C640.012 223.4 637.612 224.1 635.862 225.45C634.112 226.8 633.262 228.7 633.262 231.05Z" fill="white"/>
<path d="M655.648 216.8C655.648 217.85 655.998 218.75 656.748 219.5C657.498 220.25 658.398 220.6 659.448 220.6C660.498 220.6 661.398 220.25 662.148 219.5C662.898 218.75 663.248 217.85 663.248 216.8C663.248 215.75 662.898 214.85 662.148 214.1C661.398 213.35 660.498 213 659.448 213C658.398 213 657.498 213.35 656.748 214.1C655.998 214.85 655.648 215.75 655.648 216.8ZM662.148 224H656.748V249H662.148V224Z" fill="white"/>
<path d="M686.999 236.5C686.999 238.95 686.349 240.85 684.999 242.3C683.649 243.75 681.899 244.45 679.649 244.45C678.499 244.45 677.499 244.25 676.549 243.85C675.599 243.5 674.799 242.95 674.149 242.25C673.499 241.55 672.949 240.7 672.599 239.7C672.249 238.75 672.049 237.65 672.049 236.5C672.049 235.35 672.249 234.25 672.599 233.25C672.949 232.3 673.499 231.45 674.149 230.75C674.799 230.05 675.599 229.5 676.549 229.1C677.499 228.75 678.499 228.55 679.649 228.55C681.899 228.55 683.649 229.25 684.999 230.7C686.349 232.15 686.999 234.05 686.999 236.5ZM666.499 236.45C666.499 238.5 666.799 240.3 667.399 241.9C667.949 243.5 668.799 244.85 669.849 245.95C670.899 247.1 672.199 247.95 673.649 248.5C675.099 249.1 676.749 249.4 678.499 249.4C680.399 249.4 682.099 249.05 683.549 248.3C684.999 247.6 686.099 246.65 686.899 245.5V247.35C686.899 248.3 686.799 249.25 686.599 250.1C686.349 251 685.949 251.8 685.399 252.45C684.849 253.15 684.099 253.7 683.149 254.1C682.199 254.5 680.949 254.7 679.449 254.7C677.649 254.7 676.099 254.35 674.849 253.65C673.549 252.95 672.449 251.95 671.499 250.6L668.199 254.6C669.349 256.15 670.749 257.35 672.499 258.25C674.249 259.2 676.549 259.65 679.399 259.65C681.949 259.65 684.049 259.3 685.699 258.6C687.349 257.95 688.649 257.05 689.599 255.9C690.549 254.75 691.249 253.45 691.649 252C691.999 250.55 692.199 249.05 692.199 247.5V224H686.749V227.45C686.049 226.35 684.999 225.4 683.549 224.6C682.099 223.8 680.399 223.4 678.399 223.4C676.749 223.4 675.199 223.7 673.749 224.3C672.299 224.9 671.049 225.75 669.999 226.85C668.899 228 668.049 229.35 667.449 230.95C666.799 232.6 666.499 234.4 666.499 236.45Z" fill="white"/>
<path d="M702.911 227.45V224H697.661V249H703.061V237.2C703.061 235.95 703.161 234.75 703.411 233.7C703.611 232.65 703.961 231.7 704.461 230.95C704.961 230.2 705.611 229.6 706.461 229.15C707.261 228.7 708.261 228.5 709.461 228.5C711.061 228.5 712.361 229 713.311 230C714.261 231 714.711 232.55 714.711 234.6V249H720.211V233.9C720.211 232.3 720.011 230.85 719.661 229.55C719.311 228.3 718.761 227.2 718.011 226.25C717.261 225.35 716.311 224.65 715.161 224.15C714.011 223.65 712.661 223.4 711.111 223.4C709.361 223.4 707.811 223.75 706.411 224.45C705.011 225.15 703.861 226.15 702.911 227.45Z" fill="white"/>
<path d="M753.269 248.55V243.6C752.469 243.75 751.819 243.85 751.269 243.9C750.719 243.95 750.069 244 749.419 244C748.469 244 747.769 243.75 747.369 243.3C746.919 242.85 746.719 242.2 746.719 241.35V228.6H753.319V224H746.719V217.3H741.319V224H736.569V228.6H741.319V241.7C741.319 244.45 741.919 246.4 743.169 247.55C744.369 248.7 746.119 249.25 748.419 249.25C750.069 249.25 751.669 249 753.269 248.55Z" fill="white"/>
<path d="M762.366 214H756.966V249H762.366V237.2C762.366 235.95 762.466 234.75 762.716 233.7C762.916 232.65 763.266 231.7 763.766 230.95C764.266 230.2 764.916 229.6 765.766 229.15C766.616 228.7 767.616 228.5 768.816 228.5C770.466 228.5 771.766 229.05 772.666 230.1C773.566 231.15 774.016 232.65 774.016 234.6V249H779.516V233.9C779.516 232.3 779.316 230.85 778.966 229.55C778.616 228.3 778.066 227.2 777.316 226.25C776.566 225.35 775.616 224.65 774.466 224.15C773.316 223.65 771.966 223.4 770.416 223.4C768.616 223.4 767.066 223.75 765.716 224.45C764.366 225.2 763.266 226.2 762.366 227.45V214Z" fill="white"/>
<path d="M799.777 237.45V238.9C799.777 239.65 799.627 240.35 799.327 241.05C798.977 241.8 798.527 242.4 797.977 242.95C797.427 243.5 796.727 243.95 795.877 244.3C795.027 244.65 794.127 244.8 793.077 244.8C791.727 244.8 790.677 244.5 790.027 243.9C789.327 243.35 788.977 242.55 788.977 241.6C788.977 240.75 789.277 240.05 789.877 239.45C790.427 238.9 791.327 238.5 792.577 238.35L799.777 237.45ZM784.127 229.4L788.477 232.15C788.827 230.75 789.627 229.75 790.777 229.15C791.927 228.6 793.277 228.3 794.827 228.3C796.477 228.3 797.727 228.6 798.577 229.2C799.377 229.85 799.777 230.65 799.777 231.6V232.15C799.777 232.8 799.277 233.2 798.327 233.3L791.377 234C789.077 234.2 787.177 234.95 785.677 236.3C784.127 237.65 783.377 239.45 783.377 241.75C783.377 242.9 783.577 243.9 783.977 244.85C784.377 245.8 784.927 246.65 785.677 247.3C786.377 248 787.277 248.55 788.327 248.9C789.377 249.3 790.527 249.5 791.827 249.5C793.727 249.5 795.327 249.15 796.677 248.4C797.977 247.65 799.027 246.7 799.777 245.55V249H805.177V233.15C805.177 229.9 804.327 227.5 802.627 225.85C800.877 224.2 798.277 223.4 794.727 223.4C791.777 223.4 789.477 223.95 787.727 225C785.977 226.05 784.777 227.55 784.127 229.4Z" fill="white"/>
<path d="M824.195 248.55V243.6C823.395 243.75 822.745 243.85 822.195 243.9C821.645 243.95 820.995 244 820.345 244C819.395 244 818.695 243.75 818.295 243.3C817.845 242.85 817.645 242.2 817.645 241.35V228.6H824.245V224H817.645V217.3H812.245V224H807.495V228.6H812.245V241.7C812.245 244.45 812.845 246.4 814.095 247.55C815.295 248.7 817.045 249.25 819.345 249.25C820.995 249.25 822.595 249 824.195 248.55Z" fill="white"/>
<path d="M839.497 236.55C839.497 238.5 839.797 240.25 840.447 241.85C841.097 243.45 841.947 244.8 843.097 245.95C844.247 247.1 845.597 248 847.197 248.65C848.797 249.3 850.597 249.6 852.547 249.6C854.647 249.6 856.497 249.25 858.097 248.55C859.697 247.85 861.047 246.95 862.097 245.9L858.997 241.6C858.197 242.35 857.297 243 856.247 243.55C855.197 244.1 853.947 244.35 852.547 244.35C851.497 244.35 850.497 244.15 849.597 243.8C848.647 243.45 847.847 242.9 847.197 242.2C846.547 241.55 845.997 240.7 845.647 239.75C845.247 238.8 845.047 237.7 845.047 236.5C845.047 235.3 845.247 234.2 845.647 233.25C845.997 232.3 846.547 231.45 847.197 230.75C847.847 230.1 848.647 229.55 849.597 229.2C850.547 228.85 851.547 228.65 852.597 228.65C853.947 228.65 855.097 228.9 856.097 229.4C857.097 229.9 857.997 230.55 858.747 231.3L861.997 227.05C860.847 225.9 859.547 225 857.997 224.35C856.447 223.7 854.697 223.4 852.747 223.4C850.797 223.4 848.997 223.7 847.397 224.35C845.747 225 844.347 225.95 843.197 227.1C842.047 228.25 841.147 229.65 840.497 231.25C839.847 232.85 839.497 234.6 839.497 236.55Z" fill="white"/>
<path d="M863.497 236.5C863.497 238.4 863.847 240.15 864.497 241.75C865.147 243.4 866.097 244.75 867.297 245.9C868.447 247.05 869.847 247.95 871.497 248.6C873.097 249.25 874.847 249.6 876.747 249.6C878.647 249.6 880.397 249.25 882.047 248.6C883.647 247.95 885.047 247.05 886.247 245.9C887.397 244.75 888.347 243.4 888.997 241.75C889.647 240.15 889.997 238.4 889.997 236.5C889.997 234.6 889.647 232.85 888.997 231.2C888.347 229.6 887.397 228.2 886.247 227.05C885.047 225.9 883.647 225 882.047 224.35C880.397 223.7 878.647 223.4 876.747 223.4C874.847 223.4 873.097 223.7 871.497 224.35C869.847 225 868.447 225.9 867.297 227.05C866.097 228.2 865.147 229.6 864.497 231.2C863.847 232.85 863.497 234.6 863.497 236.5ZM884.447 236.5C884.447 237.65 884.247 238.75 883.897 239.7C883.497 240.65 882.947 241.5 882.297 242.15C881.597 242.85 880.797 243.4 879.847 243.75C878.897 244.15 877.897 244.35 876.747 244.35C875.597 244.35 874.597 244.15 873.647 243.75C872.697 243.4 871.897 242.85 871.247 242.15C870.547 241.5 869.997 240.65 869.647 239.7C869.247 238.75 869.047 237.65 869.047 236.5C869.047 235.35 869.247 234.25 869.647 233.3C869.997 232.35 870.547 231.5 871.247 230.8C871.897 230.15 872.697 229.6 873.647 229.2C874.597 228.85 875.597 228.65 876.747 228.65C877.897 228.65 878.897 228.85 879.847 229.2C880.797 229.6 881.597 230.15 882.297 230.8C882.947 231.5 883.497 232.35 883.897 233.3C884.247 234.25 884.447 235.35 884.447 236.5Z" fill="white"/>
<path d="M898.891 227.45V224H893.641V249H899.041V237.2C899.041 235.95 899.141 234.75 899.391 233.7C899.591 232.65 899.941 231.7 900.441 230.95C900.941 230.2 901.591 229.6 902.441 229.15C903.241 228.7 904.241 228.5 905.441 228.5C907.041 228.5 908.341 229 909.291 230C910.241 231 910.691 232.55 910.691 234.6V249H916.191V233.9C916.191 232.3 915.991 230.85 915.641 229.55C915.291 228.3 914.741 227.2 913.991 226.25C913.241 225.35 912.291 224.65 911.141 224.15C909.991 223.65 908.641 223.4 907.091 223.4C905.341 223.4 903.791 223.75 902.391 224.45C900.991 225.15 899.841 226.15 898.891 227.45Z" fill="white"/>
<path d="M929.794 249H933.994L945.094 224H938.944L931.894 241.35L924.844 224H918.694L929.794 249Z" fill="white"/>
<path d="M945.751 236.6C945.751 238.55 946.051 240.3 946.701 241.85C947.301 243.45 948.151 244.8 949.301 245.95C950.401 247.1 951.751 248 953.401 248.65C955.001 249.3 956.801 249.6 958.801 249.6C961.151 249.6 963.151 249.2 964.801 248.35C966.451 247.55 967.751 246.65 968.801 245.65L966.251 241.3C965.401 242.2 964.351 242.95 963.101 243.6C961.851 244.25 960.401 244.55 958.751 244.55C957.851 244.55 957.001 244.4 956.151 244.15C955.301 243.9 954.501 243.5 953.851 242.95C953.151 242.45 952.601 241.8 952.151 241C951.701 240.2 951.401 239.25 951.251 238.2V238.15H970.451V236.6C970.451 234.65 970.201 232.9 969.651 231.25C969.101 229.65 968.351 228.25 967.301 227.1C966.251 225.95 965.001 225 963.501 224.35C961.951 223.7 960.251 223.4 958.301 223.4C956.351 223.4 954.651 223.75 953.101 224.4C951.551 225.1 950.201 226.05 949.151 227.25C948.051 228.45 947.201 229.85 946.651 231.45C946.051 233.05 945.751 234.75 945.751 236.6ZM964.551 234.05H951.301C951.651 232.25 952.351 230.8 953.501 229.75C954.651 228.7 956.201 228.2 958.201 228.2C960.151 228.2 961.701 228.75 962.751 229.8C963.801 230.9 964.401 232.3 964.551 234.05Z" fill="white"/>
<path d="M975.493 259H981.243L997.243 224H991.493L984.493 239.3L977.293 224H970.893L981.643 245.55L975.493 259Z" fill="white"/>
<path d="M998.756 231.05C998.756 232.4 999.056 233.55 999.606 234.45C1000.16 235.4 1000.86 236.15 1001.71 236.7C1002.56 237.25 1003.56 237.7 1004.61 238C1005.66 238.35 1006.66 238.6 1007.61 238.8C1009.51 239.2 1010.91 239.6 1011.81 239.95C1012.71 240.35 1013.16 241.05 1013.16 242C1013.16 242.95 1012.76 243.65 1011.96 244.05C1011.16 244.5 1010.11 244.7 1008.86 244.7C1007.21 244.7 1005.71 244.4 1004.36 243.8C1002.96 243.25 1001.86 242.3 1001.11 241L997.406 244.55C998.456 246.3 1000.01 247.6 1001.96 248.4C1003.91 249.2 1006.11 249.6 1008.51 249.6C1010.01 249.6 1011.41 249.45 1012.66 249.1C1013.91 248.8 1014.96 248.3 1015.86 247.65C1016.71 247 1017.41 246.2 1017.91 245.2C1018.41 244.2 1018.66 243 1018.66 241.65C1018.66 240.3 1018.41 239.15 1017.96 238.25C1017.46 237.4 1016.81 236.65 1016.01 236.1C1015.21 235.55 1014.31 235.1 1013.31 234.75C1012.26 234.45 1011.21 234.2 1010.16 233.95C1008.21 233.5 1006.71 233.1 1005.76 232.75C1004.76 232.4 1004.26 231.75 1004.26 230.8C1004.26 230.05 1004.66 229.45 1005.41 229C1006.16 228.55 1007.11 228.35 1008.36 228.35C1009.91 228.35 1011.26 228.65 1012.41 229.2C1013.51 229.8 1014.36 230.55 1014.96 231.45L1018.61 227.95C1017.56 226.55 1016.26 225.45 1014.66 224.6C1013.06 223.8 1011.06 223.4 1008.66 223.4C1005.51 223.4 1003.11 224.1 1001.36 225.45C999.606 226.8 998.756 228.7 998.756 231.05Z" fill="white"/>
<path d="M1049.5 248.55V243.6C1048.7 243.75 1048.05 243.85 1047.5 243.9C1046.95 243.95 1046.3 244 1045.65 244C1044.7 244 1044 243.75 1043.6 243.3C1043.15 242.85 1042.95 242.2 1042.95 241.35V228.6H1049.55V224H1042.95V217.3H1037.55V224H1032.8V228.6H1037.55V241.7C1037.55 244.45 1038.15 246.4 1039.4 247.55C1040.6 248.7 1042.35 249.25 1044.65 249.25C1046.3 249.25 1047.9 249 1049.5 248.55Z" fill="white"/>
<path d="M1058.59 214H1053.19V249H1058.59V237.2C1058.59 235.95 1058.69 234.75 1058.94 233.7C1059.14 232.65 1059.49 231.7 1059.99 230.95C1060.49 230.2 1061.14 229.6 1061.99 229.15C1062.84 228.7 1063.84 228.5 1065.04 228.5C1066.69 228.5 1067.99 229.05 1068.89 230.1C1069.79 231.15 1070.24 232.65 1070.24 234.6V249H1075.74V233.9C1075.74 232.3 1075.54 230.85 1075.19 229.55C1074.84 228.3 1074.29 227.2 1073.54 226.25C1072.79 225.35 1071.84 224.65 1070.69 224.15C1069.54 223.65 1068.19 223.4 1066.64 223.4C1064.84 223.4 1063.29 223.75 1061.94 224.45C1060.59 225.2 1059.49 226.2 1058.59 227.45V214Z" fill="white"/>
<path d="M1079.16 236.6C1079.16 238.55 1079.46 240.3 1080.11 241.85C1080.71 243.45 1081.56 244.8 1082.71 245.95C1083.81 247.1 1085.16 248 1086.81 248.65C1088.41 249.3 1090.21 249.6 1092.21 249.6C1094.56 249.6 1096.56 249.2 1098.21 248.35C1099.86 247.55 1101.16 246.65 1102.21 245.65L1099.66 241.3C1098.81 242.2 1097.76 242.95 1096.51 243.6C1095.26 244.25 1093.81 244.55 1092.16 244.55C1091.26 244.55 1090.41 244.4 1089.56 244.15C1088.71 243.9 1087.91 243.5 1087.26 242.95C1086.56 242.45 1086.01 241.8 1085.56 241C1085.11 240.2 1084.81 239.25 1084.66 238.2V238.15H1103.86V236.6C1103.86 234.65 1103.61 232.9 1103.06 231.25C1102.51 229.65 1101.76 228.25 1100.71 227.1C1099.66 225.95 1098.41 225 1096.91 224.35C1095.36 223.7 1093.66 223.4 1091.71 223.4C1089.76 223.4 1088.06 223.75 1086.51 224.4C1084.96 225.1 1083.61 226.05 1082.56 227.25C1081.46 228.45 1080.61 229.85 1080.06 231.45C1079.46 233.05 1079.16 234.75 1079.16 236.6ZM1097.96 234.05H1084.71C1085.06 232.25 1085.76 230.8 1086.91 229.75C1088.06 228.7 1089.61 228.2 1091.61 228.2C1093.56 228.2 1095.11 228.75 1096.16 229.8C1097.21 230.9 1097.81 232.3 1097.96 234.05Z" fill="white"/>
<path d="M1119.85 216.8C1119.85 217.85 1120.2 218.75 1120.95 219.5C1121.7 220.25 1122.6 220.6 1123.65 220.6C1124.7 220.6 1125.6 220.25 1126.35 219.5C1127.1 218.75 1127.45 217.85 1127.45 216.8C1127.45 215.75 1127.1 214.85 1126.35 214.1C1125.6 213.35 1124.7 213 1123.65 213C1122.6 213 1121.7 213.35 1120.95 214.1C1120.2 214.85 1119.85 215.75 1119.85 216.8ZM1126.35 224H1120.95V249H1126.35V224Z" fill="white"/>
<path d="M1137.35 227.45V224H1132.1V249H1137.5V237.2C1137.5 235.95 1137.6 234.75 1137.85 233.7C1138.05 232.65 1138.4 231.7 1138.9 230.95C1139.4 230.2 1140.05 229.6 1140.9 229.15C1141.7 228.7 1142.7 228.5 1143.9 228.5C1145.5 228.5 1146.8 229 1147.75 230C1148.7 231 1149.15 232.55 1149.15 234.6V249H1154.65V233.9C1154.65 232.3 1154.45 230.85 1154.1 229.55C1153.75 228.3 1153.2 227.2 1152.45 226.25C1151.7 225.35 1150.75 224.65 1149.6 224.15C1148.45 223.65 1147.1 223.4 1145.55 223.4C1143.8 223.4 1142.25 223.75 1140.85 224.45C1139.45 225.15 1138.3 226.15 1137.35 227.45Z" fill="white"/>
<path d="M1165.41 227.45V224H1160.16V249H1165.56V237.2C1165.56 235.95 1165.66 234.75 1165.91 233.7C1166.11 232.65 1166.46 231.7 1166.96 230.95C1167.46 230.2 1168.11 229.6 1168.96 229.15C1169.76 228.7 1170.76 228.5 1171.96 228.5C1173.56 228.5 1174.86 229 1175.81 230C1176.76 231 1177.21 232.55 1177.21 234.6V249H1182.71V233.9C1182.71 232.3 1182.51 230.85 1182.16 229.55C1181.81 228.3 1181.26 227.2 1180.51 226.25C1179.76 225.35 1178.81 224.65 1177.66 224.15C1176.51 223.65 1175.16 223.4 1173.61 223.4C1171.86 223.4 1170.31 223.75 1168.91 224.45C1167.51 225.15 1166.36 226.15 1165.41 227.45Z" fill="white"/>
<path d="M1186.46 236.5C1186.46 238.4 1186.81 240.15 1187.46 241.75C1188.11 243.4 1189.06 244.75 1190.26 245.9C1191.41 247.05 1192.81 247.95 1194.46 248.6C1196.06 249.25 1197.81 249.6 1199.71 249.6C1201.61 249.6 1203.36 249.25 1205.01 248.6C1206.61 247.95 1208.01 247.05 1209.21 245.9C1210.36 244.75 1211.31 243.4 1211.96 241.75C1212.61 240.15 1212.96 238.4 1212.96 236.5C1212.96 234.6 1212.61 232.85 1211.96 231.2C1211.31 229.6 1210.36 228.2 1209.21 227.05C1208.01 225.9 1206.61 225 1205.01 224.35C1203.36 223.7 1201.61 223.4 1199.71 223.4C1197.81 223.4 1196.06 223.7 1194.46 224.35C1192.81 225 1191.41 225.9 1190.26 227.05C1189.06 228.2 1188.11 229.6 1187.46 231.2C1186.81 232.85 1186.46 234.6 1186.46 236.5ZM1207.41 236.5C1207.41 237.65 1207.21 238.75 1206.86 239.7C1206.46 240.65 1205.91 241.5 1205.26 242.15C1204.56 242.85 1203.76 243.4 1202.81 243.75C1201.86 244.15 1200.86 244.35 1199.71 244.35C1198.56 244.35 1197.56 244.15 1196.61 243.75C1195.66 243.4 1194.86 242.85 1194.21 242.15C1193.51 241.5 1192.96 240.65 1192.61 239.7C1192.21 238.75 1192.01 237.65 1192.01 236.5C1192.01 235.35 1192.21 234.25 1192.61 233.3C1192.96 232.35 1193.51 231.5 1194.21 230.8C1194.86 230.15 1195.66 229.6 1196.61 229.2C1197.56 228.85 1198.56 228.65 1199.71 228.65C1200.86 228.65 1201.86 228.85 1202.81 229.2C1203.76 229.6 1204.56 230.15 1205.26 230.8C1205.91 231.5 1206.46 232.35 1206.86 233.3C1207.21 234.25 1207.41 235.35 1207.41 236.5Z" fill="white"/>
<path d="M1224.7 249H1228.9L1240 224H1233.85L1226.8 241.35L1219.75 224H1213.6L1224.7 249Z" fill="white"/>
<path d="M1257.51 237.45V238.9C1257.51 239.65 1257.36 240.35 1257.06 241.05C1256.71 241.8 1256.26 242.4 1255.71 242.95C1255.16 243.5 1254.46 243.95 1253.61 244.3C1252.76 244.65 1251.86 244.8 1250.81 244.8C1249.46 244.8 1248.41 244.5 1247.76 243.9C1247.06 243.35 1246.71 242.55 1246.71 241.6C1246.71 240.75 1247.01 240.05 1247.61 239.45C1248.16 238.9 1249.06 238.5 1250.31 238.35L1257.51 237.45ZM1241.86 229.4L1246.21 232.15C1246.56 230.75 1247.36 229.75 1248.51 229.15C1249.66 228.6 1251.01 228.3 1252.56 228.3C1254.21 228.3 1255.46 228.6 1256.31 229.2C1257.11 229.85 1257.51 230.65 1257.51 231.6V232.15C1257.51 232.8 1257.01 233.2 1256.06 233.3L1249.11 234C1246.81 234.2 1244.91 234.95 1243.41 236.3C1241.86 237.65 1241.11 239.45 1241.11 241.75C1241.11 242.9 1241.31 243.9 1241.71 244.85C1242.11 245.8 1242.66 246.65 1243.41 247.3C1244.11 248 1245.01 248.55 1246.06 248.9C1247.11 249.3 1248.26 249.5 1249.56 249.5C1251.46 249.5 1253.06 249.15 1254.41 248.4C1255.71 247.65 1256.76 246.7 1257.51 245.55V249H1262.91V233.15C1262.91 229.9 1262.06 227.5 1260.36 225.85C1258.61 224.2 1256.01 223.4 1252.46 223.4C1249.51 223.4 1247.21 223.95 1245.46 225C1243.71 226.05 1242.51 227.55 1241.86 229.4Z" fill="white"/>
<path d="M1281.93 248.55V243.6C1281.13 243.75 1280.48 243.85 1279.93 243.9C1279.38 243.95 1278.73 244 1278.08 244C1277.13 244 1276.43 243.75 1276.03 243.3C1275.58 242.85 1275.38 242.2 1275.38 241.35V228.6H1281.98V224H1275.38V217.3H1269.98V224H1265.23V228.6H1269.98V241.7C1269.98 244.45 1270.58 246.4 1271.83 247.55C1273.03 248.7 1274.78 249.25 1277.08 249.25C1278.73 249.25 1280.33 249 1281.93 248.55Z" fill="white"/>
<path d="M1284.83 216.8C1284.83 217.85 1285.18 218.75 1285.93 219.5C1286.68 220.25 1287.58 220.6 1288.63 220.6C1289.68 220.6 1290.58 220.25 1291.33 219.5C1292.08 218.75 1292.43 217.85 1292.43 216.8C1292.43 215.75 1292.08 214.85 1291.33 214.1C1290.58 213.35 1289.68 213 1288.63 213C1287.58 213 1286.68 213.35 1285.93 214.1C1285.18 214.85 1284.83 215.75 1284.83 216.8ZM1291.33 224H1285.93V249H1291.33V224Z" fill="white"/>
<path d="M1295.33 236.5C1295.33 238.4 1295.68 240.15 1296.33 241.75C1296.98 243.4 1297.93 244.75 1299.13 245.9C1300.28 247.05 1301.68 247.95 1303.33 248.6C1304.93 249.25 1306.68 249.6 1308.58 249.6C1310.48 249.6 1312.23 249.25 1313.88 248.6C1315.48 247.95 1316.88 247.05 1318.08 245.9C1319.23 244.75 1320.18 243.4 1320.83 241.75C1321.48 240.15 1321.83 238.4 1321.83 236.5C1321.83 234.6 1321.48 232.85 1320.83 231.2C1320.18 229.6 1319.23 228.2 1318.08 227.05C1316.88 225.9 1315.48 225 1313.88 224.35C1312.23 223.7 1310.48 223.4 1308.58 223.4C1306.68 223.4 1304.93 223.7 1303.33 224.35C1301.68 225 1300.28 225.9 1299.13 227.05C1297.93 228.2 1296.98 229.6 1296.33 231.2C1295.68 232.85 1295.33 234.6 1295.33 236.5ZM1316.28 236.5C1316.28 237.65 1316.08 238.75 1315.73 239.7C1315.33 240.65 1314.78 241.5 1314.13 242.15C1313.43 242.85 1312.63 243.4 1311.68 243.75C1310.73 244.15 1309.73 244.35 1308.58 244.35C1307.43 244.35 1306.43 244.15 1305.48 243.75C1304.53 243.4 1303.73 242.85 1303.08 242.15C1302.38 241.5 1301.83 240.65 1301.48 239.7C1301.08 238.75 1300.88 237.65 1300.88 236.5C1300.88 235.35 1301.08 234.25 1301.48 233.3C1301.83 232.35 1302.38 231.5 1303.08 230.8C1303.73 230.15 1304.53 229.6 1305.48 229.2C1306.43 228.85 1307.43 228.65 1308.58 228.65C1309.73 228.65 1310.73 228.85 1311.68 229.2C1312.63 229.6 1313.43 230.15 1314.13 230.8C1314.78 231.5 1315.33 232.35 1315.73 233.3C1316.08 234.25 1316.28 235.35 1316.28 236.5Z" fill="white"/>
<path d="M1330.72 227.45V224H1325.47V249H1330.87V237.2C1330.87 235.95 1330.97 234.75 1331.22 233.7C1331.42 232.65 1331.77 231.7 1332.27 230.95C1332.77 230.2 1333.42 229.6 1334.27 229.15C1335.07 228.7 1336.07 228.5 1337.27 228.5C1338.87 228.5 1340.17 229 1341.12 230C1342.07 231 1342.52 232.55 1342.52 234.6V249H1348.02V233.9C1348.02 232.3 1347.82 230.85 1347.47 229.55C1347.12 228.3 1346.57 227.2 1345.82 226.25C1345.07 225.35 1344.12 224.65 1342.97 224.15C1341.82 223.65 1340.47 223.4 1338.92 223.4C1337.17 223.4 1335.62 223.75 1334.22 224.45C1332.82 225.15 1331.67 226.15 1330.72 227.45Z" fill="white"/>
<path d="M708.963 296.5C708.963 298.4 709.313 300.15 709.963 301.75C710.613 303.4 711.563 304.75 712.763 305.9C713.913 307.05 715.313 307.95 716.963 308.6C718.563 309.25 720.313 309.6 722.213 309.6C724.113 309.6 725.863 309.25 727.513 308.6C729.113 307.95 730.513 307.05 731.713 305.9C732.863 304.75 733.813 303.4 734.463 301.75C735.113 300.15 735.463 298.4 735.463 296.5C735.463 294.6 735.113 292.85 734.463 291.2C733.813 289.6 732.863 288.2 731.713 287.05C730.513 285.9 729.113 285 727.513 284.35C725.863 283.7 724.113 283.4 722.213 283.4C720.313 283.4 718.563 283.7 716.963 284.35C715.313 285 713.913 285.9 712.763 287.05C711.563 288.2 710.613 289.6 709.963 291.2C709.313 292.85 708.963 294.6 708.963 296.5ZM729.913 296.5C729.913 297.65 729.713 298.75 729.363 299.7C728.963 300.65 728.413 301.5 727.763 302.15C727.063 302.85 726.263 303.4 725.313 303.75C724.363 304.15 723.363 304.35 722.213 304.35C721.063 304.35 720.063 304.15 719.113 303.75C718.163 303.4 717.363 302.85 716.713 302.15C716.013 301.5 715.463 300.65 715.113 299.7C714.713 298.75 714.513 297.65 714.513 296.5C714.513 295.35 714.713 294.25 715.113 293.3C715.463 292.35 716.013 291.5 716.713 290.8C717.363 290.15 718.163 289.6 719.113 289.2C720.063 288.85 721.063 288.65 722.213 288.65C723.363 288.65 724.363 288.85 725.313 289.2C726.263 289.6 727.063 290.15 727.763 290.8C728.413 291.5 728.963 292.35 729.363 293.3C729.713 294.25 729.913 295.35 729.913 296.5Z" fill="white"/>
<path d="M746.707 288.6H753.907V284H746.707V283C746.707 281.35 747.007 280.2 747.607 279.5C748.207 278.85 749.257 278.5 750.707 278.5C751.257 278.5 751.807 278.55 752.357 278.6C752.907 278.65 753.507 278.75 754.207 278.9V273.9C753.457 273.8 752.757 273.7 752.107 273.6C751.407 273.55 750.657 273.5 749.857 273.5C748.607 273.5 747.507 273.65 746.457 274C745.407 274.35 744.507 274.85 743.757 275.6C743.007 276.35 742.407 277.3 741.957 278.45C741.507 279.6 741.307 281 741.307 282.65V284H736.507V288.6H741.307V309H746.707V288.6Z" fill="white"/>
<path d="M791.606 288.2C790.956 286.7 789.956 285.5 788.606 284.65C787.256 283.8 785.606 283.4 783.606 283.4C781.706 283.4 780.106 283.8 778.856 284.55C777.556 285.3 776.506 286.3 775.756 287.55V284H770.506V309H775.906V297.2C775.906 295.95 776.006 294.8 776.206 293.75C776.406 292.7 776.756 291.8 777.256 291C777.756 290.25 778.406 289.6 779.256 289.15C780.056 288.7 781.056 288.5 782.306 288.5C784.056 288.5 785.356 289 786.256 290.05C787.106 291.1 787.556 292.6 787.556 294.6V309H792.956V297.2C792.956 295.95 793.056 294.8 793.306 293.75C793.506 292.7 793.856 291.75 794.356 291C794.856 290.25 795.506 289.6 796.356 289.15C797.156 288.7 798.156 288.5 799.406 288.5C801.156 288.5 802.456 289 803.306 290.05C804.156 291.1 804.606 292.6 804.606 294.6V309H810.056V294.2C810.056 290.9 809.256 288.25 807.706 286.3C806.106 284.35 803.706 283.4 800.506 283.4C798.256 283.4 796.456 283.85 795.056 284.75C793.606 285.65 792.456 286.8 791.606 288.2Z" fill="white"/>
<path d="M813.752 296.5C813.752 298.4 814.102 300.15 814.752 301.75C815.402 303.4 816.352 304.75 817.552 305.9C818.702 307.05 820.102 307.95 821.752 308.6C823.352 309.25 825.102 309.6 827.002 309.6C828.902 309.6 830.652 309.25 832.302 308.6C833.902 307.95 835.302 307.05 836.502 305.9C837.652 304.75 838.602 303.4 839.252 301.75C839.902 300.15 840.252 298.4 840.252 296.5C840.252 294.6 839.902 292.85 839.252 291.2C838.602 289.6 837.652 288.2 836.502 287.05C835.302 285.9 833.902 285 832.302 284.35C830.652 283.7 828.902 283.4 827.002 283.4C825.102 283.4 823.352 283.7 821.752 284.35C820.102 285 818.702 285.9 817.552 287.05C816.352 288.2 815.402 289.6 814.752 291.2C814.102 292.85 813.752 294.6 813.752 296.5ZM834.702 296.5C834.702 297.65 834.502 298.75 834.152 299.7C833.752 300.65 833.202 301.5 832.552 302.15C831.852 302.85 831.052 303.4 830.102 303.75C829.152 304.15 828.152 304.35 827.002 304.35C825.852 304.35 824.852 304.15 823.902 303.75C822.952 303.4 822.152 302.85 821.502 302.15C820.802 301.5 820.252 300.65 819.902 299.7C819.502 298.75 819.302 297.65 819.302 296.5C819.302 295.35 819.502 294.25 819.902 293.3C820.252 292.35 820.802 291.5 821.502 290.8C822.152 290.15 822.952 289.6 823.902 289.2C824.852 288.85 825.852 288.65 827.002 288.65C828.152 288.65 829.152 288.85 830.102 289.2C831.052 289.6 831.852 290.15 832.552 290.8C833.202 291.5 833.752 292.35 834.152 293.3C834.502 294.25 834.702 295.35 834.702 296.5Z" fill="white"/>
<path d="M855.196 288.55C857.446 288.55 859.246 289.25 860.646 290.7C861.996 292.15 862.696 294.05 862.696 296.5C862.696 298.95 861.996 300.85 860.646 302.3C859.246 303.75 857.446 304.45 855.196 304.45C852.946 304.45 851.096 303.7 849.746 302.25C848.396 300.8 847.696 298.85 847.696 296.5C847.696 294.15 848.396 292.2 849.746 290.75C851.096 289.3 852.946 288.55 855.196 288.55ZM867.846 274H862.446V287.6C861.496 286.4 860.296 285.4 858.896 284.6C857.496 283.8 855.796 283.4 853.796 283.4C852.196 283.4 850.696 283.7 849.296 284.25C847.846 284.85 846.646 285.7 845.596 286.85C844.546 288 843.696 289.35 843.096 290.95C842.446 292.6 842.146 294.45 842.146 296.5C842.146 298.55 842.446 300.4 843.096 302C843.696 303.65 844.546 305 845.596 306.1C846.646 307.25 847.846 308.1 849.296 308.7C850.696 309.3 852.196 309.6 853.846 309.6C855.796 309.6 857.496 309.2 858.946 308.45C860.346 307.7 861.496 306.7 862.446 305.45V309H867.846V274Z" fill="white"/>
<path d="M871.517 296.6C871.517 298.55 871.817 300.3 872.467 301.85C873.067 303.45 873.917 304.8 875.067 305.95C876.167 307.1 877.517 308 879.167 308.65C880.767 309.3 882.567 309.6 884.567 309.6C886.917 309.6 888.917 309.2 890.567 308.35C892.217 307.55 893.517 306.65 894.567 305.65L892.017 301.3C891.167 302.2 890.117 302.95 888.867 303.6C887.617 304.25 886.167 304.55 884.517 304.55C883.617 304.55 882.767 304.4 881.917 304.15C881.067 303.9 880.267 303.5 879.617 302.95C878.917 302.45 878.367 301.8 877.917 301C877.467 300.2 877.167 299.25 877.017 298.2V298.15H896.217V296.6C896.217 294.65 895.967 292.9 895.417 291.25C894.867 289.65 894.117 288.25 893.067 287.1C892.017 285.95 890.767 285 889.267 284.35C887.717 283.7 886.017 283.4 884.067 283.4C882.117 283.4 880.417 283.75 878.867 284.4C877.317 285.1 875.967 286.05 874.917 287.25C873.817 288.45 872.967 289.85 872.417 291.45C871.817 293.05 871.517 294.75 871.517 296.6ZM890.317 294.05H877.067C877.417 292.25 878.117 290.8 879.267 289.75C880.417 288.7 881.967 288.2 883.967 288.2C885.917 288.2 887.467 288.75 888.517 289.8C889.567 290.9 890.167 292.3 890.317 294.05Z" fill="white"/>
<path d="M904.86 287.95V284H899.66V309H905.06V297.55C905.06 294.9 905.56 292.8 906.61 291.3C907.66 289.85 909.41 289.1 911.91 289.1C912.41 289.1 912.91 289.15 913.36 289.2C913.81 289.25 914.21 289.35 914.66 289.45V283.7C913.86 283.5 913.06 283.4 912.21 283.4C910.46 283.4 908.96 283.8 907.81 284.6C906.61 285.4 905.61 286.5 904.86 287.95Z" fill="white"/>
<path d="M922.855 287.45V284H917.605V309H923.005V297.2C923.005 295.95 923.105 294.75 923.355 293.7C923.555 292.65 923.905 291.7 924.405 290.95C924.905 290.2 925.555 289.6 926.405 289.15C927.205 288.7 928.205 288.5 929.405 288.5C931.005 288.5 932.305 289 933.255 290C934.205 291 934.655 292.55 934.655 294.6V309H940.155V293.9C940.155 292.3 939.955 290.85 939.605 289.55C939.255 288.3 938.705 287.2 937.955 286.25C937.205 285.35 936.255 284.65 935.105 284.15C933.955 283.65 932.605 283.4 931.055 283.4C929.305 283.4 927.755 283.75 926.355 284.45C924.955 285.15 923.805 286.15 922.855 287.45Z" fill="white"/>
<path d="M974.113 297.45V298.9C974.113 299.65 973.963 300.35 973.663 301.05C973.313 301.8 972.863 302.4 972.313 302.95C971.763 303.5 971.063 303.95 970.213 304.3C969.363 304.65 968.463 304.8 967.413 304.8C966.063 304.8 965.013 304.5 964.363 303.9C963.663 303.35 963.313 302.55 963.313 301.6C963.313 300.75 963.613 300.05 964.213 299.45C964.763 298.9 965.663 298.5 966.913 298.35L974.113 297.45ZM958.463 289.4L962.813 292.15C963.163 290.75 963.963 289.75 965.113 289.15C966.263 288.6 967.613 288.3 969.163 288.3C970.813 288.3 972.063 288.6 972.913 289.2C973.713 289.85 974.113 290.65 974.113 291.6V292.15C974.113 292.8 973.613 293.2 972.663 293.3L965.713 294C963.413 294.2 961.513 294.95 960.013 296.3C958.463 297.65 957.713 299.45 957.713 301.75C957.713 302.9 957.913 303.9 958.313 304.85C958.713 305.8 959.263 306.65 960.013 307.3C960.713 308 961.613 308.55 962.663 308.9C963.713 309.3 964.863 309.5 966.163 309.5C968.063 309.5 969.663 309.15 971.013 308.4C972.313 307.65 973.363 306.7 974.113 305.55V309H979.513V293.15C979.513 289.9 978.663 287.5 976.963 285.85C975.213 284.2 972.613 283.4 969.063 283.4C966.113 283.4 963.813 283.95 962.063 285C960.313 286.05 959.113 287.55 958.463 289.4Z" fill="white"/>
<path d="M996.982 304.45C994.732 304.45 992.932 303.75 991.582 302.3C990.182 300.85 989.482 298.95 989.482 296.5C989.482 294.05 990.182 292.15 991.582 290.7C992.932 289.25 994.732 288.55 996.982 288.55C999.232 288.55 1001.08 289.3 1002.43 290.75C1003.78 292.2 1004.48 294.15 1004.48 296.5C1004.48 298.85 1003.78 300.8 1002.43 302.25C1001.08 303.7 999.232 304.45 996.982 304.45ZM984.332 319H989.732V305.4C990.682 306.6 991.882 307.6 993.282 308.4C994.682 309.2 996.382 309.6 998.382 309.6C999.982 309.6 1001.48 309.3 1002.93 308.7C1004.33 308.15 1005.58 307.3 1006.63 306.15C1007.68 305 1008.48 303.65 1009.13 302C1009.73 300.4 1010.03 298.55 1010.03 296.5C1010.03 294.45 1009.73 292.65 1009.13 291C1008.48 289.35 1007.68 288 1006.63 286.85C1005.58 285.75 1004.33 284.9 1002.93 284.3C1001.48 283.7 999.982 283.4 998.332 283.4C996.382 283.4 994.682 283.75 993.282 284.5C991.832 285.25 990.682 286.3 989.732 287.55V284H984.332V319Z" fill="white"/>
<path d="M1028.8 297.45V298.9C1028.8 299.65 1028.65 300.35 1028.35 301.05C1028 301.8 1027.55 302.4 1027 302.95C1026.45 303.5 1025.75 303.95 1024.9 304.3C1024.05 304.65 1023.15 304.8 1022.1 304.8C1020.75 304.8 1019.7 304.5 1019.05 303.9C1018.35 303.35 1018 302.55 1018 301.6C1018 300.75 1018.3 300.05 1018.9 299.45C1019.45 298.9 1020.35 298.5 1021.6 298.35L1028.8 297.45ZM1013.15 289.4L1017.5 292.15C1017.85 290.75 1018.65 289.75 1019.8 289.15C1020.95 288.6 1022.3 288.3 1023.85 288.3C1025.5 288.3 1026.75 288.6 1027.6 289.2C1028.4 289.85 1028.8 290.65 1028.8 291.6V292.15C1028.8 292.8 1028.3 293.2 1027.35 293.3L1020.4 294C1018.1 294.2 1016.2 294.95 1014.7 296.3C1013.15 297.65 1012.4 299.45 1012.4 301.75C1012.4 302.9 1012.6 303.9 1013 304.85C1013.4 305.8 1013.95 306.65 1014.7 307.3C1015.4 308 1016.3 308.55 1017.35 308.9C1018.4 309.3 1019.55 309.5 1020.85 309.5C1022.75 309.5 1024.35 309.15 1025.7 308.4C1027 307.65 1028.05 306.7 1028.8 305.55V309H1034.2V293.15C1034.2 289.9 1033.35 287.5 1031.65 285.85C1029.9 284.2 1027.3 283.4 1023.75 283.4C1020.8 283.4 1018.5 283.95 1016.75 285C1015 286.05 1013.8 287.55 1013.15 289.4Z" fill="white"/>
<path d="M1044.22 287.95V284H1039.02V309H1044.42V297.55C1044.42 294.9 1044.92 292.8 1045.97 291.3C1047.02 289.85 1048.77 289.1 1051.27 289.1C1051.77 289.1 1052.27 289.15 1052.72 289.2C1053.17 289.25 1053.57 289.35 1054.02 289.45V283.7C1053.22 283.5 1052.42 283.4 1051.57 283.4C1049.82 283.4 1048.32 283.8 1047.17 284.6C1045.97 285.4 1044.97 286.5 1044.22 287.95Z" fill="white"/>
<path d="M1071.17 308.55V303.6C1070.37 303.75 1069.72 303.85 1069.17 303.9C1068.62 303.95 1067.97 304 1067.32 304C1066.37 304 1065.67 303.75 1065.27 303.3C1064.82 302.85 1064.62 302.2 1064.62 301.35V288.6H1071.22V284H1064.62V277.3H1059.22V284H1054.47V288.6H1059.22V301.7C1059.22 304.45 1059.82 306.4 1061.07 307.55C1062.27 308.7 1064.02 309.25 1066.32 309.25C1067.97 309.25 1069.57 309 1071.17 308.55Z" fill="white"/>
<path d="M1095.96 288.2C1095.31 286.7 1094.31 285.5 1092.96 284.65C1091.61 283.8 1089.96 283.4 1087.96 283.4C1086.06 283.4 1084.46 283.8 1083.21 284.55C1081.91 285.3 1080.86 286.3 1080.11 287.55V284H1074.86V309H1080.26V297.2C1080.26 295.95 1080.36 294.8 1080.56 293.75C1080.76 292.7 1081.11 291.8 1081.61 291C1082.11 290.25 1082.76 289.6 1083.61 289.15C1084.41 288.7 1085.41 288.5 1086.66 288.5C1088.41 288.5 1089.71 289 1090.61 290.05C1091.46 291.1 1091.91 292.6 1091.91 294.6V309H1097.31V297.2C1097.31 295.95 1097.41 294.8 1097.66 293.75C1097.86 292.7 1098.21 291.75 1098.71 291C1099.21 290.25 1099.86 289.6 1100.71 289.15C1101.51 288.7 1102.51 288.5 1103.76 288.5C1105.51 288.5 1106.81 289 1107.66 290.05C1108.51 291.1 1108.96 292.6 1108.96 294.6V309H1114.41V294.2C1114.41 290.9 1113.61 288.25 1112.06 286.3C1110.46 284.35 1108.06 283.4 1104.86 283.4C1102.61 283.4 1100.81 283.85 1099.41 284.75C1097.96 285.65 1096.81 286.8 1095.96 288.2Z" fill="white"/>
<path d="M1118.11 296.6C1118.11 298.55 1118.41 300.3 1119.06 301.85C1119.66 303.45 1120.51 304.8 1121.66 305.95C1122.76 307.1 1124.11 308 1125.76 308.65C1127.36 309.3 1129.16 309.6 1131.16 309.6C1133.51 309.6 1135.51 309.2 1137.16 308.35C1138.81 307.55 1140.11 306.65 1141.16 305.65L1138.61 301.3C1137.76 302.2 1136.71 302.95 1135.46 303.6C1134.21 304.25 1132.76 304.55 1131.11 304.55C1130.21 304.55 1129.36 304.4 1128.51 304.15C1127.66 303.9 1126.86 303.5 1126.21 302.95C1125.51 302.45 1124.96 301.8 1124.51 301C1124.06 300.2 1123.76 299.25 1123.61 298.2V298.15H1142.81V296.6C1142.81 294.65 1142.56 292.9 1142.01 291.25C1141.46 289.65 1140.71 288.25 1139.66 287.1C1138.61 285.95 1137.36 285 1135.86 284.35C1134.31 283.7 1132.61 283.4 1130.66 283.4C1128.71 283.4 1127.01 283.75 1125.46 284.4C1123.91 285.1 1122.56 286.05 1121.51 287.25C1120.41 288.45 1119.56 289.85 1119.01 291.45C1118.41 293.05 1118.11 294.75 1118.11 296.6ZM1136.91 294.05H1123.66C1124.01 292.25 1124.71 290.8 1125.86 289.75C1127.01 288.7 1128.56 288.2 1130.56 288.2C1132.51 288.2 1134.06 288.75 1135.11 289.8C1136.16 290.9 1136.76 292.3 1136.91 294.05Z" fill="white"/>
<path d="M1151.5 287.45V284H1146.25V309H1151.65V297.2C1151.65 295.95 1151.75 294.75 1152 293.7C1152.2 292.65 1152.55 291.7 1153.05 290.95C1153.55 290.2 1154.2 289.6 1155.05 289.15C1155.85 288.7 1156.85 288.5 1158.05 288.5C1159.65 288.5 1160.95 289 1161.9 290C1162.85 291 1163.3 292.55 1163.3 294.6V309H1168.8V293.9C1168.8 292.3 1168.6 290.85 1168.25 289.55C1167.9 288.3 1167.35 287.2 1166.6 286.25C1165.85 285.35 1164.9 284.65 1163.75 284.15C1162.6 283.65 1161.25 283.4 1159.7 283.4C1157.95 283.4 1156.4 283.75 1155 284.45C1153.6 285.15 1152.45 286.15 1151.5 287.45Z" fill="white"/>
<path d="M1188.5 308.55V303.6C1187.7 303.75 1187.05 303.85 1186.5 303.9C1185.95 303.95 1185.3 304 1184.65 304C1183.7 304 1183 303.75 1182.6 303.3C1182.15 302.85 1181.95 302.2 1181.95 301.35V288.6H1188.55V284H1181.95V277.3H1176.55V284H1171.8V288.6H1176.55V301.7C1176.55 304.45 1177.15 306.4 1178.4 307.55C1179.6 308.7 1181.35 309.25 1183.65 309.25C1185.3 309.25 1186.9 309 1188.5 308.55Z" fill="white"/>
<path d="M1191.5 291.05C1191.5 292.4 1191.8 293.55 1192.35 294.45C1192.9 295.4 1193.6 296.15 1194.45 296.7C1195.3 297.25 1196.3 297.7 1197.35 298C1198.4 298.35 1199.4 298.6 1200.35 298.8C1202.25 299.2 1203.65 299.6 1204.55 299.95C1205.45 300.35 1205.9 301.05 1205.9 302C1205.9 302.95 1205.5 303.65 1204.7 304.05C1203.9 304.5 1202.85 304.7 1201.6 304.7C1199.95 304.7 1198.45 304.4 1197.1 303.8C1195.7 303.25 1194.6 302.3 1193.85 301L1190.15 304.55C1191.2 306.3 1192.75 307.6 1194.7 308.4C1196.65 309.2 1198.85 309.6 1201.25 309.6C1202.75 309.6 1204.15 309.45 1205.4 309.1C1206.65 308.8 1207.7 308.3 1208.6 307.65C1209.45 307 1210.15 306.2 1210.65 305.2C1211.15 304.2 1211.4 303 1211.4 301.65C1211.4 300.3 1211.15 299.15 1210.7 298.25C1210.2 297.4 1209.55 296.65 1208.75 296.1C1207.95 295.55 1207.05 295.1 1206.05 294.75C1205 294.45 1203.95 294.2 1202.9 293.95C1200.95 293.5 1199.45 293.1 1198.5 292.75C1197.5 292.4 1197 291.75 1197 290.8C1197 290.05 1197.4 289.45 1198.15 289C1198.9 288.55 1199.85 288.35 1201.1 288.35C1202.65 288.35 1204 288.65 1205.15 289.2C1206.25 289.8 1207.1 290.55 1207.7 291.45L1211.35 287.95C1210.3 286.55 1209 285.45 1207.4 284.6C1205.8 283.8 1203.8 283.4 1201.4 283.4C1198.25 283.4 1195.85 284.1 1194.1 285.45C1192.35 286.8 1191.5 288.7 1191.5 291.05Z" fill="white"/>
<g opacity="0.3">
<path d="M907.903 358.6H906.223V363.112C906.223 363.46 906.163 363.76 906.055 364.036C905.947 364.312 905.791 364.54 905.587 364.732C905.383 364.924 905.155 365.068 904.891 365.164C904.615 365.272 904.327 365.32 904.003 365.32C903.679 365.32 903.391 365.272 903.115 365.164C902.839 365.068 902.611 364.924 902.407 364.732C902.203 364.54 902.047 364.312 901.939 364.036C901.831 363.76 901.771 363.46 901.771 363.112V358.6H900.091V363.112C900.091 363.688 900.187 364.216 900.391 364.684C900.595 365.164 900.871 365.572 901.219 365.92C901.567 366.268 901.975 366.532 902.455 366.712C902.923 366.904 903.439 367 904.003 367C904.567 367 905.083 366.904 905.563 366.712C906.031 366.532 906.451 366.268 906.799 365.92C907.147 365.572 907.411 365.164 907.615 364.684C907.807 364.216 907.903 363.688 907.903 363.112V358.6Z" fill="white"/>
<path d="M913.164 358.6H911.484V367H913.164V358.6Z" fill="white"/>
<path d="M925.199 361.516L924.959 361.252C924.851 361.144 924.767 361.024 924.707 360.904C924.647 360.784 924.611 360.652 924.611 360.52C924.611 360.34 924.671 360.184 924.791 360.064C924.911 359.956 925.067 359.896 925.247 359.896C925.427 359.896 925.571 359.956 925.691 360.064C925.811 360.172 925.871 360.34 925.871 360.556C925.871 360.76 925.811 360.94 925.691 361.084C925.559 361.24 925.403 361.384 925.199 361.516ZM925.151 365.572C924.755 365.572 924.467 365.476 924.275 365.284C924.071 365.092 923.975 364.84 923.975 364.54C923.975 364.276 924.059 364.06 924.215 363.892C924.371 363.724 924.575 363.568 924.827 363.412L926.423 365.128C926.231 365.26 926.027 365.368 925.823 365.452C925.607 365.536 925.379 365.572 925.151 365.572ZM927.491 366.28L928.211 367.06L929.375 365.944L928.559 365.068C928.715 364.84 928.871 364.588 929.003 364.336C929.135 364.084 929.267 363.808 929.399 363.532L928.067 362.752C927.971 362.956 927.875 363.16 927.779 363.352C927.671 363.544 927.563 363.724 927.455 363.904L926.231 362.608C926.579 362.38 926.879 362.092 927.107 361.756C927.335 361.432 927.455 361.024 927.455 360.532C927.455 360.22 927.407 359.932 927.299 359.668C927.191 359.416 927.047 359.188 926.855 359.008C926.663 358.828 926.435 358.696 926.159 358.588C925.883 358.492 925.583 358.444 925.247 358.444C924.887 358.444 924.563 358.492 924.287 358.6C923.999 358.708 923.759 358.864 923.567 359.044C923.375 359.236 923.231 359.452 923.123 359.704C923.015 359.956 922.967 360.232 922.967 360.508C922.967 360.904 923.051 361.24 923.219 361.516C923.375 361.792 923.579 362.056 923.807 362.308C923.603 362.44 923.423 362.572 923.243 362.716C923.063 362.872 922.919 363.04 922.787 363.22C922.655 363.4 922.559 363.616 922.487 363.844C922.403 364.072 922.367 364.336 922.367 364.624C922.367 364.996 922.427 365.344 922.559 365.656C922.691 365.968 922.871 366.232 923.111 366.448C923.339 366.676 923.627 366.844 923.975 366.964C924.311 367.084 924.695 367.144 925.115 367.144C925.583 367.144 926.015 367.072 926.411 366.916C926.795 366.76 927.155 366.556 927.491 366.28Z" fill="white"/>
<path d="M946.425 358.6H944.745V363.112C944.745 363.46 944.685 363.76 944.577 364.036C944.469 364.312 944.313 364.54 944.109 364.732C943.905 364.924 943.677 365.068 943.413 365.164C943.137 365.272 942.849 365.32 942.525 365.32C942.201 365.32 941.913 365.272 941.637 365.164C941.361 365.068 941.133 364.924 940.929 364.732C940.725 364.54 940.569 364.312 940.461 364.036C940.353 363.76 940.293 363.46 940.293 363.112V358.6H938.613V363.112C938.613 363.688 938.709 364.216 938.913 364.684C939.117 365.164 939.393 365.572 939.741 365.92C940.089 366.268 940.497 366.532 940.977 366.712C941.445 366.904 941.961 367 942.525 367C943.089 367 943.605 366.904 944.085 366.712C944.553 366.532 944.973 366.268 945.321 365.92C945.669 365.572 945.933 365.164 946.137 364.684C946.329 364.216 946.425 363.688 946.425 363.112V358.6Z" fill="white"/>
<path d="M949.226 367H951.398L953.714 364.144L956.018 367H958.19L954.794 362.8L958.19 358.6H956.018L953.702 361.456L951.386 358.6H949.226L952.622 362.8L949.226 367Z" fill="white"/>
<path d="M969.644 358.6H966.596V367H969.644C970.232 367 970.784 366.892 971.288 366.676C971.792 366.472 972.224 366.172 972.596 365.8C972.956 365.428 973.244 364.996 973.448 364.48C973.652 363.964 973.76 363.412 973.76 362.8C973.76 362.188 973.652 361.636 973.448 361.12C973.244 360.604 972.956 360.16 972.596 359.788C972.224 359.416 971.792 359.128 971.288 358.912C970.784 358.708 970.232 358.6 969.644 358.6ZM972.08 362.8C972.08 363.16 972.02 363.496 971.9 363.796C971.78 364.108 971.612 364.372 971.408 364.6C971.192 364.828 970.94 364.996 970.64 365.128C970.34 365.26 970.004 365.32 969.644 365.32H968.276V360.28H969.644C970.004 360.28 970.34 360.34 970.64 360.472C970.94 360.604 971.192 360.772 971.408 361C971.612 361.228 971.78 361.492 971.9 361.792C972.02 362.104 972.08 362.44 972.08 362.8Z" fill="white"/>
<path d="M982.518 358.6H977.094V367H982.518V365.32H978.774V363.64H982.518V361.96H978.774V360.28H982.518V358.6Z" fill="white"/>
<path d="M985.793 361.012C985.793 361.408 985.865 361.756 985.997 362.032C986.129 362.308 986.309 362.548 986.525 362.74C986.741 362.932 986.981 363.088 987.257 363.208C987.521 363.34 987.785 363.436 988.049 363.52C988.253 363.58 988.457 363.64 988.637 363.7C988.817 363.76 988.973 363.82 989.105 363.892C989.237 363.976 989.345 364.06 989.429 364.168C989.501 364.276 989.537 364.408 989.537 364.564C989.537 364.792 989.453 364.984 989.273 365.116C989.093 365.248 988.841 365.32 988.517 365.32C987.809 365.32 987.365 364.96 987.197 364.228L985.697 364.876C985.781 365.248 985.913 365.572 986.093 365.836C986.273 366.112 986.489 366.328 986.741 366.496C986.993 366.676 987.269 366.796 987.569 366.88C987.869 366.964 988.181 367 988.505 367C988.889 367 989.249 366.94 989.585 366.832C989.909 366.724 990.197 366.568 990.437 366.364C990.677 366.16 990.869 365.908 991.013 365.608C991.145 365.308 991.217 364.96 991.217 364.564C991.217 364.168 991.157 363.844 991.037 363.568C990.905 363.292 990.749 363.064 990.545 362.872C990.341 362.692 990.101 362.536 989.837 362.404C989.573 362.284 989.297 362.176 989.009 362.08C988.781 362.008 988.577 361.936 988.397 361.876C988.205 361.816 988.037 361.744 987.905 361.66C987.773 361.588 987.665 361.504 987.593 361.396C987.509 361.3 987.473 361.18 987.473 361.024C987.473 360.82 987.557 360.64 987.725 360.496C987.893 360.352 988.145 360.28 988.493 360.28C988.829 360.28 989.105 360.364 989.321 360.52C989.537 360.676 989.693 360.952 989.777 361.336L991.301 360.724C991.145 360.028 990.821 359.5 990.329 359.14C989.825 358.78 989.213 358.6 988.505 358.6C988.121 358.6 987.761 358.648 987.437 358.756C987.101 358.864 986.813 359.032 986.573 359.236C986.321 359.44 986.129 359.692 985.997 359.992C985.865 360.292 985.793 360.628 985.793 361.012Z" fill="white"/>
<path d="M996.384 358.6H994.704V367H996.384V358.6Z" fill="white"/>
<path d="M1000.04 364.444C1000.26 364.96 1000.55 365.392 1000.92 365.764C1001.3 366.136 1001.75 366.436 1002.28 366.64C1002.8 366.844 1003.38 366.952 1004 366.952C1004.56 366.952 1005.07 366.856 1005.55 366.676C1006.03 366.496 1006.46 366.22 1006.82 365.86C1007.18 365.5 1007.46 365.056 1007.68 364.528C1007.88 364 1007.99 363.388 1007.99 362.704V362.152H1003.69V363.832H1006.06C1006.01 364.072 1005.91 364.276 1005.77 364.468C1005.62 364.648 1005.47 364.804 1005.28 364.924C1005.08 365.044 1004.88 365.128 1004.65 365.188C1004.42 365.248 1004.2 365.284 1003.97 365.284C1003.58 365.284 1003.24 365.224 1002.92 365.092C1002.61 364.972 1002.35 364.804 1002.12 364.576C1001.9 364.36 1001.72 364.096 1001.6 363.784C1001.48 363.472 1001.41 363.124 1001.41 362.752C1001.41 362.38 1001.48 362.044 1001.6 361.732C1001.72 361.42 1001.9 361.156 1002.12 360.928C1002.34 360.712 1002.6 360.544 1002.91 360.412C1003.22 360.292 1003.56 360.232 1003.92 360.232C1004.38 360.232 1004.81 360.316 1005.2 360.484C1005.6 360.664 1005.96 360.928 1006.28 361.3L1007.1 359.74C1006.68 359.332 1006.2 359.032 1005.67 358.84C1005.14 358.648 1004.58 358.552 1004 358.552C1003.37 358.552 1002.79 358.648 1002.26 358.864C1001.74 359.08 1001.29 359.368 1000.91 359.752C1000.54 360.124 1000.25 360.568 1000.04 361.084C999.839 361.588 999.731 362.152 999.731 362.764C999.731 363.364 999.839 363.928 1000.04 364.444Z" fill="white"/>
<path d="M1018.76 358.6H1017.08V364.12L1012.55 358.6H1011.08V367H1012.76V361.48L1017.3 367H1018.76V358.6Z" fill="white"/>
</g>
</svg>
