<svg fill="none" height="1056" viewBox="0 0 1920 1056" width="1920" xmlns="http://www.w3.org/2000/svg" xmlns:xlink="http://www.w3.org/1999/xlink"><clipPath id="a"><path d="m736 397.2h99v95.4h-99z"/></clipPath><path d="m450.683 445.879c.568 0 1.028-.46 1.028-1.028s-.46-1.028-1.028-1.028zm43.881-2.056c-.568 0-1.029.46-1.029 1.028s.461 1.028 1.029 1.028zm-22.969-20.912c0 .568.46 1.028 1.028 1.028s1.029-.46 1.029-1.028zm2.057 43.88c0-.568-.461-1.028-1.029-1.028s-1.028.46-1.028 1.028zm21.514 2.063c.402.401 1.053.401 1.455 0 .402-.402.402-1.053 0-1.455zm-6.302-9.212c-.402-.401-1.053-.401-1.455 0-.401.402-.401 1.053 0 1.455zm-32.485-29.574c.402.402 1.053.402 1.455 0 .401-.401.401-1.053 0-1.454zm31.033-1.461c-.402.402-.402 1.053 0 1.455.401.401 1.053.401 1.454 0zm-38.787 38.786c-.402.401-.402 1.052 0 1.454.401.402 1.052.402 1.454 0zm9.211-6.303c.402-.402.402-1.053 0-1.455-.401-.401-1.053-.401-1.454 0zm27.472-16.239c0 7.005-5.679 12.684-12.685 12.684v2.057c8.142 0 14.742-6.6 14.742-14.741zm-12.685 12.684c-7.005 0-12.684-5.679-12.684-12.684h-2.057c0 8.141 6.6 14.741 14.741 14.741zm-12.684-12.684c0-7.005 5.679-12.684 12.684-12.684v-2.057c-8.141 0-14.741 6.6-14.741 14.741zm12.684-12.684c7.006 0 12.685 5.679 12.685 12.684h2.057c0-8.141-6.6-14.741-14.742-14.741zm-33.939 12.684c0 3.219-2.609 5.828-5.828 5.828v2.057c4.355 0 7.885-3.53 7.885-7.885zm-5.828 5.828c-3.218 0-5.828-2.609-5.828-5.828h-2.056c0 4.355 3.53 7.885 7.884 7.885zm-5.828-5.828c0-3.219 2.61-5.828 5.828-5.828v-2.057c-4.354 0-7.884 3.53-7.884 7.885zm5.828-5.828c3.219 0 5.828 2.609 5.828 5.828h2.057c0-4.355-3.53-7.885-7.885-7.885zm6.857 6.856h10.97v-2.056h-10.97zm64.793-1.028c0 4.355 3.53 7.885 7.884 7.885v-2.057c-3.218 0-5.827-2.609-5.827-5.828zm7.884 7.885c4.355 0 7.885-3.53 7.885-7.885h-2.057c0 3.219-2.609 5.828-5.828 5.828zm7.885-7.885c0-4.355-3.53-7.885-7.885-7.885v2.057c3.219 0 5.828 2.609 5.828 5.828zm-7.885-7.885c-4.354 0-7.884 3.53-7.884 7.885h2.057c0-3.219 2.609-5.828 5.827-5.828zm-6.856 6.857h-10.97v2.056h10.97zm-32.911-32.911c-3.218 0-5.827-2.609-5.827-5.828h-2.057c0 4.355 3.53 7.885 7.884 7.885zm-5.827-5.828c0-3.219 2.609-5.828 5.827-5.828v-2.057c-4.354 0-7.884 3.53-7.884 7.885zm5.827-5.828c3.219 0 5.828 2.609 5.828 5.828h2.057c0-4.355-3.53-7.885-7.885-7.885zm5.828 5.828c0 3.219-2.609 5.828-5.828 5.828v2.057c4.355 0 7.885-3.53 7.885-7.885zm-6.856 6.856v10.971h2.057v-10.971zm1.028 64.793c-4.354 0-7.884 3.53-7.884 7.885h2.057c0-3.219 2.609-5.828 5.827-5.828zm-7.884 7.885c0 4.355 3.53 7.885 7.884 7.885v-2.057c-3.218 0-5.827-2.609-5.827-5.828zm7.884 7.885c4.355 0 7.885-3.53 7.885-7.885h-2.057c0 3.219-2.609 5.828-5.828 5.828zm7.885-7.885c0-4.355-3.53-7.885-7.885-7.885v2.057c3.219 0 5.828 2.609 5.828 5.828zm-6.856-6.856v-10.971h-2.057v10.971zm22.968-8.91c2.276-2.276 5.966-2.276 8.242 0l1.455-1.454c-3.079-3.079-8.072-3.079-11.151 0zm8.242 0c2.276 2.276 2.276 5.966 0 8.242l1.455 1.455c3.079-3.08 3.079-8.072 0-11.151zm0 8.242c-2.276 2.276-5.966 2.276-8.242 0l-1.454 1.455c3.079 3.079 8.072 3.079 11.151 0zm-8.242 0c-2.276-2.276-2.276-5.966 0-8.242l-1.454-1.454c-3.079 3.079-3.079 8.071 0 11.151zm.001-9.695-7.757-7.757-1.455 1.455 7.757 7.757zm-46.544-45.088c3.079-3.079 3.079-8.071 0-11.151l-1.455 1.455c2.276 2.276 2.276 5.966 0 8.242zm0-11.151c-3.08-3.079-8.072-3.079-11.151 0l1.454 1.455c2.276-2.276 5.966-2.276 8.242 0zm-11.151 0c-3.079 3.08-3.079 8.072 0 11.151l1.454-1.454c-2.276-2.276-2.276-5.966 0-8.242zm0 11.151c3.079 3.079 8.071 3.079 11.151 0l-1.455-1.454c-2.276 2.276-5.966 2.276-8.242 0zm9.696 0 7.757 7.757 1.455-1.454-7.757-7.757zm48.001-1.461c-2.276-2.276-2.276-5.966 0-8.242l-1.454-1.454c-3.079 3.079-3.079 8.071 0 11.15zm0-8.242c2.276-2.276 5.966-2.276 8.242 0l1.455-1.454c-3.079-3.08-8.072-3.08-11.151 0zm8.242 0c2.276 2.276 2.276 5.966 0 8.242l1.455 1.454c3.079-3.079 3.079-8.071 0-11.15zm0 8.242c-2.276 2.276-5.966 2.276-8.242 0l-1.454 1.454c3.079 3.08 8.072 3.08 11.151 0zm-9.696 0-7.757 7.757 1.454 1.455 7.757-7.758zm-45.089 46.541c-3.08-3.079-8.072-3.079-11.151 0l1.454 1.455c2.276-2.276 5.966-2.276 8.242 0zm-11.151 0c-3.079 3.079-3.079 8.072 0 11.151l1.454-1.455c-2.276-2.275-2.276-5.966 0-8.241zm0 11.151c3.079 3.079 8.071 3.079 11.151 0l-1.455-1.455c-2.276 2.276-5.966 2.276-8.242 0zm11.151 0c3.079-3.079 3.079-8.072 0-11.151l-1.455 1.455c2.276 2.275 2.276 5.966 0 8.241zm-.001-9.695 7.757-7.757-1.454-1.455-7.757 7.758z" fill="#1f1f1f"/><g clip-path="url(#a)"><path d="m800.942 451.62.942.414.004-.01zm.667 3.684-.737.718.008.008zm.121.122-.728.726zm0 5.729-.728-.727-.001.001zm-5.713 0 .728-.726v-.001zm-.122-.122.729-.726-.008-.008zm-3.674-.668.406.945.01-.004zm-2.019 3.057-1.028-.004v.004zm-8.075.162h1.029c0-.008 0-.016-.001-.024zm-2.18-3.057-.416.941c.02.008.04.016.06.024zm-3.674.668-.721-.734-.008.008zm-.121.122-.729-.727v.001zm-5.714 0 .729-.726-.001-.001zm-1.184-2.865h1.029zm1.184-2.864.728.726h.001zm.121-.122.729.726.008-.008zm.667-3.684-.946.404.004.01zm-3.049-2.024.004-1.029h-.004zm-.343-8.098v1.029zm.182 0v1.029c.008 0 .016-.001.024-.001zm3.048-2.186-.941-.415c-.009.02-.017.04-.024.061zm-.666-3.685.736-.718-.008-.008zm-.121-.121.728-.726v-.001zm0-5.729.728.727v-.001zm5.713 0-.729.726h.001zm.121.122-.728.726.008.008zm3.674.668v-1.029c-.143 0-.285.03-.416.088zm.162 0v1.028c.14 0 .278-.028.406-.084zm2.019-3.057 1.028.004v-.004zm8.075-.162h-1.029v.004zm2.019 3.057.416-.941-.01-.004zm3.674-.668.72.734.008-.008zm.121-.122.728.726h.001zm5.713 0-.728.726v.001zm0 5.729-.728-.727v.001zm-.121.122-.728-.727-.008.008zm-.666 3.684h1.028c0-.143-.029-.284-.087-.414zm0 .162h-1.028c0 .139.028.276.082.404zm3.048 2.024-.004 1.029h.004zm.162 8.098v-1.029h-.004zm-63.064-21.814c-.203.531.063 1.126.593 1.329.531.203 1.125-.063 1.328-.593zm44.384-29.554v-1.029zm44.324 36.414c.126.553.677.9 1.231.774.554-.127.9-.678.774-1.232zm-91.227-17.93c-.168-.543-.744-.846-1.286-.678-.543.168-.847.744-.679 1.286zm2.765 12.412-.982.304.314 1.015 1.004-.347zm13.243-3.481c.537-.185.822-.771.637-1.308s-.771-.822-1.308-.637zm75.498 36.277c.203-.531-.063-1.126-.593-1.329-.531-.203-1.125.063-1.328.593zm-44.384 29.554v-1.028zm-44.324-36.414c-.126-.553-.677-.9-1.231-.774-.554.127-.9.678-.774 1.232zm91.227 17.93c.168.543.744.846 1.286.678.543-.168.847-.744.679-1.286zm-2.765-12.412.982-.304-.314-1.015-1.004.346zm-13.243 3.481c-.537.185-.822.771-.637 1.308s.771.822 1.307.636zm-24.511-18.512c0 3.278-2.649 5.93-5.911 5.93v2.057c4.404 0 7.968-3.579 7.968-7.987zm-5.911 5.93c-3.262 0-5.911-2.652-5.911-5.93h-2.057c0 4.408 3.565 7.987 7.968 7.987zm-5.911-5.93c0-3.278 2.649-5.93 5.911-5.93v-2.057c-4.403 0-7.968 3.578-7.968 7.987zm5.911-5.93c3.262 0 5.911 2.652 5.911 5.93h2.057c0-4.409-3.564-7.987-7.968-7.987zm13.998 11.589c-.351.798-.456 1.683-.301 2.541l2.024-.366c-.082-.455-.026-.924.16-1.347zm-.301 2.541c.155.859.564 1.651 1.172 2.275l1.473-1.436c-.322-.33-.538-.749-.621-1.205zm1.18 2.283.122.122 1.456-1.453-.121-.121zm.122.122c.28.281.502.614.654.981l1.901-.786c-.255-.616-.628-1.176-1.099-1.648zm.654.981c.151.367.23.76.23 1.157h2.056c0-.667-.131-1.327-.385-1.943zm.23 1.157c0 .397-.079.791-.23 1.158l1.901.785c.254-.616.385-1.276.385-1.943zm-.23 1.158c-.152.367-.374.7-.654.98l1.456 1.453c.471-.471.844-1.031 1.099-1.648zm-.655.981c-.279.28-.611.503-.976.655l.789 1.899c.615-.256 1.174-.63 1.644-1.103zm-.976.655c-.365.152-.757.23-1.152.23v2.057c.666 0 1.326-.132 1.941-.388zm-1.152.23c-.395 0-.786-.078-1.151-.23l-.79 1.899c.615.256 1.275.388 1.941.388zm-1.151-.23c-.365-.152-.697-.375-.977-.655l-1.457 1.451c.47.473 1.029.847 1.644 1.103zm-.977-.656-.121-.121-1.457 1.452.121.122zm-.129-.129c-.623-.611-1.414-1.021-2.272-1.177l-.368 2.024c.453.082.87.299 1.199.621zm-2.272-1.177c-.857-.155-1.742-.05-2.539.303l.832 1.881c.421-.187.887-.242 1.339-.16zm-2.529.298c-.782.336-1.448.894-1.917 1.604l1.716 1.134c.249-.376.601-.671 1.013-.848zm-1.917 1.604c-.469.71-.721 1.542-.724 2.394l2.057.008c.002-.451.135-.892.383-1.268zm-.724 2.398v.344h2.057v-.344zm0 .344c0 .802-.318 1.57-.882 2.137l1.456 1.452c.95-.952 1.483-2.243 1.483-3.589zm-.882 2.137c-.565.566-1.33.883-2.127.883v2.057c1.344 0 2.633-.535 3.583-1.488zm-2.127.883c-.797 0-1.562-.317-2.127-.883l-1.456 1.452c.949.953 2.238 1.488 3.583 1.488zm-2.127-.883c-.565-.567-.882-1.335-.882-2.137h-2.057c0 1.346.533 2.637 1.483 3.589zm-.882-2.137v-.182h-2.057v.182zm-.001-.206c-.02-.876-.303-1.725-.811-2.438l-1.675 1.194c.269.377.419.827.43 1.292zm-.811-2.438c-.509-.713-1.22-1.257-2.041-1.56l-.712 1.93c.433.16.809.447 1.078.824zm-1.981-1.535c-.797-.353-1.682-.459-2.539-.303l.368 2.024c.452-.082.918-.027 1.339.16zm-2.539-.303c-.858.156-1.649.566-2.272 1.177l1.441 1.468c.329-.322.746-.539 1.199-.621zm-2.28 1.185-.121.121 1.457 1.453.121-.122zm-.121.122c-.28.28-.612.503-.977.655l.79 1.899c.615-.256 1.174-.63 1.644-1.103zm-.977.655c-.365.151-.756.23-1.151.23v2.056c.666 0 1.326-.131 1.941-.387zm-1.151.23c-.395 0-.786-.079-1.151-.23l-.79 1.899c.615.256 1.275.387 1.941.387zm-1.151-.23c-.366-.152-.697-.375-.977-.655l-1.457 1.451c.47.473 1.029.847 1.644 1.103zm-.978-.656c-.28-.28-.502-.614-.654-.98l-1.901.785c.255.617.629 1.177 1.099 1.648zm-.654-.98c-.151-.367-.229-.761-.229-1.158h-2.057c0 .667.131 1.327.385 1.943zm-.229-1.158c0-.397.078-.791.229-1.157l-1.901-.786c-.254.616-.385 1.276-.385 1.943zm.229-1.157c.152-.367.374-.7.654-.981l-1.456-1.453c-.47.472-.844 1.032-1.099 1.648zm.655-.981.121-.122-1.457-1.452-.121.121zm.129-.13c.609-.624 1.017-1.416 1.172-2.275l-2.024-.366c-.083.455-.299.875-.621 1.205zm1.172-2.275c.155-.858.05-1.743-.301-2.541l-1.883.828c.186.423.242.892.16 1.347zm-.297-2.531c-.334-.783-.89-1.451-1.599-1.922l-1.138 1.714c.375.248.669.601.846 1.016zm-1.599-1.922c-.709-.471-1.54-.724-2.391-.727l-.008 2.057c.449.002.887.135 1.261.384zm-2.395-.727h-.343v2.057h.343zm-.343 0c-.797 0-1.562-.317-2.127-.884l-1.456 1.453c.95.952 2.239 1.488 3.583 1.488zm-2.127-.884c-.564-.566-.882-1.334-.882-2.136h-2.057c0 1.345.533 2.637 1.483 3.589zm-.882-2.136c0-.802.318-1.571.882-2.137l-1.456-1.452c-.95.952-1.483 2.243-1.483 3.589zm.882-2.137c.565-.566 1.33-.883 2.127-.883v-2.057c-1.344 0-2.633.535-3.583 1.488zm2.127-.883h.182v-2.057h-.182zm.206-.001c.875-.02 1.724-.304 2.435-.815l-1.199-1.671c-.375.269-.823.419-1.284.43zm2.435-.815c.712-.51 1.253-1.223 1.555-2.045l-1.931-.708c-.16.435-.447.812-.823 1.082zm1.53-1.985c.352-.798.457-1.683.301-2.542l-2.024.366c.083.455.027.925-.159 1.347zm.301-2.542c-.155-.858-.563-1.651-1.172-2.275l-1.472 1.437c.322.33.538.749.62 1.204zm-1.18-2.283-.121-.121-1.456 1.452.121.122zm-.121-.122c-.28-.28-.502-.613-.654-.98l-1.901.786c.255.616.628 1.176 1.099 1.648zm-.654-.98c-.152-.367-.23-.76-.23-1.157h-2.057c0 .666.131 1.327.386 1.943zm-.23-1.157c0-.398.078-.791.23-1.158l-1.901-.786c-.255.616-.386 1.277-.386 1.944zm.23-1.158c.152-.367.374-.7.654-.98l-1.456-1.454c-.471.472-.844 1.032-1.099 1.648zm.654-.981c.28-.281.612-.503.977-.655l-.79-1.899c-.615.255-1.173.63-1.644 1.102zm.977-.655c.365-.152.756-.23 1.151-.23v-2.057c-.666 0-1.325.132-1.941.388zm1.151-.23c.395 0 .787.078 1.152.23l.789-1.899c-.615-.256-1.274-.388-1.941-.388zm1.152.23c.365.152.697.374.976.655l1.458-1.452c-.471-.472-1.029-.847-1.645-1.102zm.977.655.121.122 1.456-1.453-.121-.121zm.129.13c.623.61 1.414 1.02 2.271 1.176l.368-2.024c-.452-.082-.87-.298-1.199-.621zm2.271 1.176c.858.156 1.742.051 2.54-.302l-.833-1.881c-.42.186-.887.242-1.339.159zm2.123-.214h.162v-2.057h-.162zm.568-.084c.782-.336 1.448-.893 1.917-1.603l-1.716-1.134c-.249.376-.601.67-1.013.848zm1.917-1.603c.469-.711.721-1.543.724-2.394l-2.057-.008c-.002.451-.135.892-.383 1.268zm.724-2.398v-.344h-2.057v.344zm0-.344c0-.802.318-1.571.883-2.137l-1.457-1.452c-.95.952-1.483 2.243-1.483 3.589zm.883-2.137c.564-.566 1.329-.884 2.126-.884v-2.057c-1.344 0-2.633.536-3.583 1.489zm2.126-.884c.797 0 1.563.318 2.127.884l1.457-1.452c-.95-.953-2.239-1.489-3.584-1.489zm2.127.884c.565.566.882 1.335.882 2.137h2.057c0-1.346-.533-2.637-1.482-3.589zm.882 2.137v.182h2.057v-.182zm0 .186c.004.851.255 1.683.725 2.394l1.716-1.134c-.248-.376-.382-.817-.384-1.268zm.725 2.394c.469.71 1.135 1.268 1.917 1.604l.812-1.89c-.413-.178-.765-.472-1.013-.848zm1.907 1.599c.797.353 1.681.458 2.539.302l-.368-2.023c-.452.082-.918.026-1.339-.16zm2.539.302c.858-.156 1.649-.566 2.271-1.176l-1.44-1.469c-.329.323-.747.539-1.199.622zm2.279-1.184.121-.122-1.456-1.452-.121.121zm.122-.122c.279-.281.611-.503.976-.655l-.789-1.899c-.615.255-1.174.63-1.645 1.102zm.976-.655c.365-.152.757-.23 1.152-.23v-2.057c-.666 0-1.326.132-1.941.388zm1.152-.23c.395 0 .786.078 1.151.23l.79-1.899c-.616-.256-1.275-.388-1.941-.388zm1.151.23c.365.152.697.374.977.655l1.457-1.452c-.47-.472-1.029-.847-1.644-1.102zm.977.656c.28.28.503.613.654.98l1.901-.786c-.255-.616-.628-1.176-1.099-1.648zm.654.98c.152.367.23.76.23 1.158h2.057c0-.667-.131-1.328-.386-1.944zm.23 1.158c0 .397-.078.79-.23 1.157l1.901.786c.255-.616.386-1.277.386-1.943zm-.23 1.157c-.151.367-.374.7-.654.98l1.456 1.454c.471-.472.844-1.032 1.099-1.648zm-.654.981-.121.121 1.456 1.453.122-.122zm-.129.129c-.609.625-1.017 1.417-1.172 2.275l2.024.366c.082-.455.298-.874.62-1.204zm-1.172 2.275c-.155.859-.051 1.744.301 2.542l1.882-.828c-.186-.423-.241-.893-.159-1.348zm.214 2.128v.162h2.056v-.162zm.082.566c.335.783.891 1.451 1.599 1.922l1.138-1.714c-.374-.249-.668-.602-.845-1.016zm1.599 1.922c.709.47 1.54.723 2.391.727l.008-2.057c-.448-.002-.886-.135-1.261-.384zm2.395.727h.344v-2.057h-.344zm.344 0c.797 0 1.562.317 2.126.883l1.457-1.452c-.95-.953-2.239-1.488-3.583-1.488zm2.126.883c.565.566.883 1.335.883 2.137h2.057c0-1.346-.533-2.637-1.483-3.589zm.883 2.137c0 .802-.318 1.57-.883 2.136l1.457 1.453c.95-.952 1.483-2.244 1.483-3.589zm-.883 2.136c-.564.567-1.329.884-2.126.884v2.057c1.344 0 2.633-.536 3.583-1.488zm-2.126.884h-.182v2.057h.182zm-.186 0c-.851.004-1.682.256-2.391.727l1.138 1.714c.374-.249.813-.382 1.261-.384zm-2.391.727c-.709.471-1.265 1.139-1.599 1.922l1.891.808c.177-.415.472-.768.846-1.016zm-58.748-20.776c6.551-17.117 23.095-29.262 42.463-29.262v-2.057c-20.251 0-37.539 12.7-44.384 30.583zm42.463-29.262c21.608 0 39.701 15.117 44.324 35.386l2.005-.458c-4.831-21.18-23.736-36.985-46.329-36.985zm-48.868 18.064 3.748 12.108 1.965-.608-3.748-12.108zm5.066 12.776 12.907-4.453-.671-1.945-12.907 4.454zm86.484 31.088c-6.551 17.117-23.095 29.262-42.463 29.262v2.057c20.251 0 37.539-12.7 44.384-30.583zm-42.463 29.262c-21.608 0-39.701-15.117-44.324-35.386l-2.005.458c4.831 21.18 23.736 36.985 46.329 36.985zm48.868-18.064-3.748-12.108-1.965.608 3.748 12.108zm-5.066-12.777-12.907 4.454.67 1.944 12.908-4.453z" fill="#1f1f1f"/></g><path d="m427.747 548.94c0-1.498-.462-2.73-1.372-3.668-.91-.952-2.03-1.428-3.374-1.428-1.33 0-2.45.476-3.36 1.428-.91.938-1.358 2.17-1.358 3.682 0 1.498.448 2.73 1.358 3.668s2.03 1.414 3.36 1.414c1.344 0 2.464-.476 3.374-1.414.91-.952 1.372-2.184 1.372-3.682zm-7.266 2.94c-.658-.756-.994-1.736-.994-2.94s.336-2.184.994-2.926c.658-.756 1.498-1.134 2.52-1.134s1.876.378 2.534 1.134c.672.742 1.008 1.722 1.008 2.926s-.336 2.184-1.008 2.94c-.658.742-1.512 1.12-2.534 1.12s-1.862-.378-2.52-1.12zm18.118-3.318c0-1.12-.84-1.862-2.058-1.862-.966 0-1.708.434-2.198 1.316-.266-.882-.994-1.316-1.89-1.316-.91 0-1.68.574-2.058 1.302v-1.106h-1.092v6.944h1.092v-3.724c0-1.624.742-2.436 1.736-2.436.826 0 1.274.504 1.274 1.4v4.76h1.092v-3.752c0-1.61.742-2.408 1.708-2.408.84 0 1.302.476 1.302 1.274v4.886h1.092zm7.706.56c0-.798-.238-1.4-.714-1.806-.462-.406-1.036-.616-1.722-.616-.994 0-1.82.532-2.338 1.414v-1.218h-1.092v6.944h1.092v-3.85c0-.7.196-1.26.588-1.68s.868-.63 1.428-.63c1.022 0 1.666.574 1.666 1.638v4.522h1.092zm2.93 4.718v-6.944h-1.092v6.944zm.112-8.148v-1.372h-1.316v1.372zm6.997 5.838c-.546 1.008-1.218 1.526-2.324 1.526-.714 0-1.316-.238-1.778-.728s-.7-1.148-.7-1.96.238-1.456.7-1.946c.476-.49 1.064-.742 1.778-.742 1.022 0 1.778.49 2.24 1.47l.826-.546c-.504-1.19-1.582-1.904-3.08-1.904-.98 0-1.82.35-2.52 1.05-.686.686-1.036 1.568-1.036 2.618 0 1.064.336 1.946 1.008 2.632.686.686 1.526 1.036 2.548 1.036 1.4 0 2.436-.672 3.122-2.002zm7.935-2.38c0-.798-.238-1.414-.728-1.82-.476-.42-1.064-.63-1.764-.63-.966 0-1.904.56-2.366 1.414v-4.074h-1.092v9.8h1.092v-3.85c0-.686.21-1.246.616-1.666.406-.434.896-.644 1.456-.644 1.008 0 1.694.588 1.694 1.666v4.494h1.092zm7.566 4.69c-.322-.546-.42-.938-.42-1.736v-3.136c0-1.442-.938-2.268-2.73-2.268-.798 0-1.442.196-1.932.574s-.742.854-.742 1.4c0 .196.042.378.112.56l.952-.322c-.014-.07-.028-.14-.028-.21 0-.616.616-1.078 1.638-1.078 1.092 0 1.638.448 1.638 1.344v.308l-2.31.378c-1.442.224-2.394 1.022-2.394 2.268 0 1.232.938 2.114 2.338 2.114 1.05 0 1.918-.56 2.366-1.568 0 .574.14 1.036.42 1.372zm-3.752-.784c-.826 0-1.344-.462-1.344-1.19 0-.714.518-1.19 1.47-1.358l2.114-.364v.21c0 .742-.196 1.386-.602 1.918-.392.518-.938.784-1.638.784zm10.855-3.934c0-.798-.238-1.4-.714-1.806-.462-.406-1.036-.616-1.722-.616-.994 0-1.82.532-2.338 1.414v-1.218h-1.092v6.944h1.092v-3.85c0-.7.196-1.26.588-1.68s.868-.63 1.428-.63c1.022 0 1.666.574 1.666 1.638v4.522h1.092zm7.704 0c0-.798-.238-1.4-.714-1.806-.462-.406-1.036-.616-1.722-.616-.994 0-1.82.532-2.338 1.414v-1.218h-1.092v6.944h1.092v-3.85c0-.7.196-1.26.588-1.68s.868-.63 1.428-.63c1.022 0 1.666.574 1.666 1.638v4.522h1.092zm8.058 1.05c0-1.022-.308-1.862-.91-2.506s-1.414-.966-2.436-.966c-.966 0-1.792.35-2.478 1.05-.672.686-1.008 1.568-1.008 2.618s.336 1.932 1.008 2.632c.672.686 1.484 1.036 2.436 1.036 1.428 0 2.492-.672 3.178-2.03l-.798-.476c-.504 1.008-1.162 1.582-2.338 1.582-1.4 0-2.324-1.064-2.394-2.562h5.74zm-3.346-2.548c.574 0 1.092.182 1.526.56.448.364.686.854.728 1.47h-4.564c.266-1.218 1.12-2.03 2.31-2.03zm5.827 6.216v-9.8h-1.092v9.8zm11.283 0c-.322-.546-.42-.938-.42-1.736v-3.136c0-1.442-.938-2.268-2.73-2.268-.798 0-1.442.196-1.932.574s-.742.854-.742 1.4c0 .196.042.378.112.56l.952-.322c-.014-.07-.028-.14-.028-.21 0-.616.616-1.078 1.638-1.078 1.092 0 1.638.448 1.638 1.344v.308l-2.31.378c-1.442.224-2.394 1.022-2.394 2.268 0 1.232.938 2.114 2.338 2.114 1.05 0 1.918-.56 2.366-1.568 0 .574.14 1.036.42 1.372zm-3.752-.784c-.826 0-1.344-.462-1.344-1.19 0-.714.518-1.19 1.47-1.358l2.114-.364v.21c0 .742-.196 1.386-.602 1.918-.392.518-.938.784-1.638.784zm6.176 3.64v-3.962c.546.868 1.344 1.302 2.422 1.302.952 0 1.75-.336 2.38-1.008.644-.672.966-1.554.966-2.66s-.308-1.988-.938-2.66-1.4-1.008-2.338-1.008c-1.106 0-2.044.602-2.492 1.442v-1.246h-1.092v9.8zm3.976-8.26c.448.49.672 1.134.672 1.932s-.224 1.442-.672 1.932c-.434.49-1.008.728-1.694.728s-1.246-.238-1.694-.728-.672-1.134-.672-1.932.224-1.428.672-1.918 1.008-.742 1.694-.742 1.26.238 1.694.728zm4.248 8.26v-3.962c.546.868 1.344 1.302 2.422 1.302.952 0 1.75-.336 2.38-1.008.644-.672.966-1.554.966-2.66s-.308-1.988-.938-2.66-1.4-1.008-2.338-1.008c-1.106 0-2.044.602-2.492 1.442v-1.246h-1.092v9.8zm3.976-8.26c.448.49.672 1.134.672 1.932s-.224 1.442-.672 1.932c-.434.49-1.008.728-1.694.728s-1.246-.238-1.694-.728-.672-1.134-.672-1.932.224-1.428.672-1.918 1.008-.742 1.694-.742 1.26.238 1.694.728zm4.248 5.404v-9.8h-1.092v9.8zm1.547 2.814c.21.098.462.14.728.14.896 0 1.428-.35 1.82-1.316l3.486-8.582h-1.176l-2.17 5.446-2.198-5.446h-1.204l2.8 6.916-.518 1.316c-.21.504-.392.686-.84.686-.182 0-.378-.042-.56-.14z" fill="#9f9f9f" opacity=".8"/><path d="m737.58 553.84c1.484 0 2.688-.434 3.598-1.302.924-.868 1.386-2.072 1.386-3.598s-.462-2.73-1.386-3.598c-.91-.868-2.114-1.302-3.598-1.302h-2.702v9.8zm-1.526-1.036v-7.728h1.456c2.366 0 3.85 1.302 3.85 3.878 0 2.562-1.484 3.85-3.85 3.85zm14.426-2.632c0-1.022-.308-1.862-.91-2.506s-1.414-.966-2.436-.966c-.966 0-1.792.35-2.478 1.05-.672.686-1.008 1.568-1.008 2.618s.336 1.932 1.008 2.632c.672.686 1.484 1.036 2.436 1.036 1.428 0 2.492-.672 3.178-2.03l-.798-.476c-.504 1.008-1.162 1.582-2.338 1.582-1.4 0-2.324-1.064-2.394-2.562h5.74zm-3.346-2.548c.574 0 1.092.182 1.526.56.448.364.686.854.728 1.47h-4.564c.266-1.218 1.12-2.03 2.31-2.03zm10.098 3.906c-.546 1.008-1.218 1.526-2.324 1.526-.714 0-1.316-.238-1.778-.728s-.7-1.148-.7-1.96.238-1.456.7-1.946c.476-.49 1.064-.742 1.778-.742 1.022 0 1.778.49 2.24 1.47l.826-.546c-.504-1.19-1.582-1.904-3.08-1.904-.98 0-1.82.35-2.52 1.05-.686.686-1.036 1.568-1.036 2.618 0 1.064.336 1.946 1.008 2.632.686.686 1.526 1.036 2.548 1.036 1.4 0 2.436-.672 3.122-2.002zm3.187 2.31v-6.944h-1.092v6.944zm.112-8.148v-1.372h-1.316v1.372zm2.573 2.842c0-.574.602-.91 1.4-.91.896 0 1.512.42 1.848 1.246l.84-.49c-.462-1.12-1.358-1.68-2.702-1.68-.658 0-1.232.168-1.694.518-.462.336-.7.784-.7 1.358 0 1.12.938 1.764 2.324 2.03 1.232.21 1.778.574 1.778 1.246 0 .77-.588 1.232-1.54 1.232-.966 0-1.638-.546-2.044-1.624l-.91.56c.448 1.19 1.498 2.016 2.954 2.016.826 0 1.47-.21 1.932-.644s.7-.952.7-1.582c0-1.078-.784-1.75-2.338-2.044-1.19-.224-1.848-.56-1.848-1.232zm6.668 5.306v-6.944h-1.092v6.944zm.112-8.148v-1.372h-1.316v1.372zm7.234 2.016c-.742-.672-1.582-1.008-2.52-1.008s-1.764.336-2.506 1.008c-.742.658-1.106 1.554-1.106 2.66s.364 2.002 1.106 2.674c.742.658 1.568.994 2.506.994s1.778-.336 2.52-.994c.742-.672 1.12-1.568 1.12-2.674s-.378-2.002-1.12-2.66zm-4.298 4.592c-.476-.518-.714-1.162-.714-1.932s.238-1.414.714-1.918c.49-.518 1.078-.77 1.792-.77s1.302.252 1.778.77c.49.504.728 1.148.728 1.918s-.238 1.414-.728 1.932c-.476.504-1.064.756-1.778.756s-1.302-.252-1.792-.756zm12.65-3.178c0-.798-.238-1.4-.714-1.806-.462-.406-1.036-.616-1.722-.616-.994 0-1.82.532-2.338 1.414v-1.218h-1.092v6.944h1.092v-3.85c0-.7.196-1.26.588-1.68s.868-.63 1.428-.63c1.022 0 1.666.574 1.666 1.638v4.522h1.092zm11.77 1.05c0-1.022-.308-1.862-.91-2.506s-1.414-.966-2.436-.966c-.966 0-1.792.35-2.478 1.05-.672.686-1.008 1.568-1.008 2.618s.336 1.932 1.008 2.632c.672.686 1.484 1.036 2.436 1.036 1.428 0 2.492-.672 3.178-2.03l-.798-.476c-.504 1.008-1.162 1.582-2.338 1.582-1.4 0-2.324-1.064-2.394-2.562h5.74zm-3.346-2.548c.574 0 1.092.182 1.526.56.448.364.686.854.728 1.47h-4.564c.266-1.218 1.12-2.03 2.31-2.03zm10.601 1.498c0-.798-.238-1.4-.714-1.806-.462-.406-1.036-.616-1.722-.616-.994 0-1.82.532-2.338 1.414v-1.218h-1.092v6.944h1.092v-3.85c0-.7.196-1.26.588-1.68s.868-.63 1.428-.63c1.022 0 1.666.574 1.666 1.638v4.522h1.092zm1.717 5.04c-.098.182-.154.42-.154.714 0 1.218 1.078 2.016 2.982 2.016 2.128 0 3.318-1.274 3.318-3.416v-6.58h-1.092v1.246c-.378-.896-1.26-1.442-2.38-1.442-.896 0-1.652.322-2.282.952-.616.63-.924 1.484-.924 2.562 0 1.05.308 1.904.938 2.548s1.4.966 2.31.966c1.022 0 1.876-.532 2.338-1.428v1.19c0 1.61-.742 2.422-2.226 2.422-1.218 0-1.89-.378-1.89-.994 0-.168.028-.322.098-.462zm4.48-5.796c.434.462.658 1.078.658 1.848s-.224 1.386-.658 1.848-.98.686-1.638.686-1.204-.224-1.624-.686-.63-1.078-.63-1.848.21-1.386.63-1.848.966-.686 1.624-.686 1.204.224 1.638.686zm4.493 5.474v-6.944h-1.092v6.944zm.112-8.148v-1.372h-1.316v1.372zm7.581 3.43c0-.798-.238-1.4-.714-1.806-.462-.406-1.036-.616-1.722-.616-.994 0-1.82.532-2.338 1.414v-1.218h-1.092v6.944h1.092v-3.85c0-.7.196-1.26.588-1.68s.868-.63 1.428-.63c1.022 0 1.666.574 1.666 1.638v4.522h1.092zm8.057 1.05c0-1.022-.308-1.862-.91-2.506s-1.414-.966-2.436-.966c-.966 0-1.792.35-2.478 1.05-.672.686-1.008 1.568-1.008 2.618s.336 1.932 1.008 2.632c.672.686 1.484 1.036 2.436 1.036 1.428 0 2.492-.672 3.178-2.03l-.798-.476c-.504 1.008-1.162 1.582-2.338 1.582-1.4 0-2.324-1.064-2.394-2.562h5.74zm-3.346-2.548c.574 0 1.092.182 1.526.56.448.364.686.854.728 1.47h-4.564c.266-1.218 1.12-2.03 2.31-2.03z" fill="#9f9f9f" opacity=".8"/><path d="m1050.98 554v-4.27h4.68v-1.036h-4.68v-3.458h5.1v-1.036h-6.27v9.8zm9.95-7.07c-.17-.042-.33-.07-.48-.07-.9 0-1.57.49-2.02 1.456v-1.26h-1.09v6.944h1.09v-3.794c0-.7.17-1.26.52-1.694s.76-.644 1.25-.644c.18 0 .36.028.54.084zm6.57 7.07c-.33-.546-.42-.938-.42-1.736v-3.136c0-1.442-.94-2.268-2.73-2.268-.8 0-1.45.196-1.94.574s-.74.854-.74 1.4c0 .196.04.378.11.56l.96-.322c-.02-.07-.03-.14-.03-.21 0-.616.61-1.078 1.64-1.078 1.09 0 1.63.448 1.63 1.344v.308l-2.31.378c-1.44.224-2.39 1.022-2.39 2.268 0 1.232.94 2.114 2.34 2.114 1.05 0 1.92-.56 2.36-1.568 0 .574.14 1.036.42 1.372zm-3.76-.784c-.82 0-1.34-.462-1.34-1.19 0-.714.52-1.19 1.47-1.358l2.11-.364v.21c0 .742-.19 1.386-.6 1.918-.39.518-.94.784-1.64.784zm5.05-1.582c0 .868.23 1.512.71 1.932s1.06.63 1.75.63c1.05 0 1.82-.476 2.31-1.414v1.218h1.09v-6.944h-1.09v3.892c0 .672-.2 1.218-.6 1.638-.39.42-.87.63-1.44.63-.97 0-1.64-.574-1.64-1.638v-4.522h-1.09zm12.98-7.434v4.116c-.41-.91-1.3-1.456-2.47-1.456-.88 0-1.65.35-2.31 1.05-.65.7-.98 1.568-.98 2.618 0 1.064.33 1.946.96 2.632s1.44 1.036 2.4 1.036c1.05 0 1.85-.476 2.4-1.442v1.246h1.09v-9.8zm-2.27 8.988c-.67 0-1.23-.238-1.69-.728-.45-.49-.68-1.134-.68-1.932s.23-1.428.68-1.918c.46-.49 1.02-.742 1.69-.742.66 0 1.22.252 1.67.742.46.49.68 1.12.68 1.918s-.22 1.442-.68 1.932c-.45.49-1.01.728-1.67.728zm14.85-.812c.44-.672.77-1.498.98-2.478l-.91-.504c-.15.84-.39 1.554-.71 2.128l-2.26-2.982c.73-.378 1.04-.546 1.54-.98.51-.434.75-.952.75-1.61 0-1.19-.87-1.946-2.17-1.946-.63 0-1.18.21-1.61.644-.44.434-.66.952-.66 1.582 0 .742.22 1.428.68 2.058-1.27.77-1.91 1.764-1.91 2.968 0 .84.29 1.54.86 2.1.58.56 1.32.84 2.22.84 1.02 0 1.87-.336 2.54-1.022l.63.826h1.26zm-3.13.84c-.55 0-1.03-.182-1.43-.532-.41-.364-.6-.84-.6-1.414 0-.854.46-1.596 1.37-2.226l2.53 3.332c-.54.56-1.17.84-1.87.84zm-.89-7c0-.742.51-1.288 1.24-1.288.63 0 1.16.434 1.16 1.092 0 .35-.13.658-.38.91-.25.238-.74.532-1.46.882-.37-.504-.56-1.036-.56-1.596zm14.76.84-2.17 5.684-2.17-5.684h-1.17l2.8 6.944h1.09l2.8-6.944zm8.2 3.276c0-1.022-.31-1.862-.91-2.506s-1.42-.966-2.44-.966c-.96 0-1.79.35-2.48 1.05-.67.686-1 1.568-1 2.618s.33 1.932 1 2.632c.68.686 1.49 1.036 2.44 1.036 1.43 0 2.49-.672 3.18-2.03l-.8-.476c-.5 1.008-1.16 1.582-2.34 1.582-1.4 0-2.32-1.064-2.39-2.562h5.74zm-3.35-2.548c.58 0 1.09.182 1.53.56.45.364.68.854.73 1.47h-4.57c.27-1.218 1.12-2.03 2.31-2.03zm8.32-.854c-.17-.042-.32-.07-.47-.07-.9 0-1.57.49-2.02 1.456v-1.26h-1.09v6.944h1.09v-3.794c0-.7.17-1.26.52-1.694s.75-.644 1.24-.644c.19 0 .37.028.55.084zm2.1 7.07v-6.944h-1.09v6.944zm.11-8.148v-1.372h-1.32v1.372zm7.03 8.148v-6.944h-3.87v-1.372c0-.826.36-1.232 1.09-1.232.17 0 .32.028.46.07l.17-.924c-.18-.07-.41-.098-.67-.098-1.35 0-2.15.84-2.15 2.17v1.386h-1.09v.868h1.09v6.076h1.1v-6.076h2.78v6.076zm.12-8.148v-1.372h-1.32v1.372zm7 5.838c-.54 1.008-1.21 1.526-2.32 1.526-.71 0-1.32-.238-1.78-.728s-.7-1.148-.7-1.96.24-1.456.7-1.946c.48-.49 1.07-.742 1.78-.742 1.02 0 1.78.49 2.24 1.47l.83-.546c-.51-1.19-1.59-1.904-3.08-1.904-.98 0-1.82.35-2.52 1.05-.69.686-1.04 1.568-1.04 2.618 0 1.064.34 1.946 1.01 2.632.68.686 1.52 1.036 2.55 1.036 1.4 0 2.43-.672 3.12-2.002zm7.87 2.31c-.32-.546-.42-.938-.42-1.736v-3.136c0-1.442-.94-2.268-2.73-2.268-.8 0-1.44.196-1.93.574s-.75.854-.75 1.4c0 .196.05.378.12.56l.95-.322c-.02-.07-.03-.14-.03-.21 0-.616.62-1.078 1.64-1.078 1.09 0 1.64.448 1.64 1.344v.308l-2.31.378c-1.45.224-2.4 1.022-2.4 2.268 0 1.232.94 2.114 2.34 2.114 1.05 0 1.92-.56 2.37-1.568 0 .574.14 1.036.42 1.372zm-3.75-.784c-.83 0-1.35-.462-1.35-1.19 0-.714.52-1.19 1.47-1.358l2.12-.364v.21c0 .742-.2 1.386-.61 1.918-.39.518-.93.784-1.63.784zm5.37-5.292v4.41c0 1.302.72 1.862 1.73 1.862.38 0 .69-.042.93-.126l-.1-.91c-.18.056-.37.084-.52.084-.77 0-.95-.322-.95-1.12v-4.2h1.59v-.868h-1.59v-1.876h-1.09v1.876h-1.17v.868zm5.06 6.076v-6.944h-1.09v6.944zm.11-8.148v-1.372h-1.31v1.372zm7.24 2.016c-.74-.672-1.58-1.008-2.52-1.008s-1.77.336-2.51 1.008c-.74.658-1.1 1.554-1.1 2.66s.36 2.002 1.1 2.674c.74.658 1.57.994 2.51.994s1.78-.336 2.52-.994c.74-.672 1.12-1.568 1.12-2.674s-.38-2.002-1.12-2.66zm-4.3 4.592c-.48-.518-.71-1.162-.71-1.932s.23-1.414.71-1.918c.49-.518 1.08-.77 1.79-.77.72 0 1.3.252 1.78.77.49.504.73 1.148.73 1.918s-.24 1.414-.73 1.932c-.48.504-1.06.756-1.78.756-.71 0-1.3-.252-1.79-.756zm12.65-3.178c0-.798-.24-1.4-.71-1.806s-1.04-.616-1.73-.616c-.99 0-1.82.532-2.33 1.414v-1.218h-1.1v6.944h1.1v-3.85c0-.7.19-1.26.58-1.68.4-.42.87-.63 1.43-.63 1.02 0 1.67.574 1.67 1.638v4.522h1.09z" fill="#9f9f9f" opacity=".8"/><path d="m1356.12 553.84 1.14-2.898h4.34l1.13 2.898h1.21l-3.9-9.8h-1.23l-3.89 9.8zm3.31-8.498.29.812 1.49 3.808h-3.57l1.49-3.808zm10.67 6.188c-.54 1.008-1.21 1.526-2.32 1.526-.71 0-1.32-.238-1.78-.728s-.7-1.148-.7-1.96.24-1.456.7-1.946c.48-.49 1.07-.742 1.78-.742 1.02 0 1.78.49 2.24 1.47l.83-.546c-.51-1.19-1.59-1.904-3.08-1.904-.98 0-1.82.35-2.52 1.05-.69.686-1.04 1.568-1.04 2.618 0 1.064.34 1.946 1.01 2.632.68.686 1.52 1.036 2.55 1.036 1.4 0 2.43-.672 3.12-2.002zm7.39 0c-.54 1.008-1.21 1.526-2.32 1.526-.71 0-1.32-.238-1.78-.728s-.7-1.148-.7-1.96.24-1.456.7-1.946c.48-.49 1.07-.742 1.78-.742 1.02 0 1.78.49 2.24 1.47l.83-.546c-.51-1.19-1.59-1.904-3.08-1.904-.98 0-1.82.35-2.52 1.05-.69.686-1.04 1.568-1.04 2.618 0 1.064.34 1.946 1.01 2.632.68.686 1.52 1.036 2.55 1.036 1.4 0 2.43-.672 3.12-2.002zm7.63-3.822c-.74-.672-1.58-1.008-2.52-1.008s-1.76.336-2.5 1.008c-.75.658-1.11 1.554-1.11 2.66s.36 2.002 1.11 2.674c.74.658 1.56.994 2.5.994s1.78-.336 2.52-.994c.74-.672 1.12-1.568 1.12-2.674s-.38-2.002-1.12-2.66zm-4.3 4.592c-.47-.518-.71-1.162-.71-1.932s.24-1.414.71-1.918c.49-.518 1.08-.77 1.8-.77.71 0 1.3.252 1.77.77.49.504.73 1.148.73 1.918s-.24 1.414-.73 1.932c-.47.504-1.06.756-1.77.756-.72 0-1.31-.252-1.8-.756zm6.68-.826c0 .868.24 1.512.71 1.932.48.42 1.07.63 1.75.63 1.05 0 1.82-.476 2.31-1.414v1.218h1.09v-6.944h-1.09v3.892c0 .672-.19 1.218-.6 1.638-.39.42-.87.63-1.44.63-.97 0-1.64-.574-1.64-1.638v-4.522h-1.09zm13.5-2.352c0-.798-.24-1.4-.71-1.806s-1.04-.616-1.73-.616c-.99 0-1.82.532-2.33 1.414v-1.218h-1.1v6.944h1.1v-3.85c0-.7.19-1.26.58-1.68.4-.42.87-.63 1.43-.63 1.02 0 1.67.574 1.67 1.638v4.522h1.09zm1.96-1.358v4.41c0 1.302.73 1.862 1.74 1.862.37 0 .68-.042.92-.126l-.1-.91c-.18.056-.36.084-.52.084-.77 0-.95-.322-.95-1.12v-4.2h1.6v-.868h-1.6v-1.876h-1.09v1.876h-1.16v.868zm16.84.798c0-1.12-.84-1.862-2.05-1.862-.97 0-1.71.434-2.2 1.316-.27-.882-1-1.316-1.89-1.316-.91 0-1.68.574-2.06 1.302v-1.106h-1.09v6.944h1.09v-3.724c0-1.624.74-2.436 1.74-2.436.82 0 1.27.504 1.27 1.4v4.76h1.09v-3.752c0-1.61.74-2.408 1.71-2.408.84 0 1.3.476 1.3 1.274v4.886h1.09zm7.57 5.278c-.32-.546-.42-.938-.42-1.736v-3.136c0-1.442-.93-2.268-2.73-2.268-.79 0-1.44.196-1.93.574s-.74.854-.74 1.4c0 .196.04.378.11.56l.95-.322c-.01-.07-.02-.14-.02-.21 0-.616.61-1.078 1.63-1.078 1.1 0 1.64.448 1.64 1.344v.308l-2.31.378c-1.44.224-2.39 1.022-2.39 2.268 0 1.232.94 2.114 2.34 2.114 1.05 0 1.91-.56 2.36-1.568 0 .574.14 1.036.42 1.372zm-3.75-.784c-.82 0-1.34-.462-1.34-1.19 0-.714.52-1.19 1.47-1.358l2.11-.364v.21c0 .742-.19 1.386-.6 1.918-.39.518-.94.784-1.64.784zm10.86-3.934c0-.798-.24-1.4-.72-1.806-.46-.406-1.03-.616-1.72-.616-.99 0-1.82.532-2.34 1.414v-1.218h-1.09v6.944h1.09v-3.85c0-.7.2-1.26.59-1.68s.87-.63 1.43-.63c1.02 0 1.66.574 1.66 1.638v4.522h1.1zm7.56 4.718c-.32-.546-.42-.938-.42-1.736v-3.136c0-1.442-.93-2.268-2.73-2.268-.79 0-1.44.196-1.93.574s-.74.854-.74 1.4c0 .196.04.378.11.56l.95-.322c-.01-.07-.02-.14-.02-.21 0-.616.61-1.078 1.63-1.078 1.1 0 1.64.448 1.64 1.344v.308l-2.31.378c-1.44.224-2.39 1.022-2.39 2.268 0 1.232.94 2.114 2.34 2.114 1.05 0 1.91-.56 2.36-1.568 0 .574.14 1.036.42 1.372zm-3.75-.784c-.82 0-1.34-.462-1.34-1.19 0-.714.52-1.19 1.47-1.358l2.11-.364v.21c0 .742-.19 1.386-.6 1.918-.39.518-.94.784-1.64.784zm5.18 1.106c-.09.182-.15.42-.15.714 0 1.218 1.08 2.016 2.98 2.016 2.13 0 3.32-1.274 3.32-3.416v-6.58h-1.09v1.246c-.38-.896-1.26-1.442-2.38-1.442-.9 0-1.65.322-2.28.952-.62.63-.93 1.484-.93 2.562 0 1.05.31 1.904.94 2.548s1.4.966 2.31.966c1.02 0 1.88-.532 2.34-1.428v1.19c0 1.61-.74 2.422-2.23 2.422-1.22 0-1.89-.378-1.89-.994 0-.168.03-.322.1-.462zm4.48-5.796c.44.462.66 1.078.66 1.848s-.22 1.386-.66 1.848c-.43.462-.98.686-1.63.686-.66 0-1.21-.224-1.63-.686s-.63-1.078-.63-1.848.21-1.386.63-1.848.97-.686 1.63-.686c.65 0 1.2.224 1.63.686zm9.76 1.806c0-1.022-.31-1.862-.91-2.506s-1.41-.966-2.44-.966c-.96 0-1.79.35-2.47 1.05-.68.686-1.01 1.568-1.01 2.618s.33 1.932 1.01 2.632c.67.686 1.48 1.036 2.43 1.036 1.43 0 2.49-.672 3.18-2.03l-.8-.476c-.5 1.008-1.16 1.582-2.34 1.582-1.4 0-2.32-1.064-2.39-2.562h5.74zm-3.35-2.548c.58 0 1.1.182 1.53.56.45.364.69.854.73 1.47h-4.57c.27-1.218 1.12-2.03 2.31-2.03zm14.04.938c0-1.12-.84-1.862-2.06-1.862-.97 0-1.71.434-2.2 1.316-.27-.882-.99-1.316-1.89-1.316-.91 0-1.68.574-2.06 1.302v-1.106h-1.09v6.944h1.09v-3.724c0-1.624.74-2.436 1.74-2.436.82 0 1.27.504 1.27 1.4v4.76h1.09v-3.752c0-1.61.75-2.408 1.71-2.408.84 0 1.3.476 1.3 1.274v4.886h1.1zm8.06 1.61c0-1.022-.31-1.862-.91-2.506-.61-.644-1.42-.966-2.44-.966-.97 0-1.79.35-2.48 1.05-.67.686-1.01 1.568-1.01 2.618s.34 1.932 1.01 2.632c.67.686 1.49 1.036 2.44 1.036 1.43 0 2.49-.672 3.18-2.03l-.8-.476c-.51 1.008-1.16 1.582-2.34 1.582-1.4 0-2.32-1.064-2.39-2.562h5.74zm-3.35-2.548c.57 0 1.09.182 1.53.56.44.364.68.854.72 1.47h-4.56c.27-1.218 1.12-2.03 2.31-2.03zm10.6 1.498c0-.798-.24-1.4-.71-1.806s-1.04-.616-1.73-.616c-.99 0-1.82.532-2.33 1.414v-1.218h-1.1v6.944h1.1v-3.85c0-.7.19-1.26.58-1.68.4-.42.87-.63 1.43-.63 1.02 0 1.67.574 1.67 1.638v4.522h1.09zm1.96-1.358v4.41c0 1.302.73 1.862 1.74 1.862.37 0 .68-.042.92-.126l-.1-.91c-.18.056-.36.084-.52.084-.77 0-.95-.322-.95-1.12v-4.2h1.6v-.868h-1.6v-1.876h-1.09v1.876h-1.16v.868z" fill="#9f9f9f" opacity=".8"/><g fill="#1f1f1f"><path d="m1077.42 445.88c.57 0 1.03-.461 1.03-1.029s-.46-1.028-1.03-1.028zm71.98-10.628-.82-.627zm-11.31 6.792c-.53.198-.81.79-.61 1.322.2.533.79.804 1.32.606zm-60.67 1.779h-1.37v2.057h1.37zm-1.37 0c-11.12 0-20.22 9.099-20.22 20.226h2.05c0-9.991 8.18-18.169 18.17-18.169zm-20.22 20.226c0 11.127 9.1 20.226 20.22 20.226v-2.056c-9.99 0-18.17-8.179-18.17-18.17zm20.22 20.226h60.34v-2.056h-60.34zm-2.74-76.791h60.34v-2.057h-60.34zm60.34 0c9.99 0 18.17 8.179 18.17 18.169h2.05c0-11.126-9.1-20.226-20.22-20.226zm18.17 18.169c0 3.231-1.18 6.296-3.24 8.972l1.63 1.254c2.29-2.979 3.66-6.475 3.66-10.226zm-3.24 8.972c-2.45 3.185-6.14 5.8-10.49 7.419l.71 1.928c4.67-1.733 8.69-4.559 11.41-8.093zm-76.3-28.169c0 3.218-2.61 5.827-5.83 5.827v2.057c4.36 0 7.89-3.53 7.89-7.884zm-5.83 5.827c-3.21 0-5.82-2.609-5.82-5.827h-2.06c0 4.354 3.53 7.884 7.88 7.884zm-5.82-5.827c0-3.219 2.61-5.828 5.82-5.828v-2.057c-4.35 0-7.88 3.53-7.88 7.885zm5.82-5.828c3.22 0 5.83 2.609 5.83 5.828h2.06c0-4.355-3.53-7.885-7.89-7.885zm82.62 82.619c0 3.219-2.61 5.828-5.82 5.828v2.057c4.35 0 7.88-3.53 7.88-7.885zm-5.82 5.828c-3.22 0-5.83-2.609-5.83-5.828h-2.06c0 4.355 3.53 7.885 7.89 7.885zm-5.83-5.828c0-3.219 2.61-5.828 5.83-5.828v-2.057c-4.36 0-7.89 3.53-7.89 7.885zm5.83-5.828c3.21 0 5.82 2.609 5.82 5.828h2.06c0-4.355-3.53-7.885-7.88-7.885zm-20.57-54.165h-32.91v2.057h32.91zm-36.68 3.771v21.418h2.05v-21.418zm0 21.418v.001.001.001.001.001.001.002.001.001.001.001.001.001.001.001.001.001.001.001.001.001.001.001.001.001.001.001.001.001.001.002.001.001.001.001.001.001.001.001.001.001.001.001.001.001.001.001.001.001.001.001.001.001.001.001.002.001.001.001.001.001.001.001.001.001.001.001.001.001.001.001.001.001.001.001.001.001.001.001.002.001.001.001.001.001.001.001.001.001.001.001.001.001.001.001.001.001.001.001.001.001.001.001.002.001.001.001.001.001.001.001.001.001.001.001.001.001.001.001.001.001.001.001.001.001.001.001.001.002.001.001.001.001.001.001.001.001.001.001.001.001.001.001.001.001.001.001.001.001.001.001.001.002.001.001.001.001.001.001.001.001.001.001.001.001.001.001.001.001.001.001.001.001.001.001.001.001.002.001.001.001.001.001.001.001.001.001.001.001.001.001.001.001.001.001.001.001.001.001.001.001.002.001.001.001.001.001.001.001.001.001.001.001.001.001.001.001.001.001.001.001.001.001.001.001.001.002.001.001.001.001.001.001.001.001.001.001.001.001.001.001.001.001.001.001.001.001.001.001.001.002.001.001.001.001.001.001.001.001.001.001.001.001.001.001.001.001.001.001.001.001.001.001.001.002.001.001.001.001.001.001.001.001.001.001.001.001.001.001.001.001.001.001.001.001.001.001.001.001.002.001.001.001.001.001.001.001.001.001.001.001.001.001.001.001.001.001.001.001.001.001.001.001.002.001.001.001.001.001.001.001.001.001.001.001.001.001.001.001.001.001.001.001.001.001.001.001.001.002.001.001.001.001.001.001.001.001.001.001.001.001.001.001.001.001.001.001.001.001.001.001.001.002.001.001.001.001.001.001.001.001.001.001.001.001.001.001.001.001.001.001.001.001.001.001.001.002.001.001.001.001.001.001.001.001.001.001.001.001.001.001.001.001.001.001.001.001.001.001.001.001.002.001.001.001.001.001.001.001.001.001.001.001.001.001.001.001.001.001.001.001.001.001.001.001.002.001.001.001.001.001.001.001.001.001.001.001.001.001.001.001.001.001.001.001.001.001.001.001.001.002.001.001.001.001.001.001.001.001.001.001.001.001.001.001.001.001.001.001.001.001.001.001.001.002.001.001.001.001.001.001.001.001.001.001.001.001.001.001.001.001.001h2.05s0 0 0-.001v-.001-.001-.001-.001-.001-.001-.001-.001c0-.001 0-.001 0-.001 0-.001 0-.001 0-.001 0-.001 0-.001 0-.001 0-.001 0-.001 0-.001 0-.001 0-.001 0-.001 0-.001 0-.001 0-.001 0-.001 0-.001 0-.001 0-.001 0-.001 0-.001 0-.001 0-.001 0-.002 0 0 0 0 0-.001 0 0 0 0 0-.001 0 0 0 0 0-.001 0 0 0 0 0-.001 0 0 0 0 0-.001 0 0 0 0 0-.001 0 0 0 0 0-.001v-.001-.001-.001-.001-.001-.001-.001-.001-.001c0-.001 0-.001 0-.001 0-.001 0-.001 0-.001 0-.001 0-.001 0-.001 0-.001 0-.001 0-.001 0-.001 0-.001 0-.001 0-.001 0-.001 0-.001 0-.001 0-.001 0-.001 0-.001 0-.001 0-.002 0 0 0 0 0-.001 0 0 0 0 0-.001 0 0 0 0 0-.001 0 0 0 0 0-.001 0 0 0 0 0-.001 0 0 0 0 0-.001 0 0 0 0 0-.001 0 0 0 0 0-.001v-.001-.001-.001-.001-.001-.001-.001-.001c0-.001 0-.001 0-.001 0-.001 0-.001 0-.001 0-.001 0-.001 0-.001 0-.001 0-.001 0-.001 0-.001 0-.001 0-.001 0-.001 0-.001 0-.001 0-.001 0-.001 0-.001 0-.001 0-.001 0-.001 0-.001 0-.001 0-.002 0 0 0 0 0-.001 0 0 0 0 0-.001 0 0 0 0 0-.001 0 0 0 0 0-.001 0 0 0 0 0-.001 0 0 0 0 0-.001 0 0 0 0 0-.001v-.001-.001-.001-.001-.001-.001-.001-.001-.001c0-.001 0-.001 0-.001 0-.001 0-.001 0-.001 0-.001 0-.001 0-.001 0-.001 0-.001 0-.001 0-.001 0-.001 0-.001 0-.001 0-.001 0-.001 0-.001 0-.001 0-.001 0-.001 0-.001 0-.002 0 0 0 0 0-.001 0 0 0 0 0-.001 0 0 0 0 0-.001 0 0 0 0 0-.001 0 0 0 0 0-.001 0 0 0 0 0-.001 0 0 0 0 0-.001 0 0 0 0 0-.001v-.001-.001-.001-.001-.001-.001-.001-.001c0-.001 0-.001 0-.001 0-.001 0-.001 0-.001 0-.001 0-.001 0-.001 0-.001 0-.001 0-.001 0-.001 0-.001 0-.001 0-.001 0-.001 0-.001 0-.001 0-.001 0-.001 0-.001 0-.001 0-.001 0-.001 0-.001 0-.002 0 0 0 0 0-.001 0 0 0 0 0-.001 0 0 0 0 0-.001 0 0 0 0 0-.001 0 0 0 0 0-.001 0 0 0 0 0-.001 0 0 0 0 0-.001v-.001-.001-.001-.001-.001-.001-.001-.001-.001c0-.001 0-.001 0-.001 0-.001 0-.001 0-.001 0-.001 0-.001 0-.001 0-.001 0-.001 0-.001 0-.001 0-.001 0-.001 0-.001 0-.001 0-.001 0-.001 0-.001 0-.001 0-.001 0-.001 0-.002 0 0 0 0 0-.001 0 0 0 0 0-.001 0 0 0 0 0-.001 0 0 0 0 0-.001 0 0 0 0 0-.001 0 0 0 0 0-.001 0 0 0 0 0-.001v-.001-.001-.001-.001-.001-.001-.001-.001-.001c0-.001 0-.001 0-.001 0-.001 0-.001 0-.001 0-.001 0-.001 0-.001 0-.001 0-.001 0-.001 0-.001 0-.001 0-.001 0-.001 0-.001 0-.001 0-.001 0-.001 0-.001 0-.001 0-.001 0-.002 0 0 0 0 0-.001 0 0 0 0 0-.001 0 0 0 0 0-.001 0 0 0 0 0-.001 0 0 0 0 0-.001 0 0 0 0 0-.001 0 0 0 0 0-.001 0 0 0 0 0-.001v-.001-.001-.001-.001-.001-.001-.001-.001c0-.001 0-.001 0-.001 0-.001 0-.001 0-.001 0-.001 0-.001 0-.001 0-.001 0-.001 0-.001 0-.001 0-.001 0-.001 0-.001 0-.001 0-.001 0-.001 0-.001 0-.001 0-.001 0-.001 0-.001 0-.001 0-.001 0-.002 0 0 0 0 0-.001 0 0 0 0 0-.001 0 0 0 0 0-.001 0 0 0 0 0-.001 0 0 0 0 0-.001 0 0 0 0 0-.001 0 0 0 0 0-.001v-.001-.001-.001-.001-.001-.001-.001-.001-.001c0-.001 0-.001 0-.001 0-.001 0-.001 0-.001 0-.001 0-.001 0-.001 0-.001 0-.001 0-.001 0-.001 0-.001 0-.001 0-.001 0-.001 0-.001 0-.001 0-.001 0-.001 0-.001 0-.001 0-.002 0 0 0 0 0-.001 0 0 0 0 0-.001 0 0 0 0 0-.001 0 0 0 0 0-.001 0 0 0 0 0-.001 0 0 0 0 0-.001 0 0 0 0 0-.001 0 0 0 0 0-.001v-.001-.001-.001-.001-.001-.001-.001-.001c0-.001 0-.001 0-.001 0-.001 0-.001 0-.001 0-.001 0-.001 0-.001 0-.001 0-.001 0-.001 0-.001 0-.001 0-.001 0-.001 0-.001 0-.001 0-.001 0-.001 0-.001 0-.001 0-.001 0-.001 0-.001 0-.001 0-.002 0 0 0 0 0-.001 0 0 0 0 0-.001 0 0 0 0 0-.001 0 0 0 0 0-.001 0 0 0 0 0-.001 0 0 0 0 0-.001 0 0 0 0 0-.001v-.001-.001-.001-.001-.001-.001-.001-.001-.001c0-.001 0-.001 0-.001 0-.001 0-.001 0-.001 0-.001 0-.001 0-.001 0-.001 0-.001 0-.001 0-.001 0-.001 0-.001 0-.001 0-.001 0-.001 0-.001 0-.001 0-.001 0-.001 0-.001 0-.002 0 0 0 0 0-.001 0 0 0 0 0-.001 0 0 0 0 0-.001 0 0 0 0 0-.001 0 0 0 0 0-.001 0 0 0 0 0-.001 0 0 0 0 0-.001v-.001-.001-.001-.001-.001-.001-.001-.001-.001c0-.001 0-.001 0-.001 0-.001 0-.001 0-.001 0-.001 0-.001 0-.001 0-.001 0-.001 0-.001 0-.001 0-.001 0-.001 0-.001 0-.001 0-.001 0-.001 0-.001 0-.001 0-.001 0-.001 0-.002 0 0 0 0 0-.001 0 0 0 0 0-.001 0 0 0 0 0-.001 0 0 0 0 0-.001 0 0 0 0 0-.001 0 0 0 0 0-.001 0 0 0 0 0-.001 0 0 0 0 0-.001v-.001-.001-.001-.001-.001-.001-.001-.001c0-.001 0-.001 0-.001 0-.001 0-.001 0-.001 0-.001 0-.001 0-.001 0-.001 0-.001 0-.001 0-.001 0-.001 0-.001 0-.001 0-.001 0-.001 0-.001 0-.001 0-.001 0-.001 0-.001 0-.001 0-.001 0-.001 0-.002 0 0 0 0 0-.001 0 0 0 0 0-.001 0 0 0 0 0-.001 0 0 0 0 0-.001 0 0 0 0 0-.001 0 0 0 0 0-.001 0 0 0 0 0-.001v-.001-.001-.001-.001-.001-.001-.001-.001-.001c0-.001 0-.001 0-.001 0-.001 0-.001 0-.001 0-.001 0-.001 0-.001 0-.001 0-.001 0-.001 0-.001 0-.001 0-.001 0-.001 0-.001 0-.001 0-.001 0-.001 0-.001 0-.001 0-.001 0-.002 0 0 0 0 0-.001 0 0 0 0 0-.001 0 0 0 0 0-.001 0 0 0 0 0-.001 0 0 0 0 0-.001 0 0 0 0 0-.001 0 0 0 0 0-.001 0 0 0 0 0-.001v-.001-.001-.001-.001-.001-.001-.001-.001c0-.001 0-.001 0-.001 0-.001 0-.001 0-.001 0-.001 0-.001 0-.001 0-.001 0-.001 0-.001 0-.001 0-.001 0-.001 0-.001 0-.001 0-.001 0-.001 0-.001 0-.001 0-.001 0-.001 0-.001 0-.001 0-.001 0-.002 0 0 0 0 0-.001 0 0 0 0 0-.001 0 0 0 0 0-.001 0 0 0 0 0-.001 0 0 0 0 0-.001 0 0 0 0 0-.001 0 0 0 0 0-.001v-.001-.001-.001-.001-.001-.001-.001-.001-.001c0-.001 0-.001 0-.001 0-.001 0-.001 0-.001 0-.001 0-.001 0-.001 0-.001 0-.001 0-.001 0-.001 0-.001 0-.001 0-.001 0-.001 0-.001 0-.001 0-.001 0-.001 0-.001 0-.001 0-.002 0 0 0 0 0-.001 0 0 0 0 0-.001 0 0 0 0 0-.001 0 0 0 0 0-.001 0 0 0 0 0-.001 0 0 0 0 0-.001 0 0 0 0 0-.001 0 0 0 0 0-.001v-.001-.001-.001-.001-.001-.001-.001-.001c0-.001 0-.001 0-.001 0-.001 0-.001 0-.001 0-.001 0-.001 0-.001 0-.001 0-.001 0-.001 0-.001 0-.001 0-.001 0-.001 0-.001 0-.001 0-.001 0-.001 0-.001 0-.001 0-.001 0-.001 0-.001 0-.001 0-.002 0 0 0 0 0-.001 0 0 0 0 0-.001 0 0 0 0 0-.001 0 0 0 0 0-.001 0 0 0 0 0-.001 0 0 0 0 0-.001 0 0 0 0 0-.001v-.001-.001-.001-.001-.001-.001-.001-.001-.001c0-.001 0-.001 0-.001 0-.001 0-.001 0-.001 0-.001 0-.001 0-.001 0-.001 0-.001 0-.001 0-.001 0-.001 0-.001 0-.001 0-.001 0-.001 0-.001 0-.001 0-.001 0-.001 0-.001 0-.002 0 0 0 0 0-.001 0 0 0 0 0-.001 0 0 0 0 0-.001 0 0 0 0 0-.001 0 0 0 0 0-.001 0 0 0 0 0-.001 0 0 0 0 0-.001v-.001-.001-.001-.001-.001-.001-.001-.001-.001c0-.001 0-.001 0-.001 0-.001 0-.001 0-.001 0-.001 0-.001 0-.001 0-.001 0-.001 0-.001 0-.001 0-.001 0-.001 0-.001 0-.001 0-.001 0-.001 0-.001 0-.001 0-.001 0-.001 0-.002 0 0 0 0 0-.001 0 0 0 0 0-.001 0 0 0 0 0-.001 0 0 0 0 0-.001 0 0 0 0 0-.001 0 0 0 0 0-.001 0 0 0 0 0-.001 0 0 0 0 0-.001v-.001-.001-.001-.001-.001-.001-.001-.001c0-.001 0-.001 0-.001 0-.001 0-.001 0-.001 0-.001 0-.001 0-.001 0-.001 0-.001 0-.001 0-.001 0-.001 0-.001 0-.001 0-.001 0-.001 0-.001 0-.001 0-.001 0-.001 0-.001 0-.001 0-.001 0-.001 0-.002 0 0 0 0 0-.001 0 0 0 0 0-.001 0 0 0 0 0-.001 0 0 0 0 0-.001 0 0 0 0 0-.001 0 0 0 0 0-.001 0 0 0 0 0-.001v-.001-.001-.001-.001-.001-.001-.001-.001-.001c0-.001 0-.001 0-.001 0-.001 0-.001 0-.001 0-.001 0-.001 0-.001 0-.001 0-.001 0-.001 0-.001 0-.001 0-.001 0-.001 0-.001 0-.001 0-.001 0-.001 0-.001 0-.001 0-.001 0-.002 0 0 0 0 0-.001 0 0 0 0 0-.001 0 0 0 0 0-.001 0 0 0 0 0-.001 0 0 0 0 0-.001 0 0 0 0 0-.001zm0 .533c0 11.234 9.17 20.215 20.22 20.215v-2.056c-9.93 0-18.17-8.074-18.17-18.159zm20.22 20.215c11.06 0 20.23-9.165 20.23-20.215h-2.06c0 9.913-8.25 18.159-18.17 18.159zm20.23-20.215v-21.951h-2.06v21.951zm-36.68-25.722c-2.09 0-3.77 1.688-3.77 3.771h2.05c0-.947.77-1.714 1.72-1.714zm32.91 2.057c.94 0 1.71.767 1.71 1.714h2.06c0-2.083-1.69-3.771-3.77-3.771z"/><path d="m1375.03 418.111c-.57 0-1.03.46-1.03 1.028s.46 1.029 1.03 1.029zm93.93 2.057c.57 0 1.03-.461 1.03-1.029s-.46-1.028-1.03-1.028zm-70.62 19.883c-.57 0-1.03.461-1.03 1.029s.46 1.028 1.03 1.028zm39.08 2.057c.57 0 1.03-.46 1.03-1.028s-.46-1.029-1.03-1.029zm-13.03 15.77c-.56 0-1.02.46-1.02 1.028s.46 1.029 1.02 1.029zm22.63 2.057c.57 0 1.03-.461 1.03-1.029s-.46-1.028-1.03-1.028zm-48.68-2.057c-.57 0-1.03.46-1.03 1.028s.46 1.029 1.03 1.029zm14.07 2.057c.56 0 1.02-.461 1.02-1.029s-.46-1.028-1.02-1.028zm-37.38-39.767h93.93v-2.057h-93.93zm8.57-12.684h78.16v-2.057h-78.16zm86.73 8.57v58.965h2.06v-58.965zm-8.57 67.535h-78.16v2.057h78.16zm-86.73-8.57v-58.965h-2.06v58.965zm8.57 8.57c-4.73 0-8.57-3.837-8.57-8.57h-2.06c0 5.869 4.76 10.627 10.63 10.627zm86.73-8.57c0 4.733-3.83 8.57-8.57 8.57v2.057c5.87 0 10.63-4.758 10.63-10.627zm-8.57-67.535c4.74 0 8.57 3.837 8.57 8.57h2.06c0-5.869-4.76-10.627-10.63-10.627zm-78.16-2.057c-5.87 0-10.63 4.758-10.63 10.627h2.06c0-4.733 3.84-8.57 8.57-8.57zm14.74 36.681h39.08v-2.057h-39.08zm26.05 17.827h22.63v-2.057h-22.63zm-26.05 0h14.07v-2.057h-14.07zm24-1.371c0 2.461-2 4.456-4.46 4.456v2.057c3.6 0 6.51-2.916 6.51-6.513zm-4.46 4.456c-2.46 0-4.46-1.995-4.46-4.456h-2.05c0 3.597 2.91 6.513 6.51 6.513zm-4.46-4.456c0-2.462 2-4.457 4.46-4.457v-2.057c-3.6 0-6.51 2.916-6.51 6.514zm4.46-4.457c2.46 0 4.46 1.995 4.46 4.457h2.05c0-3.598-2.91-6.514-6.51-6.514zm30.51-13.37c0 2.461-1.99 4.457-4.45 4.457v2.057c3.59 0 6.51-2.917 6.51-6.514zm-4.45 4.457c-2.47 0-4.46-1.996-4.46-4.457h-2.06c0 3.597 2.92 6.514 6.52 6.514zm-4.46-4.457c0-2.461 1.99-4.457 4.46-4.457v-2.057c-3.6 0-6.52 2.917-6.52 6.514zm4.46-4.457c2.46 0 4.45 1.996 4.45 4.457h2.06c0-3.597-2.92-6.514-6.51-6.514z"/><path d="m772.512 667.587c0 .568.461 1.029 1.029 1.029s1.028-.461 1.028-1.029zm22.626 0c0 .568.461 1.029 1.029 1.029s1.028-.461 1.028-1.029zm-51.048 58.303 1.025.083zm79.471 0 1.025-.082zm-4.758-58.965-1.025.083zm-69.956 0-1.025-.082zm44.654 19.748c.568 0 1.028-.461 1.028-1.029s-.46-1.028-1.028-1.028zm-17.218 21.187c-.568 0-1.028.46-1.028 1.028s.46 1.029 1.028 1.029zm10.183-29.303c0-.568-.461-1.028-1.029-1.028s-1.028.46-1.028 1.028zm-2.057 5.501c0 .568.46 1.028 1.028 1.028s1.029-.46 1.029-1.028zm2.057 24.753c0-.568-.461-1.028-1.029-1.028s-1.028.46-1.028 1.028zm-2.057 5.5c0 .568.46 1.029 1.028 1.029s1.029-.461 1.029-1.029zm-9.84-46.724v-16.455h-2.057v16.455zm9.942-26.397h.685v-2.057h-.685zm10.627 9.942v16.455h2.057v-16.455zm-9.942-9.942c5.491 0 9.942 4.451 9.942 9.942h2.057c0-6.627-5.372-11.999-11.999-11.999zm-10.627 9.942c0-5.491 4.451-9.942 9.942-9.942v-2.057c-6.627 0-11.999 5.372-11.999 11.999zm-17.521 9.256h53.554v-2.057h-53.554zm60.73 6.62 4.757 58.965 2.051-.165-4.758-58.965zm-2.418 66.743h-63.069v2.057h63.069zm-70.245-7.778 4.758-58.965-2.051-.165-4.757 58.965zm7.176 7.778c-4.205 0-7.514-3.587-7.176-7.778l-2.05-.165c-.435 5.388 3.82 10 9.226 10zm70.244-7.778c.339 4.191-2.971 7.778-7.175 7.778v2.057c5.405 0 9.66-4.612 9.226-10zm-11.933-65.585c3.751 0 6.874 2.881 7.176 6.62l2.05-.165c-.388-4.808-4.403-8.512-9.226-8.512zm-53.554-2.057c-4.823 0-8.838 3.704-9.226 8.512l2.051.165c.301-3.739 3.424-6.62 7.175-6.62zm36.453 26.285h-11.407v2.057h11.407zm-11.407 13.679h5.596v-2.057h-5.596zm5.596 9.565h-11.407v2.057h11.407zm4.783-4.783c0 2.642-2.142 4.783-4.783 4.783v2.057c3.777 0 6.839-3.062 6.839-6.84zm-4.783-4.782c2.641 0 4.783 2.141 4.783 4.782h2.056c0-3.777-3.062-6.839-6.839-6.839zm-12.435-6.84c0 3.778 3.062 6.84 6.839 6.84v-2.057c-2.641 0-4.782-2.141-4.782-4.783zm6.839-6.839c-3.777 0-6.839 3.062-6.839 6.839h2.057c0-2.641 2.141-4.782 4.782-4.782zm2.315-6.059v5.501h2.057v-5.501zm0 30.254v5.5h2.057v-5.5z"/><path d="m1133.47 715.936c.57 0 1.03-.46 1.03-1.028s-.46-1.029-1.03-1.029zm-32.19-13.484h-1.03zm12.39 12.456v-1.029zm18.7-67.282c-.42-.38-1.07-.346-1.45.076s-.35 1.072.07 1.452zm13.62 13.644.72.733.78-.767-.81-.73zm-15.03 13.355c-.4.399-.41 1.05-.01 1.455.4.404 1.05.409 1.45.011zm1.41 26.938c-.42-.38-1.07-.346-1.45.077-.38.422-.35 1.072.08 1.452zm13.62 13.644.72.733.78-.766-.81-.731zm-15.03 13.356c-.4.398-.41 1.049-.01 1.454s1.05.41 1.45.011zm2.51-66.558c.57 0 1.03-.46 1.03-1.028s-.46-1.028-1.03-1.028zm-32.19 11.427h-1.03zm12.39-12.455v1.028zm-52.79 37.428v-1.028zm-9.51-9.561h-1.03zm9.51-9.562v-1.028zm9.51 9.562h-1.03zm43.28 27.092h19.8v-2.057h-19.8zm0-2.057c-6.27 0-11.36-5.111-11.36-11.427h-2.06c0 7.442 6.01 13.484 13.42 13.484zm17.32-64.725 14.31 12.88 1.38-1.528-14.31-12.88zm14.28 11.383-14.31 14.088 1.44 1.466 14.31-14.088zm-14.27 42.555 14.3 12.88 1.38-1.529-14.31-12.88zm14.27 11.383-14.31 14.088 1.44 1.465 14.31-14.088zm-31.6-52.47h19.8v-2.056h-19.8zm0-2.056c-7.41 0-13.42 6.042-13.42 13.483h2.06c0-6.316 5.09-11.427 11.36-11.427zm-52.79 37.428c-4.68 0-8.48-3.815-8.48-8.533h-2.06c0 5.843 4.72 10.59 10.54 10.59zm-8.48-8.533c0-4.718 3.8-8.533 8.48-8.533v-2.057c-5.82 0-10.54 4.746-10.54 10.59zm8.48-8.533c4.68 0 8.48 3.815 8.48 8.533h2.06c0-5.844-4.71-10.59-10.54-10.59zm8.48 8.533c0 4.718-3.8 8.533-8.48 8.533v2.057c5.83 0 10.54-4.747 10.54-10.59zm1.52.701h30.4v-2.057h-30.4zm31.43 12.907v-14.512h-2.06v14.512zm-2.06-29.02v14.513h2.06v-14.513z"/></g><path d="m1468.62 689.528c0 7.94-1.99 15.416-5.49 21.96m-27.42-66.532c14.95 4.593 26.69 16.5 31.06 31.545m-44.78-33.597c-25.74 0-46.62 20.874-46.62 46.624 0 25.749 20.88 46.623 46.62 46.623 13.59 0 25.82-5.811 34.34-15.084m-26.19-43.624h-11.4c-3.21 0-5.81 2.602-5.81 5.811 0 3.21 2.6 5.811 5.81 5.811h5.59c3.21 0 5.81 2.602 5.81 5.812 0 3.209-2.6 5.811-5.81 5.811h-11.4m9.15-30.331v5.5m0 24.753v5.501" stroke="#1f1f1f" stroke-linecap="round" stroke-miterlimit="10" stroke-width="2.05692"/><path d="m753.168 797.518v-9.8h-1.176v9.8zm7.878-4.718c0-.798-.238-1.4-.714-1.806-.462-.406-1.036-.616-1.722-.616-.994 0-1.82.532-2.338 1.414v-1.218h-1.092v6.944h1.092v-3.85c0-.7.196-1.26.588-1.68s.868-.63 1.428-.63c1.022 0 1.666.574 1.666 1.638v4.522h1.092zm2.519-.588c0-.574.602-.91 1.4-.91.896 0 1.512.42 1.848 1.246l.84-.49c-.462-1.12-1.358-1.68-2.702-1.68-.658 0-1.232.168-1.694.518-.462.336-.7.784-.7 1.358 0 1.12.938 1.764 2.324 2.03 1.232.21 1.778.574 1.778 1.246 0 .77-.588 1.232-1.54 1.232-.966 0-1.638-.546-2.044-1.624l-.91.56c.448 1.19 1.498 2.016 2.954 2.016.826 0 1.47-.21 1.932-.644s.7-.952.7-1.582c0-1.078-.784-1.75-2.338-2.044-1.19-.224-1.848-.56-1.848-1.232zm5.942-.77v4.41c0 1.302.728 1.862 1.736 1.862.378 0 .686-.042.924-.126l-.098-.91c-.182.056-.364.084-.518.084-.77 0-.952-.322-.952-1.12v-4.2h1.596v-.868h-1.596v-1.876h-1.092v1.876h-1.162v.868zm9.758 6.076c-.322-.546-.42-.938-.42-1.736v-3.136c0-1.442-.938-2.268-2.73-2.268-.798 0-1.442.196-1.932.574s-.742.854-.742 1.4c0 .196.042.378.112.56l.952-.322c-.014-.07-.028-.14-.028-.21 0-.616.616-1.078 1.638-1.078 1.092 0 1.638.448 1.638 1.344v.308l-2.31.378c-1.442.224-2.394 1.022-2.394 2.268 0 1.232.938 2.114 2.338 2.114 1.05 0 1.918-.56 2.366-1.568 0 .574.14 1.036.42 1.372zm-3.752-.784c-.826 0-1.344-.462-1.344-1.19 0-.714.518-1.19 1.47-1.358l2.114-.364v.21c0 .742-.196 1.386-.602 1.918-.392.518-.938.784-1.638.784zm6.081.784v-9.8h-1.092v9.8zm2.919 0v-9.8h-1.092v9.8zm11.055-5.278c0-1.12-.84-1.862-2.058-1.862-.966 0-1.708.434-2.198 1.316-.266-.882-.994-1.316-1.89-1.316-.91 0-1.68.574-2.058 1.302v-1.106h-1.092v6.944h1.092v-3.724c0-1.624.742-2.436 1.736-2.436.826 0 1.274.504 1.274 1.4v4.76h1.092v-3.752c0-1.61.742-2.408 1.708-2.408.84 0 1.302.476 1.302 1.274v4.886h1.092zm8.059 1.61c0-1.022-.308-1.862-.91-2.506s-1.414-.966-2.436-.966c-.966 0-1.792.35-2.478 1.05-.672.686-1.008 1.568-1.008 2.618s.336 1.932 1.008 2.632c.672.686 1.484 1.036 2.436 1.036 1.428 0 2.492-.672 3.178-2.03l-.798-.476c-.504 1.008-1.162 1.582-2.338 1.582-1.4 0-2.324-1.064-2.394-2.562h5.74zm-3.346-2.548c.574 0 1.092.182 1.526.56.448.364.686.854.728 1.47h-4.564c.266-1.218 1.12-2.03 2.31-2.03zm10.602 1.498c0-.798-.238-1.4-.714-1.806-.462-.406-1.036-.616-1.722-.616-.994 0-1.82.532-2.338 1.414v-1.218h-1.092v6.944h1.092v-3.85c0-.7.196-1.26.588-1.68s.868-.63 1.428-.63c1.022 0 1.666.574 1.666 1.638v4.522h1.092zm1.959-1.358v4.41c0 1.302.728 1.862 1.736 1.862.378 0 .686-.042.924-.126l-.098-.91c-.182.056-.364.084-.518.084-.77 0-.952-.322-.952-1.12v-4.2h1.596v-.868h-1.596v-1.876h-1.092v1.876h-1.162v.868z" fill="#9f9f9f" opacity=".8"/><path d="m1086.2 792.092c-1.84-.35-2.68-.896-2.68-1.862 0-.49.2-.868.59-1.134.41-.266.91-.406 1.54-.406s1.18.168 1.61.504c.44.336.77.798.98 1.4l.95-.56c-.49-1.442-1.82-2.352-3.54-2.352-.95 0-1.73.238-2.35.714s-.92 1.092-.92 1.834c0 1.484 1.07 2.422 3.22 2.814 1.77.336 2.59.882 2.59 1.988 0 .49-.21.924-.65 1.274-.42.35-.99.532-1.72.532-1.55 0-2.6-.868-2.87-2.548l-1.04.546c.16.882.58 1.61 1.26 2.184.69.574 1.57.854 2.65.854 1.05 0 1.89-.28 2.55-.84s.99-1.26.99-2.086c0-1.554-1.02-2.464-3.16-2.856zm5.57 8.442v-3.962c.55.868 1.34 1.302 2.42 1.302.95 0 1.75-.336 2.38-1.008.65-.672.97-1.554.97-2.66s-.31-1.988-.94-2.66-1.4-1.008-2.34-1.008c-1.1 0-2.04.602-2.49 1.442v-1.246h-1.09v9.8zm3.98-8.26c.44.49.67 1.134.67 1.932s-.23 1.442-.67 1.932-1.01.728-1.7.728c-.68 0-1.24-.238-1.69-.728s-.67-1.134-.67-1.932.22-1.428.67-1.918 1.01-.742 1.69-.742c.69 0 1.26.238 1.7.728zm4.24 5.404v-9.8h-1.09v9.8zm2.92 0v-6.944h-1.09v6.944zm.12-8.148v-1.372h-1.32v1.372zm2.22 2.072v4.41c0 1.302.72 1.862 1.73 1.862.38 0 .69-.042.93-.126l-.1-.91c-.18.056-.37.084-.52.084-.77 0-.95-.322-.95-1.12v-4.2h1.59v-.868h-1.59v-1.876h-1.09v1.876h-1.17v.868zm8.64 8.932v-3.962c.54.868 1.34 1.302 2.42 1.302.95 0 1.75-.336 2.38-1.008.64-.672.96-1.554.96-2.66s-.3-1.988-.93-2.66-1.4-1.008-2.34-1.008c-1.11 0-2.05.602-2.49 1.442v-1.246h-1.1v9.8zm3.97-8.26c.45.49.67 1.134.67 1.932s-.22 1.442-.67 1.932c-.43.49-1.01.728-1.69.728-.69 0-1.25-.238-1.7-.728-.44-.49-.67-1.134-.67-1.932s.23-1.428.67-1.918c.45-.49 1.01-.742 1.7-.742.68 0 1.26.238 1.69.728zm8.96 5.404c-.33-.546-.42-.938-.42-1.736v-3.136c0-1.442-.94-2.268-2.73-2.268-.8 0-1.45.196-1.94.574s-.74.854-.74 1.4c0 .196.04.378.11.56l.96-.322c-.02-.07-.03-.14-.03-.21 0-.616.61-1.078 1.64-1.078 1.09 0 1.63.448 1.63 1.344v.308l-2.31.378c-1.44.224-2.39 1.022-2.39 2.268 0 1.232.94 2.114 2.34 2.114 1.05 0 1.92-.56 2.36-1.568 0 .574.14 1.036.42 1.372zm-3.76-.784c-.82 0-1.34-.462-1.34-1.19 0-.714.52-1.19 1.47-1.358l2.11-.364v.21c0 .742-.19 1.386-.6 1.918-.39.518-.94.784-1.64.784zm4.74 3.598c.21.098.46.14.73.14.89 0 1.43-.35 1.82-1.316l3.48-8.582h-1.17l-2.17 5.446-2.2-5.446h-1.2l2.8 6.916-.52 1.316c-.21.504-.39.686-.84.686-.18 0-.38-.042-.56-.14z" fill="#9f9f9f" opacity=".8"/><path d="m1401.05 797.518-2.45-4.326c1.47-.28 2.39-1.344 2.39-2.702 0-.812-.28-1.47-.85-1.988-.58-.518-1.33-.784-2.3-.784h-3.91v9.8h1.18v-4.256h2.21l2.41 4.256zm-3.42-8.764c1.39 0 2.18.616 2.18 1.736s-.79 1.736-2.18 1.736h-2.52v-3.472zm10.74 5.096c0-1.022-.3-1.862-.91-2.506-.6-.644-1.41-.966-2.43-.966-.97 0-1.79.35-2.48 1.05-.67.686-1.01 1.568-1.01 2.618s.34 1.932 1.01 2.632c.67.686 1.48 1.036 2.44 1.036 1.42 0 2.49-.672 3.17-2.03l-.79-.476c-.51 1.008-1.17 1.582-2.34 1.582-1.4 0-2.33-1.064-2.4-2.562h5.74zm-3.34-2.548c.57 0 1.09.182 1.52.56.45.364.69.854.73 1.47h-4.56c.26-1.218 1.12-2.03 2.31-2.03zm9.08-.728-2.17 5.684-2.17-5.684h-1.18l2.8 6.944h1.09l2.8-6.944zm7.5.812c-.75-.672-1.59-1.008-2.52-1.008-.94 0-1.77.336-2.51 1.008-.74.658-1.11 1.554-1.11 2.66s.37 2.002 1.11 2.674c.74.658 1.57.994 2.51.994.93 0 1.77-.336 2.52-.994.74-.672 1.12-1.568 1.12-2.674s-.38-2.002-1.12-2.66zm-4.3 4.592c-.48-.518-.72-1.162-.72-1.932s.24-1.414.72-1.918c.49-.518 1.08-.77 1.79-.77s1.3.252 1.78.77c.49.504.73 1.148.73 1.918s-.24 1.414-.73 1.932c-.48.504-1.07.756-1.78.756s-1.3-.252-1.79-.756zm7.87 1.54v-9.8h-1.09v9.8zm6.39-6.944-2.17 5.684-2.17-5.684h-1.17l2.8 6.944h1.09l2.8-6.944zm3.16 6.944v-6.944h-1.1v6.944zm.11-8.148v-1.372h-1.32v1.372zm7.58 3.43c0-.798-.24-1.4-.71-1.806s-1.04-.616-1.73-.616c-.99 0-1.82.532-2.33 1.414v-1.218h-1.1v6.944h1.1v-3.85c0-.7.19-1.26.58-1.68.4-.42.87-.63 1.43-.63 1.02 0 1.67.574 1.67 1.638v4.522h1.09zm1.72 5.04c-.1.182-.16.42-.16.714 0 1.218 1.08 2.016 2.98 2.016 2.13 0 3.32-1.274 3.32-3.416v-6.58h-1.09v1.246c-.38-.896-1.26-1.442-2.38-1.442-.9 0-1.65.322-2.28.952-.62.63-.93 1.484-.93 2.562 0 1.05.31 1.904.94 2.548s1.4.966 2.31.966c1.02 0 1.88-.532 2.34-1.428v1.19c0 1.61-.74 2.422-2.23 2.422-1.21 0-1.89-.378-1.89-.994 0-.168.03-.322.1-.462zm4.48-5.796c.43.462.65 1.078.65 1.848s-.22 1.386-.65 1.848c-.44.462-.98.686-1.64.686s-1.21-.224-1.63-.686-.63-1.078-.63-1.848.21-1.386.63-1.848.97-.686 1.63-.686 1.2.224 1.64.686z" fill="#9f9f9f" opacity=".8"/><path d="m408.6 797.518c1.484 0 2.688-.434 3.598-1.302.924-.868 1.386-2.072 1.386-3.598s-.462-2.73-1.386-3.598c-.91-.868-2.114-1.302-3.598-1.302h-2.702v9.8zm-1.526-1.036v-7.728h1.456c2.366 0 3.85 1.302 3.85 3.878 0 2.562-1.484 3.85-3.85 3.85zm13.567 1.036c-.322-.546-.42-.938-.42-1.736v-3.136c0-1.442-.938-2.268-2.73-2.268-.798 0-1.442.196-1.932.574s-.742.854-.742 1.4c0 .196.042.378.112.56l.952-.322c-.014-.07-.028-.14-.028-.21 0-.616.616-1.078 1.638-1.078 1.092 0 1.638.448 1.638 1.344v.308l-2.31.378c-1.442.224-2.394 1.022-2.394 2.268 0 1.232.938 2.114 2.338 2.114 1.05 0 1.918-.56 2.366-1.568 0 .574.14 1.036.42 1.372zm-3.752-.784c-.826 0-1.344-.462-1.344-1.19 0-.714.518-1.19 1.47-1.358l2.114-.364v.21c0 .742-.196 1.386-.602 1.918-.392.518-.938.784-1.638.784zm5.369-5.292v4.41c0 1.302.728 1.862 1.736 1.862.378 0 .686-.042.924-.126l-.098-.91c-.182.056-.364.084-.518.084-.77 0-.952-.322-.952-1.12v-4.2h1.596v-.868h-1.596v-1.876h-1.092v1.876h-1.162v.868zm9.758 6.076c-.322-.546-.42-.938-.42-1.736v-3.136c0-1.442-.938-2.268-2.73-2.268-.798 0-1.442.196-1.932.574s-.742.854-.742 1.4c0 .196.042.378.112.56l.952-.322c-.014-.07-.028-.14-.028-.21 0-.616.616-1.078 1.638-1.078 1.092 0 1.638.448 1.638 1.344v.308l-2.31.378c-1.442.224-2.394 1.022-2.394 2.268 0 1.232.938 2.114 2.338 2.114 1.05 0 1.918-.56 2.366-1.568 0 .574.14 1.036.42 1.372zm-3.752-.784c-.826 0-1.344-.462-1.344-1.19 0-.714.518-1.19 1.47-1.358l2.114-.364v.21c0 .742-.196 1.386-.602 1.918-.392.518-.938.784-1.638.784zm17.953-4.116c0-1.498-.462-2.73-1.372-3.668-.91-.952-2.03-1.428-3.374-1.428-1.33 0-2.45.476-3.36 1.428-.91.938-1.358 2.17-1.358 3.682 0 1.498.448 2.73 1.358 3.668s2.03 1.414 3.36 1.414c1.344 0 2.464-.476 3.374-1.414.91-.952 1.372-2.184 1.372-3.682zm-7.266 2.94c-.658-.756-.994-1.736-.994-2.94s.336-2.184.994-2.926c.658-.756 1.498-1.134 2.52-1.134s1.876.378 2.534 1.134c.672.742 1.008 1.722 1.008 2.926s-.336 2.184-1.008 2.94c-.658.742-1.512 1.12-2.534 1.12s-1.862-.378-2.52-1.12zm12.406-5.11c-.168-.042-.322-.07-.476-.07-.896 0-1.568.49-2.016 1.456v-1.26h-1.092v6.944h1.092v-3.794c0-.7.168-1.26.518-1.694s.756-.644 1.246-.644c.182 0 .364.028.546.084zm6.079 4.76c-.546 1.008-1.218 1.526-2.324 1.526-.714 0-1.316-.238-1.778-.728s-.7-1.148-.7-1.96.238-1.456.7-1.946c.476-.49 1.064-.742 1.778-.742 1.022 0 1.778.49 2.24 1.47l.826-.546c-.504-1.19-1.582-1.904-3.08-1.904-.98 0-1.82.35-2.52 1.05-.686.686-1.036 1.568-1.036 2.618 0 1.064.336 1.946 1.008 2.632.686.686 1.526 1.036 2.548 1.036 1.4 0 2.436-.672 3.122-2.002zm7.936-2.38c0-.798-.238-1.414-.728-1.82-.476-.42-1.064-.63-1.764-.63-.966 0-1.904.56-2.366 1.414v-4.074h-1.092v9.8h1.092v-3.85c0-.686.21-1.246.616-1.666.406-.434.896-.644 1.456-.644 1.008 0 1.694.588 1.694 1.666v4.494h1.092zm8.055 1.022c0-1.022-.308-1.862-.91-2.506s-1.414-.966-2.436-.966c-.966 0-1.792.35-2.478 1.05-.672.686-1.008 1.568-1.008 2.618s.336 1.932 1.008 2.632c.672.686 1.484 1.036 2.436 1.036 1.428 0 2.492-.672 3.178-2.03l-.798-.476c-.504 1.008-1.162 1.582-2.338 1.582-1.4 0-2.324-1.064-2.394-2.562h5.74zm-3.346-2.548c.574 0 1.092.182 1.526.56.448.364.686.854.728 1.47h-4.564c.266-1.218 1.12-2.03 2.31-2.03zm5.552.91c0-.574.602-.91 1.4-.91.896 0 1.512.42 1.848 1.246l.84-.49c-.462-1.12-1.358-1.68-2.702-1.68-.658 0-1.232.168-1.694.518-.462.336-.7.784-.7 1.358 0 1.12.938 1.764 2.324 2.03 1.232.21 1.778.574 1.778 1.246 0 .77-.588 1.232-1.54 1.232-.966 0-1.638-.546-2.044-1.624l-.91.56c.448 1.19 1.498 2.016 2.954 2.016.826 0 1.47-.21 1.932-.644s.7-.952.7-1.582c0-1.078-.784-1.75-2.338-2.044-1.19-.224-1.848-.56-1.848-1.232zm5.943-.77v4.41c0 1.302.728 1.862 1.736 1.862.378 0 .686-.042.924-.126l-.098-.91c-.182.056-.364.084-.518.084-.77 0-.952-.322-.952-1.12v-4.2h1.596v-.868h-1.596v-1.876h-1.092v1.876h-1.162v.868zm7.558-.994c-.168-.042-.322-.07-.476-.07-.896 0-1.568.49-2.016 1.456v-1.26h-1.092v6.944h1.092v-3.794c0-.7.168-1.26.518-1.694s.756-.644 1.246-.644c.182 0 .364.028.546.084zm6.569 7.07c-.322-.546-.42-.938-.42-1.736v-3.136c0-1.442-.938-2.268-2.73-2.268-.798 0-1.442.196-1.932.574s-.742.854-.742 1.4c0 .196.042.378.112.56l.952-.322c-.014-.07-.028-.14-.028-.21 0-.616.616-1.078 1.638-1.078 1.092 0 1.638.448 1.638 1.344v.308l-2.31.378c-1.442.224-2.394 1.022-2.394 2.268 0 1.232.938 2.114 2.338 2.114 1.05 0 1.918-.56 2.366-1.568 0 .574.14 1.036.42 1.372zm-3.752-.784c-.826 0-1.344-.462-1.344-1.19 0-.714.518-1.19 1.47-1.358l2.114-.364v.21c0 .742-.196 1.386-.602 1.918-.392.518-.938.784-1.638.784zm5.369-5.292v4.41c0 1.302.728 1.862 1.736 1.862.378 0 .686-.042.924-.126l-.098-.91c-.182.056-.364.084-.518.084-.77 0-.952-.322-.952-1.12v-4.2h1.596v-.868h-1.596v-1.876h-1.092v1.876h-1.162v.868zm5.066 6.076v-6.944h-1.092v6.944zm.112-8.148v-1.372h-1.316v1.372zm7.234 2.016c-.742-.672-1.582-1.008-2.52-1.008s-1.764.336-2.506 1.008c-.742.658-1.106 1.554-1.106 2.66s.364 2.002 1.106 2.674c.742.658 1.568.994 2.506.994s1.778-.336 2.52-.994c.742-.672 1.12-1.568 1.12-2.674s-.378-2.002-1.12-2.66zm-4.298 4.592c-.476-.518-.714-1.162-.714-1.932s.238-1.414.714-1.918c.49-.518 1.078-.77 1.792-.77s1.302.252 1.778.77c.49.504.728 1.148.728 1.918s-.238 1.414-.728 1.932c-.476.504-1.064.756-1.778.756s-1.302-.252-1.792-.756zm12.65-3.178c0-.798-.238-1.4-.714-1.806-.462-.406-1.036-.616-1.722-.616-.994 0-1.82.532-2.338 1.414v-1.218h-1.092v6.944h1.092v-3.85c0-.7.196-1.26.588-1.68s.868-.63 1.428-.63c1.022 0 1.666.574 1.666 1.638v4.522h1.092zm6.758 4.718v-4.48h4.844v4.48h1.176v-9.8h-1.176v4.284h-4.844v-4.284h-1.176v9.8zm8.028-2.366c0 .868.238 1.512.714 1.932s1.064.63 1.75.63c1.05 0 1.82-.476 2.31-1.414v1.218h1.092v-6.944h-1.092v3.892c0 .672-.196 1.218-.602 1.638-.392.42-.868.63-1.442.63-.966 0-1.638-.574-1.638-1.638v-4.522h-1.092zm8.797 2.366v-1.246c.448.84 1.372 1.442 2.422 1.442.966 0 1.75-.35 2.38-1.036s.952-1.568.952-2.632-.308-1.946-.91-2.632-1.372-1.036-2.296-1.036c-1.078 0-2.002.574-2.548 1.456v-4.116h-1.092v9.8zm2.268-.812c-.658 0-1.218-.238-1.68-.728-.448-.49-.672-1.134-.672-1.932s.224-1.428.672-1.918c.462-.49 1.022-.742 1.68-.742.686 0 1.246.252 1.694.742s.672 1.12.672 1.918-.224 1.442-.672 1.932-1.008.728-1.694.728z" fill="#9f9f9f" opacity=".8"/><path d="m518.091 694.409c-.063.565.344 1.074.908 1.137.565.063 1.074-.344 1.137-.908zm-34.861-48.492c-.557-.111-1.098.251-1.209.808s.251 1.098.808 1.209zm-28.384 5.513c.512-.246.728-.86.482-1.372s-.861-.728-1.373-.482zm-24.716 54.307c.19.535.778.816 1.313.626s.815-.778.626-1.313zm18.852 21.737c-.471-.316-1.11-.19-1.426.282-.317.472-.19 1.111.282 1.427zm59.587-5.892c.374-.427.332-1.077-.095-1.451-.427-.375-1.077-.332-1.452.095zm-54.568-40.022c-.568 0-1.028.461-1.028 1.029s.46 1.028 1.028 1.028zm42.609 2.057c.568 0 1.028-.46 1.028-1.028s-.46-1.029-1.028-1.029zm-42.609 7.224c-.568 0-1.028.461-1.028 1.029s.46 1.028 1.028 1.028zm42.609 2.057c.568 0 1.028-.46 1.028-1.028s-.46-1.029-1.028-1.029zm-42.609 7.224c-.568 0-1.028.461-1.028 1.029s.46 1.028 1.028 1.028zm23.968 2.057c.568 0 1.028-.46 1.028-1.028s-.46-1.029-1.028-1.029zm2.966-55.388c0 3.089-2.516 5.601-5.629 5.601v2.057c4.24 0 7.686-3.425 7.686-7.658zm-5.629 5.601c-3.113 0-5.629-2.512-5.629-5.601h-2.057c0 4.233 3.445 7.658 7.686 7.658zm-5.629-5.601c0-3.089 2.516-5.601 5.629-5.601v-2.057c-4.241 0-7.686 3.425-7.686 7.658zm5.629-5.601c3.113 0 5.629 2.512 5.629 5.601h2.057c0-4.233-3.446-7.658-7.686-7.658zm41.58 73.219c0 3.089-2.516 5.601-5.629 5.601v2.057c4.24 0 7.686-3.424 7.686-7.658zm-5.629 5.601c-3.113 0-5.63-2.512-5.63-5.601h-2.056c0 4.234 3.445 7.658 7.686 7.658zm-5.63-5.601c0-3.089 2.517-5.601 5.63-5.601v-2.057c-4.241 0-7.686 3.425-7.686 7.658zm5.63-5.601c3.113 0 5.629 2.512 5.629 5.601h2.057c0-4.233-3.446-7.658-7.686-7.658zm-71.599 2.949c0 3.09-2.516 5.601-5.629 5.601v2.057c4.24 0 7.686-3.424 7.686-7.658zm-5.629 5.601c-3.113 0-5.629-2.511-5.629-5.601h-2.057c0 4.234 3.445 7.658 7.686 7.658zm-5.629-5.601c0-3.089 2.516-5.6 5.629-5.6v-2.057c-4.241 0-7.686 3.424-7.686 7.657zm5.629-5.6c3.113 0 5.629 2.511 5.629 5.6h2.057c0-4.233-3.446-7.657-7.686-7.657zm86.107-11.519c.14-1.259.139-2.374.139-3.562h-2.057c0 1.2-.001 2.205-.127 3.333zm.139-3.562c0-22.378-15.936-40.955-37.045-45.159l-.401 2.017c20.168 4.017 35.389 21.768 35.389 43.142zm-66.32-41.5c-15.516 7.454-26.281 23.183-26.281 41.498h2.057c0-17.482 10.273-32.513 25.115-39.644zm-26.281 41.498c0 5.149.817 10.039 2.456 14.663l1.939-.687c-1.557-4.392-2.338-9.048-2.338-13.976zm20.164 38.109c7.483 5.013 16.468 7.996 26.137 7.996v-2.056c-9.239 0-17.829-2.85-24.993-7.649zm26.137 7.996c13.752 0 26.148-5.966 34.594-15.597l-1.547-1.356c-8.065 9.196-19.902 14.897-33.047 14.897zm-19.974-53.562h42.609v-2.057h-42.609zm0 9.281h42.609v-2.057h-42.609zm0 9.281h23.968v-2.057h-23.968z" fill="#1f1f1f"/><path d="m239.889 223.844h1.682v8.408h-1.682zm5.102 4.192c0-.785.184-1.498.553-2.138.368-.641.873-1.141 1.513-1.502.641-.368 1.358-.552 2.151-.552.584 0 1.133.1 1.645.3.521.192.981.472 1.382.841l-.805 1.537c-.32-.328-.665-.576-1.033-.744-.36-.168-.761-.253-1.201-.253-.481 0-.913.109-1.298.325-.384.208-.684.504-.901.889-.216.384-.324.821-.324 1.309 0 .489.108.925.324 1.309.217.385.513.685.889.901.385.209.813.313 1.286.313.921 0 1.709-.357 2.366-1.069l.829 1.561c-.865.793-1.922 1.189-3.171 1.189-.785 0-1.498-.184-2.139-.552-.64-.369-1.145-.873-1.513-1.514-.369-.64-.553-1.357-.553-2.15zm14.017 4.216c-.793 0-1.51-.18-2.15-.54-.641-.369-1.146-.873-1.514-1.514-.36-.64-.541-1.357-.541-2.15s.181-1.51.541-2.15c.368-.641.873-1.141 1.514-1.502.64-.368 1.357-.552 2.15-.552s1.509.184 2.15.552c.641.361 1.141.861 1.502 1.502.368.64.552 1.357.552 2.15s-.184 1.51-.552 2.15c-.361.641-.861 1.145-1.502 1.514-.641.36-1.357.54-2.15.54zm0-1.681c.48 0 .913-.108 1.297-.325.385-.216.685-.516.901-.901.216-.384.324-.816.324-1.297 0-.488-.108-.921-.324-1.297-.216-.385-.516-.685-.901-.901-.384-.216-.817-.325-1.297-.325-.489 0-.925.109-1.31.325-.376.216-.672.516-.889.901-.216.376-.324.809-.324 1.297 0 .481.108.913.324 1.297.217.385.513.685.889.901.385.217.821.325 1.31.325zm7.498-6.727h1.466l4.541 5.525v-5.525h1.682v8.408h-1.466l-4.541-5.525v5.525h-1.682zm13.848 8.408c-.745 0-1.365-.184-1.862-.552-.488-.377-.809-.901-.961-1.574l1.514-.624c.16.712.596 1.069 1.309 1.069.32 0 .569-.06.745-.18.184-.129.276-.313.276-.553 0-.176-.048-.316-.144-.421-.096-.112-.244-.212-.445-.3-.2-.088-.512-.204-.937-.348-.712-.248-1.265-.561-1.657-.937-.385-.385-.577-.901-.577-1.55 0-.745.244-1.337.733-1.778.496-.44 1.153-.66 1.97-.66.745 0 1.361.188 1.85.564.496.369.821.889.973 1.562l-1.514.625c-.08-.361-.228-.629-.444-.805-.208-.176-.497-.265-.865-.265-.32 0-.573.065-.757.193-.176.12-.264.3-.264.54 0 .176.048.321.144.433.096.104.244.2.444.288.201.088.513.204.937.348.713.249 1.262.565 1.646.949.393.377.589.889.589 1.538 0 .745-.248 1.337-.745 1.778-.489.44-1.141.66-1.958.66z" fill="#1f1f1f" opacity=".3"/><path d="m240 199.5h1446" stroke="#000" stroke-opacity=".15"/></svg>