<svg width="130" height="130" viewBox="0 0 130 130" fill="none" xmlns="http://www.w3.org/2000/svg">
<path fill-rule="evenodd" clip-rule="evenodd" d="M32.4219 53.9623C25.6732 71.8154 34.9814 91.9867 53.1322 98.4782C53.8408 98.7317 54.2955 99.3791 54.2955 100.075V104.738C54.0632 105.666 53.1322 106.129 52.2012 105.666C39.1701 101.493 29.1637 91.5226 24.975 78.539C17.994 56.513 30.0947 33.0954 52.2012 26.1398C52.2703 26.1244 52.3346 26.1094 52.395 26.0953C52.8209 25.9958 53.0548 25.9412 53.4587 26.0899C54.1869 26.358 54.5284 26.8354 54.5284 27.763V31.0088C54.5284 32.1684 54.0632 32.864 53.1322 33.3275C43.5916 36.8053 35.9124 44.2244 32.4219 53.9623ZM75.6117 26.8678C75.9734 26.0045 76.8134 25.8185 77.7988 26.1398C90.5971 30.3132 100.836 40.2831 105.025 53.4988C112.006 75.5247 99.9053 98.9423 77.7988 105.898C77.4252 106.015 76.7968 106.062 76.3047 105.801C75.6878 105.473 75.4716 105.202 75.4716 104.275V101.029C75.4716 99.8694 75.9368 99.1738 76.8678 98.7103C86.4084 95.2325 94.0876 87.8133 97.5781 78.0755C104.327 60.2223 95.0186 40.0511 76.8678 33.5595C76.1697 33.0954 75.4716 32.1684 75.4716 31.2408V27.995C75.4716 27.9434 75.4713 27.8941 75.4711 27.8467C75.469 27.4682 75.4675 27.2119 75.6117 26.8678ZM65.4761 61.7717C75.3131 62.9193 80.2316 65.674 80.2316 73.7086C80.2316 79.9068 75.5475 84.7276 68.521 85.8758V91.3853C68.2866 92.5329 67.584 93.2216 66.6469 93.2216H63.1337C61.9628 92.9919 61.2602 92.3032 61.2602 91.3853V85.8758C53.5311 84.7276 49.7835 80.5955 48.847 74.8568V74.627C48.847 73.7086 49.5496 73.0199 50.4861 73.0199H54.4681C55.1708 73.0199 55.8734 73.4794 56.1073 74.3973C56.8099 77.8407 58.9179 80.3663 65.0078 80.3663C69.4575 80.3663 72.7369 77.8413 72.7369 74.1681C72.7369 70.4949 70.629 69.1175 64.0708 67.9699C54.2337 66.8217 49.5496 63.8377 49.5496 56.2621C49.5496 50.5229 53.9993 45.9318 61.0258 45.0134V39.7336C61.2602 38.5854 61.9628 37.8967 62.8999 37.8967H66.4131C67.584 38.1265 68.2866 38.8152 68.2866 39.7336V45.2431C73.6734 45.7021 77.8893 49.6044 78.8263 54.655V54.8848C78.8263 55.8027 78.1237 56.4913 77.1866 56.4913H73.4396C72.7369 56.4913 72.0343 56.0324 71.7999 55.3437C70.629 51.9003 68.2866 50.5229 64.0708 50.5229C59.3867 50.5229 57.0443 52.5884 57.0443 55.8027C57.0443 59.0169 58.4496 60.8532 65.4761 61.7717Z" fill="#565656"/>
</svg>
