<svg width="1920" height="400" viewBox="0 0 1920 400" fill="none" xmlns="http://www.w3.org/2000/svg">
<rect width="1920" height="400" transform="translate(-0.0078125)" fill="#F7F7F8"/>
<path d="M535.48 231.45C535.48 228.183 536.246 225.217 537.78 222.55C539.313 219.883 541.413 217.8 544.08 216.3C546.78 214.767 549.763 214 553.03 214C557.696 214 561.83 215.583 565.43 218.75L562.73 224.05C561.33 222.65 559.83 221.583 558.23 220.85C556.663 220.083 554.896 219.7 552.93 219.7C550.696 219.7 548.68 220.2 546.88 221.2C545.113 222.2 543.713 223.6 542.68 225.4C541.68 227.167 541.18 229.2 541.18 231.5C541.18 233.8 541.68 235.85 542.68 237.65C543.713 239.417 545.096 240.8 546.83 241.8C548.596 242.8 550.58 243.3 552.78 243.3C556.746 243.3 560.18 241.817 563.08 238.85L565.78 244.2C562.213 247.4 557.896 249 552.83 249C549.63 249 546.696 248.233 544.03 246.7C541.396 245.167 539.313 243.067 537.78 240.4C536.246 237.7 535.48 234.717 535.48 231.45Z" fill="black"/>
<path d="M574.277 249H568.777V214H574.277V249Z" fill="black"/>
<path d="M577.941 236.6C577.941 234.133 578.458 231.9 579.491 229.9C580.524 227.9 581.991 226.317 583.891 225.15C585.791 223.983 587.991 223.4 590.491 223.4C593.024 223.4 595.208 223.967 597.041 225.1C598.874 226.2 600.258 227.75 601.191 229.75C602.158 231.75 602.641 234.033 602.641 236.6V238.15H583.441V238.2C583.674 240.233 584.508 241.8 585.941 242.9C587.374 244 589.041 244.55 590.941 244.55C593.841 244.55 596.341 243.467 598.441 241.3L600.991 245.65C599.824 246.817 598.408 247.767 596.741 248.5C595.074 249.233 593.158 249.6 590.991 249.6C588.358 249.6 586.058 249.067 584.091 248C582.124 246.9 580.608 245.367 579.541 243.4C578.474 241.433 577.941 239.167 577.941 236.6ZM596.741 234.05C596.574 232.25 595.941 230.833 594.841 229.8C593.774 228.733 592.291 228.2 590.391 228.2C588.458 228.2 586.908 228.717 585.741 229.75C584.574 230.75 583.824 232.183 583.491 234.05H596.741Z" fill="black"/>
<path d="M605.729 229.4C606.396 227.433 607.629 225.95 609.429 224.95C611.229 223.917 613.529 223.4 616.329 223.4C623.296 223.4 626.779 226.65 626.779 233.15V249H621.379V245.55C620.512 246.85 619.396 247.85 618.029 248.55C616.662 249.25 615.129 249.6 613.429 249.6C610.929 249.6 608.896 248.867 607.329 247.4C605.762 245.933 604.979 244.05 604.979 241.75C604.979 239.583 605.696 237.817 607.129 236.45C608.562 235.05 610.512 234.233 612.979 234L619.929 233.3C620.462 233.267 620.829 233.167 621.029 233C621.262 232.8 621.379 232.517 621.379 232.15V231.6C621.379 230.533 620.946 229.717 620.079 229.15C619.212 228.55 617.996 228.25 616.429 228.25C614.696 228.25 613.279 228.6 612.179 229.3C611.079 229.967 610.379 230.917 610.079 232.15L605.729 229.4ZM614.179 238.35C613.046 238.483 612.162 238.833 611.529 239.4C610.896 239.967 610.579 240.7 610.579 241.6C610.579 242.6 610.946 243.4 611.679 244C612.412 244.567 613.412 244.85 614.679 244.85C616.579 244.85 618.162 244.283 619.429 243.15C620.729 241.983 621.379 240.567 621.379 238.9V237.45L614.179 238.35Z" fill="black"/>
<path d="M631.597 224H636.847V227.8C637.781 226.333 638.947 225.233 640.347 224.5C641.781 223.767 643.364 223.4 645.097 223.4C647.964 223.4 650.181 224.3 651.747 226.1C653.347 227.867 654.147 230.383 654.147 233.65V249H648.647V234.6C648.647 232.633 648.181 231.133 647.247 230.1C646.314 229.033 644.964 228.5 643.197 228.5C641.164 228.5 639.614 229.25 638.547 230.75C637.514 232.217 636.997 234.367 636.997 237.2V249H631.597V224Z" fill="black"/>
<path d="M672.456 229.4C673.122 227.433 674.356 225.95 676.156 224.95C677.956 223.917 680.256 223.4 683.056 223.4C690.022 223.4 693.506 226.65 693.506 233.15V249H688.106V245.55C687.239 246.85 686.122 247.85 684.756 248.55C683.389 249.25 681.856 249.6 680.156 249.6C677.656 249.6 675.622 248.867 674.056 247.4C672.489 245.933 671.706 244.05 671.706 241.75C671.706 239.583 672.422 237.817 673.856 236.45C675.289 235.05 677.239 234.233 679.706 234L686.656 233.3C687.189 233.267 687.556 233.167 687.756 233C687.989 232.8 688.106 232.517 688.106 232.15V231.6C688.106 230.533 687.672 229.717 686.806 229.15C685.939 228.55 684.722 228.25 683.156 228.25C681.422 228.25 680.006 228.6 678.906 229.3C677.806 229.967 677.106 230.917 676.806 232.15L672.456 229.4ZM680.906 238.35C679.772 238.483 678.889 238.833 678.256 239.4C677.622 239.967 677.306 240.7 677.306 241.6C677.306 242.6 677.672 243.4 678.406 244C679.139 244.567 680.139 244.85 681.406 244.85C683.306 244.85 684.889 244.283 686.156 243.15C687.456 241.983 688.106 240.567 688.106 238.9V237.45L680.906 238.35Z" fill="black"/>
<path d="M698.324 224H703.574V227.8C704.507 226.333 705.674 225.233 707.074 224.5C708.507 223.767 710.091 223.4 711.824 223.4C714.691 223.4 716.907 224.3 718.474 226.1C720.074 227.867 720.874 230.383 720.874 233.65V249H715.374V234.6C715.374 232.633 714.907 231.133 713.974 230.1C713.041 229.033 711.691 228.5 709.924 228.5C707.891 228.5 706.341 229.25 705.274 230.75C704.241 232.217 703.724 234.367 703.724 237.2V249H698.324V224Z" fill="black"/>
<path d="M750.327 249H744.877V245.45C743.91 246.783 742.693 247.817 741.227 248.55C739.76 249.25 738.127 249.6 736.327 249.6C734.06 249.6 732.027 249.05 730.227 247.95C728.46 246.85 727.077 245.317 726.077 243.35C725.11 241.35 724.627 239.067 724.627 236.5C724.627 233.933 725.11 231.667 726.077 229.7C727.077 227.7 728.46 226.15 730.227 225.05C731.993 223.95 734.01 223.4 736.277 223.4C739.81 223.4 742.677 224.8 744.877 227.6V214H750.327V249ZM737.677 228.55C735.443 228.55 733.627 229.283 732.227 230.75C730.86 232.217 730.177 234.133 730.177 236.5C730.177 238.867 730.86 240.783 732.227 242.25C733.627 243.717 735.443 244.45 737.677 244.45C739.91 244.45 741.71 243.733 743.077 242.3C744.443 240.833 745.127 238.9 745.127 236.5C745.127 234.1 744.443 232.183 743.077 230.75C741.71 229.283 739.91 228.55 737.677 228.55Z" fill="black"/>
<path d="M790.203 228.2C792.17 225 795.137 223.4 799.103 223.4C802.137 223.4 804.487 224.333 806.153 226.2C807.82 228.033 808.653 230.7 808.653 234.2V249H803.203V234.6C803.203 232.6 802.753 231.083 801.853 230.05C800.987 229.017 799.703 228.5 798.003 228.5C793.703 228.5 791.553 231.4 791.553 237.2V249H786.153V234.6C786.153 232.6 785.703 231.083 784.803 230.05C783.903 229.017 782.603 228.5 780.903 228.5C776.637 228.5 774.503 231.4 774.503 237.2V249H769.103V224H774.353V227.9C775.953 224.9 778.57 223.4 782.203 223.4C784.103 223.4 785.72 223.8 787.053 224.6C788.42 225.4 789.47 226.6 790.203 228.2Z" fill="black"/>
<path d="M819.849 249H814.449V224H819.849V249ZM817.099 220.6C815.999 220.6 815.083 220.25 814.349 219.55C813.649 218.817 813.299 217.9 813.299 216.8C813.299 215.7 813.649 214.8 814.349 214.1C815.083 213.367 815.999 213 817.099 213C818.199 213 819.099 213.367 819.799 214.1C820.533 214.8 820.899 215.7 820.899 216.8C820.899 217.9 820.533 218.817 819.799 219.55C819.099 220.25 818.199 220.6 817.099 220.6Z" fill="black"/>
<path d="M825.551 224H830.801V227.8C831.734 226.333 832.901 225.233 834.301 224.5C835.734 223.767 837.317 223.4 839.051 223.4C841.917 223.4 844.134 224.3 845.701 226.1C847.301 227.867 848.1 230.383 848.1 233.65V249H842.6V234.6C842.6 232.633 842.134 231.133 841.201 230.1C840.267 229.033 838.917 228.5 837.151 228.5C835.117 228.5 833.567 229.25 832.5 230.75C831.467 232.217 830.951 234.367 830.951 237.2V249H825.551V224Z" fill="black"/>
<path d="M859.353 249H853.953V224H859.353V249ZM856.603 220.6C855.503 220.6 854.587 220.25 853.853 219.55C853.153 218.817 852.803 217.9 852.803 216.8C852.803 215.7 853.153 214.8 853.853 214.1C854.587 213.367 855.503 213 856.603 213C857.703 213 858.603 213.367 859.303 214.1C860.037 214.8 860.403 215.7 860.403 216.8C860.403 217.9 860.037 218.817 859.303 219.55C858.603 220.25 857.703 220.6 856.603 220.6Z" fill="black"/>
<path d="M886.154 228.2C888.121 225 891.088 223.4 895.054 223.4C898.088 223.4 900.438 224.333 902.104 226.2C903.771 228.033 904.604 230.7 904.604 234.2V249H899.154V234.6C899.154 232.6 898.704 231.083 897.804 230.05C896.938 229.017 895.654 228.5 893.954 228.5C889.654 228.5 887.504 231.4 887.504 237.2V249H882.104V234.6C882.104 232.6 881.654 231.083 880.754 230.05C879.854 229.017 878.554 228.5 876.854 228.5C872.588 228.5 870.454 231.4 870.454 237.2V249H865.054V224H870.304V227.9C871.904 224.9 874.521 223.4 878.154 223.4C880.054 223.4 881.671 223.8 883.004 224.6C884.371 225.4 885.421 226.6 886.154 228.2Z" fill="black"/>
<path d="M909.5 229.4C910.167 227.433 911.401 225.95 913.201 224.95C915.001 223.917 917.3 223.4 920.1 223.4C927.067 223.4 930.551 226.65 930.551 233.15V249H925.151V245.55C924.284 246.85 923.167 247.85 921.801 248.55C920.434 249.25 918.901 249.6 917.201 249.6C914.701 249.6 912.667 248.867 911.1 247.4C909.534 245.933 908.75 244.05 908.75 241.75C908.75 239.583 909.467 237.817 910.901 236.45C912.334 235.05 914.284 234.233 916.75 234L923.701 233.3C924.234 233.267 924.601 233.167 924.801 233C925.034 232.8 925.151 232.517 925.151 232.15V231.6C925.151 230.533 924.717 229.717 923.85 229.15C922.984 228.55 921.767 228.25 920.201 228.25C918.467 228.25 917.051 228.6 915.951 229.3C914.851 229.967 914.15 230.917 913.85 232.15L909.5 229.4ZM917.951 238.35C916.817 238.483 915.934 238.833 915.301 239.4C914.667 239.967 914.35 240.7 914.35 241.6C914.35 242.6 914.717 243.4 915.451 244C916.184 244.567 917.184 244.85 918.451 244.85C920.351 244.85 921.934 244.283 923.201 243.15C924.501 241.983 925.151 240.567 925.151 238.9V237.45L917.951 238.35Z" fill="black"/>
<path d="M940.869 249H935.369V214H940.869V249Z" fill="black"/>
<path d="M952.033 249H946.633V224H952.033V249ZM949.283 220.6C948.183 220.6 947.266 220.25 946.533 219.55C945.833 218.817 945.483 217.9 945.483 216.8C945.483 215.7 945.833 214.8 946.533 214.1C947.266 213.367 948.183 213 949.283 213C950.383 213 951.283 213.367 951.983 214.1C952.716 214.8 953.083 215.7 953.083 216.8C953.083 217.9 952.716 218.817 951.983 219.55C951.283 220.25 950.383 220.6 949.283 220.6Z" fill="black"/>
<path d="M957.034 231.05C957.034 228.683 957.917 226.817 959.684 225.45C961.484 224.083 963.917 223.4 966.984 223.4C971.384 223.4 974.684 224.933 976.884 228L973.234 231.45C972.567 230.45 971.651 229.683 970.484 229.15C969.317 228.617 968.017 228.35 966.584 228.35C965.317 228.35 964.317 228.567 963.584 229C962.884 229.433 962.534 230.05 962.534 230.85C962.534 231.417 962.717 231.867 963.084 232.2C963.484 232.5 964.051 232.767 964.784 233C965.517 233.233 966.734 233.55 968.434 233.95C970.334 234.417 971.884 234.933 973.084 235.5C974.284 236.033 975.217 236.8 975.884 237.8C976.584 238.767 976.934 240.05 976.934 241.65C976.934 244.217 976.051 246.183 974.284 247.55C972.517 248.917 970.017 249.6 966.784 249.6C964.251 249.6 962.001 249.167 960.034 248.3C958.101 247.4 956.651 246.15 955.684 244.55L959.384 241C960.151 242.167 961.184 243.083 962.484 243.75C963.784 244.383 965.351 244.7 967.184 244.7C968.551 244.7 969.601 244.467 970.334 244C971.067 243.533 971.434 242.85 971.434 241.95C971.434 241.35 971.251 240.883 970.884 240.55C970.551 240.183 970.017 239.883 969.284 239.65C968.584 239.417 967.451 239.133 965.884 238.8C963.151 238.2 960.984 237.35 959.384 236.25C957.817 235.15 957.034 233.417 957.034 231.05Z" fill="black"/>
<path d="M994.42 248.55C992.82 249.017 991.204 249.25 989.57 249.25C987.204 249.25 985.42 248.667 984.22 247.5C983.054 246.3 982.47 244.367 982.47 241.7V228.6H977.72V224H982.47V217.3H987.87V224H994.47V228.6H987.87V241.35C987.87 242.25 988.07 242.917 988.47 243.35C988.904 243.783 989.604 244 990.57 244C991.437 244 992.72 243.867 994.42 243.6V248.55Z" fill="black"/>
<path d="M1004.21 249H998.809V224H1004.21V249ZM1001.46 220.6C1000.36 220.6 999.442 220.25 998.709 219.55C998.009 218.817 997.659 217.9 997.659 216.8C997.659 215.7 998.009 214.8 998.709 214.1C999.442 213.367 1000.36 213 1001.46 213C1002.56 213 1003.46 213.367 1004.16 214.1C1004.89 214.8 1005.26 215.7 1005.26 216.8C1005.26 217.9 1004.89 218.817 1004.16 219.55C1003.46 220.25 1002.56 220.6 1001.46 220.6Z" fill="black"/>
<path d="M1007.62 236.55C1007.62 233.983 1008.17 231.717 1009.27 229.75C1010.41 227.75 1011.97 226.2 1013.97 225.1C1016.01 223.967 1018.31 223.4 1020.87 223.4C1024.61 223.4 1027.69 224.617 1030.12 227.05L1026.87 231.3C1024.94 229.533 1022.89 228.65 1020.72 228.65C1018.49 228.65 1016.67 229.383 1015.27 230.85C1013.87 232.283 1013.17 234.167 1013.17 236.5C1013.17 238.8 1013.87 240.683 1015.27 242.15C1016.67 243.617 1018.47 244.35 1020.67 244.35C1023.04 244.35 1025.19 243.433 1027.12 241.6L1030.22 245.9C1029.02 247.1 1027.61 248.017 1025.97 248.65C1024.34 249.283 1022.57 249.6 1020.67 249.6C1018.11 249.6 1015.84 249.05 1013.87 247.95C1011.91 246.85 1010.37 245.317 1009.27 243.35C1008.17 241.383 1007.62 239.117 1007.62 236.55Z" fill="black"/>
<path d="M1043.73 224H1049.88L1056.93 241.35L1063.98 224H1070.13L1059.03 249H1054.83L1043.73 224Z" fill="black"/>
<path d="M1078.28 249H1072.88V224H1078.28V249ZM1075.53 220.6C1074.43 220.6 1073.52 220.25 1072.78 219.55C1072.08 218.817 1071.73 217.9 1071.73 216.8C1071.73 215.7 1072.08 214.8 1072.78 214.1C1073.52 213.367 1074.43 213 1075.53 213C1076.63 213 1077.53 213.367 1078.23 214.1C1078.97 214.8 1079.33 215.7 1079.33 216.8C1079.33 217.9 1078.97 218.817 1078.23 219.55C1077.53 220.25 1076.63 220.6 1075.53 220.6Z" fill="black"/>
<path d="M1083.29 231.05C1083.29 228.683 1084.17 226.817 1085.94 225.45C1087.74 224.083 1090.17 223.4 1093.24 223.4C1097.64 223.4 1100.94 224.933 1103.14 228L1099.49 231.45C1098.82 230.45 1097.9 229.683 1096.74 229.15C1095.57 228.617 1094.27 228.35 1092.84 228.35C1091.57 228.35 1090.57 228.567 1089.84 229C1089.14 229.433 1088.79 230.05 1088.79 230.85C1088.79 231.417 1088.97 231.867 1089.34 232.2C1089.74 232.5 1090.3 232.767 1091.04 233C1091.77 233.233 1092.99 233.55 1094.69 233.95C1096.59 234.417 1098.14 234.933 1099.34 235.5C1100.54 236.033 1101.47 236.8 1102.14 237.8C1102.84 238.767 1103.19 240.05 1103.19 241.65C1103.19 244.217 1102.3 246.183 1100.54 247.55C1098.77 248.917 1096.27 249.6 1093.04 249.6C1090.5 249.6 1088.25 249.167 1086.29 248.3C1084.35 247.4 1082.9 246.15 1081.94 244.55L1085.64 241C1086.4 242.167 1087.44 243.083 1088.74 243.75C1090.04 244.383 1091.6 244.7 1093.44 244.7C1094.8 244.7 1095.85 244.467 1096.59 244C1097.32 243.533 1097.69 242.85 1097.69 241.95C1097.69 241.35 1097.5 240.883 1097.14 240.55C1096.8 240.183 1096.27 239.883 1095.54 239.65C1094.84 239.417 1093.7 239.133 1092.14 238.8C1089.4 238.2 1087.24 237.35 1085.64 236.25C1084.07 235.15 1083.29 233.417 1083.29 231.05Z" fill="black"/>
<path d="M1128.67 249H1123.47V245.3C1122.51 246.733 1121.39 247.817 1120.12 248.55C1118.86 249.25 1117.32 249.6 1115.52 249.6C1112.42 249.6 1110.14 248.683 1108.67 246.85C1107.21 244.983 1106.47 242.417 1106.47 239.15V224H1112.02V238.4C1112.02 240.4 1112.39 241.917 1113.12 242.95C1113.89 243.95 1115.17 244.45 1116.97 244.45C1119.21 244.45 1120.81 243.667 1121.77 242.1C1122.77 240.533 1123.27 238.433 1123.27 235.8V224H1128.67V249Z" fill="black"/>
<path d="M1133.63 229.4C1134.3 227.433 1135.53 225.95 1137.33 224.95C1139.13 223.917 1141.43 223.4 1144.23 223.4C1151.2 223.4 1154.68 226.65 1154.68 233.15V249H1149.28V245.55C1148.42 246.85 1147.3 247.85 1145.93 248.55C1144.57 249.25 1143.03 249.6 1141.33 249.6C1138.83 249.6 1136.8 248.867 1135.23 247.4C1133.67 245.933 1132.88 244.05 1132.88 241.75C1132.88 239.583 1133.6 237.817 1135.03 236.45C1136.47 235.05 1138.42 234.233 1140.88 234L1147.83 233.3C1148.37 233.267 1148.73 233.167 1148.93 233C1149.17 232.8 1149.28 232.517 1149.28 232.15V231.6C1149.28 230.533 1148.85 229.717 1147.98 229.15C1147.12 228.55 1145.9 228.25 1144.33 228.25C1142.6 228.25 1141.18 228.6 1140.08 229.3C1138.98 229.967 1138.28 230.917 1137.98 232.15L1133.63 229.4ZM1142.08 238.35C1140.95 238.483 1140.07 238.833 1139.43 239.4C1138.8 239.967 1138.48 240.7 1138.48 241.6C1138.48 242.6 1138.85 243.4 1139.58 244C1140.32 244.567 1141.32 244.85 1142.58 244.85C1144.48 244.85 1146.07 244.283 1147.33 243.15C1148.63 241.983 1149.28 240.567 1149.28 238.9V237.45L1142.08 238.35Z" fill="black"/>
<path d="M1165 249H1159.5V214H1165V249Z" fill="black"/>
<path d="M1183.07 231.05C1183.07 228.683 1183.95 226.817 1185.72 225.45C1187.52 224.083 1189.95 223.4 1193.02 223.4C1197.42 223.4 1200.72 224.933 1202.92 228L1199.27 231.45C1198.6 230.45 1197.69 229.683 1196.52 229.15C1195.35 228.617 1194.05 228.35 1192.62 228.35C1191.35 228.35 1190.35 228.567 1189.62 229C1188.92 229.433 1188.57 230.05 1188.57 230.85C1188.57 231.417 1188.75 231.867 1189.12 232.2C1189.52 232.5 1190.09 232.767 1190.82 233C1191.55 233.233 1192.77 233.55 1194.47 233.95C1196.37 234.417 1197.92 234.933 1199.12 235.5C1200.32 236.033 1201.25 236.8 1201.92 237.8C1202.62 238.767 1202.97 240.05 1202.97 241.65C1202.97 244.217 1202.09 246.183 1200.32 247.55C1198.55 248.917 1196.05 249.6 1192.82 249.6C1190.29 249.6 1188.04 249.167 1186.07 248.3C1184.14 247.4 1182.69 246.15 1181.72 244.55L1185.42 241C1186.19 242.167 1187.22 243.083 1188.52 243.75C1189.82 244.383 1191.39 244.7 1193.22 244.7C1194.59 244.7 1195.64 244.467 1196.37 244C1197.1 243.533 1197.47 242.85 1197.47 241.95C1197.47 241.35 1197.29 240.883 1196.92 240.55C1196.59 240.183 1196.05 239.883 1195.32 239.65C1194.62 239.417 1193.49 239.133 1191.92 238.8C1189.19 238.2 1187.02 237.35 1185.42 236.25C1183.85 235.15 1183.07 233.417 1183.07 231.05Z" fill="black"/>
<path d="M1220.46 248.55C1218.86 249.017 1217.24 249.25 1215.61 249.25C1213.24 249.25 1211.46 248.667 1210.26 247.5C1209.09 246.3 1208.51 244.367 1208.51 241.7V228.6H1203.76V224H1208.51V217.3H1213.91V224H1220.51V228.6H1213.91V241.35C1213.91 242.25 1214.11 242.917 1214.51 243.35C1214.94 243.783 1215.64 244 1216.61 244C1217.47 244 1218.76 243.867 1220.46 243.6V248.55Z" fill="black"/>
<path d="M1231.9 245.55L1221.15 224H1227.55L1234.75 239.25L1241.75 224H1247.5L1231.5 259H1225.75L1231.9 245.55Z" fill="black"/>
<path d="M1254.87 249H1249.37V214H1254.87V249Z" fill="black"/>
<path d="M1258.54 236.6C1258.54 234.133 1259.06 231.9 1260.09 229.9C1261.12 227.9 1262.59 226.317 1264.49 225.15C1266.39 223.983 1268.59 223.4 1271.09 223.4C1273.62 223.4 1275.81 223.967 1277.64 225.1C1279.47 226.2 1280.86 227.75 1281.79 229.75C1282.76 231.75 1283.24 234.033 1283.24 236.6V238.15H1264.04V238.2C1264.27 240.233 1265.11 241.8 1266.54 242.9C1267.97 244 1269.64 244.55 1271.54 244.55C1274.44 244.55 1276.94 243.467 1279.04 241.3L1281.59 245.65C1280.42 246.817 1279.01 247.767 1277.34 248.5C1275.67 249.233 1273.76 249.6 1271.59 249.6C1268.96 249.6 1266.66 249.067 1264.69 248C1262.72 246.9 1261.21 245.367 1260.14 243.4C1259.07 241.433 1258.54 239.167 1258.54 236.6ZM1277.34 234.05C1277.17 232.25 1276.54 230.833 1275.44 229.8C1274.37 228.733 1272.89 228.2 1270.99 228.2C1269.06 228.2 1267.51 228.717 1266.34 229.75C1265.17 230.75 1264.42 232.183 1264.09 234.05H1277.34Z" fill="black"/>
<path d="M1314.43 248.55C1312.83 249.017 1311.22 249.25 1309.58 249.25C1307.22 249.25 1305.43 248.667 1304.23 247.5C1303.07 246.3 1302.48 244.367 1302.48 241.7V228.6H1297.73V224H1302.48V217.3H1307.88V224H1314.48V228.6H1307.88V241.35C1307.88 242.25 1308.08 242.917 1308.48 243.35C1308.92 243.783 1309.62 244 1310.58 244C1311.45 244 1312.73 243.867 1314.43 243.6V248.55Z" fill="black"/>
<path d="M1323.53 227.8C1325.36 224.867 1328.05 223.4 1331.58 223.4C1334.51 223.4 1336.76 224.317 1338.33 226.15C1339.9 227.95 1340.68 230.533 1340.68 233.9V249H1335.18V234.6C1335.18 232.667 1334.73 231.167 1333.83 230.1C1332.93 229.033 1331.65 228.5 1329.98 228.5C1325.68 228.5 1323.53 231.4 1323.53 237.2V249H1318.13V214H1323.53V227.8Z" fill="black"/>
<path d="M1345.63 229.4C1346.3 227.433 1347.53 225.95 1349.33 224.95C1351.13 223.917 1353.43 223.4 1356.23 223.4C1363.2 223.4 1366.68 226.65 1366.68 233.15V249H1361.28V245.55C1360.41 246.85 1359.3 247.85 1357.93 248.55C1356.56 249.25 1355.03 249.6 1353.33 249.6C1350.83 249.6 1348.8 248.867 1347.23 247.4C1345.66 245.933 1344.88 244.05 1344.88 241.75C1344.88 239.583 1345.6 237.817 1347.03 236.45C1348.46 235.05 1350.41 234.233 1352.88 234L1359.83 233.3C1360.36 233.267 1360.73 233.167 1360.93 233C1361.16 232.8 1361.28 232.517 1361.28 232.15V231.6C1361.28 230.533 1360.85 229.717 1359.98 229.15C1359.11 228.55 1357.9 228.25 1356.33 228.25C1354.6 228.25 1353.18 228.6 1352.08 229.3C1350.98 229.967 1350.28 230.917 1349.98 232.15L1345.63 229.4ZM1354.08 238.35C1352.95 238.483 1352.06 238.833 1351.43 239.4C1350.8 239.967 1350.48 240.7 1350.48 241.6C1350.48 242.6 1350.85 243.4 1351.58 244C1352.31 244.567 1353.31 244.85 1354.58 244.85C1356.48 244.85 1358.06 244.283 1359.33 243.15C1360.63 241.983 1361.28 240.567 1361.28 238.9V237.45L1354.08 238.35Z" fill="black"/>
<path d="M1385.36 248.55C1383.76 249.017 1382.14 249.25 1380.51 249.25C1378.14 249.25 1376.36 248.667 1375.16 247.5C1373.99 246.3 1373.41 244.367 1373.41 241.7V228.6H1368.66V224H1373.41V217.3H1378.81V224H1385.41V228.6H1378.81V241.35C1378.81 242.25 1379.01 242.917 1379.41 243.35C1379.84 243.783 1380.54 244 1381.51 244C1382.37 244 1383.66 243.867 1385.36 243.6V248.55Z" fill="black"/>
<path d="M560.515 309H555.115V288.6H549.615V284H555.115V282.65C555.115 279.517 555.882 277.2 557.415 275.7C558.948 274.167 561.032 273.4 563.665 273.4C564.632 273.4 566.082 273.533 568.015 273.8V278.8C566.515 278.533 565.348 278.4 564.515 278.4C563.082 278.4 562.048 278.767 561.415 279.5C560.815 280.2 560.515 281.367 560.515 283V284H567.715V288.6H560.515V309Z" fill="black"/>
<path d="M567.382 296.5C567.382 294 567.948 291.75 569.082 289.75C570.248 287.75 571.832 286.2 573.832 285.1C575.865 283.967 578.132 283.4 580.632 283.4C583.132 283.4 585.382 283.967 587.382 285.1C589.415 286.2 590.998 287.75 592.132 289.75C593.298 291.75 593.882 294 593.882 296.5C593.882 299 593.298 301.25 592.132 303.25C590.998 305.25 589.415 306.817 587.382 307.95C585.382 309.05 583.132 309.6 580.632 309.6C578.132 309.6 575.865 309.05 573.832 307.95C571.832 306.817 570.248 305.25 569.082 303.25C567.948 301.25 567.382 299 567.382 296.5ZM588.332 296.5C588.332 294.167 587.615 292.283 586.182 290.85C584.748 289.383 582.898 288.65 580.632 288.65C578.365 288.65 576.515 289.383 575.082 290.85C573.648 292.283 572.932 294.167 572.932 296.5C572.932 298.833 573.648 300.733 575.082 302.2C576.515 303.633 578.365 304.35 580.632 304.35C582.898 304.35 584.748 303.633 586.182 302.2C587.615 300.733 588.332 298.833 588.332 296.5Z" fill="black"/>
<path d="M595.776 296.55C595.776 293.983 596.326 291.717 597.426 289.75C598.559 287.75 600.126 286.2 602.126 285.1C604.159 283.967 606.459 283.4 609.026 283.4C612.759 283.4 615.843 284.617 618.276 287.05L615.026 291.3C613.093 289.533 611.043 288.65 608.876 288.65C606.643 288.65 604.826 289.383 603.426 290.85C602.026 292.283 601.326 294.167 601.326 296.5C601.326 298.8 602.026 300.683 603.426 302.15C604.826 303.617 606.626 304.35 608.826 304.35C611.193 304.35 613.343 303.433 615.276 301.6L618.376 305.9C617.176 307.1 615.759 308.017 614.126 308.65C612.493 309.283 610.726 309.6 608.826 309.6C606.259 309.6 603.993 309.05 602.026 307.95C600.059 306.85 598.526 305.317 597.426 303.35C596.326 301.383 595.776 299.117 595.776 296.55Z" fill="black"/>
<path d="M643.726 309H638.526V305.3C637.559 306.733 636.443 307.817 635.176 308.55C633.909 309.25 632.376 309.6 630.576 309.6C627.476 309.6 625.193 308.683 623.726 306.85C622.259 304.983 621.526 302.417 621.526 299.15V284H627.076V298.4C627.076 300.4 627.443 301.917 628.176 302.95C628.943 303.95 630.226 304.45 632.026 304.45C634.259 304.45 635.859 303.667 636.826 302.1C637.826 300.533 638.326 298.433 638.326 295.8V284H643.726V309Z" fill="black"/>
<path d="M648.537 291.05C648.537 288.683 649.42 286.817 651.187 285.45C652.987 284.083 655.42 283.4 658.487 283.4C662.887 283.4 666.187 284.933 668.387 288L664.737 291.45C664.07 290.45 663.154 289.683 661.987 289.15C660.82 288.617 659.52 288.35 658.087 288.35C656.82 288.35 655.82 288.567 655.087 289C654.387 289.433 654.037 290.05 654.037 290.85C654.037 291.417 654.22 291.867 654.587 292.2C654.987 292.5 655.554 292.767 656.287 293C657.02 293.233 658.237 293.55 659.937 293.95C661.837 294.417 663.387 294.933 664.587 295.5C665.787 296.033 666.72 296.8 667.387 297.8C668.087 298.767 668.437 300.05 668.437 301.65C668.437 304.217 667.554 306.183 665.787 307.55C664.02 308.917 661.52 309.6 658.287 309.6C655.754 309.6 653.504 309.167 651.537 308.3C649.604 307.4 648.154 306.15 647.187 304.55L650.887 301C651.654 302.167 652.687 303.083 653.987 303.75C655.287 304.383 656.854 304.7 658.687 304.7C660.054 304.7 661.104 304.467 661.837 304C662.57 303.533 662.937 302.85 662.937 301.95C662.937 301.35 662.754 300.883 662.387 300.55C662.054 300.183 661.52 299.883 660.787 299.65C660.087 299.417 658.954 299.133 657.387 298.8C654.654 298.2 652.487 297.35 650.887 296.25C649.32 295.15 648.537 293.417 648.537 291.05Z" fill="black"/>
<path d="M669.973 296.6C669.973 294.133 670.49 291.9 671.523 289.9C672.557 287.9 674.023 286.317 675.923 285.15C677.823 283.983 680.023 283.4 682.523 283.4C685.057 283.4 687.24 283.967 689.073 285.1C690.907 286.2 692.29 287.75 693.223 289.75C694.19 291.75 694.673 294.033 694.673 296.6V298.15H675.473V298.2C675.707 300.233 676.54 301.8 677.973 302.9C679.407 304 681.073 304.55 682.973 304.55C685.873 304.55 688.373 303.467 690.473 301.3L693.023 305.65C691.857 306.817 690.44 307.767 688.773 308.5C687.107 309.233 685.19 309.6 683.023 309.6C680.39 309.6 678.09 309.067 676.123 308C674.157 306.9 672.64 305.367 671.573 303.4C670.507 301.433 669.973 299.167 669.973 296.6ZM688.773 294.05C688.607 292.25 687.973 290.833 686.873 289.8C685.807 288.733 684.323 288.2 682.423 288.2C680.49 288.2 678.94 288.717 677.773 289.75C676.607 290.75 675.857 292.183 675.523 294.05H688.773Z" fill="black"/>
<path d="M697.611 291.05C697.611 288.683 698.495 286.817 700.261 285.45C702.061 284.083 704.495 283.4 707.561 283.4C711.961 283.4 715.261 284.933 717.461 288L713.811 291.45C713.145 290.45 712.228 289.683 711.061 289.15C709.895 288.617 708.595 288.35 707.161 288.35C705.895 288.35 704.895 288.567 704.161 289C703.461 289.433 703.111 290.05 703.111 290.85C703.111 291.417 703.295 291.867 703.661 292.2C704.061 292.5 704.628 292.767 705.361 293C706.095 293.233 707.311 293.55 709.011 293.95C710.911 294.417 712.461 294.933 713.661 295.5C714.861 296.033 715.795 296.8 716.461 297.8C717.161 298.767 717.511 300.05 717.511 301.65C717.511 304.217 716.628 306.183 714.861 307.55C713.095 308.917 710.595 309.6 707.361 309.6C704.828 309.6 702.578 309.167 700.611 308.3C698.678 307.4 697.228 306.15 696.261 304.55L699.961 301C700.728 302.167 701.761 303.083 703.061 303.75C704.361 304.383 705.928 304.7 707.761 304.7C709.128 304.7 710.178 304.467 710.911 304C711.645 303.533 712.011 302.85 712.011 301.95C712.011 301.35 711.828 300.883 711.461 300.55C711.128 300.183 710.595 299.883 709.861 299.65C709.161 299.417 708.028 299.133 706.461 298.8C703.728 298.2 701.561 297.35 699.961 296.25C698.395 295.15 697.611 293.417 697.611 291.05Z" fill="black"/>
<path d="M732.403 296.5C732.403 294 732.97 291.75 734.103 289.75C735.27 287.75 736.853 286.2 738.853 285.1C740.886 283.967 743.153 283.4 745.653 283.4C748.153 283.4 750.403 283.967 752.403 285.1C754.436 286.2 756.02 287.75 757.153 289.75C758.32 291.75 758.903 294 758.903 296.5C758.903 299 758.32 301.25 757.153 303.25C756.02 305.25 754.436 306.817 752.403 307.95C750.403 309.05 748.153 309.6 745.653 309.6C743.153 309.6 740.886 309.05 738.853 307.95C736.853 306.817 735.27 305.25 734.103 303.25C732.97 301.25 732.403 299 732.403 296.5ZM753.353 296.5C753.353 294.167 752.636 292.283 751.203 290.85C749.77 289.383 747.92 288.65 745.653 288.65C743.386 288.65 741.536 289.383 740.103 290.85C738.67 292.283 737.953 294.167 737.953 296.5C737.953 298.833 738.67 300.733 740.103 302.2C741.536 303.633 743.386 304.35 745.653 304.35C747.92 304.35 749.77 303.633 751.203 302.2C752.636 300.733 753.353 298.833 753.353 296.5Z" fill="black"/>
<path d="M762.548 284H767.798V287.8C768.731 286.333 769.898 285.233 771.298 284.5C772.731 283.767 774.314 283.4 776.048 283.4C778.914 283.4 781.131 284.3 782.698 286.1C784.298 287.867 785.098 290.383 785.098 293.65V309H779.598V294.6C779.598 292.633 779.131 291.133 778.198 290.1C777.264 289.033 775.914 288.5 774.148 288.5C772.114 288.5 770.564 289.25 769.498 290.75C768.464 292.217 767.948 294.367 767.948 297.2V309H762.548V284Z" fill="black"/>
<path d="M809.456 309H803.956V274H809.456V309Z" fill="black"/>
<path d="M813.12 296.6C813.12 294.133 813.636 291.9 814.67 289.9C815.703 287.9 817.17 286.317 819.07 285.15C820.97 283.983 823.17 283.4 825.67 283.4C828.203 283.4 830.387 283.967 832.22 285.1C834.053 286.2 835.437 287.75 836.37 289.75C837.337 291.75 837.82 294.033 837.82 296.6V298.15H818.62V298.2C818.853 300.233 819.687 301.8 821.12 302.9C822.553 304 824.22 304.55 826.12 304.55C829.02 304.55 831.52 303.467 833.62 301.3L836.17 305.65C835.003 306.817 833.586 307.767 831.92 308.5C830.253 309.233 828.336 309.6 826.17 309.6C823.536 309.6 821.237 309.067 819.27 308C817.303 306.9 815.787 305.367 814.72 303.4C813.653 301.433 813.12 299.167 813.12 296.6ZM831.92 294.05C831.753 292.25 831.12 290.833 830.02 289.8C828.953 288.733 827.47 288.2 825.57 288.2C823.636 288.2 822.086 288.717 820.92 289.75C819.753 290.75 819.003 292.183 818.67 294.05H831.92Z" fill="black"/>
<path d="M839.708 296.45C839.708 293.917 840.208 291.667 841.208 289.7C842.208 287.7 843.608 286.15 845.408 285.05C847.208 283.95 849.274 283.4 851.608 283.4C853.408 283.4 855.041 283.767 856.508 284.5C858.008 285.2 859.158 286.183 859.958 287.45V284H865.408V307.5C865.408 311.467 864.308 314.483 862.108 316.55C859.941 318.617 856.774 319.65 852.608 319.65C850.041 319.65 847.841 319.233 846.008 318.4C844.174 317.6 842.641 316.333 841.408 314.6L844.708 310.6C846.608 313.333 849.258 314.7 852.658 314.7C857.624 314.7 860.108 312.25 860.108 307.35V305.5C859.274 306.733 858.108 307.7 856.608 308.4C855.141 309.067 853.508 309.4 851.708 309.4C849.308 309.4 847.191 308.867 845.358 307.8C843.558 306.733 842.158 305.233 841.158 303.3C840.191 301.333 839.708 299.05 839.708 296.45ZM860.208 296.5C860.208 294.067 859.541 292.133 858.208 290.7C856.874 289.267 855.091 288.55 852.858 288.55C850.591 288.55 848.758 289.283 847.358 290.75C845.958 292.217 845.258 294.133 845.258 296.5C845.258 298.867 845.958 300.783 847.358 302.25C848.758 303.717 850.591 304.45 852.858 304.45C855.091 304.45 856.874 303.733 858.208 302.3C859.541 300.867 860.208 298.933 860.208 296.5Z" fill="black"/>
<path d="M876.628 309H871.228V284H876.628V309ZM873.878 280.6C872.778 280.6 871.861 280.25 871.128 279.55C870.428 278.817 870.078 277.9 870.078 276.8C870.078 275.7 870.428 274.8 871.128 274.1C871.861 273.367 872.778 273 873.878 273C874.978 273 875.878 273.367 876.578 274.1C877.311 274.8 877.678 275.7 877.678 276.8C877.678 277.9 877.311 278.817 876.578 279.55C875.878 280.25 874.978 280.6 873.878 280.6Z" fill="black"/>
<path d="M887.729 287.6C889.929 284.8 892.812 283.4 896.379 283.4C898.645 283.4 900.662 283.95 902.429 285.05C904.196 286.15 905.562 287.7 906.529 289.7C907.529 291.667 908.029 293.933 908.029 296.5C908.029 299.067 907.529 301.35 906.529 303.35C905.562 305.317 904.179 306.85 902.379 307.95C900.612 309.05 898.595 309.6 896.329 309.6C894.529 309.6 892.896 309.25 891.429 308.55C889.962 307.85 888.729 306.817 887.729 305.45V309H882.329V274H887.729V287.6ZM902.479 296.5C902.479 294.133 901.779 292.217 900.379 290.75C899.012 289.283 897.212 288.55 894.979 288.55C892.712 288.55 890.895 289.283 889.529 290.75C888.162 292.183 887.479 294.1 887.479 296.5C887.479 298.9 888.162 300.833 889.529 302.3C890.895 303.733 892.712 304.45 894.979 304.45C897.212 304.45 899.012 303.717 900.379 302.25C901.779 300.783 902.479 298.867 902.479 296.5Z" fill="black"/>
<path d="M917.45 309H912.05V284H917.45V309ZM914.7 280.6C913.6 280.6 912.683 280.25 911.95 279.55C911.25 278.817 910.9 277.9 910.9 276.8C910.9 275.7 911.25 274.8 911.95 274.1C912.683 273.367 913.6 273 914.7 273C915.8 273 916.7 273.367 917.4 274.1C918.133 274.8 918.5 275.7 918.5 276.8C918.5 277.9 918.133 278.817 917.4 279.55C916.7 280.25 915.8 280.6 914.7 280.6Z" fill="black"/>
<path d="M928.651 309H923.151V274H928.651V309Z" fill="black"/>
<path d="M939.815 309H934.415V284H939.815V309ZM937.065 280.6C935.965 280.6 935.048 280.25 934.315 279.55C933.615 278.817 933.265 277.9 933.265 276.8C933.265 275.7 933.615 274.8 934.315 274.1C935.048 273.367 935.965 273 937.065 273C938.165 273 939.065 273.367 939.765 274.1C940.498 274.8 940.865 275.7 940.865 276.8C940.865 277.9 940.498 278.817 939.765 279.55C939.065 280.25 938.165 280.6 937.065 280.6Z" fill="black"/>
<path d="M959.716 308.55C958.116 309.017 956.5 309.25 954.866 309.25C952.5 309.25 950.716 308.667 949.516 307.5C948.35 306.3 947.766 304.367 947.766 301.7V288.6H943.016V284H947.766V277.3H953.166V284H959.766V288.6H953.166V301.35C953.166 302.25 953.366 302.917 953.766 303.35C954.2 303.783 954.9 304 955.866 304C956.733 304 958.016 303.867 959.716 303.6V308.55Z" fill="black"/>
<path d="M971.163 305.55L960.413 284H966.813L974.013 299.25L981.013 284H986.763L970.763 319H965.013L971.163 305.55Z" fill="black"/>
<path d="M1001.78 289.4C1002.45 287.433 1003.68 285.95 1005.48 284.95C1007.28 283.917 1009.58 283.4 1012.38 283.4C1019.35 283.4 1022.83 286.65 1022.83 293.15V309H1017.43V305.55C1016.56 306.85 1015.45 307.85 1014.08 308.55C1012.71 309.25 1011.18 309.6 1009.48 309.6C1006.98 309.6 1004.95 308.867 1003.38 307.4C1001.81 305.933 1001.03 304.05 1001.03 301.75C1001.03 299.583 1001.75 297.817 1003.18 296.45C1004.61 295.05 1006.56 294.233 1009.03 294L1015.98 293.3C1016.51 293.267 1016.88 293.167 1017.08 293C1017.31 292.8 1017.43 292.517 1017.43 292.15V291.6C1017.43 290.533 1017 289.717 1016.13 289.15C1015.26 288.55 1014.05 288.25 1012.48 288.25C1010.75 288.25 1009.33 288.6 1008.23 289.3C1007.13 289.967 1006.43 290.917 1006.13 292.15L1001.78 289.4ZM1010.23 298.35C1009.1 298.483 1008.21 298.833 1007.58 299.4C1006.95 299.967 1006.63 300.7 1006.63 301.6C1006.63 302.6 1007 303.4 1007.73 304C1008.46 304.567 1009.46 304.85 1010.73 304.85C1012.63 304.85 1014.21 304.283 1015.48 303.15C1016.78 301.983 1017.43 300.567 1017.43 298.9V297.45L1010.23 298.35Z" fill="black"/>
<path d="M1027.65 284H1032.9V287.8C1033.83 286.333 1035 285.233 1036.4 284.5C1037.83 283.767 1039.42 283.4 1041.15 283.4C1044.02 283.4 1046.23 284.3 1047.8 286.1C1049.4 287.867 1050.2 290.383 1050.2 293.65V309H1044.7V294.6C1044.7 292.633 1044.23 291.133 1043.3 290.1C1042.37 289.033 1041.02 288.5 1039.25 288.5C1037.22 288.5 1035.67 289.25 1034.6 290.75C1033.57 292.217 1033.05 294.367 1033.05 297.2V309H1027.65V284Z" fill="black"/>
<path d="M1079.65 309H1074.2V305.45C1073.24 306.783 1072.02 307.817 1070.55 308.55C1069.09 309.25 1067.45 309.6 1065.65 309.6C1063.39 309.6 1061.35 309.05 1059.55 307.95C1057.79 306.85 1056.4 305.317 1055.4 303.35C1054.44 301.35 1053.95 299.067 1053.95 296.5C1053.95 293.933 1054.44 291.667 1055.4 289.7C1056.4 287.7 1057.79 286.15 1059.55 285.05C1061.32 283.95 1063.34 283.4 1065.6 283.4C1069.14 283.4 1072 284.8 1074.2 287.6V274H1079.65V309ZM1067 288.55C1064.77 288.55 1062.95 289.283 1061.55 290.75C1060.19 292.217 1059.5 294.133 1059.5 296.5C1059.5 298.867 1060.19 300.783 1061.55 302.25C1062.95 303.717 1064.77 304.45 1067 304.45C1069.24 304.45 1071.04 303.733 1072.4 302.3C1073.77 300.833 1074.45 298.9 1074.45 296.5C1074.45 294.1 1073.77 292.183 1072.4 290.75C1071.04 289.283 1069.24 288.55 1067 288.55Z" fill="black"/>
<path d="M1106.88 309H1101.48V288.6H1095.98V284H1101.48V282.65C1101.48 279.517 1102.25 277.2 1103.78 275.7C1105.31 274.167 1107.4 273.4 1110.03 273.4C1111 273.4 1112.45 273.533 1114.38 273.8V278.8C1112.88 278.533 1111.71 278.4 1110.88 278.4C1109.45 278.4 1108.41 278.767 1107.78 279.5C1107.18 280.2 1106.88 281.367 1106.88 283V284H1114.08V288.6H1106.88V309Z" fill="black"/>
<path d="M1139.01 309H1133.81V305.3C1132.85 306.733 1131.73 307.817 1130.46 308.55C1129.2 309.25 1127.66 309.6 1125.86 309.6C1122.76 309.6 1120.48 308.683 1119.01 306.85C1117.55 304.983 1116.81 302.417 1116.81 299.15V284H1122.36V298.4C1122.36 300.4 1122.73 301.917 1123.46 302.95C1124.23 303.95 1125.51 304.45 1127.31 304.45C1129.55 304.45 1131.15 303.667 1132.11 302.1C1133.11 300.533 1133.61 298.433 1133.61 295.8V284H1139.01V309Z" fill="black"/>
<path d="M1144.52 284H1149.77V287.8C1150.71 286.333 1151.87 285.233 1153.27 284.5C1154.71 283.767 1156.29 283.4 1158.02 283.4C1160.89 283.4 1163.11 284.3 1164.67 286.1C1166.27 287.867 1167.07 290.383 1167.07 293.65V309H1161.57V294.6C1161.57 292.633 1161.11 291.133 1160.17 290.1C1159.24 289.033 1157.89 288.5 1156.12 288.5C1154.09 288.5 1152.54 289.25 1151.47 290.75C1150.44 292.217 1149.92 294.367 1149.92 297.2V309H1144.52V284Z" fill="black"/>
<path d="M1170.83 296.55C1170.83 293.983 1171.38 291.717 1172.48 289.75C1173.61 287.75 1175.18 286.2 1177.18 285.1C1179.21 283.967 1181.51 283.4 1184.08 283.4C1187.81 283.4 1190.89 284.617 1193.33 287.05L1190.08 291.3C1188.14 289.533 1186.09 288.65 1183.93 288.65C1181.69 288.65 1179.88 289.383 1178.48 290.85C1177.08 292.283 1176.38 294.167 1176.38 296.5C1176.38 298.8 1177.08 300.683 1178.48 302.15C1179.88 303.617 1181.68 304.35 1183.88 304.35C1186.24 304.35 1188.39 303.433 1190.33 301.6L1193.43 305.9C1192.23 307.1 1190.81 308.017 1189.18 308.65C1187.54 309.283 1185.78 309.6 1183.88 309.6C1181.31 309.6 1179.04 309.05 1177.08 307.95C1175.11 306.85 1173.58 305.317 1172.48 303.35C1171.38 301.383 1170.83 299.117 1170.83 296.55Z" fill="black"/>
<path d="M1210.78 308.55C1209.18 309.017 1207.56 309.25 1205.93 309.25C1203.56 309.25 1201.78 308.667 1200.58 307.5C1199.41 306.3 1198.83 304.367 1198.83 301.7V288.6H1194.08V284H1198.83V277.3H1204.23V284H1210.83V288.6H1204.23V301.35C1204.23 302.25 1204.43 302.917 1204.83 303.35C1205.26 303.783 1205.96 304 1206.93 304C1207.79 304 1209.08 303.867 1210.78 303.6V308.55Z" fill="black"/>
<path d="M1220.57 309H1215.17V284H1220.57V309ZM1217.82 280.6C1216.72 280.6 1215.8 280.25 1215.07 279.55C1214.37 278.817 1214.02 277.9 1214.02 276.8C1214.02 275.7 1214.37 274.8 1215.07 274.1C1215.8 273.367 1216.72 273 1217.82 273C1218.92 273 1219.82 273.367 1220.52 274.1C1221.25 274.8 1221.62 275.7 1221.62 276.8C1221.62 277.9 1221.25 278.817 1220.52 279.55C1219.82 280.25 1218.92 280.6 1217.82 280.6Z" fill="black"/>
<path d="M1223.98 296.5C1223.98 294 1224.55 291.75 1225.68 289.75C1226.85 287.75 1228.43 286.2 1230.43 285.1C1232.46 283.967 1234.73 283.4 1237.23 283.4C1239.73 283.4 1241.98 283.967 1243.98 285.1C1246.01 286.2 1247.6 287.75 1248.73 289.75C1249.9 291.75 1250.48 294 1250.48 296.5C1250.48 299 1249.9 301.25 1248.73 303.25C1247.6 305.25 1246.01 306.817 1243.98 307.95C1241.98 309.05 1239.73 309.6 1237.23 309.6C1234.73 309.6 1232.46 309.05 1230.43 307.95C1228.43 306.817 1226.85 305.25 1225.68 303.25C1224.55 301.25 1223.98 299 1223.98 296.5ZM1244.93 296.5C1244.93 294.167 1244.21 292.283 1242.78 290.85C1241.35 289.383 1239.5 288.65 1237.23 288.65C1234.96 288.65 1233.11 289.383 1231.68 290.85C1230.25 292.283 1229.53 294.167 1229.53 296.5C1229.53 298.833 1230.25 300.733 1231.68 302.2C1233.11 303.633 1234.96 304.35 1237.23 304.35C1239.5 304.35 1241.35 303.633 1242.78 302.2C1244.21 300.733 1244.93 298.833 1244.93 296.5Z" fill="black"/>
<path d="M1254.12 284H1259.37V287.8C1260.31 286.333 1261.47 285.233 1262.87 284.5C1264.31 283.767 1265.89 283.4 1267.62 283.4C1270.49 283.4 1272.71 284.3 1274.27 286.1C1275.87 287.867 1276.67 290.383 1276.67 293.65V309H1271.17V294.6C1271.17 292.633 1270.71 291.133 1269.77 290.1C1268.84 289.033 1267.49 288.5 1265.72 288.5C1263.69 288.5 1262.14 289.25 1261.07 290.75C1260.04 292.217 1259.52 294.367 1259.52 297.2V309H1254.12V284Z" fill="black"/>
<path d="M1281.63 289.4C1282.29 287.433 1283.53 285.95 1285.33 284.95C1287.13 283.917 1289.43 283.4 1292.23 283.4C1299.19 283.4 1302.68 286.65 1302.68 293.15V309H1297.28V305.55C1296.41 306.85 1295.29 307.85 1293.93 308.55C1292.56 309.25 1291.03 309.6 1289.33 309.6C1286.83 309.6 1284.79 308.867 1283.23 307.4C1281.66 305.933 1280.88 304.05 1280.88 301.75C1280.88 299.583 1281.59 297.817 1283.03 296.45C1284.46 295.05 1286.41 294.233 1288.88 294L1295.83 293.3C1296.36 293.267 1296.73 293.167 1296.93 293C1297.16 292.8 1297.28 292.517 1297.28 292.15V291.6C1297.28 290.533 1296.84 289.717 1295.98 289.15C1295.11 288.55 1293.89 288.25 1292.33 288.25C1290.59 288.25 1289.18 288.6 1288.08 289.3C1286.98 289.967 1286.28 290.917 1285.98 292.15L1281.63 289.4ZM1290.08 298.35C1288.94 298.483 1288.06 298.833 1287.43 299.4C1286.79 299.967 1286.48 300.7 1286.48 301.6C1286.48 302.6 1286.84 303.4 1287.58 304C1288.31 304.567 1289.31 304.85 1290.58 304.85C1292.48 304.85 1294.06 304.283 1295.33 303.15C1296.63 301.983 1297.28 300.567 1297.28 298.9V297.45L1290.08 298.35Z" fill="black"/>
<path d="M1312.99 309H1307.49V274H1312.99V309Z" fill="black"/>
<path d="M1324.16 309H1318.76V284H1324.16V309ZM1321.41 280.6C1320.31 280.6 1319.39 280.25 1318.66 279.55C1317.96 278.817 1317.61 277.9 1317.61 276.8C1317.61 275.7 1317.96 274.8 1318.66 274.1C1319.39 273.367 1320.31 273 1321.41 273C1322.51 273 1323.41 273.367 1324.11 274.1C1324.84 274.8 1325.21 275.7 1325.21 276.8C1325.21 277.9 1324.84 278.817 1324.11 279.55C1323.41 280.25 1322.51 280.6 1321.41 280.6Z" fill="black"/>
<path d="M1344.06 308.55C1342.46 309.017 1340.84 309.25 1339.21 309.25C1336.84 309.25 1335.06 308.667 1333.86 307.5C1332.69 306.3 1332.11 304.367 1332.11 301.7V288.6H1327.36V284H1332.11V277.3H1337.51V284H1344.11V288.6H1337.51V301.35C1337.51 302.25 1337.71 302.917 1338.11 303.35C1338.54 303.783 1339.24 304 1340.21 304C1341.08 304 1342.36 303.867 1344.06 303.6V308.55Z" fill="black"/>
<path d="M1355.51 305.55L1344.76 284H1351.16L1358.36 299.25L1365.36 284H1371.11L1355.11 319H1349.36L1355.51 305.55Z" fill="black"/>
<g opacity="0.3">
<path d="M857.822 353.6H860.87C861.654 353.6 862.358 353.784 862.982 354.152C863.606 354.512 864.094 355.012 864.446 355.652C864.806 356.284 864.986 357 864.986 357.8C864.986 358.6 864.806 359.32 864.446 359.96C864.094 360.592 863.606 361.092 862.982 361.46C862.358 361.82 861.654 362 860.87 362H857.822V353.6ZM860.87 360.32C861.342 360.32 861.762 360.212 862.13 359.996C862.498 359.78 862.786 359.48 862.994 359.096C863.202 358.712 863.306 358.28 863.306 357.8C863.306 357.32 863.202 356.888 862.994 356.504C862.786 356.12 862.498 355.82 862.13 355.604C861.762 355.388 861.342 355.28 860.87 355.28H859.502V360.32H860.87Z" fill="black"/>
<path d="M868.282 353.6H873.706V355.28H869.962V356.96H873.706V358.64H869.962V360.32H873.706V362H868.282V353.6Z" fill="black"/>
<path d="M879.631 362C878.887 362 878.267 361.816 877.771 361.448C877.283 361.072 876.963 360.548 876.811 359.876L878.323 359.252C878.483 359.964 878.919 360.32 879.631 360.32C879.951 360.32 880.199 360.26 880.375 360.14C880.559 360.012 880.651 359.828 880.651 359.588C880.651 359.412 880.603 359.272 880.507 359.168C880.411 359.056 880.263 358.956 880.063 358.868C879.863 358.78 879.551 358.664 879.127 358.52C878.415 358.272 877.863 357.96 877.471 357.584C877.087 357.2 876.895 356.684 876.895 356.036C876.895 355.292 877.139 354.7 877.627 354.26C878.123 353.82 878.779 353.6 879.595 353.6C880.339 353.6 880.955 353.788 881.443 354.164C881.939 354.532 882.263 355.052 882.415 355.724L880.903 356.348C880.823 355.988 880.675 355.72 880.459 355.544C880.251 355.368 879.963 355.28 879.595 355.28C879.275 355.28 879.023 355.344 878.839 355.472C878.663 355.592 878.575 355.772 878.575 356.012C878.575 356.188 878.623 356.332 878.719 356.444C878.815 356.548 878.963 356.644 879.163 356.732C879.363 356.82 879.675 356.936 880.099 357.08C880.811 357.328 881.359 357.644 881.743 358.028C882.135 358.404 882.331 358.916 882.331 359.564C882.331 360.308 882.083 360.9 881.587 361.34C881.099 361.78 880.447 362 879.631 362Z" fill="black"/>
<path d="M885.747 353.6H887.427V362H885.747V353.6Z" fill="black"/>
<path d="M890.724 357.812C890.724 357.012 890.9 356.292 891.252 355.652C891.612 355.012 892.116 354.512 892.764 354.152C893.412 353.784 894.156 353.6 894.996 353.6C895.588 353.6 896.148 353.7 896.676 353.9C897.212 354.092 897.68 354.388 898.08 354.788L897.264 356.348C896.648 355.636 895.864 355.28 894.912 355.28C894.424 355.28 893.988 355.388 893.604 355.604C893.228 355.812 892.932 356.108 892.716 356.492C892.508 356.876 892.404 357.312 892.404 357.8C892.404 358.296 892.508 358.736 892.716 359.12C892.932 359.504 893.232 359.804 893.616 360.02C894.008 360.228 894.456 360.332 894.96 360.332C895.448 360.332 895.892 360.208 896.292 359.96C896.692 359.704 896.94 359.344 897.036 358.88H894.684V357.2H898.968V357.752C898.968 358.64 898.792 359.404 898.44 360.044C898.088 360.684 897.608 361.172 897 361.508C896.4 361.836 895.732 362 894.996 362C894.164 362 893.424 361.82 892.776 361.46C892.128 361.1 891.624 360.604 891.264 359.972C890.904 359.332 890.724 358.612 890.724 357.812Z" fill="black"/>
<path d="M902.157 353.6H903.621L908.157 359.12V353.6H909.837V362H908.373L903.837 356.48V362H902.157V353.6Z" fill="black"/>
<path d="M924.979 360.668H920.563L919.951 362H918.103L921.991 353.6H923.551L927.439 362H925.591L924.979 360.668ZM924.199 358.988L922.771 355.904L921.343 358.988H924.199Z" fill="black"/>
<path d="M929.524 357.788C929.524 357.004 929.708 356.292 930.076 355.652C930.444 355.012 930.948 354.512 931.588 354.152C932.228 353.784 932.944 353.6 933.736 353.6C934.32 353.6 934.868 353.7 935.38 353.9C935.9 354.092 936.36 354.372 936.76 354.74L935.956 356.276C935.636 355.948 935.292 355.7 934.924 355.532C934.564 355.364 934.164 355.28 933.724 355.28C933.244 355.28 932.812 355.388 932.428 355.604C932.044 355.812 931.744 356.108 931.528 356.492C931.312 356.876 931.204 357.312 931.204 357.8C931.204 358.288 931.312 358.724 931.528 359.108C931.744 359.492 932.04 359.792 932.416 360.008C932.8 360.216 933.228 360.32 933.7 360.32C934.62 360.32 935.408 359.964 936.064 359.252L936.892 360.812C936.028 361.604 934.972 362 933.724 362C932.94 362 932.228 361.816 931.588 361.448C930.948 361.08 930.444 360.576 930.076 359.936C929.708 359.296 929.524 358.58 929.524 357.788Z" fill="black"/>
<path d="M944.424 362L942.624 359.192H941.58V362H939.9V353.6H943.476C943.996 353.6 944.468 353.724 944.892 353.972C945.324 354.212 945.66 354.548 945.9 354.98C946.148 355.404 946.272 355.876 946.272 356.396C946.272 357.004 946.108 357.544 945.78 358.016C945.452 358.488 945.016 358.82 944.472 359.012L946.476 362H944.424ZM941.58 357.512H943.476C943.804 357.512 944.072 357.408 944.28 357.2C944.488 356.984 944.592 356.716 944.592 356.396C944.592 356.068 944.488 355.8 944.28 355.592C944.072 355.384 943.804 355.28 943.476 355.28H941.58V357.512Z" fill="black"/>
<path d="M953.155 362C952.363 362 951.647 361.82 951.007 361.46C950.367 361.092 949.863 360.588 949.495 359.948C949.135 359.308 948.955 358.592 948.955 357.8C948.955 357.008 949.135 356.292 949.495 355.652C949.863 355.012 950.367 354.512 951.007 354.152C951.647 353.784 952.363 353.6 953.155 353.6C953.947 353.6 954.663 353.784 955.303 354.152C955.943 354.512 956.443 355.012 956.803 355.652C957.171 356.292 957.355 357.008 957.355 357.8C957.355 358.592 957.171 359.308 956.803 359.948C956.443 360.588 955.943 361.092 955.303 361.46C954.663 361.82 953.947 362 953.155 362ZM953.155 360.32C953.635 360.32 954.067 360.212 954.451 359.996C954.835 359.78 955.135 359.48 955.351 359.096C955.567 358.712 955.675 358.28 955.675 357.8C955.675 357.312 955.567 356.88 955.351 356.504C955.135 356.12 954.835 355.82 954.451 355.604C954.067 355.388 953.635 355.28 953.155 355.28C952.667 355.28 952.231 355.388 951.847 355.604C951.471 355.82 951.175 356.12 950.959 356.504C950.743 356.88 950.635 357.312 950.635 357.8C950.635 358.28 950.743 358.712 950.959 359.096C951.175 359.48 951.471 359.78 951.847 359.996C952.231 360.212 952.667 360.32 953.155 360.32Z" fill="black"/>
<path d="M962.951 362C962.207 362 961.587 361.816 961.091 361.448C960.603 361.072 960.283 360.548 960.131 359.876L961.643 359.252C961.803 359.964 962.239 360.32 962.951 360.32C963.271 360.32 963.519 360.26 963.695 360.14C963.879 360.012 963.971 359.828 963.971 359.588C963.971 359.412 963.923 359.272 963.827 359.168C963.731 359.056 963.583 358.956 963.383 358.868C963.183 358.78 962.871 358.664 962.447 358.52C961.735 358.272 961.183 357.96 960.791 357.584C960.407 357.2 960.215 356.684 960.215 356.036C960.215 355.292 960.459 354.7 960.947 354.26C961.443 353.82 962.099 353.6 962.915 353.6C963.659 353.6 964.275 353.788 964.763 354.164C965.259 354.532 965.583 355.052 965.735 355.724L964.223 356.348C964.143 355.988 963.995 355.72 963.779 355.544C963.571 355.368 963.283 355.28 962.915 355.28C962.595 355.28 962.343 355.344 962.159 355.472C961.983 355.592 961.895 355.772 961.895 356.012C961.895 356.188 961.943 356.332 962.039 356.444C962.135 356.548 962.283 356.644 962.483 356.732C962.683 356.82 962.995 356.936 963.419 357.08C964.131 357.328 964.679 357.644 965.063 358.028C965.455 358.404 965.651 358.916 965.651 359.564C965.651 360.308 965.403 360.9 964.907 361.34C964.419 361.78 963.767 362 962.951 362Z" fill="black"/>
<path d="M971.444 362C970.7 362 970.08 361.816 969.584 361.448C969.096 361.072 968.776 360.548 968.624 359.876L970.136 359.252C970.296 359.964 970.732 360.32 971.444 360.32C971.764 360.32 972.012 360.26 972.188 360.14C972.372 360.012 972.464 359.828 972.464 359.588C972.464 359.412 972.416 359.272 972.32 359.168C972.224 359.056 972.076 358.956 971.876 358.868C971.676 358.78 971.364 358.664 970.94 358.52C970.228 358.272 969.676 357.96 969.284 357.584C968.9 357.2 968.708 356.684 968.708 356.036C968.708 355.292 968.952 354.7 969.44 354.26C969.936 353.82 970.592 353.6 971.408 353.6C972.152 353.6 972.768 353.788 973.256 354.164C973.752 354.532 974.076 355.052 974.228 355.724L972.716 356.348C972.636 355.988 972.488 355.72 972.272 355.544C972.064 355.368 971.776 355.28 971.408 355.28C971.088 355.28 970.836 355.344 970.652 355.472C970.476 355.592 970.388 355.772 970.388 356.012C970.388 356.188 970.436 356.332 970.532 356.444C970.628 356.548 970.776 356.644 970.976 356.732C971.176 356.82 971.488 356.936 971.912 357.08C972.624 357.328 973.172 357.644 973.556 358.028C973.948 358.404 974.144 358.916 974.144 359.564C974.144 360.308 973.896 360.9 973.4 361.34C972.912 361.78 972.26 362 971.444 362Z" fill="black"/>
<path d="M982.97 353.6H986.258C986.818 353.6 987.322 353.728 987.77 353.984C988.226 354.24 988.578 354.592 988.826 355.04C989.082 355.48 989.21 355.98 989.21 356.54C989.21 357.1 989.082 357.604 988.826 358.052C988.578 358.492 988.23 358.84 987.782 359.096C987.334 359.344 986.826 359.468 986.258 359.468H984.65V362H982.97V353.6ZM986.258 357.788C986.65 357.788 986.958 357.672 987.182 357.44C987.414 357.208 987.53 356.908 987.53 356.54C987.53 356.164 987.414 355.86 987.182 355.628C986.958 355.396 986.65 355.28 986.258 355.28H984.65V357.788H986.258Z" fill="black"/>
<path d="M992.388 353.6H994.068V360.32H997.884V362H992.388V353.6Z" fill="black"/>
<path d="M1007 360.668H1002.58L1001.97 362H1000.12L1004.01 353.6H1005.57L1009.46 362H1007.61L1007 360.668ZM1006.22 358.988L1004.79 355.904L1003.36 358.988H1006.22Z" fill="black"/>
<path d="M1013.68 355.28H1010.64V353.6H1018.39V355.28H1015.36V362H1013.68V355.28Z" fill="black"/>
<path d="M1021.34 353.6H1026.77V355.28H1023.02V356.96H1026.77V358.64H1023.02V362H1021.34V353.6Z" fill="black"/>
<path d="M1033.67 362C1032.88 362 1032.17 361.82 1031.53 361.46C1030.89 361.092 1030.38 360.588 1030.01 359.948C1029.65 359.308 1029.47 358.592 1029.47 357.8C1029.47 357.008 1029.65 356.292 1030.01 355.652C1030.38 355.012 1030.89 354.512 1031.53 354.152C1032.17 353.784 1032.88 353.6 1033.67 353.6C1034.47 353.6 1035.18 353.784 1035.82 354.152C1036.46 354.512 1036.96 355.012 1037.32 355.652C1037.69 356.292 1037.87 357.008 1037.87 357.8C1037.87 358.592 1037.69 359.308 1037.32 359.948C1036.96 360.588 1036.46 361.092 1035.82 361.46C1035.18 361.82 1034.47 362 1033.67 362ZM1033.67 360.32C1034.15 360.32 1034.59 360.212 1034.97 359.996C1035.35 359.78 1035.65 359.48 1035.87 359.096C1036.09 358.712 1036.19 358.28 1036.19 357.8C1036.19 357.312 1036.09 356.88 1035.87 356.504C1035.65 356.12 1035.35 355.82 1034.97 355.604C1034.59 355.388 1034.15 355.28 1033.67 355.28C1033.19 355.28 1032.75 355.388 1032.37 355.604C1031.99 355.82 1031.69 356.12 1031.48 356.504C1031.26 356.88 1031.15 357.312 1031.15 357.8C1031.15 358.28 1031.26 358.712 1031.48 359.096C1031.69 359.48 1031.99 359.78 1032.37 359.996C1032.75 360.212 1033.19 360.32 1033.67 360.32Z" fill="black"/>
<path d="M1045.69 362L1043.89 359.192H1042.85V362H1041.17V353.6H1044.74C1045.26 353.6 1045.73 353.724 1046.16 353.972C1046.59 354.212 1046.93 354.548 1047.17 354.98C1047.41 355.404 1047.54 355.876 1047.54 356.396C1047.54 357.004 1047.37 357.544 1047.05 358.016C1046.72 358.488 1046.28 358.82 1045.74 359.012L1047.74 362H1045.69ZM1042.85 357.512H1044.74C1045.07 357.512 1045.34 357.408 1045.55 357.2C1045.75 356.984 1045.86 356.716 1045.86 356.396C1045.86 356.068 1045.75 355.8 1045.55 355.592C1045.34 355.384 1045.07 355.28 1044.74 355.28H1042.85V357.512Z" fill="black"/>
<path d="M1050.86 353.6H1052.48L1056.02 359.804L1059.55 353.6H1061.17V362H1059.49V357.116L1056.71 362H1055.33L1052.54 357.116V362H1050.86V353.6Z" fill="black"/>
<path d="M1067.32 362C1066.58 362 1065.96 361.816 1065.46 361.448C1064.97 361.072 1064.65 360.548 1064.5 359.876L1066.01 359.252C1066.17 359.964 1066.61 360.32 1067.32 360.32C1067.64 360.32 1067.89 360.26 1068.07 360.14C1068.25 360.012 1068.34 359.828 1068.34 359.588C1068.34 359.412 1068.29 359.272 1068.2 359.168C1068.1 359.056 1067.95 358.956 1067.75 358.868C1067.55 358.78 1067.24 358.664 1066.82 358.52C1066.11 358.272 1065.55 357.96 1065.16 357.584C1064.78 357.2 1064.59 356.684 1064.59 356.036C1064.59 355.292 1064.83 354.7 1065.32 354.26C1065.81 353.82 1066.47 353.6 1067.29 353.6C1068.03 353.6 1068.65 353.788 1069.13 354.164C1069.63 354.532 1069.95 355.052 1070.11 355.724L1068.59 356.348C1068.51 355.988 1068.37 355.72 1068.15 355.544C1067.94 355.368 1067.65 355.28 1067.29 355.28C1066.97 355.28 1066.71 355.344 1066.53 355.472C1066.35 355.592 1066.27 355.772 1066.27 356.012C1066.27 356.188 1066.31 356.332 1066.41 356.444C1066.51 356.548 1066.65 356.644 1066.85 356.732C1067.05 356.82 1067.37 356.936 1067.79 357.08C1068.5 357.328 1069.05 357.644 1069.43 358.028C1069.83 358.404 1070.02 358.916 1070.02 359.564C1070.02 360.308 1069.77 360.9 1069.28 361.34C1068.79 361.78 1068.14 362 1067.32 362Z" fill="black"/>
</g>
</svg>
