<svg width="1920" height="960" viewBox="0 0 1920 960" fill="none" xmlns="http://www.w3.org/2000/svg">
<rect width="1920" height="960" fill="white"/>
<g opacity="0.3">
<path d="M242.292 103.6H240.924V112H246.288V110.632H242.292V103.6Z" fill="#1F1F1F"/>
<path d="M248.964 107.8C248.964 108.4 249.072 108.952 249.288 109.468C249.492 109.984 249.792 110.428 250.164 110.8C250.536 111.172 250.98 111.472 251.496 111.676C252.012 111.892 252.564 112 253.164 112C253.764 112 254.328 111.892 254.844 111.676C255.36 111.472 255.804 111.172 256.176 110.8C256.548 110.428 256.836 109.984 257.052 109.468C257.256 108.952 257.364 108.4 257.364 107.8C257.364 107.2 257.256 106.648 257.052 106.132C256.836 105.616 256.548 105.172 256.176 104.8C255.804 104.428 255.36 104.128 254.844 103.912C254.328 103.708 253.764 103.6 253.164 103.6C252.564 103.6 252.012 103.708 251.496 103.912C250.98 104.128 250.536 104.428 250.164 104.8C249.792 105.172 249.492 105.616 249.288 106.132C249.072 106.648 248.964 107.2 248.964 107.8ZM255.996 107.8C255.996 108.208 255.924 108.58 255.792 108.928C255.648 109.276 255.456 109.576 255.204 109.828C254.952 110.08 254.652 110.284 254.304 110.416C253.956 110.56 253.572 110.632 253.164 110.632C252.756 110.632 252.384 110.56 252.036 110.416C251.688 110.284 251.388 110.08 251.136 109.828C250.884 109.576 250.68 109.276 250.548 108.928C250.404 108.58 250.332 108.208 250.332 107.8C250.332 107.392 250.404 107.008 250.548 106.66C250.68 106.312 250.884 106.012 251.136 105.76C251.388 105.508 251.688 105.316 252.036 105.172C252.384 105.04 252.756 104.968 253.164 104.968C253.572 104.968 253.956 105.04 254.304 105.172C254.652 105.316 254.952 105.508 255.204 105.76C255.456 106.012 255.648 106.312 255.792 106.66C255.924 107.008 255.996 107.392 255.996 107.8Z" fill="#1F1F1F"/>
<path d="M260.723 109.492C260.927 110.008 261.227 110.44 261.611 110.824C261.983 111.196 262.439 111.484 262.967 111.7C263.495 111.904 264.071 112.012 264.695 112.012C265.283 112.012 265.823 111.916 266.315 111.712C266.807 111.508 267.227 111.208 267.575 110.836C267.935 110.452 268.199 109.984 268.403 109.444C268.595 108.904 268.691 108.304 268.691 107.632V107.332H264.323V108.712H267.119C267.071 109.012 266.975 109.288 266.831 109.528C266.675 109.768 266.495 109.972 266.267 110.14C266.051 110.308 265.799 110.44 265.523 110.524C265.235 110.608 264.947 110.656 264.635 110.656C264.203 110.656 263.819 110.584 263.471 110.452C263.123 110.32 262.823 110.116 262.571 109.864C262.331 109.612 262.127 109.312 261.995 108.964C261.851 108.616 261.779 108.232 261.779 107.812C261.779 107.392 261.851 107.008 261.995 106.66C262.127 106.312 262.331 106.012 262.571 105.76C262.823 105.508 263.123 105.304 263.471 105.172C263.819 105.04 264.203 104.968 264.611 104.968C265.115 104.968 265.559 105.064 265.955 105.256C266.363 105.448 266.711 105.712 267.023 106.048L267.671 104.764C267.263 104.392 266.807 104.104 266.303 103.9C265.811 103.696 265.259 103.6 264.671 103.6C264.047 103.6 263.471 103.708 262.943 103.912C262.427 104.128 261.983 104.428 261.599 104.8C261.227 105.172 260.927 105.628 260.723 106.144C260.519 106.66 260.411 107.212 260.411 107.824C260.411 108.424 260.519 108.976 260.723 109.492Z" fill="#1F1F1F"/>
<path d="M271.472 107.8C271.472 108.4 271.58 108.952 271.796 109.468C272 109.984 272.3 110.428 272.672 110.8C273.044 111.172 273.488 111.472 274.004 111.676C274.52 111.892 275.072 112 275.672 112C276.272 112 276.836 111.892 277.352 111.676C277.868 111.472 278.312 111.172 278.684 110.8C279.056 110.428 279.344 109.984 279.56 109.468C279.764 108.952 279.872 108.4 279.872 107.8C279.872 107.2 279.764 106.648 279.56 106.132C279.344 105.616 279.056 105.172 278.684 104.8C278.312 104.428 277.868 104.128 277.352 103.912C276.836 103.708 276.272 103.6 275.672 103.6C275.072 103.6 274.52 103.708 274.004 103.912C273.488 104.128 273.044 104.428 272.672 104.8C272.3 105.172 272 105.616 271.796 106.132C271.58 106.648 271.472 107.2 271.472 107.8ZM278.504 107.8C278.504 108.208 278.432 108.58 278.3 108.928C278.156 109.276 277.964 109.576 277.712 109.828C277.46 110.08 277.16 110.284 276.812 110.416C276.464 110.56 276.08 110.632 275.672 110.632C275.264 110.632 274.892 110.56 274.544 110.416C274.196 110.284 273.896 110.08 273.644 109.828C273.392 109.576 273.188 109.276 273.056 108.928C272.912 108.58 272.84 108.208 272.84 107.8C272.84 107.392 272.912 107.008 273.056 106.66C273.188 106.312 273.392 106.012 273.644 105.76C273.896 105.508 274.196 105.316 274.544 105.172C274.892 105.04 275.264 104.968 275.672 104.968C276.08 104.968 276.464 105.04 276.812 105.172C277.16 105.316 277.46 105.508 277.712 105.76C277.964 106.012 278.156 106.312 278.3 106.66C278.432 107.008 278.504 107.392 278.504 107.8Z" fill="#1F1F1F"/>
<path d="M287.011 104.968H290.179V103.6H282.463V104.968H285.643V112H287.011V104.968Z" fill="#1F1F1F"/>
<path d="M295.665 112H297.033V108.604L300.441 103.6H298.785L296.349 107.164L293.925 103.6H292.269L295.665 108.604V112Z" fill="#1F1F1F"/>
<path d="M306.518 103.6H303.386V112H304.754V109.36H306.518C306.938 109.36 307.322 109.288 307.682 109.144C308.03 109 308.342 108.796 308.594 108.544C308.846 108.292 309.05 107.98 309.194 107.632C309.338 107.284 309.41 106.9 309.41 106.48C309.41 106.06 309.338 105.676 309.194 105.328C309.05 104.98 308.846 104.668 308.594 104.416C308.342 104.164 308.03 103.96 307.682 103.816C307.322 103.672 306.938 103.6 306.518 103.6ZM308.042 106.48C308.042 106.924 307.898 107.284 307.622 107.56C307.334 107.848 306.962 107.992 306.518 107.992H304.754V104.968H306.518C306.962 104.968 307.334 105.112 307.622 105.388C307.898 105.676 308.042 106.036 308.042 106.48Z" fill="#1F1F1F"/>
<path d="M317.957 103.6H312.665V112H317.957V110.632H314.033V108.484H317.957V107.116H314.033V104.968H317.957V103.6Z" fill="#1F1F1F"/>
</g>
<g clip-path="url(#clip0_317:106953)">
<path fill-rule="evenodd" clip-rule="evenodd" d="M929.114 460.639H923.837C922.999 462.948 921.467 464.943 919.449 466.354C917.432 467.764 915.027 468.52 912.563 468.52C905.184 468.52 899.775 462.758 899.775 454.601C899.775 446.444 905.131 440.735 912.563 440.735C915.13 440.719 917.631 441.546 919.68 443.088C921.728 444.629 923.21 446.8 923.897 449.265H929.979L929.792 448.474C927.964 440.832 920.743 435.294 912.563 435.294C901.656 435.294 893.79 443.422 893.782 454.586C893.737 465.781 901.656 473.93 912.563 473.93C920.675 473.93 927.919 468.669 929.74 461.363L929.919 460.616H929.118L929.114 460.639ZM979.149 435.294C967.725 435.294 959.583 443.347 959.583 454.594C959.518 457.163 959.971 459.72 960.915 462.112C961.86 464.504 963.276 466.683 965.081 468.52C968.564 471.96 973.464 473.938 979.149 473.938C984.835 473.938 989.734 471.96 993.218 468.52C995.022 466.683 996.439 464.504 997.383 462.112C998.328 459.72 998.781 457.163 998.716 454.594C998.716 443.347 990.573 435.294 979.149 435.294ZM979.149 468.512C971.231 468.512 965.575 462.714 965.575 454.594C965.575 446.474 971.231 440.728 979.149 440.728C987.067 440.728 992.671 446.474 992.671 454.594C992.671 462.714 987.06 468.512 979.149 468.512ZM730.143 435.377V455.445L730.195 455.482C736.548 455.498 742.636 458.019 747.128 462.495C751.62 466.97 754.151 473.035 754.167 479.364H774.288C774.276 467.703 769.622 456.523 761.346 448.276C753.07 440.03 741.848 435.391 730.143 435.377ZM698.958 510.473C707.246 518.722 718.482 523.356 730.197 523.356V503.206C727.047 503.215 723.926 502.605 721.012 501.411C718.098 500.217 715.449 498.463 713.217 496.248C710.984 494.034 709.211 491.403 708 488.505C706.789 485.608 706.163 482.501 706.158 479.362H686C686.01 491.033 690.671 502.223 698.958 510.473ZM796.971 435.399C792.521 452.124 785.63 479.244 774.857 523.358H795.368C802.327 494.999 811.481 458.393 817.302 436.243C823.145 458.236 832.284 494.909 839.236 523.358H859.866C849.057 479.103 842.18 452.049 837.753 435.399H796.971ZM1053.31 436.525C1059.47 436.525 1064.67 438.271 1068.34 441.436C1070.21 443.07 1071.7 445.098 1072.7 447.372C1073.7 449.646 1074.18 452.112 1074.11 454.593C1074.18 457.076 1073.69 459.543 1072.7 461.821C1071.7 464.098 1070.22 466.13 1068.35 467.773C1064.67 470.944 1059.47 472.713 1053.31 472.713H1041.39V436.525H1053.31ZM1053.31 467.28C1057.84 467.28 1061.56 466.041 1064.12 463.862C1065.45 462.716 1066.5 461.289 1067.2 459.685C1067.9 458.081 1068.23 456.341 1068.17 454.593C1068.23 452.851 1067.89 451.117 1067.19 449.521C1066.49 447.925 1065.43 446.506 1064.11 445.369C1061.55 443.197 1057.8 441.951 1053.31 441.951H1047.39V467.28H1053.31ZM941.549 467.28V437.271V436.525H940.8H936.306H935.557V437.271V471.967V472.713H936.306H958.337H959.086V471.967V468.026V467.28H958.337H941.549ZM1028.2 436.526H1028.95H1028.96H1034.2V458.631C1034.2 467.482 1027.95 473.938 1019.22 473.938C1010.49 473.938 1004.15 467.49 1004.15 458.631V436.526H1010.18V458.631C1010.18 464.475 1013.97 468.512 1019.21 468.512C1024.46 468.512 1028.2 464.482 1028.2 458.631V436.526ZM1029.05 487.277H1029.79H1057.36H1058.11V488.024V491.957V492.703H1057.36H1046.55V522.719V523.465H1045.8H1041.31H1040.56V522.719V492.703H1029.79H1029.05V491.957V488.024V487.277ZM1233.18 508.193C1232.33 506.853 1231.15 505.755 1229.76 505.006C1227.04 503.469 1223.54 502.857 1220.4 502.342C1217.8 501.939 1215.48 501.551 1213.8 500.73C1213.05 500.401 1212.41 499.887 1211.92 499.237C1211.45 498.54 1211.22 497.715 1211.25 496.879C1211.23 496.124 1211.39 495.375 1211.73 494.698C1212.06 494.021 1212.56 493.437 1213.18 492.998C1214.48 492.058 1216.47 491.505 1219.17 491.505C1222.05 491.505 1224.22 492.199 1225.65 493.394C1226.4 494.035 1226.99 494.839 1227.38 495.745C1227.77 496.651 1227.95 497.634 1227.9 498.618V499.364H1233.75V498.618C1233.75 494.767 1232.34 491.61 1229.79 489.431C1227.23 487.251 1223.58 486.042 1219.19 486.042C1214.79 486.042 1211.39 487.087 1208.97 489.028C1207.77 489.998 1206.8 491.234 1206.15 492.639C1205.5 494.044 1205.18 495.579 1205.23 497.125C1205.18 498.881 1205.63 500.616 1206.52 502.133C1207.34 503.446 1208.49 504.531 1209.84 505.29C1212.49 506.842 1215.92 507.528 1219.05 507.999C1221.7 508.424 1224.1 508.812 1225.84 509.655C1226.62 509.992 1227.29 510.522 1227.79 511.193C1228.28 511.919 1228.53 512.781 1228.5 513.656C1228.52 514.444 1228.34 515.226 1227.98 515.93C1227.63 516.634 1227.1 517.237 1226.44 517.686C1225.07 518.663 1223 519.26 1220.26 519.26C1217.11 519.26 1214.71 518.514 1213.12 517.163C1212.3 516.457 1211.65 515.575 1211.22 514.584C1210.79 513.593 1210.59 512.518 1210.63 511.439V510.693H1204.69V511.439C1204.62 513.268 1204.97 515.088 1205.7 516.766C1206.43 518.445 1207.53 519.939 1208.91 521.141C1211.63 523.447 1215.51 524.671 1220.21 524.671C1224.59 524.671 1228.16 523.626 1230.65 521.686C1231.89 520.695 1232.89 519.429 1233.56 517.987C1234.23 516.545 1234.55 514.967 1234.5 513.379C1234.56 511.561 1234.1 509.763 1233.18 508.193ZM1114.27 507.46V518.028H1133.38H1134.13V518.774V522.715V523.461H1133.38H1108.98H1108.24V522.715V488.019V487.273H1108.98H1132.89H1133.64V488.019V491.952V492.699H1132.89H1114.27V502.035H1130.91H1131.66V502.781V506.714V507.46H1130.91H1114.27ZM1015.85 509.544C1022.13 508.872 1026.69 504.626 1026.69 498.551C1026.72 496.991 1026.4 495.443 1025.75 494.023C1025.1 492.602 1024.14 491.344 1022.94 490.341C1020.58 488.371 1017.26 487.304 1013.35 487.304H997.48V523.492H1003.47V509.88H1008.81L1020.64 523.208L1020.86 523.462H1028.58L1027.43 522.208L1015.85 509.544ZM1003.47 492.7H1013.36C1015.3 492.597 1017.22 493.167 1018.78 494.312C1019.38 494.852 1019.85 495.51 1020.18 496.243C1020.5 496.976 1020.67 497.768 1020.67 498.569C1020.67 499.37 1020.5 500.163 1020.18 500.896C1019.85 501.629 1019.38 502.286 1018.78 502.827C1017.22 503.984 1015.3 504.557 1013.36 504.446H1003.47V492.7ZM915.19 487.273L915.377 487.758L928.337 522.454L928.711 523.461H922.868L922.688 522.976L919.909 515.685H903.204L900.425 522.976L900.245 523.461H894.327L894.709 522.446L907.849 487.758L908.028 487.273H915.19ZM905.092 510.498H918.036L911.579 493.505L905.092 510.498ZM1093.22 487.273H1092.72L1092.53 487.736L1081.45 515.02L1070.41 487.736L1070.22 487.273H1061.85V523.461H1067.9V496.49L1078.6 522.998L1078.79 523.469H1084.1L1084.29 522.998L1095.01 496.423V523.461H1101.01V487.273H1093.22ZM979.583 487.273L979.77 487.758L992.76 522.454L993.134 523.461H987.246L987.059 522.976L984.28 515.685H967.582L964.803 522.976L964.616 523.461H958.72L959.102 522.446L972.242 487.758L972.421 487.273H979.583ZM969.485 510.498H982.43L975.98 493.505L969.485 510.498ZM1174.79 487.277H1174.04V488.024V491.957V492.703H1174.79H1185.56V522.719V523.465H1186.31H1190.8H1191.55V522.719V492.703H1202.36H1203.11V491.957V488.024V487.277H1202.36H1174.79ZM1164.28 487.273H1165.03H1169.52H1170.27V488.019V522.715V523.461H1169.52H1163.09H1162.66L1162.45 523.08L1146.85 495.87V522.715V523.461H1146.1H1141.61H1140.86V522.715V488.019V487.273H1141.61H1148.08H1148.52L1148.73 487.646L1164.28 514.767V488.019V487.273ZM960.961 498.654C961.029 497.074 960.736 495.499 960.104 494.049C959.472 492.598 958.518 491.31 957.313 490.28C954.968 488.31 951.642 487.295 947.71 487.295H933.087V523.483H938.975V510.05H947.71C951.552 510.05 954.856 508.997 957.223 507.02C958.433 505.997 959.397 504.717 960.045 503.275C960.693 501.832 961.009 500.263 960.969 498.683L960.961 498.654ZM953.148 502.907C951.584 504.071 949.659 504.65 947.71 504.542H938.975V492.698H947.71C949.66 492.586 951.588 493.167 953.148 494.34C953.763 494.873 954.25 495.536 954.573 496.281C954.895 497.027 955.046 497.835 955.013 498.646C955.046 499.451 954.896 500.252 954.573 500.99C954.249 501.729 953.762 502.384 953.148 502.907Z" fill="#1E1E1E"/>
</g>
<defs>
<clipPath id="clip0_317:106953">
<rect width="548.514" height="90" fill="white" transform="translate(686 435)"/>
</clipPath>
</defs>
</svg>
