<svg width="1920" height="950" viewBox="0 0 1920 950" fill="none" xmlns="http://www.w3.org/2000/svg">
<rect width="1920" height="950" fill="white"/>
<rect width="960" height="950" fill="#0B5656"/>
<line x1="1080" y1="354.5" x2="1680" y2="354.5" stroke="#B8BAC5"/>
<line x1="1080" y1="594.5" x2="1680" y2="594.5" stroke="#B8BAC5"/>
<path d="M1082.18 246V223.6H1091.17C1093.49 223.6 1095.26 224.144 1096.48 225.232C1097.72 226.299 1098.34 227.675 1098.34 229.36C1098.34 230.768 1097.95 231.899 1097.18 232.752C1096.44 233.584 1095.52 234.149 1094.43 234.448C1095.71 234.704 1096.77 235.344 1097.6 236.368C1098.43 237.371 1098.85 238.544 1098.85 239.888C1098.85 241.659 1098.21 243.12 1096.93 244.272C1095.65 245.424 1093.83 246 1091.49 246H1082.18ZM1086.27 233.008H1090.56C1091.71 233.008 1092.6 232.741 1093.22 232.208C1093.83 231.675 1094.14 230.917 1094.14 229.936C1094.14 228.997 1093.83 228.261 1093.22 227.728C1092.62 227.173 1091.71 226.896 1090.5 226.896H1086.27V233.008ZM1086.27 242.672H1090.85C1092.06 242.672 1093 242.395 1093.66 241.84C1094.35 241.264 1094.69 240.464 1094.69 239.44C1094.69 238.395 1094.34 237.573 1093.63 236.976C1092.93 236.379 1091.98 236.08 1090.78 236.08H1086.27V242.672Z" fill="#1D1D1F"/>
<path d="M1108.92 246.384C1107.39 246.384 1106 246.032 1104.76 245.328C1103.55 244.624 1102.58 243.653 1101.85 242.416C1101.15 241.157 1100.8 239.707 1100.8 238.064C1100.8 236.421 1101.16 234.981 1101.88 233.744C1102.61 232.485 1103.58 231.504 1104.8 230.8C1106.03 230.096 1107.42 229.744 1108.96 229.744C1110.47 229.744 1111.84 230.096 1113.05 230.8C1114.29 231.504 1115.26 232.485 1115.96 233.744C1116.69 234.981 1117.05 236.421 1117.05 238.064C1117.05 239.707 1116.69 241.157 1115.96 242.416C1115.26 243.653 1114.29 244.624 1113.05 245.328C1111.81 246.032 1110.44 246.384 1108.92 246.384ZM1108.92 242.832C1109.99 242.832 1110.92 242.437 1111.71 241.648C1112.5 240.837 1112.89 239.643 1112.89 238.064C1112.89 236.485 1112.5 235.301 1111.71 234.512C1110.92 233.701 1110 233.296 1108.96 233.296C1107.87 233.296 1106.93 233.701 1106.14 234.512C1105.37 235.301 1104.99 236.485 1104.99 238.064C1104.99 239.643 1105.37 240.837 1106.14 241.648C1106.93 242.437 1107.86 242.832 1108.92 242.832Z" fill="#1D1D1F"/>
<path d="M1119.75 246V222.96H1123.85V246H1119.75Z" fill="#1D1D1F"/>
<path d="M1134.37 246.384C1132.88 246.384 1131.54 246.021 1130.37 245.296C1129.2 244.571 1128.27 243.579 1127.59 242.32C1126.9 241.061 1126.56 239.632 1126.56 238.032C1126.56 236.432 1126.9 235.013 1127.59 233.776C1128.27 232.517 1129.2 231.536 1130.37 230.832C1131.54 230.107 1132.88 229.744 1134.37 229.744C1135.57 229.744 1136.61 229.968 1137.51 230.416C1138.4 230.864 1139.13 231.493 1139.68 232.304V222.96H1143.78V246H1140.13L1139.68 243.728C1139.17 244.432 1138.49 245.051 1137.64 245.584C1136.8 246.117 1135.72 246.384 1134.37 246.384ZM1135.24 242.8C1136.56 242.8 1137.64 242.363 1138.47 241.488C1139.32 240.592 1139.75 239.451 1139.75 238.064C1139.75 236.677 1139.32 235.547 1138.47 234.672C1137.64 233.776 1136.56 233.328 1135.24 233.328C1133.93 233.328 1132.86 233.765 1132 234.64C1131.15 235.515 1130.72 236.645 1130.72 238.032C1130.72 239.419 1131.15 240.56 1132 241.456C1132.86 242.352 1133.93 242.8 1135.24 242.8Z" fill="#1D1D1F"/>
<path d="M1382.41 246L1390.6 223.6H1395.21L1403.4 246H1399.05L1397.26 240.816H1388.52L1386.7 246H1382.41ZM1389.64 237.616H1396.14L1392.87 228.304L1389.64 237.616Z" fill="#1D1D1F"/>
<path d="M1410.08 246.384C1408.71 246.384 1407.59 246.171 1406.72 245.744C1405.84 245.296 1405.19 244.709 1404.76 243.984C1404.34 243.259 1404.12 242.459 1404.12 241.584C1404.12 240.112 1404.7 238.917 1405.85 238C1407 237.083 1408.73 236.624 1411.04 236.624H1415.07V236.24C1415.07 235.152 1414.76 234.352 1414.14 233.84C1413.52 233.328 1412.75 233.072 1411.84 233.072C1411 233.072 1410.28 233.275 1409.66 233.68C1409.04 234.064 1408.66 234.64 1408.51 235.408H1404.51C1404.62 234.256 1405 233.253 1405.66 232.4C1406.34 231.547 1407.22 230.896 1408.28 230.448C1409.35 229.979 1410.55 229.744 1411.87 229.744C1414.13 229.744 1415.91 230.309 1417.21 231.44C1418.51 232.571 1419.16 234.171 1419.16 236.24V246H1415.68L1415.29 243.44C1414.82 244.293 1414.16 244.997 1413.31 245.552C1412.48 246.107 1411.4 246.384 1410.08 246.384ZM1411 243.184C1412.18 243.184 1413.08 242.8 1413.72 242.032C1414.39 241.264 1414.8 240.315 1414.97 239.184H1411.48C1410.4 239.184 1409.62 239.387 1409.15 239.792C1408.68 240.176 1408.44 240.656 1408.44 241.232C1408.44 241.851 1408.68 242.331 1409.15 242.672C1409.62 243.013 1410.24 243.184 1411 243.184Z" fill="#1D1D1F"/>
<path d="M1422.21 246V223.6H1431.2C1433.53 223.6 1435.3 224.144 1436.51 225.232C1437.75 226.299 1438.37 227.675 1438.37 229.36C1438.37 230.768 1437.99 231.899 1437.22 232.752C1436.47 233.584 1435.55 234.149 1434.47 234.448C1435.75 234.704 1436.8 235.344 1437.63 236.368C1438.47 237.371 1438.88 238.544 1438.88 239.888C1438.88 241.659 1438.24 243.12 1436.96 244.272C1435.68 245.424 1433.87 246 1431.52 246H1422.21ZM1426.31 233.008H1430.59C1431.75 233.008 1432.63 232.741 1433.25 232.208C1433.87 231.675 1434.18 230.917 1434.18 229.936C1434.18 228.997 1433.87 228.261 1433.25 227.728C1432.65 227.173 1431.75 226.896 1430.53 226.896H1426.31V233.008ZM1426.31 242.672H1430.88C1432.1 242.672 1433.04 242.395 1433.7 241.84C1434.38 241.264 1434.72 240.464 1434.72 239.44C1434.72 238.395 1434.37 237.573 1433.67 236.976C1432.96 236.379 1432.01 236.08 1430.82 236.08H1426.31V242.672Z" fill="#1D1D1F"/>
<path d="M1450.75 246.384C1449.55 246.384 1448.51 246.16 1447.61 245.712C1446.72 245.264 1445.99 244.635 1445.44 243.824L1444.99 246H1441.34V222.96H1445.44V232.4C1445.95 231.696 1446.62 231.077 1447.45 230.544C1448.31 230.011 1449.41 229.744 1450.75 229.744C1452.24 229.744 1453.58 230.107 1454.75 230.832C1455.92 231.557 1456.85 232.549 1457.53 233.808C1458.22 235.067 1458.56 236.496 1458.56 238.096C1458.56 239.696 1458.22 241.125 1457.53 242.384C1456.85 243.621 1455.92 244.603 1454.75 245.328C1453.58 246.032 1452.24 246.384 1450.75 246.384ZM1449.89 242.8C1451.19 242.8 1452.26 242.363 1453.12 241.488C1453.97 240.613 1454.4 239.483 1454.4 238.096C1454.4 236.709 1453.97 235.568 1453.12 234.672C1452.26 233.776 1451.19 233.328 1449.89 233.328C1448.56 233.328 1447.47 233.776 1446.62 234.672C1445.79 235.547 1445.37 236.677 1445.37 238.064C1445.37 239.451 1445.79 240.592 1446.62 241.488C1447.47 242.363 1448.56 242.8 1449.89 242.8Z" fill="#1D1D1F"/>
<path d="M1471.5 246.384C1469.23 246.384 1467.29 245.904 1465.67 244.944C1464.05 243.963 1462.8 242.608 1461.93 240.88C1461.05 239.131 1460.62 237.115 1460.62 234.832C1460.62 232.549 1461.05 230.533 1461.93 228.784C1462.8 227.035 1464.05 225.669 1465.67 224.688C1467.29 223.707 1469.23 223.216 1471.5 223.216C1474.18 223.216 1476.38 223.888 1478.09 225.232C1479.82 226.555 1480.89 228.421 1481.32 230.832H1476.81C1476.53 229.616 1475.93 228.667 1475.02 227.984C1474.12 227.28 1472.93 226.928 1471.43 226.928C1469.36 226.928 1467.74 227.632 1466.57 229.04C1465.39 230.448 1464.81 232.379 1464.81 234.832C1464.81 237.285 1465.39 239.216 1466.57 240.624C1467.74 242.011 1469.36 242.704 1471.43 242.704C1472.93 242.704 1474.12 242.384 1475.02 241.744C1475.93 241.083 1476.53 240.176 1476.81 239.024H1481.32C1480.89 241.328 1479.82 243.131 1478.09 244.432C1476.38 245.733 1474.18 246.384 1471.5 246.384Z" fill="#1D1D1F"/>
<path d="M1491.67 246.384C1490.04 246.384 1488.62 246.032 1487.38 245.328C1486.14 244.624 1485.16 243.643 1484.43 242.384C1483.73 241.125 1483.38 239.685 1483.38 238.064C1483.38 236.443 1483.73 235.003 1484.43 233.744C1485.16 232.485 1486.14 231.504 1487.38 230.8C1488.62 230.096 1490.04 229.744 1491.67 229.744C1493.69 229.744 1495.4 230.277 1496.79 231.344C1498.17 232.389 1499.06 233.84 1499.44 235.696H1495.12C1494.91 234.928 1494.48 234.331 1493.84 233.904C1493.22 233.456 1492.49 233.232 1491.63 233.232C1490.5 233.232 1489.54 233.659 1488.75 234.512C1487.96 235.365 1487.57 236.549 1487.57 238.064C1487.57 239.579 1487.96 240.763 1488.75 241.616C1489.54 242.469 1490.5 242.896 1491.63 242.896C1492.49 242.896 1493.22 242.683 1493.84 242.256C1494.48 241.829 1494.91 241.221 1495.12 240.432H1499.44C1499.06 242.224 1498.17 243.664 1496.79 244.752C1495.4 245.84 1493.69 246.384 1491.67 246.384Z" fill="#1D1D1F"/>
<path d="M1515.1 238.448V235.024H1539.42V238.448H1515.1Z" fill="#1D1D1F"/>
<path d="M1558.21 246.384C1556.14 246.384 1554.37 245.904 1552.9 244.944C1551.43 243.963 1550.29 242.608 1549.48 240.88C1548.69 239.131 1548.29 237.104 1548.29 234.8C1548.29 232.517 1548.69 230.501 1549.48 228.752C1550.29 227.003 1551.43 225.648 1552.9 224.688C1554.37 223.707 1556.14 223.216 1558.21 223.216C1560.28 223.216 1562.05 223.707 1563.53 224.688C1565 225.648 1566.13 227.003 1566.92 228.752C1567.73 230.501 1568.13 232.517 1568.13 234.8C1568.13 237.104 1567.73 239.131 1566.92 240.88C1566.13 242.608 1565 243.963 1563.53 244.944C1562.05 245.904 1560.28 246.384 1558.21 246.384ZM1558.21 242.704C1559.9 242.704 1561.28 242 1562.34 240.592C1563.41 239.184 1563.94 237.253 1563.94 234.8C1563.94 232.347 1563.41 230.416 1562.34 229.008C1561.28 227.6 1559.9 226.896 1558.21 226.896C1556.51 226.896 1555.12 227.6 1554.05 229.008C1553.01 230.416 1552.49 232.347 1552.49 234.8C1552.49 237.253 1553.01 239.184 1554.05 240.592C1555.12 242 1556.51 242.704 1558.21 242.704Z" fill="#1D1D1F"/>
<path d="M1573.22 246V228.272L1569.54 229.136V226L1574.95 223.6H1577.48V246H1573.22Z" fill="#1D1D1F"/>
<path d="M1580.32 246V243.024C1581.68 241.893 1583 240.773 1584.28 239.664C1585.59 238.555 1586.74 237.456 1587.74 236.368C1588.76 235.28 1589.57 234.224 1590.17 233.2C1590.79 232.155 1591.1 231.141 1591.1 230.16C1591.1 229.243 1590.84 228.432 1590.33 227.728C1589.84 227.024 1589.02 226.672 1587.87 226.672C1586.69 226.672 1585.81 227.056 1585.21 227.824C1584.61 228.592 1584.32 229.52 1584.32 230.608H1580.35C1580.39 228.965 1580.75 227.6 1581.44 226.512C1582.12 225.403 1583.03 224.581 1584.16 224.048C1585.29 223.493 1586.56 223.216 1587.96 223.216C1590.25 223.216 1592.02 223.845 1593.28 225.104C1594.56 226.341 1595.2 227.952 1595.2 229.936C1595.2 231.173 1594.91 232.379 1594.33 233.552C1593.78 234.725 1593.04 235.856 1592.12 236.944C1591.21 238.032 1590.21 239.056 1589.15 240.016C1588.08 240.955 1587.05 241.829 1586.04 242.64H1595.74V246H1580.32Z" fill="#1D1D1F"/>
<path d="M1605.64 246.192C1604.14 246.192 1602.8 245.936 1601.6 245.424C1600.43 244.891 1599.48 244.091 1598.76 243.024C1598.05 241.957 1597.66 240.603 1597.57 238.96H1601.6C1601.69 240.069 1602.06 240.987 1602.72 241.712C1603.41 242.416 1604.39 242.768 1605.67 242.768C1606.88 242.768 1607.84 242.427 1608.55 241.744C1609.25 241.04 1609.6 240.08 1609.6 238.864C1609.6 237.648 1609.22 236.688 1608.45 235.984C1607.71 235.259 1606.67 234.896 1605.35 234.896H1602.18V232.176L1607.56 227.088H1598.85V223.6H1612.58V226.704L1606.72 232.176C1608.84 232.325 1610.5 232.997 1611.72 234.192C1612.93 235.365 1613.54 236.965 1613.54 238.992C1613.54 240.443 1613.21 241.712 1612.55 242.8C1611.91 243.867 1611 244.699 1609.83 245.296C1608.66 245.893 1607.26 246.192 1605.64 246.192Z" fill="#1D1D1F"/>
<path d="M1626.84 246V241.84H1615.8V238.576L1626.29 223.6H1630.93V238.288H1633.88V241.84H1630.93V246H1626.84ZM1620.18 238.288H1627.09V228.112L1620.18 238.288Z" fill="#1D1D1F"/>
<path d="M1642.41 248.784V246.32C1640.34 246.085 1638.65 245.36 1637.35 244.144C1636.05 242.928 1635.38 241.296 1635.34 239.248H1639.66C1639.7 240.101 1639.95 240.848 1640.42 241.488C1640.91 242.128 1641.58 242.565 1642.41 242.8V236.048C1642.22 235.984 1642.01 235.92 1641.8 235.856C1641.61 235.792 1641.41 235.728 1641.19 235.664C1639.46 235.067 1638.14 234.299 1637.22 233.36C1636.33 232.421 1635.88 231.173 1635.88 229.616C1635.86 227.781 1636.46 226.309 1637.67 225.2C1638.89 224.069 1640.47 223.419 1642.41 223.248V220.656H1644.55V223.28C1646.47 223.472 1648.02 224.144 1649.19 225.296C1650.39 226.427 1651.02 227.888 1651.08 229.68H1646.7C1646.67 229.061 1646.47 228.496 1646.09 227.984C1645.73 227.451 1645.21 227.077 1644.55 226.864V232.816C1644.72 232.88 1644.89 232.944 1645.06 233.008C1645.23 233.051 1645.41 233.104 1645.58 233.168C1646.69 233.552 1647.7 234 1648.62 234.512C1649.53 235.024 1650.27 235.707 1650.82 236.56C1651.38 237.392 1651.66 238.469 1651.66 239.792C1651.66 240.901 1651.38 241.936 1650.82 242.896C1650.29 243.856 1649.49 244.656 1648.42 245.296C1647.38 245.915 1646.09 246.267 1644.55 246.352V248.784H1642.41ZM1640.17 229.328C1640.17 230.011 1640.37 230.565 1640.78 230.992C1641.18 231.397 1641.73 231.749 1642.41 232.048V226.736C1641.75 226.864 1641.2 227.152 1640.78 227.6C1640.37 228.048 1640.17 228.624 1640.17 229.328ZM1647.3 240.08C1647.3 239.227 1647.05 238.555 1646.54 238.064C1646.02 237.573 1645.36 237.157 1644.55 236.816V242.896C1645.41 242.768 1646.08 242.459 1646.57 241.968C1647.06 241.477 1647.3 240.848 1647.3 240.08Z" fill="#1D1D1F"/>
<path d="M1658.88 234.608C1657.85 234.608 1656.93 234.384 1656.09 233.936C1655.26 233.467 1654.6 232.805 1654.11 231.952C1653.62 231.099 1653.37 230.085 1653.37 228.912C1653.37 227.739 1653.62 226.725 1654.11 225.872C1654.6 225.019 1655.26 224.368 1656.09 223.92C1656.93 223.451 1657.86 223.216 1658.91 223.216C1659.93 223.216 1660.85 223.451 1661.66 223.92C1662.49 224.368 1663.16 225.019 1663.65 225.872C1664.14 226.725 1664.38 227.739 1664.38 228.912C1664.38 230.085 1664.14 231.099 1663.65 231.952C1663.16 232.805 1662.49 233.467 1661.66 233.936C1660.83 234.384 1659.9 234.608 1658.88 234.608ZM1657.66 246L1670.3 223.6H1674.3L1661.66 246H1657.66ZM1658.88 231.76C1659.5 231.76 1660.03 231.525 1660.48 231.056C1660.93 230.565 1661.15 229.851 1661.15 228.912C1661.15 227.973 1660.93 227.259 1660.48 226.768C1660.05 226.277 1659.52 226.032 1658.88 226.032C1658.24 226.032 1657.69 226.277 1657.25 226.768C1656.82 227.259 1656.61 227.973 1656.61 228.912C1656.61 229.851 1656.82 230.565 1657.25 231.056C1657.69 231.525 1658.24 231.76 1658.88 231.76ZM1673.21 246.384C1672.19 246.384 1671.26 246.16 1670.43 245.712C1669.6 245.243 1668.94 244.581 1668.45 243.728C1667.96 242.875 1667.71 241.861 1667.71 240.688C1667.71 239.515 1667.96 238.512 1668.45 237.68C1668.94 236.827 1669.6 236.176 1670.43 235.728C1671.26 235.259 1672.2 235.024 1673.25 235.024C1674.27 235.024 1675.19 235.259 1676 235.728C1676.83 236.176 1677.49 236.827 1677.98 237.68C1678.47 238.512 1678.72 239.515 1678.72 240.688C1678.72 241.861 1678.47 242.875 1677.98 243.728C1677.49 244.581 1676.83 245.243 1676 245.712C1675.19 246.16 1674.26 246.384 1673.21 246.384ZM1673.21 243.536C1673.85 243.536 1674.39 243.301 1674.81 242.832C1675.26 242.341 1675.49 241.627 1675.49 240.688C1675.49 239.749 1675.26 239.035 1674.81 238.544C1674.39 238.053 1673.85 237.808 1673.21 237.808C1672.57 237.808 1672.03 238.053 1671.58 238.544C1671.16 239.035 1670.94 239.749 1670.94 240.688C1670.94 241.627 1671.16 242.341 1671.58 242.832C1672.03 243.301 1672.57 243.536 1673.21 243.536Z" fill="#1D1D1F"/>
<path d="M1082.27 486V463.6H1086.27L1093.86 478.512L1101.41 463.6H1105.41V486H1102.02V469.456L1095.17 482.8H1092.54L1085.66 469.488V486H1082.27Z" fill="#1D1D1F"/>
<path d="M1116.3 486.384C1114.74 486.384 1113.35 486.043 1112.14 485.36C1110.94 484.656 1110 483.685 1109.32 482.448C1108.64 481.211 1108.3 479.771 1108.3 478.128C1108.3 476.464 1108.63 475.003 1109.29 473.744C1109.97 472.485 1110.91 471.504 1112.1 470.8C1113.32 470.096 1114.73 469.744 1116.33 469.744C1117.88 469.744 1119.24 470.096 1120.39 470.8C1121.54 471.483 1122.44 472.4 1123.08 473.552C1123.72 474.704 1124.04 475.973 1124.04 477.36C1124.04 477.573 1124.03 477.808 1124.01 478.064C1124.01 478.299 1124 478.565 1123.98 478.864H1111.62C1111.73 480.4 1112.23 481.573 1113.13 482.384C1114.04 483.173 1115.1 483.568 1116.3 483.568C1117.26 483.568 1118.06 483.355 1118.7 482.928C1119.36 482.48 1119.85 481.883 1120.17 481.136H1123.56C1123.13 482.629 1122.28 483.877 1121 484.88C1119.74 485.883 1118.17 486.384 1116.3 486.384ZM1116.3 472.528C1115.16 472.528 1114.16 472.869 1113.29 473.552C1112.41 474.213 1111.88 475.216 1111.69 476.56H1120.65C1120.58 475.323 1120.15 474.341 1119.34 473.616C1118.52 472.891 1117.51 472.528 1116.3 472.528Z" fill="#1D1D1F"/>
<path d="M1133.83 486.384C1132.29 486.384 1130.94 486.021 1129.77 485.296C1128.59 484.571 1127.68 483.579 1127.01 482.32C1126.35 481.061 1126.02 479.632 1126.02 478.032C1126.02 476.432 1126.35 475.013 1127.01 473.776C1127.68 472.517 1128.59 471.536 1129.77 470.832C1130.96 470.107 1132.33 469.744 1133.86 469.744C1135.12 469.744 1136.22 469.989 1137.16 470.48C1138.12 470.971 1138.87 471.664 1139.4 472.56V462.96H1142.79V486H1139.75L1139.4 483.536C1138.89 484.283 1138.18 484.944 1137.29 485.52C1136.39 486.096 1135.24 486.384 1133.83 486.384ZM1134.44 483.44C1135.89 483.44 1137.07 482.939 1137.99 481.936C1138.93 480.933 1139.4 479.643 1139.4 478.064C1139.4 476.464 1138.93 475.173 1137.99 474.192C1137.07 473.189 1135.89 472.688 1134.44 472.688C1132.99 472.688 1131.79 473.189 1130.85 474.192C1129.92 475.173 1129.45 476.464 1129.45 478.064C1129.45 479.109 1129.66 480.037 1130.09 480.848C1130.51 481.659 1131.1 482.299 1131.85 482.768C1132.61 483.216 1133.48 483.44 1134.44 483.44Z" fill="#1D1D1F"/>
<path d="M1148.03 467.12C1147.39 467.12 1146.85 466.928 1146.43 466.544C1146.02 466.139 1145.82 465.637 1145.82 465.04C1145.82 464.443 1146.02 463.952 1146.43 463.568C1146.85 463.163 1147.39 462.96 1148.03 462.96C1148.67 462.96 1149.19 463.163 1149.6 463.568C1150.02 463.952 1150.24 464.443 1150.24 465.04C1150.24 465.637 1150.02 466.139 1149.6 466.544C1149.19 466.928 1148.67 467.12 1148.03 467.12ZM1146.33 486V470.128H1149.72V486H1146.33Z" fill="#1D1D1F"/>
<path d="M1159.1 486.384C1157.18 486.384 1155.66 485.787 1154.55 484.592C1153.47 483.397 1152.92 481.616 1152.92 479.248V470.128H1156.31V478.896C1156.31 481.968 1157.57 483.504 1160.09 483.504C1161.35 483.504 1162.38 483.056 1163.19 482.16C1164 481.264 1164.41 479.984 1164.41 478.32V470.128H1167.8V486H1164.79L1164.54 483.216C1164.05 484.197 1163.32 484.976 1162.36 485.552C1161.42 486.107 1160.33 486.384 1159.1 486.384Z" fill="#1D1D1F"/>
<path d="M1171.16 486V470.128H1174.16L1174.45 472.368C1174.96 471.557 1175.64 470.917 1176.47 470.448C1177.32 469.979 1178.3 469.744 1179.41 469.744C1181.93 469.744 1183.68 470.736 1184.66 472.72C1185.24 471.803 1186 471.077 1186.96 470.544C1187.95 470.011 1189 469.744 1190.13 469.744C1192.12 469.744 1193.67 470.341 1194.8 471.536C1195.94 472.731 1196.5 474.512 1196.5 476.88V486H1193.11V477.232C1193.11 474.16 1191.94 472.624 1189.59 472.624C1188.39 472.624 1187.41 473.072 1186.64 473.968C1185.9 474.864 1185.52 476.144 1185.52 477.808V486H1182.13V477.232C1182.13 474.16 1180.95 472.624 1178.58 472.624C1177.41 472.624 1176.44 473.072 1175.67 473.968C1174.92 474.864 1174.55 476.144 1174.55 477.808V486H1171.16Z" fill="#1D1D1F"/>
<path d="M1387.75 486L1396.01 463.6H1399.72L1407.91 486H1404.33L1402.41 480.528H1393.26L1391.34 486H1387.75ZM1394.22 477.84H1401.45L1397.83 467.632L1394.22 477.84Z" fill="#1D1D1F"/>
<path d="M1414.7 486.384C1413.36 486.384 1412.25 486.16 1411.37 485.712C1410.5 485.264 1409.85 484.677 1409.42 483.952C1408.99 483.205 1408.78 482.395 1408.78 481.52C1408.78 479.984 1409.38 478.768 1410.57 477.872C1411.77 476.976 1413.47 476.528 1415.69 476.528H1419.85V476.24C1419.85 475.003 1419.51 474.075 1418.83 473.456C1418.17 472.837 1417.3 472.528 1416.24 472.528C1415.3 472.528 1414.48 472.763 1413.77 473.232C1413.09 473.68 1412.67 474.352 1412.53 475.248H1409.13C1409.24 474.096 1409.62 473.115 1410.29 472.304C1410.97 471.472 1411.82 470.843 1412.85 470.416C1413.89 469.968 1415.03 469.744 1416.27 469.744C1418.49 469.744 1420.21 470.331 1421.42 471.504C1422.64 472.656 1423.25 474.235 1423.25 476.24V486H1420.3L1420.01 483.28C1419.57 484.155 1418.91 484.891 1418.06 485.488C1417.21 486.085 1416.09 486.384 1414.7 486.384ZM1415.37 483.632C1416.29 483.632 1417.06 483.419 1417.68 482.992C1418.32 482.544 1418.81 481.957 1419.15 481.232C1419.51 480.507 1419.74 479.707 1419.82 478.832H1416.05C1414.7 478.832 1413.74 479.067 1413.17 479.536C1412.61 480.005 1412.33 480.592 1412.33 481.296C1412.33 482.021 1412.6 482.597 1413.13 483.024C1413.69 483.429 1414.43 483.632 1415.37 483.632Z" fill="#1D1D1F"/>
<path d="M1426.37 486V463.6H1434.82C1437.14 463.6 1438.9 464.144 1440.1 465.232C1441.29 466.32 1441.89 467.685 1441.89 469.328C1441.89 470.757 1441.5 471.899 1440.74 472.752C1439.97 473.584 1439.04 474.149 1437.95 474.448C1438.81 474.619 1439.56 474.96 1440.22 475.472C1440.91 475.984 1441.44 476.624 1441.82 477.392C1442.21 478.16 1442.4 478.992 1442.4 479.888C1442.4 481.04 1442.11 482.085 1441.54 483.024C1440.98 483.941 1440.16 484.667 1439.07 485.2C1437.98 485.733 1436.65 486 1435.07 486H1426.37ZM1429.76 473.2H1434.4C1435.7 473.2 1436.69 472.901 1437.38 472.304C1438.06 471.685 1438.4 470.843 1438.4 469.776C1438.4 468.731 1438.06 467.899 1437.38 467.28C1436.71 466.661 1435.7 466.352 1434.34 466.352H1429.76V473.2ZM1429.76 483.216H1434.62C1435.99 483.216 1437.05 482.896 1437.79 482.256C1438.56 481.616 1438.94 480.72 1438.94 479.568C1438.94 478.416 1438.55 477.509 1437.76 476.848C1436.97 476.165 1435.9 475.824 1434.56 475.824H1429.76V483.216Z" fill="#1D1D1F"/>
<path d="M1453.96 486.384C1452.72 486.384 1451.62 486.139 1450.66 485.648C1449.72 485.157 1448.98 484.464 1448.42 483.568L1448.07 486H1445.03V462.96H1448.42V472.592C1448.93 471.845 1449.64 471.184 1450.53 470.608C1451.43 470.032 1452.58 469.744 1453.99 469.744C1455.53 469.744 1456.88 470.107 1458.05 470.832C1459.23 471.557 1460.14 472.549 1460.81 473.808C1461.49 475.067 1461.83 476.496 1461.83 478.096C1461.83 479.696 1461.49 481.125 1460.81 482.384C1460.14 483.621 1459.23 484.603 1458.05 485.328C1456.88 486.032 1455.52 486.384 1453.96 486.384ZM1453.38 483.44C1454.83 483.44 1456.03 482.949 1456.97 481.968C1457.9 480.965 1458.37 479.664 1458.37 478.064C1458.37 477.019 1458.16 476.091 1457.73 475.28C1457.31 474.469 1456.72 473.84 1455.97 473.392C1455.23 472.923 1454.36 472.688 1453.38 472.688C1451.93 472.688 1450.74 473.189 1449.8 474.192C1448.88 475.195 1448.42 476.485 1448.42 478.064C1448.42 479.664 1448.88 480.965 1449.8 481.968C1450.74 482.949 1451.93 483.44 1453.38 483.44Z" fill="#1D1D1F"/>
<path d="M1474.65 486.384C1472.43 486.384 1470.51 485.904 1468.89 484.944C1467.29 483.963 1466.05 482.608 1465.18 480.88C1464.3 479.131 1463.87 477.115 1463.87 474.832C1463.87 472.528 1464.3 470.512 1465.18 468.784C1466.05 467.035 1467.29 465.669 1468.89 464.688C1470.51 463.707 1472.43 463.216 1474.65 463.216C1477.27 463.216 1479.42 463.856 1481.08 465.136C1482.75 466.416 1483.8 468.208 1484.25 470.512H1480.47C1480.18 469.211 1479.54 468.176 1478.55 467.408C1477.57 466.64 1476.26 466.256 1474.62 466.256C1472.38 466.256 1470.61 467.024 1469.31 468.56C1468.01 470.075 1467.35 472.165 1467.35 474.832C1467.35 477.477 1468.01 479.557 1469.31 481.072C1470.61 482.587 1472.38 483.344 1474.62 483.344C1476.26 483.344 1477.57 482.981 1478.55 482.256C1479.54 481.531 1480.18 480.539 1480.47 479.28H1484.25C1483.8 481.499 1482.75 483.237 1481.08 484.496C1479.42 485.755 1477.27 486.384 1474.65 486.384Z" fill="#1D1D1F"/>
<path d="M1494.41 486.384C1492.85 486.384 1491.46 486.032 1490.22 485.328C1489 484.624 1488.04 483.653 1487.34 482.416C1486.66 481.157 1486.32 479.707 1486.32 478.064C1486.32 476.421 1486.66 474.981 1487.34 473.744C1488.04 472.485 1489 471.504 1490.22 470.8C1491.46 470.096 1492.85 469.744 1494.41 469.744C1496.37 469.744 1498.02 470.256 1499.34 471.28C1500.68 472.304 1501.55 473.691 1501.93 475.44H1498.38C1498.17 474.565 1497.7 473.883 1496.97 473.392C1496.25 472.901 1495.39 472.656 1494.41 472.656C1493.58 472.656 1492.81 472.869 1492.11 473.296C1491.4 473.701 1490.84 474.309 1490.41 475.12C1489.98 475.909 1489.77 476.891 1489.77 478.064C1489.77 479.237 1489.98 480.229 1490.41 481.04C1490.84 481.829 1491.4 482.437 1492.11 482.864C1492.81 483.291 1493.58 483.504 1494.41 483.504C1495.39 483.504 1496.25 483.259 1496.97 482.768C1497.7 482.277 1498.17 481.584 1498.38 480.688H1501.93C1501.57 482.395 1500.72 483.771 1499.37 484.816C1498.03 485.861 1496.37 486.384 1494.41 486.384Z" fill="#1D1D1F"/>
<path d="M1518.5 478.128V475.312H1542.34V478.128H1518.5Z" fill="#1D1D1F"/>
<path d="M1561.52 486.384C1559.5 486.384 1557.75 485.904 1556.28 484.944C1554.82 483.963 1553.7 482.608 1552.92 480.88C1552.15 479.131 1551.76 477.104 1551.76 474.8C1551.76 472.496 1552.15 470.48 1552.92 468.752C1553.7 467.003 1554.82 465.648 1556.28 464.688C1557.75 463.707 1559.5 463.216 1561.52 463.216C1563.55 463.216 1565.29 463.707 1566.74 464.688C1568.19 465.648 1569.3 467.003 1570.07 468.752C1570.86 470.48 1571.25 472.496 1571.25 474.8C1571.25 477.104 1570.86 479.131 1570.07 480.88C1569.3 482.608 1568.19 483.963 1566.74 484.944C1565.29 485.904 1563.55 486.384 1561.52 486.384ZM1561.52 483.344C1562.74 483.344 1563.82 483.003 1564.76 482.32C1565.72 481.637 1566.46 480.656 1567 479.376C1567.53 478.096 1567.8 476.571 1567.8 474.8C1567.8 473.029 1567.53 471.504 1567 470.224C1566.46 468.944 1565.72 467.963 1564.76 467.28C1563.82 466.597 1562.74 466.256 1561.52 466.256C1560.29 466.256 1559.2 466.597 1558.26 467.28C1557.32 467.963 1556.58 468.944 1556.05 470.224C1555.52 471.504 1555.25 473.029 1555.25 474.8C1555.25 476.571 1555.52 478.096 1556.05 479.376C1556.58 480.656 1557.32 481.637 1558.26 482.32C1559.2 483.003 1560.29 483.344 1561.52 483.344Z" fill="#1D1D1F"/>
<path d="M1576.38 486V467.44L1572.76 468.272V465.776L1577.72 463.6H1579.9V486H1576.38Z" fill="#1D1D1F"/>
<path d="M1583.04 486V483.568C1584.49 482.416 1585.88 481.253 1587.2 480.08C1588.52 478.907 1589.69 477.755 1590.72 476.624C1591.76 475.472 1592.59 474.352 1593.18 473.264C1593.78 472.155 1594.08 471.088 1594.08 470.064C1594.08 469.381 1593.96 468.741 1593.73 468.144C1593.49 467.525 1593.11 467.035 1592.57 466.672C1592.04 466.288 1591.33 466.096 1590.43 466.096C1589.09 466.096 1588.07 466.523 1587.39 467.376C1586.73 468.229 1586.41 469.253 1586.43 470.448H1583.13C1583.16 468.869 1583.49 467.547 1584.13 466.48C1584.79 465.413 1585.66 464.603 1586.75 464.048C1587.86 463.493 1589.11 463.216 1590.49 463.216C1592.61 463.216 1594.29 463.813 1595.55 465.008C1596.83 466.181 1597.47 467.824 1597.47 469.936C1597.47 471.195 1597.16 472.443 1596.54 473.68C1595.95 474.917 1595.16 476.112 1594.17 477.264C1593.21 478.395 1592.18 479.461 1591.07 480.464C1589.96 481.467 1588.91 482.373 1587.9 483.184H1598.14V486H1583.04Z" fill="#1D1D1F"/>
<path d="M1608.14 486.16C1606.68 486.16 1605.37 485.904 1604.2 485.392C1603.05 484.88 1602.12 484.112 1601.42 483.088C1600.71 482.043 1600.31 480.731 1600.2 479.152H1603.53C1603.66 480.368 1604.1 481.371 1604.87 482.16C1605.64 482.949 1606.74 483.344 1608.17 483.344C1609.55 483.344 1610.64 482.96 1611.43 482.192C1612.24 481.403 1612.65 480.336 1612.65 478.992C1612.65 477.605 1612.23 476.517 1611.4 475.728C1610.59 474.939 1609.47 474.544 1608.04 474.544H1604.84V472.24L1610.79 466.48H1601.54V463.6H1614.95V466.16L1608.71 472.144C1610.95 472.208 1612.71 472.848 1613.99 474.064C1615.29 475.259 1615.94 476.923 1615.94 479.056C1615.94 481.232 1615.24 482.96 1613.83 484.24C1612.42 485.52 1610.52 486.16 1608.14 486.16Z" fill="#1D1D1F"/>
<path d="M1629.31 486V481.52H1618.07V478.832L1628.76 463.6H1632.67V478.576H1635.8V481.52H1632.67V486H1629.31ZM1621.75 478.576H1629.5V467.344L1621.75 478.576Z" fill="#1D1D1F"/>
<path d="M1644.12 488.784V486.32C1642.03 486.085 1640.36 485.349 1639.1 484.112C1637.84 482.875 1637.2 481.253 1637.18 479.248H1640.76C1640.78 480.251 1641.08 481.136 1641.66 481.904C1642.24 482.651 1643.06 483.152 1644.12 483.408V475.696C1643.95 475.653 1643.77 475.6 1643.58 475.536C1643.41 475.472 1643.23 475.408 1643.04 475.344C1641.31 474.768 1640.01 474.021 1639.13 473.104C1638.28 472.187 1637.85 470.981 1637.85 469.488C1637.83 467.739 1638.4 466.309 1639.55 465.2C1640.7 464.091 1642.22 463.44 1644.12 463.248V460.688H1646.3V463.28C1648.16 463.493 1649.65 464.165 1650.78 465.296C1651.91 466.427 1652.49 467.845 1652.51 469.552H1648.92C1648.9 468.848 1648.67 468.187 1648.22 467.568C1647.79 466.928 1647.15 466.491 1646.3 466.256V473.104C1646.47 473.168 1646.64 473.232 1646.81 473.296C1646.98 473.339 1647.15 473.392 1647.32 473.456C1648.43 473.819 1649.42 474.256 1650.3 474.768C1651.17 475.28 1651.87 475.952 1652.38 476.784C1652.91 477.616 1653.18 478.672 1653.18 479.952C1653.18 481.019 1652.92 482.021 1652.41 482.96C1651.9 483.877 1651.13 484.645 1650.11 485.264C1649.08 485.883 1647.81 486.245 1646.3 486.352V488.784H1644.12ZM1641.37 469.2C1641.37 470.053 1641.62 470.715 1642.11 471.184C1642.6 471.632 1643.27 472.027 1644.12 472.368V466.16C1643.31 466.309 1642.65 466.651 1642.14 467.184C1641.63 467.696 1641.37 468.368 1641.37 469.2ZM1649.6 480.176C1649.6 479.131 1649.29 478.341 1648.67 477.808C1648.05 477.253 1647.26 476.795 1646.3 476.432V483.472C1647.34 483.344 1648.16 482.981 1648.73 482.384C1649.31 481.787 1649.6 481.051 1649.6 480.176Z" fill="#1D1D1F"/>
<path d="M1660.25 474.288C1659.25 474.288 1658.34 474.064 1657.53 473.616C1656.74 473.168 1656.11 472.539 1655.64 471.728C1655.17 470.896 1654.94 469.904 1654.94 468.752C1654.94 467.621 1655.17 466.651 1655.64 465.84C1656.11 465.008 1656.75 464.368 1657.56 463.92C1658.37 463.472 1659.28 463.248 1660.28 463.248C1661.26 463.248 1662.15 463.472 1662.94 463.92C1663.75 464.368 1664.39 465.008 1664.86 465.84C1665.33 466.651 1665.56 467.621 1665.56 468.752C1665.56 469.904 1665.33 470.896 1664.86 471.728C1664.39 472.539 1663.75 473.168 1662.94 473.616C1662.15 474.064 1661.25 474.288 1660.25 474.288ZM1658.65 486L1671.48 463.6H1674.81L1662.01 486H1658.65ZM1660.25 471.856C1660.93 471.856 1661.52 471.6 1662.01 471.088C1662.52 470.555 1662.78 469.776 1662.78 468.752C1662.78 467.728 1662.53 466.96 1662.04 466.448C1661.55 465.915 1660.95 465.648 1660.25 465.648C1659.57 465.648 1658.97 465.915 1658.46 466.448C1657.94 466.96 1657.69 467.728 1657.69 468.752C1657.69 469.776 1657.93 470.555 1658.42 471.088C1658.94 471.6 1659.54 471.856 1660.25 471.856ZM1673.4 486.384C1672.4 486.384 1671.49 486.16 1670.68 485.712C1669.89 485.264 1669.26 484.635 1668.79 483.824C1668.32 482.992 1668.09 482 1668.09 480.848C1668.09 479.717 1668.32 478.736 1668.79 477.904C1669.26 477.072 1669.9 476.432 1670.71 475.984C1671.52 475.536 1672.43 475.312 1673.43 475.312C1674.41 475.312 1675.3 475.536 1676.09 475.984C1676.9 476.432 1677.54 477.072 1678.01 477.904C1678.48 478.736 1678.71 479.717 1678.71 480.848C1678.71 482 1678.48 482.992 1678.01 483.824C1677.54 484.635 1676.9 485.264 1676.09 485.712C1675.3 486.16 1674.4 486.384 1673.4 486.384ZM1673.4 483.92C1674.08 483.92 1674.67 483.664 1675.16 483.152C1675.67 482.64 1675.93 481.872 1675.93 480.848C1675.93 479.824 1675.68 479.056 1675.19 478.544C1674.7 478.011 1674.1 477.744 1673.4 477.744C1672.72 477.744 1672.12 478.011 1671.61 478.544C1671.1 479.056 1670.84 479.824 1670.84 480.848C1670.84 481.872 1671.09 482.64 1671.58 483.152C1672.09 483.664 1672.7 483.92 1673.4 483.92Z" fill="#1D1D1F"/>
<path d="M1082.37 726V703.6H1089.6C1091.35 703.6 1092.78 703.888 1093.89 704.464C1095 705.04 1095.82 705.829 1096.35 706.832C1096.89 707.835 1097.15 708.944 1097.15 710.16C1097.15 711.568 1096.77 712.837 1096 713.968C1095.25 715.099 1094.08 715.899 1092.48 716.368L1097.38 726H1094.21L1089.66 716.752H1089.47H1085.06V726H1082.37ZM1085.06 714.64H1089.41C1091.14 714.64 1092.39 714.224 1093.18 713.392C1093.97 712.56 1094.37 711.493 1094.37 710.192C1094.37 708.869 1093.97 707.824 1093.18 707.056C1092.42 706.267 1091.15 705.872 1089.38 705.872H1085.06V714.64Z" fill="#1D1D1F"/>
<path d="M1106.38 726.384C1104.87 726.384 1103.53 726.043 1102.35 725.36C1101.18 724.656 1100.25 723.685 1099.57 722.448C1098.91 721.211 1098.58 719.749 1098.58 718.064C1098.58 716.4 1098.91 714.949 1099.57 713.712C1100.23 712.453 1101.15 711.483 1102.32 710.8C1103.51 710.096 1104.89 709.744 1106.45 709.744C1107.98 709.744 1109.31 710.096 1110.42 710.8C1111.55 711.483 1112.41 712.389 1113.01 713.52C1113.61 714.651 1113.9 715.867 1113.9 717.168C1113.9 717.403 1113.89 717.637 1113.87 717.872C1113.87 718.107 1113.87 718.373 1113.87 718.672H1101.23C1101.3 719.888 1101.57 720.901 1102.06 721.712C1102.58 722.501 1103.21 723.099 1103.95 723.504C1104.72 723.909 1105.53 724.112 1106.38 724.112C1107.49 724.112 1108.42 723.856 1109.17 723.344C1109.91 722.832 1110.46 722.139 1110.8 721.264H1113.46C1113.03 722.736 1112.21 723.963 1110.99 724.944C1109.8 725.904 1108.26 726.384 1106.38 726.384ZM1106.38 712.016C1105.1 712.016 1103.96 712.411 1102.96 713.2C1101.98 713.968 1101.41 715.099 1101.26 716.592H1111.25C1111.18 715.163 1110.69 714.043 1109.78 713.232C1108.86 712.421 1107.73 712.016 1106.38 712.016Z" fill="#1D1D1F"/>
<path d="M1124.51 733.424C1123.12 733.424 1121.85 733.179 1120.7 732.688C1119.55 732.219 1118.59 731.536 1117.82 730.64C1117.07 729.744 1116.58 728.656 1116.35 727.376H1119C1119.34 728.485 1119.99 729.381 1120.95 730.064C1121.94 730.747 1123.11 731.088 1124.47 731.088C1126.03 731.088 1127.34 730.587 1128.41 729.584C1129.48 728.581 1130.01 727.088 1130.01 725.104V722.8C1129.5 723.696 1128.73 724.507 1127.71 725.232C1126.68 725.957 1125.39 726.32 1123.83 726.32C1122.34 726.32 1120.99 725.957 1119.77 725.232C1118.58 724.507 1117.62 723.515 1116.89 722.256C1116.19 720.997 1115.83 719.579 1115.83 718C1115.83 716.421 1116.19 715.013 1116.89 713.776C1117.62 712.517 1118.59 711.536 1119.8 710.832C1121.02 710.107 1122.37 709.744 1123.87 709.744C1125.27 709.744 1126.51 710.064 1127.58 710.704C1128.65 711.323 1129.46 712.08 1130.01 712.976L1130.27 710.128H1132.7V725.072C1132.7 726.8 1132.35 728.283 1131.64 729.52C1130.94 730.779 1129.97 731.739 1128.73 732.4C1127.49 733.083 1126.09 733.424 1124.51 733.424ZM1124.25 723.984C1125.34 723.984 1126.3 723.728 1127.13 723.216C1127.98 722.704 1128.66 722 1129.15 721.104C1129.66 720.208 1129.91 719.173 1129.91 718C1129.91 716.827 1129.66 715.792 1129.15 714.896C1128.66 714 1127.98 713.307 1127.13 712.816C1126.3 712.325 1125.34 712.08 1124.25 712.08C1123.18 712.08 1122.22 712.325 1121.37 712.816C1120.52 713.307 1119.83 714 1119.32 714.896C1118.83 715.792 1118.59 716.827 1118.59 718C1118.59 719.173 1118.83 720.208 1119.32 721.104C1119.83 722 1120.52 722.704 1121.37 723.216C1122.22 723.728 1123.18 723.984 1124.25 723.984Z" fill="#1D1D1F"/>
<path d="M1141.93 726.384C1140.06 726.384 1138.56 725.819 1137.45 724.688C1136.34 723.536 1135.79 721.776 1135.79 719.408V710.128H1138.48V719.12C1138.48 722.427 1139.83 724.08 1142.54 724.08C1143.93 724.08 1145.07 723.589 1145.96 722.608C1146.88 721.605 1147.34 720.187 1147.34 718.352V710.128H1150.03V726H1147.6L1147.4 723.152C1146.91 724.155 1146.18 724.944 1145.2 725.52C1144.24 726.096 1143.15 726.384 1141.93 726.384Z" fill="#1D1D1F"/>
<path d="M1153.49 726V702.96H1156.18V726H1153.49Z" fill="#1D1D1F"/>
<path d="M1164.91 726.384C1163.58 726.384 1162.49 726.16 1161.61 725.712C1160.74 725.264 1160.09 724.667 1159.66 723.92C1159.23 723.173 1159.02 722.363 1159.02 721.488C1159.02 719.867 1159.64 718.619 1160.87 717.744C1162.11 716.869 1163.8 716.432 1165.93 716.432H1170.22V716.24C1170.22 714.853 1169.86 713.808 1169.13 713.104C1168.41 712.379 1167.43 712.016 1166.22 712.016C1165.17 712.016 1164.27 712.283 1163.5 712.816C1162.75 713.328 1162.28 714.085 1162.09 715.088H1159.34C1159.45 713.936 1159.83 712.965 1160.49 712.176C1161.17 711.387 1162.02 710.789 1163.02 710.384C1164.02 709.957 1165.09 709.744 1166.22 709.744C1168.44 709.744 1170.1 710.341 1171.21 711.536C1172.34 712.709 1172.91 714.277 1172.91 716.24V726H1170.51L1170.35 723.152C1169.9 724.048 1169.24 724.816 1168.36 725.456C1167.51 726.075 1166.36 726.384 1164.91 726.384ZM1165.32 724.112C1166.35 724.112 1167.22 723.845 1167.95 723.312C1168.69 722.779 1169.26 722.085 1169.64 721.232C1170.03 720.379 1170.22 719.483 1170.22 718.544V718.512H1166.15C1164.58 718.512 1163.46 718.789 1162.79 719.344C1162.15 719.877 1161.83 720.549 1161.83 721.36C1161.83 722.192 1162.13 722.864 1162.73 723.376C1163.35 723.867 1164.21 724.112 1165.32 724.112Z" fill="#1D1D1F"/>
<path d="M1175.98 726V710.128H1178.41L1178.64 713.168C1179.13 712.123 1179.87 711.291 1180.88 710.672C1181.88 710.053 1183.12 709.744 1184.59 709.744V712.56H1183.85C1182.91 712.56 1182.05 712.731 1181.26 713.072C1180.47 713.392 1179.84 713.947 1179.37 714.736C1178.9 715.525 1178.67 716.613 1178.67 718V726H1175.98Z" fill="#1D1D1F"/>
<path d="M1393.41 726L1401.67 703.6H1404.52L1412.74 726H1409.89L1407.85 720.24H1398.31L1396.23 726H1393.41ZM1399.11 718.064H1407.05L1403.08 706.992L1399.11 718.064Z" fill="#1D1D1F"/>
<path d="M1419.61 726.384C1418.28 726.384 1417.19 726.16 1416.31 725.712C1415.44 725.264 1414.79 724.667 1414.36 723.92C1413.93 723.173 1413.72 722.363 1413.72 721.488C1413.72 719.867 1414.34 718.619 1415.57 717.744C1416.81 716.869 1418.5 716.432 1420.63 716.432H1424.92V716.24C1424.92 714.853 1424.56 713.808 1423.83 713.104C1423.11 712.379 1422.13 712.016 1420.92 712.016C1419.87 712.016 1418.97 712.283 1418.2 712.816C1417.45 713.328 1416.98 714.085 1416.79 715.088H1414.04C1414.15 713.936 1414.53 712.965 1415.19 712.176C1415.87 711.387 1416.72 710.789 1417.72 710.384C1418.72 709.957 1419.79 709.744 1420.92 709.744C1423.14 709.744 1424.8 710.341 1425.91 711.536C1427.04 712.709 1427.61 714.277 1427.61 716.24V726H1425.21L1425.05 723.152C1424.6 724.048 1423.94 724.816 1423.06 725.456C1422.21 726.075 1421.06 726.384 1419.61 726.384ZM1420.02 724.112C1421.05 724.112 1421.92 723.845 1422.65 723.312C1423.39 722.779 1423.96 722.085 1424.34 721.232C1424.73 720.379 1424.92 719.483 1424.92 718.544V718.512H1420.85C1419.28 718.512 1418.16 718.789 1417.49 719.344C1416.85 719.877 1416.53 720.549 1416.53 721.36C1416.53 722.192 1416.83 722.864 1417.43 723.376C1418.05 723.867 1418.91 724.112 1420.02 724.112Z" fill="#1D1D1F"/>
<path d="M1430.84 726V703.6H1438.71C1440.29 703.6 1441.59 703.856 1442.62 704.368C1443.66 704.859 1444.44 705.541 1444.95 706.416C1445.46 707.269 1445.72 708.229 1445.72 709.296C1445.72 710.747 1445.32 711.888 1444.54 712.72C1443.77 713.552 1442.84 714.128 1441.75 714.448C1442.58 714.597 1443.34 714.928 1444.02 715.44C1444.71 715.952 1445.24 716.592 1445.62 717.36C1446.03 718.128 1446.23 718.971 1446.23 719.888C1446.23 721.019 1445.95 722.053 1445.4 722.992C1444.84 723.909 1444.02 724.645 1442.94 725.2C1441.85 725.733 1440.52 726 1438.97 726H1430.84ZM1433.53 713.392H1438.52C1439.95 713.392 1441.05 713.061 1441.82 712.4C1442.58 711.717 1442.97 710.779 1442.97 709.584C1442.97 708.453 1442.58 707.547 1441.82 706.864C1441.07 706.181 1439.94 705.84 1438.42 705.84H1433.53V713.392ZM1433.53 723.76H1438.68C1440.22 723.76 1441.4 723.408 1442.23 722.704C1443.06 721.979 1443.48 720.976 1443.48 719.696C1443.48 718.437 1443.04 717.435 1442.17 716.688C1441.29 715.92 1440.11 715.536 1438.62 715.536H1433.53V723.76Z" fill="#1D1D1F"/>
<path d="M1457.45 726.384C1456.15 726.384 1454.99 726.117 1453.96 725.584C1452.96 725.051 1452.19 724.304 1451.66 723.344L1451.4 726H1448.97V702.96H1451.66V712.752C1452.17 711.984 1452.89 711.291 1453.83 710.672C1454.79 710.053 1456.01 709.744 1457.48 709.744C1459.06 709.744 1460.44 710.107 1461.61 710.832C1462.78 711.557 1463.69 712.549 1464.33 713.808C1464.99 715.067 1465.32 716.496 1465.32 718.096C1465.32 719.696 1464.99 721.125 1464.33 722.384C1463.69 723.621 1462.77 724.603 1461.58 725.328C1460.4 726.032 1459.03 726.384 1457.45 726.384ZM1457.16 724.048C1458.23 724.048 1459.17 723.803 1459.98 723.312C1460.79 722.8 1461.43 722.096 1461.9 721.2C1462.37 720.304 1462.6 719.259 1462.6 718.064C1462.6 716.869 1462.37 715.824 1461.9 714.928C1461.43 714.032 1460.79 713.339 1459.98 712.848C1459.17 712.336 1458.23 712.08 1457.16 712.08C1456.09 712.08 1455.16 712.336 1454.35 712.848C1453.53 713.339 1452.89 714.032 1452.43 714.928C1451.96 715.824 1451.72 716.869 1451.72 718.064C1451.72 719.259 1451.96 720.304 1452.43 721.2C1452.89 722.096 1453.53 722.8 1454.35 723.312C1455.16 723.803 1456.09 724.048 1457.16 724.048Z" fill="#1D1D1F"/>
<path d="M1478.09 726.384C1475.89 726.384 1473.99 725.904 1472.39 724.944C1470.81 723.963 1469.59 722.608 1468.71 720.88C1467.84 719.131 1467.4 717.104 1467.4 714.8C1467.4 712.517 1467.84 710.512 1468.71 708.784C1469.59 707.035 1470.81 705.669 1472.39 704.688C1473.99 703.707 1475.89 703.216 1478.09 703.216C1480.65 703.216 1482.73 703.835 1484.33 705.072C1485.95 706.288 1486.98 707.995 1487.43 710.192H1484.45C1484.11 708.805 1483.41 707.696 1482.34 706.864C1481.3 706.011 1479.88 705.584 1478.09 705.584C1476.49 705.584 1475.09 705.957 1473.89 706.704C1472.7 707.429 1471.77 708.485 1471.11 709.872C1470.47 711.237 1470.15 712.88 1470.15 714.8C1470.15 716.72 1470.47 718.373 1471.11 719.76C1471.77 721.125 1472.7 722.181 1473.89 722.928C1475.09 723.653 1476.49 724.016 1478.09 724.016C1479.88 724.016 1481.3 723.611 1482.34 722.8C1483.41 721.968 1484.11 720.869 1484.45 719.504H1487.43C1486.98 721.659 1485.95 723.344 1484.33 724.56C1482.73 725.776 1480.65 726.384 1478.09 726.384Z" fill="#1D1D1F"/>
<path d="M1497.47 726.384C1495.96 726.384 1494.59 726.043 1493.37 725.36C1492.18 724.656 1491.23 723.685 1490.53 722.448C1489.84 721.189 1489.5 719.728 1489.5 718.064C1489.5 716.4 1489.84 714.949 1490.53 713.712C1491.23 712.453 1492.18 711.483 1493.37 710.8C1494.59 710.096 1495.96 709.744 1497.47 709.744C1499.35 709.744 1500.93 710.235 1502.21 711.216C1503.51 712.197 1504.33 713.509 1504.67 715.152H1501.92C1501.7 714.171 1501.18 713.413 1500.35 712.88C1499.52 712.325 1498.55 712.048 1497.44 712.048C1496.54 712.048 1495.7 712.272 1494.91 712.72C1494.12 713.168 1493.48 713.84 1492.99 714.736C1492.5 715.632 1492.25 716.741 1492.25 718.064C1492.25 719.387 1492.5 720.496 1492.99 721.392C1493.48 722.288 1494.12 722.971 1494.91 723.44C1495.7 723.888 1496.54 724.112 1497.44 724.112C1498.55 724.112 1499.52 723.845 1500.35 723.312C1501.18 722.757 1501.7 721.979 1501.92 720.976H1504.67C1504.35 722.576 1503.54 723.877 1502.24 724.88C1500.94 725.883 1499.35 726.384 1497.47 726.384Z" fill="#1D1D1F"/>
<path d="M1522.16 717.84V715.568H1545.46V717.84H1522.16Z" fill="#1D1D1F"/>
<path d="M1564.99 726.384C1563 726.384 1561.29 725.904 1559.84 724.944C1558.41 723.963 1557.31 722.608 1556.54 720.88C1555.77 719.131 1555.39 717.104 1555.39 714.8C1555.39 712.496 1555.77 710.48 1556.54 708.752C1557.31 707.003 1558.41 705.648 1559.84 704.688C1561.29 703.707 1563 703.216 1564.99 703.216C1566.97 703.216 1568.68 703.707 1570.11 704.688C1571.54 705.648 1572.64 707.003 1573.4 708.752C1574.17 710.48 1574.56 712.496 1574.56 714.8C1574.56 717.104 1574.17 719.131 1573.4 720.88C1572.64 722.608 1571.54 723.963 1570.11 724.944C1568.68 725.904 1566.97 726.384 1564.99 726.384ZM1564.99 724.016C1566.29 724.016 1567.45 723.653 1568.48 722.928C1569.52 722.181 1570.33 721.125 1570.91 719.76C1571.51 718.373 1571.8 716.72 1571.8 714.8C1571.8 712.88 1571.51 711.237 1570.91 709.872C1570.33 708.507 1569.52 707.461 1568.48 706.736C1567.45 705.989 1566.29 705.616 1564.99 705.616C1563.67 705.616 1562.49 705.989 1561.47 706.736C1560.44 707.461 1559.63 708.507 1559.04 709.872C1558.44 711.237 1558.14 712.88 1558.14 714.8C1558.14 716.72 1558.44 718.373 1559.04 719.76C1559.63 721.125 1560.44 722.181 1561.47 722.928C1562.49 723.653 1563.67 724.016 1564.99 724.016Z" fill="#1D1D1F"/>
<path d="M1579.69 726V706.608L1576.07 707.408V705.552L1580.58 703.6H1582.41V726H1579.69Z" fill="#1D1D1F"/>
<path d="M1585.82 726V724.112C1587.34 722.917 1588.77 721.712 1590.11 720.496C1591.48 719.259 1592.68 718.043 1593.73 716.848C1594.8 715.653 1595.63 714.48 1596.22 713.328C1596.84 712.176 1597.15 711.067 1597.15 710C1597.15 709.211 1597.01 708.475 1596.74 707.792C1596.48 707.109 1596.05 706.565 1595.46 706.16C1594.86 705.733 1594.05 705.52 1593.02 705.52C1592.04 705.52 1591.22 705.744 1590.56 706.192C1589.9 706.619 1589.4 707.195 1589.06 707.92C1588.74 708.645 1588.58 709.424 1588.58 710.256H1585.98C1585.98 708.784 1586.29 707.525 1586.91 706.48C1587.53 705.413 1588.37 704.603 1589.44 704.048C1590.51 703.493 1591.71 703.216 1593.06 703.216C1595.04 703.216 1596.66 703.781 1597.92 704.912C1599.2 706.021 1599.84 707.685 1599.84 709.904C1599.84 711.227 1599.51 712.539 1598.85 713.84C1598.19 715.12 1597.34 716.368 1596.32 717.584C1595.3 718.779 1594.2 719.899 1593.02 720.944C1591.87 721.989 1590.8 722.928 1589.79 723.76H1600.61V726H1585.82Z" fill="#1D1D1F"/>
<path d="M1610.67 726.16C1608.51 726.16 1606.71 725.584 1605.26 724.432C1603.83 723.28 1603.02 721.584 1602.83 719.344H1605.48C1605.65 720.645 1606.16 721.733 1607.02 722.608C1607.89 723.483 1609.12 723.92 1610.7 723.92C1612.25 723.92 1613.48 723.493 1614.38 722.64C1615.27 721.787 1615.72 720.603 1615.72 719.088C1615.72 717.552 1615.27 716.357 1614.38 715.504C1613.5 714.629 1612.29 714.192 1610.73 714.192H1607.53V712.304L1614.03 705.872H1604.27V703.6H1617.35V705.648L1610.73 712.144H1610.86C1613.2 712.144 1615.04 712.752 1616.36 713.968C1617.68 715.184 1618.35 716.901 1618.35 719.12C1618.35 721.275 1617.65 722.992 1616.27 724.272C1614.9 725.531 1613.03 726.16 1610.67 726.16Z" fill="#1D1D1F"/>
<path d="M1631.81 726V721.2H1620.45V719.12L1631.33 703.6H1634.46V718.832H1637.79V721.2H1634.46V726H1631.81ZM1623.42 718.832H1631.93V706.576L1623.42 718.832Z" fill="#1D1D1F"/>
<path d="M1645.9 728.784V726.32C1643.81 726.085 1642.16 725.339 1640.94 724.08C1639.73 722.821 1639.12 721.221 1639.12 719.28H1641.93C1641.93 720.411 1642.26 721.424 1642.93 722.32C1643.61 723.195 1644.6 723.76 1645.9 724.016V715.344C1645.75 715.301 1645.59 715.259 1645.42 715.216C1645.27 715.152 1645.12 715.099 1644.97 715.056C1643.25 714.459 1641.97 713.723 1641.13 712.848C1640.3 711.952 1639.89 710.789 1639.89 709.36C1639.86 707.696 1640.39 706.309 1641.45 705.2C1642.54 704.091 1644.02 703.451 1645.9 703.28V700.688H1648.11V703.28C1649.9 703.493 1651.33 704.165 1652.4 705.296C1653.46 706.427 1654.01 707.803 1654.03 709.424H1651.21C1651.21 708.635 1650.96 707.877 1650.45 707.152C1649.93 706.405 1649.16 705.904 1648.11 705.648V713.392C1648.28 713.435 1648.45 713.488 1648.62 713.552C1648.79 713.616 1648.97 713.669 1649.17 713.712C1650.23 714.096 1651.19 714.544 1652.05 715.056C1652.9 715.568 1653.56 716.229 1654.03 717.04C1654.52 717.851 1654.77 718.885 1654.77 720.144C1654.77 721.147 1654.52 722.096 1654.03 722.992C1653.54 723.888 1652.79 724.645 1651.79 725.264C1650.81 725.883 1649.58 726.245 1648.11 726.352V728.784H1645.9ZM1642.67 709.104C1642.67 710.085 1642.96 710.832 1643.53 711.344C1644.11 711.835 1644.9 712.261 1645.9 712.624V705.584C1644.94 705.733 1644.16 706.117 1643.57 706.736C1642.97 707.333 1642.67 708.123 1642.67 709.104ZM1651.98 720.304C1651.98 719.067 1651.62 718.149 1650.89 717.552C1650.17 716.955 1649.24 716.464 1648.11 716.08V724.08C1649.35 723.931 1650.3 723.504 1650.96 722.8C1651.64 722.096 1651.98 721.264 1651.98 720.304Z" fill="#1D1D1F"/>
<path d="M1661.65 714C1660.69 714 1659.82 713.787 1659.03 713.36C1658.26 712.912 1657.65 712.293 1657.2 711.504C1656.75 710.693 1656.53 709.733 1656.53 708.624C1656.53 707.515 1656.75 706.565 1657.2 705.776C1657.67 704.965 1658.29 704.347 1659.06 703.92C1659.85 703.472 1660.72 703.248 1661.68 703.248C1662.64 703.248 1663.51 703.472 1664.27 703.92C1665.04 704.347 1665.65 704.965 1666.1 705.776C1666.55 706.565 1666.77 707.515 1666.77 708.624C1666.77 709.733 1666.54 710.693 1666.07 711.504C1665.62 712.293 1665.01 712.912 1664.24 713.36C1663.47 713.787 1662.61 714 1661.65 714ZM1659.67 726L1672.69 703.6H1675.38L1662.35 726H1659.67ZM1661.65 711.92C1662.4 711.92 1663.05 711.643 1663.6 711.088C1664.18 710.533 1664.47 709.712 1664.47 708.624C1664.47 707.515 1664.19 706.683 1663.63 706.128C1663.08 705.552 1662.43 705.264 1661.68 705.264C1660.94 705.264 1660.26 705.552 1659.67 706.128C1659.09 706.683 1658.8 707.515 1658.8 708.624C1658.8 709.712 1659.09 710.533 1659.67 711.088C1660.24 711.643 1660.9 711.92 1661.65 711.92ZM1673.62 726.384C1672.66 726.384 1671.78 726.171 1670.99 725.744C1670.23 725.296 1669.62 724.677 1669.17 723.888C1668.72 723.077 1668.5 722.117 1668.5 721.008C1668.5 719.899 1668.72 718.949 1669.17 718.16C1669.64 717.349 1670.26 716.731 1671.03 716.304C1671.79 715.856 1672.66 715.632 1673.62 715.632C1674.58 715.632 1675.44 715.856 1676.21 716.304C1676.98 716.731 1677.59 717.349 1678.03 718.16C1678.48 718.949 1678.71 719.899 1678.71 721.008C1678.71 722.117 1678.48 723.077 1678.03 723.888C1677.59 724.677 1676.98 725.296 1676.21 725.744C1675.44 726.171 1674.58 726.384 1673.62 726.384ZM1673.59 724.304C1674.35 724.304 1675.02 724.027 1675.57 723.472C1676.15 722.917 1676.43 722.096 1676.43 721.008C1676.43 719.899 1676.16 719.067 1675.6 718.512C1675.05 717.957 1674.39 717.68 1673.62 717.68C1672.87 717.68 1672.21 717.957 1671.63 718.512C1671.06 719.067 1670.77 719.899 1670.77 721.008C1670.77 722.096 1671.05 722.917 1671.6 723.472C1672.18 724.027 1672.84 724.304 1673.59 724.304Z" fill="#1D1D1F"/>
<path d="M247.48 198V121H273.77C282.79 121 290.197 122.613 295.99 125.84C301.857 128.993 306.183 133.467 308.97 139.26C311.83 144.98 313.26 151.727 313.26 159.5C313.26 167.273 311.83 174.057 308.97 179.85C306.183 185.57 301.857 190.043 295.99 193.27C290.197 196.423 282.79 198 273.77 198H247.48ZM261.56 185.9H273.11C279.563 185.9 284.66 184.873 288.4 182.82C292.14 180.693 294.817 177.687 296.43 173.8C298.043 169.84 298.85 165.073 298.85 159.5C298.85 154 298.043 149.27 296.43 145.31C294.817 141.35 292.14 138.307 288.4 136.18C284.66 134.053 279.563 132.99 273.11 132.99H261.56V185.9Z" fill="white"/>
<path d="M321.283 198V121H338.003L362.533 169.84L386.733 121H403.453V198H389.373V144.87L367.923 187H356.813L335.363 144.87V198H321.283Z" fill="white"/>
<path d="M462.093 199.32C456.447 199.32 451.46 198.367 447.133 196.46C442.807 194.48 439.397 191.693 436.903 188.1C434.41 184.433 433.127 179.997 433.053 174.79H447.903C448.05 178.383 449.333 181.427 451.753 183.92C454.247 186.34 457.657 187.55 461.983 187.55C465.723 187.55 468.693 186.67 470.893 184.91C473.093 183.077 474.193 180.657 474.193 177.65C474.193 174.497 473.203 172.04 471.223 170.28C469.317 168.52 466.75 167.09 463.523 165.99C460.297 164.89 456.85 163.717 453.183 162.47C447.243 160.417 442.697 157.777 439.543 154.55C436.463 151.323 434.923 147.033 434.923 141.68C434.85 137.133 435.913 133.247 438.113 130.02C440.387 126.72 443.467 124.19 447.353 122.43C451.24 120.597 455.713 119.68 460.773 119.68C465.907 119.68 470.417 120.597 474.303 122.43C478.263 124.263 481.343 126.83 483.543 130.13C485.817 133.43 487.027 137.353 487.173 141.9H472.103C472.03 139.187 470.967 136.803 468.913 134.75C466.933 132.623 464.147 131.56 460.553 131.56C457.473 131.487 454.87 132.257 452.743 133.87C450.69 135.41 449.663 137.683 449.663 140.69C449.663 143.257 450.47 145.31 452.083 146.85C453.697 148.317 455.897 149.563 458.683 150.59C461.47 151.617 464.66 152.717 468.253 153.89C472.067 155.21 475.55 156.75 478.703 158.51C481.857 160.27 484.387 162.617 486.293 165.55C488.2 168.41 489.153 172.113 489.153 176.66C489.153 180.693 488.127 184.433 486.073 187.88C484.02 191.327 480.977 194.113 476.943 196.24C472.91 198.293 467.96 199.32 462.093 199.32Z" fill="white"/>
<path d="M515.518 199.32C510.825 199.32 506.975 198.587 503.968 197.12C500.962 195.58 498.725 193.563 497.258 191.07C495.792 188.577 495.058 185.827 495.058 182.82C495.058 177.76 497.038 173.653 500.998 170.5C504.958 167.347 510.898 165.77 518.818 165.77H532.678V164.45C532.678 160.71 531.615 157.96 529.488 156.2C527.361 154.44 524.722 153.56 521.568 153.56C518.708 153.56 516.215 154.257 514.088 155.65C511.961 156.97 510.642 158.95 510.128 161.59H496.378C496.745 157.63 498.065 154.183 500.338 151.25C502.685 148.317 505.691 146.08 509.358 144.54C513.025 142.927 517.131 142.12 521.678 142.12C529.451 142.12 535.575 144.063 540.048 147.95C544.521 151.837 546.758 157.337 546.758 164.45V198H534.768L533.448 189.2C531.835 192.133 529.562 194.553 526.628 196.46C523.768 198.367 520.065 199.32 515.518 199.32ZM518.708 188.32C522.741 188.32 525.858 187 528.058 184.36C530.331 181.72 531.762 178.457 532.348 174.57H520.358C516.618 174.57 513.941 175.267 512.328 176.66C510.715 177.98 509.908 179.63 509.908 181.61C509.908 183.737 510.715 185.387 512.328 186.56C513.941 187.733 516.068 188.32 518.708 188.32Z" fill="white"/>
<path d="M555.794 198V143.44H568.224L569.324 152.68C571.011 149.453 573.431 146.887 576.585 144.98C579.811 143.073 583.588 142.12 587.914 142.12C594.661 142.12 599.905 144.247 603.645 148.5C607.385 152.753 609.254 158.987 609.254 167.2V198H595.174V168.52C595.174 163.827 594.221 160.233 592.315 157.74C590.408 155.247 587.438 154 583.405 154C579.445 154 576.181 155.393 573.615 158.18C571.121 160.967 569.875 164.853 569.875 169.84V198H555.794Z" fill="white"/>
<path d="M640.868 199.32C636.028 199.32 631.775 198.55 628.108 197.01C624.442 195.397 621.508 193.197 619.308 190.41C617.108 187.623 615.788 184.397 615.348 180.73H629.538C629.978 182.857 631.152 184.69 633.058 186.23C635.038 187.697 637.568 188.43 640.648 188.43C643.728 188.43 645.965 187.807 647.358 186.56C648.825 185.313 649.558 183.883 649.558 182.27C649.558 179.923 648.532 178.347 646.478 177.54C644.425 176.66 641.565 175.817 637.898 175.01C635.552 174.497 633.168 173.873 630.748 173.14C628.328 172.407 626.092 171.49 624.038 170.39C622.058 169.217 620.445 167.75 619.198 165.99C617.952 164.157 617.328 161.92 617.328 159.28C617.328 154.44 619.235 150.37 623.048 147.07C626.935 143.77 632.362 142.12 639.328 142.12C645.782 142.12 650.915 143.623 654.728 146.63C658.615 149.637 660.925 153.78 661.658 159.06H648.348C647.542 155.027 644.498 153.01 639.218 153.01C636.578 153.01 634.525 153.523 633.058 154.55C631.665 155.577 630.968 156.86 630.968 158.4C630.968 160.013 632.032 161.297 634.158 162.25C636.285 163.203 639.108 164.083 642.628 164.89C646.442 165.77 649.925 166.76 653.078 167.86C656.305 168.887 658.872 170.463 660.778 172.59C662.685 174.643 663.638 177.613 663.638 181.5C663.712 184.873 662.832 187.917 660.998 190.63C659.165 193.343 656.525 195.47 653.078 197.01C649.632 198.55 645.562 199.32 640.868 199.32Z" fill="white"/>
<path d="M243.3 724L271.68 647H281.47L309.74 724H299.95L292.91 704.2H260.13L252.98 724H243.3ZM262.88 696.72H290.16L276.52 658.66L262.88 696.72Z" fill="white"/>
<path d="M334.438 725.32C329.892 725.32 326.115 724.55 323.108 723.01C320.102 721.47 317.865 719.417 316.398 716.85C314.932 714.283 314.198 711.497 314.198 708.49C314.198 702.917 316.325 698.627 320.578 695.62C324.832 692.613 330.625 691.11 337.958 691.11H352.698V690.45C352.698 685.683 351.452 682.09 348.958 679.67C346.465 677.177 343.128 675.93 338.948 675.93C335.355 675.93 332.238 676.847 329.598 678.68C327.032 680.44 325.418 683.043 324.758 686.49H315.298C315.665 682.53 316.985 679.193 319.258 676.48C321.605 673.767 324.502 671.713 327.948 670.32C331.395 668.853 335.062 668.12 338.948 668.12C346.575 668.12 352.295 670.173 356.108 674.28C359.995 678.313 361.938 683.703 361.938 690.45V724H353.688L353.138 714.21C351.598 717.29 349.325 719.93 346.318 722.13C343.385 724.257 339.425 725.32 334.438 725.32ZM335.868 717.51C339.388 717.51 342.395 716.593 344.888 714.76C347.455 712.927 349.398 710.543 350.718 707.61C352.038 704.677 352.698 701.597 352.698 698.37V698.26H338.728C333.302 698.26 329.452 699.213 327.178 701.12C324.978 702.953 323.878 705.263 323.878 708.05C323.878 710.91 324.905 713.22 326.958 714.98C329.085 716.667 332.055 717.51 335.868 717.51Z" fill="white"/>
<path d="M374.15 724V647H401.21C406.637 647 411.11 647.88 414.63 649.64C418.224 651.327 420.9 653.673 422.66 656.68C424.42 659.613 425.3 662.913 425.3 666.58C425.3 671.567 423.944 675.49 421.23 678.35C418.59 681.21 415.4 683.19 411.66 684.29C414.52 684.803 417.124 685.94 419.47 687.7C421.817 689.46 423.65 691.66 424.97 694.3C426.364 696.94 427.06 699.837 427.06 702.99C427.06 706.877 426.107 710.433 424.2 713.66C422.294 716.813 419.47 719.343 415.73 721.25C411.99 723.083 407.444 724 402.09 724H374.15ZM383.39 680.66H400.55C405.464 680.66 409.24 679.523 411.88 677.25C414.52 674.903 415.84 671.677 415.84 667.57C415.84 663.683 414.52 660.567 411.88 658.22C409.314 655.873 405.427 654.7 400.22 654.7H383.39V680.66ZM383.39 716.3H401.1C406.38 716.3 410.45 715.09 413.31 712.67C416.17 710.177 417.6 706.73 417.6 702.33C417.6 698.003 416.097 694.557 413.09 691.99C410.084 689.35 406.014 688.03 400.88 688.03H383.39V716.3Z" fill="white"/>
<path d="M466.722 725.32C462.249 725.32 458.252 724.403 454.732 722.57C451.285 720.737 448.645 718.17 446.812 714.87L445.932 724H437.572V644.8H446.812V678.46C448.572 675.82 451.065 673.437 454.292 671.31C457.592 669.183 461.772 668.12 466.832 668.12C472.259 668.12 476.989 669.367 481.022 671.86C485.055 674.353 488.172 677.763 490.372 682.09C492.645 686.417 493.782 691.33 493.782 696.83C493.782 702.33 492.645 707.243 490.372 711.57C488.172 715.823 485.019 719.197 480.912 721.69C476.879 724.11 472.149 725.32 466.722 725.32ZM465.732 717.29C469.399 717.29 472.625 716.447 475.412 714.76C478.199 713 480.399 710.58 482.012 707.5C483.625 704.42 484.432 700.827 484.432 696.72C484.432 692.613 483.625 689.02 482.012 685.94C480.399 682.86 478.199 680.477 475.412 678.79C472.625 677.03 469.399 676.15 465.732 676.15C462.065 676.15 458.839 677.03 456.052 678.79C453.265 680.477 451.065 682.86 449.452 685.94C447.839 689.02 447.032 692.613 447.032 696.72C447.032 700.827 447.839 704.42 449.452 707.5C451.065 710.58 453.265 713 456.052 714.76C458.839 716.447 462.065 717.29 465.732 717.29Z" fill="white"/>
<path d="M538.764 725.32C531.211 725.32 524.684 723.67 519.184 720.37C513.758 716.997 509.541 712.34 506.534 706.4C503.528 700.387 502.024 693.42 502.024 685.5C502.024 677.653 503.528 670.76 506.534 664.82C509.541 658.807 513.758 654.113 519.184 650.74C524.684 647.367 531.211 645.68 538.764 645.68C547.564 645.68 554.714 647.807 560.214 652.06C565.788 656.24 569.344 662.107 570.884 669.66H560.654C559.481 664.893 557.061 661.08 553.394 658.22C549.801 655.287 544.924 653.82 538.764 653.82C533.264 653.82 528.461 655.103 524.354 657.67C520.248 660.163 517.058 663.793 514.784 668.56C512.584 673.253 511.484 678.9 511.484 685.5C511.484 692.1 512.584 697.783 514.784 702.55C517.058 707.243 520.248 710.873 524.354 713.44C528.461 715.933 533.264 717.18 538.764 717.18C544.924 717.18 549.801 715.787 553.394 713C557.061 710.14 559.481 706.363 560.654 701.67H570.884C569.344 709.077 565.788 714.87 560.214 719.05C554.714 723.23 547.564 725.32 538.764 725.32Z" fill="white"/>
<path d="M606.494 725.32C601.288 725.32 596.594 724.147 592.414 721.8C588.308 719.38 585.044 716.043 582.624 711.79C580.278 707.463 579.104 702.44 579.104 696.72C579.104 691 580.278 686.013 582.624 681.76C585.044 677.433 588.308 674.097 592.414 671.75C596.594 669.33 601.288 668.12 606.494 668.12C612.948 668.12 618.374 669.807 622.774 673.18C627.248 676.553 630.071 681.063 631.244 686.71H621.784C621.051 683.337 619.254 680.733 616.394 678.9C613.534 676.993 610.198 676.04 606.384 676.04C603.304 676.04 600.408 676.81 597.694 678.35C594.981 679.89 592.781 682.2 591.094 685.28C589.408 688.36 588.564 692.173 588.564 696.72C588.564 701.267 589.408 705.08 591.094 708.16C592.781 711.24 594.981 713.587 597.694 715.2C600.408 716.74 603.304 717.51 606.384 717.51C610.198 717.51 613.534 716.593 616.394 714.76C619.254 712.853 621.051 710.177 621.784 706.73H631.244C630.144 712.23 627.358 716.703 622.884 720.15C618.411 723.597 612.948 725.32 606.494 725.32Z" fill="white"/>
<path d="M278.17 829.32C271.35 829.32 265.447 827.67 260.46 824.37C255.547 820.997 251.77 816.34 249.13 810.4C246.49 804.387 245.17 797.42 245.17 789.5C245.17 781.58 246.49 774.65 249.13 768.71C251.77 762.697 255.547 758.04 260.46 754.74C265.447 751.367 271.35 749.68 278.17 749.68C284.99 749.68 290.857 751.367 295.77 754.74C300.683 758.04 304.46 762.697 307.1 768.71C309.74 774.65 311.06 781.58 311.06 789.5C311.06 797.42 309.74 804.387 307.1 810.4C304.46 816.34 300.683 820.997 295.77 824.37C290.857 827.67 284.99 829.32 278.17 829.32ZM278.17 821.18C282.643 821.18 286.64 819.933 290.16 817.44C293.753 814.873 296.54 811.243 298.52 806.55C300.573 801.783 301.6 796.1 301.6 789.5C301.6 782.9 300.573 777.253 298.52 772.56C296.54 767.867 293.753 764.273 290.16 761.78C286.64 759.213 282.643 757.93 278.17 757.93C273.623 757.93 269.59 759.213 266.07 761.78C262.55 764.273 259.763 767.867 257.71 772.56C255.657 777.253 254.63 782.9 254.63 789.5C254.63 796.1 255.657 801.783 257.71 806.55C259.763 811.243 262.55 814.873 266.07 817.44C269.59 819.933 273.623 821.18 278.17 821.18Z" fill="white"/>
<path d="M329.8 828V761.34L317.37 764.09V757.71L332.88 751H339.15V828H329.8Z" fill="white"/>
<path d="M351.993 828V821.51C357.2 817.403 362.113 813.26 366.733 809.08C371.426 804.827 375.57 800.647 379.163 796.54C382.83 792.433 385.69 788.4 387.743 784.44C389.87 780.48 390.933 776.667 390.933 773C390.933 770.287 390.456 767.757 389.503 765.41C388.623 763.063 387.156 761.193 385.103 759.8C383.05 758.333 380.263 757.6 376.743 757.6C373.37 757.6 370.546 758.37 368.273 759.91C366 761.377 364.276 763.357 363.103 765.85C362.003 768.343 361.453 771.02 361.453 773.88H352.543C352.543 768.82 353.606 764.493 355.733 760.9C357.86 757.233 360.756 754.447 364.423 752.54C368.09 750.633 372.233 749.68 376.853 749.68C383.673 749.68 389.246 751.623 393.573 755.51C397.973 759.323 400.173 765.043 400.173 772.67C400.173 777.217 399.036 781.727 396.763 786.2C394.49 790.6 391.593 794.89 388.073 799.07C384.553 803.177 380.776 807.027 376.743 810.62C372.783 814.213 369.08 817.44 365.633 820.3H402.813V828H351.993Z" fill="white"/>
<path d="M438.482 828.55C431.075 828.55 424.879 826.57 419.892 822.61C414.979 818.65 412.192 812.82 411.532 805.12H420.662C421.249 809.593 423.009 813.333 425.942 816.34C428.949 819.347 433.165 820.85 438.592 820.85C443.945 820.85 448.162 819.383 451.242 816.45C454.322 813.517 455.862 809.447 455.862 804.24C455.862 798.96 454.322 794.853 451.242 791.92C448.235 788.913 444.055 787.41 438.702 787.41H427.702V780.92L450.032 758.81H416.482V751H461.472V758.04L438.702 780.37H439.142C447.209 780.37 453.515 782.46 458.062 786.64C462.609 790.82 464.882 796.723 464.882 804.35C464.882 811.757 462.499 817.66 457.732 822.06C453.039 826.387 446.622 828.55 438.482 828.55Z" fill="white"/>
<path d="M512.257 828V811.5H473.207V804.35L510.607 751H521.387V803.36H532.827V811.5H521.387V828H512.257ZM483.437 803.36H512.697V761.23L483.437 803.36Z" fill="white"/>
<path d="M567.968 829.32C562.688 829.32 558.105 828.367 554.218 826.46C550.332 824.553 547.215 821.95 544.868 818.65C542.595 815.277 541.202 811.463 540.688 807.21H549.708C550.588 811.463 552.642 814.91 555.868 817.55C559.095 820.117 563.165 821.4 568.078 821.4C571.745 821.4 574.898 820.557 577.538 818.87C580.178 817.11 582.195 814.763 583.588 811.83C585.055 808.897 585.788 805.633 585.788 802.04C585.788 796.32 584.175 791.7 580.948 788.18C577.722 784.66 573.542 782.9 568.408 782.9C564.155 782.9 560.525 783.853 557.518 785.76C554.512 787.667 552.312 790.16 550.918 793.24H542.118L548.718 751H589.088V759.03H555.868L551.358 782.46C553.118 780.333 555.538 778.573 558.618 777.18C561.772 775.787 565.365 775.09 569.398 775.09C574.458 775.09 578.858 776.263 582.598 778.61C586.412 780.957 589.382 784.147 591.508 788.18C593.635 792.213 594.698 796.797 594.698 801.93C594.698 806.843 593.635 811.39 591.508 815.57C589.455 819.75 586.412 823.087 582.378 825.58C578.418 828.073 573.615 829.32 567.968 829.32Z" fill="white"/>
<path d="M631.362 829.32C625.862 829.32 621.059 828.147 616.952 825.8C612.845 823.38 609.655 820.153 607.382 816.12C605.182 812.087 604.082 807.54 604.082 802.48C604.082 798.593 604.705 794.817 605.952 791.15C607.272 787.41 609.325 783.523 612.112 779.49L631.252 751H642.142L623.662 778.06C625.055 777.62 626.485 777.253 627.952 776.96C629.419 776.667 630.959 776.52 632.572 776.52C637.779 776.52 642.289 777.62 646.102 779.82C649.989 781.947 653.032 784.99 655.232 788.95C657.432 792.837 658.532 797.347 658.532 802.48C658.532 807.76 657.359 812.417 655.012 816.45C652.739 820.483 649.549 823.637 645.442 825.91C641.409 828.183 636.715 829.32 631.362 829.32ZM631.362 820.85C636.862 820.85 641.225 819.2 644.452 815.9C647.679 812.527 649.292 808.09 649.292 802.59C649.292 797.09 647.679 792.653 644.452 789.28C641.225 785.907 636.862 784.22 631.362 784.22C625.935 784.22 621.572 785.907 618.272 789.28C615.045 792.58 613.432 796.98 613.432 802.48C613.432 807.98 615.045 812.417 618.272 815.79C621.572 819.163 625.935 820.85 631.362 820.85Z" fill="white"/>
<path d="M677.542 828L682.272 806.33H666.652V798.08H684.032L687.772 780.15H671.272V772.01H689.532L694.152 750.34H702.952L698.332 772.01H721.982L726.602 750.34H735.292L730.672 772.01H745.962V780.15H728.912L725.172 798.08H741.122V806.33H723.412L718.682 828H709.882L714.612 806.33H690.962L686.342 828H677.542ZM692.722 798.08H716.372L720.222 780.15H696.572L692.722 798.08Z" fill="white"/>
<path d="M777.142 837.57V829.1C769.955 828.293 764.272 825.727 760.092 821.4C755.912 817.073 753.822 811.573 753.822 804.9H763.502C763.502 808.787 764.639 812.27 766.912 815.35C769.259 818.357 772.669 820.3 777.142 821.18V791.37C776.629 791.223 776.079 791.077 775.492 790.93C774.979 790.71 774.465 790.527 773.952 790.38C768.012 788.327 763.612 785.797 760.752 782.79C757.892 779.71 756.462 775.713 756.462 770.8C756.389 765.08 758.185 760.313 761.852 756.5C765.592 752.687 770.689 750.487 777.142 749.9V740.99H784.732V749.9C790.892 750.633 795.805 752.943 799.472 756.83C803.139 760.717 805.009 765.447 805.082 771.02H795.402C795.402 768.307 794.522 765.703 792.762 763.21C791.002 760.643 788.325 758.92 784.732 758.04V784.66C785.319 784.807 785.905 784.99 786.492 785.21C787.079 785.43 787.702 785.613 788.362 785.76C792.029 787.08 795.329 788.62 798.262 790.38C801.195 792.14 803.469 794.413 805.082 797.2C806.769 799.987 807.612 803.543 807.612 807.87C807.612 811.317 806.769 814.58 805.082 817.66C803.395 820.74 800.829 823.343 797.382 825.47C794.009 827.597 789.792 828.843 784.732 829.21V837.57H777.142ZM766.032 769.92C766.032 773.293 767.022 775.86 769.002 777.62C770.982 779.307 773.695 780.773 777.142 782.02V757.82C773.842 758.333 771.165 759.653 769.112 761.78C767.059 763.833 766.032 766.547 766.032 769.92ZM798.042 808.42C798.042 804.167 796.795 801.013 794.302 798.96C791.809 796.907 788.619 795.22 784.732 793.9V821.4C788.985 820.887 792.249 819.42 794.522 817C796.869 814.58 798.042 811.72 798.042 808.42Z" fill="white"/>
<path d="M819.946 806.66L818.846 751H828.856L827.756 806.66H819.946ZM824.126 828.55C822.293 828.55 820.753 827.963 819.506 826.79C818.333 825.543 817.746 824.04 817.746 822.28C817.746 820.52 818.333 819.053 819.506 817.88C820.753 816.633 822.293 816.01 824.126 816.01C825.886 816.01 827.353 816.633 828.526 817.88C829.773 819.053 830.396 820.52 830.396 822.28C830.396 824.04 829.773 825.543 828.526 826.79C827.353 827.963 825.886 828.55 824.126 828.55Z" fill="white"/>
</svg>
