<svg width="1920" height="484" viewBox="0 0 1920 484" fill="none" xmlns="http://www.w3.org/2000/svg">
<rect width="1920" height="484" fill="#E3E6F7"/>
<g opacity="0.3">
<path d="M904.682 386C903.945 386 903.276 385.836 902.676 385.508C902.083 385.18 901.615 384.719 901.27 384.127C900.934 383.534 900.766 382.861 900.766 382.108V377.592H902.447V382.108C902.447 382.557 902.543 382.949 902.736 383.286C902.928 383.614 903.192 383.87 903.529 384.054C903.873 384.231 904.257 384.319 904.682 384.319C905.106 384.319 905.487 384.231 905.823 384.054C906.159 383.87 906.424 383.614 906.616 383.286C906.808 382.949 906.904 382.557 906.904 382.108V377.592H908.586V382.108C908.586 382.861 908.418 383.534 908.081 384.127C907.745 384.719 907.276 385.18 906.676 385.508C906.083 385.836 905.418 386 904.682 386Z" fill="#181819"/>
<path d="M912.169 377.592H913.85V386H912.169V377.592Z" fill="#181819"/>
<path d="M925.81 386.145C925.25 386.145 924.761 386.041 924.345 385.832C923.936 385.624 923.62 385.332 923.396 384.955C923.171 384.571 923.059 384.127 923.059 383.622C923.059 383.093 923.183 382.649 923.432 382.289C923.68 381.928 924.032 381.6 924.489 381.304L924.381 381.183C924.148 380.919 923.968 380.655 923.84 380.391C923.72 380.126 923.66 379.83 923.66 379.502C923.66 379.117 923.752 378.769 923.936 378.457C924.12 378.144 924.385 377.896 924.729 377.712C925.073 377.528 925.478 377.436 925.942 377.436C926.607 377.436 927.14 377.628 927.54 378.012C927.948 378.389 928.153 378.893 928.153 379.526C928.153 379.982 928.044 380.379 927.828 380.715C927.612 381.043 927.316 381.34 926.939 381.604L928.165 382.913C928.381 382.561 928.581 382.172 928.765 381.748L930.099 382.529C929.826 383.162 929.55 383.678 929.27 384.078L930.075 384.943L928.909 386.061L928.177 385.268C927.472 385.852 926.683 386.145 925.81 386.145ZM925.894 380.523C926.11 380.379 926.275 380.23 926.387 380.078C926.507 379.918 926.567 379.742 926.567 379.55C926.567 379.342 926.507 379.181 926.387 379.069C926.275 378.949 926.126 378.889 925.942 378.889C925.758 378.889 925.606 378.949 925.486 379.069C925.366 379.181 925.306 379.33 925.306 379.514C925.306 379.754 925.422 379.998 925.654 380.246L925.894 380.523ZM925.846 384.571C926.303 384.571 926.711 384.415 927.071 384.102L925.498 382.385C925.218 382.569 925.009 382.749 924.873 382.925C924.737 383.093 924.669 383.298 924.669 383.538C924.669 383.85 924.769 384.102 924.969 384.295C925.177 384.479 925.47 384.571 925.846 384.571Z" fill="#181819"/>
<path d="M943.234 386C942.497 386 941.828 385.836 941.227 385.508C940.635 385.18 940.166 384.719 939.822 384.127C939.486 383.534 939.318 382.861 939.318 382.108V377.592H940.999V382.108C940.999 382.557 941.095 382.949 941.288 383.286C941.48 383.614 941.744 383.87 942.08 384.054C942.425 384.231 942.809 384.319 943.234 384.319C943.658 384.319 944.038 384.231 944.375 384.054C944.711 383.87 944.975 383.614 945.168 383.286C945.36 382.949 945.456 382.557 945.456 382.108V377.592H947.138V382.108C947.138 382.861 946.969 383.534 946.633 384.127C946.297 384.719 945.828 385.18 945.228 385.508C944.635 385.836 943.97 386 943.234 386Z" fill="#181819"/>
<path d="M953.175 381.796L949.776 377.592H951.938L954.256 380.451L956.575 377.592H958.749L955.349 381.796L958.749 386H956.575L954.256 383.141L951.95 386H949.776L953.175 381.796Z" fill="#181819"/>
<path d="M966.972 377.592H970.023C970.808 377.592 971.513 377.776 972.137 378.144C972.762 378.505 973.25 379.005 973.603 379.646C973.963 380.279 974.143 380.995 974.143 381.796C974.143 382.597 973.963 383.318 973.603 383.958C973.25 384.591 972.762 385.092 972.137 385.46C971.513 385.82 970.808 386 970.023 386H966.972V377.592ZM970.023 384.319C970.496 384.319 970.916 384.211 971.284 383.994C971.653 383.778 971.941 383.478 972.149 383.093C972.358 382.709 972.462 382.277 972.462 381.796C972.462 381.316 972.358 380.883 972.149 380.499C971.941 380.114 971.653 379.814 971.284 379.598C970.916 379.382 970.496 379.273 970.023 379.273H968.654V384.319H970.023Z" fill="#181819"/>
<path d="M977.444 377.592H982.873V379.273H979.125V380.955H982.873V382.637H979.125V384.319H982.873V386H977.444V377.592Z" fill="#181819"/>
<path d="M988.804 386C988.059 386 987.439 385.816 986.942 385.448C986.454 385.072 986.133 384.547 985.981 383.874L987.495 383.25C987.655 383.962 988.091 384.319 988.804 384.319C989.125 384.319 989.373 384.259 989.549 384.139C989.733 384.01 989.825 383.826 989.825 383.586C989.825 383.41 989.777 383.27 989.681 383.166C989.585 383.053 989.437 382.953 989.237 382.865C989.036 382.777 988.724 382.661 988.3 382.517C987.587 382.269 987.034 381.956 986.642 381.58C986.258 381.195 986.065 380.679 986.065 380.03C986.065 379.285 986.31 378.693 986.798 378.252C987.295 377.812 987.951 377.592 988.768 377.592C989.513 377.592 990.13 377.78 990.618 378.156C991.115 378.525 991.439 379.045 991.591 379.718L990.078 380.343C989.997 379.982 989.849 379.714 989.633 379.538C989.425 379.362 989.137 379.273 988.768 379.273C988.448 379.273 988.196 379.338 988.011 379.466C987.835 379.586 987.747 379.766 987.747 380.006C987.747 380.182 987.795 380.327 987.891 380.439C987.987 380.543 988.136 380.639 988.336 380.727C988.536 380.815 988.848 380.931 989.273 381.075C989.985 381.324 990.534 381.64 990.918 382.024C991.311 382.401 991.507 382.913 991.507 383.562C991.507 384.307 991.259 384.899 990.762 385.34C990.274 385.78 989.621 386 988.804 386Z" fill="#181819"/>
<path d="M994.927 377.592H996.609V386H994.927V377.592Z" fill="#181819"/>
<path d="M999.909 381.808C999.909 381.007 1000.09 380.287 1000.44 379.646C1000.8 379.005 1001.3 378.505 1001.95 378.144C1002.6 377.776 1003.34 377.592 1004.19 377.592C1004.78 377.592 1005.34 377.692 1005.87 377.892C1006.4 378.084 1006.87 378.381 1007.27 378.781L1006.46 380.343C1005.84 379.63 1005.05 379.273 1004.1 379.273C1003.61 379.273 1003.18 379.382 1002.79 379.598C1002.42 379.806 1002.12 380.102 1001.9 380.487C1001.69 380.871 1001.59 381.308 1001.59 381.796C1001.59 382.293 1001.69 382.733 1001.9 383.117C1002.12 383.502 1002.42 383.802 1002.8 384.018C1003.2 384.227 1003.64 384.331 1004.15 384.331C1004.64 384.331 1005.08 384.207 1005.48 383.958C1005.88 383.702 1006.13 383.342 1006.23 382.877H1003.87V381.195H1008.16V381.748C1008.16 382.637 1007.99 383.402 1007.63 384.042C1007.28 384.683 1006.8 385.172 1006.19 385.508C1005.59 385.836 1004.92 386 1004.19 386C1003.35 386 1002.61 385.82 1001.96 385.46C1001.31 385.1 1000.81 384.603 1000.45 383.97C1000.09 383.33 999.909 382.609 999.909 381.808Z" fill="#181819"/>
<path d="M1011.35 377.592H1012.82L1017.36 383.117V377.592H1019.04V386H1017.58L1013.04 380.475V386H1011.35V377.592Z" fill="#181819"/>
</g>
<path d="M557.582 254.944V240.832H563.518L572.814 254.944H580.71L570.798 240.272C572.142 239.936 573.318 239.376 574.438 238.592C575.502 237.864 576.454 236.968 577.238 235.96C578.022 234.896 578.582 233.72 579.03 232.432C579.422 231.144 579.59 229.8 579.59 228.344C579.59 226.552 579.31 224.872 578.694 223.36C578.022 221.848 577.182 220.504 576.062 219.384C574.942 218.264 573.598 217.424 572.03 216.752C570.462 216.136 568.726 215.8 566.878 215.8H551.254V254.944H557.582ZM571.526 232.712C570.406 233.888 568.838 234.504 566.878 234.504H557.582V222.184H566.878C568.838 222.184 570.406 222.8 571.526 223.976C572.702 225.152 573.262 226.608 573.262 228.344C573.262 230.08 572.702 231.536 571.526 232.712Z" fill="#030E2E"/>
<path d="M584.061 241.112C584.061 243.296 584.397 245.256 585.125 246.992C585.797 248.784 586.749 250.296 588.037 251.584C589.269 252.872 590.781 253.88 592.629 254.608C594.421 255.336 596.437 255.672 598.677 255.672C601.309 255.672 603.549 255.224 605.397 254.272C607.245 253.376 608.701 252.368 609.877 251.248L607.021 246.376C606.069 247.384 604.893 248.224 603.493 248.952C602.093 249.68 600.469 250.016 598.621 250.016C597.613 250.016 596.661 249.848 595.709 249.568C594.757 249.288 593.861 248.84 593.133 248.224C592.349 247.664 591.733 246.936 591.229 246.04C590.725 245.144 590.389 244.08 590.221 242.904V242.848H611.725V241.112C611.725 238.928 611.445 236.968 610.829 235.12C610.213 233.328 609.373 231.76 608.197 230.472C607.021 229.184 605.621 228.12 603.941 227.392C602.205 226.664 600.301 226.328 598.117 226.328C595.933 226.328 594.029 226.72 592.293 227.448C590.557 228.232 589.045 229.296 587.869 230.64C586.637 231.984 585.685 233.552 585.069 235.344C584.397 237.136 584.061 239.04 584.061 241.112ZM605.117 238.256H590.277C590.669 236.24 591.453 234.616 592.741 233.44C594.029 232.264 595.765 231.704 598.005 231.704C600.189 231.704 601.925 232.32 603.101 233.496C604.277 234.728 604.949 236.296 605.117 238.256Z" fill="#030E2E"/>
<path d="M616.364 218.936C616.364 220.112 616.756 221.12 617.596 221.96C618.436 222.8 619.444 223.192 620.62 223.192C621.796 223.192 622.804 222.8 623.644 221.96C624.484 221.12 624.876 220.112 624.876 218.936C624.876 217.76 624.484 216.752 623.644 215.912C622.804 215.072 621.796 214.68 620.62 214.68C619.444 214.68 618.436 215.072 617.596 215.912C616.756 216.752 616.364 217.76 616.364 218.936ZM623.644 227H617.596V255H623.644V227Z" fill="#030E2E"/>
<path d="M637.646 230.864V227H631.766V255H637.814V241.784C637.814 240.384 637.926 239.04 638.206 237.864C638.43 236.688 638.822 235.624 639.382 234.784C639.942 233.944 640.67 233.272 641.622 232.768C642.518 232.264 643.638 232.04 644.982 232.04C646.774 232.04 648.23 232.6 649.294 233.72C650.358 234.84 650.862 236.576 650.862 238.872V255H657.022V238.088C657.022 236.296 656.798 234.672 656.406 233.216C656.014 231.816 655.398 230.584 654.558 229.52C653.718 228.512 652.654 227.728 651.366 227.168C650.078 226.608 648.566 226.328 646.83 226.328C644.87 226.328 643.134 226.72 641.566 227.504C639.998 228.288 638.71 229.408 637.646 230.864Z" fill="#030E2E"/>
<path d="M673.937 255H678.641L691.073 227H684.185L676.289 246.432L668.393 227H661.505L673.937 255Z" fill="#030E2E"/>
<path d="M693.488 241.112C693.488 243.296 693.824 245.256 694.552 246.992C695.224 248.784 696.176 250.296 697.464 251.584C698.696 252.872 700.208 253.88 702.056 254.608C703.848 255.336 705.864 255.672 708.104 255.672C710.736 255.672 712.976 255.224 714.824 254.272C716.672 253.376 718.128 252.368 719.304 251.248L716.448 246.376C715.496 247.384 714.32 248.224 712.92 248.952C711.52 249.68 709.896 250.016 708.048 250.016C707.04 250.016 706.088 249.848 705.136 249.568C704.184 249.288 703.288 248.84 702.56 248.224C701.776 247.664 701.16 246.936 700.656 246.04C700.152 245.144 699.816 244.08 699.648 242.904V242.848H721.152V241.112C721.152 238.928 720.872 236.968 720.256 235.12C719.64 233.328 718.8 231.76 717.624 230.472C716.448 229.184 715.048 228.12 713.368 227.392C711.632 226.664 709.728 226.328 707.544 226.328C705.36 226.328 703.456 226.72 701.72 227.448C699.984 228.232 698.472 229.296 697.296 230.64C696.064 231.984 695.112 233.552 694.496 235.344C693.824 237.136 693.488 239.04 693.488 241.112ZM714.544 238.256H699.704C700.096 236.24 700.88 234.616 702.168 233.44C703.456 232.264 705.192 231.704 707.432 231.704C709.616 231.704 711.352 232.32 712.528 233.496C713.704 234.728 714.376 236.296 714.544 238.256Z" fill="#030E2E"/>
<path d="M732.568 230.864V227H726.688V255H732.736V241.784C732.736 240.384 732.848 239.04 733.128 237.864C733.352 236.688 733.744 235.624 734.304 234.784C734.864 233.944 735.592 233.272 736.544 232.768C737.44 232.264 738.56 232.04 739.904 232.04C741.696 232.04 743.152 232.6 744.216 233.72C745.28 234.84 745.784 236.576 745.784 238.872V255H751.944V238.088C751.944 236.296 751.72 234.672 751.328 233.216C750.936 231.816 750.32 230.584 749.48 229.52C748.64 228.512 747.576 227.728 746.288 227.168C745 226.608 743.488 226.328 741.752 226.328C739.792 226.328 738.056 226.72 736.488 227.504C734.92 228.288 733.632 229.408 732.568 230.864Z" fill="#030E2E"/>
<path d="M775.691 254.496V248.952C774.795 249.12 774.067 249.232 773.451 249.288C772.835 249.344 772.107 249.4 771.379 249.4C770.315 249.4 769.531 249.12 769.083 248.616C768.579 248.112 768.355 247.384 768.355 246.432V232.152H775.747V227H768.355V219.496H762.307V227H756.987V232.152H762.307V246.824C762.307 249.904 762.979 252.088 764.379 253.376C765.723 254.664 767.683 255.28 770.259 255.28C772.107 255.28 773.899 255 775.691 254.496Z" fill="#030E2E"/>
<path d="M779.551 241.112C779.551 243.296 779.887 245.256 780.615 246.992C781.287 248.784 782.239 250.296 783.527 251.584C784.759 252.872 786.271 253.88 788.119 254.608C789.911 255.336 791.927 255.672 794.167 255.672C796.799 255.672 799.039 255.224 800.887 254.272C802.735 253.376 804.191 252.368 805.367 251.248L802.511 246.376C801.559 247.384 800.383 248.224 798.983 248.952C797.583 249.68 795.959 250.016 794.111 250.016C793.103 250.016 792.151 249.848 791.199 249.568C790.247 249.288 789.351 248.84 788.623 248.224C787.839 247.664 787.223 246.936 786.719 246.04C786.215 245.144 785.879 244.08 785.711 242.904V242.848H807.215V241.112C807.215 238.928 806.935 236.968 806.319 235.12C805.703 233.328 804.863 231.76 803.687 230.472C802.511 229.184 801.111 228.12 799.431 227.392C797.695 226.664 795.791 226.328 793.607 226.328C791.423 226.328 789.519 226.72 787.783 227.448C786.047 228.232 784.535 229.296 783.359 230.64C782.127 231.984 781.175 233.552 780.559 235.344C779.887 237.136 779.551 239.04 779.551 241.112ZM800.607 238.256H785.767C786.159 236.24 786.943 234.616 788.231 233.44C789.519 232.264 791.255 231.704 793.495 231.704C795.679 231.704 797.415 232.32 798.591 233.496C799.767 234.728 800.439 236.296 800.607 238.256Z" fill="#030E2E"/>
<path d="M825.407 232.096C827.927 232.096 829.943 232.88 831.511 234.504C833.023 236.128 833.807 238.256 833.807 241C833.807 243.744 833.023 245.872 831.511 247.496C829.943 249.12 827.927 249.904 825.407 249.904C822.887 249.904 820.815 249.064 819.303 247.44C817.791 245.816 817.007 243.632 817.007 241C817.007 238.368 817.791 236.184 819.303 234.56C820.815 232.936 822.887 232.096 825.407 232.096ZM839.575 215.8H833.527V231.032C832.463 229.688 831.119 228.568 829.551 227.672C827.983 226.776 826.079 226.328 823.839 226.328C822.047 226.328 820.367 226.664 818.799 227.28C817.175 227.952 815.831 228.904 814.655 230.192C813.479 231.48 812.527 232.992 811.855 234.784C811.127 236.632 810.791 238.704 810.791 241C810.791 243.296 811.127 245.368 811.855 247.16C812.527 249.008 813.479 250.52 814.655 251.752C815.831 253.04 817.175 253.992 818.799 254.664C820.367 255.336 822.047 255.672 823.895 255.672C826.079 255.672 827.983 255.224 829.607 254.384C831.175 253.544 832.463 252.424 833.527 251.024V255H839.575V215.8Z" fill="#030E2E"/>
<path d="M880.876 242.064V243.688C880.876 244.528 880.708 245.312 880.372 246.096C879.98 246.936 879.476 247.608 878.86 248.224C878.244 248.84 877.46 249.344 876.508 249.736C875.556 250.128 874.548 250.296 873.372 250.296C871.86 250.296 870.684 249.96 869.956 249.288C869.172 248.672 868.78 247.776 868.78 246.712C868.78 245.76 869.116 244.976 869.788 244.304C870.404 243.688 871.412 243.24 872.812 243.072L880.876 242.064ZM863.348 233.048L868.22 236.128C868.612 234.56 869.508 233.44 870.796 232.768C872.084 232.152 873.596 231.816 875.332 231.816C877.18 231.816 878.58 232.152 879.532 232.824C880.428 233.552 880.876 234.448 880.876 235.512V236.128C880.876 236.856 880.316 237.304 879.252 237.416L871.468 238.2C868.892 238.424 866.764 239.264 865.084 240.776C863.348 242.288 862.508 244.304 862.508 246.88C862.508 248.168 862.732 249.288 863.18 250.352C863.628 251.416 864.244 252.368 865.084 253.096C865.868 253.88 866.876 254.496 868.052 254.888C869.228 255.336 870.516 255.56 871.972 255.56C874.1 255.56 875.892 255.168 877.404 254.328C878.86 253.488 880.036 252.424 880.876 251.136V255H886.924V237.248C886.924 233.608 885.972 230.92 884.068 229.072C882.108 227.224 879.196 226.328 875.22 226.328C871.916 226.328 869.34 226.944 867.38 228.12C865.42 229.296 864.076 230.976 863.348 233.048Z" fill="#030E2E"/>
<path d="M899.881 230.864V227H894.001V255H900.049V241.784C900.049 240.384 900.161 239.04 900.441 237.864C900.665 236.688 901.057 235.624 901.617 234.784C902.177 233.944 902.905 233.272 903.857 232.768C904.753 232.264 905.873 232.04 907.217 232.04C909.009 232.04 910.465 232.6 911.529 233.72C912.593 234.84 913.097 236.576 913.097 238.872V255H919.257V238.088C919.257 236.296 919.033 234.672 918.641 233.216C918.249 231.816 917.633 230.584 916.793 229.52C915.953 228.512 914.889 227.728 913.601 227.168C912.313 226.608 910.801 226.328 909.065 226.328C907.105 226.328 905.369 226.72 903.801 227.504C902.233 228.288 900.945 229.408 899.881 230.864Z" fill="#030E2E"/>
<path d="M939.756 232.096C942.276 232.096 944.292 232.88 945.86 234.504C947.372 236.128 948.156 238.256 948.156 241C948.156 243.744 947.372 245.872 945.86 247.496C944.292 249.12 942.276 249.904 939.756 249.904C937.236 249.904 935.164 249.064 933.652 247.44C932.14 245.816 931.356 243.632 931.356 241C931.356 238.368 932.14 236.184 933.652 234.56C935.164 232.936 937.236 232.096 939.756 232.096ZM953.924 215.8H947.876V231.032C946.812 229.688 945.468 228.568 943.9 227.672C942.332 226.776 940.428 226.328 938.188 226.328C936.396 226.328 934.716 226.664 933.148 227.28C931.524 227.952 930.18 228.904 929.004 230.192C927.828 231.48 926.876 232.992 926.204 234.784C925.476 236.632 925.14 238.704 925.14 241C925.14 243.296 925.476 245.368 926.204 247.16C926.876 249.008 927.828 250.52 929.004 251.752C930.18 253.04 931.524 253.992 933.148 254.664C934.716 255.336 936.396 255.672 938.244 255.672C940.428 255.672 942.332 255.224 943.956 254.384C945.524 253.544 946.812 252.424 947.876 251.024V255H953.924V215.8Z" fill="#030E2E"/>
<path d="M977.53 234.896C977.53 236.408 977.866 237.696 978.482 238.704C979.098 239.768 979.882 240.608 980.834 241.224C981.786 241.84 982.906 242.344 984.082 242.68C985.258 243.072 986.378 243.352 987.442 243.576C989.57 244.024 991.138 244.472 992.146 244.864C993.154 245.312 993.658 246.096 993.658 247.16C993.658 248.224 993.21 249.008 992.314 249.456C991.418 249.96 990.242 250.184 988.842 250.184C986.994 250.184 985.314 249.848 983.802 249.176C982.234 248.56 981.002 247.496 980.162 246.04L976.018 250.016C977.194 251.976 978.93 253.432 981.114 254.328C983.298 255.224 985.762 255.672 988.45 255.672C990.13 255.672 991.698 255.504 993.098 255.112C994.498 254.776 995.674 254.216 996.682 253.488C997.634 252.76 998.418 251.864 998.978 250.744C999.538 249.624 999.818 248.28 999.818 246.768C999.818 245.256 999.538 243.968 999.034 242.96C998.474 242.008 997.746 241.168 996.85 240.552C995.954 239.936 994.946 239.432 993.826 239.04C992.65 238.704 991.474 238.424 990.298 238.144C988.114 237.64 986.434 237.192 985.37 236.8C984.25 236.408 983.69 235.68 983.69 234.616C983.69 233.776 984.138 233.104 984.978 232.6C985.818 232.096 986.882 231.872 988.282 231.872C990.018 231.872 991.53 232.208 992.818 232.824C994.05 233.496 995.002 234.336 995.674 235.344L999.762 231.424C998.586 229.856 997.13 228.624 995.338 227.672C993.546 226.776 991.306 226.328 988.618 226.328C985.09 226.328 982.402 227.112 980.442 228.624C978.482 230.136 977.53 232.264 977.53 234.896Z" fill="#030E2E"/>
<path d="M1004.28 218.936C1004.28 220.112 1004.67 221.12 1005.51 221.96C1006.35 222.8 1007.36 223.192 1008.54 223.192C1009.71 223.192 1010.72 222.8 1011.56 221.96C1012.4 221.12 1012.79 220.112 1012.79 218.936C1012.79 217.76 1012.4 216.752 1011.56 215.912C1010.72 215.072 1009.71 214.68 1008.54 214.68C1007.36 214.68 1006.35 215.072 1005.51 215.912C1004.67 216.752 1004.28 217.76 1004.28 218.936ZM1011.56 227H1005.51V255H1011.56V227Z" fill="#030E2E"/>
<path d="M1043.32 231.704C1042.59 230.024 1041.47 228.68 1039.96 227.728C1038.44 226.776 1036.6 226.328 1034.36 226.328C1032.23 226.328 1030.44 226.776 1029.04 227.616C1027.58 228.456 1026.4 229.576 1025.56 230.976V227H1019.68V255H1025.73V241.784C1025.73 240.384 1025.84 239.096 1026.07 237.92C1026.29 236.744 1026.68 235.736 1027.24 234.84C1027.8 234 1028.53 233.272 1029.48 232.768C1030.38 232.264 1031.5 232.04 1032.9 232.04C1034.86 232.04 1036.32 232.6 1037.32 233.776C1038.28 234.952 1038.78 236.632 1038.78 238.872V255H1044.83V241.784C1044.83 240.384 1044.94 239.096 1045.22 237.92C1045.44 236.744 1045.84 235.68 1046.4 234.84C1046.96 234 1047.68 233.272 1048.64 232.768C1049.53 232.264 1050.65 232.04 1052.05 232.04C1054.01 232.04 1055.47 232.6 1056.42 233.776C1057.37 234.952 1057.88 236.632 1057.88 238.872V255H1063.98V238.424C1063.98 234.728 1063.08 231.76 1061.35 229.576C1059.56 227.392 1056.87 226.328 1053.28 226.328C1050.76 226.328 1048.75 226.832 1047.18 227.84C1045.56 228.848 1044.27 230.136 1043.32 231.704Z" fill="#030E2E"/>
<path d="M1085.93 249.904C1083.41 249.904 1081.39 249.12 1079.88 247.496C1078.31 245.872 1077.53 243.744 1077.53 241C1077.53 238.256 1078.31 236.128 1079.88 234.504C1081.39 232.88 1083.41 232.096 1085.93 232.096C1088.45 232.096 1090.52 232.936 1092.03 234.56C1093.54 236.184 1094.33 238.368 1094.33 241C1094.33 243.632 1093.54 245.816 1092.03 247.44C1090.52 249.064 1088.45 249.904 1085.93 249.904ZM1071.76 266.2H1077.81V250.968C1078.87 252.312 1080.22 253.432 1081.78 254.328C1083.35 255.224 1085.26 255.672 1087.5 255.672C1089.29 255.672 1090.97 255.336 1092.59 254.664C1094.16 254.048 1095.56 253.096 1096.74 251.808C1097.91 250.52 1098.81 249.008 1099.54 247.16C1100.21 245.368 1100.54 243.296 1100.54 241C1100.54 238.704 1100.21 236.688 1099.54 234.84C1098.81 232.992 1097.91 231.48 1096.74 230.192C1095.56 228.96 1094.16 228.008 1092.59 227.336C1090.97 226.664 1089.29 226.328 1087.44 226.328C1085.26 226.328 1083.35 226.72 1081.78 227.56C1080.16 228.4 1078.87 229.576 1077.81 230.976V227H1071.76V266.2Z" fill="#030E2E"/>
<path d="M1112.5 215.8H1106.34V255H1112.5V215.8Z" fill="#030E2E"/>
<path d="M1119.34 218.936C1119.34 220.112 1119.73 221.12 1120.57 221.96C1121.41 222.8 1122.42 223.192 1123.6 223.192C1124.77 223.192 1125.78 222.8 1126.62 221.96C1127.46 221.12 1127.85 220.112 1127.85 218.936C1127.85 217.76 1127.46 216.752 1126.62 215.912C1125.78 215.072 1124.77 214.68 1123.6 214.68C1122.42 214.68 1121.41 215.072 1120.57 215.912C1119.73 216.752 1119.34 217.76 1119.34 218.936ZM1126.62 227H1120.57V255H1126.62V227Z" fill="#030E2E"/>
<path d="M1143.26 232.152H1151.32V227H1143.26V225.88C1143.26 224.032 1143.59 222.744 1144.26 221.96C1144.94 221.232 1146.11 220.84 1147.74 220.84C1148.35 220.84 1148.97 220.896 1149.58 220.952C1150.2 221.008 1150.87 221.12 1151.66 221.288V215.688C1150.82 215.576 1150.03 215.464 1149.3 215.352C1148.52 215.296 1147.68 215.24 1146.78 215.24C1145.38 215.24 1144.15 215.408 1142.98 215.8C1141.8 216.192 1140.79 216.752 1139.95 217.592C1139.11 218.432 1138.44 219.496 1137.94 220.784C1137.43 222.072 1137.21 223.64 1137.21 225.488V227H1131.83V232.152H1137.21V255H1143.26V232.152Z" fill="#030E2E"/>
<path d="M1155.74 218.936C1155.74 220.112 1156.13 221.12 1156.97 221.96C1157.81 222.8 1158.82 223.192 1159.99 223.192C1161.17 223.192 1162.18 222.8 1163.02 221.96C1163.86 221.12 1164.25 220.112 1164.25 218.936C1164.25 217.76 1163.86 216.752 1163.02 215.912C1162.18 215.072 1161.17 214.68 1159.99 214.68C1158.82 214.68 1157.81 215.072 1156.97 215.912C1156.13 216.752 1155.74 217.76 1155.74 218.936ZM1163.02 227H1156.97V255H1163.02V227Z" fill="#030E2E"/>
<path d="M1169.18 241.112C1169.18 243.296 1169.51 245.256 1170.24 246.992C1170.91 248.784 1171.87 250.296 1173.15 251.584C1174.39 252.872 1175.9 253.88 1177.75 254.608C1179.54 255.336 1181.55 255.672 1183.79 255.672C1186.43 255.672 1188.67 255.224 1190.51 254.272C1192.36 253.376 1193.82 252.368 1194.99 251.248L1192.14 246.376C1191.19 247.384 1190.01 248.224 1188.61 248.952C1187.21 249.68 1185.59 250.016 1183.74 250.016C1182.73 250.016 1181.78 249.848 1180.83 249.568C1179.87 249.288 1178.98 248.84 1178.25 248.224C1177.47 247.664 1176.85 246.936 1176.35 246.04C1175.84 245.144 1175.51 244.08 1175.34 242.904V242.848H1196.84V241.112C1196.84 238.928 1196.56 236.968 1195.95 235.12C1195.33 233.328 1194.49 231.76 1193.31 230.472C1192.14 229.184 1190.74 228.12 1189.06 227.392C1187.32 226.664 1185.42 226.328 1183.23 226.328C1181.05 226.328 1179.15 226.72 1177.41 227.448C1175.67 228.232 1174.16 229.296 1172.99 230.64C1171.75 231.984 1170.8 233.552 1170.19 235.344C1169.51 237.136 1169.18 239.04 1169.18 241.112ZM1190.23 238.256H1175.39C1175.79 236.24 1176.57 234.616 1177.86 233.44C1179.15 232.264 1180.88 231.704 1183.12 231.704C1185.31 231.704 1187.04 232.32 1188.22 233.496C1189.39 234.728 1190.07 236.296 1190.23 238.256Z" fill="#030E2E"/>
<path d="M1215.03 232.096C1217.55 232.096 1219.57 232.88 1221.14 234.504C1222.65 236.128 1223.43 238.256 1223.43 241C1223.43 243.744 1222.65 245.872 1221.14 247.496C1219.57 249.12 1217.55 249.904 1215.03 249.904C1212.51 249.904 1210.44 249.064 1208.93 247.44C1207.42 245.816 1206.63 243.632 1206.63 241C1206.63 238.368 1207.42 236.184 1208.93 234.56C1210.44 232.936 1212.51 232.096 1215.03 232.096ZM1229.2 215.8H1223.15V231.032C1222.09 229.688 1220.75 228.568 1219.18 227.672C1217.61 226.776 1215.71 226.328 1213.47 226.328C1211.67 226.328 1209.99 226.664 1208.43 227.28C1206.8 227.952 1205.46 228.904 1204.28 230.192C1203.11 231.48 1202.15 232.992 1201.48 234.784C1200.75 236.632 1200.42 238.704 1200.42 241C1200.42 243.296 1200.75 245.368 1201.48 247.16C1202.15 249.008 1203.11 250.52 1204.28 251.752C1205.46 253.04 1206.8 253.992 1208.43 254.664C1209.99 255.336 1211.67 255.672 1213.52 255.672C1215.71 255.672 1217.61 255.224 1219.23 254.384C1220.8 253.544 1222.09 252.424 1223.15 251.024V255H1229.2V215.8Z" fill="#030E2E"/>
<path d="M1259.64 215.8H1253.59V255H1259.64V251.024C1260.7 252.424 1261.99 253.544 1263.62 254.384C1265.18 255.224 1267.09 255.672 1269.27 255.672C1271.12 255.672 1272.8 255.336 1274.42 254.664C1275.99 253.992 1277.39 253.04 1278.57 251.752C1279.74 250.52 1280.64 249.008 1281.37 247.16C1282.04 245.368 1282.38 243.296 1282.38 241C1282.38 238.704 1282.04 236.632 1281.37 234.784C1280.64 232.992 1279.74 231.48 1278.57 230.192C1277.39 228.904 1275.99 227.952 1274.42 227.28C1272.8 226.664 1271.12 226.328 1269.33 226.328C1267.09 226.328 1265.18 226.776 1263.62 227.672C1262.05 228.568 1260.7 229.688 1259.64 231.032V215.8ZM1276.16 241C1276.16 243.632 1275.38 245.816 1273.86 247.44C1272.35 249.064 1270.28 249.904 1267.76 249.904C1265.24 249.904 1263.22 249.12 1261.71 247.496C1260.14 245.872 1259.36 243.744 1259.36 241C1259.36 238.256 1260.14 236.128 1261.71 234.504C1263.22 232.88 1265.24 232.096 1267.76 232.096C1270.28 232.096 1272.35 232.936 1273.86 234.56C1275.38 236.184 1276.16 238.368 1276.16 241Z" fill="#030E2E"/>
<path d="M1286.21 241C1286.21 243.128 1286.6 245.088 1287.33 246.88C1288.05 248.728 1289.12 250.24 1290.46 251.528C1291.75 252.816 1293.32 253.824 1295.17 254.552C1296.96 255.28 1298.92 255.672 1301.05 255.672C1303.17 255.672 1305.13 255.28 1306.98 254.552C1308.77 253.824 1310.34 252.816 1311.69 251.528C1312.97 250.24 1314.04 248.728 1314.77 246.88C1315.49 245.088 1315.89 243.128 1315.89 241C1315.89 238.872 1315.49 236.912 1314.77 235.064C1314.04 233.272 1312.97 231.704 1311.69 230.416C1310.34 229.128 1308.77 228.12 1306.98 227.392C1305.13 226.664 1303.17 226.328 1301.05 226.328C1298.92 226.328 1296.96 226.664 1295.17 227.392C1293.32 228.12 1291.75 229.128 1290.46 230.416C1289.12 231.704 1288.05 233.272 1287.33 235.064C1286.6 236.912 1286.21 238.872 1286.21 241ZM1309.67 241C1309.67 242.288 1309.45 243.52 1309.05 244.584C1308.61 245.648 1307.99 246.6 1307.26 247.328C1306.48 248.112 1305.58 248.728 1304.52 249.12C1303.45 249.568 1302.33 249.792 1301.05 249.792C1299.76 249.792 1298.64 249.568 1297.57 249.12C1296.51 248.728 1295.61 248.112 1294.89 247.328C1294.1 246.6 1293.49 245.648 1293.09 244.584C1292.65 243.52 1292.42 242.288 1292.42 241C1292.42 239.712 1292.65 238.48 1293.09 237.416C1293.49 236.352 1294.1 235.4 1294.89 234.616C1295.61 233.888 1296.51 233.272 1297.57 232.824C1298.64 232.432 1299.76 232.208 1301.05 232.208C1302.33 232.208 1303.45 232.432 1304.52 232.824C1305.58 233.272 1306.48 233.888 1307.26 234.616C1307.99 235.4 1308.61 236.352 1309.05 237.416C1309.45 238.48 1309.67 239.712 1309.67 241Z" fill="#030E2E"/>
<path d="M1337.55 254.496V248.952C1336.66 249.12 1335.93 249.232 1335.31 249.288C1334.7 249.344 1333.97 249.4 1333.24 249.4C1332.18 249.4 1331.39 249.12 1330.94 248.616C1330.44 248.112 1330.22 247.384 1330.22 246.432V232.152H1337.61V227H1330.22V219.496H1324.17V227H1318.85V232.152H1324.17V246.824C1324.17 249.904 1324.84 252.088 1326.24 253.376C1327.58 254.664 1329.54 255.28 1332.12 255.28C1333.97 255.28 1335.76 255 1337.55 254.496Z" fill="#030E2E"/>
<path d="M1349.42 215.8H1343.37V255H1349.42V241.784C1349.42 240.384 1349.53 239.04 1349.81 237.864C1350.04 236.688 1350.43 235.624 1350.99 234.784C1351.55 233.944 1352.28 233.272 1353.23 232.768C1354.18 232.264 1355.3 232.04 1356.64 232.04C1358.49 232.04 1359.95 232.656 1360.96 233.832C1361.96 235.008 1362.47 236.688 1362.47 238.872V255H1368.63V238.088C1368.63 236.296 1368.4 234.672 1368.01 233.216C1367.62 231.816 1367 230.584 1366.16 229.52C1365.32 228.512 1364.26 227.728 1362.97 227.168C1361.68 226.608 1360.17 226.328 1358.44 226.328C1356.42 226.328 1354.68 226.72 1353.17 227.504C1351.66 228.344 1350.43 229.464 1349.42 230.864V215.8Z" fill="#030E2E"/>
<path d="M572.283 301.896C572.283 303.408 572.619 304.696 573.235 305.704C573.851 306.768 574.635 307.608 575.587 308.224C576.539 308.84 577.659 309.344 578.835 309.68C580.011 310.072 581.131 310.352 582.195 310.576C584.323 311.024 585.891 311.472 586.899 311.864C587.907 312.312 588.411 313.096 588.411 314.16C588.411 315.224 587.963 316.008 587.067 316.456C586.171 316.96 584.995 317.184 583.595 317.184C581.747 317.184 580.067 316.848 578.555 316.176C576.987 315.56 575.755 314.496 574.915 313.04L570.771 317.016C571.947 318.976 573.683 320.432 575.867 321.328C578.051 322.224 580.515 322.672 583.203 322.672C584.883 322.672 586.451 322.504 587.851 322.112C589.251 321.776 590.427 321.216 591.435 320.488C592.387 319.76 593.171 318.864 593.731 317.744C594.291 316.624 594.571 315.28 594.571 313.768C594.571 312.256 594.291 310.968 593.787 309.96C593.227 309.008 592.499 308.168 591.603 307.552C590.707 306.936 589.699 306.432 588.579 306.04C587.403 305.704 586.227 305.424 585.051 305.144C582.867 304.64 581.187 304.192 580.123 303.8C579.003 303.408 578.443 302.68 578.443 301.616C578.443 300.776 578.891 300.104 579.731 299.6C580.571 299.096 581.635 298.872 583.035 298.872C584.771 298.872 586.283 299.208 587.571 299.824C588.803 300.496 589.755 301.336 590.427 302.344L594.515 298.424C593.339 296.856 591.883 295.624 590.091 294.672C588.299 293.776 586.059 293.328 583.371 293.328C579.843 293.328 577.155 294.112 575.195 295.624C573.235 297.136 572.283 299.264 572.283 301.896Z" fill="#030E2E"/>
<path d="M599.036 285.936C599.036 287.112 599.428 288.12 600.268 288.96C601.108 289.8 602.116 290.192 603.292 290.192C604.468 290.192 605.476 289.8 606.316 288.96C607.156 288.12 607.548 287.112 607.548 285.936C607.548 284.76 607.156 283.752 606.316 282.912C605.476 282.072 604.468 281.68 603.292 281.68C602.116 281.68 601.108 282.072 600.268 282.912C599.428 283.752 599.036 284.76 599.036 285.936ZM606.316 294H600.268V322H606.316V294Z" fill="#030E2E"/>
<path d="M627.093 299.096C629.613 299.096 631.629 299.88 633.197 301.504C634.709 303.128 635.493 305.256 635.493 308C635.493 310.744 634.709 312.872 633.197 314.496C631.629 316.12 629.613 316.904 627.093 316.904C624.573 316.904 622.501 316.064 620.989 314.44C619.477 312.816 618.693 310.632 618.693 308C618.693 305.368 619.477 303.184 620.989 301.56C622.501 299.936 624.573 299.096 627.093 299.096ZM641.261 282.8H635.213V298.032C634.149 296.688 632.805 295.568 631.237 294.672C629.669 293.776 627.765 293.328 625.525 293.328C623.733 293.328 622.053 293.664 620.485 294.28C618.861 294.952 617.517 295.904 616.341 297.192C615.165 298.48 614.213 299.992 613.541 301.784C612.813 303.632 612.477 305.704 612.477 308C612.477 310.296 612.813 312.368 613.541 314.16C614.213 316.008 615.165 317.52 616.341 318.752C617.517 320.04 618.861 320.992 620.485 321.664C622.053 322.336 623.733 322.672 625.581 322.672C627.765 322.672 629.669 322.224 631.293 321.384C632.861 320.544 634.149 319.424 635.213 318.024V322H641.261V282.8Z" fill="#030E2E"/>
<path d="M647.053 308.112C647.053 310.296 647.389 312.256 648.117 313.992C648.789 315.784 649.741 317.296 651.029 318.584C652.261 319.872 653.773 320.88 655.621 321.608C657.413 322.336 659.429 322.672 661.669 322.672C664.301 322.672 666.541 322.224 668.389 321.272C670.237 320.376 671.693 319.368 672.869 318.248L670.013 313.376C669.061 314.384 667.885 315.224 666.485 315.952C665.085 316.68 663.461 317.016 661.613 317.016C660.605 317.016 659.653 316.848 658.701 316.568C657.749 316.288 656.853 315.84 656.125 315.224C655.341 314.664 654.725 313.936 654.221 313.04C653.717 312.144 653.381 311.08 653.213 309.904V309.848H674.717V308.112C674.717 305.928 674.437 303.968 673.821 302.12C673.205 300.328 672.365 298.76 671.189 297.472C670.013 296.184 668.613 295.12 666.933 294.392C665.197 293.664 663.293 293.328 661.109 293.328C658.925 293.328 657.021 293.72 655.285 294.448C653.549 295.232 652.037 296.296 650.861 297.64C649.629 298.984 648.677 300.552 648.061 302.344C647.389 304.136 647.053 306.04 647.053 308.112ZM668.109 305.256H653.269C653.661 303.24 654.445 301.616 655.733 300.44C657.021 299.264 658.757 298.704 660.997 298.704C663.181 298.704 664.917 299.32 666.093 300.496C667.269 301.728 667.941 303.296 668.109 305.256Z" fill="#030E2E"/>
<path d="M679.469 301.896C679.469 303.408 679.805 304.696 680.421 305.704C681.037 306.768 681.821 307.608 682.773 308.224C683.725 308.84 684.845 309.344 686.021 309.68C687.197 310.072 688.317 310.352 689.381 310.576C691.509 311.024 693.077 311.472 694.085 311.864C695.093 312.312 695.597 313.096 695.597 314.16C695.597 315.224 695.149 316.008 694.253 316.456C693.357 316.96 692.181 317.184 690.781 317.184C688.933 317.184 687.253 316.848 685.741 316.176C684.173 315.56 682.941 314.496 682.101 313.04L677.957 317.016C679.133 318.976 680.869 320.432 683.053 321.328C685.237 322.224 687.701 322.672 690.389 322.672C692.069 322.672 693.637 322.504 695.037 322.112C696.437 321.776 697.613 321.216 698.621 320.488C699.573 319.76 700.357 318.864 700.917 317.744C701.477 316.624 701.757 315.28 701.757 313.768C701.757 312.256 701.477 310.968 700.973 309.96C700.413 309.008 699.685 308.168 698.789 307.552C697.893 306.936 696.885 306.432 695.765 306.04C694.589 305.704 693.413 305.424 692.237 305.144C690.053 304.64 688.373 304.192 687.309 303.8C686.189 303.408 685.629 302.68 685.629 301.616C685.629 300.776 686.077 300.104 686.917 299.6C687.757 299.096 688.821 298.872 690.221 298.872C691.957 298.872 693.469 299.208 694.757 299.824C695.989 300.496 696.941 301.336 697.613 302.344L701.701 298.424C700.525 296.856 699.069 295.624 697.277 294.672C695.485 293.776 693.245 293.328 690.557 293.328C687.029 293.328 684.341 294.112 682.381 295.624C680.421 297.136 679.469 299.264 679.469 301.896Z" fill="#030E2E"/>
<path d="M721.796 308C721.796 310.128 722.188 312.088 722.916 313.88C723.644 315.728 724.708 317.24 726.052 318.528C727.34 319.816 728.908 320.824 730.756 321.552C732.548 322.28 734.508 322.672 736.636 322.672C738.764 322.672 740.724 322.28 742.572 321.552C744.364 320.824 745.932 319.816 747.276 318.528C748.564 317.24 749.628 315.728 750.356 313.88C751.084 312.088 751.476 310.128 751.476 308C751.476 305.872 751.084 303.912 750.356 302.064C749.628 300.272 748.564 298.704 747.276 297.416C745.932 296.128 744.364 295.12 742.572 294.392C740.724 293.664 738.764 293.328 736.636 293.328C734.508 293.328 732.548 293.664 730.756 294.392C728.908 295.12 727.34 296.128 726.052 297.416C724.708 298.704 723.644 300.272 722.916 302.064C722.188 303.912 721.796 305.872 721.796 308ZM745.26 308C745.26 309.288 745.036 310.52 744.644 311.584C744.196 312.648 743.58 313.6 742.852 314.328C742.068 315.112 741.172 315.728 740.108 316.12C739.044 316.568 737.924 316.792 736.636 316.792C735.348 316.792 734.228 316.568 733.164 316.12C732.1 315.728 731.204 315.112 730.476 314.328C729.692 313.6 729.076 312.648 728.684 311.584C728.236 310.52 728.012 309.288 728.012 308C728.012 306.712 728.236 305.48 728.684 304.416C729.076 303.352 729.692 302.4 730.476 301.616C731.204 300.888 732.1 300.272 733.164 299.824C734.228 299.432 735.348 299.208 736.636 299.208C737.924 299.208 739.044 299.432 740.108 299.824C741.172 300.272 742.068 300.888 742.852 301.616C743.58 302.4 744.196 303.352 744.644 304.416C745.036 305.48 745.26 306.712 745.26 308Z" fill="#030E2E"/>
<path d="M765.749 299.152H773.813V294H765.749V292.88C765.749 291.032 766.085 289.744 766.757 288.96C767.429 288.232 768.605 287.84 770.229 287.84C770.845 287.84 771.461 287.896 772.077 287.952C772.693 288.008 773.365 288.12 774.149 288.288V282.688C773.309 282.576 772.525 282.464 771.797 282.352C771.013 282.296 770.173 282.24 769.277 282.24C767.877 282.24 766.645 282.408 765.469 282.8C764.293 283.192 763.285 283.752 762.445 284.592C761.605 285.432 760.933 286.496 760.429 287.784C759.925 289.072 759.701 290.64 759.701 292.488V294H754.325V299.152H759.701V322H765.749V299.152Z" fill="#030E2E"/>
<path d="M811.668 321.496V315.952C810.772 316.12 810.044 316.232 809.428 316.288C808.812 316.344 808.084 316.4 807.356 316.4C806.292 316.4 805.508 316.12 805.06 315.616C804.556 315.112 804.332 314.384 804.332 313.432V299.152H811.724V294H804.332V286.496H798.284V294H792.964V299.152H798.284V313.824C798.284 316.904 798.956 319.088 800.356 320.376C801.7 321.664 803.66 322.28 806.236 322.28C808.084 322.28 809.876 322 811.668 321.496Z" fill="#030E2E"/>
<path d="M823.536 282.8H817.488V322H823.536V308.784C823.536 307.384 823.648 306.04 823.928 304.864C824.152 303.688 824.544 302.624 825.104 301.784C825.664 300.944 826.392 300.272 827.344 299.768C828.296 299.264 829.416 299.04 830.76 299.04C832.608 299.04 834.064 299.656 835.072 300.832C836.08 302.008 836.584 303.688 836.584 305.872V322H842.744V305.088C842.744 303.296 842.52 301.672 842.128 300.216C841.736 298.816 841.12 297.584 840.28 296.52C839.44 295.512 838.376 294.728 837.088 294.168C835.8 293.608 834.288 293.328 832.552 293.328C830.536 293.328 828.8 293.72 827.288 294.504C825.776 295.344 824.544 296.464 823.536 297.864V282.8Z" fill="#030E2E"/>
<path d="M848.244 308.112C848.244 310.296 848.58 312.256 849.308 313.992C849.98 315.784 850.932 317.296 852.22 318.584C853.452 319.872 854.964 320.88 856.812 321.608C858.604 322.336 860.62 322.672 862.86 322.672C865.492 322.672 867.732 322.224 869.58 321.272C871.428 320.376 872.884 319.368 874.06 318.248L871.204 313.376C870.252 314.384 869.076 315.224 867.676 315.952C866.276 316.68 864.652 317.016 862.804 317.016C861.796 317.016 860.844 316.848 859.892 316.568C858.94 316.288 858.044 315.84 857.316 315.224C856.532 314.664 855.916 313.936 855.412 313.04C854.908 312.144 854.572 311.08 854.404 309.904V309.848H875.908V308.112C875.908 305.928 875.628 303.968 875.012 302.12C874.396 300.328 873.556 298.76 872.38 297.472C871.204 296.184 869.804 295.12 868.124 294.392C866.388 293.664 864.484 293.328 862.3 293.328C860.116 293.328 858.212 293.72 856.476 294.448C854.74 295.232 853.228 296.296 852.052 297.64C850.82 298.984 849.868 300.552 849.252 302.344C848.58 304.136 848.244 306.04 848.244 308.112ZM869.3 305.256H854.46C854.852 303.24 855.636 301.616 856.924 300.44C858.212 299.264 859.948 298.704 862.188 298.704C864.372 298.704 866.108 299.32 867.284 300.496C868.46 301.728 869.132 303.296 869.3 305.256Z" fill="#030E2E"/>
<path d="M904.13 282.8H898.082V322H904.13V318.024C905.194 319.424 906.482 320.544 908.106 321.384C909.674 322.224 911.578 322.672 913.762 322.672C915.61 322.672 917.29 322.336 918.914 321.664C920.482 320.992 921.882 320.04 923.058 318.752C924.234 317.52 925.13 316.008 925.858 314.16C926.53 312.368 926.866 310.296 926.866 308C926.866 305.704 926.53 303.632 925.858 301.784C925.13 299.992 924.234 298.48 923.058 297.192C921.882 295.904 920.482 294.952 918.914 294.28C917.29 293.664 915.61 293.328 913.818 293.328C911.578 293.328 909.674 293.776 908.106 294.672C906.538 295.568 905.194 296.688 904.13 298.032V282.8ZM920.65 308C920.65 310.632 919.866 312.816 918.354 314.44C916.842 316.064 914.77 316.904 912.25 316.904C909.73 316.904 907.714 316.12 906.202 314.496C904.634 312.872 903.85 310.744 903.85 308C903.85 305.256 904.634 303.128 906.202 301.504C907.714 299.88 909.73 299.096 912.25 299.096C914.77 299.096 916.842 299.936 918.354 301.56C919.866 303.184 920.65 305.368 920.65 308Z" fill="#030E2E"/>
<path d="M931.761 285.936C931.761 287.112 932.153 288.12 932.993 288.96C933.833 289.8 934.841 290.192 936.017 290.192C937.193 290.192 938.201 289.8 939.041 288.96C939.881 288.12 940.273 287.112 940.273 285.936C940.273 284.76 939.881 283.752 939.041 282.912C938.201 282.072 937.193 281.68 936.017 281.68C934.841 281.68 933.833 282.072 932.993 282.912C932.153 283.752 931.761 284.76 931.761 285.936ZM939.041 294H932.993V322H939.041V294Z" fill="#030E2E"/>
<path d="M953.323 282.8H947.163V322H953.323V282.8Z" fill="#030E2E"/>
<path d="M967.226 282.8H961.066V322H967.226V282.8Z" fill="#030E2E"/>
<path d="M1005.78 316.904C1003.26 316.904 1001.24 316.12 999.728 314.496C998.16 312.872 997.376 310.744 997.376 308C997.376 305.256 998.16 303.128 999.728 301.504C1001.24 299.88 1003.26 299.096 1005.78 299.096C1008.3 299.096 1010.37 299.936 1011.88 301.56C1013.39 303.184 1014.18 305.368 1014.18 308C1014.18 310.632 1013.39 312.816 1011.88 314.44C1010.37 316.064 1008.3 316.904 1005.78 316.904ZM991.608 333.2H997.656V317.968C998.72 319.312 1000.06 320.432 1001.63 321.328C1003.2 322.224 1005.1 322.672 1007.34 322.672C1009.14 322.672 1010.82 322.336 1012.44 321.664C1014.01 321.048 1015.41 320.096 1016.58 318.808C1017.76 317.52 1018.66 316.008 1019.38 314.16C1020.06 312.368 1020.39 310.296 1020.39 308C1020.39 305.704 1020.06 303.688 1019.38 301.84C1018.66 299.992 1017.76 298.48 1016.58 297.192C1015.41 295.96 1014.01 295.008 1012.44 294.336C1010.82 293.664 1009.14 293.328 1007.29 293.328C1005.1 293.328 1003.2 293.72 1001.63 294.56C1000.01 295.4 998.72 296.576 997.656 297.976V294H991.608V333.2Z" fill="#030E2E"/>
<path d="M1043.1 309.064V310.688C1043.1 311.528 1042.93 312.312 1042.59 313.096C1042.2 313.936 1041.7 314.608 1041.08 315.224C1040.46 315.84 1039.68 316.344 1038.73 316.736C1037.78 317.128 1036.77 317.296 1035.59 317.296C1034.08 317.296 1032.9 316.96 1032.18 316.288C1031.39 315.672 1031 314.776 1031 313.712C1031 312.76 1031.34 311.976 1032.01 311.304C1032.62 310.688 1033.63 310.24 1035.03 310.072L1043.1 309.064ZM1025.57 300.048L1030.44 303.128C1030.83 301.56 1031.73 300.44 1033.02 299.768C1034.3 299.152 1035.82 298.816 1037.55 298.816C1039.4 298.816 1040.8 299.152 1041.75 299.824C1042.65 300.552 1043.1 301.448 1043.1 302.512V303.128C1043.1 303.856 1042.54 304.304 1041.47 304.416L1033.69 305.2C1031.11 305.424 1028.98 306.264 1027.3 307.776C1025.57 309.288 1024.73 311.304 1024.73 313.88C1024.73 315.168 1024.95 316.288 1025.4 317.352C1025.85 318.416 1026.46 319.368 1027.3 320.096C1028.09 320.88 1029.1 321.496 1030.27 321.888C1031.45 322.336 1032.74 322.56 1034.19 322.56C1036.32 322.56 1038.11 322.168 1039.62 321.328C1041.08 320.488 1042.26 319.424 1043.1 318.136V322H1049.14V304.248C1049.14 300.608 1048.19 297.92 1046.29 296.072C1044.33 294.224 1041.42 293.328 1037.44 293.328C1034.14 293.328 1031.56 293.944 1029.6 295.12C1027.64 296.296 1026.3 297.976 1025.57 300.048Z" fill="#030E2E"/>
<path d="M1058.01 333.2H1064.45L1082.37 294H1075.93L1068.09 311.136L1060.03 294H1052.86L1064.9 318.136L1058.01 333.2Z" fill="#030E2E"/>
<path d="M1101.21 308.112C1101.21 310.296 1101.54 312.256 1102.27 313.992C1102.94 315.784 1103.9 317.296 1105.18 318.584C1106.42 319.872 1107.93 320.88 1109.78 321.608C1111.57 322.336 1113.58 322.672 1115.82 322.672C1118.46 322.672 1120.7 322.224 1122.54 321.272C1124.39 320.376 1125.85 319.368 1127.02 318.248L1124.17 313.376C1123.22 314.384 1122.04 315.224 1120.64 315.952C1119.24 316.68 1117.62 317.016 1115.77 317.016C1114.76 317.016 1113.81 316.848 1112.86 316.568C1111.9 316.288 1111.01 315.84 1110.28 315.224C1109.5 314.664 1108.88 313.936 1108.38 313.04C1107.87 312.144 1107.54 311.08 1107.37 309.904V309.848H1128.87V308.112C1128.87 305.928 1128.59 303.968 1127.98 302.12C1127.36 300.328 1126.52 298.76 1125.34 297.472C1124.17 296.184 1122.77 295.12 1121.09 294.392C1119.35 293.664 1117.45 293.328 1115.26 293.328C1113.08 293.328 1111.18 293.72 1109.44 294.448C1107.7 295.232 1106.19 296.296 1105.02 297.64C1103.78 298.984 1102.83 300.552 1102.22 302.344C1101.54 304.136 1101.21 306.04 1101.21 308.112ZM1122.26 305.256H1107.42C1107.82 303.24 1108.6 301.616 1109.89 300.44C1111.18 299.264 1112.91 298.704 1115.15 298.704C1117.34 298.704 1119.07 299.32 1120.25 300.496C1121.42 301.728 1122.1 303.296 1122.26 305.256Z" fill="#030E2E"/>
<path d="M1155.18 333.2H1161.23V294H1155.18V297.976C1154.12 296.576 1152.83 295.4 1151.26 294.56C1149.64 293.72 1147.74 293.328 1145.55 293.328C1143.7 293.328 1142.02 293.664 1140.46 294.336C1138.83 295.008 1137.49 295.96 1136.31 297.192C1135.14 298.48 1134.18 299.992 1133.51 301.84C1132.78 303.688 1132.45 305.704 1132.45 308C1132.45 310.296 1132.78 312.368 1133.51 314.16C1134.18 316.008 1135.14 317.52 1136.31 318.808C1137.49 320.096 1138.83 321.048 1140.46 321.664C1142.02 322.336 1143.7 322.672 1145.5 322.672C1147.74 322.672 1149.64 322.224 1151.21 321.328C1152.78 320.432 1154.12 319.312 1155.18 317.968V333.2ZM1138.66 308C1138.66 305.368 1139.45 303.184 1140.96 301.56C1142.47 299.936 1144.54 299.096 1147.06 299.096C1149.58 299.096 1151.6 299.88 1153.17 301.504C1154.68 303.128 1155.46 305.256 1155.46 308C1155.46 310.744 1154.68 312.872 1153.17 314.496C1151.6 316.12 1149.58 316.904 1147.06 316.904C1144.54 316.904 1142.47 316.064 1140.96 314.44C1139.45 312.816 1138.66 310.632 1138.66 308Z" fill="#030E2E"/>
<path d="M1193.85 294H1187.8V307.216C1187.8 308.56 1187.69 309.792 1187.46 310.968C1187.18 312.144 1186.79 313.208 1186.29 314.048C1185.73 314.944 1185 315.616 1184.1 316.12C1183.21 316.624 1182.09 316.904 1180.74 316.904C1178.67 316.904 1177.22 316.288 1176.43 315.056C1175.59 313.88 1175.2 312.2 1175.2 310.128V294H1168.98V310.968C1168.98 312.704 1169.15 314.328 1169.54 315.728C1169.94 317.128 1170.5 318.36 1171.34 319.424C1172.18 320.488 1173.24 321.272 1174.53 321.832C1175.82 322.392 1177.33 322.672 1179.12 322.672C1181.25 322.672 1182.98 322.224 1184.38 321.384C1185.78 320.544 1186.96 319.368 1188.02 317.856V322H1193.85V294Z" fill="#030E2E"/>
<path d="M1218.61 309.064V310.688C1218.61 311.528 1218.44 312.312 1218.11 313.096C1217.72 313.936 1217.21 314.608 1216.6 315.224C1215.98 315.84 1215.2 316.344 1214.24 316.736C1213.29 317.128 1212.28 317.296 1211.11 317.296C1209.6 317.296 1208.42 316.96 1207.69 316.288C1206.91 315.672 1206.52 314.776 1206.52 313.712C1206.52 312.76 1206.85 311.976 1207.52 311.304C1208.14 310.688 1209.15 310.24 1210.55 310.072L1218.61 309.064ZM1201.08 300.048L1205.96 303.128C1206.35 301.56 1207.24 300.44 1208.53 299.768C1209.82 299.152 1211.33 298.816 1213.07 298.816C1214.92 298.816 1216.32 299.152 1217.27 299.824C1218.16 300.552 1218.61 301.448 1218.61 302.512V303.128C1218.61 303.856 1218.05 304.304 1216.99 304.416L1209.2 305.2C1206.63 305.424 1204.5 306.264 1202.82 307.776C1201.08 309.288 1200.24 311.304 1200.24 313.88C1200.24 315.168 1200.47 316.288 1200.92 317.352C1201.36 318.416 1201.98 319.368 1202.82 320.096C1203.6 320.88 1204.61 321.496 1205.79 321.888C1206.96 322.336 1208.25 322.56 1209.71 322.56C1211.84 322.56 1213.63 322.168 1215.14 321.328C1216.6 320.488 1217.77 319.424 1218.61 318.136V322H1224.66V304.248C1224.66 300.608 1223.71 297.92 1221.8 296.072C1219.84 294.224 1216.93 293.328 1212.96 293.328C1209.65 293.328 1207.08 293.944 1205.12 295.12C1203.16 296.296 1201.81 297.976 1201.08 300.048Z" fill="#030E2E"/>
<path d="M1247.64 321.496V315.952C1246.74 316.12 1246.02 316.232 1245.4 316.288C1244.78 316.344 1244.06 316.4 1243.33 316.4C1242.26 316.4 1241.48 316.12 1241.03 315.616C1240.53 315.112 1240.3 314.384 1240.3 313.432V299.152H1247.7V294H1240.3V286.496H1234.26V294H1228.94V299.152H1234.26V313.824C1234.26 316.904 1234.93 319.088 1236.33 320.376C1237.67 321.664 1239.63 322.28 1242.21 322.28C1244.06 322.28 1245.85 322 1247.64 321.496Z" fill="#030E2E"/>
<path d="M1252.56 285.936C1252.56 287.112 1252.96 288.12 1253.8 288.96C1254.64 289.8 1255.64 290.192 1256.82 290.192C1258 290.192 1259 289.8 1259.84 288.96C1260.68 288.12 1261.08 287.112 1261.08 285.936C1261.08 284.76 1260.68 283.752 1259.84 282.912C1259 282.072 1258 281.68 1256.82 281.68C1255.64 281.68 1254.64 282.072 1253.8 282.912C1252.96 283.752 1252.56 284.76 1252.56 285.936ZM1259.84 294H1253.8V322H1259.84V294Z" fill="#030E2E"/>
<path d="M1266.01 308C1266.01 310.128 1266.4 312.088 1267.13 313.88C1267.85 315.728 1268.92 317.24 1270.26 318.528C1271.55 319.816 1273.12 320.824 1274.97 321.552C1276.76 322.28 1278.72 322.672 1280.85 322.672C1282.97 322.672 1284.93 322.28 1286.78 321.552C1288.57 320.824 1290.14 319.816 1291.49 318.528C1292.77 317.24 1293.84 315.728 1294.57 313.88C1295.29 312.088 1295.69 310.128 1295.69 308C1295.69 305.872 1295.29 303.912 1294.57 302.064C1293.84 300.272 1292.77 298.704 1291.49 297.416C1290.14 296.128 1288.57 295.12 1286.78 294.392C1284.93 293.664 1282.97 293.328 1280.85 293.328C1278.72 293.328 1276.76 293.664 1274.97 294.392C1273.12 295.12 1271.55 296.128 1270.26 297.416C1268.92 298.704 1267.85 300.272 1267.13 302.064C1266.4 303.912 1266.01 305.872 1266.01 308ZM1289.47 308C1289.47 309.288 1289.25 310.52 1288.85 311.584C1288.41 312.648 1287.79 313.6 1287.06 314.328C1286.28 315.112 1285.38 315.728 1284.32 316.12C1283.25 316.568 1282.13 316.792 1280.85 316.792C1279.56 316.792 1278.44 316.568 1277.37 316.12C1276.31 315.728 1275.41 315.112 1274.69 314.328C1273.9 313.6 1273.29 312.648 1272.89 311.584C1272.45 310.52 1272.22 309.288 1272.22 308C1272.22 306.712 1272.45 305.48 1272.89 304.416C1273.29 303.352 1273.9 302.4 1274.69 301.616C1275.41 300.888 1276.31 300.272 1277.37 299.824C1278.44 299.432 1279.56 299.208 1280.85 299.208C1282.13 299.208 1283.25 299.432 1284.32 299.824C1285.38 300.272 1286.28 300.888 1287.06 301.616C1287.79 302.4 1288.41 303.352 1288.85 304.416C1289.25 305.48 1289.47 306.712 1289.47 308Z" fill="#030E2E"/>
<path d="M1307.33 297.864V294H1301.45V322H1307.5V308.784C1307.5 307.384 1307.61 306.04 1307.89 304.864C1308.11 303.688 1308.5 302.624 1309.06 301.784C1309.62 300.944 1310.35 300.272 1311.3 299.768C1312.2 299.264 1313.32 299.04 1314.66 299.04C1316.46 299.04 1317.91 299.6 1318.98 300.72C1320.04 301.84 1320.54 303.576 1320.54 305.872V322H1326.7V305.088C1326.7 303.296 1326.48 301.672 1326.09 300.216C1325.7 298.816 1325.08 297.584 1324.24 296.52C1323.4 295.512 1322.34 294.728 1321.05 294.168C1319.76 293.608 1318.25 293.328 1316.51 293.328C1314.55 293.328 1312.82 293.72 1311.25 294.504C1309.68 295.288 1308.39 296.408 1307.33 297.864Z" fill="#030E2E"/>
<path d="M1339.92 312.312C1338.52 312.312 1337.4 312.76 1336.51 313.712C1335.56 314.664 1335.11 315.784 1335.11 317.184C1335.11 318.584 1335.56 319.704 1336.51 320.6C1337.4 321.552 1338.52 322 1339.92 322C1341.32 322 1342.44 321.552 1343.4 320.6C1344.35 319.704 1344.8 318.584 1344.8 317.184C1344.8 315.784 1344.35 314.664 1343.4 313.712C1342.44 312.76 1341.32 312.312 1339.92 312.312Z" fill="#030E2E"/>
</svg>
