<svg width="1920" height="962" fill="none" xmlns="http://www.w3.org/2000/svg"><path fill="#fff" d="M0 0h1920v962H0z"/><path fill="#030E2E" d="M240 87h723v300H240z"/><path d="M300.256 159c3.942 0 6.336-2.538 6.336-6.3 0-3.78-2.394-6.3-6.336-6.3h-4.032V159h4.032Zm-2.466-11.16h2.466c3.06 0 4.734 1.908 4.734 4.86 0 2.934-1.674 4.86-4.734 4.86h-2.466v-9.72Zm19.036 9.81c-.414 0-.594-.126-.594-.612v-4.014c0-2.142-1.35-3.312-3.69-3.312-2.214 0-3.672 1.062-3.888 2.862h1.476c.18-.936 1.044-1.548 2.34-1.548 1.44 0 2.286.72 2.286 1.908v.63h-2.7c-2.412 0-3.69 1.026-3.69 2.862 0 1.674 1.368 2.682 3.384 2.682 1.584 0 2.502-.702 3.078-1.53.018.9.432 1.422 1.656 1.422h.81v-1.35h-.468Zm-2.07-2.394c0 1.53-1.062 2.592-2.898 2.592-1.224 0-1.998-.612-1.998-1.512 0-1.044.738-1.53 2.052-1.53h2.844v.45Zm8.281-5.436c-1.638 0-2.34.684-2.772 1.386l-.198-1.386h-1.278V159h1.476v-4.68c0-1.458.522-3.06 2.448-3.06h.738v-1.44h-.414Zm2.053 9.18h1.476v-2.412l1.854-1.908 3.042 4.32h1.782l-3.834-5.382 3.582-3.798h-1.818l-4.608 4.878V146.4h-1.476V159Zm16.37 0v-9.72l6.768 9.72h1.44v-12.6h-1.53v9.72l-6.768-9.72h-1.44V159h1.53Zm18.914-1.35c-.414 0-.594-.126-.594-.612v-4.014c0-2.142-1.35-3.312-3.69-3.312-2.214 0-3.672 1.062-3.888 2.862h1.476c.18-.936 1.044-1.548 2.34-1.548 1.44 0 2.286.72 2.286 1.908v.63h-2.7c-2.412 0-3.69 1.026-3.69 2.862 0 1.674 1.368 2.682 3.384 2.682 1.584 0 2.502-.702 3.078-1.53.018.9.432 1.422 1.656 1.422h.81v-1.35h-.468Zm-2.07-2.394c0 1.53-1.062 2.592-2.898 2.592-1.224 0-1.998-.612-1.998-1.512 0-1.044.738-1.53 2.052-1.53h2.844v.45Zm6.219 3.744h1.782l3.438-9.18h-1.548l-2.754 7.506-2.772-7.506h-1.584l3.438 9.18Zm9.363.054-.45 1.116c-.342.864-.486 1.08-1.332 1.08h-1.314v1.35h1.764c1.296 0 1.638-.576 2.214-2.052l4.23-10.728h-1.566l-2.736 7.326-2.826-7.326h-1.566l3.582 9.234Z" fill="#F1F4FE"/><path d="M387.618 151.116h-2.034v1.242h1.854l-.342 2.376h-1.908v1.242h1.728l-.468 3.024h1.224l.468-3.024h2.466l-.468 3.024h1.224l.468-3.024h2.034v-1.242h-1.854l.342-2.376h1.908v-1.242h-1.728l.468-3.024h-1.224l-.468 3.024h-2.466l.468-3.024h-1.224l-.468 3.024Zm3.51 1.242-.342 2.376h-2.466l.342-2.376h2.466Zm4.952.63c0 3.762 1.944 6.12 4.788 6.12 2.826 0 4.77-2.358 4.77-6.12v-.576c0-3.582-1.944-6.12-4.77-6.12-2.844 0-4.788 2.538-4.788 6.12v.576Zm8.028-.054c0 2.988-1.296 4.788-3.24 4.788-1.962 0-3.258-1.8-3.258-4.788v-.468c0-2.988 1.296-4.788 3.258-4.788 1.944 0 3.24 1.8 3.24 4.788v.468Zm9.761-.486c1.206-.324 2.034-1.242 2.034-2.826 0-1.98-1.638-3.33-4.23-3.33-2.484 0-4.212 1.53-4.23 3.744h1.494c.018-1.44 1.17-2.394 2.754-2.394 1.512 0 2.664.792 2.664 2.07 0 1.278-.936 2.214-2.808 2.214h-.99v1.314h1.08c1.962 0 3.042.846 3.042 2.16 0 1.44-1.26 2.358-2.898 2.358-1.782 0-3.078-.99-3.096-2.646h-1.494c0 2.502 1.764 3.996 4.5 3.996 2.736 0 4.536-1.458 4.536-3.6 0-1.926-1.206-2.844-2.358-3.06Zm4.218.54c0 3.762 1.944 6.12 4.788 6.12 2.826 0 4.77-2.358 4.77-6.12v-.576c0-3.582-1.944-6.12-4.77-6.12-2.844 0-4.788 2.538-4.788 6.12v.576Zm8.028-.054c0 2.988-1.296 4.788-3.24 4.788-1.962 0-3.258-1.8-3.258-4.788v-.468c0-2.988 1.296-4.788 3.258-4.788 1.944 0 3.24 1.8 3.24 4.788v.468Zm3.891 6.066h8.262v-1.44h-6.696v-4.248h5.382v-1.44h-5.382v-4.032h6.462v-1.44h-8.028V159Zm9.552 0h8.676v-1.386h-6.588l3.78-3.204c1.494-1.278 2.718-2.466 2.718-4.356 0-2.268-1.584-3.762-4.302-3.762-2.538 0-4.212 1.692-4.212 4.068v.324h1.512v-.234c0-1.728 1.08-2.808 2.7-2.808 1.674 0 2.754.9 2.754 2.484 0 1.368-.972 2.34-2.142 3.348l-4.896 4.248V159Zm10.821 0h8.262v-1.44h-6.696v-4.248h5.382v-1.44h-5.382v-4.032h6.462v-1.44h-8.028V159Z" fill="#686E82"/><path d="M963 87h143v300H963V87Z" fill="#0F1938"/><path d="M1106 87h146v300h-146V87Z" fill="#353E58"/><path d="M1252 87h145v300h-145V87Z" fill="#686E82"/><path d="M1397 87h144v300h-144V87Z" fill="#E2E2E5"/><path d="M1541 87h145v300h-145V87Z" fill="#F0F1F2"/><path fill="#DDE3F8" d="M240 387h723.003v225H240z"/><path d="M303.532 459v-1.44h-5.742V446.4h-1.566V459h7.308Zm2.487-10.728c.54 0 .954-.396.954-.954a.927.927 0 0 0-.954-.954.927.927 0 0 0-.954.954c0 .558.414.954.954.954ZM305.263 459h1.476v-9.18h-1.476V459Zm11.094-7.596c-.576-1.026-1.602-1.692-3.15-1.692-2.538 0-4.41 1.89-4.41 4.698 0 2.988 1.872 4.698 4.41 4.698 1.548 0 2.538-.648 3.15-1.692v1.08c0 1.998-1.044 2.898-2.97 2.898-1.53 0-2.556-.648-2.808-1.8h-1.512c.234 2.016 1.872 3.114 4.212 3.114 3.15 0 4.554-1.512 4.554-4.158v-8.73h-1.278l-.198 1.584Zm-3.006 6.39c-1.818 0-3.042-1.386-3.042-3.384s1.224-3.384 3.042-3.384c1.8 0 3.024 1.404 3.024 3.42 0 1.962-1.224 3.348-3.024 3.348Zm11.352-8.082c-1.548 0-2.484.756-3.024 1.62V446.4h-1.476V459h1.476v-4.59c0-2.07 1.062-3.348 2.772-3.348 1.584 0 2.502 1.008 2.502 2.916V459h1.476v-5.112c0-3.042-1.674-4.176-3.726-4.176Zm6.652 6.894c0 1.62.63 2.394 2.394 2.394h1.602v-1.35h-1.458c-.792 0-1.062-.288-1.062-1.062v-5.418h2.376v-1.35h-2.376v-2.574h-1.476v2.574h-1.656v1.35h1.656v5.436ZM342.277 459h4.59c2.988 0 4.572-1.368 4.572-3.6 0-1.818-1.17-2.682-2.502-2.934 1.188-.414 1.98-1.296 1.98-2.736 0-2.034-1.494-3.33-4.176-3.33h-4.464V459Zm4.536-11.178c1.638 0 2.538.756 2.538 2.016 0 1.278-.918 2.034-2.538 2.034h-2.97v-4.05h2.97Zm.054 5.454c1.872 0 2.97.774 2.97 2.196 0 1.296-1.026 2.106-2.97 2.106h-3.024v-4.302h3.024Zm6.681 5.724h1.476v-12.6h-1.476V459Zm10.284-4.59c0 2.07-1.008 3.348-2.682 3.348-1.53 0-2.394-1.008-2.394-2.916v-5.022h-1.476v5.112c0 3.042 1.602 4.176 3.618 4.176 1.512 0 2.394-.648 2.934-1.332l.198 1.224h1.278v-9.18h-1.476v4.59Zm8.078 4.698c2.124 0 3.636-1.35 3.996-3.186h-1.494c-.306 1.188-1.314 1.872-2.61 1.872-1.746 0-2.844-1.224-2.898-2.97v-.126h7.128c.018-.216.036-.432.036-.63-.072-2.718-1.764-4.356-4.356-4.356-2.592 0-4.356 1.908-4.356 4.698 0 2.808 1.8 4.698 4.554 4.698Zm-2.916-5.634c.144-1.494 1.386-2.466 2.736-2.466 1.53 0 2.61.882 2.754 2.466h-5.49Z" fill="#001149"/><path d="M385.271 451.116h-2.034v1.242h1.854l-.342 2.376h-1.908v1.242h1.728l-.468 3.024h1.224l.468-3.024h2.466l-.468 3.024h1.224l.468-3.024h2.034v-1.242h-1.854l.342-2.376h1.908v-1.242h-1.728l.468-3.024h-1.224l-.468 3.024h-2.466l.468-3.024h-1.224l-.468 3.024Zm3.51 1.242-.342 2.376h-2.466l.342-2.376h2.466Zm9.434 6.642c3.942 0 6.336-2.538 6.336-6.3 0-3.78-2.394-6.3-6.336-6.3h-4.032V459h4.032Zm-2.466-11.16h2.466c3.06 0 4.734 1.908 4.734 4.86 0 2.934-1.674 4.86-4.734 4.86h-2.466v-9.72ZM410.915 459c3.942 0 6.336-2.538 6.336-6.3 0-3.78-2.394-6.3-6.336-6.3h-4.032V459h4.032Zm-2.466-11.16h2.466c3.06 0 4.734 1.908 4.734 4.86 0 2.934-1.674 4.86-4.734 4.86h-2.466v-9.72ZM419.582 459h8.262v-1.44h-6.696v-4.248h5.382v-1.44h-5.382v-4.032h6.462v-1.44h-8.028V459Zm16.338-6.552c1.206-.324 2.034-1.242 2.034-2.826 0-1.98-1.638-3.33-4.23-3.33-2.484 0-4.212 1.53-4.23 3.744h1.494c.018-1.44 1.17-2.394 2.754-2.394 1.512 0 2.664.792 2.664 2.07 0 1.278-.936 2.214-2.808 2.214h-.99v1.314h1.08c1.962 0 3.042.846 3.042 2.16 0 1.44-1.26 2.358-2.898 2.358-1.782 0-3.078-.99-3.096-2.646h-1.494c0 2.502 1.764 3.996 4.5 3.996 2.736 0 4.536-1.458 4.536-3.6 0-1.926-1.206-2.844-2.358-3.06Zm4.668 6.552h1.566v-5.508h5.184v-1.44h-5.184v-4.212h6.264v-1.44h-7.83V459Zm16.025-6.516c1.224-.27 2.16-1.404 2.16-2.844 0-1.98-1.656-3.348-4.23-3.348-2.574 0-4.23 1.368-4.23 3.348 0 1.512.954 2.574 2.16 2.844-1.422.324-2.52 1.422-2.52 3.132 0 2.034 1.746 3.492 4.59 3.492s4.59-1.458 4.59-3.492c0-1.728-1.116-2.808-2.52-3.132Zm-4.752-2.844c0-1.224 1.062-2.052 2.682-2.052 1.62 0 2.682.828 2.682 2.052 0 1.242-1.062 2.07-2.682 2.07-1.62 0-2.682-.828-2.682-2.07Zm2.682 8.172c-1.782 0-3.042-.954-3.042-2.304 0-1.332 1.242-2.286 3.042-2.286 1.8 0 3.042.954 3.042 2.286 0 1.35-1.242 2.304-3.042 2.304Z" fill="#686E82"/><path fill="#F1F4FE" d="M963 387h723.003v225H963z"/><path d="M1015.64 459.108c2.85 0 4.93-1.62 5.4-4.23h-1.65c-.47 1.764-1.82 2.79-3.77 2.79-2.64 0-4.26-2.07-4.26-4.968 0-2.916 1.69-4.968 4.34-4.968 1.89 0 3.22 1.044 3.7 2.79h1.66c-.47-2.61-2.5-4.23-5.29-4.23-3.66 0-6.01 2.592-6.01 6.408 0 3.852 2.26 6.408 5.88 6.408Zm11.67 0c2.68 0 4.55-1.908 4.55-4.698 0-2.79-1.87-4.698-4.55-4.698-2.69 0-4.56 1.908-4.56 4.698 0 2.79 1.87 4.698 4.56 4.698Zm0-1.314c-1.82 0-3.05-1.422-3.05-3.384s1.23-3.384 3.05-3.384c1.81 0 3.04 1.422 3.04 3.384s-1.23 3.384-3.04 3.384Zm10.83 1.314c2.69 0 4.56-1.908 4.56-4.698 0-2.79-1.87-4.698-4.56-4.698-2.68 0-4.55 1.908-4.55 4.698 0 2.79 1.87 4.698 4.55 4.698Zm0-1.314c-1.81 0-3.04-1.422-3.04-3.384s1.23-3.384 3.04-3.384c1.82 0 3.05 1.422 3.05 3.384s-1.23 3.384-3.05 3.384Zm6.61 1.206h1.48v-12.6h-1.48V459Zm11.88 0h1.87l2.87-9.99 2.88 9.99h1.87l3.69-12.6h-1.62l-2.97 10.584-2.99-10.584h-1.58l-3.1 10.584-2.95-10.584h-1.64l3.67 12.6Zm19.33-9.288c-1.55 0-2.48.756-3.02 1.62V446.4h-1.48V459h1.48v-4.59c0-2.07 1.06-3.348 2.77-3.348 1.58 0 2.5 1.008 2.5 2.916V459h1.48v-5.112c0-3.042-1.68-4.176-3.73-4.176Zm6.72-1.44c.54 0 .96-.396.96-.954 0-.558-.42-.954-.96-.954s-.95.396-.95.954c0 .558.41.954.95.954Zm-.75 10.728h1.47v-9.18h-1.47V459Zm4.54-2.394c0 1.62.63 2.394 2.39 2.394h1.6v-1.35h-1.45c-.8 0-1.07-.288-1.07-1.062v-5.418h2.38v-1.35h-2.38v-2.574h-1.47v2.574h-1.66v1.35h1.66v5.436Zm9.63 2.502c2.13 0 3.64-1.35 4-3.186h-1.49c-.31 1.188-1.32 1.872-2.61 1.872-1.75 0-2.85-1.224-2.9-2.97v-.126h7.13c.01-.216.03-.432.03-.63-.07-2.718-1.76-4.356-4.35-4.356-2.6 0-4.36 1.908-4.36 4.698 0 2.808 1.8 4.698 4.55 4.698Zm-2.91-5.634c.14-1.494 1.38-2.466 2.73-2.466 1.53 0 2.61.882 2.76 2.466h-5.49Z" fill="#030E2E"/><path d="M1109.47 451.116h-2.04v1.242h1.86l-.35 2.376h-1.9v1.242h1.72l-.46 3.024h1.22l.47-3.024h2.46l-.46 3.024h1.22l.47-3.024h2.03v-1.242h-1.85l.34-2.376h1.91v-1.242h-1.73l.47-3.024h-1.23l-.46 3.024h-2.47l.47-3.024h-1.23l-.46 3.024Zm3.51 1.242-.35 2.376h-2.46l.34-2.376h2.47Zm5.4 6.642h1.56v-5.508h5.19v-1.44h-5.19v-4.212h6.27v-1.44h-7.83V459Zm11.72-11.232c0 .63-.29 1.08-.88 1.08h-2.05v1.35h2.03c.4 0 .68-.072.86-.234V459h1.52v-12.6h-1.48v1.368Zm4.31 11.232h1.56v-5.508h5.19v-1.44h-5.19v-4.212h6.27v-1.44h-7.83V459Zm8.65-3.078h6.61V459h1.51v-3.078h2.03v-1.386h-2.03V446.4h-1.69l-6.43 8.172v1.35Zm6.61-7.668v6.282h-4.92l4.92-6.282Zm5.3 10.746h1.57v-5.508h5.18v-1.44h-5.18v-4.212h6.26v-1.44h-7.83V459Zm9.87 0h8.27v-1.44h-6.7v-4.248h5.38v-1.44h-5.38v-4.032h6.46v-1.44h-8.03V459Z" fill="#686E82"/><path fill="#5377EC" d="M240 612h723.003v150H240z"/><path d="m296.818 674 1.332-3.402h5.49l1.332 3.402h1.674l-4.788-12.6h-1.854l-4.806 12.6h1.62Zm4.068-10.89 2.286 6.066h-4.554l2.268-6.066Zm11.047 10.998c2.232 0 3.726-1.26 4.086-3.24h-1.566c-.288 1.17-1.188 1.926-2.502 1.926-1.764 0-2.952-1.368-2.952-3.366s1.188-3.402 2.952-3.402c1.35 0 2.25.738 2.52 1.962h1.548c-.378-2.016-1.8-3.276-4.05-3.276-2.664 0-4.482 1.908-4.482 4.716 0 2.862 1.764 4.68 4.446 4.68Zm10.187 0c2.232 0 3.726-1.26 4.086-3.24h-1.566c-.288 1.17-1.188 1.926-2.502 1.926-1.764 0-2.952-1.368-2.952-3.366s1.188-3.402 2.952-3.402c1.35 0 2.25.738 2.52 1.962h1.548c-.378-2.016-1.8-3.276-4.05-3.276-2.664 0-4.482 1.908-4.482 4.716 0 2.862 1.764 4.68 4.446 4.68Zm10.294 0c2.124 0 3.636-1.35 3.996-3.186h-1.494c-.306 1.188-1.314 1.872-2.61 1.872-1.746 0-2.844-1.224-2.898-2.97v-.126h7.128c.018-.216.036-.432.036-.63-.072-2.718-1.764-4.356-4.356-4.356-2.592 0-4.356 1.908-4.356 4.698 0 2.808 1.8 4.698 4.554 4.698Zm-2.916-5.634c.144-1.494 1.386-2.466 2.736-2.466 1.53 0 2.61.882 2.754 2.466h-5.49Zm13.618-3.762c-1.548 0-2.484.648-3.024 1.35l-.198-1.242h-1.278V674h1.476v-4.59c0-2.07 1.044-3.348 2.772-3.348 1.602 0 2.484 1.008 2.484 2.916V674h1.476v-5.112c0-3.042-1.638-4.176-3.708-4.176Zm6.634 6.894c0 1.62.63 2.394 2.394 2.394h1.602v-1.35h-1.458c-.792 0-1.062-.288-1.062-1.062v-5.418h2.376v-1.35h-2.376v-2.574h-1.476v2.574h-1.656v1.35h1.656v5.436ZM360.672 674h4.59c2.988 0 4.572-1.368 4.572-3.6 0-1.818-1.17-2.682-2.502-2.934 1.188-.414 1.98-1.296 1.98-2.736 0-2.034-1.494-3.33-4.176-3.33h-4.464V674Zm4.536-11.178c1.638 0 2.538.756 2.538 2.016 0 1.278-.918 2.034-2.538 2.034h-2.97v-4.05h2.97Zm.054 5.454c1.872 0 2.97.774 2.97 2.196 0 1.296-1.026 2.106-2.97 2.106h-3.024v-4.302h3.024Zm6.681 5.724h1.476v-12.6h-1.476V674Zm10.284-4.59c0 2.07-1.008 3.348-2.682 3.348-1.53 0-2.394-1.008-2.394-2.916v-5.022h-1.476v5.112c0 3.042 1.602 4.176 3.618 4.176 1.512 0 2.394-.648 2.934-1.332l.198 1.224h1.278v-9.18h-1.476v4.59Zm8.078 4.698c2.124 0 3.636-1.35 3.996-3.186h-1.494c-.306 1.188-1.314 1.872-2.61 1.872-1.746 0-2.844-1.224-2.898-2.97v-.126h7.128c.018-.216.036-.432.036-.63-.072-2.718-1.764-4.356-4.356-4.356-2.592 0-4.356 1.908-4.356 4.698 0 2.808 1.8 4.698 4.554 4.698Zm-2.916-5.634c.144-1.494 1.386-2.466 2.736-2.466 1.53 0 2.61.882 2.754 2.466h-5.49Z" fill="#F1F4FE"/><path d="M403.666 666.116h-2.034v1.242h1.854l-.342 2.376h-1.908v1.242h1.728l-.468 3.024h1.224l.468-3.024h2.466l-.468 3.024h1.224l.468-3.024h2.034v-1.242h-1.854l.342-2.376h1.908v-1.242h-1.728l.468-3.024h-1.224l-.468 3.024h-2.466l.468-3.024h-1.224l-.468 3.024Zm3.51 1.242-.342 2.376h-2.466l.342-2.376h2.466Zm9.668-1.8c-1.17 0-2.25.288-3.024 1.206l.288-3.978h6.156V661.4h-7.542l-.414 7.164 1.458.036c.54-1.494 2.088-1.71 2.862-1.71 1.746 0 2.844 1.206 2.844 2.916 0 1.944-1.386 2.934-2.862 2.934-1.818 0-2.916-1.206-3.06-2.664h-1.494c.126 2.196 1.746 4.014 4.554 4.014 2.358 0 4.41-1.512 4.41-4.302 0-2.502-1.71-4.23-4.176-4.23Zm12.282 1.89c1.206-.324 2.034-1.242 2.034-2.826 0-1.98-1.638-3.33-4.23-3.33-2.484 0-4.212 1.53-4.23 3.744h1.494c.018-1.44 1.17-2.394 2.754-2.394 1.512 0 2.664.792 2.664 2.07 0 1.278-.936 2.214-2.808 2.214h-.99v1.314h1.08c1.962 0 3.042.846 3.042 2.16 0 1.44-1.26 2.358-2.898 2.358-1.782 0-3.078-.99-3.096-2.646h-1.494c0 2.502 1.764 3.996 4.5 3.996 2.736 0 4.536-1.458 4.536-3.6 0-1.926-1.206-2.844-2.358-3.06Zm3.254-4.662h7.236L433.442 674h1.638l6.192-11.538V661.4h-8.892v1.386Zm10.063 0h7.236L443.505 674h1.638l6.192-11.538V661.4h-8.892v1.386ZM453.112 674h8.262v-1.44h-6.696v-4.248h5.382v-1.44h-5.382v-4.032h6.462v-1.44h-8.028V674Zm15.375.108c2.844 0 4.932-1.62 5.4-4.23h-1.656c-.468 1.764-1.818 2.79-3.762 2.79-2.646 0-4.266-2.07-4.266-4.968 0-2.916 1.692-4.968 4.338-4.968 1.89 0 3.222 1.044 3.708 2.79h1.656c-.468-2.61-2.502-4.23-5.292-4.23-3.654 0-6.012 2.592-6.012 6.408 0 3.852 2.268 6.408 5.886 6.408Z" fill="#F0F1F2"/><path fill="#EBE440" d="M963 612h723.003v150H963z"/><path d="m1010.82 674 1.33-3.402h5.49l1.33 3.402h1.68l-4.79-12.6H1014l-4.8 12.6h1.62Zm4.07-10.89 2.28 6.066h-4.55l2.27-6.066Zm11.04 10.998c2.24 0 3.73-1.26 4.09-3.24h-1.57c-.28 1.17-1.18 1.926-2.5 1.926-1.76 0-2.95-1.368-2.95-3.366s1.19-3.402 2.95-3.402c1.35 0 2.25.738 2.52 1.962h1.55c-.38-2.016-1.8-3.276-4.05-3.276-2.66 0-4.48 1.908-4.48 4.716 0 2.862 1.76 4.68 4.44 4.68Zm10.19 0c2.23 0 3.73-1.26 4.09-3.24h-1.57c-.29 1.17-1.19 1.926-2.5 1.926-1.77 0-2.95-1.368-2.95-3.366s1.18-3.402 2.95-3.402c1.35 0 2.25.738 2.52 1.962h1.55c-.38-2.016-1.8-3.276-4.05-3.276-2.67 0-4.49 1.908-4.49 4.716 0 2.862 1.77 4.68 4.45 4.68Zm10.29 0c2.13 0 3.64-1.35 4-3.186h-1.49c-.31 1.188-1.32 1.872-2.61 1.872-1.75 0-2.85-1.224-2.9-2.97v-.126h7.13c.01-.216.03-.432.03-.63-.07-2.718-1.76-4.356-4.35-4.356-2.6 0-4.36 1.908-4.36 4.698 0 2.808 1.8 4.698 4.55 4.698Zm-2.91-5.634c.14-1.494 1.38-2.466 2.73-2.466 1.53 0 2.61.882 2.76 2.466h-5.49Zm13.62-3.762c-1.55 0-2.49.648-3.03 1.35l-.2-1.242h-1.27V674h1.47v-4.59c0-2.07 1.05-3.348 2.77-3.348 1.61 0 2.49 1.008 2.49 2.916V674h1.47v-5.112c0-3.042-1.63-4.176-3.7-4.176Zm6.63 6.894c0 1.62.63 2.394 2.39 2.394h1.61v-1.35h-1.46c-.79 0-1.06-.288-1.06-1.062v-5.418h2.37v-1.35h-2.37v-2.574h-1.48v2.574h-1.66v1.35h1.66v5.436Zm14.61-2.268V674h1.57v-4.662l4.75-7.938h-1.76l-3.77 6.246-3.7-6.246h-1.84l4.75 7.938Zm10.51 4.77c2.13 0 3.64-1.35 4-3.186h-1.5c-.3 1.188-1.31 1.872-2.61 1.872-1.74 0-2.84-1.224-2.89-2.97v-.126h7.12c.02-.216.04-.432.04-.63-.07-2.718-1.76-4.356-4.36-4.356-2.59 0-4.35 1.908-4.35 4.698 0 2.808 1.8 4.698 4.55 4.698Zm-2.91-5.634c.14-1.494 1.38-2.466 2.73-2.466 1.53 0 2.61.882 2.76 2.466h-5.49Zm9.11 5.526h1.48v-12.6h-1.48V674Zm3.86 0h1.48v-12.6h-1.48V674Zm8.09.108c2.68 0 4.55-1.908 4.55-4.698 0-2.79-1.87-4.698-4.55-4.698-2.68 0-4.55 1.908-4.55 4.698 0 2.79 1.87 4.698 4.55 4.698Zm0-1.314c-1.82 0-3.04-1.422-3.04-3.384s1.22-3.384 3.04-3.384 3.04 1.422 3.04 3.384-1.22 3.384-3.04 3.384Zm8.41 1.206h1.62l2.31-6.822 2.21 6.822h1.62l3.06-9.18h-1.49l-2.4 7.47-2.28-7.47h-1.37l-2.41 7.47-2.29-7.47h-1.55l2.97 9.18Z" fill="#001149"/><path d="M1134.93 666.116h-2.04v1.242h1.86l-.34 2.376h-1.91v1.242h1.73l-.47 3.024h1.22l.47-3.024h2.47l-.47 3.024h1.22l.47-3.024h2.03v-1.242h-1.85l.34-2.376h1.91v-1.242h-1.73l.47-3.024h-1.22l-.47 3.024h-2.47l.47-3.024h-1.22l-.47 3.024Zm3.51 1.242-.34 2.376h-2.47l.34-2.376h2.47Zm5.4 6.642h8.26v-1.44h-6.7v-4.248h5.39v-1.44h-5.39v-4.032h6.47v-1.44h-8.03V674Zm10.38 0h4.59c2.99 0 4.57-1.368 4.57-3.6 0-1.818-1.17-2.682-2.5-2.934 1.19-.414 1.98-1.296 1.98-2.736 0-2.034-1.5-3.33-4.18-3.33h-4.46V674Zm4.53-11.178c1.64 0 2.54.756 2.54 2.016 0 1.278-.92 2.034-2.54 2.034h-2.97v-4.05h2.97Zm.06 5.454c1.87 0 2.97.774 2.97 2.196 0 1.296-1.03 2.106-2.97 2.106h-3.03v-4.302h3.03Zm6.9 5.724h8.26v-1.44h-6.7v-4.248h5.38v-1.44h-5.38v-4.032h6.46v-1.44h-8.02V674Zm9.38-3.078h6.61V674h1.51v-3.078h2.04v-1.386h-2.04V661.4h-1.69l-6.43 8.172v1.35Zm6.61-7.668v6.282h-4.91l4.91-6.282Zm4.44 7.668h6.61V674h1.51v-3.078h2.03v-1.386h-2.03V661.4h-1.69l-6.43 8.172v1.35Zm6.61-7.668v6.282h-4.92l4.92-6.282Zm4.86 4.734c0 3.762 1.94 6.12 4.78 6.12 2.83 0 4.77-2.358 4.77-6.12v-.576c0-3.582-1.94-6.12-4.77-6.12-2.84 0-4.78 2.538-4.78 6.12v.576Zm8.02-.054c0 2.988-1.29 4.788-3.24 4.788-1.96 0-3.25-1.8-3.25-4.788v-.468c0-2.988 1.29-4.788 3.25-4.788 1.95 0 3.24 1.8 3.24 4.788v.468Z" fill="#686E82"/><path opacity=".3" d="M240.781 9.465c.216.517.504.961.889 1.346.372.384.817.672 1.333.889a4.262 4.262 0 0 0 1.67.312c.637 0 1.213-.096 1.742-.3a4.534 4.534 0 0 0 1.429-.89l-.829-1.56c-.66.72-1.441 1.068-2.366 1.068-.361 0-.697-.06-.997-.18a2.728 2.728 0 0 1-.793-.516 2.566 2.566 0 0 1-.529-.793 2.828 2.828 0 0 1-.18-1.033c0-.36.06-.71.18-1.021.133-.313.301-.577.529-.793.228-.228.492-.397.793-.517a2.574 2.574 0 0 1 1.021-.192c.456 0 .865.084 1.225.264.361.168.697.409 1.009.733l.805-1.538a4.22 4.22 0 0 0-1.381-.852 4.654 4.654 0 0 0-1.646-.289c-.601 0-1.153.108-1.67.325a4.075 4.075 0 0 0-1.345.877 4.104 4.104 0 0 0-.889 1.333 4.384 4.384 0 0 0-.313 1.658c0 .6.109 1.165.313 1.67Zm9.772-1.67c0 .601.108 1.154.324 1.67.204.517.505.961.877 1.334a3.91 3.91 0 0 0 1.334.877 4.263 4.263 0 0 0 1.669.324c.601 0 1.154-.108 1.67-.324a3.896 3.896 0 0 0 1.333-.877c.373-.373.673-.817.889-1.334.205-.516.313-1.069.313-1.67 0-.6-.108-1.153-.313-1.67a4.104 4.104 0 0 0-.889-1.333 4.106 4.106 0 0 0-1.333-.888 4.486 4.486 0 0 0-1.67-.313c-.6 0-1.153.108-1.669.313a4.121 4.121 0 0 0-1.334.888 3.907 3.907 0 0 0-.877 1.334 4.27 4.27 0 0 0-.324 1.67Zm6.727 0c0 .373-.06.71-.18 1.01a2.47 2.47 0 0 1-.529.805 2.313 2.313 0 0 1-.793.516 2.573 2.573 0 0 1-1.021.192 2.48 2.48 0 0 1-1.009-.192 2.27 2.27 0 0 1-.805-.516 2.26 2.26 0 0 1-.516-.805 2.48 2.48 0 0 1-.192-1.01c0-.372.06-.708.192-1.02.12-.3.288-.565.516-.793.229-.229.493-.397.805-.529a2.7 2.7 0 0 1 1.009-.18c.373 0 .709.06 1.021.18.301.132.565.3.793.529.228.228.397.492.529.793.12.312.18.648.18 1.02Zm6.704-4.204h-1.682V12h5.502v-1.682h-3.82V3.591Zm6.386 4.205c0 .6.109 1.153.325 1.67.204.516.504.96.877 1.333.372.372.817.672 1.333.877a4.268 4.268 0 0 0 1.67.324c.6 0 1.153-.108 1.67-.324a3.906 3.906 0 0 0 1.333-.877c.372-.373.673-.817.889-1.334.204-.516.312-1.069.312-1.67 0-.6-.108-1.153-.312-1.67a4.12 4.12 0 0 0-.889-1.333 4.117 4.117 0 0 0-1.333-.888 4.493 4.493 0 0 0-1.67-.313 4.49 4.49 0 0 0-1.67.313 4.117 4.117 0 0 0-1.333.888 3.893 3.893 0 0 0-.877 1.334 4.27 4.27 0 0 0-.325 1.67Zm6.727 0c0 .372-.06.708-.18 1.009-.132.312-.3.576-.528.805a2.332 2.332 0 0 1-.793.516 2.576 2.576 0 0 1-1.021.192c-.373 0-.709-.06-1.009-.192a2.253 2.253 0 0 1-1.322-1.321 2.48 2.48 0 0 1-.192-1.01c0-.372.06-.708.192-1.02.121-.3.289-.565.517-.793.228-.229.492-.397.805-.529.3-.12.636-.18 1.009-.18.372 0 .709.06 1.021.18.3.132.564.3.793.529.228.228.396.492.528.793.12.312.18.648.18 1.02Zm6.848 4.192v-2.81h1.045l1.802 2.81h2.042l-1.982-2.991c.265-.096.505-.228.721-.397.216-.168.408-.36.565-.588.156-.228.276-.48.372-.757.084-.276.12-.565.12-.877 0-.384-.06-.757-.204-1.093a2.968 2.968 0 0 0-.577-.889 2.79 2.79 0 0 0-.889-.589 2.888 2.888 0 0 0-1.117-.216h-3.579v8.397h1.681Zm2.715-4.817c-.192.216-.468.324-.817.324h-1.898V5.261h1.898c.349 0 .625.12.817.336.204.217.3.48.3.781 0 .312-.096.565-.3.793Zm5.045-1.165c0 .396.072.745.204 1.02.132.277.312.517.529.71.216.192.456.348.732.468.265.132.529.228.793.312.204.06.409.12.589.18s.336.12.468.193c.133.084.241.168.325.276a.7.7 0 0 1 .108.396c0 .229-.084.42-.264.553-.181.132-.433.204-.757.204-.709 0-1.153-.36-1.322-1.093l-1.501.649c.084.372.216.696.396.96.18.277.397.493.649.662.252.18.528.3.829.384.3.084.612.12.937.12.384 0 .745-.06 1.081-.168.324-.108.613-.264.853-.469.24-.204.432-.456.576-.756.133-.3.205-.65.205-1.046s-.06-.72-.181-.997a2.278 2.278 0 0 0-.492-.696 3.302 3.302 0 0 0-.709-.469 8.394 8.394 0 0 0-.829-.324c-.228-.072-.432-.144-.612-.204a2.078 2.078 0 0 1-.493-.217.852.852 0 0 1-.312-.264.535.535 0 0 1-.12-.372c0-.204.084-.385.252-.529.168-.144.42-.216.769-.216.336 0 .612.084.829.24.216.156.372.433.456.817l1.526-.613c-.156-.696-.481-1.225-.973-1.585-.505-.36-1.118-.54-1.826-.54-.385 0-.745.047-1.069.155a2.512 2.512 0 0 0-.865.48 1.983 1.983 0 0 0-.577.758 2.5 2.5 0 0 0-.204 1.02Z" fill="#12183D"/></svg>