<svg xmlns="http://www.w3.org/2000/svg" width="1920" height="1081" fill="none">
  <path fill="#F5F7FB" d="M0 .0117188h1920v1080H0z"/>
  <g clip-path="url(#a)">
    <path fill="#141D26" d="M860.419 492.573h67.357v17.626h-48.22v30.347h44.7v17.014h-44.7v42.302h-19.137V492.573Zm77.029 0h18.368v107.291h-18.368V492.573Zm32.741 26.057h18.369v49.353c0 11.495 5.357 17.32 16.232 17.32 9.95 0 16.53-6.897 16.53-17.32V518.63h18.37v81.234h-17.76v-7.205h-.31c-4.74 5.979-13.32 9.503-22.347 9.503-18.368 0-29.084-11.189-29.084-30.346V518.63Zm104.861 40.004-27.56-40.004h21.59l16.99 26.517h.31l16.83-26.517h21.74l-27.71 40.004 28.32 41.23h-21.58l-17.61-27.588h-.3l-17.6 27.588h-21.74l28.32-41.23Zm81.33-6.284c13.62-3.524 17.91-5.977 17.91-11.035 0-5.671-4.9-9.197-13.01-9.197-9.19 0-15.46 5.364-17.15 14.407l-17.29-3.678c1.37-7.971 5.05-14.408 11.32-19.161 6.28-4.904 14.09-7.356 23.12-7.356 19.59 0 31.84 11.189 31.84 29.429v54.106h-16.69v-7.051h-.3c-4.13 5.979-12.1 9.348-22.05 9.348-16.07 0-26.63-9.348-26.63-23.91 0-13.641 8.11-20.998 28.93-25.902Zm18.67 6.13h-.3c-1.69 2.913-5.51 5.059-14.09 7.511-11.17 2.912-15.46 5.976-15.46 11.035 0 6.131 3.98 9.197 11.94 9.197 10.57 0 17.92-5.67 17.92-13.796V558.48h-.01Zm-407.263 25.785c8.429 0 15.263-6.842 15.263-15.282 0-8.44-6.834-15.282-15.263-15.282s-15.262 6.842-15.262 15.282c0 8.44 6.833 15.282 15.262 15.282Z"/>
    <path fill="#141D26" d="M783.05 568.983h-15.263v15.281h15.263v-15.281Z"/>
    <path fill="#141D26" d="M767.787 584.264c8.429 0 15.263-6.842 15.263-15.282 0-8.44-6.834-15.282-15.263-15.282s-15.262 6.842-15.262 15.282c0 8.44 6.833 15.282 15.262 15.282Z"/>
    <path fill="#141D26" d="M783.05 553.7h-15.263v15.282h15.263V553.7Zm15.262.002c8.429 0 15.262-6.842 15.262-15.282 0-8.44-6.833-15.281-15.262-15.281s-15.262 6.841-15.262 15.281c0 8.44 6.833 15.282 15.262 15.282Z"/>
    <path fill="#141D26" d="M798.312 538.42H783.05v15.282h15.262V538.42Zm0 76.409c8.429 0 15.262-6.842 15.262-15.281 0-8.44-6.833-15.282-15.262-15.282s-15.262 6.842-15.262 15.282c0 8.439 6.833 15.281 15.262 15.281Z"/>
    <path fill="#386AF1" d="M798.312 492.575c8.429 0 15.262-6.842 15.262-15.282 0-8.439-6.833-15.281-15.262-15.281s-15.262 6.842-15.262 15.281c0 8.44 6.833 15.282 15.262 15.282Z"/>
    <path fill="#141D26" d="M798.312 584.266H783.05v15.282h15.262v-15.282Zm-15.262-6.113v6.111h6.104c-3.371 0-6.104-2.736-6.104-6.111Zm0 12.227v-6.111h-6.104c3.371 0 6.104 2.736 6.104 6.111Zm-6.104-36.68h6.104v-6.112c0 3.376-2.733 6.112-6.104 6.112Zm12.21 0h-6.104v6.112c0-3.375 2.733-6.112 6.104-6.112Zm-51.894.001c8.43 0 15.263-6.842 15.263-15.281 0-8.44-6.833-15.282-15.263-15.282-8.429 0-15.262 6.842-15.262 15.282 0 8.439 6.833 15.281 15.262 15.281Z"/>
    <path fill="#141D26" d="M752.525 523.138h-15.263v15.282h15.263v-15.282Zm15.262-.001c8.429 0 15.263-6.842 15.263-15.282 0-8.44-6.834-15.282-15.263-15.282s-15.262 6.842-15.262 15.282c0 8.44 6.833 15.282 15.262 15.282Z"/>
    <path fill="#141D26" d="M767.787 507.855h-15.262v15.281h15.262v-15.281Zm30.525 45.847c8.429 0 15.262-6.842 15.262-15.282 0-8.44-6.833-15.281-15.262-15.281s-15.262 6.841-15.262 15.281c0 8.44 6.833 15.282 15.262 15.282Zm-51.891-30.564h6.104v-6.111c0 3.375-2.733 6.111-6.104 6.111Zm12.208.001h-6.104v6.111c0-3.375 2.733-6.111 6.104-6.111Zm39.683 91.69c8.429 0 15.262-6.842 15.262-15.281 0-8.44-6.833-15.282-15.262-15.282s-15.262 6.842-15.262 15.282c0 8.439 6.833 15.281 15.262 15.281Z"/>
  </g>
  <path fill="#141D26" d="M242.568 203.612h-1.68v8.4h5.496v-1.68h-3.816v-6.72Zm6.382 4.2c0 .6.108 1.152.324 1.668.204.516.504.96.876 1.332.372.372.816.672 1.332.876.516.216 1.068.324 1.668.324.6 0 1.152-.108 1.668-.324.516-.204.96-.504 1.332-.876.372-.372.672-.816.888-1.332.204-.516.312-1.068.312-1.668 0-.6-.108-1.152-.312-1.668-.216-.516-.516-.96-.888-1.332-.372-.372-.816-.672-1.332-.888-.516-.204-1.068-.312-1.668-.312-.6 0-1.152.108-1.668.312-.516.216-.96.516-1.332.888-.372.372-.672.816-.876 1.332-.216.516-.324 1.068-.324 1.668Zm6.72 0c0 .372-.06.708-.18 1.008-.132.312-.3.576-.528.804-.228.228-.492.396-.792.516-.312.132-.648.192-1.02.192s-.708-.06-1.008-.192c-.312-.12-.576-.288-.804-.516-.228-.228-.396-.492-.516-.804-.132-.3-.192-.636-.192-1.008s.06-.708.192-1.02c.12-.3.288-.564.516-.792.228-.228.492-.396.804-.528.3-.12.636-.18 1.008-.18s.708.06 1.02.18c.3.132.564.3.792.528.228.228.396.492.528.792.12.312.18.648.18 1.02Zm4.899 1.644c.216.516.504.948.876 1.32.384.372.828.672 1.356.876.528.204 1.104.312 1.728.312.552 0 1.068-.096 1.548-.276.48-.18.912-.456 1.272-.816.36-.36.636-.804.852-1.332.204-.528.312-1.14.312-1.824v-.552h-4.296v1.68h2.364c-.048.24-.144.444-.288.636-.144.18-.3.336-.492.456s-.396.204-.624.264c-.228.06-.456.096-.684.096-.384 0-.732-.06-1.044-.192-.312-.12-.576-.288-.804-.516-.216-.216-.396-.48-.516-.792-.12-.312-.192-.66-.192-1.032s.072-.708.192-1.02c.12-.312.3-.576.516-.804.216-.216.48-.384.792-.516.312-.12.648-.18 1.008-.18.456 0 .888.084 1.284.252.396.18.756.444 1.08.816l.816-1.56c-.42-.408-.9-.708-1.428-.9-.528-.192-1.092-.288-1.668-.288-.636 0-1.212.096-1.74.312s-.972.504-1.356.888c-.372.372-.66.816-.864 1.332-.204.504-.312 1.068-.312 1.68 0 .6.108 1.164.312 1.68Zm10.655-1.644c0 .6.108 1.152.324 1.668.204.516.504.96.876 1.332.372.372.816.672 1.332.876.516.216 1.068.324 1.668.324.6 0 1.152-.108 1.668-.324.516-.204.96-.504 1.332-.876.372-.372.672-.816.888-1.332.204-.516.312-1.068.312-1.668 0-.6-.108-1.152-.312-1.668-.216-.516-.516-.96-.888-1.332-.372-.372-.816-.672-1.332-.888-.516-.204-1.068-.312-1.668-.312-.6 0-1.152.108-1.668.312-.516.216-.96.516-1.332.888-.372.372-.672.816-.876 1.332-.216.516-.324 1.068-.324 1.668Zm6.72 0c0 .372-.06.708-.18 1.008-.132.312-.3.576-.528.804-.228.228-.492.396-.792.516-.312.132-.648.192-1.02.192s-.708-.06-1.008-.192c-.312-.12-.576-.288-.804-.516-.228-.228-.396-.492-.516-.804-.132-.3-.192-.636-.192-1.008s.06-.708.192-1.02c.12-.3.288-.564.516-.792.228-.228.492-.396.804-.528.3-.12.636-.18 1.008-.18s.708.06 1.02.18c.3.132.564.3.792.528.228.228.396.492.528.792.12.312.18.648.18 1.02Zm8.907-2.52h3.036v-1.68h-7.752v1.68h3.036v6.72h1.68v-6.72Zm8.521 6.72h1.68v-3.252l3.432-5.148h-2.028l-2.244 3.36-2.244-3.36h-2.028l3.432 5.148v3.252Zm11.277-8.4h-3.288v8.4h1.68v-2.532h1.608c.432 0 .828-.072 1.188-.228.36-.144.672-.348.936-.612.252-.252.456-.564.612-.924.144-.348.216-.744.216-1.164 0-.42-.072-.816-.216-1.176-.156-.36-.36-.672-.612-.936-.264-.252-.576-.456-.936-.612-.36-.144-.756-.216-1.188-.216Zm1.272 2.94c0 .36-.108.66-.324.888-.228.24-.54.36-.948.36h-1.608v-2.508h1.608c.408 0 .72.12.948.348.216.24.324.54.324.912Zm10.285-2.94h-5.424v8.4h5.424v-1.68h-3.744v-1.68h3.744v-1.68h-3.744v-1.68h3.744v-1.68Z" opacity=".3"/>
  <defs>
    <clipPath id="a">
      <path fill="#fff" d="M0 0h484.564v152.816H0z" transform="translate(722 462.012)"/>
    </clipPath>
  </defs>
</svg>
