<svg xmlns="http://www.w3.org/2000/svg" width="1920" height="1080" fill="none">
  <path fill="#1B052A" d="M0 0h1920v1080H0z"/>
  <path fill="#fff" d="M241.68 199.048H240v8.4h5.496v-1.68h-3.816v-6.72Zm6.382 4.2c0 .6.108 1.152.324 1.668.204.516.504.96.876 1.332.372.372.816.672 1.332.876.516.216 1.068.324 1.668.324.6 0 1.152-.108 1.668-.324.516-.204.96-.504 1.332-.876.372-.372.672-.816.888-1.332.204-.516.312-1.068.312-1.668 0-.6-.108-1.152-.312-1.668-.216-.516-.516-.96-.888-1.332-.372-.372-.816-.672-1.332-.888-.516-.204-1.068-.312-1.668-.312-.6 0-1.152.108-1.668.312-.516.216-.96.516-1.332.888-.372.372-.672.816-.876 1.332-.216.516-.324 1.068-.324 1.668Zm6.72 0c0 .372-.06.708-.18 1.008-.132.312-.3.576-.528.804-.228.228-.492.396-.792.516-.312.132-.648.192-1.02.192s-.708-.06-1.008-.192c-.312-.12-.576-.288-.804-.516-.228-.228-.396-.492-.516-.804-.132-.3-.192-.636-.192-1.008s.06-.708.192-1.02c.12-.3.288-.564.516-.792.228-.228.492-.396.804-.528.3-.12.636-.18 1.008-.18s.708.06 1.02.18c.3.132.564.3.792.528.228.228.396.492.528.792.12.312.18.648.18 1.02Zm4.899 1.644c.216.516.504.948.876 1.32.384.372.828.672 1.356.876.528.204 1.104.312 1.728.312.552 0 1.068-.096 1.548-.276.48-.18.912-.456 1.272-.816.36-.36.636-.804.852-1.332.204-.528.312-1.14.312-1.824v-.552h-4.296v1.68h2.364c-.048.24-.144.444-.288.636-.144.18-.3.336-.492.456s-.396.204-.624.264c-.228.06-.456.096-.684.096-.384 0-.732-.06-1.044-.192-.312-.12-.576-.288-.804-.516-.216-.216-.396-.48-.516-.792-.12-.312-.192-.66-.192-1.032s.072-.708.192-1.02c.12-.312.3-.576.516-.804.216-.216.48-.384.792-.516.312-.12.648-.18 1.008-.18.456 0 .888.084 1.284.252.396.18.756.444 1.08.816l.816-1.56c-.42-.408-.9-.708-1.428-.9-.528-.192-1.092-.288-1.668-.288-.636 0-1.212.096-1.74.312s-.972.504-1.356.888c-.372.372-.66.816-.864 1.332-.204.504-.312 1.068-.312 1.68 0 .6.108 1.164.312 1.68Zm10.655-1.644c0 .6.108 1.152.324 1.668.204.516.504.96.876 1.332.372.372.816.672 1.332.876.516.216 1.068.324 1.668.324.6 0 1.152-.108 1.668-.324.516-.204.96-.504 1.332-.876.372-.372.672-.816.888-1.332.204-.516.312-1.068.312-1.668 0-.6-.108-1.152-.312-1.668-.216-.516-.516-.96-.888-1.332-.372-.372-.816-.672-1.332-.888-.516-.204-1.068-.312-1.668-.312-.6 0-1.152.108-1.668.312-.516.216-.96.516-1.332.888-.372.372-.672.816-.876 1.332-.216.516-.324 1.068-.324 1.668Zm6.72 0c0 .372-.06.708-.18 1.008-.132.312-.3.576-.528.804-.228.228-.492.396-.792.516-.312.132-.648.192-1.02.192s-.708-.06-1.008-.192c-.312-.12-.576-.288-.804-.516-.228-.228-.396-.492-.516-.804-.132-.3-.192-.636-.192-1.008s.06-.708.192-1.02c.12-.3.288-.564.516-.792.228-.228.492-.396.804-.528.3-.12.636-.18 1.008-.18s.708.06 1.02.18c.3.132.564.3.792.528.228.228.396.492.528.792.12.312.18.648.18 1.02Zm8.907-2.52h3.036v-1.68h-7.752v1.68h3.036v6.72h1.68v-6.72Zm8.521 6.72h1.68v-3.252l3.432-5.148h-2.028l-2.244 3.36-2.244-3.36h-2.028l3.432 5.148v3.252Zm11.277-8.4h-3.288v8.4h1.68v-2.532h1.608c.432 0 .828-.072 1.188-.228.36-.144.672-.348.936-.612.252-.252.456-.564.612-.924.144-.348.216-.744.216-1.164 0-.42-.072-.816-.216-1.176-.156-.36-.36-.672-.612-.936-.264-.252-.576-.456-.936-.612-.36-.144-.756-.216-1.188-.216Zm1.272 2.94c0 .36-.108.66-.324.888-.228.24-.54.36-.948.36h-1.608v-2.508h1.608c.408 0 .72.12.948.348.216.24.324.54.324.912Zm10.285-2.94h-5.424v8.4h5.424v-1.68h-3.744v-1.68h3.744v-1.68h-3.744v-1.68h3.744v-1.68Z" opacity=".5"/>
  <g fill="#DFD7FC" clip-path="url(#a)">
    <path d="m733.713 524.098 17.056 11.42c3.53 2.364 3.53 6.193 0 8.558l-17.056 11.419c-6.001 4.017-9.713 9.57-9.713 15.699 0 12.265 14.846 22.204 33.154 22.204 18.307 0 33.153-9.939 33.153-22.204 0-6.129-3.711-11.682-9.713-15.699l-17.056-11.419c-3.53-2.365-3.53-6.194 0-8.558l17.056-11.42c12.951-8.671 12.951-22.728 0-31.398-12.945-8.671-33.936-8.671-46.881 0-12.951 8.67-12.951 22.727 0 31.398Zm151.257 33.526c-2.779 5.317-6.651 9.489-11.619 12.511-4.968 3.022-10.623 4.53-16.965 4.53-6.342 0-11.998-1.508-16.966-4.53-4.968-3.022-8.839-7.189-11.619-12.511-2.78-5.317-4.17-11.329-4.17-18.026 0-6.697 1.39-12.703 4.17-18.026 2.78-5.316 6.651-9.488 11.619-12.511 4.968-3.022 10.624-4.53 16.966-4.53 6.342 0 11.997 1.514 16.965 4.53 4.968 3.023 8.84 7.189 11.619 12.511 2.78 5.317 4.17 11.329 4.17 18.026 0 6.697-1.39 12.704-4.17 18.026Zm-49.565-3.99c2.024 4.102 4.856 7.322 8.483 9.654 3.626 2.332 7.796 3.498 12.503 3.498s8.877-1.166 12.503-3.498c3.627-2.332 6.454-5.547 8.483-9.654 2.023-4.103 3.041-8.783 3.041-14.036 0-5.252-1.018-9.933-3.041-14.035-2.029-4.103-4.856-7.323-8.483-9.655-3.626-2.332-7.796-3.498-12.503-3.498s-8.877 1.166-12.503 3.498c-3.627 2.332-6.454 5.552-8.483 9.655-2.029 4.102-3.041 8.783-3.041 14.035 0 5.253 1.012 9.933 3.041 14.036Zm105.862-29.794v50.231h-6.96l-1.081-6.696c-3.792 4.862-9.122 7.29-15.986 7.29-5.948 0-10.719-1.84-14.314-5.514-3.594-3.675-5.394-9.457-5.394-17.336V523.84h8.041v27.483c0 5.188 1.129 9.146 3.381 11.869 2.258 2.728 5.474 4.086 9.66 4.086 4.574 0 8.153-1.642 10.735-4.926 2.583-3.284 3.872-7.745 3.872-13.393V523.84h8.046Zm35.619 0v7.879h-4.021c-4.771 0-8.19 1.61-10.245 4.825-2.061 3.22-3.089 7.189-3.089 11.917v25.61h-8.04V523.84h6.959l1.081 7.585c1.438-2.3 3.302-4.135 5.592-5.515 2.289-1.38 5.458-2.07 9.51-2.07h2.258-.005Zm51.904.001v47.77c0 15.17-8.27 22.754-24.81 22.754-6.47 0-11.753-1.476-15.837-4.434-4.084-2.953-6.454-7.157-7.109-12.607h8.238c.655 3.15 2.322 5.579 5 7.29 2.678 1.707 6.118 2.562 10.298 2.562 10.78 0 16.17-5.284 16.17-15.859v-5.91c-3.59 6.172-9.31 9.258-17.16 9.258-4.643 0-8.775-1.016-12.402-3.054-3.626-2.032-6.47-4.99-8.531-8.863-2.06-3.872-3.088-8.472-3.088-13.789s1.028-9.521 3.088-13.394c2.061-3.872 4.921-6.894 8.579-9.061 3.658-2.166 7.78-3.252 12.354-3.252 4.05 0 7.52.803 10.39 2.413 2.88 1.61 5.14 3.888 6.77 6.846l1.08-8.67h6.97Zm-15.84 41.32c2.52-1.541 4.46-3.707 5.84-6.499 1.37-2.792 2.06-5.959 2.06-9.505 0-3.547-.69-6.847-2.06-9.703-1.38-2.856-3.32-5.071-5.84-6.649-2.52-1.578-5.38-2.364-8.58-2.364-4.965 0-8.969 1.722-12.01 5.172-3.04 3.45-4.558 7.895-4.558 13.346 0 5.45 1.518 9.901 4.558 13.345 3.041 3.45 7.045 5.173 12.01 5.173 3.2 0 6.06-.771 8.58-2.316Zm25.98-60.03h8.04v68.946h-8.04v-68.946Zm64.79 61.56v7.386h-4.41c-3.21 0-5.49-.658-6.87-1.968-1.37-1.311-2.09-3.252-2.15-5.809-3.86 5.584-9.45 8.371-16.77 8.371-5.56 0-10.02-1.31-13.39-3.942-3.36-2.626-5.05-6.205-5.05-10.735 0-5.055 1.72-8.927 5.15-11.623 3.44-2.691 8.42-4.039 14.96-4.039h14.7v-3.45c0-3.284-1.09-5.841-3.28-7.681-2.19-1.84-5.25-2.76-9.17-2.76-3.47 0-6.33.771-8.58 2.316-2.26 1.546-3.64 3.595-4.17 6.157h-8.04c.59-4.926 2.76-8.767 6.52-11.522 3.76-2.76 8.65-4.134 14.66-4.134 6.41 0 11.36 1.562 14.86 4.68 3.5 3.118 5.24 7.601 5.24 13.447v21.668c0 2.429 1.12 3.643 3.34 3.643h2.45v-.005Zm-13.82-15.56h-15.49c-7.46 0-11.18 2.792-11.18 8.371 0 2.498.98 4.498 2.94 6.006 1.96 1.514 4.61 2.268 7.95 2.268 4.9 0 8.76-1.294 11.57-3.888 2.81-2.594 4.21-6.023 4.21-10.291v-2.466Zm25.3 6.397c.13 3.022 1.46 5.482 3.98 7.386 2.51 1.904 5.76 2.857 9.75 2.857 3.53 0 6.39-.706 8.58-2.119 2.19-1.412 3.29-3.268 3.29-5.562 0-1.969-.53-3.482-1.58-4.531-1.04-1.048-2.4-1.77-4.06-2.166-1.67-.396-4.04-.786-7.11-1.182-4.32-.524-7.85-1.214-10.59-2.07-2.75-.851-4.97-2.215-6.67-4.087-1.7-1.872-2.55-4.45-2.55-7.734 0-2.953.83-5.579 2.5-7.879s3.94-4.087 6.82-5.37c2.87-1.279 6.11-1.921 9.7-1.921 5.89 0 10.68 1.38 14.37 4.135 3.69 2.76 5.74 6.697 6.13 11.821h-8.04c-.33-2.626-1.6-4.793-3.82-6.499-2.22-1.706-5-2.562-8.34-2.562-3.33 0-6.14.706-8.24 2.118-2.09 1.412-3.13 3.268-3.13 5.563 0 1.706.49 3.022 1.47 3.942.98.92 2.23 1.546 3.77 1.872 1.54.332 3.87.69 7.02 1.086 4.37.524 7.99 1.246 10.83 2.166 2.85.92 5.14 2.397 6.87 4.435 1.73 2.037 2.6 4.792 2.6 8.274 0 3.022-.89 5.681-2.65 7.981-1.76 2.3-4.15 4.07-7.16 5.317-3.01 1.246-6.34 1.872-10 1.872-6.54 0-11.78-1.509-15.73-4.531-3.96-3.022-5.97-7.221-6.04-12.607h8.04l-.01-.005Zm47.27 0c.13 3.022 1.45 5.482 3.97 7.386 2.51 1.904 5.77 2.857 9.76 2.857 3.53 0 6.39-.706 8.58-2.119 2.18-1.412 3.28-3.268 3.28-5.562 0-1.969-.52-3.482-1.57-4.531-1.05-1.048-2.4-1.77-4.07-2.166-1.67-.396-4.03-.786-7.11-1.182-4.31-.524-7.84-1.214-10.59-2.07-2.75-.851-4.97-2.215-6.67-4.087-1.69-1.872-2.55-4.45-2.55-7.734 0-2.953.83-5.579 2.51-7.879 1.66-2.3 3.93-4.087 6.81-5.37 2.88-1.279 6.12-1.921 9.71-1.921 5.88 0 10.67 1.38 14.37 4.135 3.69 2.76 5.73 6.697 6.13 11.821h-8.05c-.33-2.626-1.6-4.793-3.82-6.499-2.22-1.706-5-2.562-8.33-2.562-3.34 0-6.15.706-8.24 2.118s-3.14 3.268-3.14 5.563c0 1.706.49 3.022 1.47 3.942.98.92 2.24 1.546 3.78 1.872 1.53.332 3.87.69 7.01 1.086 4.38.524 7.99 1.246 10.84 2.166 2.84.92 5.13 2.397 6.86 4.435 1.73 2.037 2.6 4.792 2.6 8.274 0 3.022-.88 5.681-2.65 7.981-1.76 2.3-4.15 4.07-7.15 5.317-3.01 1.246-6.34 1.872-10 1.872-6.54 0-11.79-1.509-15.74-4.531-3.95-3.022-5.96-7.221-6.03-12.607h8.04l-.01-.005Z"/>
  </g>
  <defs>
    <clipPath id="a">
      <path fill="#fff" d="M0 0h472v108.17H0z" transform="translate(724 486.196)"/>
    </clipPath>
  </defs>
</svg>
