<svg width="1920" height="935" viewBox="0 0 1920 935" fill="none" xmlns="http://www.w3.org/2000/svg">
<g clip-path="url(#clip0_870_34861)">
<rect width="960" height="935" transform="translate(959.992)" fill="black"/>
<g clip-path="url(#clip1_870_34861)">
<rect width="960" height="935" transform="translate(959.992)" fill="black"/>
<path opacity="0.2" d="M1493.19 343H1386.99C1377.89 343 1369.99 349.1 1367.59 357.9L1324.59 518.2C1323.19 523.4 1325.49 528.9 1330.19 531.6L1430.09 589.3C1436.29 592.9 1443.89 592.9 1450.09 589.3L1550.09 531.6C1554.79 528.9 1557.09 523.4 1555.69 518.2L1512.69 357.9C1510.29 349.1 1502.39 343 1493.29 343H1493.19ZM1497.39 359.2L1443.09 561.2C1442.29 564.3 1437.89 564.3 1436.99 561.2L1382.69 359.2C1381.69 355.5 1384.49 351.8 1388.39 351.8H1491.79C1495.69 351.8 1498.49 355.5 1497.49 359.2H1497.39ZM1377.99 376L1430.69 572.1C1431.59 575.3 1428.09 577.9 1425.29 576.3L1339.89 527C1335.49 524.5 1333.39 519.3 1334.69 514.5L1371.79 376.1C1372.59 372.9 1377.09 372.9 1377.99 376.1V376ZM1449.29 572.1L1501.99 376C1502.79 372.8 1507.29 372.8 1508.19 376L1545.29 514.4C1546.59 519.3 1544.49 524.4 1540.09 526.9L1454.69 576.2C1451.79 577.9 1448.39 575.2 1449.29 572V572.1Z" fill="white"/>
<path opacity="0.4" d="M1493.26 382.771C1482.4 382.771 1473.52 373.887 1473.52 363.03C1473.52 352.173 1482.4 343.288 1493.26 343.288C1504.12 343.288 1513 352.173 1513 363.03C1513 373.887 1504.12 382.771 1493.26 382.771Z" stroke="white" stroke-width="0.6" stroke-miterlimit="10"/>
<path opacity="0.4" d="M1386.89 382.7C1376.06 382.7 1367.19 373.834 1367.19 363C1367.19 352.166 1376.06 343.3 1386.89 343.3C1397.72 343.3 1406.59 352.166 1406.59 363C1406.59 373.834 1397.72 382.7 1386.89 382.7Z" stroke="white" stroke-width="0.6" stroke-miterlimit="10"/>
<path opacity="0.4" d="M1347.7 521.3C1347.7 527.735 1342.53 532.9 1336.1 532.9C1329.66 532.9 1324.5 527.735 1324.5 521.3C1324.5 514.866 1329.66 509.7 1336.1 509.7C1342.53 509.7 1347.7 514.866 1347.7 521.3Z" stroke="white" stroke-width="0.6" stroke-miterlimit="10"/>
<path opacity="0.4" d="M1356.29 517.4C1356.29 523.352 1351.41 528.233 1345.46 528.233C1339.51 528.233 1334.63 523.352 1334.63 517.4C1334.63 511.448 1339.51 506.568 1345.46 506.568C1351.41 506.568 1356.29 511.448 1356.29 517.4Z" stroke="white" stroke-width="0.6" stroke-miterlimit="10"/>
<path opacity="0.4" d="M1556 521.201C1556 514.601 1550.7 509.301 1544.1 509.301C1537.5 509.301 1532.2 514.601 1532.2 521.201C1532.2 527.801 1537.5 533.101 1544.1 533.101C1550.7 533.101 1556 527.801 1556 521.201Z" stroke="white" stroke-width="0.6" stroke-miterlimit="10"/>
<path opacity="0.4" d="M1545.79 517.301C1545.79 511.201 1540.79 506.201 1534.69 506.201C1528.59 506.201 1523.59 511.201 1523.59 517.301C1523.59 523.401 1528.59 528.401 1534.69 528.401C1540.79 528.401 1545.79 523.401 1545.79 517.301Z" stroke="white" stroke-width="0.6" stroke-miterlimit="10"/>
<path opacity="0.4" d="M1393.99 357.701C1393.99 360.832 1391.43 363.301 1388.39 363.301C1385.26 363.301 1382.79 360.835 1382.79 357.701C1382.79 354.566 1385.26 352.101 1388.39 352.101C1391.53 352.101 1393.99 354.566 1393.99 357.701Z" stroke="white" stroke-width="0.6" stroke-miterlimit="10"/>
<path opacity="0.4" d="M1497.37 357.719C1497.37 360.866 1494.79 363.347 1491.74 363.347C1488.59 363.347 1486.11 360.869 1486.11 357.719C1486.11 354.569 1488.59 352.091 1491.74 352.091C1494.89 352.091 1497.37 354.569 1497.37 357.719Z" stroke="white" stroke-width="0.6" stroke-miterlimit="10"/>
<path opacity="0.4" d="M1460.17 571.963C1460.17 582.817 1451.29 591.699 1440.44 591.699C1429.58 591.699 1420.7 582.817 1420.7 571.963C1420.7 561.108 1429.58 552.226 1440.44 552.226C1451.29 552.226 1460.17 561.108 1460.17 571.963Z" stroke="white" stroke-width="0.6" stroke-miterlimit="10"/>
<path opacity="0.6" d="M920.292 343.3H1955.09V351.501H920.292V343.3Z" stroke="white" stroke-width="0.6" stroke-miterlimit="10"/>
<path opacity="0.6" d="M1493.27 -78.4949L1215.43 958.426L1207.57 956.321L1485.42 -80.6003L1493.27 -78.4949Z" stroke="white" stroke-width="0.6" stroke-miterlimit="10"/>
<path opacity="0.6" d="M1275.9 -35.4017L1546.43 967.242L1538.23 969.455L1267.7 -33.1886L1275.9 -35.4017Z" stroke="white" stroke-width="0.6" stroke-miterlimit="10"/>
<path opacity="0.6" d="M1614.27 -41.1869L1339.52 977.097L1331.58 974.956L1606.34 -43.328L1614.27 -41.1869Z" stroke="white" stroke-width="0.6" stroke-miterlimit="10"/>
<path opacity="0.6" d="M1384.12 -120.765L1683.47 996.406L1675.32 998.588L1375.98 -118.583L1384.12 -120.765Z" stroke="white" stroke-width="0.6" stroke-miterlimit="10"/>
<path opacity="0.6" d="M1929.27 877.151L875.572 268.801L879.706 261.64L1933.4 869.99L1929.27 877.151Z" stroke="white" stroke-width="0.6" stroke-miterlimit="10"/>
<path opacity="0.6" d="M2022.73 248.243L923.531 882.867L928.056 890.704L2027.26 256.08L2022.73 248.243Z" stroke="white" stroke-width="0.6" stroke-miterlimit="10"/>
</g>
<rect width="960" height="935" transform="translate(-0.0078125)" fill="#F7F7F8"/>
<path d="M595.556 518.107L556.798 373.793L552.454 357.608C551.323 353.414 548.838 349.709 545.383 347.067C541.927 344.426 537.695 342.997 533.343 343H426.614C422.261 342.997 418.029 344.426 414.574 347.067C411.118 349.709 408.633 353.414 407.503 357.608L403.158 373.793L364.401 518.107C363.715 520.677 363.896 523.4 364.916 525.857C365.936 528.313 367.739 530.366 370.045 531.698L460.504 583.825L470.06 589.33C473.085 591.085 476.523 592.007 480.023 592C483.489 592.003 486.894 591.095 489.897 589.368L499.465 583.85L589.924 531.724C592.233 530.389 594.037 528.331 595.055 525.869C596.073 523.407 596.249 520.679 595.556 518.107ZM565.513 535.474L495.006 576.095C494.362 576.477 493.617 576.656 492.869 576.608C492.121 576.561 491.405 576.289 490.814 575.828C490.216 575.378 489.768 574.759 489.527 574.052C489.286 573.345 489.264 572.581 489.464 571.861L522.781 447.787L542.032 376.094C542.196 375.408 542.592 374.799 543.154 374.37C543.716 373.942 544.408 373.72 545.115 373.742C545.82 373.72 546.511 373.943 547.071 374.371C547.63 374.8 548.024 375.409 548.186 376.094L585.414 514.751C586.026 517.054 585.858 519.495 584.937 521.693C584.015 523.891 582.391 525.723 580.318 526.905L565.513 535.474ZM386.748 530.974L379.664 526.88C377.591 525.698 375.967 523.865 375.045 521.667C374.124 519.469 373.956 517.029 374.568 514.725L411.796 376.069C411.958 375.383 412.352 374.775 412.911 374.346C413.471 373.917 414.162 373.695 414.867 373.717C415.574 373.694 416.266 373.916 416.828 374.345C417.39 374.773 417.786 375.382 417.95 376.069L430.946 424.457L470.518 571.836C470.718 572.556 470.696 573.319 470.455 574.027C470.214 574.734 469.766 575.353 469.168 575.803C468.58 576.264 467.866 576.536 467.12 576.584C466.374 576.632 465.631 576.452 464.989 576.07L386.748 530.974ZM414.918 364.613L414.982 364.817H414.867L414.918 364.613ZM545.115 364.613V364.817H545L545.115 364.613ZM531.826 351.9C532.706 351.897 533.575 352.097 534.364 352.485C535.153 352.874 535.842 353.439 536.375 354.137C536.913 354.831 537.282 355.64 537.455 356.5C537.627 357.36 537.598 358.249 537.369 359.096L533.419 373.793L514.168 445.473L483.093 561.169C482.929 561.855 482.533 562.464 481.971 562.893C481.41 563.321 480.717 563.543 480.01 563.521C479.305 563.543 478.614 563.32 478.054 562.892C477.495 562.463 477.101 561.854 476.94 561.169L456.682 485.751L426.614 373.742L422.664 359.045C422.435 358.198 422.406 357.31 422.578 356.449C422.75 355.589 423.12 354.78 423.658 354.086C424.191 353.388 424.88 352.823 425.669 352.435C426.458 352.046 427.327 351.846 428.206 351.849L531.826 351.9Z" fill="black"/>
<g opacity="0.3">
<path d="M240.88 103.6H244.456C244.976 103.6 245.424 103.704 245.8 103.912C246.176 104.112 246.464 104.392 246.664 104.752C246.864 105.104 246.964 105.508 246.964 105.964C246.964 106.396 246.872 106.772 246.688 107.092C246.504 107.404 246.248 107.64 245.92 107.8C246.248 107.968 246.504 108.212 246.688 108.532C246.872 108.844 246.964 109.212 246.964 109.636C246.964 110.092 246.864 110.5 246.664 110.86C246.464 111.212 246.176 111.492 245.8 111.7C245.424 111.9 244.976 112 244.456 112H240.88V103.6ZM244.42 106.96C244.676 106.96 244.884 106.88 245.044 106.72C245.204 106.56 245.284 106.352 245.284 106.096C245.284 105.856 245.204 105.66 245.044 105.508C244.892 105.356 244.684 105.28 244.42 105.28H242.56V106.96H244.42ZM244.42 110.32C244.684 110.32 244.892 110.248 245.044 110.104C245.204 109.952 245.284 109.752 245.284 109.504C245.284 109.24 245.204 109.032 245.044 108.88C244.884 108.72 244.676 108.64 244.42 108.64H242.56V110.32H244.42Z" fill="black"/>
<path d="M254.857 112L253.057 109.192H252.013V112H250.333V103.6H253.909C254.429 103.6 254.901 103.724 255.325 103.972C255.757 104.212 256.093 104.548 256.333 104.98C256.581 105.404 256.705 105.876 256.705 106.396C256.705 107.004 256.541 107.544 256.213 108.016C255.885 108.488 255.449 108.82 254.905 109.012L256.909 112H254.857ZM252.013 107.512H253.909C254.237 107.512 254.505 107.408 254.713 107.2C254.921 106.984 255.025 106.716 255.025 106.396C255.025 106.068 254.921 105.8 254.713 105.592C254.505 105.384 254.237 105.28 253.909 105.28H252.013V107.512Z" fill="black"/>
<path d="M266.105 110.668H261.689L261.077 112H259.229L263.117 103.6H264.677L268.565 112H266.717L266.105 110.668ZM265.325 108.988L263.897 105.904L262.469 108.988H265.325Z" fill="black"/>
<path d="M271.536 103.6H273L277.536 109.12V103.6H279.216V112H277.752L273.216 106.48V112H271.536V103.6Z" fill="black"/>
<path d="M282.993 103.6H286.041C286.825 103.6 287.529 103.784 288.153 104.152C288.777 104.512 289.265 105.012 289.617 105.652C289.977 106.284 290.157 107 290.157 107.8C290.157 108.6 289.977 109.32 289.617 109.96C289.265 110.592 288.777 111.092 288.153 111.46C287.529 111.82 286.825 112 286.041 112H282.993V103.6ZM286.041 110.32C286.513 110.32 286.933 110.212 287.301 109.996C287.669 109.78 287.957 109.48 288.165 109.096C288.373 108.712 288.477 108.28 288.477 107.8C288.477 107.32 288.373 106.888 288.165 106.504C287.957 106.12 287.669 105.82 287.301 105.604C286.933 105.388 286.513 105.28 286.041 105.28H284.673V110.32H286.041Z" fill="black"/>
<path d="M293.454 103.6H295.074L298.614 109.804L302.142 103.6H303.762V112H302.082V107.116L299.298 112H297.918L295.134 107.116V112H293.454V103.6Z" fill="black"/>
<path d="M313.608 110.668H309.192L308.58 112H306.732L310.62 103.6H312.18L316.068 112H314.22L313.608 110.668ZM312.828 108.988L311.4 105.904L309.972 108.988H312.828Z" fill="black"/>
<path d="M323.564 112L321.764 109.192H320.72V112H319.04V103.6H322.616C323.136 103.6 323.608 103.724 324.032 103.972C324.464 104.212 324.8 104.548 325.04 104.98C325.288 105.404 325.412 105.876 325.412 106.396C325.412 107.004 325.248 107.544 324.92 108.016C324.592 108.488 324.156 108.82 323.612 109.012L325.616 112H323.564ZM320.72 107.512H322.616C322.944 107.512 323.212 107.408 323.42 107.2C323.628 106.984 323.732 106.716 323.732 106.396C323.732 106.068 323.628 105.8 323.42 105.592C323.212 105.384 322.944 105.28 322.616 105.28H320.72V107.512Z" fill="black"/>
<path d="M328.74 103.6H330.42V107.14L333.948 103.6H336.312L332.664 107.272L336.324 112H334.188L331.476 108.472L330.42 109.528V112H328.74V103.6Z" fill="black"/>
</g>
</g>
<defs>
<clipPath id="clip0_870_34861">
<rect width="1920" height="935" fill="white" transform="translate(-0.0078125)"/>
</clipPath>
<clipPath id="clip1_870_34861">
<rect width="960" height="935" fill="white" transform="translate(959.992)"/>
</clipPath>
</defs>
</svg>
