<svg width="119" height="76" viewBox="0 0 119 76" fill="none" xmlns="http://www.w3.org/2000/svg">
<path d="M28.8392 25.1045V29.622H24.4824V25.1045H28.8392ZM24.648 32.2318H28.7152V48.8648H24.648V32.2318Z" fill="#1F1F1F"/>
<path d="M47.8936 32.2317V49.7897C47.8936 53.2502 45.3807 55.5956 41.652 55.5956H33.4352V52.3665H41.0984C42.7185 52.3665 43.8679 51.1441 43.8679 49.4016V47.023C43.0409 48.3114 41.1232 49.129 39.048 49.129C34.0304 49.129 31.1207 45.6356 31.1207 40.5482C31.1207 35.4608 34.0304 31.9674 38.9823 31.9674C41.0568 31.9674 42.8759 32.8263 43.8345 34.1147V32.2317H47.8936ZM44.1159 40.5482C44.1159 37.476 42.3384 35.4691 39.5937 35.4691C36.8495 35.4691 35.1383 37.4842 35.1383 40.5482C35.1383 43.6122 36.8905 45.6273 39.5937 45.6273C42.3465 45.619 44.124 43.6287 44.1159 40.5482Z" fill="#1F1F1F"/>
<path d="M51.2911 25.1045H55.3168V34.8003C56.2431 32.9833 58.1607 31.9592 60.5335 31.9592C64.2696 31.9592 66.7087 34.6681 66.7087 38.5579V48.8648H62.6824V39.4251C62.6824 37.1457 61.2607 35.5683 59.1856 35.5683C56.9375 35.5683 55.3168 37.3439 55.3168 39.7803V48.8566H51.2911V25.1045Z" fill="#1F1F1F"/>
<path d="M69.9823 25.1045H74.016V48.8648H69.9823V25.1045Z" fill="#1F1F1F"/>
<path d="M81.4728 25.1045V29.622H77.1161V25.1045H81.4728ZM77.2736 32.2318H81.3408V48.8648H77.2736V32.2318Z" fill="#1F1F1F"/>
<path d="M84.4984 32.2317H88.5656V34.8084C89.4913 32.9915 91.3761 31.9674 93.7488 31.9674C97.5104 31.9674 99.9569 34.6763 99.9569 38.5662V48.8647H95.8984V39.425C95.8984 37.1456 94.5176 35.5682 92.4344 35.5682C90.1528 35.5682 88.5656 37.3438 88.5656 39.7802V48.8565H84.4984V32.2317Z" fill="#1F1F1F"/>
<path d="M118.474 43.3232C117.846 46.8497 114.746 49.1291 110.646 49.1291C105.19 49.1291 102.156 44.8428 102.156 40.474C102.156 36.1051 104.867 31.9592 110.315 31.9592C115.895 31.9592 118.408 36.0225 118.408 39.9785C118.408 40.54 118.375 41.0355 118.342 41.3576H106.058C106.355 44.0334 108.075 45.743 110.646 45.743C112.729 45.743 114.085 44.8841 114.506 43.3067L118.474 43.3232ZM106.157 38.6983H114.35C114.184 36.5841 112.729 34.9985 110.323 34.9985C108.034 35.0067 106.587 36.1959 106.157 38.6983Z" fill="#1F1F1F"/>
<path d="M16.1664 40.4327V48.8814H20.9193V39.103H17.4969C16.7616 39.103 16.1664 39.6977 16.1664 40.4327Z" fill="#1F1F1F"/>
<path d="M16.1576 25.121V33.8669C16.1576 34.3542 15.7608 34.7506 15.2735 34.7589H6.62631C5.89056 34.7589 5.29536 35.3535 5.29536 36.0886V37.7651C5.29536 38.2523 4.89856 38.6487 4.41081 38.6487H0.971913C0.723913 38.6487 0.525513 38.8469 0.525513 39.0947V48.8813H5.27881V39.549C5.27881 39.0617 5.6756 38.6653 6.16336 38.657H14.8104C15.5463 38.657 16.1415 38.0624 16.1415 37.3274V35.6426C16.1415 35.1553 16.5383 34.7506 17.0343 34.7506H20.4648C20.7128 34.7506 20.9112 34.5524 20.9112 34.3129V25.121H16.1576Z" fill="#1F1F1F"/>
<path d="M5.2788 25.121H0.525513V34.3047H3.94791C4.68361 34.3047 5.2788 33.71 5.2788 32.975V25.121Z" fill="#1F1F1F"/>
</svg>
