<svg width="249" height="152" viewBox="0 0 249 152" fill="none" xmlns="http://www.w3.org/2000/svg">
<g clip-path="url(#clip0_2024_7039)">
<path fill-rule="evenodd" clip-rule="evenodd" d="M107.791 67.5297H110.182L110.184 67.5195H110.547L110.466 67.859C109.641 71.1828 106.358 73.5764 102.681 73.5764C97.7377 73.5764 94.1491 69.8689 94.1695 64.7763C94.1729 59.6972 97.7377 56 102.681 56C106.388 56 109.661 58.5192 110.49 61.9957L110.575 62.3556H107.818C107.507 61.2343 106.835 60.2467 105.907 59.5453C104.978 58.8439 103.845 58.4677 102.681 58.475C99.313 58.475 96.8856 61.0723 96.8856 64.7831C96.8856 68.4939 99.3368 71.1149 102.681 71.1149C103.798 71.1151 104.888 70.771 105.802 70.1295C106.716 69.4879 107.411 68.5801 107.791 67.5297ZM123.992 64.7797C123.992 59.6633 127.682 56 132.86 56C138.037 56 141.728 59.6633 141.728 64.7797C141.757 65.9487 141.552 67.1117 141.124 68.1999C140.696 69.288 140.054 70.2793 139.236 71.1149C137.657 72.6801 135.437 73.5798 132.86 73.5798C130.283 73.5798 128.063 72.6801 126.484 71.1149C125.666 70.2793 125.024 69.288 124.596 68.1999C124.168 67.1117 123.962 65.9487 123.992 64.7797ZM126.708 64.7797C126.708 68.4736 129.271 71.1115 132.86 71.1115C136.445 71.1115 138.988 68.4736 138.988 64.7797C138.988 61.0859 136.448 58.4716 132.86 58.4716C129.271 58.4716 126.708 61.0859 126.708 64.7797ZM115.82 56.8987V70.5504H123.428H123.768V70.8899V72.6825V73.022H123.428H113.443H113.104V72.6825V56.8987V56.5592H113.443H115.48H115.82V56.8987ZM166.468 56.5592C169.262 56.5592 171.618 57.3537 173.282 58.7932C174.131 59.5369 174.806 60.4591 175.258 61.4938C175.71 62.5284 175.928 63.6501 175.896 64.7787C175.927 65.9083 175.709 67.0309 175.257 68.067C174.806 69.103 174.133 70.0273 173.285 70.7744C171.618 72.2174 169.262 73.022 166.468 73.022H161.07V56.5592H166.468ZM166.468 70.5504C168.525 70.5504 170.209 69.9868 171.37 68.9954C171.971 68.4741 172.448 67.8248 172.765 67.0951C173.083 66.3654 173.232 65.5739 173.204 64.7787C173.23 63.9862 173.079 63.1977 172.761 62.4714C172.442 61.7452 171.965 61.0996 171.364 60.5824C170.202 59.5944 168.505 59.0274 166.468 59.0274H163.786V70.5504H166.468ZM155.43 56.5592H155.091V66.6155C155.091 69.2772 153.393 71.1106 151.017 71.1106C148.64 71.1106 146.926 69.2738 146.926 66.6155V56.5592H144.189V66.6155C144.189 70.6454 147.065 73.5788 151.02 73.5788C154.976 73.5788 157.81 70.642 157.81 66.6155V56.5592H155.434H155.43ZM155.814 79.6472H155.474V79.9867V81.7759V82.1154H155.814H160.693V95.7705V96.11H161.032H163.069H163.409V95.7705V82.1154H168.308H168.647V81.7759V79.9867V79.6472H168.308H155.814ZM246.439 87.7135C247.073 88.0541 247.608 88.5537 247.991 89.1632C248.408 89.8777 248.615 90.6957 248.588 91.5228C248.612 92.245 248.466 92.9628 248.163 93.6188C247.86 94.2748 247.408 94.851 246.843 95.3016C245.716 96.1843 244.1 96.6596 242.114 96.6596C239.985 96.6596 238.226 96.1028 236.994 95.0537C236.366 94.5071 235.869 93.8271 235.537 93.0635C235.206 92.2999 235.05 91.4719 235.079 90.6401V90.3006H237.772V90.6401C237.752 91.1309 237.843 91.6199 238.038 92.0708C238.233 92.5216 238.527 92.9226 238.899 93.2441C239.622 93.8586 240.708 94.1981 242.134 94.1981C243.377 94.1981 244.317 93.9265 244.939 93.4818C245.234 93.2778 245.474 93.0033 245.636 92.6831C245.799 92.363 245.879 92.0073 245.869 91.6484C245.884 91.2506 245.772 90.8582 245.55 90.5281C245.321 90.2228 245.016 89.9819 244.667 89.8287C243.876 89.445 242.789 89.2685 241.588 89.075C240.168 88.8611 238.613 88.5487 237.415 87.8426C236.8 87.4975 236.282 87.0037 235.908 86.4064C235.504 85.7165 235.302 84.9273 235.324 84.1283C235.303 83.425 235.446 82.7265 235.741 82.0875C236.035 81.4485 236.473 80.8862 237.021 80.4447C238.118 79.5619 239.656 79.0866 241.649 79.0866C243.642 79.0866 245.295 79.6366 246.453 80.628C247.61 81.6194 248.249 83.0555 248.249 84.8073V85.1469H245.597V84.8073C245.621 84.3597 245.541 83.9125 245.365 83.5005C245.188 83.0884 244.919 82.7224 244.579 82.4308C243.93 81.8876 242.946 81.5718 241.642 81.5718C240.42 81.5718 239.517 81.8231 238.926 82.2508C238.646 82.4504 238.42 82.716 238.268 83.024C238.116 83.332 238.042 83.6729 238.053 84.0163C238.039 84.3967 238.145 84.7719 238.355 85.0891C238.577 85.3847 238.87 85.6185 239.208 85.7682C239.968 86.1416 241.021 86.3182 242.199 86.5015C243.621 86.7358 245.21 87.0141 246.439 87.7135ZM194.101 93.6383V88.8309H201.641H201.981V88.4914V86.7022V86.3627H201.641H194.101V82.1154H202.537H202.877V81.7759V79.9867V79.6472H202.537H191.704H191.364V79.9867V95.7705V96.11H191.704H202.761H203.101V95.7705V93.9778V93.6383H202.761H194.101ZM154.405 84.7772C154.405 87.5408 152.338 89.4726 149.492 89.7782L154.741 95.5396L155.261 96.11H151.764L151.662 95.9946L146.301 89.9309H143.884V96.1236H141.168V79.6608H148.362C150.134 79.6608 151.638 80.1463 152.708 81.0426C153.251 81.4988 153.686 82.0711 153.98 82.7173C154.274 83.3636 154.419 84.0674 154.405 84.7772ZM148.365 82.1154H143.884V87.4593H148.365C149.246 87.5097 150.116 87.2489 150.823 86.7226C151.092 86.4767 151.307 86.1775 151.454 85.844C151.601 85.5105 151.677 85.1501 151.677 84.7857C151.677 84.4213 151.601 84.0608 151.454 83.7274C151.307 83.3939 151.092 83.0947 150.823 82.8488C150.113 82.328 149.245 82.0689 148.365 82.1154ZM103.957 79.8679L103.873 79.6472H100.627L100.545 79.8679L94.5904 95.6482L94.4172 96.11H97.0994L97.1808 95.8893L98.4404 92.5723H106.011L107.271 95.8893L107.353 96.11H110.001L109.831 95.6516L103.957 79.8679ZM105.163 90.2127H99.296L102.236 82.4821L105.163 90.2127ZM184.333 79.6472H184.56H188.088V96.11H185.372V83.8096L180.51 95.8995L180.425 96.1134H178.018L177.933 95.8995L173.081 83.8401V96.11H170.342V79.6472H174.134L174.219 79.8577L179.223 92.2701L184.248 79.8577L184.333 79.6472ZM133.142 79.8679L133.057 79.6472H129.811L129.73 79.8679L123.775 95.6482L123.601 96.11H126.273L126.358 95.8893L127.618 92.5723H135.186L136.445 95.8893L136.53 96.11H139.199L139.029 95.6516L133.142 79.8679ZM134.347 90.2127H128.48L131.424 82.4821L134.347 90.2127ZM221.19 79.6472H221.529H234.023H234.363V79.9867V81.7759V82.1154H234.023H229.124V95.7705V96.11H228.785H226.748H226.408V95.7705V82.1154H221.529H221.19V81.7759V79.9867V79.6472ZM217.102 79.6472H216.763V79.9867V92.1547L209.718 79.8169L209.619 79.6472H209.422H206.489H206.15V79.9867V95.7705V96.11H206.489H208.526H208.866V95.7705V83.5583L215.934 95.9368L216.029 96.11H216.226H219.139H219.479V95.7705V79.9867V79.6472H219.139H217.102ZM124.228 82.7293C124.514 83.3891 124.647 84.1054 124.617 84.824L124.62 84.8376C124.638 85.5564 124.495 86.2701 124.201 86.9263C123.908 87.5826 123.471 88.1647 122.923 88.6299C121.85 89.5296 120.352 90.0083 118.611 90.0083H114.652V96.1195H111.984V79.6567H118.611C120.393 79.6567 121.901 80.1184 122.963 81.0147C123.509 81.4832 123.942 82.0694 124.228 82.7293ZM118.611 87.5028C119.494 87.552 120.367 87.2887 121.076 86.7592C121.354 86.5211 121.575 86.2229 121.721 85.8871C121.868 85.5513 121.936 85.1867 121.921 84.8206C121.936 84.4516 121.868 84.084 121.721 83.7449C121.575 83.4059 121.354 83.104 121.076 82.8617C120.369 82.3283 119.495 82.0636 118.611 82.1148H114.652V87.5028H118.611ZM20.0071 56.0369V65.1662L20.0309 65.1832C22.9101 65.1904 25.6693 66.3373 27.7052 68.3732C29.7411 70.4091 30.888 73.1683 30.8952 76.0475H40.0144C40.009 70.7426 37.8995 65.6565 34.1486 61.905C30.3978 58.1535 25.312 56.0432 20.0071 56.0369ZM5.87295 90.2012C9.629 93.954 14.7214 96.0621 20.031 96.0621V86.8954C18.6032 86.8994 17.1885 86.6219 15.868 86.0788C14.5474 85.5357 13.3469 84.7376 12.3351 83.7301C11.3232 82.7227 10.5199 81.5256 9.97096 80.2075C9.42207 78.8893 9.1384 77.4759 9.13618 76.0481H0C0.00449967 81.3577 2.11689 86.4483 5.87295 90.2012ZM50.2948 56.0468C48.2781 63.6552 45.1546 75.993 40.2725 96.0613H49.5682C52.7223 83.16 56.8711 66.5071 59.509 56.4305C62.1572 66.4358 66.2992 83.1193 69.4499 96.0613H78.7999C73.9008 75.9285 70.7841 63.6213 68.7776 56.0468H50.2948Z" fill="#1F1F1F"/>
</g>
<defs>
<clipPath id="clip0_2024_7039">
<rect width="249" height="152" fill="white"/>
</clipPath>
</defs>
</svg>
