<svg width="161" height="70" viewBox="0 0 161 70" fill="none" xmlns="http://www.w3.org/2000/svg">
<path d="M158.335 33.5047C159.55 32.8917 160.35 31.6824 160.295 30.2459C160.307 29.791 160.227 29.3384 160.061 28.9158C159.895 28.4932 159.646 28.1094 159.329 27.7876C159.012 27.4658 158.634 27.2129 158.218 27.0441C157.802 26.8754 157.356 26.7944 156.908 26.8061C156.371 26.7507 155.896 26.8578 155.482 26.9879L136.588 34.5913C135.328 35.2015 134.452 36.458 134.449 37.8502C134.452 39.872 136.01 41.4552 138.014 41.47C138.509 41.4521 138.995 41.3288 139.44 41.1081L158.335 33.5047ZM1.47461 28.4364V45.6345H13.9523V41.65H6.46494V38.9358H13.595V34.9532H6.46494V32.4181H13.9513V28.4355H1.47461V28.4364ZM33.7382 28.4364H38.5503V45.6345H33.7382V28.4355V28.4364ZM29.1032 36.9445C30.184 36.014 30.8467 34.7012 30.8858 33.1428C30.8467 30.6253 28.7669 28.513 26.2517 28.4355H17.161V45.6345H22.1513V32.4181H24.6474C25.5127 32.3646 26.1963 33.0348 26.2517 33.8675C26.2261 34.2911 26.0488 34.6905 25.7533 34.9905C25.4578 35.2904 25.0644 35.4703 24.6474 35.496H22.1513V39.2977H24.6474L26.9644 45.6345H31.7775L29.1032 38.2121C29.0569 38.0634 28.9878 37.9683 28.9251 37.8493C28.7087 37.6858 28.5615 37.251 29.1032 36.9445V36.9445ZM101.829 28.4355V45.6345H106.82V36.4017L112.168 45.6336H117.516V28.4364H112.703V37.4883L107.533 28.4364H101.829V28.4355ZM91.8469 31.6944C93.7694 31.7774 95.2983 34.1066 95.2338 36.9445C95.2974 39.8507 93.7703 42.179 91.8469 42.1947C89.9989 42.179 88.4709 39.8507 88.4609 36.9445C88.4709 34.1066 89.9989 31.7784 91.8469 31.6944V27.8927C87.3165 27.9111 83.6133 31.9704 83.6478 36.9445C83.6133 41.9861 87.3165 46.0462 91.8469 45.9964C96.4518 46.0462 100.156 41.9861 100.225 36.9445C100.156 31.9704 96.4527 27.9111 91.8469 27.8927V31.6944ZM40.3328 36.7627C40.3601 44.8036 47.6938 45.9355 49.0682 45.9964C50.2935 45.9355 52.2433 45.8413 54.7712 45.0917V41.1081C50.2008 43.1068 45.4659 41.9759 45.5022 36.7636C45.4659 31.6039 50.4789 30.0954 54.4149 32.9619V28.7983C52.2424 27.7385 50.2008 27.9268 48.8891 27.8927C47.6011 27.9268 40.3601 28.7752 40.3328 36.7636V36.7627ZM67.7842 32.4181V28.9793C66.2844 28.2573 63.9392 28.2093 62.6139 28.2546C61.155 28.2093 57.5354 28.7752 56.7328 31.5134C56.0492 34.2442 56.8855 37.167 59.7624 38.0311C62.6403 39.0531 64.4973 39.619 63.8619 41.29C63.3829 42.8243 59.577 42.3526 57.2673 41.47L56.7319 45.0907C59.7624 45.8413 62.8257 46.0305 65.11 45.4526C67.4679 44.7104 68.7677 42.8243 69.0313 40.9272C69.3249 38.8638 68.675 36.6953 66.5362 35.8589C64.2183 34.9984 63.662 34.9984 62.0794 34.2285C60.506 33.49 61.0632 31.5097 63.5056 31.5134C64.8691 31.4155 66.5398 31.8864 67.7833 32.4181H67.7842ZM158.335 23.7291C159.55 23.0856 160.35 21.8772 160.295 20.4702C160.35 18.526 158.792 16.9446 156.908 17.0304C156.371 16.9446 155.896 17.0517 155.482 17.2114L136.588 24.8148C135.328 25.3964 134.452 26.6519 134.449 28.0736C134.452 30.0668 136.01 31.6491 138.014 31.6944C138.505 31.6475 138.986 31.5254 139.44 31.3325L158.335 23.7291ZM81.6872 32.4181V28.9793C80.1173 28.2573 77.7731 28.2093 76.3396 28.2546C74.9879 28.2093 71.3674 28.7752 70.6357 31.5134C69.8812 34.2442 70.7175 37.167 73.6663 38.0311C76.4732 39.0531 78.3294 39.619 77.7658 41.29C77.2159 42.8243 73.4099 42.3526 71.1702 41.47L70.6357 45.0907C73.5954 45.8413 76.6586 46.0305 79.0129 45.4526C81.3008 44.7104 82.6007 42.8243 82.9352 40.9272C83.1579 38.8638 82.508 36.6953 80.261 35.8589C78.0521 34.9984 77.4949 34.9984 75.9833 34.2285C74.338 33.49 74.8952 31.5097 77.4095 31.5134C78.7011 31.4155 80.3728 31.8864 81.6872 32.4181V32.4181ZM158.335 43.2804C159.55 42.6978 160.35 41.4885 160.295 40.0215C160.35 38.1382 158.792 36.5568 156.908 36.5826C156.371 36.5568 155.896 36.663 155.482 36.9445L136.588 44.5479C135.328 45.0077 134.452 46.2632 134.449 47.8068C134.452 49.679 136.01 51.2604 138.014 51.2466C138.513 51.2573 139.006 51.132 139.44 50.8838L158.335 43.2804Z" fill="#1F1F1F"/>
</svg>
