<svg width="151" height="70" viewBox="0 0 151 70" fill="none" xmlns="http://www.w3.org/2000/svg">
<path d="M151 33.4761V30.8407H147.702V26.7419L147.591 26.776L144.493 27.7168L144.432 27.7353V30.8407H139.543V29.1106C139.543 28.3049 139.724 27.6884 140.082 27.278C140.437 26.8713 140.945 26.6651 141.592 26.6651C142.058 26.6651 142.54 26.7739 143.025 26.9893L143.147 27.0434V24.2665L143.09 24.2459C142.637 24.0844 142.021 24.0034 141.258 24.0034C140.296 24.0034 139.421 24.211 138.659 24.6228C137.909 25.0225 137.29 25.6299 136.877 26.3721C136.458 27.1202 136.246 27.9835 136.246 28.9392V30.8407H133.949V33.4768H136.246V44.5815H139.542V33.4768H144.431V40.5339C144.431 43.4402 145.813 44.9129 148.536 44.9129C148.984 44.9129 149.454 44.861 149.935 44.7586C150.425 44.6548 150.759 44.5495 150.954 44.4386L150.999 44.413V41.7527L150.865 41.8402C150.66 41.97 150.437 42.067 150.202 42.1275C149.94 42.2007 149.721 42.2377 149.551 42.2377C148.913 42.2377 148.44 42.067 148.148 41.73C147.852 41.39 147.701 40.7956 147.701 39.9643V33.4782H150.999V33.4768H151V33.4761ZM126.589 42.237C125.393 42.237 124.45 41.843 123.784 41.0672C123.116 40.2878 122.777 39.1771 122.777 37.7641C122.777 36.307 123.116 35.1671 123.785 34.3735C124.45 33.5856 125.385 33.186 126.563 33.186C127.706 33.186 128.616 33.5671 129.267 34.3216C129.923 35.0796 130.255 36.211 130.255 37.6852C130.255 39.1778 129.943 40.3234 129.327 41.0907C128.714 41.8516 127.793 42.237 126.589 42.237V42.237ZM126.737 30.5093C124.454 30.5093 122.641 31.1728 121.348 32.482C120.056 33.7925 119.4 35.6044 119.4 37.87C119.4 40.0212 120.041 41.7513 121.301 43.0128C122.562 44.2736 124.279 44.9129 126.401 44.9129C128.615 44.9129 130.391 44.2402 131.684 42.9132C132.976 41.5863 133.63 39.7908 133.63 37.5785C133.63 35.3932 133.016 33.6503 131.804 32.3973C130.591 31.1444 128.886 30.5093 126.737 30.5093ZM114.087 30.5093C112.533 30.5093 111.249 30.9033 110.268 31.6805C109.281 32.4628 108.78 33.4882 108.78 34.7291C108.78 35.3748 108.887 35.9472 109.1 36.4329C109.315 36.9207 109.645 37.3502 110.085 37.71C110.522 38.0684 111.197 38.4425 112.089 38.8229C112.839 39.1294 113.4 39.389 113.756 39.5938C114.103 39.7943 114.35 39.9948 114.489 40.1911C114.625 40.3831 114.693 40.6462 114.693 40.9705C114.693 41.8935 113.996 42.3429 112.563 42.3429C112.033 42.3429 111.425 42.2327 110.761 42.0172C110.103 41.8025 109.481 41.4888 108.917 41.0871L108.781 40.9904V44.1399L108.83 44.1641C109.297 44.3774 109.885 44.558 110.578 44.6988C111.269 44.8411 111.898 44.9136 112.444 44.9136C114.129 44.9136 115.486 44.5175 116.475 43.7346C117.472 42.9481 117.977 41.8985 117.977 40.6135C117.977 39.6891 117.706 38.894 117.17 38.2526C116.638 37.6176 115.713 37.0352 114.425 36.5189C113.4 36.11 112.741 35.7708 112.471 35.5106C112.21 35.2581 112.076 34.9026 112.076 34.4517C112.076 34.0521 112.24 33.7328 112.577 33.4732C112.916 33.2123 113.387 33.08 113.98 33.08C114.53 33.08 115.091 33.166 115.65 33.3346C116.208 33.5031 116.699 33.7285 117.108 34.0052L117.242 34.0969V31.1081L117.191 31.0868C116.813 30.9253 116.315 30.7881 115.709 30.6757C115.174 30.5718 114.631 30.5161 114.086 30.5093H114.087ZM100.187 42.237C98.9905 42.237 98.0467 41.843 97.3829 41.0672C96.7134 40.2878 96.375 39.1771 96.375 37.7641C96.375 36.307 96.7134 35.1671 97.3829 34.3735C98.0474 33.5856 98.9812 33.186 100.161 33.186C101.303 33.186 102.213 33.5671 102.865 34.3216C103.52 35.0796 103.852 36.211 103.852 37.6852C103.852 39.1778 103.54 40.3234 102.924 41.0907C102.311 41.8516 101.39 42.237 100.187 42.237V42.237ZM100.334 30.5093C98.0496 30.5093 96.2369 31.1728 94.9455 32.482C93.6528 33.7925 92.9975 35.6044 92.9975 37.87C92.9975 40.0219 93.6385 41.7513 94.8978 43.0128C96.1585 44.2743 97.8751 44.9129 99.999 44.9129C102.212 44.9129 103.989 44.2402 105.281 42.9132C106.573 41.5863 107.228 39.7908 107.228 37.5785C107.228 35.3932 106.614 33.6503 105.4 32.3973C104.189 31.1444 102.484 30.5093 100.334 30.5093ZM87.9938 33.2201V30.84H84.7374V44.5808H87.9938V37.5515C87.9938 36.3568 88.2673 35.374 88.8058 34.6331C89.3379 33.9006 90.0473 33.5287 90.9127 33.5287C91.2054 33.5287 91.5352 33.5771 91.8921 33.6716C92.2453 33.7669 92.501 33.8686 92.6513 33.9767L92.7874 34.0748V30.8158L92.7347 30.7945C92.4312 30.6665 92.0025 30.6011 91.4597 30.6011C90.6406 30.6011 89.9091 30.862 89.2816 31.3762C88.7303 31.8277 88.3336 32.4471 88.0287 33.2194H87.9938V33.2201ZM78.9068 30.5093C77.4131 30.5093 76.0798 30.8272 74.9466 31.4544C73.8299 32.0634 72.9209 32.9915 72.3361 34.1196C71.7407 35.2581 71.4387 36.5872 71.4387 38.0684C71.4387 39.3669 71.7307 40.558 72.3105 41.6084C72.8701 42.6402 73.7159 43.489 74.7464 44.0532C75.7835 44.6228 76.9808 44.9122 78.3063 44.9122C79.8541 44.9122 81.1746 44.6064 82.2337 43.9991L82.2765 43.9749V41.0139L82.1412 41.112C81.6534 41.4633 81.1165 41.741 80.5478 41.9362C79.9723 42.1353 79.4459 42.2356 78.9865 42.2356C77.7087 42.2356 76.6831 41.8395 75.9395 41.0572C75.193 40.2729 74.8141 39.1728 74.8141 37.789C74.8141 36.3952 75.2094 35.2674 75.9865 34.4347C76.7621 33.6048 77.7899 33.1831 79.0407 33.1831C80.1105 33.1831 81.154 33.5429 82.1404 34.2533L82.2765 34.3522V31.2311L82.2323 31.2062C81.8612 31 81.3562 30.8293 80.7259 30.7006C80.1274 30.5762 79.518 30.5119 78.9068 30.5086V30.5093ZM69.1958 30.8407H65.9393V44.5815H69.1958V30.84V30.8407ZM67.6003 24.9868C67.0852 24.9787 66.5875 25.1728 66.2142 25.5273C66.0268 25.6975 65.8779 25.9057 65.7776 26.138C65.6772 26.3702 65.6277 26.6212 65.6323 26.8741C65.6323 27.4004 65.826 27.8455 66.2071 28.1968C66.5867 28.5452 67.0554 28.7223 67.601 28.7223C68.1466 28.7223 68.616 28.546 69.0006 28.1961C69.188 28.0311 69.3371 27.8275 69.4377 27.5992C69.5383 27.3709 69.588 27.1235 69.5832 26.8741C69.5832 26.3586 69.393 25.9099 69.017 25.5415C68.6409 25.1732 68.1644 24.9868 67.601 24.9868H67.6003ZM59.4762 29.8267H59.3694L53.4718 44.5808H51.1156L45.1248 29.8252H45.0179V44.5808H41.8947V25.4071H46.6811L52.355 39.6492L58.2005 25.4071H62.7996V44.5815H59.4762V29.826V29.8267ZM15.3187 34.2057H0V19H15.3172V34.2057H15.3187ZM32.2307 34.2057H16.9134V19H32.2307V34.2057V34.2057ZM15.318 51H0V35.7943H15.318V51ZM32.2307 51H16.9134V35.7943H32.2307V51V51Z" fill="#1F1F1F"/>
</svg>
