<svg fill="none" height="910" viewBox="0 0 1920 910" width="1920" xmlns="http://www.w3.org/2000/svg" xmlns:xlink="http://www.w3.org/1999/xlink"><clipPath id="a"><path d="m533 566h67.2574v50h-67.2574z"/></clipPath><clipPath id="b"><path d="m256 566h42.8987v50h-42.8987z"/></clipPath><clipPath id="c"><path d="m242 316h71.1185v60h-71.1185z"/></clipPath><clipPath id="d"><path d="m540 319h54.1606v54h-54.1606z"/></clipPath><clipPath id="e"><path d="m1629 561h30.9768v60h-30.9768z"/></clipPath><clipPath id="f"><path d="m1331 561h26.8847v60h-26.8847z"/></clipPath><clipPath id="g"><path d="m1609 321h70.6088v50h-70.6088z"/></clipPath><path d="m0 0h1920v910h-1920z" fill="#fff"/><g fill="#14172e"><path d="m960 0h960v910h-960z"/><g opacity=".45"><path d="m262.142 418.5c-2.2 0-4.405 0-6.615 0v10.5h1.71c0-1.47 0-2.935 0-4.395h4.905c0-.57 0-1.14 0-1.71-1.63 0-3.265 0-4.905 0 0-.9 0-1.795 0-2.685h4.905c0-.57 0-1.14 0-1.71z"/><path d="m265.453 418.5c-.55 0-1.1 0-1.65 0v10.5h1.65c0-3.5 0-7 0-10.5z"/><path d="m267.002 425.25c0 .57.1 1.095.3 1.575.1.25.22.475.36.675.14.21.3.4.48.57.35.34.77.61 1.26.81.48.2 1.005.3 1.575.3s1.1-.1 1.59-.3c.48-.2.9-.47 1.26-.81.17-.17.325-.36.465-.57.14-.2.26-.425.36-.675.2-.48.3-1.005.3-1.575s-.1-1.1-.3-1.59c-.1-.24-.22-.465-.36-.675s-.295-.4-.465-.57c-.36-.35-.78-.62-1.26-.81-.49-.19-1.02-.285-1.59-.285s-1.095.095-1.575.285c-.49.19-.91.46-1.26.81-.36.35-.64.765-.84 1.245-.2.49-.3 1.02-.3 1.59zm6.285 0c0 .17-.015.335-.045.495-.03.17-.07.325-.12.465-.06.14-.13.275-.21.405-.08.12-.17.23-.27.33-.21.21-.455.37-.735.48-.28.12-.59.18-.93.18s-.65-.06-.93-.18c-.28-.11-.52-.27-.72-.48-.11-.1-.205-.21-.285-.33-.08-.13-.145-.265-.195-.405-.12-.29-.18-.61-.18-.96s.06-.67.18-.96c.11-.29.27-.54.48-.75.2-.2.44-.36.72-.48.14-.05.29-.09.45-.12.15-.03.31-.045.48-.045s.335.015.495.045c.15.03.295.07.435.12.28.12.525.28.735.48.2.21.36.46.48.75.05.14.09.29.12.45.03.17.045.34.045.51z"/><path d="m278.655 429h1.23c.7-1.65 1.395-3.295 2.085-4.935.7 1.64 1.4 3.285 2.1 4.935h1.23l3.06-7.5c-.6 0-1.2 0-1.8 0-.63 1.68-1.265 3.36-1.905 5.04-.68-1.68-1.365-3.36-2.055-5.04-.41 0-.825 0-1.245 0-.68 1.68-1.365 3.36-2.055 5.04-.63-1.68-1.265-3.36-1.905-5.04-.6 0-1.2 0-1.8 0z"/><path d="m289.011 425.28c0 .58.095 1.105.285 1.575.18.48.44.89.78 1.23.33.34.74.61 1.23.81.48.19 1.02.285 1.62.285.71 0 1.31-.125 1.8-.375.49-.24.89-.51 1.2-.81-.25-.44-.505-.875-.765-1.305-.25.27-.565.5-.945.69-.37.19-.805.285-1.305.285-.27 0-.53-.04-.78-.12-.26-.08-.49-.2-.69-.36-.21-.15-.38-.345-.51-.585s-.22-.52-.27-.84c0-.01 0-.015 0-.015h5.76c0-.16 0-.315 0-.465 0-.29-.02-.57-.06-.84-.04-.26-.1-.515-.18-.765-.08-.24-.18-.465-.3-.675-.11-.21-.245-.4-.405-.57s-.335-.325-.525-.465-.395-.26-.615-.36c-.23-.1-.475-.17-.735-.21-.26-.05-.535-.075-.825-.075s-.565.025-.825.075-.505.125-.735.225c-.47.21-.865.495-1.185.855-.33.36-.58.78-.75 1.26-.18.48-.27.995-.27 1.545zm5.64-.765c-1.32 0-2.645 0-3.975 0 .05-.27.13-.515.24-.735.11-.21.25-.395.42-.555.34-.31.81-.465 1.41-.465.29 0 .55.04.78.12s.425.2.585.36c.32.33.5.755.54 1.275z"/><path d="m299.464 422.685c0-.4 0-.795 0-1.185-.52 0-1.04 0-1.56 0v7.5h1.62c0-1.15 0-2.295 0-3.435 0-.8.155-1.425.465-1.875.31-.44.84-.66 1.59-.66.15 0 .295.01.435.03.07.01.135.02.195.03s.125.025.195.045c0-.58 0-1.155 0-1.725-.24-.06-.485-.09-.735-.09-.53 0-.97.12-1.32.36-.36.24-.655.575-.885 1.005z"/></g><g opacity=".45"><path d="m261.123 664.5c-2.2 0-4.405 0-6.615 0v10.5h6.615c0-.57 0-1.14 0-1.71-1.63 0-3.265 0-4.905 0 0-.9 0-1.795 0-2.685h4.905c0-.57 0-1.14 0-1.71-1.63 0-3.265 0-4.905 0 0-.9 0-1.795 0-2.685h4.905c0-.57 0-1.14 0-1.71z"/><path d="m266.451 668.865c.67 0 1.215.215 1.635.645.2.22.355.47.465.75.1.29.15.62.15.99s-.05.695-.15.975c-.11.29-.265.545-.465.765-.42.43-.965.645-1.635.645-.34 0-.645-.055-.915-.165-.28-.11-.52-.275-.72-.495s-.355-.475-.465-.765c-.1-.29-.15-.61-.15-.96s.05-.67.15-.96c.11-.29.265-.545.465-.765s.44-.385.72-.495c.27-.11.575-.165.915-.165zm3.795-4.365c-.54 0-1.08 0-1.62 0v4.08c-.29-.36-.645-.66-1.065-.9s-.93-.36-1.53-.36c-.48 0-.93.085-1.35.255-.22.09-.42.2-.6.33s-.35.28-.51.45c-.32.34-.57.75-.75 1.23-.19.49-.285 1.045-.285 1.665s.095 1.17.285 1.65c.18.49.43.9.75 1.23.16.17.33.32.51.45s.38.24.6.33c.42.18.875.27 1.365.27.59 0 1.1-.115 1.53-.345.42-.23.77-.53 1.05-.9v1.065h1.62c0-3.5 0-7 0-10.5z"/><path d="m272.083 665.34c0 .31.11.58.33.81.23.22.5.33.81.33.32 0 .59-.11.81-.33.22-.23.33-.5.33-.81 0-.32-.11-.59-.33-.81s-.49-.33-.81-.33c-.31 0-.58.11-.81.33-.22.22-.33.49-.33.81zm1.95 2.16c-.54 0-1.08 0-1.62 0v7.5h1.62c0-2.5 0-5 0-7.5z"/><path d="m277.828 664.5c-.54 0-1.08 0-1.62 0v10.5h1.62c0-.36 0-.715 0-1.065.28.37.635.67 1.065.9.42.23.925.345 1.515.345.49 0 .95-.09 1.38-.27.42-.18.79-.44 1.11-.78.16-.16.3-.345.42-.555.12-.2.23-.425.33-.675.18-.48.27-1.03.27-1.65s-.09-1.175-.27-1.665c-.1-.24-.21-.46-.33-.66-.12-.21-.26-.4-.42-.57-.32-.34-.69-.6-1.11-.78-.43-.17-.885-.255-1.365-.255-.6 0-1.11.12-1.53.36s-.775.54-1.065.9c0-1.36 0-2.72 0-4.08zm4.425 6.75c0 .35-.05.67-.15.96-.11.29-.265.545-.465.765s-.44.385-.72.495c-.27.11-.575.165-.915.165-.67 0-1.21-.215-1.62-.645-.42-.43-.63-1.01-.63-1.74s.21-1.31.63-1.74c.41-.43.95-.645 1.62-.645.34 0 .645.055.915.165.28.11.52.275.72.495s.355.475.465.765c.1.29.15.61.15.96z"/><path d="m287.119 664.5c-.55 0-1.1 0-1.65 0v10.5h1.65c0-3.5 0-7 0-10.5z"/><path d="m288.669 671.28c0 .58.095 1.105.285 1.575.18.48.44.89.78 1.23.33.34.74.61 1.23.81.48.19 1.02.285 1.62.285.71 0 1.31-.125 1.8-.375.49-.24.89-.51 1.2-.81-.25-.44-.505-.875-.765-1.305-.25.27-.565.5-.945.69-.37.19-.805.285-1.305.285-.27 0-.53-.04-.78-.12-.26-.08-.49-.2-.69-.36-.21-.15-.38-.345-.51-.585s-.22-.52-.27-.84c0-.01 0-.015 0-.015h5.76c0-.16 0-.315 0-.465 0-.29-.02-.57-.06-.84-.04-.26-.1-.515-.18-.765-.08-.24-.18-.465-.3-.675-.11-.21-.245-.4-.405-.57s-.335-.325-.525-.465-.395-.26-.615-.36c-.23-.1-.475-.17-.735-.21-.26-.05-.535-.075-.825-.075s-.565.025-.825.075-.505.125-.735.225c-.47.21-.865.495-1.185.855-.33.36-.58.78-.75 1.26-.18.48-.27.995-.27 1.545zm5.64-.765c-1.32 0-2.645 0-3.975 0 .05-.27.13-.515.24-.735.11-.21.25-.395.42-.555.34-.31.81-.465 1.41-.465.29 0 .55.04.78.12s.425.2.585.36c.32.33.5.755.54 1.275z"/><path d="m297.351 669.615c0 .41.085.75.255 1.02.17.28.38.505.63.675.13.08.27.155.42.225.14.06.29.115.45.165.32.1.62.18.9.24.57.12.99.235 1.26.345.27.12.405.325.405.615s-.12.495-.36.615c-.24.13-.55.195-.93.195-.49 0-.94-.09-1.35-.27-.42-.17-.745-.45-.975-.84-.37.35-.74.705-1.11 1.065.16.26.355.49.585.69.23.19.49.345.78.465.59.24 1.245.36 1.965.36.45 0 .865-.05 1.245-.15.37-.09.69-.235.96-.435.26-.19.465-.435.615-.735s.225-.655.225-1.065-.07-.75-.21-1.02c-.15-.26-.345-.475-.585-.645s-.51-.305-.81-.405c-.31-.09-.625-.17-.945-.24-.59-.14-1.03-.26-1.32-.36-.3-.11-.45-.305-.45-.585 0-.23.115-.41.345-.54.11-.07.24-.12.39-.15.14-.03.305-.045.495-.045.47 0 .875.085 1.215.255.33.18.585.405.765.675.37-.35.735-.7 1.095-1.05-.31-.42-.705-.755-1.185-1.005-.48-.24-1.08-.36-1.8-.36-.47 0-.885.05-1.245.15-.37.11-.685.265-.945.465s-.455.44-.585.72c-.13.29-.195.61-.195.96z"/></g><g opacity=".45"><path d="m546.198 418.5c-1.3 0-2.605 0-3.915 0v10.5h1.71c0-1.1 0-2.2 0-3.3h2.205c.52 0 1.005-.09 1.455-.27.22-.09.425-.2.615-.33.19-.12.365-.26.525-.42s.3-.335.42-.525c.13-.19.24-.395.33-.615.18-.44.27-.92.27-1.44 0-.53-.09-1.01-.27-1.44-.09-.22-.2-.425-.33-.615-.12-.19-.26-.365-.42-.525s-.335-.3-.525-.42c-.19-.13-.395-.24-.615-.33-.45-.18-.935-.27-1.455-.27zm1.905 3.6c0 .55-.175 1-.525 1.35-.36.36-.82.54-1.38.54-.73 0-1.465 0-2.205 0 0-1.26 0-2.52 0-3.78h2.205c.56 0 1.02.175 1.38.525.35.36.525.815.525 1.365z"/><path d="m552.895 422.685c0-.4 0-.795 0-1.185-.52 0-1.04 0-1.56 0v7.5h1.62c0-1.15 0-2.295 0-3.435 0-.8.155-1.425.465-1.875.31-.44.84-.66 1.59-.66.15 0 .295.01.435.03.07.01.135.02.195.03s.125.025.195.045c0-.58 0-1.155 0-1.725-.24-.06-.485-.09-.735-.09-.53 0-.97.12-1.32.36-.36.24-.655.575-.885 1.005z"/><path d="m556.643 425.28c0 .58.095 1.105.285 1.575.18.48.44.89.78 1.23.33.34.74.61 1.23.81.48.19 1.02.285 1.62.285.71 0 1.31-.125 1.8-.375.49-.24.89-.51 1.2-.81-.25-.44-.505-.875-.765-1.305-.25.27-.565.5-.945.69-.37.19-.805.285-1.305.285-.27 0-.53-.04-.78-.12-.26-.08-.49-.2-.69-.36-.21-.15-.38-.345-.51-.585s-.22-.52-.27-.84c0-.01 0-.015 0-.015h5.76c0-.16 0-.315 0-.465 0-.29-.02-.57-.06-.84-.04-.26-.1-.515-.18-.765-.08-.24-.18-.465-.3-.675-.11-.21-.245-.4-.405-.57s-.335-.325-.525-.465-.395-.26-.615-.36c-.23-.1-.475-.17-.735-.21-.26-.05-.535-.075-.825-.075s-.565.025-.825.075-.505.125-.735.225c-.47.21-.865.495-1.185.855-.33.36-.58.78-.75 1.26-.18.48-.27.995-.27 1.545zm5.64-.765c-1.32 0-2.645 0-3.975 0 .05-.27.13-.515.24-.735.11-.21.25-.395.42-.555.34-.31.81-.465 1.41-.465.29 0 .55.04.78.12s.425.2.585.36c.32.33.5.755.54 1.275z"/><path d="m567.096 422.685c0-.4 0-.795 0-1.185-.52 0-1.04 0-1.56 0v7.5h1.62c0-1.15 0-2.295 0-3.435 0-.8.155-1.425.465-1.875.31-.44.84-.66 1.59-.66.15 0 .295.01.435.03.07.01.135.02.195.03s.125.025.195.045c0-.58 0-1.155 0-1.725-.24-.06-.485-.09-.735-.09-.53 0-.97.12-1.32.36-.36.24-.655.575-.885 1.005z"/><path d="m570.845 425.25c0 .57.1 1.095.3 1.575.1.25.22.475.36.675.14.21.3.4.48.57.35.34.77.61 1.26.81.48.2 1.005.3 1.575.3s1.1-.1 1.59-.3c.48-.2.9-.47 1.26-.81.17-.17.325-.36.465-.57.14-.2.26-.425.36-.675.2-.48.3-1.005.3-1.575s-.1-1.1-.3-1.59c-.1-.24-.22-.465-.36-.675s-.295-.4-.465-.57c-.36-.35-.78-.62-1.26-.81-.49-.19-1.02-.285-1.59-.285s-1.095.095-1.575.285c-.49.19-.91.46-1.26.81-.36.35-.64.765-.84 1.245-.2.49-.3 1.02-.3 1.59zm6.285 0c0 .17-.015.335-.045.495-.03.17-.07.325-.12.465-.06.14-.13.275-.21.405-.08.12-.17.23-.27.33-.21.21-.455.37-.735.48-.28.12-.59.18-.93.18s-.65-.06-.93-.18c-.28-.11-.52-.27-.72-.48-.11-.1-.205-.21-.285-.33-.08-.13-.145-.265-.195-.405-.12-.29-.18-.61-.18-.96s.06-.67.18-.96c.11-.29.27-.54.48-.75.2-.2.44-.36.72-.48.14-.05.29-.09.45-.12.15-.03.31-.045.48-.045s.335.015.495.045c.15.03.295.07.435.12.28.12.525.28.735.48.2.21.36.46.48.75.05.14.09.29.12.45.03.17.045.34.045.51z"/><path d="m581.988 418.5c-.55 0-1.1 0-1.65 0v10.5h1.65c0-3.5 0-7 0-10.5z"/><path d="m585.712 418.5c-.55 0-1.1 0-1.65 0v10.5h1.65c0-3.5 0-7 0-10.5z"/><path d="m587.577 423.615c0 .41.085.75.255 1.02.17.28.38.505.63.675.13.08.27.155.42.225.14.06.29.115.45.165.32.1.62.18.9.24.57.12.99.235 1.26.345.27.12.405.325.405.615s-.12.495-.36.615c-.24.13-.55.195-.93.195-.49 0-.94-.09-1.35-.27-.42-.17-.745-.45-.975-.84-.37.35-.74.705-1.11 1.065.16.26.355.49.585.69.23.19.49.345.78.465.59.24 1.245.36 1.965.36.45 0 .865-.05 1.245-.15.37-.09.69-.235.96-.435.26-.19.465-.435.615-.735s.225-.655.225-1.065-.07-.75-.21-1.02c-.15-.26-.345-.475-.585-.645s-.51-.305-.81-.405c-.31-.09-.625-.17-.945-.24-.59-.14-1.03-.26-1.32-.36-.3-.11-.45-.305-.45-.585 0-.23.115-.41.345-.54.11-.07.24-.12.39-.15.14-.03.305-.045.495-.045.47 0 .875.085 1.215.255.33.18.585.405.765.675.37-.35.735-.7 1.095-1.05-.31-.42-.705-.755-1.185-1.005-.48-.24-1.08-.36-1.8-.36-.47 0-.885.05-1.245.15-.37.11-.685.265-.945.465s-.455.44-.585.72c-.13.29-.195.61-.195.96z"/></g><g opacity=".45"><path d="m521.503 671.82c.27.64.64 1.2 1.11 1.68.48.47 1.035.84 1.665 1.11.31.13.635.23.975.3.34.06.695.09 1.065.09.8 0 1.52-.125 2.16-.375.65-.24 1.23-.595 1.74-1.065-.27-.54-.54-1.075-.81-1.605-.4.41-.855.735-1.365.975s-1.09.36-1.74.36c-.5 0-.96-.085-1.38-.255-.21-.08-.41-.185-.6-.315-.18-.12-.35-.26-.51-.42-.31-.32-.555-.69-.735-1.11-.18-.43-.27-.915-.27-1.455 0-.51.09-.985.27-1.425s.425-.815.735-1.125c.32-.32.695-.565 1.125-.735s.9-.255 1.41-.255c.63 0 1.185.12 1.665.36.48.25.91.565 1.29.945l.81-1.59c-.26-.23-.53-.43-.81-.6-.28-.18-.575-.33-.885-.45-.61-.25-1.29-.375-2.04-.375-.38 0-.74.03-1.08.09-.35.07-.685.17-1.005.3s-.62.29-.9.48c-.28.18-.54.39-.78.63-.47.46-.84 1.015-1.11 1.665-.27.63-.405 1.32-.405 2.07 0 .76.135 1.46.405 2.1z"/><path d="m531.35 671.25c0 .57.1 1.095.3 1.575.1.25.22.475.36.675.14.21.3.4.48.57.35.34.77.61 1.26.81.48.2 1.005.3 1.575.3s1.1-.1 1.59-.3c.48-.2.9-.47 1.26-.81.17-.17.325-.36.465-.57.14-.2.26-.425.36-.675.2-.48.3-1.005.3-1.575s-.1-1.1-.3-1.59c-.1-.24-.22-.465-.36-.675s-.295-.4-.465-.57c-.36-.35-.78-.62-1.26-.81-.49-.19-1.02-.285-1.59-.285s-1.095.095-1.575.285c-.49.19-.91.46-1.26.81-.36.35-.64.765-.84 1.245-.2.49-.3 1.02-.3 1.59zm6.285 0c0 .17-.015.335-.045.495-.03.17-.07.325-.12.465-.06.14-.13.275-.21.405-.08.12-.17.23-.27.33-.21.21-.455.37-.735.48-.28.12-.59.18-.93.18s-.65-.06-.93-.18c-.28-.11-.52-.27-.72-.48-.11-.1-.205-.21-.285-.33-.08-.13-.145-.265-.195-.405-.12-.29-.18-.61-.18-.96s.06-.67.18-.96c.11-.29.27-.54.48-.75.2-.2.44-.36.72-.48.14-.05.29-.09.45-.12.15-.03.31-.045.48-.045s.335.015.495.045c.15.03.295.07.435.12.28.12.525.28.735.48.2.21.36.46.48.75.05.14.09.29.12.45.03.17.045.34.045.51z"/><path d="m542.418 668.535c0-.35 0-.695 0-1.035-.52 0-1.045 0-1.575 0v7.5h1.62c0-1.18 0-2.36 0-3.54 0-.19.01-.375.03-.555.01-.17.035-.335.075-.495.06-.32.165-.595.315-.825s.35-.41.6-.54c.24-.13.54-.195.9-.195.48 0 .865.15 1.155.45.28.3.42.76.42 1.38v4.32h1.65c0-1.51 0-3.02 0-4.53 0-.48-.055-.915-.165-1.305-.1-.38-.265-.71-.495-.99-.22-.27-.505-.48-.855-.63-.34-.15-.745-.225-1.215-.225-.52 0-.99.105-1.41.315s-.77.51-1.05.9z"/><path d="m549.184 671.265c0 .58.095 1.11.285 1.59.1.24.215.46.345.66.13.21.28.4.45.57.34.34.75.61 1.23.81.48.19 1.015.285 1.605.285.63 0 1.185-.105 1.665-.315s.88-.475 1.2-.795c-.31-.43-.62-.86-.93-1.29-.24.22-.515.415-.825.585-.32.16-.69.24-1.11.24-.32 0-.615-.055-.885-.165-.28-.11-.52-.27-.72-.48-.1-.1-.19-.21-.27-.33-.08-.13-.145-.265-.195-.405-.12-.29-.18-.615-.18-.975s.06-.685.18-.975c.05-.14.115-.275.195-.405.08-.12.17-.235.27-.345.2-.2.44-.355.72-.465.29-.11.59-.165.9-.165.4 0 .75.075 1.05.225s.565.34.795.57c.33-.43.655-.855.975-1.275-.34-.35-.74-.62-1.2-.81s-.985-.285-1.575-.285-1.125.095-1.605.285c-.49.2-.91.475-1.26.825-.34.35-.61.765-.81 1.245s-.3 1.01-.3 1.59z"/><path d="m556.834 671.28c0 .58.095 1.105.285 1.575.18.48.44.89.78 1.23.33.34.74.61 1.23.81.48.19 1.02.285 1.62.285.71 0 1.31-.125 1.8-.375.49-.24.89-.51 1.2-.81-.25-.44-.505-.875-.765-1.305-.25.27-.565.5-.945.69-.37.19-.805.285-1.305.285-.27 0-.53-.04-.78-.12-.26-.08-.49-.2-.69-.36-.21-.15-.38-.345-.51-.585s-.22-.52-.27-.84c0-.01 0-.015 0-.015h5.76c0-.16 0-.315 0-.465 0-.29-.02-.57-.06-.84-.04-.26-.1-.515-.18-.765-.08-.24-.18-.465-.3-.675-.11-.21-.245-.4-.405-.57s-.335-.325-.525-.465-.395-.26-.615-.36c-.23-.1-.475-.17-.735-.21-.26-.05-.535-.075-.825-.075s-.565.025-.825.075-.505.125-.735.225c-.47.21-.865.495-1.185.855-.33.36-.58.78-.75 1.26-.18.48-.27.995-.27 1.545zm5.64-.765c-1.32 0-2.645 0-3.975 0 .05-.27.13-.515.24-.735.11-.21.25-.395.42-.555.34-.31.81-.465 1.41-.465.29 0 .55.04.78.12s.425.2.585.36c.32.33.5.755.54 1.275z"/><path d="m567.302 668.535c0-.35 0-.695 0-1.035-.52 0-1.045 0-1.575 0v7.5h1.62c0-1.18 0-2.36 0-3.54 0-.19.01-.375.03-.555.01-.17.035-.335.075-.495.06-.32.165-.595.315-.825s.35-.41.6-.54c.24-.13.54-.195.9-.195.48 0 .865.15 1.155.45.28.3.42.76.42 1.38v4.32h1.65c0-1.51 0-3.02 0-4.53 0-.48-.055-.915-.165-1.305-.1-.38-.265-.71-.495-.99-.22-.27-.505-.48-.855-.63-.34-.15-.745-.225-1.215-.225-.52 0-.99.105-1.41.315s-.77.51-1.05.9z"/><path d="m578.853 674.865c0-.5 0-.995 0-1.485-.24.04-.44.07-.6.09-.08.01-.17.015-.27.015-.09.01-.185.015-.285.015-.29 0-.495-.07-.615-.21-.13-.14-.195-.335-.195-.585 0-1.28 0-2.555 0-3.825h1.98c0-.46 0-.92 0-1.38-.66 0-1.32 0-1.98 0 0-.67 0-1.34 0-2.01-.54 0-1.08 0-1.62 0v2.01c-.47 0-.945 0-1.425 0v1.38h1.425v3.93c0 .82.185 1.405.555 1.755.36.34.885.51 1.575.51.49 0 .975-.07 1.455-.21z"/><path d="m581.972 668.685c0-.4 0-.795 0-1.185-.52 0-1.04 0-1.56 0v7.5h1.62c0-1.15 0-2.295 0-3.435 0-.8.155-1.425.465-1.875.31-.44.84-.66 1.59-.66.15 0 .295.01.435.03.07.01.135.02.195.03s.125.025.195.045c0-.58 0-1.155 0-1.725-.24-.06-.485-.09-.735-.09-.53 0-.97.12-1.32.36-.36.24-.655.575-.885 1.005z"/><path d="m590.775 671.535v.435c0 .22-.045.435-.135.645-.1.22-.235.41-.405.57-.16.16-.37.295-.63.405-.13.05-.26.09-.39.12-.14.02-.29.03-.45.03-.41 0-.715-.09-.915-.27-.21-.17-.315-.4-.315-.69 0-.25.09-.465.27-.645.17-.17.44-.28.81-.33.72-.09 1.44-.18 2.16-.27zm-4.695-2.415c.44.27.875.545 1.305.825.11-.42.34-.72.69-.9.35-.17.755-.255 1.215-.255.5 0 .875.09 1.125.27.24.19.36.43.36.72v.165c0 .2-.145.315-.435.345-.69.07-1.385.14-2.085.21-.69.06-1.26.29-1.71.69-.46.4-.69.945-.69 1.635 0 .34.06.65.18.93.06.14.13.275.21.405.09.12.19.23.3.33.21.21.475.37.795.48.31.12.66.18 1.05.18.57 0 1.055-.11 1.455-.33.39-.23.7-.515.93-.855v1.035h1.62c0-1.59 0-3.175 0-4.755 0-.97-.255-1.7-.765-2.19-.26-.25-.585-.435-.975-.555-.4-.12-.865-.18-1.395-.18-.44 0-.835.04-1.185.12s-.655.2-.915.36c-.52.32-.88.76-1.08 1.32z"/><path d="m598.551 674.865c0-.5 0-.995 0-1.485-.24.04-.44.07-.6.09-.08.01-.17.015-.27.015-.09.01-.185.015-.285.015-.29 0-.495-.07-.615-.21-.13-.14-.195-.335-.195-.585 0-1.28 0-2.555 0-3.825h1.98c0-.46 0-.92 0-1.38-.66 0-1.32 0-1.98 0 0-.67 0-1.34 0-2.01-.54 0-1.08 0-1.62 0v2.01c-.47 0-.945 0-1.425 0v1.38h1.425v3.93c0 .82.185 1.405.555 1.755.36.34.885.51 1.575.51.49 0 .975-.07 1.455-.21z"/><path d="m599.585 671.28c0 .58.095 1.105.285 1.575.18.48.44.89.78 1.23.33.34.74.61 1.23.81.48.19 1.02.285 1.62.285.71 0 1.31-.125 1.8-.375.49-.24.89-.51 1.2-.81-.25-.44-.505-.875-.765-1.305-.25.27-.565.5-.945.69-.37.19-.805.285-1.305.285-.27 0-.53-.04-.78-.12-.26-.08-.49-.2-.69-.36-.21-.15-.38-.345-.51-.585s-.22-.52-.27-.84c0-.01 0-.015 0-.015h5.76c0-.16 0-.315 0-.465 0-.29-.02-.57-.06-.84-.04-.26-.1-.515-.18-.765-.08-.24-.18-.465-.3-.675-.11-.21-.245-.4-.405-.57s-.335-.325-.525-.465-.395-.26-.615-.36c-.23-.1-.475-.17-.735-.21-.26-.05-.535-.075-.825-.075s-.565.025-.825.075-.505.125-.735.225c-.47.21-.865.495-1.185.855-.33.36-.58.78-.75 1.26-.18.48-.27.995-.27 1.545zm5.64-.765c-1.32 0-2.645 0-3.975 0 .05-.27.13-.515.24-.735.11-.21.25-.395.42-.555.34-.31.81-.465 1.41-.465.29 0 .55.04.78.12s.425.2.585.36c.32.33.5.755.54 1.275z"/><path d="m608.267 669.615c0 .41.085.75.255 1.02.17.28.38.505.63.675.13.08.27.155.42.225.14.06.29.115.45.165.32.1.62.18.9.24.57.12.99.235 1.26.345.27.12.405.325.405.615s-.12.495-.36.615c-.24.13-.55.195-.93.195-.49 0-.94-.09-1.35-.27-.42-.17-.745-.45-.975-.84-.37.35-.74.705-1.11 1.065.16.26.355.49.585.69.23.19.49.345.78.465.59.24 1.245.36 1.965.36.45 0 .865-.05 1.245-.15.37-.09.69-.235.96-.435.26-.19.465-.435.615-.735s.225-.655.225-1.065-.07-.75-.21-1.02c-.15-.26-.345-.475-.585-.645s-.51-.305-.81-.405c-.31-.09-.625-.17-.945-.24-.59-.14-1.03-.26-1.32-.36-.3-.11-.45-.305-.45-.585 0-.23.115-.41.345-.54.11-.07.24-.12.39-.15.14-.03.305-.045.495-.045.47 0 .875.085 1.215.255.33.18.585.405.765.675.37-.35.735-.7 1.095-1.05-.31-.42-.705-.755-1.185-1.005-.48-.24-1.08-.36-1.8-.36-.47 0-.885.05-1.245.15-.37.11-.685.265-.945.465s-.455.44-.585.72c-.13.29-.195.61-.195.96z"/></g></g><g clip-path="url(#a)"><path d="m561.844 566h-19.229l-9.615 16.648 9.615 16.659h19.229l9.614-16.659z" fill="#14172e"/><path d="m590.645 582.703h-19.218l-9.615 16.648 9.615 16.649h19.218l9.615-16.649z" fill="#babcc9"/></g><g clip-path="url(#b)"><path d="m298.899 587.197h-42.899c0-10.744 7.896-19.628 18.175-21.197-.175.882-.184 1.812-.02 2.742.659 3.71 3.953 6.287 7.615 6.152 1.453 5.125 6.578 8.419 11.936 7.469 1.55-.281 2.955-.891 4.166-1.734.668 2.073 1.027 4.282 1.027 6.568z" fill="#14172e"/><path d="m291.807 616.001-28.066-.193-7.741-28.648h42.85z" fill="#babcc9"/></g><g clip-path="url(#c)"><path d="m295.016 375.984c-13.267-.401-17.31-3.452-17.565-3.688-.173-.164 3.806-3.543 17.565-3.688 9.671-.1 18.085 3.205 18.103 3.688.018.482-8.578 3.97-18.103 3.688z" fill="#babcc9"/><path d="m260.103 375.98c13.267-.401 17.311-3.451 17.566-3.688.173-.164-3.807-3.542-17.566-3.688-9.662-.109-18.085 3.196-18.103 3.688-.018.483 8.587 3.97 18.103 3.688z" fill="#babcc9"/><path d="m257.598 360.54c12.721 11.2 19.487 11.883 19.961 11.883.327 0-.028-6.602-12.658-18.731-8.878-8.523-19.97-12.794-20.47-12.357-.492.437 4.043 11.173 13.167 19.205z" fill="#14172e"/><path d="m290.326 353.626c-11.929 11.938-12.657 18.294-12.657 18.732 0 .309 7.03-.028 19.96-11.884 9.079-8.332 13.632-18.74 13.168-19.205-.474-.473-11.911 3.788-20.471 12.357z" fill="#14172e"/><path d="m284.244 344.639c-.71 20.989-6.192 27.382-6.62 27.773-.291.273-6.356-6.01-6.62-27.773-.182-15.289 5.746-28.612 6.62-28.639s7.13 13.577 6.62 28.639z" fill="#babcc9"/></g><g clip-path="url(#d)"><path d="m583.462 339.331-.245.211-.059.043-28.732 24.194-10.665 8.992c-.397.329-.989.295-1.344-.085l-2.189-2.366c-.295-.313-.304-.803-.025-1.133l9.482-11.188 24-28.336.143-.169c1.268-1.445 3.127-2.357 5.206-2.357 3.82 0 6.913 3.093 6.913 6.912 0 2.122-.972 4.014-2.485 5.282z" fill="#babcc9"/><g fill="#14172e"><path d="m594.161 329.251h-10.251v-10.251z"/><path d="m554.873 363.333-11.112 9.439c-.397.33-.989.296-1.344-.085l-2.189-2.366c-.295-.312-.304-.803-.025-1.132l9.482-11.189"/></g></g><g fill="#e5e5eb" opacity=".45"><path d="m1625.09 666.21h3.96c0-.57 0-1.14 0-1.71-3.21 0-6.42 0-9.64 0v1.71h3.97v8.79h1.71c0-2.93 0-5.86 0-8.79z"/><path d="m1629.72 671.25c0 .57.1 1.095.3 1.575.1.25.22.475.36.675.14.21.3.4.48.57.35.34.77.61 1.26.81.48.2 1 .3 1.57.3s1.1-.1 1.59-.3c.48-.2.9-.47 1.26-.81.17-.17.33-.36.47-.57.14-.2.26-.425.36-.675.2-.48.3-1.005.3-1.575s-.1-1.1-.3-1.59c-.1-.24-.22-.465-.36-.675s-.3-.4-.47-.57c-.36-.35-.78-.62-1.26-.81-.49-.19-1.02-.285-1.59-.285s-1.09.095-1.57.285c-.49.19-.91.46-1.26.81-.36.35-.64.765-.84 1.245-.2.49-.3 1.02-.3 1.59zm6.28 0c0 .17-.01.335-.04.495-.03.17-.07.325-.12.465-.06.14-.13.275-.21.405-.08.12-.17.23-.27.33-.21.21-.46.37-.74.48-.28.12-.59.18-.93.18s-.65-.06-.93-.18c-.28-.11-.52-.27-.72-.48-.11-.1-.2-.21-.28-.33-.08-.13-.15-.265-.2-.405-.12-.29-.18-.61-.18-.96s.06-.67.18-.96c.11-.29.27-.54.48-.75.2-.2.44-.36.72-.48.14-.05.29-.09.45-.12.15-.03.31-.045.48-.045s.34.015.5.045c.15.03.29.07.43.12.28.12.53.28.74.48.2.21.36.46.48.75.05.14.09.29.12.45.03.17.04.34.04.51z"/><path d="m1643.01 673.635c-.67 0-1.21-.215-1.62-.645-.42-.43-.63-1.01-.63-1.74s.21-1.31.63-1.74c.41-.43.95-.645 1.62-.645.34 0 .64.055.91.165.28.11.52.275.72.495s.36.475.47.765c.1.29.15.61.15.96s-.05.67-.15.96c-.11.29-.27.545-.47.765s-.44.385-.72.495c-.27.11-.57.165-.91.165zm-3.8 4.365h1.62c0-1.36 0-2.72 0-4.08.29.36.65.66 1.07.9s.93.36 1.53.36c.48 0 .93-.09 1.36-.27.42-.17.79-.425 1.11-.765.16-.17.3-.36.42-.57.12-.2.23-.425.33-.675.18-.48.27-1.03.27-1.65 0-.61-.09-1.16-.27-1.65-.1-.25-.21-.475-.33-.675-.12-.21-.26-.4-.42-.57-.32-.33-.69-.585-1.11-.765-.43-.18-.89-.27-1.38-.27-.59 0-1.09.11-1.51.33-.22.11-.42.245-.59.405-.18.15-.34.32-.48.51 0-.36 0-.715 0-1.065-.54 0-1.08 0-1.62 0z"/><path d="m1648.23 665.34c0 .31.11.58.33.81.23.22.5.33.81.33.32 0 .59-.11.81-.33.22-.23.33-.5.33-.81 0-.32-.11-.59-.33-.81s-.49-.33-.81-.33c-.31 0-.58.11-.81.33-.22.22-.33.49-.33.81zm1.95 2.16c-.54 0-1.08 0-1.62 0v7.5h1.62c0-2.5 0-5 0-7.5z"/><path d="m1651.83 671.265c0 .58.1 1.11.29 1.59.1.24.21.46.34.66.13.21.28.4.45.57.34.34.75.61 1.23.81.48.19 1.02.285 1.61.285.63 0 1.18-.105 1.66-.315s.88-.475 1.2-.795c-.31-.43-.62-.86-.93-1.29-.24.22-.51.415-.82.585-.32.16-.69.24-1.11.24-.32 0-.62-.055-.89-.165-.28-.11-.52-.27-.72-.48-.1-.1-.19-.21-.27-.33-.08-.13-.14-.265-.19-.405-.12-.29-.18-.615-.18-.975s.06-.685.18-.975c.05-.14.11-.275.19-.405.08-.12.17-.235.27-.345.2-.2.44-.355.72-.465.29-.11.59-.165.9-.165.4 0 .75.075 1.05.225s.57.34.8.57c.33-.43.65-.855.97-1.275-.34-.35-.74-.62-1.2-.81s-.98-.285-1.57-.285-1.13.095-1.61.285c-.49.2-.91.475-1.26.825-.34.35-.61.765-.81 1.245s-.3 1.01-.3 1.59z"/><path d="m1664.54 671.535v.435c0 .22-.05.435-.14.645-.1.22-.23.41-.4.57-.16.16-.37.295-.63.405-.13.05-.26.09-.39.12-.14.02-.29.03-.45.03-.41 0-.72-.09-.92-.27-.21-.17-.31-.4-.31-.69 0-.25.09-.465.27-.645.17-.17.44-.28.81-.33.72-.09 1.44-.18 2.16-.27zm-4.7-2.415c.44.27.88.545 1.31.825.11-.42.34-.72.69-.9.35-.17.75-.255 1.21-.255.5 0 .88.09 1.13.27.24.19.36.43.36.72v.165c0 .2-.15.315-.44.345-.69.07-1.38.14-2.08.21-.69.06-1.26.29-1.71.69-.46.4-.69.945-.69 1.635 0 .34.06.65.18.93.06.14.13.275.21.405.09.12.19.23.3.33.21.21.47.37.79.48.31.12.66.18 1.05.18.57 0 1.06-.11 1.46-.33.39-.23.7-.515.93-.855v1.035h1.62c0-1.59 0-3.175 0-4.755 0-.97-.26-1.7-.77-2.19-.26-.25-.58-.435-.97-.555-.4-.12-.87-.18-1.4-.18-.44 0-.83.04-1.18.12s-.66.2-.92.36c-.52.32-.88.76-1.08 1.32z"/><path d="m1669.7 664.5c-.55 0-1.1 0-1.65 0v10.5h1.65c0-3.5 0-7 0-10.5z"/></g><g fill="#e5e5eb" opacity=".45"><path d="m1614.34 418.5c-1.3 0-2.6 0-3.91 0v10.5h1.71c0-1.1 0-2.2 0-3.3h2.2c.52 0 1.01-.09 1.46-.27.22-.09.42-.2.61-.33.19-.12.37-.26.53-.42s.3-.335.42-.525c.13-.19.24-.395.33-.615.18-.44.27-.92.27-1.44 0-.53-.09-1.01-.27-1.44-.09-.22-.2-.425-.33-.615-.12-.19-.26-.365-.42-.525s-.34-.3-.53-.42c-.19-.13-.39-.24-.61-.33-.45-.18-.94-.27-1.46-.27zm1.91 3.6c0 .55-.18 1-.53 1.35-.36.36-.82.54-1.38.54-.73 0-1.46 0-2.2 0 0-1.26 0-2.52 0-3.78h2.2c.56 0 1.02.175 1.38.525.35.36.53.815.53 1.365z"/><path d="m1624.01 425.535v.435c0 .22-.05.435-.14.645-.1.22-.23.41-.4.57-.16.16-.37.295-.63.405-.13.05-.26.09-.39.12-.14.02-.29.03-.45.03-.41 0-.72-.09-.92-.27-.21-.17-.31-.4-.31-.69 0-.25.09-.465.27-.645.17-.17.44-.28.81-.33zm-4.7-2.415c.44.27.88.545 1.31.825.11-.42.34-.72.69-.9.35-.17.75-.255 1.21-.255.5 0 .88.09 1.13.27.24.19.36.43.36.72v.165c0 .2-.15.315-.44.345-.69.07-1.38.14-2.08.21-.69.06-1.26.29-1.71.69-.46.4-.69.945-.69 1.635 0 .34.06.65.18.93.06.14.13.275.21.405.09.12.19.23.3.33.21.21.47.37.79.48.31.12.66.18 1.05.18.57 0 1.06-.11 1.46-.33.39-.23.7-.515.93-.855v1.035h1.62c0-1.59 0-3.175 0-4.755 0-.97-.26-1.7-.77-2.19-.26-.25-.58-.435-.97-.555-.4-.12-.87-.18-1.4-.18-.44 0-.83.04-1.18.12s-.66.2-.92.36c-.52.32-.88.76-1.08 1.32z"/><path d="m1628 432h1.73c1.6-3.5 3.2-7 4.8-10.5-.57 0-1.15 0-1.73 0-.7 1.53-1.4 3.06-2.1 4.59-.72-1.53-1.44-3.06-2.16-4.59-.64 0-1.28 0-1.92 0 1.08 2.15 2.16 4.305 3.23 6.465-.61 1.34-1.23 2.685-1.85 4.035z"/><path d="m1641.97 422.76c-.19-.45-.49-.805-.9-1.065-.4-.25-.9-.375-1.5-.375-.57 0-1.04.115-1.42.345-.39.22-.7.52-.93.9 0-.36 0-.715 0-1.065-.52 0-1.05 0-1.58 0v7.5h1.62c0-1.18 0-2.36 0-3.54 0-.38.03-.725.09-1.035s.17-.585.32-.825c.07-.11.15-.215.25-.315.1-.09.22-.17.35-.24.24-.13.54-.195.91-.195.52 0 .92.155 1.19.465.26.31.39.765.39 1.365v4.32h1.62c0-1.18 0-2.36 0-3.54 0-.38.03-.725.1-1.035.06-.32.17-.595.32-.825.07-.11.15-.215.25-.315.1-.09.22-.17.35-.24.24-.13.54-.195.91-.195.53 0 .92.155 1.17.465.26.31.39.765.39 1.365v4.32h1.64c0-1.48 0-2.96 0-4.44 0-.99-.24-1.78-.71-2.37-.48-.58-1.2-.87-2.16-.87-.67 0-1.21.135-1.63.405-.43.27-.78.615-1.04 1.035z"/><path d="m1649.07 425.28c0 .58.09 1.105.28 1.575.18.48.44.89.78 1.23.33.34.74.61 1.23.81.48.19 1.02.285 1.62.285.71 0 1.31-.125 1.8-.375.49-.24.89-.51 1.2-.81-.25-.44-.5-.875-.76-1.305-.25.27-.57.5-.95.69-.37.19-.8.285-1.3.285-.27 0-.53-.04-.78-.12-.26-.08-.49-.2-.69-.36-.21-.15-.38-.345-.51-.585s-.22-.52-.27-.84c0-.01 0-.015 0-.015h5.76c0-.16 0-.315 0-.465 0-.29-.02-.57-.06-.84-.04-.26-.1-.515-.18-.765-.08-.24-.18-.465-.3-.675-.11-.21-.25-.4-.41-.57s-.33-.325-.52-.465-.4-.26-.62-.36c-.23-.1-.47-.17-.73-.21-.26-.05-.54-.075-.83-.075s-.56.025-.82.075-.51.125-.74.225c-.47.21-.86.495-1.18.855-.33.36-.58.78-.75 1.26-.18.48-.27.995-.27 1.545zm5.64-.765c-1.32 0-2.65 0-3.98 0 .05-.27.13-.515.24-.735.11-.21.25-.395.42-.555.34-.31.81-.465 1.41-.465.29 0 .55.04.78.12s.43.2.59.36c.32.33.5.755.54 1.275z"/><path d="m1659.53 422.535c0-.35 0-.695 0-1.035-.52 0-1.04 0-1.57 0v7.5h1.62c0-1.18 0-2.36 0-3.54 0-.19.01-.375.03-.555.01-.17.03-.335.07-.495.06-.32.17-.595.32-.825s.35-.41.6-.54c.24-.13.54-.195.9-.195.48 0 .86.15 1.15.45.28.3.42.76.42 1.38v4.32h1.65c0-1.51 0-3.02 0-4.53 0-.48-.05-.915-.16-1.305-.1-.38-.27-.71-.5-.99-.22-.27-.5-.48-.85-.63-.34-.15-.75-.225-1.22-.225-.52 0-.99.105-1.41.315s-.77.51-1.05.9z"/><path d="m1671.08 428.865c0-.5 0-.995 0-1.485-.24.04-.44.07-.6.09-.08.01-.17.015-.27.015-.09.01-.18.015-.28.015-.29 0-.5-.07-.62-.21-.13-.14-.19-.335-.19-.585 0-1.28 0-2.555 0-3.825h1.98c0-.46 0-.92 0-1.38-.66 0-1.32 0-1.98 0 0-.67 0-1.34 0-2.01-.54 0-1.08 0-1.62 0v2.01c-.47 0-.95 0-1.43 0v1.38h1.43v3.93c0 .82.18 1.405.55 1.755.36.34.89.51 1.58.51.49 0 .97-.07 1.45-.21z"/><path d="m1672.43 423.615c0 .41.09.75.26 1.02.17.28.38.505.63.675.13.08.27.155.42.225.14.06.29.115.45.165.32.1.62.18.9.24.57.12.99.235 1.26.345.27.12.4.325.4.615s-.12.495-.36.615c-.24.13-.55.195-.93.195-.49 0-.94-.09-1.35-.27-.42-.17-.74-.45-.97-.84-.37.35-.74.705-1.11 1.065.16.26.35.49.58.69.23.19.49.345.78.465.59.24 1.25.36 1.97.36.45 0 .86-.05 1.24-.15.37-.09.69-.235.96-.435.26-.19.47-.435.62-.735s.22-.655.22-1.065-.07-.75-.21-1.02c-.15-.26-.34-.475-.58-.645s-.51-.305-.81-.405c-.31-.09-.63-.17-.95-.24-.59-.14-1.03-.26-1.32-.36-.3-.11-.45-.305-.45-.585 0-.23.12-.41.35-.54.11-.07.24-.12.39-.15.14-.03.3-.045.49-.045.47 0 .88.085 1.22.255.33.18.58.405.76.675.37-.35.74-.7 1.1-1.05-.31-.42-.71-.755-1.19-1.005-.48-.24-1.08-.36-1.8-.36-.47 0-.88.05-1.24.15-.37.11-.69.265-.95.465s-.45.44-.58.72c-.13.29-.2.61-.2.96z"/></g><g clip-path="url(#e)"><path d="m1653.55 611.066h-17.53v9.935h17.53z" fill="#fff"/><path d="m1653.54 611.648h-17.53l-7.01-50.648h30.98z" fill="#7e829a"/><path d="m1644.48 587.852c4.68 0 8.47-3.792 8.47-8.469s-3.79-8.469-8.47-8.469c-4.67 0-8.46 3.792-8.46 8.469s3.79 8.469 8.46 8.469z" fill="#fff"/></g><g fill="#e5e5eb" opacity=".45"><path d="m1316.67 664.5c-1.47 0-2.94 0-4.42 0v10.5h4.42c.45 0 .87-.075 1.24-.225.19-.07.36-.155.52-.255s.3-.215.43-.345c.26-.26.47-.57.62-.93s.22-.755.22-1.185c0-.26-.02-.505-.08-.735s-.15-.445-.26-.645c-.22-.4-.53-.71-.94-.93.39-.22.7-.53.94-.93.11-.2.2-.415.26-.645s.08-.475.08-.735c0-.43-.07-.825-.22-1.185s-.36-.67-.62-.93c-.27-.26-.58-.465-.95-.615-.37-.14-.79-.21-1.24-.21zm1.32 3.015c0 .4-.11.73-.35.99s-.55.39-.94.39c-.9 0-1.82 0-2.74 0 0-.9 0-1.795 0-2.685h2.7c.4 0 .73.12.98.36.24.24.35.555.35.945zm0 4.47c0 .4-.11.715-.35.945-.25.24-.58.36-.98.36-.9 0-1.8 0-2.7 0 0-.9 0-1.795 0-2.685h2.74c.39 0 .7.125.94.375.24.26.35.595.35 1.005z"/><path d="m1320.94 671.28c0 .58.09 1.105.28 1.575.18.48.44.89.78 1.23.33.34.74.61 1.23.81.48.19 1.02.285 1.62.285.71 0 1.31-.125 1.8-.375.49-.24.89-.51 1.2-.81-.25-.44-.5-.875-.76-1.305-.25.27-.57.5-.95.69-.37.19-.8.285-1.3.285-.27 0-.53-.04-.78-.12-.26-.08-.49-.2-.69-.36-.21-.15-.38-.345-.51-.585s-.22-.52-.27-.84c0-.01 0-.015 0-.015h5.76c0-.16 0-.315 0-.465 0-.29-.02-.57-.06-.84-.04-.26-.1-.515-.18-.765-.08-.24-.18-.465-.3-.675-.11-.21-.25-.4-.41-.57s-.33-.325-.52-.465-.4-.26-.62-.36c-.23-.1-.47-.17-.73-.21-.26-.05-.54-.075-.83-.075s-.56.025-.82.075-.51.125-.74.225c-.47.21-.86.495-1.18.855-.33.36-.58.78-.75 1.26-.18.48-.27.995-.27 1.545zm5.64-.765c-1.32 0-2.65 0-3.98 0 .05-.27.13-.515.24-.735.11-.21.25-.395.42-.555.34-.31.81-.465 1.41-.465.29 0 .55.04.78.12s.43.2.59.36c.32.33.5.755.54 1.275z"/><path d="m1332.26 675h1.26c1.11-2.5 2.22-5 3.33-7.5-.61 0-1.22 0-1.84 0-.7 1.73-1.41 3.465-2.12 5.205-.7-1.74-1.4-3.475-2.11-5.205-.61 0-1.23 0-1.85 0 1.11 2.5 2.22 5 3.33 7.5z"/><path d="m1337.5 671.28c0 .58.09 1.105.28 1.575.18.48.44.89.78 1.23.33.34.74.61 1.23.81.48.19 1.02.285 1.62.285.71 0 1.31-.125 1.8-.375.49-.24.89-.51 1.2-.81-.25-.44-.5-.875-.76-1.305-.25.27-.57.5-.95.69-.37.19-.8.285-1.3.285-.27 0-.53-.04-.78-.12-.26-.08-.49-.2-.69-.36-.21-.15-.38-.345-.51-.585s-.22-.52-.27-.84c0-.01 0-.015 0-.015h5.76c0-.16 0-.315 0-.465 0-.29-.02-.57-.06-.84-.04-.26-.1-.515-.18-.765-.08-.24-.18-.465-.3-.675-.11-.21-.25-.4-.41-.57s-.33-.325-.52-.465-.4-.26-.62-.36c-.23-.1-.47-.17-.73-.21-.26-.05-.54-.075-.83-.075s-.56.025-.82.075-.51.125-.74.225c-.47.21-.86.495-1.18.855-.33.36-.58.78-.75 1.26-.18.48-.27.995-.27 1.545zm5.64-.765c-1.32 0-2.65 0-3.98 0 .05-.27.13-.515.24-.735.11-.21.25-.395.42-.555.34-.31.81-.465 1.41-.465.29 0 .55.04.78.12s.43.2.59.36c.32.33.5.755.54 1.275z"/><path d="m1347.95 668.685c0-.4 0-.795 0-1.185-.52 0-1.04 0-1.56 0v7.5h1.62c0-1.15 0-2.295 0-3.435 0-.8.16-1.425.47-1.875.31-.44.84-.66 1.59-.66.15 0 .29.01.43.03.07.01.14.02.2.03s.12.025.19.045c0-.58 0-1.155 0-1.725-.24-.06-.48-.09-.73-.09-.53 0-.97.12-1.32.36-.36.24-.66.575-.89 1.005z"/><path d="m1356.75 671.535v.435c0 .22-.04.435-.13.645-.1.22-.24.41-.41.57-.16.16-.37.295-.63.405-.13.05-.26.09-.39.12-.14.02-.29.03-.45.03-.41 0-.71-.09-.91-.27-.21-.17-.32-.4-.32-.69 0-.25.09-.465.27-.645.17-.17.44-.28.81-.33.72-.09 1.44-.18 2.16-.27zm-4.69-2.415c.44.27.87.545 1.3.825.11-.42.34-.72.69-.9.35-.17.76-.255 1.22-.255.5 0 .87.09 1.12.27.24.19.36.43.36.72v.165c0 .2-.14.315-.43.345-.69.07-1.39.14-2.09.21-.69.06-1.26.29-1.71.69-.46.4-.69.945-.69 1.635 0 .34.06.65.18.93.06.14.13.275.21.405.09.12.19.23.3.33.21.21.48.37.8.48.31.12.66.18 1.05.18.57 0 1.05-.11 1.45-.33.39-.23.7-.515.93-.855v1.035h1.62c0-1.59 0-3.175 0-4.755 0-.97-.25-1.7-.76-2.19-.26-.25-.59-.435-.98-.555-.4-.12-.86-.18-1.39-.18-.44 0-.84.04-1.19.12s-.65.2-.91.36c-.52.32-.88.76-1.08 1.32z"/><path d="m1366 671.25c0 .37-.05.695-.15.975-.1.29-.25.545-.45.765s-.44.38-.71.48c-.26.11-.56.165-.9.165s-.65-.06-.93-.18c-.28-.11-.52-.27-.72-.48s-.35-.465-.46-.765c-.05-.14-.09-.295-.12-.465-.03-.16-.05-.325-.05-.495 0-.35.06-.675.17-.975.05-.14.11-.275.19-.405.08-.12.17-.235.27-.345.2-.21.44-.375.72-.495.14-.05.29-.09.45-.12.15-.03.31-.045.48-.045.34 0 .64.055.9.165.27.1.51.26.71.48s.35.47.45.75c.1.29.15.62.15.99zm-6.15-.015c0 .61.09 1.155.27 1.635.17.48.41.885.73 1.215.32.34.7.595 1.14.765.44.18.93.27 1.46.27.57 0 1.07-.11 1.51-.33.43-.21.77-.49 1.01-.84v.555c0 .29-.03.565-.09.825-.07.27-.19.505-.36.705-.16.21-.39.375-.68.495s-.66.18-1.11.18c-.54 0-1-.105-1.38-.315-.39-.21-.72-.515-1-.915-.33.4-.66.8-.99 1.2.17.23.36.435.58.615.21.19.45.35.71.48.53.28 1.22.42 2.07.42.77 0 1.4-.105 1.89-.315.5-.2.89-.47 1.17-.81.29-.35.49-.74.61-1.17.11-.44.17-.89.17-1.35 0-2.35 0-4.7 0-7.05-.54 0-1.09 0-1.64 0v1.035c-.21-.33-.53-.615-.96-.855s-.94-.36-1.54-.36c-.49 0-.96.09-1.4.27-.43.18-.8.435-1.12.765-.33.34-.59.75-.77 1.23-.1.25-.17.51-.21.78-.05.27-.07.56-.07.87z"/><path d="m1369.12 671.28c0 .58.1 1.105.29 1.575.18.48.44.89.78 1.23.33.34.74.61 1.23.81.48.19 1.02.285 1.62.285.71 0 1.31-.125 1.8-.375.49-.24.89-.51 1.2-.81-.25-.44-.51-.875-.77-1.305-.25.27-.56.5-.94.69-.37.19-.81.285-1.31.285-.27 0-.53-.04-.78-.12-.26-.08-.49-.2-.69-.36-.21-.15-.38-.345-.51-.585s-.22-.52-.27-.84c0-.01 0-.015 0-.015h5.76c0-.16 0-.315 0-.465 0-.29-.02-.57-.06-.84-.04-.26-.1-.515-.18-.765-.08-.24-.18-.465-.3-.675-.11-.21-.24-.4-.4-.57s-.34-.325-.53-.465-.39-.26-.61-.36c-.23-.1-.48-.17-.74-.21-.26-.05-.53-.075-.82-.075s-.57.025-.83.075-.5.125-.73.225c-.47.21-.87.495-1.19.855-.33.36-.58.78-.75 1.26-.18.48-.27.995-.27 1.545zm5.64-.765c-1.32 0-2.64 0-3.97 0 .05-.27.13-.515.24-.735.11-.21.25-.395.42-.555.34-.31.81-.465 1.41-.465.29 0 .55.04.78.12s.42.2.58.36c.32.33.5.755.54 1.275z"/></g><g clip-path="url(#f)"><path d="m1357.88 578.016v34.999c0 4.406-3.57 7.985-7.98 7.985h-10.91c-4.41 0-7.99-3.579-7.99-7.985v-34.999c0-4.416 3.58-7.985 7.99-7.985h1.5v-5.018h7.74v5.018h1.67c4.41 0 7.98 3.569 7.98 7.985z" fill="#7e829a"/><g fill="#fff"><path d="m1331 583.555v29.448c0 4.407 3.58 7.986 7.99 7.986h10.91c4.41 0 7.98-3.579 7.98-7.986v-29.714z"/><path d="m1348.94 565.338h-9.16c-.96 0-1.75-.789-1.75-1.755v-.828c0-.966.78-1.755 1.75-1.755h9.16c.97 0 1.76.789 1.76 1.755v.818c0 .976-.79 1.765-1.76 1.765z"/></g></g><g clip-path="url(#g)"><path d="m1674.24 366.461h-56.05c-2.97 0-5.38-2.411-5.38-5.378v-34.704c.01-2.968 2.41-5.379 5.38-5.379h56.05c2.97 0 5.38 2.411 5.38 5.379v34.715c-.01 2.956-2.41 5.367-5.38 5.367z" fill="#7e829a"/><g fill="#fff"><path d="m1670.64 353.521c0 3.164-2.56 5.728-5.72 5.728-1.47 0-2.8-.556-3.81-1.473-1.02.917-2.35 1.473-3.82 1.473-3.16 0-5.72-2.564-5.72-5.728 0-3.152 2.56-5.716 5.72-5.716 1.47 0 2.8.556 3.82 1.473 1.01-.917 2.34-1.473 3.81-1.473 3.16 0 5.72 2.564 5.72 5.716z"/><path d="m1679.45 329.664h-66.48v7.735h66.48z"/><path d="m1622.45 344.098c-7.43 0-13.45 6.022-13.45 13.452 0 7.429 6.02 13.451 13.45 13.451s13.45-6.022 13.45-13.451c0-7.43-6.02-13.452-13.45-13.452zm-2.07 20.543-5.6-5.597 2.13-2.127 3.49 3.491 8.66-8.477 2.11 2.149z"/></g></g><g fill="#e5e5eb" opacity=".45"><path d="m1314.54 424.82c.27.64.64 1.2 1.11 1.68.48.47 1.03.84 1.66 1.11.31.13.64.23.98.3.34.06.69.09 1.06.09.8 0 1.52-.125 2.16-.375.65-.24 1.23-.595 1.74-1.065-.27-.54-.54-1.075-.81-1.605-.4.41-.85.735-1.36.975s-1.09.36-1.74.36c-.5 0-.96-.085-1.38-.255-.21-.08-.41-.185-.6-.315-.18-.12-.35-.26-.51-.42-.31-.32-.56-.69-.74-1.11-.18-.43-.27-.915-.27-1.455 0-.51.09-.985.27-1.425s.43-.815.74-1.125c.32-.32.69-.565 1.12-.735s.9-.255 1.41-.255c.63 0 1.19.12 1.67.36.48.25.91.565 1.29.945.27-.53.54-1.06.81-1.59-.26-.23-.53-.43-.81-.6-.28-.18-.58-.33-.89-.45-.61-.25-1.29-.375-2.04-.375-.38 0-.74.03-1.08.09-.35.07-.68.17-1 .3s-.62.29-.9.48c-.28.18-.54.39-.78.63-.47.46-.84 1.015-1.11 1.665-.27.63-.41 1.32-.41 2.07 0 .76.14 1.46.41 2.1z"/><path d="m1329.44 424.535v.435c0 .22-.04.435-.13.645-.1.22-.24.41-.41.57-.16.16-.37.295-.63.405-.13.05-.26.09-.39.12-.14.02-.29.03-.45.03-.41 0-.71-.09-.91-.27-.21-.17-.32-.4-.32-.69 0-.25.09-.465.27-.645.17-.17.44-.28.81-.33.72-.09 1.44-.18 2.16-.27zm-4.69-2.415c.44.27.87.545 1.3.825.11-.42.34-.72.69-.9.35-.17.76-.255 1.22-.255.5 0 .87.09 1.12.27.24.19.36.43.36.72v.165c0 .2-.14.315-.43.345-.69.07-1.39.14-2.09.21-.69.06-1.26.29-1.71.69-.46.4-.69.945-.69 1.635 0 .34.06.65.18.93.06.14.13.275.21.405.09.12.19.23.3.33.21.21.48.37.8.48.31.12.66.18 1.05.18.57 0 1.05-.11 1.45-.33.39-.23.7-.515.93-.855v1.035h1.62c0-1.59 0-3.175 0-4.755 0-.97-.25-1.7-.76-2.19-.26-.25-.59-.435-.98-.555-.4-.12-.86-.18-1.39-.18-.44 0-.84.04-1.19.12s-.65.2-.91.36c-.52.32-.88.76-1.08 1.32z"/><path d="m1336.75 426.635c-.67 0-1.21-.215-1.62-.645-.42-.43-.63-1.01-.63-1.74s.21-1.31.63-1.74c.41-.43.95-.645 1.62-.645.34 0 .65.055.92.165.28.11.52.275.72.495s.35.475.46.765c.1.29.15.61.15.96s-.05.67-.15.96c-.11.29-.26.545-.46.765s-.44.385-.72.495c-.27.11-.58.165-.92.165zm-3.79 4.365h1.62c0-1.36 0-2.72 0-4.08.29.36.64.66 1.06.9s.93.36 1.53.36c.48 0 .94-.09 1.37-.27.42-.17.79-.425 1.11-.765.16-.17.3-.36.42-.57.12-.2.23-.425.33-.675.18-.48.27-1.03.27-1.65 0-.61-.09-1.16-.27-1.65-.1-.25-.21-.475-.33-.675-.12-.21-.26-.4-.42-.57-.32-.33-.69-.585-1.11-.765-.43-.18-.89-.27-1.38-.27-.59 0-1.1.11-1.52.33-.22.11-.41.245-.58.405-.18.15-.34.32-.48.51 0-.36 0-.715 0-1.065-.54 0-1.08 0-1.62 0z"/><path d="m1342.01 422.615c0 .41.08.75.25 1.02.17.28.38.505.63.675.13.08.27.155.42.225.14.06.29.115.45.165.32.1.62.18.9.24.57.12.99.235 1.26.345.27.12.41.325.41.615s-.12.495-.36.615c-.24.13-.55.195-.93.195-.49 0-.94-.09-1.35-.27-.42-.17-.75-.45-.98-.84-.37.35-.74.705-1.11 1.065.16.26.36.49.59.69.23.19.49.345.78.465.59.24 1.24.36 1.96.36.45 0 .87-.05 1.25-.15.37-.09.69-.235.96-.435.26-.19.46-.435.61-.735s.23-.655.23-1.065-.07-.75-.21-1.02c-.15-.26-.35-.475-.59-.645s-.51-.305-.81-.405c-.31-.09-.62-.17-.94-.24-.59-.14-1.03-.26-1.32-.36-.3-.11-.45-.305-.45-.585 0-.23.11-.41.34-.54.11-.07.24-.12.39-.15.14-.03.31-.045.5-.045.47 0 .87.085 1.21.255.33.18.59.405.77.675.37-.35.73-.7 1.09-1.05-.31-.42-.7-.755-1.18-1.005-.48-.24-1.08-.36-1.8-.36-.47 0-.89.05-1.25.15-.37.11-.68.265-.94.465s-.46.44-.59.72c-.13.29-.19.61-.19.96z"/><path d="m1356.07 420.5c-.54 0-1.08 0-1.62 0v3.54c0 .36-.03.695-.09 1.005-.07.32-.17.595-.31.825-.15.24-.35.425-.59.555-.24.14-.54.21-.9.21-.56 0-.94-.165-1.15-.495-.11-.16-.2-.35-.26-.57-.05-.22-.07-.47-.07-.75 0-1.44 0-2.88 0-4.32-.55 0-1.11 0-1.67 0v4.545c0 .23.01.455.03.675.03.21.07.41.12.6.1.37.26.7.48.99.23.28.52.495.86.645s.75.225 1.23.225c.57 0 1.04-.115 1.41-.345s.69-.545.97-.945v1.11h1.56c0-2.5 0-5 0-7.5z"/><path d="m1359.83 417.5c-.55 0-1.1 0-1.65 0v10.5h1.65c0-3.5 0-7 0-10.5z"/><path d="m1361.38 424.28c0 .58.09 1.105.28 1.575.18.48.44.89.78 1.23.33.34.74.61 1.23.81.48.19 1.02.285 1.62.285.71 0 1.31-.125 1.8-.375.49-.24.89-.51 1.2-.81-.25-.44-.5-.875-.76-1.305-.25.27-.57.5-.95.69-.37.19-.8.285-1.3.285-.27 0-.53-.04-.78-.12-.26-.08-.49-.2-.69-.36-.21-.15-.38-.345-.51-.585s-.22-.52-.27-.84c0-.01 0-.015 0-.015h5.76c0-.16 0-.315 0-.465 0-.29-.02-.57-.06-.84-.04-.26-.1-.515-.18-.765-.08-.24-.18-.465-.3-.675-.11-.21-.25-.4-.41-.57s-.33-.325-.52-.465-.4-.26-.62-.36c-.23-.1-.47-.17-.73-.21-.26-.05-.54-.075-.83-.075s-.56.025-.82.075-.51.125-.74.225c-.47.21-.86.495-1.18.855-.33.36-.58.78-.75 1.26-.18.48-.27.995-.27 1.545zm5.64-.765c-1.32 0-2.65 0-3.98 0 .05-.27.13-.515.24-.735.11-.21.25-.395.42-.555.34-.31.81-.465 1.41-.465.29 0 .55.04.78.12s.43.2.59.36c.32.33.5.755.54 1.275z"/><path d="m1370.06 422.615c0 .41.08.75.25 1.02.17.28.38.505.63.675.13.08.27.155.42.225.14.06.29.115.45.165.32.1.62.18.9.24.57.12.99.235 1.26.345.27.12.41.325.41.615s-.12.495-.36.615c-.24.13-.55.195-.93.195-.49 0-.94-.09-1.35-.27-.42-.17-.75-.45-.98-.84-.37.35-.74.705-1.11 1.065.16.26.36.49.59.69.23.19.49.345.78.465.59.24 1.24.36 1.96.36.45 0 .87-.05 1.25-.15.37-.09.69-.235.96-.435.26-.19.46-.435.61-.735s.23-.655.23-1.065-.07-.75-.21-1.02c-.15-.26-.35-.475-.59-.645s-.51-.305-.81-.405c-.31-.09-.62-.17-.94-.24-.59-.14-1.03-.26-1.32-.36-.3-.11-.45-.305-.45-.585 0-.23.11-.41.34-.54.11-.07.24-.12.39-.15.14-.03.31-.045.5-.045.47 0 .87.085 1.21.255.33.18.59.405.77.675.37-.35.73-.7 1.09-1.05-.31-.42-.7-.755-1.18-1.005-.48-.24-1.08-.36-1.8-.36-.47 0-.89.05-1.25.15-.37.11-.68.265-.94.465s-.46.44-.59.72c-.13.29-.19.61-.19.96z"/></g><path d="m1320.85 330 8.19-8.196c3.74-3.739 9.8-3.739 13.54 0 3.74 3.738 3.74 9.799 0 13.537l-8.12 8.121z" fill="#7e829a"/><path d="m1334.54 343.384-8.2 8.196c-3.74 3.738-9.8 3.738-13.54 0-3.73-3.738-3.73-9.8 0-13.538l8.12-8.12z" fill="#fff"/><path d="m1354.62 362.15-8.2-8.196c-3.74-3.738-3.74-9.8 0-13.538s9.8-3.738 13.54 0l8.12 8.12z" fill="#7e829a"/><path d="m1368 348.461 8.2 8.196c3.74 3.738 3.74 9.8 0 13.538s-9.8 3.738-13.54 0l-8.12-8.12z" fill="#fff"/><g fill="#14172e" opacity=".5"><path d="m243.438 175.4c-.684 0-1.368 0-2.052 0v12.6h2.052c0-4.2 0-8.4 0-12.6z"/><path d="m245.338 183.518c0 .696.114 1.332.342 1.908.12.288.258.552.414.792.156.252.336.48.54.684.408.408.9.732 1.476.972.576.228 1.218.342 1.926.342.756 0 1.422-.126 1.998-.378s1.056-.57 1.44-.954c-.372-.516-.744-1.032-1.116-1.548-.288.264-.618.498-.99.702-.384.192-.828.288-1.332.288-.384 0-.738-.066-1.062-.198-.336-.132-.624-.324-.864-.576-.12-.12-.228-.252-.324-.396-.096-.156-.174-.318-.234-.486-.144-.348-.216-.738-.216-1.17s.072-.822.216-1.17c.06-.168.138-.33.234-.486.096-.144.204-.282.324-.414.24-.24.528-.426.864-.558.348-.132.708-.198 1.08-.198.48 0 .9.09 1.26.27s.678.408.954.684c.396-.516.786-1.026 1.17-1.53-.408-.42-.888-.744-1.44-.972s-1.182-.342-1.89-.342-1.35.114-1.926.342c-.588.24-1.092.57-1.512.99-.408.42-.732.918-.972 1.494s-.36 1.212-.36 1.908z"/><path d="m254.338 183.5c0 .684.12 1.314.36 1.89.12.3.264.57.432.81.168.252.36.48.576.684.42.408.924.732 1.512.972.576.24 1.206.36 1.89.36s1.32-.12 1.908-.36c.576-.24 1.08-.564 1.512-.972.204-.204.39-.432.558-.684.168-.24.312-.51.432-.81.24-.576.36-1.206.36-1.89s-.12-1.32-.36-1.908c-.12-.288-.264-.558-.432-.81s-.354-.48-.558-.684c-.432-.42-.936-.744-1.512-.972-.588-.228-1.224-.342-1.908-.342s-1.314.114-1.89.342c-.588.228-1.092.552-1.512.972-.432.42-.768.918-1.008 1.494-.24.588-.36 1.224-.36 1.908zm7.542 0c0 .204-.018.402-.054.594-.036.204-.084.39-.144.558-.072.168-.156.33-.252.486-.096.144-.204.276-.324.396-.252.252-.546.444-.882.576-.336.144-.708.216-1.116.216s-.78-.072-1.116-.216c-.336-.132-.624-.324-.864-.576-.132-.12-.246-.252-.342-.396-.096-.156-.174-.318-.234-.486-.144-.348-.216-.732-.216-1.152s.072-.804.216-1.152c.132-.348.324-.648.576-.9.24-.24.528-.432.864-.576.168-.06.348-.108.54-.144.18-.036.372-.054.576-.054s.402.018.594.054c.18.036.354.084.522.144.336.144.63.336.882.576.24.252.432.552.576.9.06.168.108.348.144.54.036.204.054.408.054.612z"/><path d="m267.44 180.242c0-.42 0-.834 0-1.242-.624 0-1.254 0-1.89 0v9h1.944c0-1.416 0-2.832 0-4.248 0-.228.012-.45.036-.666.012-.204.042-.402.09-.594.072-.384.198-.714.378-.99s.42-.492.72-.648c.288-.156.648-.234 1.08-.234.576 0 1.038.18 1.386.54.336.36.504.912.504 1.656v5.184h1.98c0-1.812 0-3.624 0-5.436 0-.576-.066-1.098-.198-1.566-.12-.456-.318-.852-.594-1.188-.264-.324-.606-.576-1.026-.756-.408-.18-.894-.27-1.458-.27-.624 0-1.188.126-1.692.378s-.924.612-1.26 1.08z"/><path d="m275.379 183.5c0 .684.12 1.314.36 1.89.12.3.264.57.432.81.168.252.36.48.576.684.42.408.924.732 1.512.972.576.24 1.206.36 1.89.36s1.32-.12 1.908-.36c.576-.24 1.08-.564 1.512-.972.204-.204.39-.432.558-.684.168-.24.312-.51.432-.81.24-.576.36-1.206.36-1.89s-.12-1.32-.36-1.908c-.12-.288-.264-.558-.432-.81s-.354-.48-.558-.684c-.432-.42-.936-.744-1.512-.972-.588-.228-1.224-.342-1.908-.342s-1.314.114-1.89.342c-.588.228-1.092.552-1.512.972-.432.42-.768.918-1.008 1.494-.24.588-.36 1.224-.36 1.908zm7.542 0c0 .204-.018.402-.054.594-.036.204-.084.39-.144.558-.072.168-.156.33-.252.486-.096.144-.204.276-.324.396-.252.252-.546.444-.882.576-.336.144-.708.216-1.116.216s-.78-.072-1.116-.216c-.336-.132-.624-.324-.864-.576-.132-.12-.246-.252-.342-.396-.096-.156-.174-.318-.234-.486-.144-.348-.216-.732-.216-1.152s.072-.804.216-1.152c.132-.348.324-.648.576-.9.24-.24.528-.432.864-.576.168-.06.348-.108.54-.144.18-.036.372-.054.576-.054s.402.018.594.054c.18.036.354.084.522.144.336.144.63.336.882.576.24.252.432.552.576.9.06.168.108.348.144.54.036.204.054.408.054.612z"/><path d="m293.467 183.5c0 .444-.06.834-.18 1.17-.12.348-.3.654-.54.918s-.522.456-.846.576c-.312.132-.672.198-1.08.198s-.78-.072-1.116-.216c-.336-.132-.624-.324-.864-.576s-.426-.558-.558-.918c-.06-.168-.108-.354-.144-.558-.036-.192-.054-.39-.054-.594 0-.42.066-.81.198-1.17.06-.168.138-.33.234-.486.096-.144.204-.282.324-.414.24-.252.528-.45.864-.594.168-.06.348-.108.54-.144.18-.036.372-.054.576-.054.408 0 .768.066 1.08.198.324.12.606.312.846.576s.42.564.54.9c.12.348.18.744.18 1.188zm-7.38-.018c0 .732.108 1.386.324 1.962.204.576.498 1.062.882 1.458.384.408.84.714 1.368.918.528.216 1.11.324 1.746.324.684 0 1.29-.132 1.818-.396.516-.252.918-.588 1.206-1.008v.666c0 .348-.036.678-.108.99-.084.324-.228.606-.432.846-.192.252-.462.45-.81.594s-.792.216-1.332.216c-.648 0-1.2-.126-1.656-.378-.468-.252-.87-.618-1.206-1.098-.396.48-.792.96-1.188 1.44.204.276.438.522.702.738.252.228.534.42.846.576.636.336 1.464.504 2.484.504.924 0 1.68-.126 2.268-.378.6-.24 1.068-.564 1.404-.972.348-.42.594-.888.738-1.404.132-.528.198-1.068.198-1.62 0-2.82 0-5.64 0-8.46-.648 0-1.302 0-1.962 0v1.242c-.252-.396-.636-.738-1.152-1.026s-1.134-.432-1.854-.432c-.588 0-1.146.108-1.674.324-.516.216-.966.522-1.35.918-.396.408-.702.9-.918 1.476-.12.3-.204.612-.252.936-.06.324-.09.672-.09 1.044z"/><path d="m299.537 180.422c0-.48 0-.954 0-1.422-.624 0-1.248 0-1.872 0v9h1.944c0-1.38 0-2.754 0-4.122 0-.96.186-1.71.558-2.25.372-.528 1.008-.792 1.908-.792.18 0 .354.012.522.036.084.012.162.024.234.036s.15.03.234.054c0-.696 0-1.386 0-2.07-.288-.072-.582-.108-.882-.108-.636 0-1.164.144-1.584.432-.432.288-.786.69-1.062 1.206z"/><path d="m309.922 183.842v.522c0 .264-.054.522-.162.774-.12.264-.282.492-.486.684-.192.192-.444.354-.756.486-.156.06-.312.108-.468.144-.168.024-.348.036-.54.036-.492 0-.858-.108-1.098-.324-.252-.204-.378-.48-.378-.828 0-.3.108-.558.324-.774.204-.204.528-.336.972-.396zm-5.634-2.898c.528.324 1.05.654 1.566.99.132-.504.408-.864.828-1.08.42-.204.906-.306 1.458-.306.6 0 1.05.108 1.35.324.288.228.432.516.432.864v.198c0 .24-.174.378-.522.414-.828.084-1.662.168-2.502.252-.828.072-1.512.348-2.052.828-.552.48-.828 1.134-.828 1.962 0 .408.072.78.216 1.116.072.168.156.33.252.486.108.144.228.276.36.396.252.252.57.444.954.576.372.144.792.216 1.26.216.684 0 1.266-.132 1.746-.396.468-.276.84-.618 1.116-1.026v1.242h1.944c0-1.908 0-3.81 0-5.706 0-1.164-.306-2.04-.918-2.628-.312-.3-.702-.522-1.17-.666-.48-.144-1.038-.216-1.674-.216-.528 0-1.002.048-1.422.144s-.786.24-1.098.432c-.624.384-1.056.912-1.296 1.584z"/><path d="m318.514 186.362c-.804 0-1.452-.258-1.944-.774-.504-.516-.756-1.212-.756-2.088s.252-1.572.756-2.088c.492-.516 1.14-.774 1.944-.774.408 0 .774.066 1.098.198.336.132.624.33.864.594s.426.57.558.918c.12.348.18.732.18 1.152s-.06.804-.18 1.152c-.132.348-.318.654-.558.918s-.528.462-.864.594c-.324.132-.69.198-1.098.198zm-4.554 5.238h1.944c0-1.632 0-3.264 0-4.896.348.432.774.792 1.278 1.08s1.116.432 1.836.432c.576 0 1.122-.108 1.638-.324.504-.204.948-.51 1.332-.918.192-.204.36-.432.504-.684.144-.24.276-.51.396-.81.216-.576.324-1.236.324-1.98 0-.732-.108-1.392-.324-1.98-.12-.3-.252-.57-.396-.81-.144-.252-.312-.48-.504-.684-.384-.396-.828-.702-1.332-.918-.516-.216-1.068-.324-1.656-.324-.708 0-1.314.132-1.818.396-.264.132-.498.294-.702.486-.216.18-.408.384-.576.612 0-.432 0-.858 0-1.278-.648 0-1.296 0-1.944 0z"/><path d="m326.838 175.4c-.648 0-1.296 0-1.944 0v12.6h1.944c0-1.416 0-2.832 0-4.248 0-.228.012-.45.036-.666.012-.204.042-.402.09-.594.072-.384.198-.714.378-.99s.42-.492.72-.648.666-.234 1.098-.234c.6 0 1.062.192 1.386.576.324.372.486.912.486 1.62v5.184h1.98c0-1.812 0-3.624 0-5.436 0-.576-.066-1.098-.198-1.566-.12-.456-.318-.852-.594-1.188-.264-.324-.606-.576-1.026-.756-.408-.18-.894-.27-1.458-.27-.648 0-1.212.126-1.692.378-.48.264-.882.624-1.206 1.08 0-1.62 0-3.234 0-4.842z"/><path d="m335.806 191.6h2.07c1.92-4.2 3.84-8.4 5.76-12.6-.684 0-1.374 0-2.07 0-.84 1.836-1.68 3.672-2.52 5.508-.864-1.836-1.728-3.672-2.592-5.508-.768 0-1.536 0-2.304 0 1.296 2.58 2.586 5.166 3.87 7.758-.732 1.608-1.47 3.222-2.214 4.842z"/></g><path d="m959.821 372.805c0 3.26-62.821 116.039-62.821 151.057 0 35.017 28.147 63.332 62.821 63.332h.18v-214.027c-.12-.242-.18-.362-.18-.362z" fill="#14172e"/><path d="m960.18 372.805c0 3.26 62.82 116.039 62.82 151.057 0 35.017-28.146 63.332-62.82 63.332-.06 0-.12 0-.18 0v-214.027c.12-.242.18-.362.18-.362z" fill="#fff"/></svg>