<svg width="1920" height="955" viewBox="0 0 1920 955" fill="none" xmlns="http://www.w3.org/2000/svg">
<rect width="1920" height="955" transform="translate(-0.0078125)" fill="white"/>
<path d="M793.298 505.774L792.468 502.589L782.996 467.271L771.489 424.37L769.044 415.241C768.407 412.879 767.01 410.792 765.069 409.302C763.128 407.813 760.751 407.004 758.304 407H698.223C695.776 407.005 693.4 407.814 691.459 409.303C689.518 410.792 688.121 412.879 687.483 415.241L664.078 502.589L663.225 505.778C662.837 507.226 662.936 508.761 663.507 510.146C664.077 511.532 665.088 512.691 666.382 513.446V513.446L677.465 519.842L722.702 545.945C724.393 546.918 726.309 547.43 728.259 547.43C730.21 547.43 732.126 546.918 733.816 545.945L787.258 515.088L790.118 513.442C791.417 512.69 792.432 511.532 793.007 510.146C793.581 508.76 793.684 507.224 793.298 505.774V505.774ZM671.768 510.735C670.606 510.063 669.698 509.025 669.185 507.784C668.672 506.543 668.583 505.167 668.931 503.87L682.558 452.999L689.887 425.651C689.979 425.264 690.201 424.92 690.516 424.678C690.832 424.435 691.222 424.309 691.619 424.321V424.321C692.017 424.308 692.407 424.434 692.723 424.677C693.039 424.919 693.261 425.264 693.351 425.651L710.884 491.082L722.941 536.089C723.048 536.495 723.033 536.924 722.897 537.321C722.762 537.718 722.511 538.067 722.178 538.322C721.845 538.578 721.444 538.729 721.025 538.757C720.606 538.785 720.189 538.689 719.824 538.48L679.996 515.476L671.768 510.735ZM691.615 419.192L691.646 419.309H691.583L691.615 419.192ZM736.694 538.48C736.33 538.692 735.912 538.791 735.492 538.764C735.072 538.737 734.669 538.586 734.335 538.33C734.001 538.073 733.752 537.723 733.617 537.324C733.483 536.925 733.471 536.495 733.582 536.089L734.845 531.416L763.171 425.692C763.279 425.315 763.507 424.984 763.82 424.748C764.133 424.513 764.514 424.385 764.906 424.385C765.297 424.385 765.679 424.513 765.992 424.748C766.304 424.984 766.532 425.315 766.64 425.692L778.864 471.33L787.596 503.893C787.941 505.189 787.849 506.562 787.335 507.801C786.822 509.04 785.915 510.076 784.755 510.749L752.093 529.612L736.694 538.48ZM764.908 419.197L764.94 419.314H764.876L764.908 419.197ZM757.434 412.011C757.858 412.011 758.278 412.095 758.67 412.258C759.062 412.42 759.418 412.659 759.718 412.959C760.017 413.26 760.255 413.616 760.416 414.008C760.578 414.401 760.66 414.821 760.659 415.245C760.659 415.524 760.623 415.802 760.551 416.071L758.331 424.361L743.437 479.995L730.018 530.063C729.908 530.436 729.68 530.763 729.368 530.996C729.056 531.229 728.677 531.355 728.288 531.355C727.899 531.355 727.521 531.229 727.209 530.996C726.897 530.763 726.669 530.436 726.559 530.063L699.486 429.025L698.232 424.366L696.008 416.075C695.881 415.597 695.865 415.096 695.963 414.611C696.06 414.126 696.267 413.669 696.569 413.277C696.871 412.885 697.258 412.567 697.702 412.348C698.146 412.129 698.635 412.016 699.13 412.016L757.434 412.011Z" fill="black"/>
<path d="M857.957 412.03H890.835V416.396H862.694V434.497H889.139V438.954H862.694V458.895H890.835V463.307H857.957V412.03Z" fill="black"/>
<path d="M918.161 464.208C903.664 464.208 894.706 453.247 894.706 437.618C894.706 421.989 903.682 411.1 918.161 411.1C932.64 411.1 941.639 421.993 941.639 437.618C941.639 453.243 932.659 464.208 918.161 464.208ZM918.161 459.698C928.626 459.698 936.619 451.709 936.619 437.636C936.619 423.563 928.626 415.647 918.161 415.647C907.697 415.647 899.708 423.563 899.708 437.636C899.708 451.709 907.697 459.698 918.161 459.698Z" fill="black"/>
<path d="M964.981 411.108C975.094 411.108 982.166 416.07 984.074 424.83H979.113C977.349 418.889 972.347 415.637 964.476 415.637C959.316 415.637 952.031 417.685 952.031 424.406C952.031 429.566 956.203 432.11 961.954 433.454L968.035 434.807C975.391 436.503 985.288 439.404 985.288 449.241C985.288 459.079 976.307 464.234 966.343 464.234C953.542 464.234 946.474 457.09 945.342 447.897H950.303C952.04 456.088 957.696 459.697 966.127 459.697C971.711 459.697 980.34 457.649 980.34 450.012C980.34 443.788 974.259 440.82 967.047 439.264L960.61 437.847C953.88 436.354 947.182 433.03 947.182 424.618C947.182 415.213 956.708 411.108 964.981 411.108Z" fill="black"/>
<path d="M1043.71 463.307L1015.64 417.131V463.307H1010.9V412.03H1017.76L1045.83 458.277V412.03H1050.57V463.307H1043.71Z" fill="black"/>
<path d="M1057.81 444.416C1057.81 432.183 1065.44 424.619 1075.63 424.619C1086.3 424.619 1093.16 433.667 1092.6 445.548H1062.33C1062.55 454.813 1068.27 460.185 1076.05 460.185C1081.99 460.185 1086.16 457.217 1087.65 451.913H1092.24C1090.34 459.834 1084.18 464.218 1075.77 464.218C1064.67 464.209 1057.81 456.225 1057.81 444.416ZM1062.47 441.516H1087.79C1087.79 435.084 1083.19 428.575 1075.55 428.575C1068.49 428.575 1063.39 433.031 1062.47 441.516Z" fill="black"/>
<path d="M1099.77 416.698H1104.22V425.268H1111.72V429.084H1104.22V453.383C1104.22 458.263 1104.36 459.323 1109.46 459.323H1111.71V463.306H1108.1C1101.34 463.306 1099.76 461.822 1099.76 454.253V429.07H1093.44V425.254H1099.76L1099.77 416.698Z" fill="black"/>
<path d="M1137.49 425.254H1141.87L1151.63 456.436L1159.75 425.254H1164.63L1153.61 463.305H1149.51L1139.54 431.343L1129.86 463.305H1125.8L1114.77 425.263H1119.65L1128.06 456.386L1137.49 425.254Z" fill="black"/>
<path d="M1182.97 424.619C1192.09 424.619 1200.22 430.555 1200.22 444.416C1200.22 458.277 1192.1 464.218 1182.97 464.218C1173.92 464.218 1165.79 458.277 1165.79 444.416C1165.79 430.555 1173.92 424.619 1182.97 424.619ZM1182.97 460.185C1190.26 460.185 1195.56 455.377 1195.56 444.398C1195.56 433.419 1190.26 428.611 1182.97 428.611C1175.61 428.611 1170.45 433.419 1170.45 444.398C1170.45 455.377 1175.61 460.185 1182.97 460.185V460.185Z" fill="black"/>
<path d="M1223.32 429.706C1222.97 429.649 1222.61 429.627 1222.26 429.638H1221.36C1213.51 429.638 1210.98 435.294 1210.98 443.355V463.305H1206.67V425.254H1210.84V432.182C1212.54 427.725 1217.56 424.965 1222.08 424.965H1222.65C1222.88 424.953 1223.12 424.977 1223.35 425.037L1223.32 429.706Z" fill="black"/>
<path d="M1232.05 412.03V444.276L1249.45 425.255H1254.81L1240.74 440.528L1256.07 463.297H1250.98L1237.9 443.64L1232.04 450.005V463.307H1227.65V412.03H1232.05Z" fill="black"/>
<path d="M857.957 489.612H889.284V493.978H862.694V512.079H887.642V516.535H862.694V540.888H857.957V489.612Z" fill="black"/>
<path d="M908.653 502.201C917.773 502.201 925.906 508.137 925.906 521.998C925.906 535.859 917.787 541.799 908.653 541.799C899.519 541.799 891.467 535.859 891.467 521.998C891.467 508.137 899.6 502.201 908.653 502.201ZM908.653 537.767C915.933 537.767 921.237 532.959 921.237 521.98C921.237 511.001 915.933 506.193 908.653 506.193C901.296 506.193 896.136 511.001 896.136 521.98C896.136 532.959 901.296 537.767 908.653 537.767Z" fill="black"/>
<path d="M956.163 534.727C954.255 538.336 950.507 541.8 943.931 541.8C935.234 541.8 931.553 536.423 931.553 527.091V502.837H935.938V525.886C935.938 533.031 937.638 537.84 945.063 537.84C951.071 537.84 956.163 532.323 956.163 524.263V502.837H960.548V540.889H956.163V534.727Z" fill="black"/>
<path d="M973.551 509.269C975.459 505.66 979.068 502.201 986.208 502.201C995.189 502.201 999.009 507.573 999.009 516.905V540.888H994.625V518.11C994.625 510.969 992.717 506.156 985.076 506.156C978.5 506.156 973.551 511.673 973.551 519.733V540.888H969.167V502.837H973.551V509.269Z" fill="black"/>
<path d="M1020.67 502.201C1026.33 502.201 1030.78 504.817 1033.54 509.418V489.616H1037.92V540.888H1033.54V534.664C1030.78 539.174 1026.32 541.808 1020.67 541.808C1011.9 541.808 1004.76 534.664 1004.76 522.007C1004.76 509.35 1011.9 502.201 1020.67 502.201ZM1021.57 506.156C1014.5 506.156 1009.48 511.885 1009.48 521.998C1009.48 532.111 1014.5 537.839 1021.57 537.839C1027.3 537.839 1033.8 533.328 1033.8 521.998C1033.8 510.667 1027.31 506.156 1021.61 506.156H1021.57Z" fill="black"/>
<path d="M1071.08 535.079C1068.6 539.112 1063.86 541.8 1056.79 541.8C1049.73 541.8 1044.21 537.695 1044.21 531.426C1044.21 522.729 1052.69 519.698 1071.01 517.777V516.423C1071.01 507.722 1065.85 505.887 1060.4 505.887C1053.89 505.887 1050.08 509.423 1049.72 514.457H1045.13C1046.19 506.888 1052.13 502.012 1060.68 502.012C1069.52 502.012 1075.39 505.688 1075.39 517.001C1075.39 522.305 1075.32 525.697 1075.32 528.728C1075.32 533.045 1075.54 536.721 1075.77 540.907H1071.31L1071.08 535.079ZM1057.79 537.907C1064.86 537.907 1071.22 534.231 1071.22 523.473V521.638C1055.81 523.334 1049.09 525.454 1049.09 531.322C1049.09 535.363 1052.69 537.907 1057.79 537.907Z" fill="black"/>
<path d="M1084.67 494.28H1089.13V502.85H1096.62V506.666H1089.13V530.965C1089.13 535.846 1089.27 536.906 1094.36 536.906H1096.61V540.889H1093.01C1086.24 540.889 1084.66 539.405 1084.66 531.836V506.653H1078.35V502.837H1084.66L1084.67 494.28Z" fill="black"/>
<path d="M1106.29 489.612V496.612H1101.9V489.612H1106.29ZM1106.29 502.837V540.888H1101.9V502.837H1106.29Z" fill="black"/>
<path d="M1129.86 502.201C1138.98 502.201 1147.12 508.137 1147.12 521.998C1147.12 535.859 1139 541.799 1129.86 541.799C1120.81 541.799 1112.68 535.859 1112.68 521.998C1112.68 508.137 1120.79 502.201 1129.86 502.201ZM1129.86 537.767C1137.14 537.767 1142.45 532.959 1142.45 521.98C1142.45 511.001 1137.14 506.193 1129.86 506.193C1122.51 506.193 1117.35 511.001 1117.35 521.98C1117.35 532.959 1122.49 537.767 1129.86 537.767Z" fill="black"/>
<path d="M1157.89 509.269C1159.79 505.66 1163.4 502.201 1170.54 502.201C1179.52 502.201 1183.34 507.573 1183.34 516.905V540.888H1178.96V518.11C1178.96 510.969 1177.05 506.156 1169.41 506.156C1162.83 506.156 1157.89 511.673 1157.89 519.733V540.888H1153.5V502.837H1157.89V509.269Z" fill="black"/>
<g opacity="0.3">
<path d="M240.88 103.6H242.56V110.32H246.376V112H240.88V103.6Z" fill="black"/>
<path d="M252.553 112C251.761 112 251.045 111.82 250.405 111.46C249.765 111.092 249.261 110.588 248.893 109.948C248.533 109.308 248.353 108.592 248.353 107.8C248.353 107.008 248.533 106.292 248.893 105.652C249.261 105.012 249.765 104.512 250.405 104.152C251.045 103.784 251.761 103.6 252.553 103.6C253.345 103.6 254.061 103.784 254.701 104.152C255.341 104.512 255.841 105.012 256.201 105.652C256.569 106.292 256.753 107.008 256.753 107.8C256.753 108.592 256.569 109.308 256.201 109.948C255.841 110.588 255.341 111.092 254.701 111.46C254.061 111.82 253.345 112 252.553 112ZM252.553 110.32C253.033 110.32 253.465 110.212 253.849 109.996C254.233 109.78 254.533 109.48 254.749 109.096C254.965 108.712 255.073 108.28 255.073 107.8C255.073 107.312 254.965 106.88 254.749 106.504C254.533 106.12 254.233 105.82 253.849 105.604C253.465 105.388 253.033 105.28 252.553 105.28C252.065 105.28 251.629 105.388 251.245 105.604C250.869 105.82 250.573 106.12 250.357 106.504C250.141 106.88 250.033 107.312 250.033 107.8C250.033 108.28 250.141 108.712 250.357 109.096C250.573 109.48 250.869 109.78 251.245 109.996C251.629 110.212 252.065 110.32 252.553 110.32Z" fill="black"/>
<path d="M259.564 107.812C259.564 107.012 259.74 106.292 260.092 105.652C260.452 105.012 260.956 104.512 261.604 104.152C262.252 103.784 262.996 103.6 263.836 103.6C264.428 103.6 264.988 103.7 265.516 103.9C266.052 104.092 266.52 104.388 266.92 104.788L266.104 106.348C265.488 105.636 264.704 105.28 263.752 105.28C263.264 105.28 262.828 105.388 262.444 105.604C262.068 105.812 261.772 106.108 261.556 106.492C261.348 106.876 261.244 107.312 261.244 107.8C261.244 108.296 261.348 108.736 261.556 109.12C261.772 109.504 262.072 109.804 262.456 110.02C262.848 110.228 263.296 110.332 263.8 110.332C264.288 110.332 264.732 110.208 265.132 109.96C265.532 109.704 265.78 109.344 265.876 108.88H263.524V107.2H267.808V107.752C267.808 108.64 267.632 109.404 267.28 110.044C266.928 110.684 266.448 111.172 265.84 111.508C265.24 111.836 264.572 112 263.836 112C263.004 112 262.264 111.82 261.616 111.46C260.968 111.1 260.464 110.604 260.104 109.972C259.744 109.332 259.564 108.612 259.564 107.812Z" fill="black"/>
<path d="M274.717 112C273.925 112 273.209 111.82 272.569 111.46C271.929 111.092 271.425 110.588 271.057 109.948C270.697 109.308 270.517 108.592 270.517 107.8C270.517 107.008 270.697 106.292 271.057 105.652C271.425 105.012 271.929 104.512 272.569 104.152C273.209 103.784 273.925 103.6 274.717 103.6C275.509 103.6 276.225 103.784 276.865 104.152C277.505 104.512 278.005 105.012 278.365 105.652C278.733 106.292 278.917 107.008 278.917 107.8C278.917 108.592 278.733 109.308 278.365 109.948C278.005 110.588 277.505 111.092 276.865 111.46C276.225 111.82 275.509 112 274.717 112ZM274.717 110.32C275.197 110.32 275.629 110.212 276.013 109.996C276.397 109.78 276.697 109.48 276.913 109.096C277.129 108.712 277.237 108.28 277.237 107.8C277.237 107.312 277.129 106.88 276.913 106.504C276.697 106.12 276.397 105.82 276.013 105.604C275.629 105.388 275.197 105.28 274.717 105.28C274.229 105.28 273.793 105.388 273.409 105.604C273.033 105.82 272.737 106.12 272.521 106.504C272.305 106.88 272.197 107.312 272.197 107.8C272.197 108.28 272.305 108.712 272.521 109.096C272.737 109.48 273.033 109.78 273.409 109.996C273.793 110.212 274.229 110.32 274.717 110.32Z" fill="black"/>
<path d="M283.959 105.28H280.923V103.6H288.675V105.28H285.639V112H283.959V105.28Z" fill="black"/>
<path d="M294.451 108.748L291.019 103.6H293.047L295.291 106.96L297.535 103.6H299.563L296.131 108.748V112H294.451V108.748Z" fill="black"/>
<path d="M302.204 103.6H305.492C306.052 103.6 306.556 103.728 307.004 103.984C307.46 104.24 307.812 104.592 308.06 105.04C308.316 105.48 308.444 105.98 308.444 106.54C308.444 107.1 308.316 107.604 308.06 108.052C307.812 108.492 307.464 108.84 307.016 109.096C306.568 109.344 306.06 109.468 305.492 109.468H303.884V112H302.204V103.6ZM305.492 107.788C305.884 107.788 306.192 107.672 306.416 107.44C306.648 107.208 306.764 106.908 306.764 106.54C306.764 106.164 306.648 105.86 306.416 105.628C306.192 105.396 305.884 105.28 305.492 105.28H303.884V107.788H305.492Z" fill="black"/>
<path d="M311.622 103.6H317.046V105.28H313.302V106.96H317.046V108.64H313.302V110.32H317.046V112H311.622V103.6Z" fill="black"/>
</g>
</svg>
