<svg width="1920" height="756" viewBox="0 0 1920 756" fill="none" xmlns="http://www.w3.org/2000/svg">
<rect width="1920" height="756" fill="white"/>
<g opacity="0.3">
<path d="M240.781 189.717C240.997 190.234 241.285 190.678 241.67 191.063C242.042 191.447 242.487 191.735 243.003 191.952C243.52 192.168 244.072 192.264 244.673 192.264C245.31 192.264 245.886 192.168 246.415 191.964C246.943 191.759 247.424 191.459 247.844 191.075L247.015 189.513C246.355 190.234 245.574 190.582 244.649 190.582C244.288 190.582 243.952 190.522 243.652 190.402C243.352 190.27 243.087 190.102 242.859 189.886C242.631 189.657 242.463 189.393 242.33 189.093C242.21 188.78 242.15 188.444 242.15 188.06C242.15 187.699 242.21 187.351 242.33 187.039C242.463 186.726 242.631 186.462 242.859 186.246C243.087 186.017 243.352 185.849 243.652 185.729C243.964 185.597 244.3 185.537 244.673 185.537C245.129 185.537 245.538 185.621 245.898 185.801C246.259 185.969 246.595 186.21 246.907 186.534L247.712 184.996C247.304 184.624 246.847 184.336 246.331 184.144C245.814 183.951 245.274 183.855 244.685 183.855C244.084 183.855 243.532 183.963 243.015 184.18C242.499 184.384 242.054 184.684 241.67 185.056C241.297 185.429 240.997 185.873 240.781 186.39C240.577 186.894 240.469 187.447 240.469 188.048C240.469 188.648 240.577 189.213 240.781 189.717Z" fill="#12183D"/>
<path d="M250.553 188.048C250.553 188.648 250.661 189.201 250.877 189.717C251.081 190.234 251.382 190.678 251.754 191.051C252.127 191.423 252.571 191.723 253.088 191.928C253.604 192.144 254.157 192.252 254.757 192.252C255.358 192.252 255.911 192.144 256.427 191.928C256.944 191.723 257.388 191.423 257.76 191.051C258.133 190.678 258.433 190.234 258.649 189.717C258.854 189.201 258.962 188.648 258.962 188.048C258.962 187.447 258.854 186.894 258.649 186.378C258.433 185.861 258.133 185.417 257.76 185.044C257.388 184.672 256.944 184.372 256.427 184.156C255.911 183.951 255.358 183.843 254.757 183.843C254.157 183.843 253.604 183.951 253.088 184.156C252.571 184.372 252.127 184.672 251.754 185.044C251.382 185.417 251.081 185.861 250.877 186.378C250.661 186.894 250.553 187.447 250.553 188.048ZM257.28 188.048C257.28 188.42 257.22 188.756 257.1 189.057C256.968 189.369 256.799 189.633 256.571 189.861C256.343 190.09 256.079 190.258 255.778 190.378C255.466 190.51 255.13 190.57 254.757 190.57C254.385 190.57 254.049 190.51 253.748 190.378C253.436 190.258 253.172 190.09 252.943 189.861C252.715 189.633 252.547 189.369 252.427 189.057C252.295 188.756 252.235 188.42 252.235 188.048C252.235 187.675 252.295 187.339 252.427 187.027C252.547 186.726 252.715 186.462 252.943 186.234C253.172 186.005 253.436 185.837 253.748 185.705C254.049 185.585 254.385 185.525 254.757 185.525C255.13 185.525 255.466 185.585 255.778 185.705C256.079 185.837 256.343 186.005 256.571 186.234C256.799 186.462 256.968 186.726 257.1 187.027C257.22 187.339 257.28 187.675 257.28 188.048Z" fill="#12183D"/>
<path d="M263.984 183.843H262.302V192.252H267.804V190.57H263.984V183.843Z" fill="#12183D"/>
<path d="M270.37 188.048C270.37 188.648 270.479 189.201 270.695 189.717C270.899 190.234 271.199 190.678 271.572 191.051C271.944 191.423 272.389 191.723 272.905 191.928C273.422 192.144 273.974 192.252 274.575 192.252C275.175 192.252 275.728 192.144 276.245 191.928C276.761 191.723 277.206 191.423 277.578 191.051C277.95 190.678 278.251 190.234 278.467 189.717C278.671 189.201 278.779 188.648 278.779 188.048C278.779 187.447 278.671 186.894 278.467 186.378C278.251 185.861 277.95 185.417 277.578 185.044C277.206 184.672 276.761 184.372 276.245 184.156C275.728 183.951 275.175 183.843 274.575 183.843C273.974 183.843 273.422 183.951 272.905 184.156C272.389 184.372 271.944 184.672 271.572 185.044C271.199 185.417 270.899 185.861 270.695 186.378C270.479 186.894 270.37 187.447 270.37 188.048ZM277.097 188.048C277.097 188.42 277.037 188.756 276.917 189.057C276.785 189.369 276.617 189.633 276.389 189.861C276.16 190.09 275.896 190.258 275.596 190.378C275.284 190.51 274.947 190.57 274.575 190.57C274.202 190.57 273.866 190.51 273.566 190.378C273.253 190.258 272.989 190.09 272.761 189.861C272.533 189.633 272.365 189.369 272.244 189.057C272.112 188.756 272.052 188.42 272.052 188.048C272.052 187.675 272.112 187.339 272.244 187.027C272.365 186.726 272.533 186.462 272.761 186.234C272.989 186.005 273.253 185.837 273.566 185.705C273.866 185.585 274.202 185.525 274.575 185.525C274.947 185.525 275.284 185.585 275.596 185.705C275.896 185.837 276.16 186.005 276.389 186.234C276.617 186.462 276.785 186.726 276.917 187.027C277.037 187.339 277.097 187.675 277.097 188.048Z" fill="#12183D"/>
<path d="M283.945 192.24V189.429H284.99L286.792 192.24H288.834L286.852 189.249C287.117 189.153 287.357 189.021 287.573 188.852C287.789 188.684 287.982 188.492 288.138 188.264C288.294 188.036 288.414 187.783 288.51 187.507C288.594 187.231 288.63 186.942 288.63 186.63C288.63 186.246 288.57 185.873 288.426 185.537C288.282 185.201 288.09 184.9 287.849 184.648C287.597 184.396 287.297 184.204 286.96 184.059C286.612 183.915 286.24 183.843 285.843 183.843H282.264V192.24H283.945ZM286.66 187.423C286.468 187.639 286.192 187.747 285.843 187.747H283.945V185.513H285.843C286.192 185.513 286.468 185.633 286.66 185.849C286.864 186.066 286.96 186.33 286.96 186.63C286.96 186.942 286.864 187.195 286.66 187.423Z" fill="#12183D"/>
<path d="M291.705 186.258C291.705 186.654 291.777 187.003 291.909 187.279C292.041 187.555 292.221 187.795 292.438 187.988C292.654 188.18 292.894 188.336 293.17 188.456C293.435 188.588 293.699 188.684 293.963 188.768C294.168 188.828 294.372 188.888 294.552 188.949C294.732 189.009 294.888 189.069 295.02 189.141C295.153 189.225 295.261 189.309 295.345 189.417C295.417 189.525 295.453 189.657 295.453 189.813C295.453 190.042 295.369 190.234 295.189 190.366C295.008 190.498 294.756 190.57 294.432 190.57C293.723 190.57 293.279 190.21 293.11 189.477L291.609 190.126C291.693 190.498 291.825 190.822 292.005 191.087C292.185 191.363 292.402 191.579 292.654 191.747C292.906 191.928 293.182 192.048 293.483 192.132C293.783 192.216 294.095 192.252 294.42 192.252C294.804 192.252 295.165 192.192 295.501 192.084C295.825 191.976 296.114 191.82 296.354 191.615C296.594 191.411 296.786 191.159 296.93 190.859C297.063 190.558 297.135 190.21 297.135 189.813C297.135 189.417 297.075 189.093 296.954 188.816C296.822 188.54 296.666 188.312 296.462 188.12C296.258 187.939 296.017 187.783 295.753 187.651C295.489 187.531 295.213 187.423 294.924 187.327C294.696 187.255 294.492 187.183 294.312 187.123C294.119 187.063 293.951 186.99 293.819 186.906C293.687 186.834 293.579 186.75 293.507 186.642C293.423 186.546 293.387 186.426 293.387 186.27C293.387 186.066 293.471 185.885 293.639 185.741C293.807 185.597 294.059 185.525 294.408 185.525C294.744 185.525 295.02 185.609 295.237 185.765C295.453 185.921 295.609 186.198 295.693 186.582L297.219 185.969C297.063 185.273 296.738 184.744 296.246 184.384C295.741 184.023 295.129 183.843 294.42 183.843C294.035 183.843 293.675 183.891 293.351 183.999C293.014 184.107 292.726 184.276 292.486 184.48C292.233 184.684 292.041 184.936 291.909 185.237C291.777 185.537 291.705 185.873 291.705 186.258Z" fill="#12183D"/>
<path d="M308.477 189.249L309.907 186.15L311.336 189.249H308.477ZM312.117 190.931L312.73 192.252H314.58L310.688 183.843H309.126L305.234 192.252H307.084L307.697 190.931H312.117Z" fill="#12183D"/>
<path d="M325.195 183.843H323.513V189.369L318.972 183.843H317.507V192.252H319.188V186.726L323.729 192.252H325.195V183.843Z" fill="#12183D"/>
<path d="M331.981 183.843H328.93V192.252H331.981C332.57 192.252 333.122 192.144 333.627 191.928C334.131 191.723 334.564 191.423 334.936 191.051C335.297 190.678 335.585 190.246 335.789 189.729C335.993 189.213 336.101 188.66 336.101 188.048C336.101 187.435 335.993 186.882 335.789 186.366C335.585 185.849 335.297 185.405 334.936 185.032C334.564 184.66 334.131 184.372 333.627 184.156C333.122 183.951 332.57 183.843 331.981 183.843ZM334.42 188.048C334.42 188.408 334.36 188.744 334.239 189.045C334.119 189.357 333.951 189.621 333.747 189.849C333.531 190.078 333.278 190.246 332.978 190.378C332.678 190.51 332.341 190.57 331.981 190.57H330.612V185.525H331.981C332.341 185.525 332.678 185.585 332.978 185.717C333.278 185.849 333.531 186.017 333.747 186.246C333.951 186.474 334.119 186.738 334.239 187.039C334.36 187.351 334.42 187.687 334.42 188.048Z" fill="#12183D"/>
<path d="M348.745 185.525H351.784V183.843H344.024V185.525H347.063V192.252H348.745V185.525Z" fill="#12183D"/>
<path d="M357.273 192.252H358.954V188.997L362.39 183.843H360.36L358.114 187.207L355.867 183.843H353.837L357.273 188.997V192.252Z" fill="#12183D"/>
<path d="M368.56 183.843H365.269V192.252H366.95V189.717H368.56C368.992 189.717 369.389 189.645 369.749 189.489C370.11 189.345 370.422 189.141 370.686 188.876C370.938 188.624 371.143 188.312 371.299 187.951C371.443 187.603 371.515 187.207 371.515 186.786C371.515 186.366 371.443 185.969 371.299 185.609C371.143 185.249 370.938 184.936 370.686 184.672C370.422 184.42 370.11 184.216 369.749 184.059C369.389 183.915 368.992 183.843 368.56 183.843ZM369.833 186.786C369.833 187.147 369.725 187.447 369.509 187.675C369.281 187.915 368.968 188.036 368.56 188.036H366.95V185.525H368.56C368.968 185.525 369.281 185.645 369.509 185.873C369.725 186.114 369.833 186.414 369.833 186.786Z" fill="#12183D"/>
<path d="M374.264 188.048C374.264 188.648 374.372 189.201 374.588 189.717C374.792 190.234 375.093 190.678 375.465 191.051C375.837 191.423 376.282 191.723 376.798 191.928C377.315 192.144 377.868 192.252 378.468 192.252C379.069 192.252 379.621 192.144 380.138 191.928C380.655 191.723 381.099 191.423 381.471 191.051C381.844 190.678 382.144 190.234 382.36 189.717C382.564 189.201 382.673 188.648 382.673 188.048C382.673 187.447 382.564 186.894 382.36 186.378C382.144 185.861 381.844 185.417 381.471 185.044C381.099 184.672 380.655 184.372 380.138 184.156C379.621 183.951 379.069 183.843 378.468 183.843C377.868 183.843 377.315 183.951 376.798 184.156C376.282 184.372 375.837 184.672 375.465 185.044C375.093 185.417 374.792 185.861 374.588 186.378C374.372 186.894 374.264 187.447 374.264 188.048ZM380.991 188.048C380.991 188.42 380.931 188.756 380.811 189.057C380.679 189.369 380.51 189.633 380.282 189.861C380.054 190.09 379.79 190.258 379.489 190.378C379.177 190.51 378.841 190.57 378.468 190.57C378.096 190.57 377.759 190.51 377.459 190.378C377.147 190.258 376.883 190.09 376.654 189.861C376.426 189.633 376.258 189.369 376.138 189.057C376.006 188.756 375.946 188.42 375.946 188.048C375.946 187.675 376.006 187.339 376.138 187.027C376.258 186.726 376.426 186.462 376.654 186.234C376.883 186.005 377.147 185.837 377.459 185.705C377.759 185.585 378.096 185.525 378.468 185.525C378.841 185.525 379.177 185.585 379.489 185.705C379.79 185.837 380.054 186.005 380.282 186.234C380.51 186.462 380.679 186.726 380.811 187.027C380.931 187.339 380.991 187.675 380.991 188.048Z" fill="#12183D"/>
<path d="M385.893 189.693C386.109 190.21 386.397 190.642 386.77 191.015C387.154 191.387 387.598 191.687 388.127 191.892C388.656 192.096 389.232 192.204 389.857 192.204C390.409 192.204 390.926 192.108 391.406 191.928C391.887 191.747 392.319 191.471 392.68 191.111C393.04 190.75 393.316 190.306 393.533 189.777C393.737 189.249 393.845 188.636 393.845 187.951V187.399H389.544V189.081H391.911C391.863 189.321 391.767 189.525 391.623 189.717C391.478 189.898 391.322 190.054 391.13 190.174C390.938 190.294 390.734 190.378 390.505 190.438C390.277 190.498 390.049 190.534 389.821 190.534C389.436 190.534 389.088 190.474 388.776 190.342C388.463 190.222 388.199 190.054 387.971 189.825C387.755 189.609 387.574 189.345 387.454 189.033C387.334 188.72 387.262 188.372 387.262 188C387.262 187.627 387.334 187.291 387.454 186.978C387.574 186.666 387.755 186.402 387.971 186.174C388.187 185.957 388.451 185.789 388.764 185.657C389.076 185.537 389.412 185.477 389.773 185.477C390.229 185.477 390.662 185.561 391.058 185.729C391.454 185.909 391.815 186.174 392.139 186.546L392.956 184.984C392.536 184.576 392.055 184.276 391.527 184.083C390.998 183.891 390.433 183.795 389.857 183.795C389.22 183.795 388.644 183.891 388.115 184.107C387.586 184.324 387.142 184.612 386.758 184.996C386.385 185.369 386.097 185.813 385.893 186.33C385.688 186.834 385.58 187.399 385.58 188.012C385.58 188.612 385.688 189.177 385.893 189.693Z" fill="#12183D"/>
<path d="M398.815 192.24V189.429H399.86L401.662 192.24H403.704L401.722 189.249C401.986 189.153 402.226 189.021 402.443 188.852C402.659 188.684 402.851 188.492 403.007 188.264C403.163 188.036 403.284 187.783 403.38 187.507C403.464 187.231 403.5 186.942 403.5 186.63C403.5 186.246 403.44 185.873 403.296 185.537C403.151 185.201 402.959 184.9 402.719 184.648C402.467 184.396 402.166 184.204 401.83 184.059C401.482 183.915 401.109 183.843 400.713 183.843H397.133V192.24H398.815ZM401.53 187.423C401.338 187.639 401.061 187.747 400.713 187.747H398.815V185.513H400.713C401.061 185.513 401.338 185.633 401.53 185.849C401.734 186.066 401.83 186.33 401.83 186.63C401.83 186.942 401.734 187.195 401.53 187.423Z" fill="#12183D"/>
<path d="M409.289 189.249L410.719 186.15L412.148 189.249H409.289ZM412.929 190.931L413.542 192.252H415.392L411.5 183.843H409.938L406.046 192.252H407.896L408.509 190.931H412.929Z" fill="#12183D"/>
<path d="M421.658 183.843H418.367V192.252H420.049V189.717H421.658C422.091 189.717 422.487 189.645 422.847 189.489C423.208 189.345 423.52 189.141 423.784 188.876C424.037 188.624 424.241 188.312 424.397 187.951C424.541 187.603 424.613 187.207 424.613 186.786C424.613 186.366 424.541 185.969 424.397 185.609C424.241 185.249 424.037 184.936 423.784 184.672C423.52 184.42 423.208 184.216 422.847 184.059C422.487 183.915 422.091 183.843 421.658 183.843ZM422.932 186.786C422.932 187.147 422.823 187.447 422.607 187.675C422.379 187.915 422.067 188.036 421.658 188.036H420.049V185.525H421.658C422.067 185.525 422.379 185.645 422.607 185.873C422.823 186.114 422.932 186.414 422.932 186.786Z" fill="#12183D"/>
<path d="M434.846 183.843H433.164V187.207H429.476V183.843H427.795V192.252H429.476V188.888H433.164V192.252H434.846V183.843Z" fill="#12183D"/>
<path d="M441.153 192.252H442.835V188.997L446.27 183.843H444.24L441.994 187.207L439.748 183.843H437.717L441.153 188.997V192.252Z" fill="#12183D"/>
</g>
<line x1="240" y1="159.5" x2="1680" y2="159.5" stroke="#B8BAC5"/>
<g clip-path="url(#clip0)">
<rect opacity="0.5" x="240.25" y="425.25" width="720.5" height="150.5" fill="white" stroke="#B8BAC5" stroke-width="0.5"/>
<path d="M284.481 499.931L284.252 501.528H282.943L283.183 499.931H284.481ZM284.084 502.646L283.736 505H284.865L285.213 502.646H286.391L286.559 501.528H285.382L285.622 499.931H286.787L286.955 498.814H285.79L286.114 496.591H284.973L284.649 498.814H283.351L283.676 496.591H282.535L282.21 498.814H280.925L280.757 499.931H282.042L281.814 501.528H280.529L280.36 502.646H281.646L281.297 505H282.427L282.775 502.646H284.084Z" fill="#1D1D1F"/>
<path d="M295.641 496.591H290.211V505H291.893V501.637H295.641V499.955H291.893V498.273H295.641V496.591Z" fill="#1D1D1F"/>
<path d="M304.353 496.591H298.923V505H300.605V501.637H304.353V499.955H300.605V498.273H304.353V496.591Z" fill="#1D1D1F"/>
<path d="M313.065 496.591H307.636V505H309.317V501.637H313.065V499.955H309.317V498.273H313.065V496.591Z" fill="#1D1D1F"/>
<path d="M321.777 496.591H316.348V505H318.029V501.637H321.777V499.955H318.029V498.273H321.777V496.591Z" fill="#1D1D1F"/>
<path d="M330.49 496.591H325.06V505H326.742V501.637H330.49V499.955H326.742V498.273H330.49V496.591Z" fill="#1D1D1F"/>
<path d="M339.202 496.591H333.772V505H335.454V501.637H339.202V499.955H335.454V498.273H339.202V496.591Z" fill="#1D1D1F"/>
</g>
<g clip-path="url(#clip1)">
<rect x="240" y="276" width="720" height="150" fill="#1D1D1F"/>
<path d="M282.775 352.646L282.427 355H281.297L281.646 352.646H280.36L280.529 351.528H281.814L282.042 349.931H280.757L280.925 348.814H282.21L282.535 346.591H283.676L283.339 348.814H284.649L284.973 346.591H286.114L285.778 348.814H286.955L286.787 349.931H285.622L285.382 351.528H286.559L286.391 352.646H285.213L284.865 355H283.736L284.084 352.646H282.775ZM283.183 349.931L282.943 351.528H284.252L284.481 349.931H283.183Z" fill="white"/>
<path d="M294.019 355H292.337V349.198L290.74 350.772L289.574 349.558L292.602 346.591H294.019V355Z" fill="white"/>
<path d="M298.09 346.591H301.142C301.926 346.591 302.631 346.775 303.256 347.144C303.88 347.504 304.369 348.005 304.721 348.645C305.082 349.278 305.262 349.995 305.262 350.796C305.262 351.596 305.082 352.317 304.721 352.958C304.369 353.591 303.88 354.091 303.256 354.459C302.631 354.82 301.926 355 301.142 355H298.09V346.591ZM301.142 353.318C301.614 353.318 302.035 353.21 302.403 352.994C302.771 352.778 303.06 352.477 303.268 352.093C303.476 351.709 303.58 351.276 303.58 350.796C303.58 350.315 303.476 349.883 303.268 349.498C303.06 349.114 302.771 348.814 302.403 348.597C302.035 348.381 301.614 348.273 301.142 348.273H299.772V353.318H301.142Z" fill="white"/>
<path d="M312.37 355H310.688V349.198L309.091 350.772L307.926 349.558L310.953 346.591H312.37V355Z" fill="white"/>
<path d="M316.442 346.591H319.493C320.278 346.591 320.982 346.775 321.607 347.144C322.232 347.504 322.72 348.005 323.072 348.645C323.433 349.278 323.613 349.995 323.613 350.796C323.613 351.596 323.433 352.317 323.072 352.958C322.72 353.591 322.232 354.091 321.607 354.459C320.982 354.82 320.278 355 319.493 355H316.442V346.591ZM319.493 353.318C319.965 353.318 320.386 353.21 320.754 352.994C321.122 352.778 321.411 352.477 321.619 352.093C321.827 351.709 321.931 351.276 321.931 350.796C321.931 350.315 321.827 349.883 321.619 349.498C321.411 349.114 321.122 348.814 320.754 348.597C320.386 348.381 319.965 348.273 319.493 348.273H318.123V353.318H319.493Z" fill="white"/>
<path d="M330.721 355H329.04V349.198L327.442 350.772L326.277 349.558L329.304 346.591H330.721V355Z" fill="white"/>
<path d="M334.793 346.591H340.222V348.273H336.474V349.955H340.222V351.637H336.474V355H334.793V346.591Z" fill="white"/>
</g>
<g clip-path="url(#clip2)">
<rect x="960" y="276" width="360" height="100" fill="#0B5656"/>
<path d="M1218.81 327.646L1218.47 330H1217.34L1217.69 327.646H1216.4L1216.57 326.528H1217.85L1218.08 324.931H1216.8L1216.96 323.814H1218.25L1218.57 321.591H1219.72L1219.38 323.814H1220.69L1221.01 321.591H1222.15L1221.82 323.814H1223L1222.83 324.931H1221.66L1221.42 326.528H1222.6L1222.43 327.646H1221.25L1220.91 330H1219.78L1220.12 327.646H1218.81ZM1219.22 324.931L1218.98 326.528H1220.29L1220.52 324.931H1219.22Z" fill="white"/>
<path d="M1230.02 330C1229.28 330 1228.6 329.824 1227.98 329.471C1227.37 329.119 1226.89 328.623 1226.54 327.982C1226.19 327.341 1226.01 326.612 1226.01 325.796C1226.01 324.979 1226.19 324.25 1226.54 323.609C1226.89 322.969 1227.37 322.472 1227.98 322.12C1228.6 321.767 1229.28 321.591 1230.02 321.591C1230.77 321.591 1231.44 321.767 1232.05 322.12C1232.67 322.472 1233.15 322.969 1233.51 323.609C1233.86 324.25 1234.04 324.979 1234.04 325.796C1234.04 326.612 1233.86 327.341 1233.51 327.982C1233.15 328.623 1232.67 329.119 1232.05 329.471C1231.44 329.824 1230.77 330 1230.02 330ZM1230.02 328.318C1230.47 328.318 1230.87 328.218 1231.22 328.018C1231.58 327.81 1231.85 327.513 1232.05 327.129C1232.25 326.745 1232.35 326.3 1232.35 325.796C1232.35 325.291 1232.25 324.847 1232.05 324.462C1231.85 324.078 1231.58 323.786 1231.22 323.585C1230.87 323.377 1230.47 323.273 1230.02 323.273C1229.57 323.273 1229.17 323.377 1228.82 323.585C1228.47 323.786 1228.19 324.078 1227.99 324.462C1227.79 324.847 1227.69 325.291 1227.69 325.796C1227.69 326.3 1227.79 326.745 1227.99 327.129C1228.19 327.513 1228.47 327.81 1228.82 328.018C1229.17 328.218 1229.57 328.318 1230.02 328.318Z" fill="white"/>
<path d="M1237.58 321.591H1241.16C1241.68 321.591 1242.13 321.695 1242.5 321.904C1242.88 322.104 1243.17 322.384 1243.37 322.744C1243.57 323.097 1243.67 323.501 1243.67 323.958C1243.67 324.39 1243.58 324.767 1243.39 325.087C1243.21 325.399 1242.95 325.635 1242.62 325.796C1242.95 325.964 1243.21 326.208 1243.39 326.528C1243.58 326.841 1243.67 327.209 1243.67 327.634C1243.67 328.09 1243.57 328.498 1243.37 328.859C1243.17 329.211 1242.88 329.491 1242.5 329.7C1242.13 329.9 1241.68 330 1241.16 330H1237.58V321.591ZM1241.12 324.955C1241.38 324.955 1241.59 324.875 1241.75 324.715C1241.91 324.554 1241.99 324.346 1241.99 324.09C1241.99 323.85 1241.91 323.653 1241.75 323.501C1241.6 323.349 1241.39 323.273 1241.12 323.273H1239.26V324.955H1241.12ZM1241.12 328.318C1241.39 328.318 1241.6 328.246 1241.75 328.102C1241.91 327.95 1241.99 327.75 1241.99 327.501C1241.99 327.237 1241.91 327.029 1241.75 326.877C1241.59 326.717 1241.38 326.637 1241.12 326.637H1239.26V328.318H1241.12Z" fill="white"/>
<path d="M1249.23 330C1248.79 330 1248.32 329.932 1247.84 329.796C1247.35 329.66 1246.93 329.475 1246.57 329.243L1247.28 327.73C1247.59 327.922 1247.91 328.07 1248.24 328.174C1248.59 328.27 1248.91 328.318 1249.22 328.318C1249.64 328.318 1249.98 328.214 1250.24 328.006C1250.5 327.79 1250.63 327.489 1250.63 327.105C1250.63 326.713 1250.49 326.416 1250.2 326.216C1249.91 326.008 1249.49 325.904 1248.94 325.904C1248.39 325.904 1247.78 325.992 1247.11 326.168V321.591H1252.33V323.273H1248.8V324.282C1248.83 324.282 1248.89 324.274 1248.98 324.258C1249.07 324.242 1249.17 324.234 1249.28 324.234C1250.23 324.234 1250.97 324.486 1251.51 324.991C1252.06 325.495 1252.33 326.188 1252.33 327.069C1252.33 327.678 1252.2 328.202 1251.93 328.643C1251.68 329.083 1251.31 329.419 1250.84 329.652C1250.37 329.884 1249.84 330 1249.23 330Z" fill="white"/>
<path d="M1258.35 330C1257.8 330 1257.31 329.892 1256.89 329.676C1256.47 329.451 1256.13 329.127 1255.88 328.703C1255.5 328.062 1255.31 327.205 1255.31 326.132C1255.31 325.187 1255.45 324.374 1255.72 323.693C1256 323.013 1256.41 322.492 1256.93 322.132C1257.46 321.771 1258.09 321.591 1258.82 321.591C1259.53 321.591 1260.21 321.763 1260.85 322.108L1260.19 323.633C1259.71 323.393 1259.22 323.273 1258.72 323.273C1258.28 323.273 1257.92 323.409 1257.62 323.681C1257.32 323.946 1257.15 324.294 1257.11 324.727C1257.32 324.606 1257.55 324.51 1257.79 324.438C1258.03 324.366 1258.25 324.33 1258.45 324.33C1258.98 324.33 1259.45 324.45 1259.87 324.69C1260.28 324.923 1260.61 325.251 1260.84 325.676C1261.07 326.1 1261.19 326.584 1261.19 327.129C1261.19 327.69 1261.07 328.186 1260.83 328.619C1260.59 329.051 1260.25 329.391 1259.82 329.64C1259.38 329.88 1258.9 330 1258.35 330ZM1258.29 328.318C1258.64 328.318 1258.93 328.21 1259.16 327.994C1259.39 327.778 1259.5 327.497 1259.5 327.153C1259.5 326.809 1259.39 326.532 1259.17 326.324C1258.94 326.116 1258.65 326.012 1258.29 326.012C1257.93 326.012 1257.63 326.12 1257.4 326.336C1257.18 326.544 1257.07 326.821 1257.07 327.165C1257.07 327.509 1257.18 327.79 1257.4 328.006C1257.63 328.214 1257.93 328.318 1258.29 328.318Z" fill="white"/>
<path d="M1266.51 330C1266.07 330 1265.61 329.932 1265.12 329.796C1264.64 329.66 1264.22 329.475 1263.86 329.243L1264.57 327.73C1264.87 327.922 1265.19 328.07 1265.53 328.174C1265.87 328.27 1266.2 328.318 1266.5 328.318C1266.92 328.318 1267.27 328.214 1267.52 328.006C1267.79 327.79 1267.92 327.489 1267.92 327.105C1267.92 326.713 1267.77 326.416 1267.49 326.216C1267.2 326.008 1266.78 325.904 1266.22 325.904C1265.67 325.904 1265.06 325.992 1264.4 326.168V321.591H1269.61V323.273H1266.08V324.282C1266.11 324.282 1266.17 324.274 1266.26 324.258C1266.36 324.242 1266.46 324.234 1266.56 324.234C1267.51 324.234 1268.26 324.486 1268.79 324.991C1269.34 325.495 1269.61 326.188 1269.61 327.069C1269.61 327.678 1269.48 328.202 1269.22 328.643C1268.96 329.083 1268.59 329.419 1268.12 329.652C1267.66 329.884 1267.12 330 1266.51 330Z" fill="white"/>
<path d="M1275.64 330C1275.08 330 1274.59 329.892 1274.17 329.676C1273.75 329.451 1273.42 329.127 1273.16 328.703C1272.78 328.062 1272.6 327.205 1272.6 326.132C1272.6 325.187 1272.73 324.374 1273 323.693C1273.28 323.013 1273.69 322.492 1274.22 322.132C1274.75 321.771 1275.37 321.591 1276.1 321.591C1276.82 321.591 1277.49 321.763 1278.13 322.108L1277.47 323.633C1276.99 323.393 1276.5 323.273 1276.01 323.273C1275.57 323.273 1275.2 323.409 1274.9 323.681C1274.61 323.946 1274.44 324.294 1274.4 324.727C1274.61 324.606 1274.83 324.51 1275.07 324.438C1275.31 324.366 1275.53 324.33 1275.73 324.33C1276.26 324.33 1276.73 324.45 1277.15 324.69C1277.57 324.923 1277.89 325.251 1278.12 325.676C1278.35 326.1 1278.47 326.584 1278.47 327.129C1278.47 327.69 1278.35 328.186 1278.11 328.619C1277.87 329.051 1277.53 329.391 1277.1 329.64C1276.67 329.88 1276.18 330 1275.64 330ZM1275.58 328.318C1275.93 328.318 1276.22 328.21 1276.44 327.994C1276.67 327.778 1276.79 327.497 1276.79 327.153C1276.79 326.809 1276.68 326.532 1276.45 326.324C1276.23 326.116 1275.94 326.012 1275.58 326.012C1275.21 326.012 1274.92 326.12 1274.69 326.336C1274.46 326.544 1274.35 326.821 1274.35 327.165C1274.35 327.509 1274.46 327.79 1274.69 328.006C1274.92 328.214 1275.21 328.318 1275.58 328.318Z" fill="white"/>
</g>
<g clip-path="url(#clip3)">
<rect x="960" y="376" width="360" height="100" fill="#E0F1EA"/>
<path d="M1218.06 427.646L1217.71 430H1216.58L1216.93 427.646H1215.64L1215.81 426.528H1217.09L1217.32 424.931H1216.04L1216.21 423.814H1217.49L1217.81 421.591H1218.96L1218.62 423.814H1219.93L1220.25 421.591H1221.39L1221.06 423.814H1222.24L1222.07 424.931H1220.9L1220.66 426.528H1221.84L1221.67 427.646H1220.49L1220.15 430H1219.02L1219.36 427.646H1218.06ZM1218.46 424.931L1218.22 426.528H1219.53L1219.76 424.931H1218.46Z" fill="#1D1D1F"/>
<path d="M1225.49 421.591H1230.92V423.273H1227.17V424.955H1230.92V426.637H1227.17V428.318H1230.92V430H1225.49V421.591Z" fill="#1D1D1F"/>
<path d="M1238.25 430C1237.5 430 1236.82 429.824 1236.2 429.471C1235.59 429.119 1235.11 428.623 1234.76 427.982C1234.41 427.341 1234.23 426.612 1234.23 425.796C1234.23 424.979 1234.41 424.25 1234.76 423.609C1235.11 422.969 1235.59 422.472 1236.2 422.12C1236.82 421.767 1237.5 421.591 1238.25 421.591C1238.99 421.591 1239.67 421.767 1240.28 422.12C1240.89 422.472 1241.38 422.969 1241.73 423.609C1242.08 424.25 1242.26 424.979 1242.26 425.796C1242.26 426.612 1242.08 427.341 1241.73 427.982C1241.38 428.623 1240.89 429.119 1240.28 429.471C1239.67 429.824 1238.99 430 1238.25 430ZM1238.25 428.318C1238.69 428.318 1239.09 428.218 1239.45 428.018C1239.8 427.81 1240.08 427.513 1240.28 427.129C1240.48 426.745 1240.58 426.3 1240.58 425.796C1240.58 425.291 1240.48 424.847 1240.28 424.462C1240.08 424.078 1239.8 423.786 1239.45 423.585C1239.09 423.377 1238.69 423.273 1238.25 423.273C1237.8 423.273 1237.4 423.377 1237.04 423.585C1236.69 423.786 1236.42 424.078 1236.22 424.462C1236.02 424.847 1235.91 425.291 1235.91 425.796C1235.91 426.3 1236.02 426.745 1236.22 427.129C1236.42 427.513 1236.69 427.81 1237.04 428.018C1237.4 428.218 1237.8 428.318 1238.25 428.318Z" fill="#1D1D1F"/>
<path d="M1245.8 421.591H1251.23V423.273H1247.48V424.955H1251.23V426.637H1247.48V430H1245.8V421.591Z" fill="#1D1D1F"/>
<path d="M1258.32 430H1256.64V424.198L1255.04 425.772L1253.88 424.558L1256.9 421.591H1258.32V430Z" fill="#1D1D1F"/>
<path d="M1262.39 421.591H1267.82V423.273H1264.07V424.955H1267.82V426.637H1264.07V428.318H1267.82V430H1262.39V421.591Z" fill="#1D1D1F"/>
<path d="M1277.45 428.667H1273.03L1272.42 430H1270.57L1274.46 421.591H1276.02L1279.92 430H1278.07L1277.45 428.667ZM1276.67 426.985L1275.24 423.898L1273.81 426.985H1276.67Z" fill="#1D1D1F"/>
</g>
<g clip-path="url(#clip4)">
<rect x="1320" y="476" width="360" height="100" fill="#E8EEF1"/>
<path d="M1579.03 527.646L1578.68 530H1577.55L1577.9 527.646H1576.61L1576.78 526.528H1578.07L1578.3 524.931H1577.01L1577.18 523.814H1578.46L1578.79 521.591H1579.93L1579.59 523.814H1580.9L1581.23 521.591H1582.37L1582.03 523.814H1583.21L1583.04 524.931H1581.88L1581.64 526.528H1582.81L1582.64 527.646H1581.47L1581.12 530H1579.99L1580.34 527.646H1579.03ZM1579.44 524.931L1579.2 526.528H1580.51L1580.73 524.931H1579.44Z" fill="#1D1D1F"/>
<path d="M1586.47 521.591H1591.89V523.273H1588.15V524.955H1591.89V526.637H1588.15V530H1586.47V521.591Z" fill="#1D1D1F"/>
<path d="M1595.18 521.591H1598.23C1599.01 521.591 1599.72 521.775 1600.34 522.144C1600.97 522.504 1601.46 523.005 1601.81 523.645C1602.17 524.278 1602.35 524.995 1602.35 525.796C1602.35 526.596 1602.17 527.317 1601.81 527.958C1601.46 528.591 1600.97 529.091 1600.34 529.459C1599.72 529.82 1599.01 530 1598.23 530H1595.18V521.591ZM1598.23 528.318C1598.7 528.318 1599.12 528.21 1599.49 527.994C1599.86 527.778 1600.15 527.477 1600.35 527.093C1600.56 526.709 1600.67 526.276 1600.67 525.796C1600.67 525.315 1600.56 524.883 1600.35 524.498C1600.15 524.114 1599.86 523.814 1599.49 523.597C1599.12 523.381 1598.7 523.273 1598.23 523.273H1596.86V528.318H1598.23Z" fill="#1D1D1F"/>
<path d="M1608.9 523.273H1605.2V521.591H1610.93V522.997L1607.27 530H1605.37L1608.9 523.273Z" fill="#1D1D1F"/>
<path d="M1616.57 530C1616.03 530 1615.55 529.904 1615.14 529.712C1614.72 529.52 1614.4 529.251 1614.16 528.907C1613.93 528.555 1613.82 528.15 1613.82 527.694C1613.82 526.821 1614.19 526.188 1614.93 525.796C1614.59 525.611 1614.32 525.355 1614.12 525.027C1613.92 524.69 1613.82 524.314 1613.82 523.898C1613.82 523.441 1613.93 523.041 1614.16 522.696C1614.4 522.344 1614.72 522.072 1615.14 521.88C1615.55 521.687 1616.03 521.591 1616.57 521.591C1617.1 521.591 1617.58 521.687 1618 521.88C1618.41 522.072 1618.74 522.34 1618.97 522.684C1619.2 523.029 1619.32 523.429 1619.32 523.886C1619.32 524.302 1619.22 524.678 1619.02 525.015C1618.82 525.343 1618.54 525.603 1618.19 525.796C1618.94 526.196 1619.32 526.829 1619.32 527.694C1619.32 528.15 1619.2 528.555 1618.97 528.907C1618.74 529.251 1618.41 529.52 1618 529.712C1617.58 529.904 1617.1 530 1616.57 530ZM1616.57 524.955C1616.88 524.955 1617.14 524.879 1617.34 524.727C1617.54 524.574 1617.64 524.366 1617.64 524.102C1617.64 523.854 1617.54 523.653 1617.34 523.501C1617.14 523.349 1616.89 523.273 1616.57 523.273C1616.25 523.273 1615.99 523.349 1615.79 523.501C1615.59 523.653 1615.5 523.854 1615.5 524.102C1615.5 524.366 1615.6 524.574 1615.8 524.727C1616 524.879 1616.25 524.955 1616.57 524.955ZM1616.57 528.318C1616.89 528.318 1617.14 528.242 1617.34 528.09C1617.54 527.938 1617.64 527.738 1617.64 527.489C1617.64 527.225 1617.54 527.017 1617.34 526.865C1617.14 526.713 1616.88 526.637 1616.57 526.637C1616.25 526.637 1616 526.713 1615.8 526.865C1615.6 527.017 1615.5 527.225 1615.5 527.489C1615.5 527.738 1615.59 527.938 1615.79 528.09C1615.99 528.242 1616.25 528.318 1616.57 528.318Z" fill="#1D1D1F"/>
<path d="M1622.36 522.949C1622.61 522.548 1622.99 522.224 1623.47 521.976C1623.97 521.719 1624.52 521.591 1625.11 521.591C1625.67 521.591 1626.17 521.687 1626.6 521.88C1627.03 522.072 1627.36 522.344 1627.6 522.696C1627.84 523.049 1627.96 523.457 1627.96 523.922C1627.96 524.362 1627.85 524.751 1627.63 525.087C1627.42 525.415 1627.13 525.651 1626.78 525.796C1627.14 525.932 1627.42 526.168 1627.63 526.504C1627.85 526.841 1627.96 527.229 1627.96 527.67C1627.96 528.39 1627.7 528.959 1627.17 529.375C1626.66 529.792 1625.97 530 1625.11 530C1624.51 530 1623.96 529.872 1623.46 529.616C1622.97 529.359 1622.59 529.023 1622.35 528.607L1623.5 527.357C1623.66 527.654 1623.88 527.89 1624.16 528.066C1624.44 528.234 1624.76 528.318 1625.12 528.318C1625.48 528.318 1625.76 528.246 1625.96 528.102C1626.17 527.95 1626.27 527.738 1626.27 527.465C1626.27 527.201 1626.17 526.997 1625.97 526.853C1625.77 526.701 1625.5 526.62 1625.16 526.612H1624.52V524.967H1625.16C1625.5 524.959 1625.77 524.883 1625.97 524.739C1626.17 524.586 1626.27 524.378 1626.27 524.114C1626.27 523.85 1626.17 523.645 1625.96 523.501C1625.75 523.349 1625.47 523.273 1625.12 523.273C1624.77 523.273 1624.45 523.361 1624.17 523.537C1623.89 523.705 1623.67 523.934 1623.5 524.222L1622.36 522.949Z" fill="#1D1D1F"/>
<path d="M1635.33 530C1634.59 530 1633.91 529.824 1633.29 529.471C1632.68 529.119 1632.2 528.623 1631.85 527.982C1631.5 527.341 1631.32 526.612 1631.32 525.796C1631.32 524.979 1631.5 524.25 1631.85 523.609C1632.2 522.969 1632.68 522.472 1633.29 522.12C1633.91 521.767 1634.59 521.591 1635.33 521.591C1636.08 521.591 1636.76 521.767 1637.36 522.12C1637.98 522.472 1638.47 522.969 1638.82 523.609C1639.17 524.25 1639.35 524.979 1639.35 525.796C1639.35 526.612 1639.17 527.341 1638.82 527.982C1638.47 528.623 1637.98 529.119 1637.36 529.471C1636.76 529.824 1636.08 530 1635.33 530ZM1635.33 528.318C1635.78 528.318 1636.18 528.218 1636.54 528.018C1636.89 527.81 1637.16 527.513 1637.36 527.129C1637.57 526.745 1637.67 526.3 1637.67 525.796C1637.67 525.291 1637.57 524.847 1637.36 524.462C1637.16 524.078 1636.89 523.786 1636.54 523.585C1636.18 523.377 1635.78 523.273 1635.33 523.273C1634.89 523.273 1634.49 523.377 1634.13 523.585C1633.78 523.786 1633.5 524.078 1633.3 524.462C1633.1 524.847 1633 525.291 1633 525.796C1633 526.3 1633.1 526.745 1633.3 527.129C1633.5 527.513 1633.78 527.81 1634.13 528.018C1634.49 528.218 1634.89 528.318 1635.33 528.318Z" fill="#1D1D1F"/>
</g>
<g clip-path="url(#clip5)">
<rect x="960" y="476" width="360" height="100" fill="#FD7830"/>
<path d="M1219.03 527.646L1218.68 530H1217.55L1217.9 527.646H1216.61L1216.78 526.528H1218.07L1218.3 524.931H1217.01L1217.18 523.814H1218.46L1218.79 521.591H1219.93L1219.59 523.814H1220.9L1221.23 521.591H1222.37L1222.03 523.814H1223.21L1223.04 524.931H1221.88L1221.64 526.528H1222.81L1222.64 527.646H1221.47L1221.12 530H1219.99L1220.34 527.646H1219.03ZM1219.44 524.931L1219.2 526.528H1220.51L1220.73 524.931H1219.44Z" fill="#1D1D1F"/>
<path d="M1226.47 521.591H1231.89V523.273H1228.15V524.955H1231.89V526.637H1228.15V530H1226.47V521.591Z" fill="#1D1D1F"/>
<path d="M1235.18 521.591H1238.23C1239.01 521.591 1239.72 521.775 1240.34 522.144C1240.97 522.504 1241.46 523.005 1241.81 523.645C1242.17 524.278 1242.35 524.995 1242.35 525.796C1242.35 526.596 1242.17 527.317 1241.81 527.958C1241.46 528.591 1240.97 529.091 1240.34 529.459C1239.72 529.82 1239.01 530 1238.23 530H1235.18V521.591ZM1238.23 528.318C1238.7 528.318 1239.12 528.21 1239.49 527.994C1239.86 527.778 1240.15 527.477 1240.35 527.093C1240.56 526.709 1240.67 526.276 1240.67 525.796C1240.67 525.315 1240.56 524.883 1240.35 524.498C1240.15 524.114 1239.86 523.814 1239.49 523.597C1239.12 523.381 1238.7 523.273 1238.23 523.273H1236.86V528.318H1238.23Z" fill="#1D1D1F"/>
<path d="M1248.9 523.273H1245.2V521.591H1250.93V522.997L1247.27 530H1245.37L1248.9 523.273Z" fill="#1D1D1F"/>
<path d="M1256.57 530C1256.03 530 1255.55 529.904 1255.14 529.712C1254.72 529.52 1254.4 529.251 1254.16 528.907C1253.93 528.555 1253.82 528.15 1253.82 527.694C1253.82 526.821 1254.19 526.188 1254.93 525.796C1254.59 525.611 1254.32 525.355 1254.12 525.027C1253.92 524.69 1253.82 524.314 1253.82 523.898C1253.82 523.441 1253.93 523.041 1254.16 522.696C1254.4 522.344 1254.72 522.072 1255.14 521.88C1255.55 521.687 1256.03 521.591 1256.57 521.591C1257.1 521.591 1257.58 521.687 1258 521.88C1258.41 522.072 1258.74 522.34 1258.97 522.684C1259.2 523.029 1259.32 523.429 1259.32 523.886C1259.32 524.302 1259.22 524.678 1259.02 525.015C1258.82 525.343 1258.54 525.603 1258.19 525.796C1258.94 526.196 1259.32 526.829 1259.32 527.694C1259.32 528.15 1259.2 528.555 1258.97 528.907C1258.74 529.251 1258.41 529.52 1258 529.712C1257.58 529.904 1257.1 530 1256.57 530ZM1256.57 524.955C1256.88 524.955 1257.14 524.879 1257.34 524.727C1257.54 524.574 1257.64 524.366 1257.64 524.102C1257.64 523.854 1257.54 523.653 1257.34 523.501C1257.14 523.349 1256.89 523.273 1256.57 523.273C1256.25 523.273 1255.99 523.349 1255.79 523.501C1255.59 523.653 1255.5 523.854 1255.5 524.102C1255.5 524.366 1255.6 524.574 1255.8 524.727C1256 524.879 1256.25 524.955 1256.57 524.955ZM1256.57 528.318C1256.89 528.318 1257.14 528.242 1257.34 528.09C1257.54 527.938 1257.64 527.738 1257.64 527.489C1257.64 527.225 1257.54 527.017 1257.34 526.865C1257.14 526.713 1256.88 526.637 1256.57 526.637C1256.25 526.637 1256 526.713 1255.8 526.865C1255.6 527.017 1255.5 527.225 1255.5 527.489C1255.5 527.738 1255.59 527.938 1255.79 528.09C1255.99 528.242 1256.25 528.318 1256.57 528.318Z" fill="#1D1D1F"/>
<path d="M1262.36 522.949C1262.61 522.548 1262.99 522.224 1263.47 521.976C1263.97 521.719 1264.52 521.591 1265.11 521.591C1265.67 521.591 1266.17 521.687 1266.6 521.88C1267.03 522.072 1267.36 522.344 1267.6 522.696C1267.84 523.049 1267.96 523.457 1267.96 523.922C1267.96 524.362 1267.85 524.751 1267.63 525.087C1267.42 525.415 1267.13 525.651 1266.78 525.796C1267.14 525.932 1267.42 526.168 1267.63 526.504C1267.85 526.841 1267.96 527.229 1267.96 527.67C1267.96 528.39 1267.7 528.959 1267.17 529.375C1266.66 529.792 1265.97 530 1265.11 530C1264.51 530 1263.96 529.872 1263.46 529.616C1262.97 529.359 1262.59 529.023 1262.35 528.607L1263.5 527.357C1263.66 527.654 1263.88 527.89 1264.16 528.066C1264.44 528.234 1264.76 528.318 1265.12 528.318C1265.48 528.318 1265.76 528.246 1265.96 528.102C1266.17 527.95 1266.27 527.738 1266.27 527.465C1266.27 527.201 1266.17 526.997 1265.97 526.853C1265.77 526.701 1265.5 526.62 1265.16 526.612H1264.52V524.967H1265.16C1265.5 524.959 1265.77 524.883 1265.97 524.739C1266.17 524.586 1266.27 524.378 1266.27 524.114C1266.27 523.85 1266.17 523.645 1265.96 523.501C1265.75 523.349 1265.47 523.273 1265.12 523.273C1264.77 523.273 1264.45 523.361 1264.17 523.537C1263.89 523.705 1263.67 523.934 1263.5 524.222L1262.36 522.949Z" fill="#1D1D1F"/>
<path d="M1275.33 530C1274.59 530 1273.91 529.824 1273.29 529.471C1272.68 529.119 1272.2 528.623 1271.85 527.982C1271.5 527.341 1271.32 526.612 1271.32 525.796C1271.32 524.979 1271.5 524.25 1271.85 523.609C1272.2 522.969 1272.68 522.472 1273.29 522.12C1273.91 521.767 1274.59 521.591 1275.33 521.591C1276.08 521.591 1276.76 521.767 1277.36 522.12C1277.98 522.472 1278.47 522.969 1278.82 523.609C1279.17 524.25 1279.35 524.979 1279.35 525.796C1279.35 526.612 1279.17 527.341 1278.82 527.982C1278.47 528.623 1277.98 529.119 1277.36 529.471C1276.76 529.824 1276.08 530 1275.33 530ZM1275.33 528.318C1275.78 528.318 1276.18 528.218 1276.54 528.018C1276.89 527.81 1277.16 527.513 1277.36 527.129C1277.57 526.745 1277.67 526.3 1277.67 525.796C1277.67 525.291 1277.57 524.847 1277.36 524.462C1277.16 524.078 1276.89 523.786 1276.54 523.585C1276.18 523.377 1275.78 523.273 1275.33 523.273C1274.89 523.273 1274.49 523.377 1274.13 523.585C1273.78 523.786 1273.5 524.078 1273.3 524.462C1273.1 524.847 1273 525.291 1273 525.796C1273 526.3 1273.1 526.745 1273.3 527.129C1273.5 527.513 1273.78 527.81 1274.13 528.018C1274.49 528.218 1274.89 528.318 1275.33 528.318Z" fill="#1D1D1F"/>
</g>
<g clip-path="url(#clip6)">
<rect x="1320" y="376" width="360" height="100" fill="#FED7C1"/>
<path d="M1578.88 427.646L1578.53 430H1577.4L1577.75 427.646H1576.47L1576.64 426.528H1577.92L1578.15 424.931H1576.86L1577.03 423.814H1578.32L1578.64 421.591H1579.78L1579.45 423.814H1580.76L1581.08 421.591H1582.22L1581.89 423.814H1583.06L1582.89 424.931H1581.73L1581.49 426.528H1582.67L1582.5 427.646H1581.32L1580.97 430H1579.84L1580.19 427.646H1578.88ZM1579.29 424.931L1579.05 426.528H1580.36L1580.59 424.931H1579.29Z" fill="#1D1D1F"/>
<path d="M1586.32 421.591H1591.75V423.273H1588V424.955H1591.75V426.637H1588V430H1586.32V421.591Z" fill="#1D1D1F"/>
<path d="M1595.03 421.591H1600.46V423.273H1596.71V424.955H1600.46V426.637H1596.71V428.318H1600.46V430H1595.03V421.591Z" fill="#1D1D1F"/>
<path d="M1604.01 421.591H1607.06C1607.85 421.591 1608.55 421.775 1609.18 422.144C1609.8 422.504 1610.29 423.005 1610.64 423.645C1611 424.278 1611.18 424.995 1611.18 425.796C1611.18 426.596 1611 427.317 1610.64 427.958C1610.29 428.591 1609.8 429.091 1609.18 429.459C1608.55 429.82 1607.85 430 1607.06 430H1604.01V421.591ZM1607.06 428.318C1607.54 428.318 1607.96 428.21 1608.33 427.994C1608.69 427.778 1608.98 427.477 1609.19 427.093C1609.4 426.709 1609.5 426.276 1609.5 425.796C1609.5 425.315 1609.4 424.883 1609.19 424.498C1608.98 424.114 1608.69 423.814 1608.33 423.597C1607.96 423.381 1607.54 423.273 1607.06 423.273H1605.69V428.318H1607.06Z" fill="#1D1D1F"/>
<path d="M1617.74 423.273H1614.04V421.591H1619.77V422.997L1616.11 430H1614.21L1617.74 423.273Z" fill="#1D1D1F"/>
<path d="M1622.63 425.784C1622.63 424.999 1622.81 424.286 1623.18 423.645C1623.55 423.005 1624.05 422.504 1624.69 422.144C1625.33 421.775 1626.05 421.591 1626.84 421.591C1627.43 421.591 1627.97 421.691 1628.49 421.892C1629.01 422.084 1629.47 422.364 1629.87 422.732L1629.06 424.27C1628.74 423.942 1628.4 423.693 1628.03 423.525C1627.67 423.357 1627.27 423.273 1626.83 423.273C1626.35 423.273 1625.92 423.381 1625.53 423.597C1625.15 423.806 1624.85 424.102 1624.63 424.486C1624.42 424.871 1624.31 425.307 1624.31 425.796C1624.31 426.284 1624.42 426.721 1624.63 427.105C1624.85 427.489 1625.14 427.79 1625.52 428.006C1625.9 428.214 1626.33 428.318 1626.81 428.318C1627.73 428.318 1628.52 427.962 1629.17 427.249L1630 428.811C1629.14 429.604 1628.08 430 1626.83 430C1626.04 430 1625.33 429.816 1624.69 429.447C1624.05 429.079 1623.55 428.575 1623.18 427.934C1622.81 427.293 1622.63 426.576 1622.63 425.784Z" fill="#1D1D1F"/>
<path d="M1636.82 430H1635.14V424.198L1633.54 425.772L1632.38 424.558L1635.4 421.591H1636.82V430Z" fill="#1D1D1F"/>
</g>
<g clip-path="url(#clip7)">
<rect x="1320" y="276" width="360" height="100" fill="#E2EEFA"/>
<path d="M1578.78 327.646L1578.43 330H1577.3L1577.65 327.646H1576.36L1576.53 326.528H1577.82L1578.05 324.931H1576.76L1576.93 323.814H1578.21L1578.54 321.591H1579.68L1579.34 323.814H1580.65L1580.98 321.591H1582.12L1581.78 323.814H1582.96L1582.79 324.931H1581.63L1581.39 326.528H1582.56L1582.4 327.646H1581.22L1580.87 330H1579.74L1580.09 327.646H1578.78ZM1579.19 324.931L1578.95 326.528H1580.26L1580.49 324.931H1579.19Z" fill="#1D1D1F"/>
<path d="M1586.22 321.591H1591.65V323.273H1587.9V324.955H1591.65V326.637H1587.9V328.318H1591.65V330H1586.22V321.591Z" fill="#1D1D1F"/>
<path d="M1594.69 323.405C1595.01 322.853 1595.42 322.412 1595.93 322.084C1596.45 321.755 1597.03 321.591 1597.66 321.591C1598.21 321.591 1598.7 321.703 1599.13 321.928C1599.55 322.152 1599.88 322.468 1600.11 322.877C1600.35 323.277 1600.47 323.741 1600.47 324.27C1600.47 325.135 1600.14 325.888 1599.47 326.528L1597.64 328.318H1600.47V330H1594.93V328.655L1598.15 325.531C1598.39 325.307 1598.55 325.107 1598.65 324.931C1598.74 324.755 1598.79 324.566 1598.79 324.366C1598.79 324.038 1598.68 323.774 1598.45 323.573C1598.24 323.373 1597.96 323.273 1597.62 323.273C1597.3 323.273 1596.98 323.377 1596.69 323.585C1596.4 323.794 1596.15 324.078 1595.95 324.438L1594.69 323.405Z" fill="#1D1D1F"/>
<path d="M1604.02 321.591H1609.45V323.273H1605.7V324.955H1609.45V326.637H1605.7V328.318H1609.45V330H1604.02V321.591Z" fill="#1D1D1F"/>
<path d="M1613 321.591H1618.43V323.273H1614.68V324.955H1618.43V326.637H1614.68V328.318H1618.43V330H1613V321.591Z" fill="#1D1D1F"/>
<path d="M1621.98 321.591H1627.41V323.273H1623.66V324.955H1627.41V326.637H1623.66V330H1621.98V321.591Z" fill="#1D1D1F"/>
<path d="M1636.45 328.667H1632.03L1631.42 330H1629.57L1633.46 321.591H1635.02L1638.92 330H1637.07L1636.45 328.667ZM1635.67 326.985L1634.24 323.898L1632.81 326.985H1635.67Z" fill="#1D1D1F"/>
</g>
<defs>
<clipPath id="clip0">
<rect width="721" height="151" fill="white" transform="translate(240 425)"/>
</clipPath>
<clipPath id="clip1">
<rect width="720" height="150" fill="white" transform="translate(240 276)"/>
</clipPath>
<clipPath id="clip2">
<rect width="360" height="100" fill="white" transform="translate(960 276)"/>
</clipPath>
<clipPath id="clip3">
<rect width="360" height="100" fill="white" transform="translate(960 376)"/>
</clipPath>
<clipPath id="clip4">
<rect width="360" height="100" fill="white" transform="translate(1320 476)"/>
</clipPath>
<clipPath id="clip5">
<rect width="360" height="100" fill="white" transform="translate(960 476)"/>
</clipPath>
<clipPath id="clip6">
<rect width="360" height="100" fill="white" transform="translate(1320 376)"/>
</clipPath>
<clipPath id="clip7">
<rect width="360" height="100" fill="white" transform="translate(1320 276)"/>
</clipPath>
</defs>
</svg>
