<svg width="130" height="130" viewBox="0 0 130 130" fill="none" xmlns="http://www.w3.org/2000/svg">
<path d="M86.0712 43.1437C82.9584 35.2332 75.1521 34.5191 66.0622 36.2842L62.825 25L55.9574 26.9696L59.1104 37.9609C57.3053 38.4744 55.468 39.044 53.6428 39.6056L50.4738 28.5421L43.6102 30.5077L46.8394 41.7919C45.3632 42.2492 43.9111 42.6984 42.487 43.1076L42.475 43.0675L33 45.7832L35.106 53.1242C35.106 53.1242 40.1524 51.5677 40.0922 51.6881C42.8761 50.8898 44.244 52.2456 44.9059 53.5654L48.5964 66.418C48.785 66.3659 49.0377 66.3017 49.3345 66.2576L48.6085 66.4662L53.7712 84.4775C53.8996 85.3881 53.7872 86.9325 51.8457 87.4941C51.954 87.5463 46.8475 88.9222 46.8475 88.9222L47.8383 97.5187L56.7758 94.9514C58.4405 94.482 60.0852 94.0408 61.6938 93.5875L64.9711 105L71.8307 103.034L68.5934 91.7422C70.4334 91.254 72.2681 90.7458 74.0971 90.2179L77.3143 101.462L84.1859 99.4923L80.9206 88.0998C92.2769 84.1245 99.5256 78.8976 97.4196 67.7619C95.7267 58.8003 90.5039 56.0806 83.4959 56.3854C86.8976 53.2164 88.3618 48.9322 86.0712 43.1477V43.1437ZM83.4638 70.3011C85.9108 78.8334 71.0284 82.0506 66.3751 83.3904L62.0387 68.2673C66.692 66.9315 80.9085 61.4078 83.4598 70.3051L83.4638 70.3011ZM74.1493 49.8829C76.3716 57.645 63.9321 60.2324 60.0531 61.3436L56.1219 47.6285C59.9969 46.5173 71.8266 41.7919 74.1493 49.8869V49.8829Z" fill="#565656"/>
</svg>
