<svg width="240" height="94" viewBox="0 0 240 94" fill="none" xmlns="http://www.w3.org/2000/svg">
<path d="M29.8745 53.4869L39.7273 27H33.2144L28.7056 38.4943L29.7075 27H22.8608L13.008 53.4869H19.3539L24.1967 40.6599L23.3617 53.1538L29.8745 53.4869ZM37.5563 53.4869L47.409 27H41.2302L31.2105 53.4869H37.5563ZM55.4248 51.8211L55.0908 38.4943L64.4425 27.6663L55.4248 51.8211ZM100.847 42.4924L69.1184 50.655L69.9534 48.1562H63.2736L65.4445 41.826H71.1223L72.7923 36.9951L67.1144 37.3282L69.1184 31.9975H74.6292L76.4662 27.1666H58.5977L52.0849 34.8295L55.2578 27H48.912L39.0593 53.4869H45.5721L49.747 42.1592V53.4869H58.0967L28.2046 61.3164C25.0873 62.2048 22.304 62.5936 19.8548 62.4825C17.4055 62.3714 15.513 61.705 14.177 60.4835C11.1711 58.2624 10.1134 54.8751 11.0041 50.3218C11.5607 47.3233 12.7853 44.4359 14.678 41.6594C10.2247 46.3238 6.94045 50.2663 4.82529 53.4869C2.48736 56.9297 0.984403 60.3169 0.316423 63.6486C-0.351557 66.9803 0.0380423 69.7011 1.48539 71.8112C5.38188 78.2525 13.8986 78.6966 27.0356 73.1439L100.847 42.4924Z" fill="#B5B5B5"/>
</svg>
