<svg width="130" height="130" viewBox="0 0 130 130" fill="none" xmlns="http://www.w3.org/2000/svg">
<path d="M72.9645 27C76.5093 27 79.8414 27.3802 82.9608 28.1405C86.0802 28.9009 89.0933 30.1105 92 31.7694L88.0653 39.2347C86.0802 38.1978 83.7407 37.2301 81.0466 36.3315C78.4235 35.4329 75.7295 34.9836 72.9645 34.9836C62.1884 34.9836 55.4888 41.5848 52.8657 54.7872H78.8134V61.5266H52.1213C52.0504 62.2178 52.0149 62.8745 52.0149 63.4966C52.0149 64.1187 52.0149 64.7754 52.0149 65.4666C52.0149 66.0887 52.0149 66.7799 52.0149 67.5402C52.0149 68.2315 52.0504 68.9573 52.1213 69.7176H75.6231V76.457H52.972C54.1772 82.3324 56.4813 86.8945 59.8843 90.1433C63.3582 93.3229 68.0019 94.9127 73.8153 94.9127C76.5802 94.9127 79.3451 94.6016 82.1101 93.9795C84.9459 93.3574 87.4627 92.5625 89.6604 91.5948V99.6821C87.4627 100.65 85.0168 101.445 82.3228 102.067C79.6996 102.689 76.6866 103 73.2836 103C64.7052 103 57.9701 100.615 53.0784 95.8458C48.2575 91.0764 45.0672 84.6135 43.5075 76.457H35V69.7176H42.6567C42.5858 68.8881 42.5504 68.1969 42.5504 67.6439C42.5504 67.091 42.5504 66.3652 42.5504 65.4666C42.5504 64.7754 42.5504 64.0496 42.5504 63.2892C42.6213 62.5289 42.6567 61.9413 42.6567 61.5266H35V54.7872H43.4011C44.7481 46.2851 47.903 39.5457 52.8657 34.5689C57.8284 29.523 64.528 27 72.9645 27Z" fill="#565656"/>
</svg>
