<svg enable-background="new 0 0 1920 1072" viewBox="0 0 1920 1072" xmlns="http://www.w3.org/2000/svg" xmlns:xlink="http://www.w3.org/1999/xlink"><linearGradient id="a"><stop offset="0" stop-color="#96ebf4"/><stop offset="1" stop-color="#6f7bf7"/></linearGradient><linearGradient id="b" gradientTransform="matrix(1 0 0 -1 0 1070.7086)" gradientUnits="userSpaceOnUse" x1="638.961" x2="892.437" xlink:href="#a" y1="499.9716" y2="499.9716"/><linearGradient id="c" gradientTransform="matrix(1 0 0 -1 0 1070.7086)" gradientUnits="userSpaceOnUse" x1="404.602" x2="505.234" xlink:href="#a" y1="605.5881" y2="605.5881"/><linearGradient id="d" gradientTransform="matrix(1 0 0 -1 0 1070.7086)" gradientUnits="userSpaceOnUse" x1="404.6639" x2="505.2959" xlink:href="#a" y1="568.9438" y2="568.9438"/><linearGradient id="e" gradientTransform="matrix(1 0 0 -1 0 1070.7086)" gradientUnits="userSpaceOnUse" x1="404.602" x2="505.234" xlink:href="#a" y1="547.3692" y2="547.3692"/><linearGradient id="f" gradientTransform="matrix(1 0 0 -1 0 1070.7086)" gradientUnits="userSpaceOnUse" x1="404.602" x2="505.2302" xlink:href="#a" y1="519.4257" y2="519.4257"/><linearGradient id="g" gradientTransform="matrix(1 0 0 -1 0 1070.7086)" gradientUnits="userSpaceOnUse" x1="1422.0883" x2="1511.2196" xlink:href="#a" y1="569.2058" y2="569.2058"/><linearGradient id="h" gradientTransform="matrix(1 0 0 -1 0 1070.7086)" gradientUnits="userSpaceOnUse" x1="981" x2="1057.147" xlink:href="#a" y1="706.2087" y2="706.2087"/><linearGradient id="i" gradientTransform="matrix(1 0 0 -1 0 1070.7086)" gradientUnits="userSpaceOnUse" x1="981" x2="1138.298" xlink:href="#a" y1="642.2087" y2="642.2087"/><path d="m0 0h1920v1072h-1920z" fill="#0c0b14"/><path d="m242.6 203.6h-1.7v8.4h1.7zm5.4 0h-1.7v8.4h5.5v-1.7h-3.8zm8.5 0h-1.7v8.4h5.5v-1.7h-3.8zm14.5 0h-1.7v4.5c0 .3-.1.6-.2.9s-.3.5-.5.7-.4.3-.7.4-.6.2-.9.2-.6 0-.9-.2c-.3-.1-.5-.2-.7-.4s-.4-.4-.5-.7-.2-.6-.2-.9v-4.5h-1.7v4.5c0 .6.1 1.1.3 1.6s.5.9.8 1.2.8.6 1.2.8c.5.2 1 .3 1.5.3s1.1-.1 1.6-.3.9-.4 1.2-.8c.3-.3.6-.8.8-1.2.2-.5.3-1 .3-1.6v-4.5zm3.3 2.4c0 .4.1.7.2 1s.3.5.5.7.5.3.7.5c.3.1.5.2.8.3.2.1.4.1.6.2s.3.1.5.2c.1.1.2.2.3.3s.1.2.1.4-.1.4-.3.6c-.2.1-.4.2-.8.2-.7 0-1.2-.4-1.3-1.1l-1.5.6c.1.4.2.7.4 1s.4.5.6.7c.3.2.5.3.8.4s.6.1.9.1c.4 0 .7-.1 1.1-.2.3-.1.6-.3.9-.5.2-.2.4-.5.6-.8.1-.3.2-.6.2-1s-.1-.7-.2-1-.3-.5-.5-.7-.4-.3-.7-.5c-.3-.1-.5-.2-.8-.3-.2-.1-.4-.1-.6-.2s-.4-.1-.5-.2-.2-.2-.3-.3-.1-.2-.1-.4.1-.4.3-.5.4-.2.8-.2c.3 0 .6.1.8.2.2.2.4.4.5.8l1.5-.6c-.2-.7-.5-1.2-1-1.6s-1.1-.5-1.8-.5c-.4 0-.7 0-1.1.2-.3.1-.6.3-.9.5s-.4.5-.6.8c-.1.2-.1.5-.1.9zm12.8-.7h3v-1.7h-7.8v1.7h3v6.7h1.7v-6.7zm7.8 6.7v-2.8h1l1.8 2.8h2l-2-3c.3-.1.5-.2.7-.4s.4-.4.6-.6.3-.5.4-.8.1-.6.1-.9c0-.4-.1-.8-.2-1.1s-.3-.6-.6-.9-.6-.4-.9-.6c-.3-.1-.7-.2-1.1-.2h-3.6v8.4h1.8zm2.7-4.8c-.2.2-.5.3-.8.3h-1.9v-2.2h1.9c.3 0 .6.1.8.3s.3.5.3.8-.1.5-.3.8zm7.7 1.8 1.4-3.1 1.4 3.1zm3.7 1.7.6 1.3h1.8l-3.9-8.4h-1.5l-3.9 8.4h1.8l.6-1.3zm9.3-5.4h3v-1.7h-7.8v1.7h3v6.7h1.7v-6.7zm7.7-1.7h-1.7v8.4h1.7zm3.3 4.2c0 .6.1 1.2.3 1.7s.5 1 .9 1.3c.4.4.8.7 1.3.9s1.1.3 1.7.3 1.2-.1 1.7-.3 1-.5 1.3-.9c.4-.4.7-.8.9-1.3s.3-1.1.3-1.7-.1-1.2-.3-1.7-.5-1-.9-1.3c-.4-.4-.8-.7-1.3-.9s-1.1-.3-1.7-.3-1.2.1-1.7.3-1 .5-1.3.9c-.4.4-.7.8-.9 1.3s-.3 1.1-.3 1.7zm6.7 0c0 .4-.1.7-.2 1s-.3.6-.5.8-.5.4-.8.5-.6.2-1 .2-.7-.1-1-.2-.6-.3-.8-.5-.4-.5-.5-.8-.2-.6-.2-1 .1-.7.2-1 .3-.6.5-.8.5-.4.8-.5.6-.2 1-.2.7.1 1 .2.6.3.8.5.4.5.5.8c.2.3.2.6.2 1zm12.7-4.2h-1.7v5.5l-4.5-5.5h-1.5v8.4h1.7v-5.5l4.5 5.5h1.5zm3.4 2.4c0 .4.1.7.2 1s.3.5.5.7.5.3.7.5c.3.1.5.2.8.3.2.1.4.1.6.2s.3.1.5.2c.1.1.2.2.3.3s.1.2.1.4-.1.4-.3.6-.4.2-.8.2c-.7 0-1.2-.4-1.3-1.1l-1.5.6c.1.4.2.7.4 1s.4.5.6.7c.3.2.5.3.8.4s.6.1.9.1c.4 0 .7-.1 1.1-.2.3-.1.6-.3.9-.5s.4-.5.6-.8c.1-.3.2-.6.2-1s-.1-.7-.2-1-.3-.5-.5-.7-.4-.3-.7-.5c-.3-.1-.5-.2-.8-.3-.2-.1-.4-.1-.6-.2s-.4-.1-.5-.2-.2-.2-.3-.3-.1-.2-.1-.4.1-.4.3-.5.4-.2.8-.2c.3 0 .6.1.8.2.2.2.4.4.5.8l1.5-.6c-.2-.7-.5-1.2-1-1.6s-1.1-.5-1.8-.5c-.4 0-.7 0-1.1.2-.3.1-.6.3-.9.5s-.4.5-.6.8-.1.5-.1.9z" fill="#fff" opacity=".3"/><path d="m598 280.5h335c4.1 0 7.5 3.4 7.5 7.5v471c0 4.1-3.4 7.5-7.5 7.5h-335c-4.1 0-7.5-3.4-7.5-7.5v-471c0-4.1 3.4-7.5 7.5-7.5z" fill="#121835" stroke="#1b2450"/><path d="m611.5 302h50c1.9 0 3.5 1.6 3.5 3.5 0 1.9-1.6 3.5-3.5 3.5h-50c-1.9 0-3.5-1.6-3.5-3.5 0-1.9 1.6-3.5 3.5-3.5z" fill="#424962"/><path d="m611.5 313h42c1.9 0 3.5 1.6 3.5 3.5 0 1.9-1.6 3.5-3.5 3.5h-42c-1.9 0-3.5-1.6-3.5-3.5 0-1.9 1.6-3.5 3.5-3.5z" fill="#424962"/><path clip-rule="evenodd" d="m907.1 300.3c-.9 0-1.7.7-1.7 1.7s.7 1.7 1.7 1.7c.9 0 1.7-.7 1.7-1.7s-.8-1.7-1.7-1.7zm-3.1.9c.3-1.4 1.6-2.4 3.1-2.4s2.7 1 3.1 2.4h11.4v1.5h-11.4c-.3 1.4-1.6 2.4-3.1 2.4s-2.7-1-3.1-2.4h-4.2v-1.5zm12.7 7.5c-.9 0-1.7.7-1.7 1.7 0 .9.7 1.7 1.7 1.7.9 0 1.7-.7 1.7-1.7s-.7-1.7-1.7-1.7zm-3 .9c.3-1.4 1.6-2.4 3.1-2.4s2.7 1 3.1 2.4h1.7v1.5h-1.7c-.3 1.4-1.6 2.4-3.1 2.4s-2.7-1-3.1-2.4h-13.8v-1.5zm-9 7.5c-.9 0-1.7.7-1.7 1.7 0 .9.7 1.7 1.7 1.7.9 0 1.7-.7 1.7-1.7s-.8-1.7-1.7-1.7zm-3.1.9c.3-1.4 1.6-2.4 3.1-2.4s2.7 1 3.1 2.4h13.8v1.5h-13.8c-.3 1.4-1.6 2.4-3.1 2.4s-2.7-1-3.1-2.4h-1.7v-1.5z" fill="#919cbd" fill-rule="evenodd"/><path d="m765.5 346h21c4.7 0 8.5 3.8 8.5 8.5 0 4.7-3.8 8.5-8.5 8.5h-21c-4.7 0-8.5-3.8-8.5-8.5 0-4.7 3.8-8.5 8.5-8.5z" fill="#919cbd"/><path d="m807.5 346h21c4.7 0 8.5 3.8 8.5 8.5 0 4.7-3.8 8.5-8.5 8.5h-21c-4.7 0-8.5-3.8-8.5-8.5 0-4.7 3.8-8.5 8.5-8.5z" fill="#282d44"/><path d="m849.5 346h21c4.7 0 8.5 3.8 8.5 8.5 0 4.7-3.8 8.5-8.5 8.5h-21c-4.7 0-8.5-3.8-8.5-8.5 0-4.7 3.8-8.5 8.5-8.5z" fill="#282d44"/><path d="m892.5 346h21c4.7 0 8.5 3.8 8.5 8.5 0 4.7-3.8 8.5-8.5 8.5h-21c-4.7 0-8.5-3.8-8.5-8.5 0-4.7 3.8-8.5 8.5-8.5z" fill="#282d44"/><path d="m609 352.1c-1.2 1.6-1.6 2.5-1.6 3.9 0 2.3 1.9 4.1 4.4 4.1s4.3-1.7 4.3-4.1c0-2.2-1.7-3.9-4.1-3.9-.4 0-.8.1-1.3.2l3-3.8h-1.9zm0 3.8c0-1.5 1.1-2.6 2.7-2.6s2.7 1.1 2.7 2.6-1.1 2.7-2.7 2.7-2.7-1.1-2.7-2.7z" fill="#919cbd"/><path d="m617.5 356.6c0 2 1.7 3.3 4.4 3.3 2.6 0 4.4-1.3 4.4-3.3 0-1.4-.9-2.5-2.2-2.9 1.1-.4 1.7-1.3 1.7-2.5 0-1.8-1.6-3-3.9-3-2.4 0-4 1.2-4 3 0 1.1.6 2 1.7 2.5-1.3.5-2.1 1.6-2.1 2.9zm1.9-5.3c0-1 1-1.7 2.5-1.7s2.4.7 2.4 1.8-.9 1.8-2.4 1.8-2.5-.7-2.5-1.9zm-.3 5.2c0-1.3 1.1-2 2.8-2s2.8.8 2.8 2c0 1.3-1.1 2.1-2.8 2.1s-2.8-.8-2.8-2.1z" fill="#919cbd"/><path d="m629.1 360c.6 0 1.2-.5 1.2-1.1s-.5-1.1-1.2-1.1c-.6 0-1.2.5-1.2 1.1s.6 1.1 1.2 1.1z" fill="#919cbd"/><path d="m632 356.6c0 2 1.7 3.3 4.4 3.3 2.6 0 4.4-1.3 4.4-3.3 0-1.4-.9-2.5-2.2-2.9 1.1-.4 1.7-1.3 1.7-2.5 0-1.8-1.6-3-3.9-3-2.4 0-4 1.2-4 3 0 1.1.6 2 1.7 2.5-1.3.5-2.1 1.6-2.1 2.9zm1.9-5.3c0-1 1-1.7 2.5-1.7s2.4.7 2.4 1.8-.9 1.8-2.4 1.8-2.5-.7-2.5-1.9zm-.3 5.2c0-1.3 1.1-2 2.8-2s2.8.8 2.8 2c0 1.3-1.1 2.1-2.8 2.1s-2.8-.8-2.8-2.1z" fill="#919cbd"/><path d="m642.3 354.1c0 3.5 1.8 5.8 4.9 5.8s4.9-2.3 4.9-5.8-1.9-5.9-4.9-5.9c-3 .1-4.9 2.4-4.9 5.9zm1.6 0c0-2.8 1.2-4.5 3.3-4.5s3.3 1.7 3.3 4.5-1.2 4.5-3.3 4.5-3.3-1.7-3.3-4.5z" fill="#919cbd"/><path d="m657.9 356.6v.7h1.9v1.8h.7v-1.8h1.9v-.7h-1.9v-1.8h-.7v1.8z" fill="#919cbd"/><path d="m663.6 356.7c0 1.9 1 3.2 2.7 3.2s2.7-1.3 2.7-3.2-1-3.2-2.7-3.2-2.7 1.3-2.7 3.2zm.8 0c0-1.5.7-2.5 1.8-2.5s1.8.9 1.8 2.5c0 1.5-.7 2.4-1.8 2.4s-1.8-.9-1.8-2.4z" fill="#919cbd"/><path d="m670.2 359.9c.3 0 .6-.3.6-.6s-.3-.6-.6-.6c-.4 0-.6.3-.6.6s.3.6.6.6z" fill="#919cbd"/><path d="m676.3 359.8v-.8h-3l1.3-1.1c1.1-.9 1.6-1.6 1.6-2.4 0-1.2-.8-1.9-2.1-1.9s-2.2.9-2.2 2.2h.9c0-.9.5-1.4 1.3-1.4s1.2.5 1.2 1.2-.3 1.1-1.3 1.9l-2.1 1.7v.6z" fill="#919cbd"/><path d="m677 358.1c0 1.1.9 1.8 2.4 1.8 1.4 0 2.4-.7 2.4-1.8 0-.8-.5-1.4-1.2-1.6.6-.2 1-.7 1-1.3 0-1-.9-1.6-2.1-1.6-1.3 0-2.2.7-2.2 1.6 0 .6.3 1.1.9 1.4-.7.1-1.2.7-1.2 1.5zm1.1-2.9c0-.6.5-.9 1.3-.9s1.3.4 1.3 1-.5 1-1.3 1c-.8-.1-1.3-.5-1.3-1.1zm-.2 2.8c0-.7.6-1.1 1.5-1.1s1.5.4 1.5 1.1-.6 1.1-1.5 1.1-1.5-.4-1.5-1.1z" fill="#919cbd"/><path d="m686.9 359.8v-.8h-3l1.3-1.1c1.1-.9 1.6-1.6 1.6-2.4 0-1.2-.8-1.9-2.1-1.9s-2.2.9-2.2 2.2h.9c0-.9.5-1.4 1.3-1.4s1.2.5 1.2 1.2-.3 1.1-1.3 1.9l-2.1 1.7v.6z" fill="#919cbd"/><path d="m692.2 361.3c-.8-1-1.2-2.5-1.2-4 0-1.6.5-3.1 1.2-4h-.7c-.9 1-1.4 2.6-1.4 4 0 1.5.5 3 1.4 4z" fill="#919cbd"/><path d="m693 356.6v.7h1.9v1.8h.7v-1.8h1.9v-.7h-1.9v-1.8h-.7v1.8z" fill="#919cbd"/><path d="m698.6 356.7c0 1.9 1 3.2 2.7 3.2s2.7-1.3 2.7-3.2-1-3.2-2.7-3.2-2.7 1.3-2.7 3.2zm.9 0c0-1.5.7-2.5 1.8-2.5s1.8.9 1.8 2.5c0 1.5-.7 2.4-1.8 2.4-1.2 0-1.8-.9-1.8-2.4z" fill="#919cbd"/><path d="m705.3 359.9c.3 0 .6-.3.6-.6s-.3-.6-.6-.6c-.4 0-.6.3-.6.6-.1.3.2.6.6.6z" fill="#919cbd"/><path d="m711.6 358.5v-.7h-.8v-4.2h-1.1l-3.1 4.2v.7h3.4v1.2h.8v-1.2zm-4-.7 2.4-3.3v3.3z" fill="#919cbd"/><path d="m713.4 354.4v5.4h.8v-6.2h-2.2v.8z" fill="#919cbd"/><path d="m718.7 355.1c0-.9-.7-1.6-1.6-1.6-1 0-1.6.7-1.6 1.6s.7 1.6 1.6 1.6c.9-.1 1.6-.7 1.6-1.6zm3.4-1.5h-.9l-4.9 6.2h.9zm-4.1 1.5c0 .5-.4.9-1 .9s-.9-.4-.9-.9c0-.6.4-.9.9-.9.6-.1 1 .3 1 .9zm5 3.2c0-.9-.7-1.6-1.6-1.6-1 0-1.6.6-1.6 1.6 0 .9.7 1.6 1.6 1.6s1.6-.7 1.6-1.6zm-.7 0c0 .5-.4.9-.9.9-.6 0-.9-.4-.9-.9 0-.6.4-.9.9-.9s.9.4.9.9z" fill="#919cbd"/><path d="m724.1 361.3c.8-1 1.4-2.5 1.4-4s-.5-3-1.4-4h-.7c.7.9 1.2 2.4 1.2 4 0 1.5-.4 3-1.2 4z" fill="#919cbd"/><path d="m612 392h307c2.2 0 4 1.8 4 4v349c0 2.2-1.8 4-4 4h-307c-2.2 0-4-1.8-4-4v-349c0-2.2 1.8-4 4-4z" fill="#0d1126"/><path clip-rule="evenodd" d="m805.4 431.4 21.6 25.8 31.1-5.7 19.8 5.6 12.1-23.6 1.9 1-12.9 25.1-21-5.9-31.9 5.8-19.2-22.9-20.6 170.1-20.6 6.8-21.4 24h-20.7l-20.8 66.3-12.1-24.2-19.7 13.9-10.2 16.6h-12l-9.8-31.8 2.1-.6 9.4 30.3h9.2l9.8-15.9 22.1-15.7 10.8 21.6 19.7-62.7h21.4l21.1-23.7 19.8-6.6z" fill="url(#b)" fill-rule="evenodd"/><path d="m355 392.5h201c4.1 0 7.5 3.4 7.5 7.5v268c0 4.1-3.4 7.5-7.5 7.5h-201c-4.1 0-7.5-3.4-7.5-7.5v-268c0-4.1 3.4-7.5 7.5-7.5z" fill="#151b3d"/><path d="m355 392.5h201c4.1 0 7.5 3.4 7.5 7.5v268c0 4.1-3.4 7.5-7.5 7.5h-201c-4.1 0-7.5-3.4-7.5-7.5v-268c0-4.1 3.4-7.5 7.5-7.5z" fill="#121835"/><path d="m355 392.5h201c4.1 0 7.5 3.4 7.5 7.5v268c0 4.1-3.4 7.5-7.5 7.5h-201c-4.1 0-7.5-3.4-7.5-7.5v-268c0-4.1 3.4-7.5 7.5-7.5z" fill="none" stroke="#1b2450"/><path d="m365.2 624.1-.2 1.1h1.3l-.5 2.6h1.2l.5-2.6h2l-.5 2.6h1.2l.5-2.6h1.5l.2-1.1h-1.5l.4-1.9h1.4l.2-1.1h-1.3l.5-2.6h-1.2l-.5 2.6h-2l.5-2.6h-1.2l-.5 2.6h-1.5l-.2 1.1h1.5l-.4 1.9zm2.5 0 .4-1.9h2l-.4 1.9z" fill="#919cbd"/><path d="m381.1 626v-1.1h-1.1v-6.4h-1.7l-4.4 6.4v1.1h4.9v1.9h1.2v-1.9zm-5.8-1.2 3.5-5v5z" fill="#919cbd"/><path d="m389.2 626v-1.1h-1.1v-6.4h-1.7l-4.4 6.4v1.1h4.9v1.9h1.2v-1.9zm-5.8-1.2 3.5-5v5z" fill="#919cbd"/><path d="m393.2 623c1.5 0 2.3.8 2.3 1.9 0 1.2-.8 2-2 2s-1.9-.7-1.9-1.9h-1.3c0 2 1.3 3.1 3.2 3.1s3.3-1.2 3.3-3.1c0-1.7-1.2-2.8-2.8-3l2.6-2.5v-1h-5.8v1.1h4.2l-2.7 2.6v.8z" fill="#919cbd"/><path d="m401 628c2 0 3.4-1.4 3.4-3.3 0-1.8-1.2-3.1-3.2-3.1-.7 0-1.3.2-1.8.6l.6-2.5h3.8v-1.2h-4.7l-1.1 4.8 1.1.3c.4-.5 1.2-.9 2-.9 1.3 0 2.1.9 2.1 2.1 0 1.3-.8 2.1-2.1 2.1-1.2 0-1.9-.7-1.9-2h-1.3c-.1 1.9 1.2 3.1 3.1 3.1z" fill="#919cbd"/><path d="m476 609h57c7.7 0 14 6.3 14 14 0 7.7-6.3 14-14 14h-57c-7.7 0-14-6.3-14-14 0-7.7 6.3-14 14-14z" fill="#0d1126"/><g fill="#919cbd"><path d="m479.7 615.9-4 6.7 4 2.4 4-2.4z"/><path d="m479.7 629 4-5.5-4 2.3-4-2.3z"/><path d="m497.4 625.2v-1.2h-1.1v-6.4h-1.7l-4.4 6.4v1.1h4.9v1.9h1.2v-1.9h1.1zm-5.8-1.2 3.5-5v5z"/><path d="m499.5 627.2c.5 0 .9-.4.9-.9s-.4-.9-.9-.9-.9.4-.9.9.4.9.9.9z"/><path d="m508.8 625.2v-1.2h-1.1v-6.4h-1.7l-4.4 6.4v1.1h4.9v1.9h1.2v-1.9h1.1zm-5.9-1.2 3.5-5v5z"/><path d="m519.8 627.1v-1.2h-4.5v-3h4v-1.1h-4v-2.9h4.5v-1.2h-5.8v9.4z"/><path d="m520.7 618.8h2.8v8.2h1.3v-8.2h2.8v-1.2h-6.9z"/><path d="m530.2 627.1v-4.2h4.7v4.2h1.3v-9.4h-1.3v4h-4.7v-4h-1.3v9.4z"/><path d="m369.5 655v-.9h-3.3v-2.2h3v-.9h-3v-2.2h3.3v-.9h-4.3v7h4.3z"/><path d="m372.2 655v-2.5c0-.9.5-1.5 1.4-1.5.7 0 1.2.4 1.2 1.4v2.7h.9v-3.1c0-1.2-.6-2-1.8-2-.7 0-1.3.3-1.6.9l-.1-.7h-.8v4.8z"/><path d="m379.4 655.1c.8 0 1.4-.3 1.7-1l.1.9h.8v-7.2h-.9v3.2c-.3-.6-.9-.9-1.7-.9-1.4 0-2.3 1.1-2.3 2.5.1 1.4.9 2.5 2.3 2.5zm.2-.9c-.9 0-1.5-.7-1.5-1.7s.5-1.7 1.5-1.7c.9 0 1.5.7 1.5 1.7s-.6 1.7-1.5 1.7z"/><path d="m383.6 653.6c0 .9.7 1.5 1.8 1.5s1.9-.6 1.9-1.5c0-.7-.4-1.1-1.2-1.3l-.8-.2c-.5-.1-.7-.3-.7-.7s.3-.7.9-.7.9.3.9.8h.9c0-.9-.7-1.5-1.7-1.5-1.1 0-1.8.6-1.8 1.4 0 .7.4 1.1 1.2 1.3l.8.2c.5.1.7.3.7.6 0 .4-.4.7-1 .7s-1-.3-1-.8h-.9z"/><path d="m392.6 649.1c.3 0 .6-.3.6-.6s-.3-.6-.6-.6-.6.3-.6.6.3.6.6.6zm-.4 5.9h.9v-4.8h-.9z"/><path d="m395.9 655v-2.5c0-.9.5-1.5 1.4-1.5.7 0 1.2.4 1.2 1.4v2.7h.9v-3.1c0-1.2-.6-2-1.8-2-.7 0-1.3.3-1.6.9l-.1-.7h-.9v4.8z"/><path d="m405.6 648.8v6.2h.9v-7h-2.4v.9h1.5z"/><path d="m409.3 650.1c-.7 1-1 1.6-1 2.4 0 1.4 1.1 2.5 2.6 2.5s2.6-1.1 2.6-2.5-1-2.4-2.5-2.4c-.2 0-.5 0-.7.1l1.8-2.3h-1.1zm0 2.5c0-1 .7-1.6 1.6-1.6s1.6.7 1.6 1.6c0 1-.7 1.7-1.6 1.7-.9-.1-1.6-.8-1.6-1.7z"/><path d="m419.3 654.9v-2.6c0-.8.5-1.5 1.4-1.5.7 0 1.1.4 1.1 1.4v2.7h.9v-2.9c0-1.2-.6-2-1.8-2-.7 0-1.3.4-1.6.9v-3.1h-.9v7.2h.9z"/><path d="m424.3 652.6c0 1.5 1.1 2.5 2.5 2.5s2.5-1 2.5-2.5-1.1-2.5-2.5-2.5-2.5 1-2.5 2.5zm.9 0c0-1 .6-1.7 1.6-1.7.9 0 1.6.7 1.6 1.7s-.6 1.7-1.6 1.7c-.9 0-1.6-.7-1.6-1.7z"/><path d="m434.1 650.2v2.5c0 1-.5 1.6-1.3 1.6-.7 0-1.1-.4-1.1-1.4v-2.7h-.9v3c0 1.2.6 1.9 1.7 1.9.7 0 1.3-.3 1.6-.8l.1.7h.8v-4.8z"/><path d="m439.6 650.1c-.2 0-.3-.1-.5-.1-.7 0-1.1.3-1.3.8l-.1-.7h-.9v4.8h.9v-2.5c0-.9.5-1.4 1.4-1.4h.4v-.9z"/><path d="m440.7 653.6c0 .9.7 1.5 1.8 1.5s1.9-.6 1.9-1.5c0-.7-.4-1.1-1.2-1.3l-.8-.2c-.5-.1-.7-.3-.7-.7s.3-.7.9-.7.9.3.9.8h.9c0-.9-.7-1.5-1.7-1.5-1.1 0-1.8.6-1.8 1.4 0 .7.4 1.1 1.2 1.3l.8.2c.5.1.7.3.7.6 0 .4-.4.7-1 .7s-1-.3-1-.8h-.9z"/></g><path d="m369 410h173c2.2 0 4 1.8 4 4v175c0 2.2-1.8 4-4 4h-173c-2.2 0-4-1.8-4-4v-175c0-2.2 1.8-4 4-4z" fill="#0d1126"/><path d="m450.7 460.7c-.4 0-.8.3-.8.8v7.3c0 .4.3.8.8.8s.8-.3.8-.8v-6.5h4.1c.4 0 .8-.3.8-.8 0-.4-.3-.8-.8-.8z" fill="url(#c)"/><path clip-rule="evenodd" d="m464.2 443.3c3.8 2.4 6.7 6.4 7.4 12.3l4 28.5c3.4 2.9 6.6 6.3 9.6 10.3 0 0 .1.1.1.1 3.5 4.6 6.7 9.9 9.5 15.4 5.2 10.3 8.9 21.5 10.3 31.5.1.4-.2.8-.6.8-.4.1-.8-.2-.8-.6-1.4-9.8-5.1-20.9-10.2-31.1-1.8-3.5-3.7-6.8-5.7-10-10.1 1.4-21.5 7.7-28.5 17.3-4.5 6.2-6.6 14.8-7.5 23 1.7 1.2 3.3 2.4 4.7 3.5l.3-.1c.4-.1 1-.2 1.7-.3 1.4-.3 3.3-.6 5.3-1 3.9-.8 8.2-1.6 9.4-1.7 1.3-.2 2.5-.1 4.1.6 1.5.7 3.2 1.9 5.5 3.9.3.3.3.7.1 1.1-.3.3-.7.3-1.1.1-2.2-2-3.8-3-5.1-3.6s-2.2-.6-3.3-.5c-1.1.2-5.3 1-9.3 1.7-2 .4-3.9.8-5.3 1l-.8.2c1.1 1 2.1 1.9 2.9 2.7.3.3.3.8 0 1.1s-.8.3-1.1 0c-1.1-1.1-2.4-2.3-3.9-3.6 0 0-.1 0-.1-.1-2-1.6-4.2-3.4-6.7-4.9-4.4-2.8-9.3-5-14.2-5.3-1.4 1.3-2.4 2.5-2.9 4.1-.4 1.4-.4 3.3.6 5.9.8-.4 1.6-.8 2.5-1.4.3-.2.7-.1 1 .1.4.4.8.9 1.2 1.5 1.7 2.2 4.1 5.1 7.8 7.3h.1c1.3.8 2.8 1.5 4.5 2 .4.1.6.5.5.9s-.5.6-.9.5c-1.7-.5-3.3-1.2-4.6-2l-6.5 1.7c-.6.2-1.1.6-1.3 1.2l-2.2 5.2c-.2.4-.6.6-1 .4s-.6-.6-.4-1l2.2-5.2c.4-1 1.3-1.8 2.3-2l5.2-1.3c-1.8-1.3-3.2-2.6-4.4-3.9l-6.4 3c-.6.3-.9.8-.9 1.4v4.1c0 .4-.3.8-.8.8s-.8-.3-.8-.8v-4.1c0-1.2.7-2.3 1.8-2.8l6-2.8c-.5-.6-1-1.2-1.4-1.7-.3-.3-.5-.6-.7-.9-4.4 2.7-8.5 3.3-10.8 3.6-.2 0-.4.1-.6.1-1.2.2-3.6.1-5.8-1.4s-4-4.2-4-9c.1-4.8 1.6-7.6 3.8-9.1s4.9-1.8 7.1-1.8c.4 0 .8.3.8.7s-.3.8-.7.8c-2.2.1-4.5.3-6.3 1.6-1.7 1.2-3.1 3.5-3.2 7.9s1.6 6.6 3.3 7.8c1.6 1.1 3.5 1.3 4.5 1.2-2.1-2.6-2.6-5.3-2.3-7.7.4-2.5 1.6-4.6 2.7-6 .3-.3.7-.4 1.1-.1.3.3.4.7.1 1.1-1 1.2-2.1 3.1-2.4 5.2s.2 4.6 2.4 7.1c.1.1.1.1.1.2 1.6-.2 3.7-.7 6-1.6-1.1-2.9-1.2-5.1-.6-7 .6-2 2-3.5 3.5-4.9.1-.1.4-.2.6-.2 2.2.1 4.5.6 6.6 1.4 1.2-8.1 4-15.8 9.4-22.1 1.4-1.7 3-3.3 4.7-4.8-12 0-18.2-6.6-19.5-9.7-.1-.2-.1-.5 0-.7.4-.7.8-1.3 1.2-2-11 3.9-14.1 13.3-16.1 19.6 1.3-.1 2.8.1 4.3.6s3 1.3 4.3 2.4c0-.4 0-.8 0-1.3 0-4.1.8-7.9 1.6-10.5.1-.4.5-.6.9-.5s.6.5.5.9c-.8 2.5-1.6 6.1-1.5 10.1 0 3.9.8 8.1 3.3 11.7.2.3.1.8-.2 1s-.8.1-1-.2c-1.9-2.8-2.9-5.9-3.3-9-1.3-1.5-3.1-2.6-4.9-3.2-1.6-.5-3.2-.7-4.3-.5-.2.6-.4 1.1-.5 1.6-.1.2-.2.3-.4.4-2.9 1.5-6.1 4.6-8.7 7.9-2.6 3.4-4.3 7-4.7 9.6 0 .4-.4.7-.8.7s-.7-.4-.7-.8c.4-3 2.3-6.8 4.9-10.3 2.5-3.4 5.8-6.5 8.9-8.2.2-.7.5-1.4.7-2.3 2-6.5 5.4-17.6 18.3-21.5-.1-1.3-.1-3 0-4.6.1-1.8.3-3.6.5-4.9-1.9-2.5-4.9-8-4.3-19.3.3-5.8 2.3-10 5.2-12.9 0-5 4.6-10.9 12.8-11.9 4-.8 8.6-.1 12.3 2.3zm-6.2 73.7c-4.6 6.3-6.7 14.9-7.7 22.9-.2-.1-.4-.3-.6-.4-2.2-1.4-4.6-2.7-7.1-3.7 1.2-8 3.9-15.5 9.1-21.7 1.8-2.1 3.8-4.1 6-5.9.1-.1.3-.2.3-.3 1.9-1.6 4-3 6.1-4.3.2 0 .5-.2.6-.3 6.1-3.6 12.8-6.1 19.6-7.7.8 1.1 1.7 2.3 2.5 3.4-10.4 1.8-21.7 8.3-28.8 18zm-19-23.5c1.7-1.9 3.4-3.4 5-4.6 1.4-1 2.6-1.8 3.5-2.4.4-.3.8-.5 1-.6v-4.6c-2.4-.7-4.2-2.2-5.5-3.9-1.6-2.1-2.5-4.4-2.6-5.8-.1-1.5-.3-3.2-.4-5-.3-4.1-.7-8.7-.9-12-2.1 2.6-3.5 6.2-3.8 10.8-.6 11.5 2.6 16.5 4.2 18.6.1.2.2.4.1.6-.3 1.2-.5 3.1-.6 5-.1 1.5-.1 2.8 0 3.9zm10.5-13.5h-.1c-2.2-.5-3.9-1.9-5.2-3.5-1.5-1.9-2.2-4-2.3-5-.1-1.5-.3-3.2-.4-5-.1-1.1-.2-2.3-.3-3.4h3.3c.4 0 .8-.3.8-.8s-.3-.8-.8-.8h-3.5c-.3-3.2-.5-6.3-.6-8.5 2.8-2.6 6.2-4 9.3-4.3 6.4-.6 11.5 2.9 11.7 7.7.1 2.2.4 9.9.7 18.4-1.5 2.2-5.7 5.6-11.5 5.2-.3.2-.7.1-1.1 0zm.5 1.6v4.7c0 .3-.2.5-.4.7s0 0-.1 0-.1.1-.3.1c-.2.1-.6.3-1 .6-.8.5-2 1.3-3.3 2.3-2.5 1.9-5.6 4.8-7.7 8.4 1.5 2.8 7.7 9.1 19.8 8.4 2-1.6 4.1-3.1 6.3-4.4l-.2-5.9c-.2-3.9-.4-9.2-.6-14.7l-.2-4.6c-2.3 2.3-6.4 4.8-11.7 4.4-.2.1-.4.1-.6 0zm24.4 3.5c3.1 2.6 6.1 5.8 8.9 9.3-6.4 1.5-12.7 3.9-18.5 7.2l-.2-5.1c-.2-3.9-.4-9.2-.6-14.7l-.2-6.4c0-.2 0-.3 0-.5-.3-8.5-.6-16.2-.7-18.4-.2-6.1-6.5-9.8-13.4-9.2-3 .3-6.3 1.5-9.1 3.7.8-3.8 4.7-8.1 11.3-8.9 3.9-.5 8.1.3 11.6 2.4 3.4 2.2 6 5.8 6.7 11.2l4 28.7c0 .4.1.6.2.7z" fill="url(#d)" fill-rule="evenodd"/><path d="m484.8 510.8c0 .4-.3.8-.7.8-2.8.1-5.7.7-8.1 2.1s-4.2 3.5-4.7 6.5c-.6 3.2-1.2 7.2-1.8 10.3-.3 1.6-.5 2.9-.6 3.9-.1.5-.1.9-.2 1.1l-.1.4c-.1.4-.4.7-.9.6-.4-.1-.7-.4-.6-.9l.1-.4c0-.3.1-.7.2-1.2.2-1 .4-2.4.6-3.9.5-3.1 1.2-7.1 1.8-10.3.6-3.5 2.8-5.9 5.4-7.5 2.7-1.6 5.9-2.3 8.8-2.4.4.2.8.5.8.9z" fill="url(#e)"/><path d="m448.6 546.2c-.3-.3-.8-.2-1.1.1s-.2.8.1 1.1l11.1 9c.3.3.8.2 1.1-.1s.2-.8-.1-1.1z" fill="url(#f)"/><path clip-rule="evenodd" d="m376.8 422.3c-.8.6-1.5 1.4-1.9 1.9-.1.1-.1.2-.1.3s0 .2.1.3c.4.5 1 1.3 1.9 1.9.8.6 1.8 1.1 2.7 1.1 1 0 1.9-.5 2.7-1.1s1.5-1.4 1.9-1.9c.1-.2.1-.4 0-.5-.4-.5-1-1.3-1.9-1.9-.8-.6-1.8-1.1-2.7-1.1-1-.1-1.9.4-2.7 1zm-.6-.8c.9-.7 2.1-1.3 3.4-1.3s2.5.6 3.4 1.3 1.6 1.6 2.1 2.1c.4.5.4 1.2 0 1.7s-1.1 1.4-2.1 2.1c-.9.7-2.1 1.3-3.4 1.3s-2.4-.6-3.4-1.3c-.9-.7-1.6-1.6-2.1-2.1-.2-.2-.3-.6-.3-.9s.1-.6.3-.9c.4-.4 1.1-1.3 2.1-2z" fill="#919cbd" fill-rule="evenodd"/><path clip-rule="evenodd" d="m379.5 423.4c-.6 0-1.1.5-1.1 1.1s.5 1.1 1.1 1.1 1.1-.5 1.1-1.1-.5-1.1-1.1-1.1zm-2.1 1.1c0-1.2 1-2.1 2.1-2.1 1.2 0 2.1 1 2.1 2.1 0 1.2-1 2.1-2.1 2.1-1.2 0-2.1-.9-2.1-2.1z" fill="#919cbd" fill-rule="evenodd"/><path d="m391.7 420.6v8.3h1.2v-9.4h-3.2v1.1z" fill="#919cbd"/><path d="m401.5 428.8v-1.2h-4.3l2-1.7c1.7-1.4 2.3-2.4 2.3-3.7 0-1.8-1.2-3-3.1-3s-3.2 1.3-3.2 3.3h1.3c0-1.3.8-2.2 1.9-2.2s1.8.7 1.8 1.9c0 1-.4 1.6-2 3l-3 2.6v1z" fill="#919cbd"/><path d="m405.9 424c1.5 0 2.3.8 2.3 1.9 0 1.2-.8 2-2 2s-1.9-.7-1.9-1.9h-1.3c0 2 1.3 3.1 3.2 3.1s3.3-1.2 3.3-3.1c0-1.7-1.2-2.8-2.8-3l2.6-2.5v-1h-5.8v1.1h4.2l-2.7 2.6v.8z" fill="#919cbd"/><path d="m1363 392.5h201c4.1 0 7.5 3.4 7.5 7.5v268c0 4.1-3.4 7.5-7.5 7.5h-201c-4.1 0-7.5-3.4-7.5-7.5v-268c0-4.1 3.4-7.5 7.5-7.5z" fill="#151b3d"/><path d="m1363 392.5h201c4.1 0 7.5 3.4 7.5 7.5v268c0 4.1-3.4 7.5-7.5 7.5h-201c-4.1 0-7.5-3.4-7.5-7.5v-268c0-4.1 3.4-7.5 7.5-7.5z" fill="#121835"/><path d="m1363 392.5h201c4.1 0 7.5 3.4 7.5 7.5v268c0 4.1-3.4 7.5-7.5 7.5h-201c-4.1 0-7.5-3.4-7.5-7.5v-268c0-4.1 3.4-7.5 7.5-7.5z" fill="none" stroke="#1b2450"/><path d="m1373.2 624.1-.2 1.1h1.3l-.5 2.6h1.2l.5-2.6h2l-.5 2.6h1.2l.5-2.6h1.5l.2-1.1h-1.5l.4-1.9h1.3l.2-1.1h-1.3l.5-2.6h-1.2l-.5 2.6h-2l.5-2.6h-1.2l-.5 2.6h-1.5l-.2 1.1h1.5l-.4 1.9zm2.5 0 .4-1.9h2l-.4 1.9z" fill="#919cbd"/><path d="m1389.1 626v-1.1h-1.1v-6.4h-1.7l-4.4 6.4v1.1h4.9v1.9h1.2v-1.9zm-5.9-1.2 3.5-5v5z" fill="#919cbd"/><path d="m1397.2 626v-1.1h-1.1v-6.4h-1.7l-4.4 6.4v1.1h4.9v1.9h1.2v-1.9zm-5.8-1.2 3.5-5v5z" fill="#919cbd"/><path d="m1401.2 623c1.5 0 2.3.8 2.3 1.9 0 1.2-.8 2-2 2s-1.9-.7-1.9-1.9h-1.3c0 2 1.3 3.1 3.2 3.1s3.3-1.2 3.3-3.1c0-1.7-1.2-2.8-2.8-3l2.6-2.5v-1h-5.8v1.1h4.2l-2.7 2.6v.8z" fill="#919cbd"/><path d="m1407.1 621.4c-1 1.3-1.3 2.1-1.3 3.2 0 1.9 1.5 3.4 3.5 3.4 1.9 0 3.4-1.4 3.4-3.4 0-1.9-1.3-3.3-3.3-3.3-.3 0-.7.1-1 .2l2.4-3.1h-1.5zm0 3.3c0-1.3.9-2.2 2.2-2.2 1.2 0 2.1.9 2.1 2.2s-.9 2.2-2.1 2.2c-1.4 0-2.2-.9-2.2-2.2z" fill="#919cbd"/><path d="m1484 609h57c7.7 0 14 6.3 14 14 0 7.7-6.3 14-14 14h-57c-7.7 0-14-6.3-14-14 0-7.7 6.3-14 14-14z" fill="#0d1126"/><path d="m1485.9 615.9-4 6.7 4 2.4 4-2.4z" fill="#919cbd"/><path d="m1485.9 629 4-5.5-4 2.3-4-2.3z" fill="#919cbd"/><path d="m1501.4 623c1.5 0 2.3.8 2.3 1.9 0 1.2-.8 2-2 2s-1.9-.7-1.9-1.9h-1.3c0 2 1.3 3.1 3.2 3.1s3.3-1.2 3.3-3.1c0-1.7-1.2-2.8-2.8-3l2.6-2.5v-1h-5.8v1.1h4.2l-2.7 2.6v.8z" fill="#919cbd"/><path d="m1507 628c.5 0 .9-.4.9-.9s-.4-.9-.9-.9-.9.4-.9.9.4.9.9.9z" fill="#919cbd"/><path d="m1515.8 627.9v-1.2h-4.3l2-1.7c1.7-1.4 2.3-2.4 2.3-3.7 0-1.8-1.2-3-3.1-3s-3.2 1.3-3.2 3.3h1.3c0-1.3.8-2.2 1.9-2.2s1.8.7 1.8 1.9c0 1-.4 1.6-2 3l-3 2.6v1z" fill="#919cbd"/><path d="m1526.7 627.9v-1.2h-4.5v-3h4v-1.1h-4v-2.9h4.5v-1.2h-5.7v9.4z" fill="#919cbd"/><path d="m1527.6 619.6h2.8v8.2h1.3v-8.2h2.8v-1.2h-6.9z" fill="#919cbd"/><path d="m1537.1 627.9v-4.2h4.7v4.2h1.3v-9.4h-1.3v4h-4.7v-4h-1.3v9.4z" fill="#919cbd"/><path d="m1377.5 655v-.9h-3.3v-2.2h3v-.9h-3v-2.2h3.3v-.9h-4.3v7h4.3z" fill="#919cbd"/><path d="m1380.2 655v-2.5c0-.9.5-1.5 1.4-1.5.7 0 1.2.4 1.2 1.4v2.7h.9v-3.1c0-1.2-.6-2-1.8-2-.7 0-1.3.3-1.6.9l-.1-.7h-.8v4.8z" fill="#919cbd"/><path d="m1387.4 655.1c.8 0 1.4-.3 1.7-1l.1.9h.8v-7.2h-.9v3.2c-.3-.6-.9-.9-1.7-.9-1.4 0-2.3 1.1-2.3 2.5.1 1.4.9 2.5 2.3 2.5zm.2-.9c-.9 0-1.5-.7-1.5-1.7s.5-1.7 1.5-1.7c.9 0 1.5.7 1.5 1.7s-.5 1.7-1.5 1.7z" fill="#919cbd"/><path d="m1391.6 653.6c0 .9.7 1.5 1.8 1.5s1.9-.6 1.9-1.5c0-.7-.4-1.1-1.2-1.3l-.8-.2c-.5-.1-.7-.3-.7-.7s.3-.7.9-.7.9.3.9.8h.9c0-.9-.7-1.5-1.8-1.5s-1.8.6-1.8 1.4c0 .7.4 1.1 1.2 1.3l.8.2c.5.1.7.3.7.6 0 .4-.4.7-1 .7s-1-.3-1-.8h-.8z" fill="#919cbd"/><path d="m1400.6 649.1c.3 0 .6-.3.6-.6s-.3-.6-.6-.6-.6.3-.6.6.3.6.6.6zm-.4 5.9h.9v-4.8h-.9z" fill="#919cbd"/><path d="m1403.9 655v-2.5c0-.9.5-1.5 1.3-1.5.7 0 1.2.4 1.2 1.4v2.7h.9v-3.1c0-1.2-.6-2-1.8-2-.7 0-1.3.3-1.6.9l-.1-.7h-.8v4.8z" fill="#919cbd"/><path d="m1417 654.9v-.9h-3.3l1.5-1.3c1.2-1.1 1.8-1.8 1.8-2.8 0-1.4-.9-2.2-2.3-2.2s-2.4 1-2.4 2.5h1c0-1 .6-1.6 1.5-1.6.8 0 1.3.5 1.3 1.4 0 .8-.3 1.2-1.5 2.2l-2.3 2v.7z" fill="#919cbd"/><path d="m1419.9 648.8v6.2h.9v-7h-2.4v.9h1.5z" fill="#919cbd"/><path d="m1427 654.9v-2.6c0-.8.5-1.5 1.4-1.5.7 0 1.2.4 1.2 1.4v2.7h.9v-2.9c0-1.2-.6-2-1.8-2-.8 0-1.3.4-1.6.9v-3.1h-.9v7.2h.8z" fill="#919cbd"/><path d="m1432 652.6c0 1.5 1.1 2.5 2.5 2.5s2.5-1 2.5-2.5-1.1-2.5-2.5-2.5-2.5 1-2.5 2.5zm.9 0c0-1 .6-1.7 1.6-1.7.9 0 1.6.7 1.6 1.7s-.6 1.7-1.6 1.7c-.9 0-1.6-.7-1.6-1.7z" fill="#919cbd"/><path d="m1441.8 650.2v2.5c0 1-.5 1.6-1.3 1.6-.7 0-1.1-.4-1.1-1.4v-2.7h-.9v3c0 1.2.6 1.9 1.7 1.9.7 0 1.3-.3 1.6-.8l.1.7h.8v-4.8z" fill="#919cbd"/><path d="m1447.3 650.1c-.2 0-.3-.1-.5-.1-.7 0-1.1.3-1.3.8l-.1-.7h-.9v4.8h.9v-2.5c0-.9.5-1.4 1.4-1.4h.4v-.9z" fill="#919cbd"/><path d="m1448.4 653.6c0 .9.7 1.5 1.8 1.5s1.9-.6 1.9-1.5c0-.7-.4-1.1-1.2-1.3l-.8-.2c-.5-.1-.7-.3-.7-.7s.3-.7.9-.7c.5 0 .9.3.9.8h.9c0-.9-.7-1.5-1.7-1.5-1.1 0-1.8.6-1.8 1.4 0 .7.4 1.1 1.2 1.3l.8.2c.5.1.7.3.7.6 0 .4-.4.7-1 .7s-1-.3-1-.8h-.9z" fill="#919cbd"/><path d="m1377 410h173c2.2 0 4 1.8 4 4v175c0 2.2-1.8 4-4 4h-173c-2.2 0-4-1.8-4-4v-175c0-2.2 1.8-4 4-4z" fill="#0d1126"/><path clip-rule="evenodd" d="m1384.8 422.4c-.8.6-1.5 1.4-1.9 1.9-.1.1-.1.1-.1.2s0 .2.1.2c.4.5 1 1.3 1.9 1.9.8.6 1.8 1.1 2.7 1.1s1.9-.5 2.7-1.1 1.5-1.4 1.9-1.9c.1-.1.1-.3 0-.5-.4-.5-1-1.3-1.9-1.9-.8-.6-1.8-1.1-2.7-1.1s-1.9.5-2.7 1.2zm-.7-.9c.9-.7 2.1-1.3 3.4-1.3s2.5.6 3.4 1.3 1.6 1.6 2 2.1.4 1.3 0 1.8-1.1 1.4-2 2.1-2.1 1.3-3.4 1.3-2.5-.6-3.4-1.3-1.6-1.6-2-2.1c-.2-.3-.3-.6-.3-.9s.1-.6.3-.9c.4-.5 1.1-1.4 2-2.1z" fill="#919cbd" fill-rule="evenodd"/><path clip-rule="evenodd" d="m1387.5 423.4c-.6 0-1.1.5-1.1 1.1s.5 1.1 1.1 1.1 1.1-.5 1.1-1.1-.5-1.1-1.1-1.1zm-2.2 1.1c0-1.2 1-2.2 2.2-2.2s2.2 1 2.2 2.2-1 2.2-2.2 2.2-2.2-1-2.2-2.2z" fill="#919cbd" fill-rule="evenodd"/><path d="m1403.3 425.9c1-1.3 1.3-2.1 1.3-3.2 0-1.9-1.5-3.4-3.5-3.4-1.9 0-3.4 1.4-3.4 3.4 0 1.9 1.3 3.3 3.3 3.3.3 0 .7-.1 1-.2l-2.4 3.1h1.5zm0-3.3c0 1.3-.9 2.2-2.2 2.2-1.2 0-2.1-.9-2.1-2.2s.9-2.2 2.1-2.2c1.4 0 2.2.9 2.2 2.2z" fill="#919cbd"/><path d="m1406.2 426.2c0 1.7 1.4 2.8 3.5 2.8s3.5-1.1 3.5-2.8c0-1.2-.7-2.1-1.7-2.4.9-.4 1.4-1.1 1.4-2.1 0-1.5-1.2-2.5-3.1-2.5s-3.1 1-3.1 2.5c0 .9.5 1.7 1.4 2.1-1.2.4-1.9 1.3-1.9 2.4zm1.5-4.4c0-.9.8-1.4 1.9-1.4 1.2 0 1.9.6 1.9 1.5s-.7 1.5-1.9 1.5c-1.1-.1-1.9-.7-1.9-1.6zm-.2 4.3c0-1 .9-1.7 2.2-1.7 1.4 0 2.2.7 2.2 1.7 0 1.1-.9 1.7-2.2 1.7-1.4.1-2.2-.6-2.2-1.7z" fill="#919cbd"/><path d="m1441.1 553.6c-2.1 0-4.4-.4-6.9-1.5-8.3-3.2-11.7-13-12.1-14.1-.4-1.4.3-2.8 1.7-3.4.7-.2 1.3-.2 2 .1s1.2 1 1.4 1.7c.1.3 2.4 6.9 7.4 9.9l.9.5-2.3-4.7c0-.1-6.6-11.7-8.9-17.7-1.7-4.6-2.8-10.2-2.8-10.3-.1-.7 0-1.4.4-2s1-1 1.7-1.1c1.4-.3 2.9.7 3.1 2.1 0 .1 1.1 5.3 2.6 9.4.6 1.5 1.6 3.7 3.1 6.6l.2.3 1.5-1.3-.1-.2c-1.1-2.3-2-4.1-2.6-5.6-3.3-7.8-4.1-16.4-4.1-16.5-.1-.7.1-1.4.6-2s1.1-.9 2-1c1.4 0 2.6 1 2.7 2.4.1.9 1 8.4 3.7 15 .5 1.1 1.1 2.5 1.8 3.9l.2.4 1.9-1.6-.1-.2c-.4-1-.9-1.9-1.3-2.9-3-7.2-3.6-12.2-3.7-13.2-.1-.8.2-1.5.6-2 .5-.5 1.1-.9 1.8-.9.6-.1 1.3.1 1.9.5.6.5 1 1.2 1 1.9 0 .2.5 4.9 3.3 11.5l1.2 2.4 7.2 13.6c.1.2 3.5 6.3 2.8 10-.6 2.9-2.6 5.6-6.1 7.8-.7.8-3.7 2.2-7.7 2.2zm-16.4-17.6c-.1 0-.2 0-.3.1-.7.2-1 .9-.8 1.5.3 1 3.6 10.2 11.2 13.2 6 2.7 11.8.7 13.3-.3 3.1-2.1 5-4.4 5.5-6.9.6-3.1-2.6-8.9-2.6-9l-8.4-16.1c-2.9-6.9-3.4-11.8-3.4-12 0-.3-.2-.7-.5-.9-.2-.1-.4-.3-.8-.2-.4 0-.6.2-.8.4s-.3.5-.3.9c.1.9.7 5.8 3.6 12.7.4 1 .8 1.9 1.3 2.9l.3.7c.1.3.1.7-.2.9l-3.1 2.6c-.2.1-.4.2-.6.2s-.4-.2-.5-.4l-.6-1.2c-.7-1.5-1.3-2.8-1.8-4-2.8-6.7-3.8-14.5-3.9-15.4-.1-.6-.6-1.1-1.1-1.1-.6.1-.8.2-.9.4-.2.3-.3.6-.3.9 0 .1.8 8.5 4 16.1.6 1.4 1.4 3.2 2.5 5.5l.4.8c.2.3.1.7-.2.9l-2.7 2.3c-.2.1-.4.2-.6.2s-.4-.2-.5-.4l-.6-1.2c-1.5-3-2.5-5.2-3.1-6.8-1.6-4.2-2.7-9.6-2.7-9.6-.1-.6-.8-1-1.4-.9-.3.1-.6.2-.8.5s-.2.6-.2.9c0 .1 1.1 5.5 2.8 10 2.2 5.8 8.8 17.4 8.8 17.5l3.5 7c.1.3.1.7-.2.9-.2.2-.6.3-.9.1l-3.1-1.8c-5.4-3.2-7.8-10-8-10.7-.1-.3-.3-.6-.7-.8-.3-.3-.4-.4-.6-.4zm63.2 11.9c-5.6 0-9.7-2.9-10.5-3.9-2.9-2.9-4.4-5.9-4.4-8.9 0-3.7 4.4-8.9 4.7-9.2l11.4-14.1c3.9-5.7 5.3-10.1 5.5-10.6.2-.7.7-1.3 1.4-1.7.6-.3 1.3-.4 2-.1.6.2 1.2.6 1.5 1.3.3.6.4 1.4.2 2s-1.7 5.6-6.2 12.2c-.6.9-1.2 1.8-1.8 2.6l-.1.2 1.6 2 .2-.3c1.1-1.4 1.9-2.5 2.6-3.5 4.2-6.1 6.6-13.8 6.6-13.9.4-1.3 1.7-2.1 3.1-1.8.9.3 1.5.7 1.9 1.4.3.6.4 1.4.2 2.1 0 .1-2.5 8.3-7.3 15.3-.8 1.2-1.9 2.7-3.6 4.9l-.2.2 1.3 1.6.2-.3c2-2.5 3.4-4.5 4.3-5.9 2.2-3.5 4.2-8.2 4.4-8.7.5-1.3 2.1-2 3.5-1.4.7.3 1.2.8 1.5 1.5s.3 1.4 0 2c0 0-2.2 5.3-4.8 9.5-3.1 4.9-10.7 13.8-12.2 15.5l-3.2 4.2 1-.3c5.3-1.8 8.8-7.6 9.2-8.2.3-.6 1-1.1 1.7-1.3s1.4-.1 2 .3c1.3.8 1.7 2.4 1 3.6-.2.4-5.4 9.9-14.7 11.4-1.6.1-2.8.3-4 .3zm9.2-47.2c-.2 0-.3.1-.4.1-.3.2-.5.4-.6.8-.2.5-1.7 5.2-5.7 11.1l-1.8 2.2-9.7 12c-1.2 1.4-4.3 5.6-4.3 8.3 0 2.6 1.3 5.2 4 7.8.8.8 6 4.6 12.9 3 8.6-1.5 13.6-10.6 13.6-10.7.3-.6.1-1.3-.5-1.6-.2-.2-.5-.2-.8-.1-.4.1-.7.4-.8.6-.7 1.2-4.3 6.9-10 8.9l-3.4 1.2c-.3.1-.7 0-.9-.3s-.2-.6 0-.9l4.8-6.2c1.5-1.8 9.1-10.6 12.1-15.4 2.5-4 4.6-9.2 4.7-9.3.1-.3.1-.6 0-.9-.1-.4-.4-.5-.7-.6-.6-.2-1.3.1-1.5.6-.2.6-2.2 5.3-4.5 8.9-.9 1.5-2.4 3.5-4.4 6l-.8 1.1c-.1.2-.4.3-.6.3-.2 0-.4-.1-.6-.3l-2.2-2.8c-.2-.3-.2-.7 0-.9l.5-.7c1.7-2.2 2.8-3.6 3.6-4.9 4.6-6.8 7.1-14.9 7.1-14.9.1-.3.1-.6-.1-.9-.1-.2-.3-.5-.9-.6-.5-.1-1.1.2-1.3.8 0 0-2.5 8-6.8 14.3-.7 1-1.5 2.2-2.6 3.6l-.8 1.1c-.1.2-.4.3-.6.3s-.5-.1-.6-.3l-2.5-3.2c-.2-.3-.2-.6 0-.9l.5-.7c.6-.8 1.2-1.7 1.8-2.6 4.4-6.4 5.9-11.2 6-11.8.1-.3.1-.6-.1-.9s-.4-.5-.7-.6c-.2.1-.3 0-.4 0zm-33.6 28.1c-7.9 0-14.5-6.4-14.5-13.9 0-6.1-2.3-8.3-4.4-10.2-.3-.3-.6-.5-.8-.8-7.3-6.6-10.9-13.5-10.9-20.8 0-20.7 11.7-33.6 30.7-33.6 18.9 0 30.7 12.9 30.7 33.6 0 7.4-3.6 14.2-11 20.9-.2.2-.5.5-.8.8-2 1.9-4.4 4.1-4.4 10.2 0 7.4-6.7 13.8-14.6 13.8zm0-77.9c-14.1 0-29.2 8.4-29.2 32.1 0 6.9 3.4 13.4 10.5 19.8.3.3.5.5.8.8 2 1.9 4.8 4.5 4.8 11.3 0 6.7 6 12.4 13 12.4 7.1 0 13-5.7 13-12.4 0-6.8 2.8-9.4 4.8-11.3.3-.3.5-.5.8-.8 7.1-6.4 10.5-12.9 10.5-19.8.2-23.7-14.9-32.1-29-32.1zm0 70.6c-3.6 0-5.6-1.7-5.9-4.9-.3-3 0-9 .7-11.9.9-3.4 2.3-7.4 5.1-7.4 3.2 0 4.6 5.1 5.2 7.3.8 3 1 9 .7 11.9-.2 3.3-2.2 5-5.8 5zm0-22.7c-2.1 0-3.3 4.7-3.7 6.2-.7 2.7-1 8.6-.7 11.4.3 2.5 1.6 3.6 4.4 3.6s4.1-1.1 4.4-3.6c.3-3.1 0-8.9-.7-11.4-.4-1.5-1.6-6.2-3.7-6.2zm12.6-10c-3.2 0-5.8-2.6-5.8-5.8s2.6-5.8 5.8-5.8 5.8 2.6 5.8 5.8-2.6 5.8-5.8 5.8zm0-10.1c-2.4 0-4.3 1.9-4.3 4.3s1.9 4.3 4.3 4.3 4.3-1.9 4.3-4.3-1.9-4.3-4.3-4.3zm-25.1 10.1c-3.2 0-5.8-2.6-5.8-5.8s2.6-5.8 5.8-5.8 5.8 2.6 5.8 5.8-2.6 5.8-5.8 5.8zm0-10.1c-2.4 0-4.3 1.9-4.3 4.3s1.9 4.3 4.3 4.3 4.3-1.9 4.3-4.3-2-4.3-4.3-4.3z" fill="url(#g)"/><path d="m975 783.5h346c4.1 0 7.5 3.4 7.5 7.5v32c0 4.1-3.4 7.5-7.5 7.5h-346c-4.1 0-7.5-3.4-7.5-7.5v-32c0-4.1 3.4-7.5 7.5-7.5z" fill="#121835" stroke="#1b2450"/><path d="m984.5 797h327c1.9 0 3.5 1.6 3.5 3.5 0 1.9-1.6 3.5-3.5 3.5h-327c-1.9 0-3.5-1.6-3.5-3.5 0-1.9 1.6-3.5 3.5-3.5z" fill="#424962" opacity=".5"/><path d="m984.5 810h282c1.9 0 3.5 1.6 3.5 3.5 0 1.9-1.6 3.5-3.5 3.5h-282c-1.9 0-3.5-1.6-3.5-3.5 0-1.9 1.6-3.5 3.5-3.5z" fill="#424962" opacity=".5"/><path d="m975 701.5h94c4.1 0 7.5 3.4 7.5 7.5v50c0 4.1-3.4 7.5-7.5 7.5h-94c-4.1 0-7.5-3.4-7.5-7.5v-50c0-4.1 3.4-7.5 7.5-7.5z" fill="#121835" stroke="#1b2450"/><path d="m983.3 742.3v8.3h1.2v-9.4h-3.2v1.1z" fill="#919cbd"/><path d="m988.9 745.7c1.5 0 2.3.8 2.3 1.9 0 1.2-.8 2-2 2s-1.9-.7-1.9-1.9h-1.3c0 2 1.3 3.1 3.2 3.1s3.3-1.2 3.3-3.1c0-1.7-1.2-2.8-2.8-3l2.6-2.5v-1h-5.8v1.1h4.2l-2.7 2.6v.8z" fill="#919cbd"/><path d="m995.5 750.1c0-.7-.4-1.2-1-1.2-.5 0-.9.4-.9.9s.4.8.8.8c.2 0 .3 0 .4-.1 0 .4-.4.8-.9.8v.5c.9 0 1.6-.8 1.6-1.7z" fill="#919cbd"/><path d="m1002.1 747.6c1-1.3 1.3-2.1 1.3-3.2 0-1.9-1.5-3.4-3.5-3.4-1.9 0-3.4 1.4-3.4 3.4 0 1.9 1.3 3.3 3.3 3.3.3 0 .7-.1 1-.2l-2.4 3.1h1.5zm0-3.2c0 1.3-.9 2.2-2.2 2.2-1.2 0-2.1-.9-2.1-2.2s.9-2.2 2.1-2.2c1.3-.1 2.2.9 2.2 2.2z" fill="#919cbd"/><path d="m1010.8 750.5v-1.2h-4.3l2-1.7c1.7-1.4 2.3-2.4 2.3-3.7 0-1.8-1.2-3-3.1-3s-3.2 1.3-3.2 3.3h1.3c0-1.3.8-2.2 1.9-2.2s1.8.7 1.8 1.9c0 1-.4 1.6-1.9 3l-3 2.6v1z" fill="#919cbd"/><path d="m1014.8 745.7c1.5 0 2.3.8 2.3 1.9 0 1.2-.8 2-2 2s-1.9-.7-1.9-1.9h-1.3c0 2 1.3 3.1 3.2 3.1s3.4-1.2 3.4-3.1c0-1.7-1.2-2.8-2.8-3l2.6-2.5v-1h-5.8v1.1h4.2l-2.7 2.6v.8z" fill="#919cbd"/><path d="m1020.4 750.7c.5 0 .9-.4.9-.9s-.4-.9-.9-.9-.9.4-.9.9.4.9.9.9z" fill="#919cbd"/><path d="m1022.3 745.9c0 2.9 1.5 4.9 3.9 4.9s3.9-1.9 3.9-4.9c0-2.9-1.5-4.9-3.9-4.9s-3.9 2-3.9 4.9zm1.2 0c0-2.3 1-3.7 2.6-3.7s2.6 1.4 2.6 3.7-1 3.7-2.6 3.7-2.6-1.4-2.6-3.7z" fill="#919cbd"/><path d="m1031.3 745.9c0 2.9 1.4 4.9 3.9 4.9 2.4 0 3.9-1.9 3.9-4.9 0-2.9-1.5-4.9-3.9-4.9s-3.9 2-3.9 4.9zm1.3 0c0-2.3 1-3.7 2.6-3.7s2.6 1.4 2.6 3.7-1 3.7-2.6 3.7c-1.7 0-2.6-1.4-2.6-3.7z" fill="#919cbd"/><path d="m982.6 723.5v-2.8h1.8l1.3 2.8h1.1l-1.4-3c.9-.3 1.4-1 1.4-2 0-1.3-.9-2.1-2.4-2.1h-2.7v7h.9zm0-6.2h1.7c.9 0 1.4.4 1.4 1.3 0 .8-.5 1.3-1.4 1.3h-1.7z" fill="#919cbd"/><path d="m989.6 723.6c1.2 0 2-.6 2.2-1.6h-.8c-.2.5-.6.8-1.3.8-.9 0-1.4-.6-1.5-1.6h3.7v-.3c0-1.4-.9-2.4-2.2-2.4-1.4 0-2.3 1-2.3 2.5-.2 1.6.8 2.6 2.2 2.6zm0-4.3c.8 0 1.3.5 1.3 1.3h-2.7c0-.8.6-1.3 1.4-1.3z" fill="#919cbd"/><path d="m993.7 723.5h.9l.8-2.5c.2-.6.3-.9.3-1.1 0 .3.1.6.3 1.1l.8 2.6h.9l1.6-4.8h-1l-.8 2.5c-.1.4-.2.8-.3 1.1-.1-.3-.2-.9-.3-1.1l-.8-2.5h-.9l-.8 2.5c-.1.3-.2.7-.3 1.1-.1-.4-.2-.8-.3-1.1l-.8-2.5h-.9z" fill="#919cbd"/><path d="m1001.3 723.6c.8 0 1.4-.3 1.7-.9l.1.8h.8v-3c0-1.3-.8-1.9-2-1.9s-2.1.7-2.1 1.6h.8c0-.6.4-.9 1.2-.9.6 0 1.1.3 1.1 1.1v.1l-1.5.1c-1.1.1-1.8.6-1.8 1.5.1.9.7 1.5 1.7 1.5zm.3-.7c-.6 0-1-.3-1-.8s.3-.8 1.1-.9l1.2-.1v.3c.1.9-.4 1.5-1.3 1.5z" fill="#919cbd"/><path d="m1007.9 718.7c-.2 0-.3-.1-.5-.1-.7 0-1.1.3-1.3.8l-.1-.7h-.8v4.8h.9v-2.5c0-.9.5-1.4 1.4-1.4h.4z" fill="#919cbd"/><path d="m1010.5 723.6c.8 0 1.4-.3 1.7-1l.1.9h.8v-7.2h-.9v3.2c-.3-.6-.9-.9-1.7-.9-1.4 0-2.3 1.1-2.3 2.5 0 1.5.9 2.5 2.3 2.5zm.2-.8c-.9 0-1.5-.7-1.5-1.7s.5-1.7 1.5-1.7 1.5.7 1.5 1.7-.6 1.7-1.5 1.7z" fill="#919cbd"/><path d="m1101 701.5h94c4.1 0 7.5 3.4 7.5 7.5v50c0 4.1-3.4 7.5-7.5 7.5h-94c-4.1 0-7.5-3.4-7.5-7.5v-50c0-4.1 3.4-7.5 7.5-7.5z" fill="#121835" stroke="#1b2450"/><path d="m1112.3 747.6c1-1.3 1.3-2.1 1.3-3.2 0-1.9-1.5-3.4-3.5-3.4-1.9 0-3.4 1.4-3.4 3.4 0 1.9 1.3 3.3 3.3 3.3.3 0 .7-.1 1-.2l-2.3 3.1h1.5zm0-3.2c0 1.3-.9 2.2-2.2 2.2-1.2 0-2.1-.9-2.1-2.2s.9-2.2 2.1-2.2c1.3-.1 2.2.9 2.2 2.2z" fill="#919cbd"/><path d="m1117.3 745.7c1.5 0 2.3.8 2.3 1.9 0 1.2-.8 2-2 2s-1.9-.7-1.9-1.9h-1.3c0 2 1.3 3.1 3.2 3.1s3.3-1.2 3.3-3.1c0-1.7-1.2-2.8-2.8-3l2.6-2.5v-1h-5.8v1.1h4.2l-2.7 2.6v.8z" fill="#919cbd"/><path d="m1121.9 747.9c0 1.7 1.4 2.8 3.5 2.8s3.5-1.1 3.5-2.8c0-1.2-.7-2.1-1.7-2.4.9-.4 1.4-1.1 1.4-2.1 0-1.5-1.2-2.5-3.1-2.5s-3.1 1-3.1 2.5c0 .9.5 1.7 1.4 2.1-1.2.4-1.9 1.3-1.9 2.4zm1.5-4.4c0-.9.8-1.4 1.9-1.4 1.2 0 1.9.6 1.9 1.5s-.7 1.5-1.9 1.5c-1.1 0-1.9-.6-1.9-1.6zm-.2 4.4c0-1 .9-1.7 2.2-1.7s2.2.7 2.2 1.7c0 1.1-.9 1.7-2.2 1.7s-2.2-.7-2.2-1.7z" fill="#919cbd"/><path d="m1136.2 750.5v-1.2h-4.3l1.9-1.7c1.7-1.4 2.3-2.4 2.3-3.7 0-1.8-1.2-3-3.1-3s-3.2 1.3-3.2 3.3h1.3c0-1.3.8-2.2 1.9-2.2s1.8.7 1.8 1.9c0 1-.4 1.6-1.9 3l-3 2.6v1z" fill="#919cbd"/><path d="m1107 723.5h2.8c1.4 0 2.2-.7 2.2-1.9 0-.8-.4-1.4-1.2-1.7.7-.3 1.1-.8 1.1-1.6 0-1.2-.8-1.9-2.2-1.9h-2.7zm2.6-6.2c.8 0 1.3.4 1.3 1.1s-.4 1.2-1.2 1.2h-1.7v-2.3zm.2 3.1c.8 0 1.3.4 1.3 1.1s-.5 1.2-1.3 1.2h-1.8v-2.3z" fill="#919cbd"/><path d="m1114 723.5v-7.2h-.9v7.2z" fill="#919cbd"/><path d="m1115.1 721.1c0 1.5 1.1 2.5 2.5 2.5s2.5-1 2.5-2.5-1.1-2.5-2.5-2.5c-1.5 0-2.5 1-2.5 2.5zm.9 0c0-1 .6-1.7 1.6-1.7.9 0 1.6.7 1.6 1.7s-.6 1.7-1.6 1.7-1.6-.7-1.6-1.7z" fill="#919cbd"/><path d="m1120.7 721.1c0 1.5.9 2.5 2.3 2.5 1.1 0 2-.7 2.2-1.7h-.9c-.2.6-.7.9-1.3.9-.9 0-1.4-.7-1.4-1.7s.6-1.7 1.5-1.7c.6 0 1.1.3 1.3.9h.9c-.2-1.1-1-1.7-2.2-1.7-1.4 0-2.4 1-2.4 2.5z" fill="#919cbd"/><path d="m1127.2 723.5v-1.4l.8-.8 1.4 2.2h1.1l-1.8-2.9 1.8-1.9h-1.1l-2.1 2.2v-4.7h-.9v7.2h.8z" fill="#919cbd"/><path d="m1130.8 722.1c0 .9.7 1.5 1.8 1.5s1.9-.6 1.9-1.5c0-.7-.4-1.1-1.2-1.3l-.8-.2c-.5-.1-.7-.3-.7-.7s.3-.7.9-.7.9.3.9.8h.9c0-.9-.7-1.5-1.8-1.5s-1.8.6-1.8 1.4c0 .7.4 1.1 1.2 1.3l.8.2c.5.1.7.3.7.6 0 .4-.4.7-1 .7s-1-.3-1-.8h-.8z" fill="#919cbd"/><path d="m1227 701.5h94c4.1 0 7.5 3.4 7.5 7.5v50c0 4.1-3.4 7.5-7.5 7.5h-94c-4.1 0-7.5-3.4-7.5-7.5v-50c0-4.1 3.4-7.5 7.5-7.5z" fill="#121835" stroke="#1b2450"/><path d="m1237.6 747.6c1-1.3 1.3-2.1 1.3-3.2 0-1.9-1.5-3.4-3.5-3.4-1.9 0-3.4 1.4-3.4 3.4 0 1.9 1.3 3.3 3.3 3.3.3 0 .7-.1 1-.2l-2.4 3.1h1.5zm0-3.2c0 1.3-.9 2.2-2.2 2.2-1.2 0-2.1-.9-2.1-2.2s.9-2.2 2.1-2.2c1.3-.1 2.2.9 2.2 2.2z" fill="#919cbd"/><path d="m1246.3 750.5v-1.2h-4.3l1.9-1.7c1.7-1.4 2.3-2.4 2.3-3.7 0-1.8-1.2-3-3.1-3s-3.2 1.3-3.2 3.3h1.3c0-1.3.8-2.2 1.9-2.2s1.8.7 1.8 1.9c0 1-.4 1.6-1.9 3l-3 2.6v1z" fill="#919cbd"/><path d="m1252.2 743.4c0-1.4-1-2.4-2.4-2.4s-2.4 1-2.4 2.4 1 2.4 2.4 2.4 2.4-1 2.4-2.4zm4.9-2.2h-1.2l-7.1 9.4h1.2zm-5.9 2.2c0 .8-.6 1.4-1.4 1.4s-1.4-.6-1.4-1.4.6-1.4 1.4-1.4 1.4.5 1.4 1.4zm7.3 4.9c0-1.4-1-2.4-2.4-2.4s-2.4 1-2.4 2.4 1 2.4 2.4 2.4 2.4-1 2.4-2.4zm-1 0c0 .8-.6 1.4-1.4 1.4s-1.4-.6-1.4-1.4.6-1.4 1.4-1.4 1.4.6 1.4 1.4z" fill="#919cbd"/><path d="m1231.9 718.3c0 1 .6 1.7 1.7 1.9l1.2.3c.7.2 1 .5 1 1.1 0 .7-.6 1.1-1.5 1.1s-1.5-.4-1.5-1.1h-1c.1 1.2 1 2 2.5 2s2.5-.8 2.5-2.1c0-1-.6-1.6-1.7-1.9l-1.2-.3c-.7-.2-1-.5-1-1.1 0-.7.6-1.1 1.5-1.1.8 0 1.3.4 1.3 1.1h1c-.1-1.2-1-2-2.3-2-1.5.1-2.5.9-2.5 2.1z" fill="#919cbd"/><path d="m1239.2 723.5v-4h.9v-.8h-.9v-1.5h-.9v1.5h-.9v.8h.9v4z" fill="#919cbd"/><path d="m1240.6 721.1c0 1.5 1.1 2.5 2.5 2.5s2.5-1 2.5-2.5-1.1-2.5-2.5-2.5c-1.5 0-2.5 1-2.5 2.5zm.9 0c0-1 .6-1.7 1.6-1.7.9 0 1.6.7 1.6 1.7s-.6 1.7-1.6 1.7-1.6-.7-1.6-1.7z" fill="#919cbd"/><path d="m1249.3 718.7c-.2 0-.3-.1-.5-.1-.7 0-1.1.3-1.3.8l-.1-.7h-.9v4.8h.9v-2.5c0-.9.5-1.4 1.4-1.4h.4v-.9z" fill="#919cbd"/><path d="m1251.3 723.6c.8 0 1.4-.3 1.7-.9l.1.8h.8v-3c0-1.3-.8-1.9-2-1.9s-2.1.7-2.1 1.6h.8c0-.6.4-.9 1.2-.9.6 0 1.1.3 1.1 1.1v.1l-1.5.1c-1.1.1-1.8.6-1.8 1.5.1.9.7 1.5 1.7 1.5zm.3-.7c-.6 0-1-.3-1-.8s.3-.8 1.1-.9l1.2-.1v.3c.1.9-.4 1.5-1.3 1.5z" fill="#919cbd"/><path d="m1254.8 721c0 1.3.8 2.4 2.2 2.4.8 0 1.4-.3 1.7-.9v1c0 .9-.6 1.5-1.5 1.5-.8 0-1.3-.4-1.4-1.1h-.9c.2 1.2 1.1 1.9 2.4 1.9 1.5 0 2.4-1 2.4-2.5v-4.6h-.8l-.1.8c-.3-.6-.9-.9-1.7-.9-1.4 0-2.3 1-2.3 2.4zm1-.1c0-.9.6-1.6 1.5-1.6s1.5.7 1.5 1.6-.6 1.6-1.5 1.6c-1 0-1.5-.7-1.5-1.6z" fill="#919cbd"/><path d="m1263 723.6c1.2 0 2-.6 2.2-1.6h-.9c-.2.5-.6.8-1.3.8-.9 0-1.4-.6-1.5-1.6h3.7v-.3c0-1.4-.9-2.4-2.2-2.4-1.4 0-2.3 1-2.3 2.5 0 1.6.9 2.6 2.3 2.6zm0-4.3c.8 0 1.3.5 1.3 1.3h-2.8c.2-.8.7-1.3 1.5-1.3z" fill="#919cbd"/><path d="m975 322.5h346c4.1 0 7.5 3.4 7.5 7.5v111c0 4.1-3.4 7.5-7.5 7.5h-346c-4.1 0-7.5-3.4-7.5-7.5v-111c0-4.1 3.4-7.5 7.5-7.5z" fill="#121835" stroke="#1b2450"/><path d="m985.8 349.1v-.9h-3.3l1.5-1.3c1.2-1.1 1.7-1.8 1.7-2.8 0-1.4-.9-2.2-2.3-2.2s-2.4 1-2.4 2.5h1c0-1 .6-1.6 1.5-1.6.8 0 1.4.5 1.4 1.4 0 .8-.3 1.2-1.5 2.2l-2.3 2v.7z" fill="#919cbd"/><path d="m989.8 349.1 2.8-7h-.9l-2.8 7z" fill="#919cbd"/><path d="m996.6 344.3c-.7 1-1 1.6-1 2.4 0 1.4 1.1 2.5 2.6 2.5s2.6-1.1 2.6-2.5-1-2.4-2.5-2.4c-.2 0-.5 0-.7.1l1.8-2.3h-1.1zm0 2.4c0-1 .7-1.6 1.6-1.6s1.6.7 1.6 1.6c0 1-.7 1.7-1.6 1.7-1-.1-1.6-.7-1.6-1.7z" fill="#919cbd"/><path d="m1005.8 349.1h.9l2-4.8h-1l-1.1 2.7c-.2.4-.3.8-.4 1.1-.1-.3-.2-.7-.4-1.1l-1-2.7h-1z" fill="#919cbd"/><path d="m1008.9 346.7c0 1.5 1.1 2.5 2.5 2.5s2.5-1 2.5-2.5-1-2.5-2.5-2.5c-1.4 0-2.5 1-2.5 2.5zm.9 0c0-1 .6-1.7 1.6-1.7.9 0 1.6.7 1.6 1.7s-.7 1.7-1.6 1.7-1.6-.7-1.6-1.7z" fill="#919cbd"/><path d="m1016.2 349.1v-4h.9v-.8h-.9v-1.5h-.9v1.5h-.9v.8h.9v4z" fill="#919cbd"/><path d="m1020 349.2c1.2 0 2-.6 2.2-1.6h-.9c-.2.5-.6.8-1.3.8-.9 0-1.4-.6-1.5-1.6h3.7v-.3c0-1.4-.9-2.4-2.2-2.4-1.4 0-2.3 1-2.3 2.5-.1 1.6.8 2.6 2.3 2.6zm-.1-4.2c.8 0 1.3.5 1.3 1.3h-2.8c.2-.9.7-1.3 1.5-1.3z" fill="#919cbd"/><path d="m1022.8 347.7c0 .9.7 1.5 1.8 1.5s1.9-.6 1.9-1.5c0-.7-.4-1.1-1.2-1.3l-.8-.2c-.5-.1-.7-.3-.7-.7s.3-.7.9-.7.9.3.9.8h.9c0-.9-.7-1.5-1.8-1.5-1 0-1.8.6-1.8 1.4 0 .7.4 1.1 1.3 1.3l.8.2c.5.1.7.3.7.6 0 .4-.4.7-1 .7s-1-.3-1-.8h-.9z" fill="#919cbd"/><path d="m981 364.5c0-1.9 1.6-3.5 3.5-3.5h323c1.9 0 3.5 1.6 3.5 3.5s-1.6 3.5-3.5 3.5h-323c-1.9 0-3.5-1.6-3.5-3.5z" fill="#424962" opacity=".5"/><path d="m981 364.5c0-1.9 1.6-3.5 3.5-3.5h69c1.9 0 3.5 1.6 3.5 3.5s-1.6 3.5-3.5 3.5h-69c-1.9 0-3.5-1.6-3.5-3.5z" fill="url(#h)"/><path d="m983.4 413.1c1.5 0 2.6-1 2.6-2.5 0-1.4-.9-2.4-2.4-2.4-.5 0-1 .1-1.4.4l.5-1.9h2.8v-.7h-3.5l-.9 3.6.8.2c.3-.4.9-.7 1.5-.7 1 0 1.6.7 1.6 1.6 0 1-.6 1.6-1.6 1.6-.9 0-1.5-.6-1.5-1.5h-.9c0 1.4.9 2.3 2.4 2.3z" fill="#919cbd"/><path d="m986.8 409.5c0 2.2 1.1 3.6 2.9 3.6s2.9-1.5 2.9-3.6c0-2.2-1.1-3.7-2.9-3.7s-2.9 1.5-2.9 3.7zm.9 0c0-1.8.7-2.8 2-2.8s2 1.1 2 2.8-.7 2.8-2 2.8-2-1.1-2-2.8z" fill="#919cbd"/><path d="m997 407.6c0-1.1-.7-1.8-1.8-1.8-1 0-1.8.8-1.8 1.8s.7 1.8 1.8 1.8 1.8-.7 1.8-1.8zm3.7-1.6h-.9l-5.4 7h.9zm-4.4 1.6c0 .6-.4 1.1-1 1.1s-1-.4-1-1.1c0-.6.4-1.1 1-1.1.6.1 1 .5 1 1.1zm5.4 3.7c0-1.1-.8-1.8-1.8-1.8s-1.8.7-1.8 1.8c0 1 .8 1.8 1.8 1.8 1.1 0 1.8-.7 1.8-1.8zm-.7 0c0 .6-.4 1.1-1 1.1s-1-.4-1-1.1c0-.6.4-1.1 1-1.1.6.1 1 .5 1 1.1z" fill="#919cbd"/><path d="m1005.7 413 2.8-7h-.9l-2.8 7z" fill="#919cbd"/><path d="m1014 413.1c1.5 0 2.6-1 2.6-2.5 0-1.4-.9-2.4-2.4-2.4-.5 0-1 .1-1.4.4l.5-1.9h2.8v-.7h-3.5l-.9 3.6.8.2c.3-.4.9-.7 1.5-.7 1 0 1.6.7 1.6 1.6 0 1-.6 1.6-1.6 1.6-.9 0-1.5-.6-1.5-1.5h-.9c0 1.4.9 2.3 2.4 2.3z" fill="#919cbd"/><path d="m1017.4 409.5c0 2.2 1.1 3.6 2.9 3.6s2.9-1.5 2.9-3.6c0-2.2-1.1-3.7-2.9-3.7s-2.9 1.5-2.9 3.7zm.9 0c0-1.8.7-2.8 2-2.8 1.2 0 1.9 1.1 1.9 2.8s-.7 2.8-1.9 2.8c-1.3 0-2-1.1-2-2.8z" fill="#919cbd"/><path d="m1027.6 407.6c0-1.1-.7-1.8-1.8-1.8-1 0-1.8.8-1.8 1.8s.7 1.8 1.8 1.8 1.8-.7 1.8-1.8zm3.7-1.6h-.9l-5.3 7h.9zm-4.4 1.6c0 .6-.4 1.1-1 1.1s-1-.4-1-1.1c0-.6.4-1.1 1-1.1.6.1 1 .5 1 1.1zm5.4 3.7c0-1.1-.8-1.8-1.8-1.8s-1.8.7-1.8 1.8c0 1 .8 1.8 1.8 1.8 1.1 0 1.8-.7 1.8-1.8zm-.7 0c0 .6-.4 1.1-1 1.1s-1-.4-1-1.1c0-.6.4-1.1 1-1.1.6.1 1 .5 1 1.1z" fill="#919cbd"/><path d="m1037.4 413v-4h.9v-.8h-.9v-1.5h-.9v1.5h-.9v.8h.9v4z" fill="#919cbd"/><path d="m1041.9 408.2c-.2 0-.3-.1-.5-.1-.7 0-1.1.3-1.3.8l-.1-.7h-.9v4.8h.9v-2.5c0-.9.5-1.4 1.4-1.4h.4v-.9z" fill="#919cbd"/><path d="m1044.7 413.1c1.2 0 2-.6 2.2-1.6h-.9c-.2.5-.6.8-1.3.8-.9 0-1.4-.6-1.5-1.6h3.7v-.3c0-1.4-.9-2.4-2.2-2.4-1.4 0-2.3 1-2.3 2.5-.1 1.6.8 2.6 2.3 2.6zm-.1-4.2c.8 0 1.3.5 1.3 1.3h-2.8c.2-.8.7-1.3 1.5-1.3z" fill="#919cbd"/><path d="m1047.5 411.6c0 .9.7 1.5 1.8 1.5s1.9-.6 1.9-1.5c0-.7-.4-1.1-1.2-1.3l-.8-.2c-.5-.1-.7-.3-.7-.7s.3-.7.9-.7.9.3.9.8h.9c0-.9-.7-1.5-1.8-1.5s-1.8.6-1.8 1.4c0 .7.4 1.1 1.2 1.3l.8.2c.5.1.7.3.7.6 0 .4-.4.7-1 .7s-1-.3-1-.8h-.8z" fill="#919cbd"/><path d="m1053.2 413v-2.6c0-.8.5-1.5 1.4-1.5.7 0 1.1.4 1.1 1.4v2.7h.9v-2.9c0-1.2-.6-2-1.8-2-.7 0-1.3.4-1.6.9v-3.1h-.9v7.2h.9z" fill="#919cbd"/><path d="m1057.6 410.6c0 1.5 1 2.5 2.5 2.5 1.4 0 2.5-1 2.5-2.5s-1.1-2.5-2.5-2.5c-1.5 0-2.5 1.1-2.5 2.5zm.9 0c0-1 .6-1.7 1.6-1.7.9 0 1.6.7 1.6 1.7s-.7 1.7-1.6 1.7c-1 0-1.6-.7-1.6-1.7z" fill="#919cbd"/><path d="m1064.5 413v-7.2h-.9v7.2z" fill="#919cbd"/><path d="m1067.7 413.1c.8 0 1.4-.3 1.7-1l.1.9h.8v-7.2h-.9v3.2c-.3-.6-.9-.9-1.7-.9-1.4 0-2.3 1.1-2.3 2.5.1 1.5.9 2.5 2.3 2.5zm.2-.8c-.9 0-1.5-.7-1.5-1.7s.5-1.7 1.5-1.7c.9 0 1.5.7 1.5 1.7s-.6 1.7-1.5 1.7z" fill="#919cbd"/><path d="m981 428.5c0-1.9 1.6-3.5 3.5-3.5h323c1.9 0 3.5 1.6 3.5 3.5s-1.6 3.5-3.5 3.5h-323c-1.9 0-3.5-1.6-3.5-3.5z" fill="#424962" opacity=".5"/><path d="m981 428.5c0-1.9 1.6-3.5 3.5-3.5h150c1.9 0 3.5 1.6 3.5 3.5s-1.6 3.5-3.5 3.5h-150c-1.9 0-3.5-1.6-3.5-3.5z" fill="url(#i)"/><path d="m981 386h330v1h-330z" fill="#1b2450"/><path d="m975 475.5h152c4.1 0 7.5 3.4 7.5 7.5v184c0 4.1-3.4 7.5-7.5 7.5h-152c-4.1 0-7.5-3.4-7.5-7.5v-184c0-4.1 3.4-7.5 7.5-7.5z" fill="#121835" stroke="#1b2450"/><path d="m1022.8 532.5c1.6 0 2.8-.9 3.2-2.3h-1c-.3.9-1.1 1.4-2.1 1.4-1.4 0-2.4-1.1-2.4-2.7s.9-2.7 2.4-2.7c1 0 1.8.6 2.1 1.5h1c-.3-1.4-1.5-2.4-3.1-2.4-2 0-3.4 1.5-3.4 3.6-.1 2.2 1.2 3.6 3.3 3.6z" fill="#919cbd"/><path d="m1029.7 527.6c-.2 0-.3-.1-.5-.1-.7 0-1.1.3-1.3.8l-.1-.7h-.8v4.8h.9v-2.5c0-.9.5-1.4 1.4-1.4h.4z" fill="#919cbd"/><path d="m1032.4 532.5c1.2 0 2-.6 2.2-1.6h-.9c-.2.5-.6.8-1.3.8-.9 0-1.4-.6-1.5-1.6h3.7v-.3c0-1.4-.9-2.3-2.2-2.3-1.4 0-2.3 1-2.3 2.5-.1 1.5.9 2.5 2.3 2.5zm-.1-4.2c.8 0 1.3.5 1.3 1.3h-2.8c.3-.8.8-1.3 1.5-1.3z" fill="#919cbd"/><path d="m1037 532.5c.8 0 1.4-.3 1.7-.9l.1.8h.8v-3c0-1.3-.8-1.9-2-1.9s-2.1.7-2.1 1.6h.8c0-.6.4-.9 1.2-.9.7 0 1.1.3 1.1 1.1v.1l-1.5.1c-1.1.1-1.8.6-1.8 1.5 0 1 .6 1.5 1.7 1.5zm.2-.7c-.6 0-1-.3-1-.8s.3-.8 1.2-.9l1.2-.1v.3c0 1-.5 1.5-1.4 1.5z" fill="#919cbd"/><path d="m1042.1 532.4v-4h.9v-.8h-.9v-1.5h-.9v1.5h-.9v.8h.9v4z" fill="#919cbd"/><path d="m1045.8 532.5c1.2 0 2-.6 2.2-1.6h-.8c-.2.5-.6.8-1.3.8-.9 0-1.4-.6-1.5-1.6h3.7v-.3c0-1.4-.9-2.3-2.2-2.3-1.4 0-2.3 1-2.3 2.5-.2 1.5.8 2.5 2.2 2.5zm0-4.2c.8 0 1.3.5 1.3 1.3h-2.8c.2-.8.7-1.3 1.5-1.3z" fill="#919cbd"/><path d="m1051 532.5c.8 0 1.4-.3 1.7-1l.1.9h.8v-7.2h-.9v3.2c-.3-.6-.9-.9-1.7-.9-1.4 0-2.3 1.1-2.3 2.5 0 1.5.9 2.5 2.3 2.5zm.1-.8c-.9 0-1.5-.7-1.5-1.7s.5-1.7 1.5-1.7c.9 0 1.5.7 1.5 1.7.1 1-.5 1.7-1.5 1.7z" fill="#919cbd"/><path d="m1020.8 541.4v6.2h.9v-7h-2.4v.9h1.5z" fill="#353b53"/><path d="m1027.8 547.6v-.9h-3.3l1.5-1.3c1.2-1.1 1.7-1.8 1.7-2.8 0-1.4-.9-2.2-2.3-2.2s-2.4 1-2.4 2.5h1c0-1 .6-1.6 1.5-1.6.8 0 1.4.5 1.4 1.4 0 .8-.3 1.2-1.5 2.2l-2.3 2v.7z" fill="#353b53"/><path d="m1029.3 547.6 2.8-7h-.9l-2.8 7z" fill="#353b53"/><path d="m1032.4 544.1c0 2.2 1.1 3.6 2.9 3.6s2.9-1.5 2.9-3.6c0-2.2-1.1-3.7-2.9-3.7s-2.9 1.5-2.9 3.7zm.9 0c0-1.8.7-2.8 2-2.8s1.9 1.1 1.9 2.8-.7 2.8-1.9 2.8-2-1.1-2-2.8z" fill="#353b53"/><path d="m1043.2 545.4c.7-1 1-1.6 1-2.4 0-1.4-1.1-2.5-2.6-2.5-1.4 0-2.6 1.1-2.6 2.5s1 2.5 2.4 2.5c.2 0 .5 0 .7-.1l-1.8 2.3h1.1zm0-2.5c0 1-.7 1.6-1.6 1.6s-1.6-.7-1.6-1.6c0-1 .7-1.7 1.6-1.7 1 .1 1.6.8 1.6 1.7z" fill="#353b53"/><path d="m1045.5 547.6 2.8-7h-.9l-2.8 7z" fill="#353b53"/><path d="m1053.3 547.6v-.9h-3.3l1.5-1.3c1.2-1.1 1.7-1.8 1.7-2.8 0-1.4-.9-2.2-2.3-2.2s-2.4 1-2.4 2.5h1c0-1 .6-1.6 1.4-1.6.9 0 1.4.5 1.4 1.4 0 .8-.3 1.2-1.5 2.2l-2.3 2v.7z" fill="#353b53"/><path d="m1054.2 544.1c0 2.2 1.1 3.6 2.9 3.6s2.9-1.5 2.9-3.6c0-2.2-1.1-3.7-2.9-3.7s-2.9 1.5-2.9 3.7zm1 0c0-1.8.7-2.8 2-2.8 1.2 0 1.9 1.1 1.9 2.8s-.7 2.8-1.9 2.8c-1.3 0-2-1.1-2-2.8z" fill="#353b53"/><path d="m1065.7 547.6v-.9h-3.3l1.5-1.3c1.2-1.1 1.7-1.8 1.7-2.8 0-1.4-.9-2.2-2.3-2.2s-2.4 1-2.4 2.5h1c0-1 .6-1.6 1.4-1.6.9 0 1.4.5 1.4 1.4 0 .8-.3 1.2-1.5 2.2l-2.3 2v.7z" fill="#353b53"/><path d="m1071.3 547.6v-.9h-3.3l1.5-1.3c1.2-1.1 1.8-1.8 1.8-2.8 0-1.4-.9-2.2-2.3-2.2s-2.4 1-2.4 2.5h1c0-1 .6-1.6 1.4-1.6s1.3.5 1.3 1.4c0 .8-.3 1.2-1.5 2.2l-2.3 2v.7z" fill="#353b53"/><path d="m1073.9 547.2c0-.5-.3-.9-.7-.9s-.7.3-.7.7.3.6.6.6c.1 0 .2 0 .3-.1 0 .3-.3.6-.7.6v.4c.6 0 1.2-.6 1.2-1.3z" fill="#353b53"/><path d="m1079 541.4v6.2h.9v-7h-2.4v.9h1.5z" fill="#353b53"/><path d="m1081.2 544.1c0 2.2 1.1 3.6 2.9 3.6s2.9-1.5 2.9-3.6c0-2.2-1.1-3.7-2.9-3.7s-2.9 1.5-2.9 3.7zm1 0c0-1.8.7-2.8 2-2.8s1.9 1.1 1.9 2.8-.7 2.8-1.9 2.8-2-1.1-2-2.8z" fill="#353b53"/><path d="m1088.9 544.1c.4 0 .7-.3.7-.7s-.3-.7-.7-.7-.7.3-.7.7c0 .3.4.7.7.7zm0 3.6c.4 0 .7-.3.7-.7s-.3-.7-.7-.7-.7.3-.7.7.4.7.7.7z" fill="#353b53"/><path d="m1095.6 547.6v-.9h-3.2l1.5-1.3c1.2-1.1 1.7-1.8 1.7-2.8 0-1.4-.9-2.2-2.3-2.2s-2.4 1-2.4 2.5h1c0-1 .6-1.6 1.4-1.6s1.4.5 1.4 1.4c0 .8-.3 1.2-1.5 2.2l-2.3 2v.7z" fill="#353b53"/><path d="m1098.8 547.7c1.5 0 2.6-1 2.6-2.5 0-1.4-.9-2.4-2.4-2.4-.5 0-1 .1-1.4.4l.5-1.9h2.8v-.9h-3.5l-.9 3.6.8.2c.3-.4.9-.7 1.5-.7 1 0 1.6.7 1.6 1.6 0 1-.6 1.6-1.6 1.6-.9 0-1.5-.6-1.5-1.5h-.9c0 1.6.9 2.5 2.4 2.5z" fill="#353b53"/><path d="m1105.5 547.6.6-1.8h3l.6 1.8h1l-2.6-7h-1.1l-2.6 7zm2-5.5c0-.1.1-.3.1-.4 0 .1.1.3.1.4l1.1 2.9h-2.4z" fill="#353b53"/><path d="m1112.6 547.6v-3c0-1 0-1.7-.1-2l2.1 5.1h.9l2.1-5.1c-.1.5-.1 1-.1 2.3v2.8h.9v-7h-1l-2.4 5.9-2.4-5.9h-.9v7h.9z" fill="#353b53"/><path d="m1020.1 584.4.6-1.8h3l.6 1.8h1l-2.6-7h-1.1l-2.6 7zm2-5.5c0-.1.1-.3.1-.4 0 .1.1.3.1.4l1.1 2.9h-2.4z" fill="#919cbd"/><path d="m1025.6 582.1c0 1.5.9 2.5 2.3 2.5 1.2 0 2-.7 2.2-1.7h-.9c-.2.6-.7.9-1.3.9-.9 0-1.4-.7-1.4-1.7s.6-1.7 1.5-1.7c.6 0 1.1.3 1.3.9h.9c-.2-1.1-1-1.7-2.2-1.7-1.4-.1-2.4 1-2.4 2.5z" fill="#919cbd"/><path d="m1030.8 582.1c0 1.5.9 2.5 2.3 2.5 1.1 0 2-.7 2.2-1.7h-.9c-.2.6-.7.9-1.3.9-.9 0-1.4-.7-1.4-1.7s.6-1.7 1.5-1.7c.6 0 1.1.3 1.3.9h.9c-.2-1.1-1-1.7-2.2-1.7-1.4-.1-2.4 1-2.4 2.5z" fill="#919cbd"/><path d="m1038.4 584.5c1.2 0 2-.6 2.2-1.6h-.9c-.2.5-.6.8-1.3.8-.9 0-1.4-.6-1.5-1.6h3.7v-.3c0-1.4-.9-2.4-2.2-2.4-1.4 0-2.3 1-2.3 2.5 0 1.6.9 2.6 2.3 2.6zm0-4.2c.8 0 1.3.5 1.3 1.3h-2.8c.2-.8.7-1.3 1.5-1.3z" fill="#919cbd"/><path d="m1041.7 586.6h.9v-2.9c.3.6.9.9 1.7.9 1.4 0 2.2-1.1 2.2-2.5 0-1.5-.8-2.5-2.2-2.5-.8 0-1.4.3-1.7 1l-.1-.9h-.8zm.9-4.5c0-1 .6-1.7 1.5-1.7s1.5.7 1.5 1.7-.6 1.7-1.5 1.7c-1-.1-1.5-.8-1.5-1.7z" fill="#919cbd"/><path d="m1048.8 584.4v-4h.9v-.8h-.9v-1.5h-.9v1.5h-.9v.8h.9v4z" fill="#919cbd"/><path d="m1052.6 584.5c1.2 0 2-.6 2.2-1.6h-.9c-.2.5-.6.8-1.3.8-.9 0-1.4-.6-1.5-1.6h3.7v-.3c0-1.4-.9-2.4-2.2-2.4-1.4 0-2.3 1-2.3 2.5-.1 1.6.9 2.6 2.3 2.6zm-.1-4.2c.8 0 1.3.5 1.3 1.3h-2.8c.2-.8.7-1.3 1.5-1.3z" fill="#919cbd"/><path d="m1057.7 584.5c.8 0 1.4-.3 1.7-1l.1.9h.8v-7.2h-.9v3.2c-.3-.6-.9-.9-1.7-.9-1.4 0-2.3 1.1-2.3 2.5.1 1.5.9 2.5 2.3 2.5zm.2-.8c-.9 0-1.5-.7-1.5-1.7s.5-1.7 1.5-1.7c.9 0 1.5.7 1.5 1.7s-.6 1.7-1.5 1.7z" fill="#919cbd"/><path d="m1020.8 593.4v6.2h.9v-7h-2.4v.9h1.5z" fill="#353b53"/><path d="m1027.8 599.6v-.9h-3.3l1.5-1.3c1.2-1.1 1.7-1.8 1.7-2.8 0-1.4-.9-2.2-2.3-2.2s-2.4 1-2.4 2.5h1c0-1 .6-1.6 1.5-1.6.8 0 1.4.5 1.4 1.4 0 .8-.3 1.2-1.5 2.2l-2.3 2v.7z" fill="#353b53"/><path d="m1029.3 599.6 2.8-7h-.9l-2.8 7z" fill="#353b53"/><path d="m1032.4 596.1c0 2.2 1.1 3.6 2.9 3.6s2.9-1.5 2.9-3.6c0-2.2-1.1-3.7-2.9-3.7s-2.9 1.5-2.9 3.7zm.9 0c0-1.8.7-2.8 2-2.8s1.9 1.1 1.9 2.8-.7 2.8-1.9 2.8-2-1.1-2-2.8z" fill="#353b53"/><path d="m1043.2 597.4c.7-1 1-1.6 1-2.4 0-1.4-1.1-2.5-2.6-2.5-1.4 0-2.6 1.1-2.6 2.5s1 2.5 2.4 2.5c.2 0 .5 0 .7-.1l-1.8 2.3h1.1zm0-2.4c0 1-.7 1.6-1.6 1.6s-1.6-.7-1.6-1.6c0-1 .7-1.7 1.6-1.7 1 0 1.6.7 1.6 1.7z" fill="#353b53"/><path d="m1045.5 599.6 2.8-7h-.9l-2.8 7z" fill="#353b53"/><path d="m1053.3 599.6v-.9h-3.3l1.5-1.3c1.2-1.1 1.8-1.8 1.8-2.8 0-1.4-.9-2.2-2.3-2.2s-2.4 1-2.4 2.5h1c0-1 .6-1.6 1.4-1.6.9 0 1.4.5 1.4 1.4 0 .8-.3 1.2-1.5 2.2l-2.3 2v.7z" fill="#353b53"/><path d="m1054.2 596.1c0 2.2 1.1 3.6 2.9 3.6s2.9-1.5 2.9-3.6c0-2.2-1.1-3.7-2.9-3.7s-2.9 1.5-2.9 3.7zm1 0c0-1.8.7-2.8 2-2.8 1.2 0 1.9 1.1 1.9 2.8s-.7 2.8-1.9 2.8c-1.3 0-2-1.1-2-2.8z" fill="#353b53"/><path d="m1065.7 599.6v-.9h-3.3l1.5-1.3c1.2-1.1 1.8-1.8 1.8-2.8 0-1.4-.9-2.2-2.3-2.2s-2.4 1-2.4 2.5h1c0-1 .6-1.6 1.4-1.6.9 0 1.4.5 1.4 1.4 0 .8-.3 1.2-1.5 2.2l-2.3 2v.7z" fill="#353b53"/><path d="m1071.4 599.6v-.9h-3.3l1.5-1.3c1.2-1.1 1.8-1.8 1.8-2.8 0-1.4-.9-2.2-2.3-2.2s-2.4 1-2.4 2.5h1c0-1 .6-1.6 1.5-1.6.8 0 1.3.5 1.3 1.4 0 .8-.3 1.2-1.5 2.2l-2.3 2v.7z" fill="#353b53"/><path d="m1073.9 599.2c0-.5-.3-.9-.7-.9s-.7.3-.7.7.3.6.6.6c.1 0 .2 0 .3-.1 0 .3-.3.6-.7.6v.4c.6 0 1.2-.6 1.2-1.3z" fill="#353b53"/><path d="m1079 593.4v6.2h.9v-7h-2.4v.9h1.5z" fill="#353b53"/><path d="m1081.2 596.1c0 2.2 1.1 3.6 2.9 3.6s2.9-1.5 2.9-3.6c0-2.2-1.1-3.7-2.9-3.7-1.7 0-2.9 1.5-2.9 3.7zm1 0c0-1.8.7-2.8 2-2.8s1.9 1.1 1.9 2.8-.7 2.8-1.9 2.8-2-1.1-2-2.8z" fill="#353b53"/><path d="m1089 596.1c.4 0 .7-.3.7-.7s-.3-.7-.7-.7-.7.3-.7.7.3.7.7.7zm0 3.6c.4 0 .7-.3.7-.7s-.3-.7-.7-.7-.7.3-.7.7.3.7.7.7z" fill="#353b53"/><path d="m1095.6 599.6v-.9h-3.3l1.5-1.3c1.2-1.1 1.7-1.8 1.7-2.8 0-1.4-.9-2.2-2.3-2.2s-2.4 1-2.4 2.5h1c0-1 .6-1.6 1.4-1.6s1.4.5 1.4 1.4c0 .8-.3 1.2-1.5 2.2l-2.3 2v.7z" fill="#353b53"/><path d="m1098.8 599.7c1.5 0 2.6-1 2.6-2.5 0-1.4-.9-2.4-2.4-2.4-.5 0-1 .1-1.4.4l.5-1.9h2.8v-.9h-3.5l-.9 3.6.8.2c.3-.4.9-.7 1.5-.7 1 0 1.6.7 1.6 1.6 0 1-.6 1.6-1.6 1.6-.9 0-1.5-.6-1.5-1.5h-.9c0 1.6.9 2.5 2.4 2.5z" fill="#353b53"/><path d="m1105.5 599.6.6-1.8h3l.6 1.8h1l-2.6-7h-1.1l-2.6 7zm2-5.5c.1-.1.1-.3.1-.4 0 .1.1.3.1.4l1.1 2.9h-2.4z" fill="#353b53"/><path d="m1112.6 599.6v-3c0-1 0-1.7-.1-2l2 5.1h.9l2.1-5.1c-.1.5-.1 1-.1 2.3v2.8h.9v-7h-1l-2.4 5.9-2.4-5.9h-.9v7h1z" fill="#353b53"/><path d="m1022.2 636.4c2.1 0 3.5-1.4 3.5-3.5s-1.4-3.5-3.5-3.5h-2.3v7.1h2.3zm-.2-6.1c1.6 0 2.6 1 2.6 2.7 0 1.6-1 2.6-2.6 2.6h-1.3v-5.3z" fill="#919cbd"/><path d="m1026.4 634c0 1.5 1 2.5 2.5 2.5s2.5-1 2.5-2.5-1-2.5-2.5-2.5-2.5 1.1-2.5 2.5zm.9 0c0-1 .6-1.7 1.6-1.7s1.6.7 1.6 1.7-.6 1.7-1.6 1.7-1.6-.7-1.6-1.7z" fill="#919cbd"/><path d="m1035.1 631.6c-.2 0-.3-.1-.5-.1-.7 0-1.1.3-1.3.8l-.1-.7h-.8v4.8h.9v-2.5c0-.9.5-1.4 1.4-1.4h.4z" fill="#919cbd"/><path d="m1036.9 636.4v-2.8c0-.8.5-1.2 1.2-1.2s1.1.4 1.1 1.2v2.9h.9v-2.8c0-.8.5-1.2 1.2-1.2s1.1.4 1.1 1.2v2.9h.9v-3.1c0-1.1-.7-1.8-1.8-1.8-.7 0-1.3.4-1.5 1-.2-.6-.8-1-1.5-1s-1.2.3-1.4.8l-.1-.6h-.8v4.8h.7z" fill="#919cbd"/><path d="m1045.8 636.6c.8 0 1.4-.3 1.7-.9l.1.8h.8v-3c0-1.3-.8-1.9-2-1.9s-2 .7-2 1.6h.8c0-.6.4-.9 1.2-.9.6 0 1.1.3 1.1 1.1v.1l-1.5.1c-1.1.1-1.8.6-1.8 1.5-.1.9.5 1.5 1.6 1.5zm.2-.8c-.6 0-1-.3-1-.8s.3-.8 1.1-.9l1.2-.1v.3c.1 1-.4 1.5-1.3 1.5z" fill="#919cbd"/><path d="m1050.5 636.4v-2.5c0-.9.5-1.5 1.4-1.5.7 0 1.2.4 1.2 1.4v2.7h.9v-2.9c0-1.2-.6-2-1.8-2-.7 0-1.3.3-1.6.9l-.1-.7h-.8v4.8h.8z" fill="#919cbd"/><path d="m1056.5 636.4v-4h.9v-.8h-.9v-1.5h-.9v1.5h-.9v.8h.9v4z" fill="#919cbd"/><path d="m1020.8 645.4v6.2h.9v-7h-2.4v.9h1.5z" fill="#353b53"/><path d="m1027.8 651.6v-.9h-3.3l1.5-1.3c1.2-1.1 1.7-1.8 1.7-2.8 0-1.4-.9-2.2-2.3-2.2s-2.4 1-2.4 2.5h1c0-1 .6-1.6 1.5-1.6.8 0 1.4.5 1.4 1.4 0 .8-.3 1.2-1.5 2.2l-2.3 2v.7z" fill="#353b53"/><path d="m1029.3 651.6 2.8-7h-.9l-2.8 7z" fill="#353b53"/><path d="m1032.4 648.1c0 2.2 1.1 3.6 2.9 3.6s2.9-1.5 2.9-3.6c0-2.2-1.1-3.7-2.9-3.7s-2.9 1.5-2.9 3.7zm.9 0c0-1.8.7-2.8 2-2.8s1.9 1.1 1.9 2.8-.7 2.8-1.9 2.8-2-1.1-2-2.8z" fill="#353b53"/><path d="m1043.2 649.4c.7-1 1-1.6 1-2.4 0-1.4-1.1-2.5-2.6-2.5-1.4 0-2.6 1.1-2.6 2.5s1 2.5 2.4 2.5c.2 0 .5 0 .7-.1l-1.8 2.3h1.1zm0-2.4c0 1-.7 1.6-1.6 1.6s-1.6-.7-1.6-1.6c0-1 .7-1.7 1.6-1.7 1 0 1.6.7 1.6 1.7z" fill="#353b53"/><path d="m1045.5 651.6 2.8-7h-.9l-2.8 7z" fill="#353b53"/><path d="m1053.3 651.6v-.9h-3.3l1.5-1.3c1.2-1.1 1.7-1.8 1.7-2.8 0-1.4-.9-2.2-2.3-2.2s-2.4 1-2.4 2.5h1c0-1 .6-1.6 1.4-1.6.9 0 1.4.5 1.4 1.4 0 .8-.3 1.2-1.5 2.2l-2.3 2v.7z" fill="#353b53"/><path d="m1054.2 648.1c0 2.2 1.1 3.6 2.9 3.6s2.9-1.5 2.9-3.6c0-2.2-1.1-3.7-2.9-3.7s-2.9 1.5-2.9 3.7zm1 0c0-1.8.7-2.8 2-2.8 1.2 0 1.9 1.1 1.9 2.8s-.7 2.8-1.9 2.8c-1.3 0-2-1.1-2-2.8z" fill="#353b53"/><path d="m1065.7 651.6v-.9h-3.3l1.5-1.3c1.2-1.1 1.7-1.8 1.7-2.8 0-1.4-.9-2.2-2.3-2.2s-2.4 1-2.4 2.5h1c0-1 .6-1.6 1.4-1.6.9 0 1.4.5 1.4 1.4 0 .8-.3 1.2-1.5 2.2l-2.3 2v.7z" fill="#353b53"/><path d="m1071.3 651.6v-.9h-3.3l1.5-1.3c1.2-1.1 1.8-1.8 1.8-2.8 0-1.4-.9-2.2-2.3-2.2s-2.4 1-2.4 2.5h1c0-1 .6-1.6 1.4-1.6s1.3.5 1.3 1.4c0 .8-.3 1.2-1.5 2.2l-2.3 2v.7z" fill="#353b53"/><path d="m1073.9 651.2c0-.5-.3-.9-.7-.9s-.7.3-.7.7.3.6.6.6c.1 0 .2 0 .3-.1 0 .3-.3.6-.7.6v.4c.6 0 1.2-.6 1.2-1.3z" fill="#353b53"/><path d="m1079 645.4v6.2h.9v-7h-2.4v.9h1.5z" fill="#353b53"/><path d="m1081.2 648.1c0 2.2 1.1 3.6 2.9 3.6s2.9-1.5 2.9-3.6c0-2.2-1.1-3.7-2.9-3.7s-2.9 1.5-2.9 3.7zm1 0c0-1.8.7-2.8 2-2.8s1.9 1.1 1.9 2.8-.7 2.8-1.9 2.8-2-1.1-2-2.8z" fill="#353b53"/><path d="m1088.9 648.1c.4 0 .7-.3.7-.7s-.3-.7-.7-.7-.7.3-.7.7.4.7.7.7zm0 3.6c.4 0 .7-.3.7-.7s-.3-.7-.7-.7-.7.3-.7.7.4.7.7.7z" fill="#353b53"/><path d="m1095.6 651.6v-.9h-3.2l1.5-1.3c1.2-1.1 1.7-1.8 1.7-2.8 0-1.4-.9-2.2-2.3-2.2s-2.4 1-2.4 2.5h1c0-1 .6-1.6 1.4-1.6s1.4.5 1.4 1.4c0 .8-.3 1.2-1.5 2.2l-2.3 2v.7z" fill="#353b53"/><path d="m1098.8 651.7c1.5 0 2.6-1 2.6-2.5 0-1.4-.9-2.4-2.4-2.4-.5 0-1 .1-1.4.4l.5-1.9h2.8v-.9h-3.5l-.9 3.6.8.2c.3-.4.9-.7 1.5-.7 1 0 1.6.7 1.6 1.6 0 1-.6 1.6-1.6 1.6-.9 0-1.5-.6-1.5-1.5h-.9c0 1.6.9 2.5 2.4 2.5z" fill="#353b53"/><path d="m1105.5 651.6.6-1.8h3l.6 1.8h1l-2.6-7h-1.1l-2.6 7zm2-5.5c0-.1.1-.3.1-.4 0 .1.1.3.1.4l1.1 2.9h-2.4z" fill="#353b53"/><path d="m1112.6 651.6v-3c0-1 0-1.7-.1-2l2.1 5.1h.9l2.1-5.1c-.1.5-.1 1-.1 2.3v2.8h.9v-7h-1l-2.4 5.9-2.4-5.9h-.9v7h.9z" fill="#353b53"/><path d="m981.8 497.8v-3.1h3.5v3.1h1v-7h-1v3h-3.5v-3h-1v7z" fill="#919cbd"/><path d="m988.2 491.9c.3 0 .6-.3.6-.6s-.3-.6-.6-.6-.6.3-.6.6.2.6.6.6zm-.5 5.9h.9v-4.8h-.9z" fill="#919cbd"/><path d="m989.6 496.4c0 .9.7 1.5 1.8 1.5s1.9-.6 1.9-1.5c0-.7-.4-1.1-1.2-1.3l-.8-.2c-.5-.1-.7-.3-.7-.7s.3-.7.9-.7.9.3.9.8h.9c0-.9-.7-1.5-1.7-1.5-1.1 0-1.8.6-1.8 1.4 0 .7.4 1.1 1.2 1.3l.8.2c.5.1.7.3.7.6 0 .4-.4.7-1 .7s-1-.3-1-.8h-.9z" fill="#919cbd"/><path d="m995.7 497.8v-4h.9v-.8h-.9v-1.5h-.9v1.5h-.9v.8h.9v4z" fill="#919cbd"/><path d="m997.1 495.4c0 1.5 1.1 2.5 2.5 2.5s2.5-1 2.5-2.5-1.1-2.5-2.5-2.5c-1.5 0-2.5 1-2.5 2.5zm.9 0c0-1 .6-1.7 1.6-1.7.9 0 1.6.7 1.6 1.7s-.6 1.7-1.6 1.7-1.6-.7-1.6-1.7z" fill="#919cbd"/><path d="m1005.8 492.9c-.2 0-.3-.1-.5-.1-.6 0-1.1.3-1.3.8l-.1-.7h-.9v4.8h.9v-2.5c0-.9.5-1.4 1.4-1.4h.4v-.9z" fill="#919cbd"/><path d="m1006.3 499.9c.2.1.5.1.8.1.7 0 1.2-.3 1.5-1.2l2.2-5.8h-.9l-1.4 3.8-1.4-3.8h-1l1.9 5-.2.5c-.2.6-.6.7-1 .7h-.6v.7z" fill="#919cbd"/><path clip-rule="evenodd" d="m981.5 533.5c0 5.2 4.2 9.3 9.3 9.3 5.2 0 9.3-4.2 9.3-9.3 0-5.2-4.2-9.3-9.3-9.3s-9.3 4.2-9.3 9.3zm9.3-10.8c-6 0-10.8 4.9-10.8 10.8 0 6 4.9 10.8 10.8 10.8 6 0 10.8-4.9 10.8-10.8.1-6-4.8-10.8-10.8-10.8z" fill="#919cbd" fill-rule="evenodd"/><path clip-rule="evenodd" d="m995.7 530.8-6.6 7.1-3.1-3.3 1.1-1 2 2.2 5.5-5.9z" fill="#919cbd" fill-rule="evenodd"/><path clip-rule="evenodd" d="m981.5 585.5c0 5.2 4.2 9.3 9.3 9.3 5.2 0 9.3-4.2 9.3-9.3 0-5.2-4.2-9.3-9.3-9.3s-9.3 4.2-9.3 9.3zm9.3-10.8c-6 0-10.8 4.9-10.8 10.8s4.9 10.8 10.8 10.8c6 0 10.8-4.9 10.8-10.8s-4.8-10.8-10.8-10.8z" fill="#919cbd" fill-rule="evenodd"/><path clip-rule="evenodd" d="m995.7 582.8-6.6 7.1-3.1-3.3 1.1-1 2 2.2 5.5-5.9z" fill="#919cbd" fill-rule="evenodd"/><path clip-rule="evenodd" d="m981.5 637.5c0 5.2 4.2 9.3 9.3 9.3 5.2 0 9.3-4.2 9.3-9.3 0-5.2-4.2-9.3-9.3-9.3s-9.3 4.2-9.3 9.3zm9.3-10.8c-6 0-10.8 4.9-10.8 10.8s4.9 10.8 10.8 10.8c6 0 10.8-4.9 10.8-10.8s-4.8-10.8-10.8-10.8z" fill="#919cbd" fill-rule="evenodd"/><path clip-rule="evenodd" d="m995.7 634.8-6.6 7.1-3.1-3.3 1.1-1 2 2.2 5.5-5.9z" fill="#919cbd" fill-rule="evenodd"/><path d="m990 551h1v17h-1z" fill="#353b53"/><path d="m990 603h1v17h-1z" fill="#353b53"/><path d="m1169 475.5h152c4.1 0 7.5 3.4 7.5 7.5v184c0 4.1-3.4 7.5-7.5 7.5h-152c-4.1 0-7.5-3.4-7.5-7.5v-184c0-4.1 3.4-7.5 7.5-7.5z" fill="#121835" stroke="#1b2450"/><path d="m1176.1 497.8h1l2.7-7h-1l-1.7 4.5c-.1.3-.3.8-.4 1.3-.1-.5-.3-.9-.4-1.3l-1.7-4.5h-1z" fill="#919cbd"/><path d="m1179.5 495.4c0 1.5 1.1 2.5 2.5 2.5s2.5-1 2.5-2.5-1.1-2.5-2.5-2.5c-1.5 0-2.5 1-2.5 2.5zm.9 0c0-1 .6-1.7 1.6-1.7.9 0 1.6.7 1.6 1.7s-.7 1.7-1.6 1.7c-1 0-1.6-.7-1.6-1.7z" fill="#919cbd"/><path d="m1186.7 497.8v-4h.9v-.8h-.9v-1.5h-.9v1.5h-.9v.8h.9v4z" fill="#919cbd"/><path d="m1190.5 497.9c1.2 0 2-.6 2.2-1.6h-.9c-.2.5-.6.8-1.3.8-.9 0-1.4-.6-1.5-1.6h3.7v-.3c0-1.4-.9-2.4-2.2-2.4-1.4 0-2.3 1-2.3 2.5-.1 1.6.9 2.6 2.3 2.6zm0-4.3c.8 0 1.3.5 1.3 1.3h-2.8c.2-.8.7-1.3 1.5-1.3z" fill="#919cbd"/><path d="m1193.3 496.4c0 .9.7 1.5 1.8 1.5s1.9-.6 1.9-1.5c0-.7-.4-1.1-1.2-1.3l-.8-.2c-.5-.1-.7-.3-.7-.7s.3-.7.9-.7.9.3.9.8h.9c0-.9-.7-1.5-1.8-1.5s-1.8.6-1.8 1.4c0 .7.4 1.1 1.2 1.3l.8.2c.5.1.7.3.7.6 0 .4-.4.7-1 .7s-1-.3-1-.8h-.8z" fill="#919cbd"/><path d="m1174 549h144v1h-144z" fill="#1b2450"/><path d="m1174 589h144v1h-144z" fill="#1b2450"/><path d="m1174 629h144v1h-144z" fill="#1b2450"/><path d="m1174.5 532.4.6-1.8h3l.6 1.8h1l-2.6-7.1h-1.1l-2.6 7.1zm2-5.5c.1-.1.1-.3.1-.4 0 .1.1.3.1.4l1.1 2.9h-2.4z" fill="#919cbd"/><path d="m1180.5 534.6h.9v-2.9c.3.6.9.9 1.7.9 1.4 0 2.2-1.1 2.2-2.5 0-1.5-.8-2.5-2.2-2.5-.8 0-1.4.3-1.7 1l-.1-.9h-.8zm.9-4.6c0-1 .6-1.7 1.5-1.7s1.5.7 1.5 1.7-.6 1.7-1.5 1.7-1.5-.7-1.5-1.7z" fill="#919cbd"/><path d="m1186.3 534.6h.9v-2.9c.3.6.9.9 1.7.9 1.4 0 2.2-1.1 2.2-2.5 0-1.5-.8-2.5-2.2-2.5-.8 0-1.4.3-1.7 1l-.1-.9h-.8zm.9-4.6c0-1 .6-1.7 1.5-1.7s1.5.7 1.5 1.7-.6 1.7-1.5 1.7-1.5-.7-1.5-1.7z" fill="#919cbd"/><path d="m1194.9 527.6c-.2 0-.3-.1-.5-.1-.7 0-1.1.3-1.3.8l-.1-.7h-.9v4.8h.9v-2.5c0-.9.5-1.4 1.4-1.4h.4v-.9z" fill="#919cbd"/><path d="m1195.3 530c0 1.5 1 2.5 2.5 2.5 1.4 0 2.5-1 2.5-2.5s-1.1-2.5-2.5-2.5c-1.5 0-2.5 1.1-2.5 2.5zm.9 0c0-1 .6-1.7 1.6-1.7.9 0 1.6.7 1.6 1.7s-.6 1.7-1.6 1.7-1.6-.7-1.6-1.7z" fill="#919cbd"/><path d="m1202.4 532.4h.9l2-4.8h-1l-1.1 2.7c-.2.4-.3.8-.4 1.1-.1-.3-.2-.7-.4-1.1l-1-2.7h-1z" fill="#919cbd"/><path d="m1207.8 532.5c1.2 0 2-.6 2.2-1.6h-.9c-.1.5-.6.8-1.3.8-.9 0-1.4-.6-1.5-1.6h3.7v-.3c0-1.4-.9-2.3-2.2-2.3-1.4 0-2.3 1-2.3 2.5s.9 2.5 2.3 2.5zm0-4.2c.8 0 1.3.5 1.3 1.3h-2.8c.2-.8.7-1.3 1.5-1.3z" fill="#919cbd"/><path d="m1213 532.5c.8 0 1.4-.3 1.7-1l.1.9h.8v-7.2h-.9v3.2c-.3-.6-.9-.9-1.7-.9-1.4 0-2.3 1.1-2.3 2.5.1 1.5.9 2.5 2.3 2.5zm.2-.8c-.9 0-1.5-.7-1.5-1.7s.5-1.7 1.5-1.7c.9 0 1.5.7 1.5 1.7s-.6 1.7-1.5 1.7z" fill="#919cbd"/><path d="m1241.9 528.8c1.1 0 1.7.6 1.7 1.4 0 .9-.6 1.5-1.5 1.5s-1.5-.5-1.5-1.5h-.9c0 1.5 1 2.3 2.4 2.3s2.5-.9 2.5-2.3c0-1.3-.9-2.1-2.1-2.2l1.9-1.8v-.8h-4.4v.8h3.2l-2 1.9v.6h.7z" fill="#353b53"/><path d="m1249.7 532.4h.9l2-4.8h-1l-1.1 2.7c-.2.4-.3.8-.4 1.1-.1-.3-.2-.7-.4-1.1l-1-2.7h-1z" fill="#353b53"/><path d="m1252.8 530c0 1.5 1.1 2.5 2.5 2.5s2.5-1 2.5-2.5-1.1-2.5-2.5-2.5c-1.5 0-2.5 1.1-2.5 2.5zm.9 0c0-1 .6-1.7 1.6-1.7.9 0 1.6.7 1.6 1.7s-.7 1.7-1.6 1.7c-1 0-1.6-.7-1.6-1.7z" fill="#353b53"/><path d="m1260 532.4v-4h.9v-.8h-.9v-1.5h-.9v1.5h-.9v.8h.9v4z" fill="#353b53"/><path d="m1263.8 532.5c1.2 0 2-.6 2.2-1.6h-.9c-.2.5-.6.8-1.3.8-.9 0-1.4-.6-1.5-1.6h3.7v-.3c0-1.4-.9-2.3-2.2-2.3-1.4 0-2.3 1-2.3 2.5-.1 1.5.9 2.5 2.3 2.5zm0-4.2c.8 0 1.3.5 1.3 1.3h-2.8c.1-.8.7-1.3 1.5-1.3z" fill="#353b53"/><path d="m1266.6 531c0 .9.7 1.5 1.8 1.5s1.9-.6 1.9-1.5c0-.7-.4-1.1-1.2-1.3l-.8-.2c-.5-.1-.7-.3-.7-.7s.3-.7.9-.7c.5 0 .9.3.9.8h.9c0-.9-.7-1.5-1.7-1.5-1.1 0-1.8.6-1.8 1.4 0 .7.4 1.1 1.2 1.3l.8.2c.5.1.7.3.7.6 0 .4-.4.7-1 .7s-1-.3-1-.8h-.9z" fill="#353b53"/><path clip-rule="evenodd" d="m1309.3 527.5 1.1-1.1 3.8 3.8 3.8-3.8 1.1 1.1-4.9 4.9z" fill="#424962" fill-rule="evenodd"/><path d="m1175.1 572.5v-2.8h1.8l1.3 2.8h1.1l-1.4-3c.9-.3 1.4-1 1.4-2 0-1.3-.9-2.1-2.4-2.1h-2.7v7h.9zm0-6.2h1.7c.9 0 1.4.4 1.4 1.3 0 .8-.5 1.3-1.4 1.3h-1.7z" fill="#919cbd"/><path d="m1182.1 572.6c1.2 0 2-.6 2.2-1.6h-.9c-.2.5-.6.8-1.3.8-.9 0-1.4-.6-1.5-1.6h3.7v-.2c0-1.4-.9-2.3-2.2-2.3-1.4 0-2.3 1-2.3 2.5 0 1.4.9 2.4 2.3 2.4zm0-4.2c.8 0 1.3.5 1.3 1.3h-2.8c.2-.8.7-1.3 1.5-1.3z" fill="#919cbd"/><path d="m1185.8 566.6c.3 0 .6-.3.6-.6s-.3-.6-.6-.6-.6.3-.6.6.3.6.6.6zm-1.7 8.1c.3.1.4.1.7.1.9 0 1.4-.6 1.4-1.5v-5.5h-.9v5.4c0 .5-.2.8-.6.8-.1 0-.2 0-.4-.1z" fill="#919cbd"/><path d="m1189.7 572.6c1.2 0 2-.6 2.2-1.6h-.8c-.2.5-.6.8-1.3.8-.9 0-1.4-.6-1.5-1.6h3.7v-.2c0-1.4-.9-2.3-2.2-2.3-1.4 0-2.3 1-2.3 2.5-.2 1.4.7 2.4 2.2 2.4zm-.1-4.2c.8 0 1.3.5 1.3 1.3h-2.8c.2-.8.7-1.3 1.5-1.3z" fill="#919cbd"/><path d="m1192.6 570.1c0 1.5.9 2.5 2.3 2.5 1.2 0 2-.7 2.2-1.7h-.9c-.2.6-.6.9-1.3.9-.9 0-1.4-.7-1.4-1.7s.6-1.7 1.5-1.7c.6 0 1.1.3 1.2.9h.9c-.2-1.1-1-1.7-2.2-1.7-1.4 0-2.3 1-2.3 2.5z" fill="#919cbd"/><path d="m1199.4 572.5v-4h.9v-.8h-.9v-1.5h-.9v1.5h-.9v.8h.9v4z" fill="#919cbd"/><path d="m1203.2 572.6c1.2 0 2-.6 2.2-1.6h-.9c-.2.5-.6.8-1.3.8-.9 0-1.4-.6-1.5-1.6h3.7v-.2c0-1.4-.9-2.3-2.2-2.3-1.4 0-2.3 1-2.3 2.5-.1 1.4.9 2.4 2.3 2.4zm0-4.2c.8 0 1.3.5 1.3 1.3h-2.8c.2-.8.7-1.3 1.5-1.3z" fill="#919cbd"/><path d="m1208.3 572.6c.8 0 1.4-.3 1.7-1l.1.9h.8v-7.2h-.9v3.2c-.3-.6-.9-.9-1.7-.9-1.4 0-2.3 1.1-2.3 2.5.1 1.5 1 2.5 2.3 2.5zm.2-.8c-.9 0-1.5-.7-1.5-1.7s.5-1.7 1.5-1.7c.9 0 1.5.7 1.5 1.7s-.5 1.7-1.5 1.7z" fill="#919cbd"/><path d="m1241.3 566.3v6.2h.9v-7.1h-2.4v.9z" fill="#353b53"/><path d="m1247.7 572.5h.9l2-4.8h-1l-1.1 2.7c-.2.4-.3.8-.4 1.1-.1-.3-.2-.7-.4-1.1l-1-2.7h-1z" fill="#353b53"/><path d="m1250.8 570.1c0 1.5 1 2.5 2.5 2.5s2.5-1 2.5-2.5-1-2.5-2.5-2.5-2.5 1.1-2.5 2.5zm.9 0c0-1 .6-1.7 1.6-1.7s1.6.7 1.6 1.7-.6 1.7-1.6 1.7-1.6-.7-1.6-1.7z" fill="#353b53"/><path d="m1258 572.5v-4h.9v-.8h-.9v-1.5h-.9v1.5h-.9v.8h.9v4z" fill="#353b53"/><path d="m1261.8 572.6c1.2 0 2-.6 2.2-1.6h-.9c-.2.5-.6.8-1.3.8-.9 0-1.4-.6-1.5-1.6h3.7v-.2c0-1.4-.9-2.3-2.2-2.3-1.4 0-2.3 1-2.3 2.5-.1 1.4.9 2.4 2.3 2.4zm0-4.2c.8 0 1.3.5 1.3 1.3h-2.8c.2-.8.7-1.3 1.5-1.3z" fill="#353b53"/><path clip-rule="evenodd" d="m1309.3 567.6 1.1-1.1 3.8 3.8 3.8-3.8 1.1 1.1-4.9 4.9z" fill="#424962" fill-rule="evenodd"/><path d="m1173.8 607.5c0 1 .6 1.7 1.7 1.9l1.2.3c.7.2 1 .5 1 1.1 0 .7-.6 1.1-1.5 1.1s-1.4-.4-1.5-1.1h-1c.1 1.2 1 2 2.4 2 1.5 0 2.5-.8 2.5-2.1 0-1-.6-1.6-1.7-1.9l-1.2-.3c-.7-.2-1-.5-1-1.1 0-.7.6-1.1 1.5-1.1.8 0 1.3.4 1.3 1.1h1c-.1-1.2-.9-2-2.3-2-1.5 0-2.4.8-2.4 2.1z" fill="#919cbd"/><path d="m1180.6 612.6v-7.2h-.9v7.2z" fill="#919cbd"/><path d="m1183.3 612.7c.8 0 1.4-.3 1.7-.9l.1.8h.8v-3c0-1.3-.8-1.9-2-1.9s-2.1.7-2.1 1.6h.8c0-.6.4-.9 1.2-.9.6 0 1.1.3 1.1 1.1v.1l-1.5.1c-1.1.1-1.8.6-1.8 1.5.1.9.7 1.5 1.7 1.5zm.3-.7c-.6 0-1-.3-1-.8s.3-.8 1.1-.9l1.2-.1v.3c.1.9-.4 1.5-1.3 1.5z" fill="#919cbd"/><path d="m1186.8 611.2c0 .9.7 1.5 1.8 1.5s1.9-.6 1.9-1.5c0-.7-.4-1.1-1.2-1.3l-.8-.2c-.5-.1-.7-.3-.7-.7s.3-.7.9-.7c.5 0 .9.3.9.8h.9c0-.9-.7-1.5-1.7-1.5-1.1 0-1.8.6-1.8 1.4 0 .7.4 1.1 1.2 1.3l.8.2c.5.1.7.3.7.6 0 .4-.4.7-1 .7s-1-.3-1-.8h-.9z" fill="#919cbd"/><path d="m1192.4 612.6v-2.6c0-.8.5-1.5 1.4-1.5.7 0 1.1.4 1.1 1.4v2.7h.9v-2.9c0-1.2-.6-2-1.8-2-.7 0-1.3.4-1.6.9v-3.1h-.9v7.2h.9z" fill="#919cbd"/><path d="m1199.2 612.7c1.2 0 2-.6 2.2-1.6h-.9c-.2.5-.6.8-1.3.8-.9 0-1.4-.6-1.5-1.6h3.7v-.3c0-1.4-.9-2.3-2.2-2.3-1.4 0-2.3 1-2.3 2.5-.1 1.5.9 2.5 2.3 2.5zm-.1-4.2c.8 0 1.3.5 1.3 1.3h-2.8c.2-.9.7-1.3 1.5-1.3z" fill="#919cbd"/><path d="m1204.3 612.7c.8 0 1.4-.3 1.7-1l.1.9h.8v-7.2h-.9v3.2c-.3-.6-.9-.9-1.7-.9-1.4 0-2.3 1.1-2.3 2.5.1 1.5.9 2.5 2.3 2.5zm.2-.8c-.9 0-1.5-.7-1.5-1.7s.5-1.7 1.5-1.7c.9 0 1.5.7 1.5 1.7s-.6 1.7-1.5 1.7z" fill="#919cbd"/><path d="m1239.9 609.1c0 2.2 1.1 3.6 2.9 3.6s2.9-1.5 2.9-3.6c0-2.2-1.1-3.7-2.9-3.7-1.7 0-2.9 1.5-2.9 3.7zm1 0c0-1.8.7-2.8 2-2.8 1.2 0 2 1.1 2 2.8s-.7 2.8-2 2.8-2-1.1-2-2.8z" fill="#353b53"/><path d="m1250.9 612.6h.9l2-4.8h-1l-1.1 2.7c-.2.4-.3.8-.4 1.1-.1-.3-.2-.7-.4-1.1l-1-2.7h-1z" fill="#353b53"/><path d="m1254 610.2c0 1.5 1.1 2.5 2.5 2.5s2.5-1 2.5-2.5-1.1-2.5-2.5-2.5c-1.5 0-2.5 1-2.5 2.5zm.9 0c0-1 .6-1.7 1.6-1.7.9 0 1.6.7 1.6 1.7s-.6 1.7-1.6 1.7-1.6-.7-1.6-1.7z" fill="#353b53"/><path d="m1261.2 612.6v-4h.9v-.8h-.9v-1.5h-.9v1.5h-.9v.8h.9v4z" fill="#353b53"/><path d="m1265 612.7c1.2 0 2-.6 2.2-1.6h-.9c-.2.5-.6.8-1.3.8-.9 0-1.4-.6-1.5-1.6h3.7v-.3c0-1.4-.9-2.3-2.2-2.3-1.4 0-2.3 1-2.3 2.5s.9 2.5 2.3 2.5zm0-4.2c.8 0 1.3.5 1.3 1.3h-2.8c.2-.9.7-1.3 1.5-1.3z" fill="#353b53"/><path d="m1267.9 611.2c0 .9.7 1.5 1.8 1.5s1.9-.6 1.9-1.5c0-.7-.4-1.1-1.2-1.3l-.8-.2c-.5-.1-.7-.3-.7-.7s.3-.7.9-.7.9.3.9.8h.9c0-.9-.7-1.5-1.7-1.5-1.1 0-1.8.6-1.8 1.4 0 .7.4 1.1 1.2 1.3l.8.2c.5.1.7.3.7.6 0 .4-.4.7-1 .7s-1-.3-1-.8h-.9z" fill="#353b53"/><path clip-rule="evenodd" d="m1309.3 607.7 1.1-1.1 3.8 3.8 3.8-3.8 1.1 1.1-4.9 4.9z" fill="#424962" fill-rule="evenodd"/><path d="m1175.1 652.7v-5.5l3.6 5.5h1v-7h-1v5.5l-3.6-5.5h-1v7z" fill="#919cbd"/><path d="m1180.9 650.3c0 1.5 1.1 2.5 2.5 2.5s2.5-1 2.5-2.5-1.1-2.5-2.5-2.5c-1.5 0-2.5 1-2.5 2.5zm.9 0c0-1 .6-1.7 1.6-1.7.9 0 1.6.7 1.6 1.7s-.6 1.7-1.6 1.7-1.6-.7-1.6-1.7z" fill="#919cbd"/><path d="m1188.2 652.7v-4h.9v-.8h-.9v-1.5h-.9v1.5h-.9v.8h.9v4z" fill="#919cbd"/><path d="m1194.7 652.7h1l2.7-7h-1l-1.7 4.5c-.1.3-.3.8-.5 1.3-.1-.5-.3-.9-.4-1.3l-1.7-4.5h-1z" fill="#919cbd"/><path d="m1198 650.3c0 1.5 1.1 2.5 2.5 2.5s2.5-1 2.5-2.5-1.1-2.5-2.5-2.5-2.5 1-2.5 2.5zm.9 0c0-1 .6-1.7 1.6-1.7.9 0 1.6.7 1.6 1.7s-.6 1.7-1.6 1.7c-.9 0-1.6-.7-1.6-1.7z" fill="#919cbd"/><path d="m1205.3 652.7v-4h.9v-.8h-.9v-1.5h-.9v1.5h-.9v.8h.9v4z" fill="#919cbd"/><path d="m1209.1 652.8c1.2 0 2-.6 2.2-1.6h-.9c-.2.5-.6.8-1.3.8-.9 0-1.4-.6-1.5-1.6h3.7v-.3c0-1.4-.9-2.3-2.2-2.3-1.4 0-2.3 1-2.3 2.5-.1 1.5.9 2.5 2.3 2.5zm-.1-4.2c.8 0 1.3.5 1.3 1.3h-2.8c.2-.9.7-1.3 1.5-1.3z" fill="#919cbd"/><path d="m1214.2 652.8c.8 0 1.4-.3 1.7-1l.1.9h.8v-7.2h-.9v3.2c-.3-.6-.9-.9-1.7-.9-1.4 0-2.3 1.1-2.3 2.5.1 1.5.9 2.5 2.3 2.5zm.2-.8c-.9 0-1.5-.7-1.5-1.7s.5-1.7 1.5-1.7c.9 0 1.5.7 1.5 1.7s-.6 1.7-1.5 1.7z" fill="#919cbd"/><path d="m1239.9 650.7c0 1.2 1 2.1 2.6 2.1s2.6-.8 2.6-2.1c0-.9-.5-1.6-1.3-1.8.7-.3 1-.8 1-1.5 0-1.1-.9-1.9-2.3-1.9s-2.3.8-2.3 1.9c0 .7.4 1.3 1 1.5-.8.3-1.3 1-1.3 1.8zm1.2-3.3c0-.7.6-1.1 1.4-1.1.9 0 1.4.4 1.4 1.1s-.5 1.1-1.4 1.1c-.9.1-1.4-.4-1.4-1.1zm-.3 3.3c0-.8.6-1.3 1.7-1.3s1.7.5 1.7 1.3-.7 1.3-1.7 1.3-1.7-.5-1.7-1.3z" fill="#353b53"/><path d="m1250.2 652.7h.9l2-4.8h-.9l-1.1 2.7c-.2.4-.3.8-.4 1.1-.1-.3-.2-.7-.4-1.1l-1-2.7h-1z" fill="#353b53"/><path d="m1253.3 650.3c0 1.5 1 2.5 2.5 2.5 1.4 0 2.5-1 2.5-2.5s-1.1-2.5-2.5-2.5-2.5 1-2.5 2.5zm.9 0c0-1 .6-1.7 1.6-1.7.9 0 1.6.7 1.6 1.7s-.7 1.7-1.6 1.7-1.6-.7-1.6-1.7z" fill="#353b53"/><path d="m1260.6 652.7v-4h.9v-.8h-.9v-1.5h-.9v1.5h-.9v.8h.9v4z" fill="#353b53"/><path d="m1264.3 652.8c1.2 0 2-.6 2.2-1.6h-.9c-.2.5-.6.8-1.3.8-.9 0-1.4-.6-1.5-1.6h3.7v-.3c0-1.4-.9-2.3-2.2-2.3-1.4 0-2.3 1-2.3 2.5s.9 2.5 2.3 2.5zm0-4.2c.8 0 1.3.5 1.3 1.3h-2.8c.2-.9.7-1.3 1.5-1.3z" fill="#353b53"/><path d="m1267.2 651.3c0 .9.7 1.5 1.8 1.5s1.9-.6 1.9-1.5c0-.7-.4-1.1-1.2-1.3l-.8-.2c-.5-.1-.7-.3-.7-.7s.3-.7.9-.7.9.3.9.8h.9c0-.9-.7-1.5-1.8-1.5-1 0-1.8.6-1.8 1.4 0 .7.4 1.1 1.2 1.3l.8.2c.5.1.7.3.7.6 0 .4-.4.7-1 .7s-1-.3-1-.8h-.8z" fill="#353b53"/><path clip-rule="evenodd" d="m1309.3 647.8 1.1-1.1 3.8 3.8 3.8-3.8 1.1 1.1-4.9 4.9z" fill="#424962" fill-rule="evenodd"/></svg>