<svg width="198" height="152" viewBox="0 0 198 152" fill="none" xmlns="http://www.w3.org/2000/svg">
<path fill-rule="evenodd" clip-rule="evenodd" d="M43.9561 62.9179L24.5608 54.2924C23.6349 53.9025 22.1242 53.9025 21.2471 54.2924L1.85179 62.9179C0.925888 63.3078 0.925888 63.99 1.85179 64.4286L21.2471 73.0541C22.173 73.444 23.6837 73.444 24.5608 73.0541L43.9561 64.3799C44.882 63.99 44.882 63.3078 43.9561 62.9179ZM74.0724 87.6734C71.0023 87.6734 67.6885 86.6988 64.7159 84.6521C64.2773 84.3597 64.1798 83.7749 64.4722 83.385L66.324 80.5099C66.6164 80.0713 67.2012 79.9251 67.5911 80.2175C69.8815 81.6794 72.2693 82.5079 74.2186 82.5079C76.1191 82.5079 77.0451 81.7769 77.0451 80.7535V80.6561C77.0451 79.4314 75.3251 78.9021 73.1854 78.2435L73.1852 78.2434L73.184 78.2431C72.855 78.1418 72.516 78.0375 72.1719 77.9271C68.9068 76.9524 65.1545 75.4417 65.1545 70.861V70.7635C65.1545 65.9878 69.0043 63.3563 73.7313 63.3563C76.4115 63.3563 79.2867 64.1847 81.7233 65.5979C82.1619 65.8416 82.3081 66.4264 82.0644 66.8162L80.4075 69.8376C80.1639 70.2762 79.5791 70.4711 79.1892 70.2274C77.1425 69.1553 75.1445 68.4731 73.6825 68.4731C72.0744 68.4731 71.246 69.2041 71.246 70.0812V70.1787C71.246 71.3165 72.9222 71.9077 75.0143 72.6455C75.3415 72.7609 75.6789 72.8799 76.0217 73.0052C79.2867 74.0773 83.1365 75.6854 83.1365 79.9738V80.0713C83.0391 85.2856 79.0918 87.6734 74.0724 87.6734ZM97.1226 87.7222C89.8128 87.7222 84.4523 82.3617 84.4523 75.5879V75.4905C84.4523 68.7168 89.8615 63.3075 97.1713 63.3075C104.481 63.3075 109.842 68.668 109.842 75.4417V75.5392C109.842 82.2642 104.384 87.7222 97.1226 87.7222ZM103.312 75.4905C103.312 72.0305 100.826 69.0091 97.1226 69.0091C93.3215 69.0091 91.0311 71.9818 91.0311 75.393V75.4905C91.0311 78.9504 93.5164 81.9718 97.22 81.9718C101.021 81.9718 103.312 78.9992 103.312 75.5879V75.4905ZM127.093 86.2602C127.093 85.4318 126.118 85.0419 125.582 85.5292C124.266 86.6988 122.561 87.576 120.27 87.576C115.202 87.576 112.327 84.2622 112.327 78.853V64.672C112.327 64.136 112.765 63.6974 113.302 63.6974L118.126 64.7207C118.662 64.7207 119.101 65.1593 119.101 65.6954V76.8062C119.101 79.9251 120.563 81.582 123.145 81.582C125.679 81.582 127.288 79.9738 127.288 76.8062V64.672C127.288 64.136 127.726 63.6974 128.262 63.6974H133.087C133.623 63.6974 134.061 64.136 134.061 64.672V86.3089C134.061 86.845 133.623 87.2836 133.087 87.2836H128.165C127.531 87.1861 127.093 86.7963 127.093 86.2602ZM150.435 70.2762C146.001 70.2762 143.272 72.9564 143.272 78.5606V86.2602C143.272 86.7963 142.833 87.2349 142.297 87.2349H137.473C136.936 87.2349 136.498 86.7963 136.498 86.2602V64.672C136.498 64.136 136.936 63.6974 137.473 63.6974H142.297C142.833 63.6974 143.272 64.136 143.272 64.672V65.0619C143.272 65.939 144.344 66.2802 144.928 65.6466C146.049 64.2822 147.657 63.405 149.753 63.3075C150.289 63.2588 150.776 63.6974 150.776 64.2334V70.2274L150.435 70.2762ZM164.519 87.7222C157.453 87.7222 152.336 82.3129 152.336 75.5879V75.4905C152.336 68.7655 157.501 63.3075 164.616 63.3075C168.612 63.3075 171.292 64.5258 173.388 66.5726C173.778 66.9137 173.778 67.5472 173.437 67.8396L170.61 70.9097C170.269 71.2995 169.636 71.2995 169.294 70.9584C168.027 69.7889 166.614 69.0579 164.616 69.0579C161.302 69.0579 158.963 72.0305 158.963 75.4417V75.5392C158.963 79.0966 161.302 82.0205 164.909 82.0205C166.858 82.0205 168.222 81.2896 169.636 80.12C170.025 79.7789 170.561 79.8276 170.903 80.1687L173.534 82.849C173.924 83.2388 173.924 83.8236 173.534 84.1647C171.292 86.2115 168.758 87.7222 164.519 87.7222ZM196.925 77.7809H182.744C182.062 77.7809 181.624 78.4631 181.867 79.0479C182.793 81.2408 184.694 82.3617 187.179 82.3617C189.177 82.3617 190.639 81.7769 192.296 80.5099C192.637 80.2175 193.173 80.2175 193.465 80.5099L195.999 82.7028C196.389 83.0439 196.438 83.6774 196.048 84.0186C193.904 86.3089 190.931 87.6734 187.082 87.6734C180.015 87.6734 174.85 82.7028 174.85 75.5392V75.4417C174.85 68.7168 179.626 63.2588 186.448 63.2588C194.245 63.2588 197.9 69.3503 197.9 75.9778V76.0753C197.9 76.3677 197.9 76.66 197.851 76.9037C197.851 77.4398 197.413 77.7809 196.925 77.7809ZM186.448 68.668C184.06 68.668 182.452 70.0812 181.672 72.4204C181.477 73.0539 181.916 73.6387 182.598 73.6387H190.298C190.931 73.6387 191.321 73.0539 191.224 72.4691C190.493 70.13 188.885 68.668 186.448 68.668ZM26.9 97.0301L44.5409 88.9893C45.077 88.6969 45.4181 88.2096 45.4181 87.6736L45.3694 82.6054C45.3694 81.5333 44.1023 80.8511 43.0302 81.3384L25.3893 89.2817C24.8533 89.5254 24.5121 90.0127 24.5121 90.5487V95.763C24.5121 96.8351 25.8279 97.5174 26.9 97.0301ZM19.444 97.225L1.94929 89.038C1.07211 88.6482 1.02338 87.4786 1.94929 87.0888L7.74838 84.2136C8.13823 84.0187 8.57682 84.0187 8.91794 84.2136L20.6136 89.4279C21.0522 89.6228 21.2958 90.0127 21.2958 90.4025V96.2503C21.2471 97.0788 20.2725 97.6148 19.444 97.225ZM22.0268 78.5118L1.90054 69.2528C1.02337 68.9116 0.0487318 69.4477 0 70.3249V75.198C0 75.6366 0.292391 76.0265 0.730978 76.2214L22.0755 85.8216C22.4654 86.0165 22.904 86.0165 23.2938 85.8216L43.3713 76.9524C44.346 76.4651 44.346 75.2955 43.3713 74.8569L38.0108 72.5665C37.6697 72.4203 37.2311 72.4203 36.8413 72.5665L23.1964 78.5118C22.8065 78.7067 22.4166 78.7067 22.0268 78.5118Z" fill="black"/>
</svg>
