<svg width="158" height="76" viewBox="0 0 158 76" fill="none" xmlns="http://www.w3.org/2000/svg">
<g clip-path="url(#clip0_2207_4769)">
<path d="M131.488 31.958C126.642 31.958 122.846 35.6269 122.846 40.3959C122.846 45.2644 126.709 49.0001 131.59 49.0001C135.047 49.0001 137.832 47.445 139.052 45.2768L135.324 43.0427C134.74 43.9436 133.375 44.9984 131.691 44.9984C129.421 44.9984 127.861 43.8316 127.421 41.5966H139.383C139.485 40.9629 139.519 40.3291 139.519 39.7621C139.521 35.3928 135.996 31.958 131.488 31.958ZM127.489 38.5943C127.93 36.8266 129.251 35.7594 131.251 35.7594C133.013 35.7594 134.538 36.9601 134.742 38.5943H127.489Z" fill="#1F1F1F"/>
<path d="M32.6431 31.958C27.7289 31.958 24.0005 35.6269 24.0005 40.4955C24.0005 45.3641 27.7289 49.0001 32.6431 49.0001C37.5238 49.0001 41.285 45.3651 41.285 40.4955C41.285 35.6259 37.5238 31.958 32.6431 31.958ZM32.6431 44.4971C30.3727 44.4971 28.6777 42.7634 28.6777 40.4955C28.6777 38.1609 30.3719 36.4599 32.6431 36.4599C34.88 36.4599 36.6085 38.1609 36.6085 40.4955C36.6085 42.7634 34.88 44.4971 32.6431 44.4971Z" fill="#1F1F1F"/>
<path d="M118.024 32.2898L114.433 42.5333L110.569 32.2898H105.383L112.289 48.6663H112.297H117.004L123.243 32.2898H118.024Z" fill="#1F1F1F"/>
<path d="M59.8118 41.6181L56.3235 32.2898H52.5966L49.2752 41.2628L46.4965 32.2898H41.3795L47.3775 48.6663H51.0716L54.4608 39.6953L57.815 48.6663H57.8378H62.448L67.5749 32.2898H62.4244L59.8118 41.6181Z" fill="#1F1F1F"/>
<path d="M149.571 31.958C144.234 31.958 141.457 35.4801 141.457 39.4992V48.6662H146.289V39.6111C146.289 37.8886 147.442 36.7157 149.571 36.7157C151.699 36.7157 152.731 38.0427 152.731 39.7036V48.6662H157.562V39.342C157.562 35.1945 154.293 31.958 149.571 31.958Z" fill="#1F1F1F"/>
<path d="M78.7813 31.9619C76.8089 31.9619 75.245 32.6983 74.1567 33.8353V25H69.3964V48.6649H74.1567V39.8912C74.1567 37.5155 75.3464 36.1432 77.1839 36.1432C78.9513 36.1432 79.8026 37.2145 79.8026 39.2883V48.6639H84.5629V38.4523C84.5629 34.4711 82.4197 31.9619 78.7813 31.9619Z" fill="#1F1F1F"/>
<path d="M21.5932 44.6499C20.8417 44.5955 20.3908 44.2175 20.2301 43.4943C20.1445 43.1071 20.1267 42.6994 20.1258 42.3009C20.1194 37.0759 20.156 25 20.156 25H15.0667C15.0667 25 15.0531 37.7538 15.0667 43.33C15.0678 43.9525 15.1241 44.5852 15.2494 45.1943C15.5865 46.8408 16.4914 48.062 18.152 48.6382C19.6508 49.159 21.4565 49.0224 22.9968 48.7985C22.9968 48.6393 22.9968 44.9139 22.9968 44.6561C22.4107 44.6571 22.0984 44.6868 21.5932 44.6499Z" fill="#1F1F1F"/>
<path d="M1 34.6159V36.4381H6.16759V34.6159C6.16759 32.1179 8.23312 30.0853 10.7716 30.0853H12.8434V25H10.7716C5.38373 25 1 29.3139 1 34.6159Z" fill="#1F1F1F"/>
<path d="M1 45.1675V48.6658H6.16759V45.1675C6.16759 42.6695 8.23313 40.6369 10.7716 40.6369H11.2089V35.5515H10.7716C5.38373 35.5515 1 39.8655 1 45.1675Z" fill="#1F1F1F"/>
<path d="M99.0518 33.8653C97.9185 32.6841 96.3493 31.9609 94.2153 31.9609C89.8452 31.9609 86.7426 35.7357 86.7426 40.4953C86.7426 45.255 89.8452 48.9968 94.2153 48.9968C96.3493 48.9968 97.917 48.2419 99.0518 47.0925V48.6641H103.779V32.2897H99.0518V33.8653ZM95.248 44.534C92.9471 44.534 91.3794 42.8269 91.3794 40.4964C91.3794 38.1658 92.9806 36.4259 95.248 36.4259C97.5161 36.4259 99.051 38.1658 99.051 40.4964C99.0518 42.8269 97.5176 44.534 95.248 44.534Z" fill="#1F1F1F"/>
</g>
<defs>
<clipPath id="clip0_2207_4769">
<rect width="157" height="24" fill="white" transform="translate(1 25)"/>
</clipPath>
</defs>
</svg>
