<svg width="1920" height="992" viewBox="0 0 1920 992" fill="none" xmlns="http://www.w3.org/2000/svg">
<rect width="1920" height="992" fill="white"/>
<g opacity="0.3">
<path d="M240.888 103.6H242.568V112H240.888V103.6Z" fill="black"/>
<path d="M245.985 107.788C245.985 107.004 246.169 106.292 246.537 105.652C246.905 105.012 247.409 104.512 248.049 104.152C248.689 103.784 249.405 103.6 250.197 103.6C250.781 103.6 251.329 103.7 251.841 103.9C252.361 104.092 252.821 104.372 253.221 104.74L252.417 106.276C252.097 105.948 251.753 105.7 251.385 105.532C251.025 105.364 250.625 105.28 250.185 105.28C249.705 105.28 249.273 105.388 248.889 105.604C248.505 105.812 248.205 106.108 247.989 106.492C247.773 106.876 247.665 107.312 247.665 107.8C247.665 108.288 247.773 108.724 247.989 109.108C248.205 109.492 248.501 109.792 248.877 110.008C249.261 110.216 249.689 110.32 250.161 110.32C251.081 110.32 251.869 109.964 252.525 109.252L253.353 110.812C252.489 111.604 251.433 112 250.185 112C249.401 112 248.689 111.816 248.049 111.448C247.409 111.08 246.905 110.576 246.537 109.936C246.169 109.296 245.985 108.58 245.985 107.788Z" fill="black"/>
<path d="M259.987 112C259.195 112 258.479 111.82 257.839 111.46C257.199 111.092 256.695 110.588 256.327 109.948C255.967 109.308 255.787 108.592 255.787 107.8C255.787 107.008 255.967 106.292 256.327 105.652C256.695 105.012 257.199 104.512 257.839 104.152C258.479 103.784 259.195 103.6 259.987 103.6C260.779 103.6 261.495 103.784 262.135 104.152C262.775 104.512 263.275 105.012 263.635 105.652C264.003 106.292 264.187 107.008 264.187 107.8C264.187 108.592 264.003 109.308 263.635 109.948C263.275 110.588 262.775 111.092 262.135 111.46C261.495 111.82 260.779 112 259.987 112ZM259.987 110.32C260.467 110.32 260.899 110.212 261.283 109.996C261.667 109.78 261.967 109.48 262.183 109.096C262.399 108.712 262.507 108.28 262.507 107.8C262.507 107.312 262.399 106.88 262.183 106.504C261.967 106.12 261.667 105.82 261.283 105.604C260.899 105.388 260.467 105.28 259.987 105.28C259.499 105.28 259.063 105.388 258.679 105.604C258.303 105.82 258.007 106.12 257.791 106.504C257.575 106.88 257.467 107.312 257.467 107.8C257.467 108.28 257.575 108.712 257.791 109.096C258.007 109.48 258.303 109.78 258.679 109.996C259.063 110.212 259.499 110.32 259.987 110.32Z" fill="black"/>
<path d="M267.478 103.6H268.942L273.478 109.12V103.6H275.158V112H273.694L269.158 106.48V112H267.478V103.6Z" fill="black"/>
<path d="M281.311 112C280.567 112 279.947 111.816 279.451 111.448C278.963 111.072 278.643 110.548 278.491 109.876L280.003 109.252C280.163 109.964 280.599 110.32 281.311 110.32C281.631 110.32 281.879 110.26 282.055 110.14C282.239 110.012 282.331 109.828 282.331 109.588C282.331 109.412 282.283 109.272 282.187 109.168C282.091 109.056 281.943 108.956 281.743 108.868C281.543 108.78 281.231 108.664 280.807 108.52C280.095 108.272 279.543 107.96 279.151 107.584C278.767 107.2 278.575 106.684 278.575 106.036C278.575 105.292 278.819 104.7 279.307 104.26C279.803 103.82 280.459 103.6 281.275 103.6C282.019 103.6 282.635 103.788 283.123 104.164C283.619 104.532 283.943 105.052 284.095 105.724L282.583 106.348C282.503 105.988 282.355 105.72 282.139 105.544C281.931 105.368 281.643 105.28 281.275 105.28C280.955 105.28 280.703 105.344 280.519 105.472C280.343 105.592 280.255 105.772 280.255 106.012C280.255 106.188 280.303 106.332 280.399 106.444C280.495 106.548 280.643 106.644 280.843 106.732C281.043 106.82 281.355 106.936 281.779 107.08C282.491 107.328 283.039 107.644 283.423 108.028C283.815 108.404 284.011 108.916 284.011 109.564C284.011 110.308 283.763 110.9 283.267 111.34C282.779 111.78 282.127 112 281.311 112Z" fill="black"/>
</g>
<g clip-path="url(#clip0_870_34892)">
<path d="M550.4 621.043C545.236 621.043 541.05 625.229 541.05 630.393V640.593H546.15V630.393C546.15 628.046 548.053 626.143 550.4 626.143H560.6V621.043H550.4Z" fill="black"/>
<path d="M586.95 630.393C586.95 625.229 582.764 621.043 577.6 621.043H567.4V626.143H577.6C579.947 626.143 581.85 628.046 581.85 630.393V640.593H586.95V630.393Z" fill="black"/>
<path d="M586.95 657.593C586.95 662.757 582.764 666.943 577.6 666.943H567.4V661.843H577.6C579.947 661.843 581.85 659.94 581.85 657.593V647.393H586.95V657.593Z" fill="black"/>
<path d="M541.05 657.593C541.05 662.757 545.236 666.943 550.4 666.943H560.6V661.843H550.4C548.053 661.843 546.15 659.94 546.15 657.593V647.393H541.05V657.593Z" fill="black"/>
<path fill-rule="evenodd" clip-rule="evenodd" d="M614.203 618.874C625.479 630.706 631.488 642.367 631.729 642.86C632.09 643.591 632.09 644.441 631.729 645.155C631.488 645.631 625.479 657.31 614.203 669.124C599.104 684.934 581.75 693.298 564 693.298C546.25 693.298 528.896 684.934 513.797 669.124C502.704 657.502 496.725 646.027 496.288 645.188C496.281 645.174 496.275 645.163 496.271 645.155C495.91 644.424 495.91 643.574 496.271 642.86C496.512 642.367 502.521 630.706 513.797 618.874C528.896 603.065 546.25 594.701 564 594.701C581.75 594.701 599.104 603.065 614.203 618.874ZM564 688.198C580.476 688.198 596.074 680.633 610.346 665.725C617.949 657.778 623.131 649.742 625.55 645.643C626.151 644.626 626.149 643.373 625.549 642.356C623.123 638.252 617.953 630.225 610.346 622.274C596.074 607.366 580.493 599.801 564 599.801C547.507 599.801 531.926 607.366 517.654 622.274C510.054 630.218 504.873 638.251 502.452 642.351C501.851 643.371 501.853 644.627 502.456 645.645C504.883 649.745 510.052 657.779 517.654 665.725C531.926 680.633 547.524 688.198 564 688.198Z" fill="black"/>
</g>
<path d="M618.142 290.199H591.821C586.247 290.199 581.747 294.701 581.747 300.259V339.647C581.747 342.375 579.531 344.592 576.786 344.592H550.465C547.721 344.592 545.504 342.375 545.504 339.647V300.259C545.504 294.701 540.987 290.199 535.43 290.199H509.075C503.517 290.199 499 294.701 499 300.259V394.039C499 399.598 503.517 404.099 509.075 404.099H576.769C582.343 404.099 586.844 399.598 586.844 394.039V354.652C586.844 351.923 589.06 349.707 591.804 349.707H618.125C623.7 349.707 628.2 345.205 628.2 339.647V300.259C628.2 294.701 623.683 290.199 618.125 290.199H618.142ZM623.103 339.647C623.103 342.375 620.887 344.592 618.142 344.592H591.821C589.077 344.592 586.861 342.375 586.861 339.647V300.259C586.861 297.531 589.077 295.314 591.821 295.314H618.142C620.887 295.314 623.103 297.531 623.103 300.259V339.647ZM581.747 394.039C581.747 396.767 579.531 398.984 576.786 398.984H550.465C547.721 398.984 545.504 396.767 545.504 394.039V354.652C545.504 351.923 547.721 349.707 550.465 349.707H576.786C579.531 349.707 581.747 351.923 581.747 354.652V394.039ZM540.356 339.647C540.356 342.375 538.14 344.592 535.396 344.592H509.075C506.33 344.592 504.114 342.375 504.114 339.647V300.259C504.114 297.531 506.33 295.314 509.075 295.314H535.396C538.14 295.314 540.356 297.531 540.356 300.259V339.647ZM540.356 394.039C540.356 396.767 538.14 398.984 535.396 398.984H509.075C506.33 398.984 504.114 396.767 504.114 394.039V354.652C504.114 351.923 506.33 349.707 509.075 349.707H535.396C538.14 349.707 540.356 351.923 540.356 354.652V394.039Z" fill="black"/>
<path d="M1406.55 315.636H1368.67V310.462H1406.55V315.636Z" fill="black"/>
<path d="M1368.67 329.433H1385.89V324.259H1368.67V329.433Z" fill="black"/>
<path fill-rule="evenodd" clip-rule="evenodd" d="M1353.17 297.527C1353.17 292.765 1357.03 288.904 1361.78 288.904H1413.44C1418.2 288.904 1422.05 292.765 1422.05 297.527V342.368C1422.05 347.131 1418.2 350.991 1413.44 350.991H1364.36C1361.03 350.991 1358.34 353.694 1358.34 357.027V399.281C1358.34 404.044 1354.48 407.904 1349.73 407.904H1298.06C1293.31 407.904 1289.45 404.044 1289.45 399.281V354.441C1289.45 349.678 1293.31 345.817 1298.06 345.817H1347.14C1350.47 345.817 1353.17 343.115 1353.17 339.781V297.527ZM1361.78 294.078H1413.44C1415.34 294.078 1416.89 295.623 1416.89 297.527V342.368C1416.89 344.273 1415.34 345.817 1413.44 345.817H1361.78C1359.88 345.817 1358.34 344.273 1358.34 342.368V297.527C1358.34 295.623 1359.88 294.078 1361.78 294.078ZM1298.06 350.991C1296.16 350.991 1294.62 352.536 1294.62 354.441V399.281C1294.62 401.186 1296.16 402.73 1298.06 402.73H1349.73C1351.63 402.73 1353.17 401.186 1353.17 399.281V354.441C1353.17 352.536 1351.63 350.991 1349.73 350.991H1298.06Z" fill="black"/>
<path fill-rule="evenodd" clip-rule="evenodd" d="M1323.89 335.47C1332.45 335.47 1339.39 328.52 1339.39 319.948C1339.39 311.375 1332.45 304.426 1323.89 304.426C1315.33 304.426 1308.4 311.375 1308.4 319.948C1308.4 328.52 1315.33 335.47 1323.89 335.47ZM1323.89 330.296C1329.6 330.296 1334.23 325.663 1334.23 319.948C1334.23 314.233 1329.6 309.6 1323.89 309.6C1318.19 309.6 1313.56 314.233 1313.56 319.948C1313.56 325.663 1318.19 330.296 1323.89 330.296Z" fill="black"/>
<path fill-rule="evenodd" clip-rule="evenodd" d="M975.9 301.265C975.9 309.656 969.05 316.459 960.6 316.459C955.507 316.459 950.995 313.988 948.214 310.187C946.572 307.943 943.818 306.329 941.241 307.372C924.386 314.198 912.109 330.129 910.437 349.149L905.357 348.708C907.275 326.882 921.889 308.712 941.747 301.765C943.845 301.031 945.287 299.112 945.917 296.98C947.78 290.674 953.648 286.07 960.6 286.07C969.05 286.07 975.9 292.873 975.9 301.265ZM970.8 301.265C970.8 306.859 966.233 311.394 960.6 311.394C954.967 311.394 950.4 306.859 950.4 301.265C950.4 295.67 954.967 291.135 960.6 291.135C966.233 291.135 970.8 295.67 970.8 301.265Z" fill="black"/>
<path fill-rule="evenodd" clip-rule="evenodd" d="M986.064 311.514C999.874 320.342 1009.05 335.887 1009.05 353.604C1009.05 354.341 1009.03 355.074 1009 355.804C1008.89 358.404 1006.58 360.22 1004.08 360.936C997.7 362.762 992.9 368.668 992.9 375.549C992.9 383.94 999.75 390.743 1008.2 390.743C1016.65 390.743 1023.5 383.94 1023.5 375.549C1023.5 370.497 1021.02 366.022 1017.2 363.259C1015.26 361.86 1013.87 359.651 1014.03 357.269C1014.11 356.057 1014.15 354.835 1014.15 353.604C1014.15 334.115 1004.05 316.988 988.824 307.255L986.064 311.514ZM1008.2 365.419C1002.57 365.419 998 369.954 998 375.549C998 381.143 1002.57 385.678 1008.2 385.678C1013.83 385.678 1018.4 381.143 1018.4 375.549C1018.4 369.954 1013.83 365.419 1008.2 365.419Z" fill="black"/>
<path fill-rule="evenodd" clip-rule="evenodd" d="M920.815 392.106C919.174 390.428 916.657 389.977 914.356 390.44C913.369 390.639 912.347 390.743 911.3 390.743C902.85 390.743 896 383.94 896 375.549C896 367.157 902.85 360.354 911.3 360.354C919.75 360.354 926.6 367.157 926.6 375.549C926.6 378.001 926.015 380.318 924.976 382.369C923.779 384.731 923.56 387.721 925.464 389.561C934.344 398.143 946.388 403.405 959.645 403.405C970.026 403.405 979.654 400.18 987.606 394.666L990.526 398.819C981.749 404.905 971.108 408.47 959.645 408.47C944.439 408.47 930.694 402.2 920.815 392.106ZM911.3 365.419C916.933 365.419 921.5 369.954 921.5 375.549C921.5 381.143 916.933 385.678 911.3 385.678C905.667 385.678 901.1 381.143 901.1 375.549C901.1 369.954 905.667 365.419 911.3 365.419Z" fill="black"/>
<path d="M1021.35 640.209L963.421 582.284C961.483 580.345 958.333 580.345 956.379 582.284L898.454 640.209C896.515 642.147 896.515 645.297 898.454 647.251L956.379 705.176C958.317 707.115 961.467 707.115 963.421 705.176L1021.35 647.251C1023.28 645.313 1023.28 642.163 1021.35 640.209V640.209ZM983.661 639.013L966.167 592.832C965.957 592.25 966.668 591.798 967.104 592.234L1013.74 639.611C1014.35 640.241 1013.92 641.307 1013.03 641.307H986.973C985.486 641.307 984.178 640.386 983.645 639.013H983.661ZM966.184 694.612L983.661 648.431C984.178 647.041 985.503 646.137 986.989 646.137H1013.04C1013.93 646.137 1014.37 647.203 1013.75 647.833L967.12 695.21C966.684 695.646 965.957 695.178 966.184 694.612V694.612ZM960.885 694.935C960.562 695.808 959.335 695.808 959.012 694.935L941.825 647.478C941.582 646.831 942.067 646.137 942.762 646.137H977.151C977.846 646.137 978.331 646.815 978.088 647.478L960.901 694.935H960.885ZM977.135 641.307H942.745C942.051 641.307 941.566 640.629 941.809 639.966L959.012 592.509C959.335 591.636 960.562 591.636 960.885 592.509L978.072 639.983C978.314 640.629 977.83 641.323 977.135 641.323V641.307ZM953.713 592.832L936.236 639.013C935.719 640.403 934.394 641.307 932.908 641.307H906.837C905.949 641.307 905.513 640.241 906.126 639.611L952.777 592.234C953.213 591.798 953.94 592.266 953.713 592.832ZM906.837 646.153H932.908C934.378 646.153 935.703 647.074 936.236 648.447L953.713 694.628C953.923 695.21 953.213 695.662 952.777 695.226L906.143 647.849C905.529 647.219 905.965 646.153 906.853 646.153H906.837Z" fill="black"/>
<path fill-rule="evenodd" clip-rule="evenodd" d="M1374.05 592.865C1374.05 588.171 1377.86 584.365 1382.55 584.365H1411.45C1416.15 584.365 1419.95 588.171 1419.95 592.865V694.865C1419.95 699.56 1416.15 703.365 1411.45 703.365H1300.95C1296.26 703.365 1292.45 699.56 1292.45 694.865V643.865C1292.45 639.171 1296.26 635.365 1300.95 635.365H1329.85C1331.73 635.365 1333.25 633.843 1333.25 631.965V618.365C1333.25 613.671 1337.06 609.865 1341.75 609.865H1370.65C1372.53 609.865 1374.05 608.343 1374.05 606.465V592.865ZM1379.15 592.865C1379.15 590.987 1380.68 589.465 1382.55 589.465H1411.45C1413.33 589.465 1414.85 590.987 1414.85 592.865V694.865C1414.85 696.743 1413.33 698.265 1411.45 698.265H1382.55C1380.68 698.265 1379.15 696.743 1379.15 694.865V592.865ZM1341.75 614.965C1339.88 614.965 1338.35 616.487 1338.35 618.365V694.865C1338.35 696.743 1339.88 698.265 1341.75 698.265H1370.65C1372.53 698.265 1374.05 696.743 1374.05 694.865V618.365C1374.05 616.487 1372.53 614.965 1370.65 614.965H1341.75ZM1300.95 640.465C1299.08 640.465 1297.55 641.987 1297.55 643.865V694.865C1297.55 696.743 1299.08 698.265 1300.95 698.265H1329.85C1331.73 698.265 1333.25 696.743 1333.25 694.865V643.865C1333.25 641.987 1331.73 640.465 1329.85 640.465H1300.95Z" fill="black"/>
<defs>
<clipPath id="clip0_870_34892">
<rect width="136" height="136" fill="white" transform="translate(496 576)"/>
</clipPath>
</defs>
</svg>
