<svg width="238" height="152" viewBox="0 0 238 152" fill="none" xmlns="http://www.w3.org/2000/svg">
<path fill-rule="evenodd" clip-rule="evenodd" d="M0 75.6337V72.8246C0 64.6506 6.65064 58 14.8246 58H17.9678V65.8398H14.8246C10.9736 65.8398 7.83984 68.9736 7.83984 72.8246V75.6337H0ZM31.2423 88.2937C30.1022 88.2097 29.4181 87.627 29.1743 86.5122C29.0444 85.9153 29.0175 85.2866 29.0159 84.6722C29.0064 76.617 29.0618 58 29.0618 58H21.3408C21.3408 58 21.3202 77.6621 21.3408 86.2589C21.3423 87.2185 21.4279 88.1939 21.6179 89.1329C22.1293 91.6712 23.5022 93.554 26.0215 94.4423C28.2954 95.2452 31.0349 95.0346 33.3721 94.6894V88.3032C33.0805 88.3037 32.8336 88.309 32.6065 88.3138H32.6064H32.6063H32.6062C32.1403 88.3238 31.7575 88.332 31.2423 88.2937ZM110.987 71.6211C112.639 69.8682 115.011 68.7329 118.004 68.7329C123.524 68.7329 126.775 72.6013 126.775 78.7389V94.4819H119.552V80.0279C119.552 76.8308 118.262 75.1792 115.579 75.1792C112.792 75.1792 110.987 77.2948 110.987 80.9574V94.4835H103.765V58H110.987V71.6211ZM34.895 81.8889C34.895 74.3831 40.5512 68.7269 48.0062 68.7269C55.4106 68.7269 61.1175 74.3816 61.1175 81.8889C61.1175 89.3962 55.4106 95.0001 48.0062 95.0001C40.5512 95.0001 34.895 89.3946 34.895 81.8889ZM41.9906 81.8889C41.9906 85.3852 44.5621 88.0581 48.0062 88.0581C51.3996 88.0581 54.0219 85.3852 54.0219 81.8889C54.0219 78.2896 51.3996 75.6673 48.0062 75.6673C44.5606 75.6673 41.9906 78.2896 41.9906 81.8889ZM184.855 81.7353C184.855 74.3831 190.614 68.7269 197.966 68.7269C204.805 68.7269 210.153 74.0221 210.149 80.7582C210.149 81.6323 210.097 82.6093 209.944 83.5864H191.795C192.463 87.032 194.829 88.8309 198.273 88.8309C200.827 88.8309 202.9 87.2046 203.785 85.8159L209.442 89.26C207.59 92.6027 203.364 95.0001 198.12 95.0001C190.715 95.0001 184.855 89.241 184.855 81.7353ZM197.607 74.5874C194.573 74.5874 192.568 76.2326 191.9 78.9578H202.902C202.593 76.4385 200.28 74.5874 197.607 74.5874ZM177.539 69.2384L172.09 85.0305L166.228 69.2384H158.362L168.838 94.4855H168.851H175.992L185.457 69.2384H177.539ZM83.9324 69.2384L89.2244 83.6196L93.1879 69.2384H101.002L93.2243 94.4855H86.23H86.1952L81.1059 80.6554L75.9643 94.4855H70.3603L61.26 69.2384H69.0239L73.2391 83.0718L78.2778 69.2384H83.9324ZM225.4 68.7269C217.304 68.7269 213.09 74.1567 213.09 80.3529V94.4855H220.42V80.5255C220.42 77.87 222.17 76.0616 225.4 76.0616C228.629 76.0616 230.193 78.1075 230.193 80.668V94.4855H237.523V80.1106C237.523 73.7165 232.564 68.7269 225.4 68.7269ZM0 89.0911V94.4845H7.83984V89.0911C7.83984 85.2401 10.9736 82.1064 14.8246 82.1064H15.4881V74.2665H14.8246C6.65064 74.2665 0 80.9172 0 89.0911ZM141.418 68.7314C144.656 68.7314 147.036 69.8462 148.756 71.6672V69.2382H155.928V94.4821H148.756V92.0593C147.035 93.8313 144.656 94.9951 141.418 94.9951C134.788 94.9951 130.082 89.2265 130.082 81.8886C130.082 74.5508 134.788 68.7314 141.418 68.7314ZM137.116 81.8902C137.116 85.4831 139.494 88.1149 142.986 88.1149C146.428 88.1149 148.756 85.4831 148.754 81.8902C148.754 78.2973 146.427 75.6149 142.986 75.6149C139.545 75.6149 137.116 78.2973 137.116 81.8902Z" fill="#1F1F1F"/>
</svg>
