<svg width="130" height="130" viewBox="0 0 130 130" fill="none" xmlns="http://www.w3.org/2000/svg">
<path d="M89.4521 49.6659C88.6266 40.9324 81.0903 37.9931 71.5726 37.1451L71.5881 25.0309L64.2155 25.0209L64.2002 36.8207C62.2636 36.8139 60.279 36.8536 58.3087 36.8887L58.3287 25.0128L50.9612 25L50.9379 37.1119C49.3434 37.1434 47.7751 37.1738 46.2461 37.1725L46.2456 37.1293L36.0744 37.1139L36.0644 44.9948C36.0644 44.9948 41.513 44.8939 41.419 44.996C44.4076 45.0002 45.3764 46.7356 45.6555 48.2334L45.6412 62.0325C45.843 62.0346 46.112 62.0432 46.4189 62.0843L45.6394 62.0836L45.6104 81.4186C45.4774 82.3582 44.9246 83.8574 42.8389 83.8594C42.9314 83.942 37.4747 83.8467 37.4747 83.8467L36 92.6539L45.5958 92.6628C47.3807 92.6733 49.1376 92.7058 50.8622 92.7161L50.8498 104.969L58.2133 104.981L58.231 92.8586C60.1951 92.9004 62.1595 92.9209 64.124 92.9202L64.1001 104.989L71.4767 105L71.4952 92.7704C83.892 92.0746 92.5735 88.9636 93.6681 77.3199C94.551 67.9502 90.1496 63.7606 83.1137 62.0598C87.3925 59.8898 90.0688 56.0602 89.451 49.6699L89.4521 49.6659ZM79.1044 75.8488C79.0919 85.0085 63.4156 83.9447 58.4186 83.9432L58.4415 67.7083C63.4373 67.7138 79.1126 66.3002 79.0992 75.8516L79.1044 75.8488ZM75.7045 52.9406C75.6895 61.2724 62.6155 60.2824 58.4516 60.2754L58.4737 45.5525C62.6336 45.5583 75.7142 44.254 75.7034 52.9446L75.7045 52.9406Z" fill="#565656"/>
</svg>
