<svg width="130" height="130" viewBox="0 0 130 130" fill="none" xmlns="http://www.w3.org/2000/svg">
<path d="M54.3142 49.6C54.3142 47.7 54.9248 46 56.146 44.5C57.3673 43.1 59.1991 42.2 61.6416 41.7V57.6C59.5044 56.7 57.6726 55.7 56.3496 54.5C55.0265 53.4 54.3142 51.7 54.3142 49.6ZM75.5841 80.3C75.5841 82.5 74.9734 84.3 73.6504 85.6C72.3274 87 70.5973 87.9 68.2566 88.3V71.9C70.3938 72.7 72.2257 73.7 73.5487 74.9C74.8717 76.2 75.5841 78 75.5841 80.3ZM61.6416 108H68.2566V99.8C70.9027 99.5 73.3451 98.9 75.6858 98C78.0265 97.1 79.9602 95.8 81.6903 94.1C83.4203 92.5 84.7434 90.5 85.7611 88.2C86.677 85.9 87.1858 83.2 87.1858 80.2C87.1858 77.1 86.677 74.4 85.6593 72.2C84.6416 70.1 83.3186 68.2 81.5885 66.6C79.8584 65.1 77.823 63.8 75.5841 62.7C73.2434 61.7 70.8009 60.8 68.2566 59.9V41.8C70.3938 42.3 72.3274 43.3 73.854 44.8C75.3805 46.3 76.6018 48.6 77.3142 51.5L88 47.2C86.677 42.3 84.3363 38.3 80.8761 35.4C77.4159 32.5 73.2434 30.7 68.2566 30.2V22H61.6416V30.2C58.9956 30.5 56.5531 31.2 54.2124 32.1C51.8717 33.1 49.9381 34.4 48.208 36C46.4779 37.7 45.1549 39.6 44.2389 41.9C43.2212 44.2 42.7124 46.7 42.7124 49.5C42.7124 52.7 43.323 55.4 44.4425 57.6C45.5619 59.9 47.0885 61.8 48.9204 63.3C50.6504 64.9 52.6858 66.2 54.9248 67.2C57.1637 68.2 59.4027 69 61.6416 69.7V88.2C56.7566 87.2 53.6018 83.8 52.2788 78L42 82.8C42.7124 85.6 43.7301 88 45.0531 90C46.3761 92.1 47.9027 93.8 49.6327 95.1C51.3628 96.5 53.1947 97.6 55.3319 98.3C57.3673 99 59.5044 99.5 61.6416 99.8V108Z" fill="#565656"/>
</svg>
