<?xml version="1.0" encoding="UTF-8"?>
<svg width="1920px" height="1152px" viewBox="0 0 1920 1152" version="1.1" xmlns="http://www.w3.org/2000/svg" xmlns:xlink="http://www.w3.org/1999/xlink">
    <!-- Generator: Sketch 51.3 (57544) - http://www.bohemiancoding.com/sketch -->
    <title>pet-case-1</title>
    <desc>Created with Sketch.</desc>
    <defs></defs>
    <g id="Case-Studies" stroke="none" stroke-width="1" fill="none" fill-rule="evenodd">
        <g id="work-item---pet-paradise" transform="translate(0.000000, -2174.000000)">
            <rect fill="#F5F5F5" x="0" y="0" width="1920" height="11523"></rect>
            <g id="WORK" transform="translate(0.000000, 2174.000000)">
                <g id="map">
                    <rect id="Rectangle-6" fill="#EAECF5" x="0" y="0" width="1920" height="1152"></rect>
                    <path d="M735.03,354.01 C733.59,354.43 732.135,354.64 730.665,354.64 C728.595,354.64 727.0125,354.13 725.9175,353.11 C724.8225,352.09 724.275,350.335 724.275,347.845 L724.275,336.055 L720,336.055 L720,331.915 L724.275,331.915 L724.275,325.885 L729.135,325.885 L729.135,331.915 L735.075,331.915 L735.075,336.055 L729.135,336.055 L729.135,347.53 C729.135,348.31 729.3225,348.9025 729.6975,349.3075 C730.0725,349.7125 730.695,349.915 731.565,349.915 C732.165,349.915 732.7125,349.885 733.2075,349.825 C733.7025,349.765 734.31,349.675 735.03,349.555 L735.03,354.01 Z M751.4,344.02 L744.92,344.83 C743.81,344.98 742.9925,345.3175 742.4675,345.8425 C741.9425,346.3675 741.68,347.005 741.68,347.755 C741.68,348.625 741.9875,349.3225 742.6025,349.8475 C743.2175,350.3725 744.14,350.635 745.37,350.635 C746.3,350.635 747.14,350.485 747.89,350.185 C748.64,349.885 749.27,349.4875 749.78,348.9925 C750.29,348.4975 750.6875,347.9275 750.9725,347.2825 C751.2575,346.6375 751.4,345.985 751.4,345.325 L751.4,344.02 Z M737.315,336.775 C737.885,335.095 738.9575,333.775 740.5325,332.815 C742.1075,331.855 744.215,331.375 746.855,331.375 C750.035,331.375 752.3975,332.11 753.9425,333.58 C755.4875,335.05 756.26,337.24 756.26,340.15 L756.26,354.415 L751.4,354.415 L751.4,351.31 C750.71,352.36 749.7725,353.215 748.5875,353.875 C747.4025,354.535 745.955,354.865 744.245,354.865 C743.075,354.865 742.0175,354.6925 741.0725,354.3475 C740.1275,354.0025 739.3325,353.5225 738.6875,352.9075 C738.0425,352.2925 737.54,351.5575 737.18,350.7025 C736.82,349.8475 736.64,348.91 736.64,347.89 C736.64,345.82 737.3225,344.185 738.6875,342.985 C740.0525,341.785 741.77,341.095 743.84,340.915 L750.095,340.285 C750.965,340.195 751.4,339.85 751.4,339.25 L751.4,338.755 C751.4,337.885 751.0325,337.1725 750.2975,336.6175 C749.5625,336.0625 748.445,335.785 746.945,335.785 C745.565,335.785 744.35,336.0475 743.3,336.5725 C742.25,337.0975 741.56,337.99 741.23,339.25 L737.315,336.775 Z M765.16,335.47 C765.85,334.18 766.7275,333.175 767.7925,332.455 C768.8575,331.735 770.185,331.375 771.775,331.375 C772.525,331.375 773.26,331.465 773.98,331.645 L773.98,336.82 C773.59,336.73 773.1925,336.655 772.7875,336.595 C772.3825,336.535 771.955,336.505 771.505,336.505 C769.255,336.505 767.665,337.1725 766.735,338.5075 C765.805,339.8425 765.34,341.71 765.34,344.11 L765.34,354.415 L760.48,354.415 L760.48,331.915 L765.16,331.915 L765.16,335.47 Z M792.465,343.165 C792.465,340.975 791.865,339.235 790.665,337.945 C789.465,336.655 787.86,336.01 785.85,336.01 C784.83,336.01 783.9,336.1825 783.06,336.5275 C782.22,336.8725 781.5,337.36 780.9,337.99 C780.3,338.62 779.835,339.3775 779.505,340.2625 C779.175,341.1475 779.01,342.115 779.01,343.165 C779.01,344.215 779.175,345.1825 779.505,346.0675 C779.835,346.9525 780.3,347.71 780.9,348.34 C781.5,348.97 782.22,349.4575 783.06,349.8025 C783.9,350.1475 784.83,350.32 785.85,350.32 C787.86,350.32 789.465,349.675 790.665,348.385 C791.865,347.095 792.465,345.355 792.465,343.165 Z M774.015,343.12 C774.015,341.29 774.2925,339.6475 774.8475,338.1925 C775.4025,336.7375 776.1675,335.5075 777.1425,334.5025 C778.1175,333.4975 779.25,332.725 780.54,332.185 C781.83,331.645 783.225,331.375 784.725,331.375 C786.525,331.375 788.07,331.735 789.36,332.455 C790.65,333.175 791.61,334.03 792.24,335.02 L792.24,331.915 L797.145,331.915 L797.145,353.065 C797.145,354.475 796.9725,355.8325 796.6275,357.1375 C796.2825,358.4425 795.675,359.605 794.805,360.625 C793.935,361.645 792.7575,362.4625 791.2725,363.0775 C789.7875,363.6925 787.905,364 785.625,364 C783.045,364 780.975,363.5875 779.415,362.7625 C777.855,361.9375 776.565,360.835 775.545,359.455 L778.515,355.855 C779.355,357.055 780.3525,357.97 781.5075,358.6 C782.6625,359.23 784.05,359.545 785.67,359.545 C787.02,359.545 788.1225,359.365 788.9775,359.005 C789.8325,358.645 790.515,358.1575 791.025,357.5425 C791.535,356.9275 791.8875,356.2225 792.0825,355.4275 C792.2775,354.6325 792.375,353.8 792.375,352.93 L792.375,351.265 C791.655,352.315 790.6425,353.1625 789.3375,353.8075 C788.0325,354.4525 786.525,354.775 784.815,354.775 C783.225,354.775 781.77,354.5125 780.45,353.9875 C779.13,353.4625 777.99,352.6975 777.03,351.6925 C776.07,350.6875 775.3275,349.465 774.8025,348.025 C774.2775,346.585 774.015,344.95 774.015,343.12 Z M800.24,343.255 C800.24,341.605 800.5025,340.06 801.0275,338.62 C801.5525,337.18 802.3025,335.92 803.2775,334.84 C804.2525,333.76 805.4375,332.9125 806.8325,332.2975 C808.2275,331.6825 809.795,331.375 811.535,331.375 C813.275,331.375 814.8275,331.6675 816.1925,332.2525 C817.5575,332.8375 818.705,333.655 819.635,334.705 C820.565,335.755 821.27,337.0075 821.75,338.4625 C822.23,339.9175 822.47,341.515 822.47,343.255 L822.47,344.65 L805.19,344.65 L805.19,344.695 C805.31,345.655 805.5725,346.495 805.9775,347.215 C806.3825,347.935 806.8925,348.5275 807.5075,348.9925 C808.1225,349.4575 808.8125,349.81 809.5775,350.05 C810.3425,350.29 811.13,350.41 811.94,350.41 C813.44,350.41 814.745,350.125 815.855,349.555 C816.965,348.985 817.91,348.295 818.69,347.485 L820.985,351.4 C820.055,352.3 818.855,353.1175 817.385,353.8525 C815.915,354.5875 814.115,354.955 811.985,354.955 C810.185,354.955 808.5575,354.67 807.1025,354.1 C805.6475,353.53 804.4175,352.7275 803.4125,351.6925 C802.4075,350.6575 801.6275,349.4275 801.0725,348.0025 C800.5175,346.5775 800.24,344.995 800.24,343.255 Z M817.16,340.96 C817.01,339.4 816.4625,338.1325 815.5175,337.1575 C814.5725,336.1825 813.215,335.695 811.445,335.695 C809.645,335.695 808.235,336.1675 807.215,337.1125 C806.195,338.0575 805.535,339.34 805.235,340.96 L817.16,340.96 Z M838.255,354.01 C836.815,354.43 835.36,354.64 833.89,354.64 C831.82,354.64 830.2375,354.13 829.1425,353.11 C828.0475,352.09 827.5,350.335 827.5,347.845 L827.5,336.055 L823.225,336.055 L823.225,331.915 L827.5,331.915 L827.5,325.885 L832.36,325.885 L832.36,331.915 L838.3,331.915 L838.3,336.055 L832.36,336.055 L832.36,347.53 C832.36,348.31 832.5475,348.9025 832.9225,349.3075 C833.2975,349.7125 833.92,349.915 834.79,349.915 C835.39,349.915 835.9375,349.885 836.4325,349.825 C836.9275,349.765 837.535,349.675 838.255,349.555 L838.255,354.01 Z M839.235,343.255 C839.235,341.605 839.4975,340.06 840.0225,338.62 C840.5475,337.18 841.2975,335.92 842.2725,334.84 C843.2475,333.76 844.4325,332.9125 845.8275,332.2975 C847.2225,331.6825 848.79,331.375 850.53,331.375 C852.27,331.375 853.8225,331.6675 855.1875,332.2525 C856.5525,332.8375 857.7,333.655 858.63,334.705 C859.56,335.755 860.265,337.0075 860.745,338.4625 C861.225,339.9175 861.465,341.515 861.465,343.255 L861.465,344.65 L844.185,344.65 L844.185,344.695 C844.305,345.655 844.5675,346.495 844.9725,347.215 C845.3775,347.935 845.8875,348.5275 846.5025,348.9925 C847.1175,349.4575 847.8075,349.81 848.5725,350.05 C849.3375,350.29 850.125,350.41 850.935,350.41 C852.435,350.41 853.74,350.125 854.85,349.555 C855.96,348.985 856.905,348.295 857.685,347.485 L859.98,351.4 C859.05,352.3 857.85,353.1175 856.38,353.8525 C854.91,354.5875 853.11,354.955 850.98,354.955 C849.18,354.955 847.5525,354.67 846.0975,354.1 C844.6425,353.53 843.4125,352.7275 842.4075,351.6925 C841.4025,350.6575 840.6225,349.4275 840.0675,348.0025 C839.5125,346.5775 839.235,344.995 839.235,343.255 Z M856.155,340.96 C856.005,339.4 855.4575,338.1325 854.5125,337.1575 C853.5675,336.1825 852.21,335.695 850.44,335.695 C848.64,335.695 847.23,336.1675 846.21,337.1125 C845.19,338.0575 844.53,339.34 844.23,340.96 L856.155,340.96 Z M874.64,336.01 C872.6,336.01 870.965,336.67 869.735,337.99 C868.505,339.31 867.89,341.035 867.89,343.165 C867.89,345.295 868.505,347.02 869.735,348.34 C870.965,349.66 872.6,350.32 874.64,350.32 C876.65,350.32 878.2775,349.675 879.5225,348.385 C880.7675,347.095 881.39,345.355 881.39,343.165 C881.39,340.975 880.7675,339.235 879.5225,337.945 C878.2775,336.655 876.65,336.01 874.64,336.01 Z M886.025,322.915 L886.025,354.415 L881.165,354.415 L881.165,351.22 C880.325,352.36 879.2675,353.2675 877.9925,353.9425 C876.7175,354.6175 875.195,354.955 873.425,354.955 C871.955,354.955 870.5825,354.685 869.3075,354.145 C868.0325,353.605 866.9225,352.8325 865.9775,351.8275 C865.0325,350.8225 864.2825,349.5925 863.7275,348.1375 C863.1725,346.6825 862.895,345.025 862.895,343.165 C862.895,341.305 863.1725,339.6475 863.7275,338.1925 C864.2825,336.7375 865.0325,335.5 865.9775,334.48 C866.9225,333.46 868.0325,332.6875 869.3075,332.1625 C870.5825,331.6375 871.94,331.375 873.38,331.375 C875.18,331.375 876.71,331.735 877.97,332.455 C879.23,333.175 880.295,334.075 881.165,335.155 L881.165,322.915 L886.025,322.915 Z M909.54,336.055 L909.54,354.415 L904.68,354.415 L904.68,336.055 L900.36,336.055 L900.36,331.915 L904.68,331.915 L904.68,330.7 C904.68,329.23 904.875,327.97 905.265,326.92 C905.655,325.87 906.1875,325.015 906.8625,324.355 C907.5375,323.695 908.3475,323.215 909.2925,322.915 C910.2375,322.615 911.265,322.465 912.375,322.465 C913.095,322.465 913.7625,322.5025 914.3775,322.5775 C914.9925,322.6525 915.63,322.735 916.29,322.825 L916.29,327.325 C915.66,327.205 915.0975,327.115 914.6025,327.055 C914.1075,326.995 913.62,326.965 913.14,326.965 C911.82,326.965 910.89,327.2725 910.35,327.8875 C909.81,328.5025 909.54,329.545 909.54,331.015 L909.54,331.915 L916.02,331.915 L916.02,336.055 L909.54,336.055 Z M915.83,343.165 C915.83,341.455 916.13,339.8725 916.73,338.4175 C917.33,336.9625 918.1625,335.7175 919.2275,334.6825 C920.2925,333.6475 921.5525,332.8375 923.0075,332.2525 C924.4625,331.6675 926.045,331.375 927.755,331.375 C929.465,331.375 931.0475,331.6675 932.5025,332.2525 C933.9575,332.8375 935.2175,333.6475 936.2825,334.6825 C937.3475,335.7175 938.18,336.9625 938.78,338.4175 C939.38,339.8725 939.68,341.455 939.68,343.165 C939.68,344.875 939.38,346.4575 938.78,347.9125 C938.18,349.3675 937.3475,350.6125 936.2825,351.6475 C935.2175,352.6825 933.9575,353.4925 932.5025,354.0775 C931.0475,354.6625 929.465,354.955 927.755,354.955 C926.045,354.955 924.4625,354.6625 923.0075,354.0775 C921.5525,353.4925 920.2925,352.6825 919.2275,351.6475 C918.1625,350.6125 917.33,349.3675 916.73,347.9125 C916.13,346.4575 915.83,344.875 915.83,343.165 Z M934.685,343.165 C934.685,342.115 934.5125,341.155 934.1675,340.285 C933.8225,339.415 933.3425,338.6725 932.7275,338.0575 C932.1125,337.4425 931.385,336.9625 930.545,336.6175 C929.705,336.2725 928.775,336.1 927.755,336.1 C926.735,336.1 925.805,336.2725 924.965,336.6175 C924.125,336.9625 923.3975,337.4425 922.7825,338.0575 C922.1675,338.6725 921.6875,339.415 921.3425,340.285 C920.9975,341.155 920.825,342.115 920.825,343.165 C920.825,344.215 920.9975,345.175 921.3425,346.045 C921.6875,346.915 922.1675,347.6575 922.7825,348.2725 C923.3975,348.8875 924.125,349.3675 924.965,349.7125 C925.805,350.0575 926.735,350.23 927.755,350.23 C928.775,350.23 929.705,350.0575 930.545,349.7125 C931.385,349.3675 932.1125,348.8875 932.7275,348.2725 C933.3425,347.6575 933.8225,346.915 934.1675,346.045 C934.5125,345.175 934.685,344.215 934.685,343.165 Z M947.545,335.47 C948.235,334.18 949.1125,333.175 950.1775,332.455 C951.2425,331.735 952.57,331.375 954.16,331.375 C954.91,331.375 955.645,331.465 956.365,331.645 L956.365,336.82 C955.975,336.73 955.5775,336.655 955.1725,336.595 C954.7675,336.535 954.34,336.505 953.89,336.505 C951.64,336.505 950.05,337.1725 949.12,338.5075 C948.19,339.8425 947.725,341.71 947.725,344.11 L947.725,354.415 L942.865,354.415 L942.865,331.915 L947.545,331.915 L947.545,335.47 Z M984.785,322.915 L984.785,354.415 L979.655,354.415 L979.655,330.7 L972.905,337.405 L969.35,333.76 L980.285,322.915 L984.785,322.915 Z M1006.015,333.355 C1006.015,332.515 1005.865,331.765 1005.565,331.105 C1005.265,330.445 1004.8675,329.89 1004.3725,329.44 C1003.8775,328.99 1003.3,328.645 1002.64,328.405 C1001.98,328.165 1001.275,328.045 1000.525,328.045 C998.935,328.045 997.63,328.54 996.61,329.53 C995.59,330.52 995.08,331.825 995.08,333.445 C995.08,335.065 995.5825,336.3475 996.5875,337.2925 C997.5925,338.2375 998.89,338.71 1000.48,338.71 C1002.1,338.71 1003.4275,338.2225 1004.4625,337.2475 C1005.4975,336.2725 1006.015,334.975 1006.015,333.355 Z M989.95,333.58 C989.95,331.99 990.22,330.5425 990.76,329.2375 C991.3,327.9325 992.0425,326.8075 992.9875,325.8625 C993.9325,324.9175 995.0575,324.19 996.3625,323.68 C997.6675,323.17 999.085,322.915 1000.615,322.915 C1002.535,322.915 1004.1925,323.29 1005.5875,324.04 C1006.9825,324.79 1008.115,325.795 1008.985,327.055 C1009.855,328.315 1010.47,329.785 1010.83,331.465 C1011.19,333.145 1011.37,335.095 1011.37,337.315 C1011.37,339.445 1011.19,341.53 1010.83,343.57 C1010.47,345.61 1009.8175,347.4325 1008.8725,349.0375 C1007.9275,350.6425 1006.645,351.94 1005.025,352.93 C1003.405,353.92 1001.335,354.415 998.815,354.415 C997.375,354.415 996.0625,354.25 994.8775,353.92 C993.6925,353.59 992.485,353.125 991.255,352.525 L993.235,347.845 C994.195,348.355 995.1625,348.7225 996.1375,348.9475 C997.1125,349.1725 998.035,349.285 998.905,349.285 C1000.045,349.285 1001.035,349.075 1001.875,348.655 C1002.715,348.235 1003.4125,347.6875 1003.9675,347.0125 C1004.5225,346.3375 1004.935,345.58 1005.205,344.74 C1005.475,343.9 1005.61,343.06 1005.61,342.22 L1005.61,342.175 C1003.93,343.285 1002.115,343.84 1000.165,343.84 C998.725,343.84 997.39,343.6 996.16,343.12 C994.93,342.64 993.85,341.9575 992.92,341.0725 C991.99,340.1875 991.2625,339.115 990.7375,337.855 C990.2125,336.595 989.95,335.17 989.95,333.58 Z M1032.23,322.915 L1032.23,354.415 L1027.28,354.415 L1027.28,322.915 L1032.23,322.915 Z M1035.415,343.165 C1035.415,341.455 1035.715,339.8725 1036.315,338.4175 C1036.915,336.9625 1037.7475,335.7175 1038.8125,334.6825 C1039.8775,333.6475 1041.1375,332.8375 1042.5925,332.2525 C1044.0475,331.6675 1045.63,331.375 1047.34,331.375 C1049.05,331.375 1050.6325,331.6675 1052.0875,332.2525 C1053.5425,332.8375 1054.8025,333.6475 1055.8675,334.6825 C1056.9325,335.7175 1057.765,336.9625 1058.365,338.4175 C1058.965,339.8725 1059.265,341.455 1059.265,343.165 C1059.265,344.875 1058.965,346.4575 1058.365,347.9125 C1057.765,349.3675 1056.9325,350.6125 1055.8675,351.6475 C1054.8025,352.6825 1053.5425,353.4925 1052.0875,354.0775 C1050.6325,354.6625 1049.05,354.955 1047.34,354.955 C1045.63,354.955 1044.0475,354.6625 1042.5925,354.0775 C1041.1375,353.4925 1039.8775,352.6825 1038.8125,351.6475 C1037.7475,350.6125 1036.915,349.3675 1036.315,347.9125 C1035.715,346.4575 1035.415,344.875 1035.415,343.165 Z M1054.27,343.165 C1054.27,342.115 1054.0975,341.155 1053.7525,340.285 C1053.4075,339.415 1052.9275,338.6725 1052.3125,338.0575 C1051.6975,337.4425 1050.97,336.9625 1050.13,336.6175 C1049.29,336.2725 1048.36,336.1 1047.34,336.1 C1046.32,336.1 1045.39,336.2725 1044.55,336.6175 C1043.71,336.9625 1042.9825,337.4425 1042.3675,338.0575 C1041.7525,338.6725 1041.2725,339.415 1040.9275,340.285 C1040.5825,341.155 1040.41,342.115 1040.41,343.165 C1040.41,344.215 1040.5825,345.175 1040.9275,346.045 C1041.2725,346.915 1041.7525,347.6575 1042.3675,348.2725 C1042.9825,348.8875 1043.71,349.3675 1044.55,349.7125 C1045.39,350.0575 1046.32,350.23 1047.34,350.23 C1048.36,350.23 1049.29,350.0575 1050.13,349.7125 C1050.97,349.3675 1051.6975,348.8875 1052.3125,348.2725 C1052.9275,347.6575 1053.4075,346.915 1053.7525,346.045 C1054.0975,345.175 1054.27,344.215 1054.27,343.165 Z M1060.875,343.21 C1060.875,341.47 1061.1675,339.88 1061.7525,338.44 C1062.3375,337 1063.155,335.755 1064.205,334.705 C1065.255,333.655 1066.5075,332.8375 1067.9625,332.2525 C1069.4175,331.6675 1071.03,331.375 1072.8,331.375 C1074.57,331.375 1076.145,331.6675 1077.525,332.2525 C1078.905,332.8375 1080.105,333.64 1081.125,334.66 L1078.2,338.485 C1077.51,337.795 1076.715,337.225 1075.815,336.775 C1074.915,336.325 1073.865,336.1 1072.665,336.1 C1071.705,336.1 1070.805,336.265 1069.965,336.595 C1069.125,336.925 1068.405,337.3975 1067.805,338.0125 C1067.205,338.6275 1066.7325,339.37 1066.3875,340.24 C1066.0425,341.11 1065.87,342.085 1065.87,343.165 C1065.87,344.245 1066.0425,345.22 1066.3875,346.09 C1066.7325,346.96 1067.205,347.7025 1067.805,348.3175 C1068.405,348.9325 1069.1175,349.405 1069.9425,349.735 C1070.7675,350.065 1071.66,350.23 1072.62,350.23 C1073.88,350.23 1074.9825,349.99 1075.9275,349.51 C1076.8725,349.03 1077.705,348.445 1078.425,347.755 L1081.215,351.625 C1080.255,352.585 1079.055,353.38 1077.615,354.01 C1076.175,354.64 1074.51,354.955 1072.62,354.955 C1070.85,354.955 1069.245,354.67 1067.805,354.1 C1066.365,353.53 1065.135,352.7275 1064.115,351.6925 C1063.095,350.6575 1062.3,349.42 1061.73,347.98 C1061.16,346.54 1060.875,344.95 1060.875,343.21 Z M1097.135,344.02 L1090.655,344.83 C1089.545,344.98 1088.7275,345.3175 1088.2025,345.8425 C1087.6775,346.3675 1087.415,347.005 1087.415,347.755 C1087.415,348.625 1087.7225,349.3225 1088.3375,349.8475 C1088.9525,350.3725 1089.875,350.635 1091.105,350.635 C1092.035,350.635 1092.875,350.485 1093.625,350.185 C1094.375,349.885 1095.005,349.4875 1095.515,348.9925 C1096.025,348.4975 1096.4225,347.9275 1096.7075,347.2825 C1096.9925,346.6375 1097.135,345.985 1097.135,345.325 L1097.135,344.02 Z M1083.05,336.775 C1083.62,335.095 1084.6925,333.775 1086.2675,332.815 C1087.8425,331.855 1089.95,331.375 1092.59,331.375 C1095.77,331.375 1098.1325,332.11 1099.6775,333.58 C1101.2225,335.05 1101.995,337.24 1101.995,340.15 L1101.995,354.415 L1097.135,354.415 L1097.135,351.31 C1096.445,352.36 1095.5075,353.215 1094.3225,353.875 C1093.1375,354.535 1091.69,354.865 1089.98,354.865 C1088.81,354.865 1087.7525,354.6925 1086.8075,354.3475 C1085.8625,354.0025 1085.0675,353.5225 1084.4225,352.9075 C1083.7775,352.2925 1083.275,351.5575 1082.915,350.7025 C1082.555,349.8475 1082.375,348.91 1082.375,347.89 C1082.375,345.82 1083.0575,344.185 1084.4225,342.985 C1085.7875,341.785 1087.505,341.095 1089.575,340.915 L1095.83,340.285 C1096.7,340.195 1097.135,339.85 1097.135,339.25 L1097.135,338.755 C1097.135,337.885 1096.7675,337.1725 1096.0325,336.6175 C1095.2975,336.0625 1094.18,335.785 1092.68,335.785 C1091.3,335.785 1090.085,336.0475 1089.035,336.5725 C1087.985,337.0975 1087.295,337.99 1086.965,339.25 L1083.05,336.775 Z M1118.815,354.01 C1117.375,354.43 1115.92,354.64 1114.45,354.64 C1112.38,354.64 1110.7975,354.13 1109.7025,353.11 C1108.6075,352.09 1108.06,350.335 1108.06,347.845 L1108.06,336.055 L1103.785,336.055 L1103.785,331.915 L1108.06,331.915 L1108.06,325.885 L1112.92,325.885 L1112.92,331.915 L1118.86,331.915 L1118.86,336.055 L1112.92,336.055 L1112.92,347.53 C1112.92,348.31 1113.1075,348.9025 1113.4825,349.3075 C1113.8575,349.7125 1114.48,349.915 1115.35,349.915 C1115.95,349.915 1116.4975,349.885 1116.9925,349.825 C1117.4875,349.765 1118.095,349.675 1118.815,349.555 L1118.815,354.01 Z M1121.64,325.435 C1121.64,324.475 1121.97,323.665 1122.63,323.005 C1123.29,322.345 1124.1,322.015 1125.06,322.015 C1126.02,322.015 1126.83,322.345 1127.49,323.005 C1128.15,323.665 1128.48,324.475 1128.48,325.435 C1128.48,326.395 1128.15,327.205 1127.49,327.865 C1126.83,328.525 1126.02,328.855 1125.06,328.855 C1124.1,328.855 1123.29,328.525 1122.63,327.865 C1121.97,327.205 1121.64,326.395 1121.64,325.435 Z M1127.49,331.915 L1127.49,354.415 L1122.63,354.415 L1122.63,331.915 L1127.49,331.915 Z M1130.99,343.165 C1130.99,341.455 1131.29,339.8725 1131.89,338.4175 C1132.49,336.9625 1133.3225,335.7175 1134.3875,334.6825 C1135.4525,333.6475 1136.7125,332.8375 1138.1675,332.2525 C1139.6225,331.6675 1141.205,331.375 1142.915,331.375 C1144.625,331.375 1146.2075,331.6675 1147.6625,332.2525 C1149.1175,332.8375 1150.3775,333.6475 1151.4425,334.6825 C1152.5075,335.7175 1153.34,336.9625 1153.94,338.4175 C1154.54,339.8725 1154.84,341.455 1154.84,343.165 C1154.84,344.875 1154.54,346.4575 1153.94,347.9125 C1153.34,349.3675 1152.5075,350.6125 1151.4425,351.6475 C1150.3775,352.6825 1149.1175,353.4925 1147.6625,354.0775 C1146.2075,354.6625 1144.625,354.955 1142.915,354.955 C1141.205,354.955 1139.6225,354.6625 1138.1675,354.0775 C1136.7125,353.4925 1135.4525,352.6825 1134.3875,351.6475 C1133.3225,350.6125 1132.49,349.3675 1131.89,347.9125 C1131.29,346.4575 1130.99,344.875 1130.99,343.165 Z M1149.845,343.165 C1149.845,342.115 1149.6725,341.155 1149.3275,340.285 C1148.9825,339.415 1148.5025,338.6725 1147.8875,338.0575 C1147.2725,337.4425 1146.545,336.9625 1145.705,336.6175 C1144.865,336.2725 1143.935,336.1 1142.915,336.1 C1141.895,336.1 1140.965,336.2725 1140.125,336.6175 C1139.285,336.9625 1138.5575,337.4425 1137.9425,338.0575 C1137.3275,338.6725 1136.8475,339.415 1136.5025,340.285 C1136.1575,341.155 1135.985,342.115 1135.985,343.165 C1135.985,344.215 1136.1575,345.175 1136.5025,346.045 C1136.8475,346.915 1137.3275,347.6575 1137.9425,348.2725 C1138.5575,348.8875 1139.285,349.3675 1140.125,349.7125 C1140.965,350.0575 1141.895,350.23 1142.915,350.23 C1143.935,350.23 1144.865,350.0575 1145.705,349.7125 C1146.545,349.3675 1147.2725,348.8875 1147.8875,348.2725 C1148.5025,347.6575 1148.9825,346.915 1149.3275,346.045 C1149.6725,345.175 1149.845,344.215 1149.845,343.165 Z M1162.75,335.02 C1163.59,333.85 1164.64,332.95 1165.9,332.32 C1167.16,331.69 1168.57,331.375 1170.13,331.375 C1171.51,331.375 1172.7175,331.6 1173.7525,332.05 C1174.7875,332.5 1175.6425,333.1375 1176.3175,333.9625 C1176.9925,334.7875 1177.495,335.7775 1177.825,336.9325 C1178.155,338.0875 1178.32,339.385 1178.32,340.825 L1178.32,354.415 L1173.37,354.415 L1173.37,341.455 C1173.37,339.595 1172.9425,338.215 1172.0875,337.315 C1171.2325,336.415 1170.085,335.965 1168.645,335.965 C1167.565,335.965 1166.6575,336.16 1165.9225,336.55 C1165.1875,336.94 1164.595,337.48 1164.145,338.17 C1163.695,338.86 1163.3725,339.685 1163.1775,340.645 C1162.9825,341.605 1162.885,342.655 1162.885,343.795 L1162.885,354.415 L1158.025,354.415 L1158.025,331.915 L1162.75,331.915 L1162.75,335.02 Z M1182.54,338.26 C1182.54,336.13 1183.32,334.45 1184.88,333.22 C1186.44,331.99 1188.63,331.375 1191.45,331.375 C1193.61,331.375 1195.41,331.7425 1196.85,332.4775 C1198.29,333.2125 1199.475,334.21 1200.405,335.47 L1197.12,338.62 C1196.58,337.81 1195.8075,337.1425 1194.8025,336.6175 C1193.7975,336.0925 1192.59,335.83 1191.18,335.83 C1190.07,335.83 1189.1775,336.025 1188.5025,336.415 C1187.8275,336.805 1187.49,337.345 1187.49,338.035 C1187.49,338.875 1187.9325,339.46 1188.8175,339.79 C1189.7025,340.12 1191.03,340.48 1192.8,340.87 C1193.76,341.08 1194.6975,341.3275 1195.6125,341.6125 C1196.5275,341.8975 1197.345,342.295 1198.065,342.805 C1198.785,343.315 1199.3625,343.9675 1199.7975,344.7625 C1200.2325,345.5575 1200.45,346.57 1200.45,347.8 C1200.45,349.03 1200.225,350.095 1199.775,350.995 C1199.325,351.895 1198.7025,352.6375 1197.9075,353.2225 C1197.1125,353.8075 1196.1525,354.2425 1195.0275,354.5275 C1193.9025,354.8125 1192.665,354.955 1191.315,354.955 C1189.155,354.955 1187.19,354.595 1185.42,353.875 C1183.65,353.155 1182.285,352 1181.325,350.41 L1184.655,347.215 C1185.345,348.385 1186.3125,349.2325 1187.5575,349.7575 C1188.8025,350.2825 1190.16,350.545 1191.63,350.545 C1192.77,350.545 1193.7,350.3575 1194.42,349.9825 C1195.14,349.6075 1195.5,348.985 1195.5,348.115 C1195.5,347.245 1195.095,346.6375 1194.285,346.2925 C1193.475,345.9475 1192.215,345.595 1190.505,345.235 C1189.635,345.055 1188.7275,344.8225 1187.7825,344.5375 C1186.8375,344.2525 1185.975,343.855 1185.195,343.345 C1184.415,342.835 1183.7775,342.1675 1183.2825,341.3425 C1182.7875,340.5175 1182.54,339.49 1182.54,338.26 Z" id="targeted-for-19-loca" fill="#AEB0C2"></path>
                    <path d="M912.76,282.005 L906.28,282.815 C905.17,282.965 904.3525,283.3025 903.8275,283.8275 C903.3025,284.3525 903.04,284.99 903.04,285.74 C903.04,286.61 903.3475,287.3075 903.9625,287.8325 C904.5775,288.3575 905.5,288.62 906.73,288.62 C907.66,288.62 908.5,288.47 909.25,288.17 C910,287.87 910.63,287.4725 911.14,286.9775 C911.65,286.4825 912.0475,285.9125 912.3325,285.2675 C912.6175,284.6225 912.76,283.97 912.76,283.31 L912.76,282.005 Z M898.675,274.76 C899.245,273.08 900.3175,271.76 901.8925,270.8 C903.4675,269.84 905.575,269.36 908.215,269.36 C911.395,269.36 913.7575,270.095 915.3025,271.565 C916.8475,273.035 917.62,275.225 917.62,278.135 L917.62,292.4 L912.76,292.4 L912.76,289.295 C912.07,290.345 911.1325,291.2 909.9475,291.86 C908.7625,292.52 907.315,292.85 905.605,292.85 C904.435,292.85 903.3775,292.6775 902.4325,292.3325 C901.4875,291.9875 900.6925,291.5075 900.0475,290.8925 C899.4025,290.2775 898.9,289.5425 898.54,288.6875 C898.18,287.8325 898,286.895 898,285.875 C898,283.805 898.6825,282.17 900.0475,280.97 C901.4125,279.77 903.13,279.08 905.2,278.9 L911.455,278.27 C912.325,278.18 912.76,277.835 912.76,277.235 L912.76,276.74 C912.76,275.87 912.3925,275.1575 911.6575,274.6025 C910.9225,274.0475 909.805,273.77 908.305,273.77 C906.925,273.77 905.71,274.0325 904.66,274.5575 C903.61,275.0825 902.92,275.975 902.59,277.235 L898.675,274.76 Z M931.92,273.995 C929.88,273.995 928.245,274.655 927.015,275.975 C925.785,277.295 925.17,279.02 925.17,281.15 C925.17,283.28 925.785,285.005 927.015,286.325 C928.245,287.645 929.88,288.305 931.92,288.305 C933.93,288.305 935.5575,287.66 936.8025,286.37 C938.0475,285.08 938.67,283.34 938.67,281.15 C938.67,278.96 938.0475,277.22 936.8025,275.93 C935.5575,274.64 933.93,273.995 931.92,273.995 Z M943.305,260.9 L943.305,292.4 L938.445,292.4 L938.445,289.205 C937.605,290.345 936.5475,291.2525 935.2725,291.9275 C933.9975,292.6025 932.475,292.94 930.705,292.94 C929.235,292.94 927.8625,292.67 926.5875,292.13 C925.3125,291.59 924.2025,290.8175 923.2575,289.8125 C922.3125,288.8075 921.5625,287.5775 921.0075,286.1225 C920.4525,284.6675 920.175,283.01 920.175,281.15 C920.175,279.29 920.4525,277.6325 921.0075,276.1775 C921.5625,274.7225 922.3125,273.485 923.2575,272.465 C924.2025,271.445 925.3125,270.6725 926.5875,270.1475 C927.8625,269.6225 929.22,269.36 930.66,269.36 C932.46,269.36 933.99,269.72 935.25,270.44 C936.51,271.16 937.575,272.06 938.445,273.14 L938.445,260.9 L943.305,260.9 Z M958.405,281.195 C958.405,279.455 958.6975,277.865 959.2825,276.425 C959.8675,274.985 960.685,273.74 961.735,272.69 C962.785,271.64 964.0375,270.8225 965.4925,270.2375 C966.9475,269.6525 968.56,269.36 970.33,269.36 C972.1,269.36 973.675,269.6525 975.055,270.2375 C976.435,270.8225 977.635,271.625 978.655,272.645 L975.73,276.47 C975.04,275.78 974.245,275.21 973.345,274.76 C972.445,274.31 971.395,274.085 970.195,274.085 C969.235,274.085 968.335,274.25 967.495,274.58 C966.655,274.91 965.935,275.3825 965.335,275.9975 C964.735,276.6125 964.2625,277.355 963.9175,278.225 C963.5725,279.095 963.4,280.07 963.4,281.15 C963.4,282.23 963.5725,283.205 963.9175,284.075 C964.2625,284.945 964.735,285.6875 965.335,286.3025 C965.935,286.9175 966.6475,287.39 967.4725,287.72 C968.2975,288.05 969.19,288.215 970.15,288.215 C971.41,288.215 972.5125,287.975 973.4575,287.495 C974.4025,287.015 975.235,286.43 975.955,285.74 L978.745,289.61 C977.785,290.57 976.585,291.365 975.145,291.995 C973.705,292.625 972.04,292.94 970.15,292.94 C968.38,292.94 966.775,292.655 965.335,292.085 C963.895,291.515 962.665,290.7125 961.645,289.6775 C960.625,288.6425 959.83,287.405 959.26,285.965 C958.69,284.525 958.405,282.935 958.405,281.195 Z M994.665,282.005 L988.185,282.815 C987.075,282.965 986.2575,283.3025 985.7325,283.8275 C985.2075,284.3525 984.945,284.99 984.945,285.74 C984.945,286.61 985.2525,287.3075 985.8675,287.8325 C986.4825,288.3575 987.405,288.62 988.635,288.62 C989.565,288.62 990.405,288.47 991.155,288.17 C991.905,287.87 992.535,287.4725 993.045,286.9775 C993.555,286.4825 993.9525,285.9125 994.2375,285.2675 C994.5225,284.6225 994.665,283.97 994.665,283.31 L994.665,282.005 Z M980.58,274.76 C981.15,273.08 982.2225,271.76 983.7975,270.8 C985.3725,269.84 987.48,269.36 990.12,269.36 C993.3,269.36 995.6625,270.095 997.2075,271.565 C998.7525,273.035 999.525,275.225 999.525,278.135 L999.525,292.4 L994.665,292.4 L994.665,289.295 C993.975,290.345 993.0375,291.2 991.8525,291.86 C990.6675,292.52 989.22,292.85 987.51,292.85 C986.34,292.85 985.2825,292.6775 984.3375,292.3325 C983.3925,291.9875 982.5975,291.5075 981.9525,290.8925 C981.3075,290.2775 980.805,289.5425 980.445,288.6875 C980.085,287.8325 979.905,286.895 979.905,285.875 C979.905,283.805 980.5875,282.17 981.9525,280.97 C983.3175,279.77 985.035,279.08 987.105,278.9 L993.36,278.27 C994.23,278.18 994.665,277.835 994.665,277.235 L994.665,276.74 C994.665,275.87 994.2975,275.1575 993.5625,274.6025 C992.8275,274.0475 991.71,273.77 990.21,273.77 C988.83,273.77 987.615,274.0325 986.565,274.5575 C985.515,275.0825 984.825,275.975 984.495,277.235 L980.58,274.76 Z M1022.735,273.68 C1023.515,272.42 1024.5425,271.385 1025.8175,270.575 C1027.0925,269.765 1028.735,269.36 1030.745,269.36 C1033.625,269.36 1035.7775,270.2375 1037.2025,271.9925 C1038.6275,273.7475 1039.34,276.11 1039.34,279.08 L1039.34,292.4 L1034.435,292.4 L1034.435,279.44 C1034.435,277.64 1034.045,276.275 1033.265,275.345 C1032.485,274.415 1031.315,273.95 1029.755,273.95 C1028.645,273.95 1027.7225,274.1525 1026.9875,274.5575 C1026.2525,274.9625 1025.66,275.51 1025.21,276.2 C1024.76,276.89 1024.4375,277.715 1024.2425,278.675 C1024.0475,279.635 1023.95,280.67 1023.95,281.78 L1023.95,292.4 L1019.09,292.4 L1019.09,279.44 C1019.09,277.64 1018.6925,276.275 1017.8975,275.345 C1017.1025,274.415 1015.925,273.95 1014.365,273.95 C1013.255,273.95 1012.3325,274.1525 1011.5975,274.5575 C1010.8625,274.9625 1010.27,275.5175 1009.82,276.2225 C1009.37,276.9275 1009.055,277.7525 1008.875,278.6975 C1008.695,279.6425 1008.605,280.67 1008.605,281.78 L1008.605,292.4 L1003.745,292.4 L1003.745,269.9 L1008.47,269.9 L1008.47,273.095 C1009.16,271.985 1010.0825,271.085 1011.2375,270.395 C1012.3925,269.705 1013.825,269.36 1015.535,269.36 C1017.335,269.36 1018.835,269.7425 1020.035,270.5075 C1021.235,271.2725 1022.135,272.33 1022.735,273.68 Z M1055.53,288.305 C1057.57,288.305 1059.205,287.645 1060.435,286.325 C1061.665,285.005 1062.28,283.28 1062.28,281.15 C1062.28,279.02 1061.665,277.295 1060.435,275.975 C1059.205,274.655 1057.57,273.995 1055.53,273.995 C1053.52,273.995 1051.8925,274.64 1050.6475,275.93 C1049.4025,277.22 1048.78,278.96 1048.78,281.15 C1048.78,283.34 1049.4025,285.08 1050.6475,286.37 C1051.8925,287.66 1053.52,288.305 1055.53,288.305 Z M1044.145,301.4 L1044.145,269.9 L1049.005,269.9 L1049.005,273.095 C1049.845,271.955 1050.9025,271.0475 1052.1775,270.3725 C1053.4525,269.6975 1054.975,269.36 1056.745,269.36 C1058.215,269.36 1059.5875,269.63 1060.8625,270.17 C1062.1375,270.71 1063.2475,271.4825 1064.1925,272.4875 C1065.1375,273.4925 1065.8875,274.73 1066.4425,276.2 C1066.9975,277.67 1067.275,279.32 1067.275,281.15 C1067.275,283.01 1066.9975,284.6675 1066.4425,286.1225 C1065.8875,287.5775 1065.1375,288.815 1064.1925,289.835 C1063.2475,290.855 1062.1375,291.6275 1060.8625,292.1525 C1059.5875,292.6775 1058.23,292.94 1056.79,292.94 C1054.99,292.94 1053.46,292.58 1052.2,291.86 C1050.94,291.14 1049.875,290.24 1049.005,289.16 L1049.005,301.4 L1044.145,301.4 Z M1084.05,282.005 L1077.57,282.815 C1076.46,282.965 1075.6425,283.3025 1075.1175,283.8275 C1074.5925,284.3525 1074.33,284.99 1074.33,285.74 C1074.33,286.61 1074.6375,287.3075 1075.2525,287.8325 C1075.8675,288.3575 1076.79,288.62 1078.02,288.62 C1078.95,288.62 1079.79,288.47 1080.54,288.17 C1081.29,287.87 1081.92,287.4725 1082.43,286.9775 C1082.94,286.4825 1083.3375,285.9125 1083.6225,285.2675 C1083.9075,284.6225 1084.05,283.97 1084.05,283.31 L1084.05,282.005 Z M1069.965,274.76 C1070.535,273.08 1071.6075,271.76 1073.1825,270.8 C1074.7575,269.84 1076.865,269.36 1079.505,269.36 C1082.685,269.36 1085.0475,270.095 1086.5925,271.565 C1088.1375,273.035 1088.91,275.225 1088.91,278.135 L1088.91,292.4 L1084.05,292.4 L1084.05,289.295 C1083.36,290.345 1082.4225,291.2 1081.2375,291.86 C1080.0525,292.52 1078.605,292.85 1076.895,292.85 C1075.725,292.85 1074.6675,292.6775 1073.7225,292.3325 C1072.7775,291.9875 1071.9825,291.5075 1071.3375,290.8925 C1070.6925,290.2775 1070.19,289.5425 1069.83,288.6875 C1069.47,287.8325 1069.29,286.895 1069.29,285.875 C1069.29,283.805 1069.9725,282.17 1071.3375,280.97 C1072.7025,279.77 1074.42,279.08 1076.49,278.9 L1082.745,278.27 C1083.615,278.18 1084.05,277.835 1084.05,277.235 L1084.05,276.74 C1084.05,275.87 1083.6825,275.1575 1082.9475,274.6025 C1082.2125,274.0475 1081.095,273.77 1079.595,273.77 C1078.215,273.77 1077,274.0325 1075.95,274.5575 C1074.9,275.0825 1074.21,275.975 1073.88,277.235 L1069.965,274.76 Z M1092.41,263.42 C1092.41,262.46 1092.74,261.65 1093.4,260.99 C1094.06,260.33 1094.87,260 1095.83,260 C1096.79,260 1097.6,260.33 1098.26,260.99 C1098.92,261.65 1099.25,262.46 1099.25,263.42 C1099.25,264.38 1098.92,265.19 1098.26,265.85 C1097.6,266.51 1096.79,266.84 1095.83,266.84 C1094.87,266.84 1094.06,266.51 1093.4,265.85 C1092.74,265.19 1092.41,264.38 1092.41,263.42 Z M1098.26,269.9 L1098.26,292.4 L1093.4,292.4 L1093.4,269.9 L1098.26,269.9 Z M1120.525,281.15 C1120.525,278.96 1119.925,277.22 1118.725,275.93 C1117.525,274.64 1115.92,273.995 1113.91,273.995 C1112.89,273.995 1111.96,274.1675 1111.12,274.5125 C1110.28,274.8575 1109.56,275.345 1108.96,275.975 C1108.36,276.605 1107.895,277.3625 1107.565,278.2475 C1107.235,279.1325 1107.07,280.1 1107.07,281.15 C1107.07,282.2 1107.235,283.1675 1107.565,284.0525 C1107.895,284.9375 1108.36,285.695 1108.96,286.325 C1109.56,286.955 1110.28,287.4425 1111.12,287.7875 C1111.96,288.1325 1112.89,288.305 1113.91,288.305 C1115.92,288.305 1117.525,287.66 1118.725,286.37 C1119.925,285.08 1120.525,283.34 1120.525,281.15 Z M1102.075,281.105 C1102.075,279.275 1102.3525,277.6325 1102.9075,276.1775 C1103.4625,274.7225 1104.2275,273.4925 1105.2025,272.4875 C1106.1775,271.4825 1107.31,270.71 1108.6,270.17 C1109.89,269.63 1111.285,269.36 1112.785,269.36 C1114.585,269.36 1116.13,269.72 1117.42,270.44 C1118.71,271.16 1119.67,272.015 1120.3,273.005 L1120.3,269.9 L1125.205,269.9 L1125.205,291.05 C1125.205,292.46 1125.0325,293.8175 1124.6875,295.1225 C1124.3425,296.4275 1123.735,297.59 1122.865,298.61 C1121.995,299.63 1120.8175,300.4475 1119.3325,301.0625 C1117.8475,301.6775 1115.965,301.985 1113.685,301.985 C1111.105,301.985 1109.035,301.5725 1107.475,300.7475 C1105.915,299.9225 1104.625,298.82 1103.605,297.44 L1106.575,293.84 C1107.415,295.04 1108.4125,295.955 1109.5675,296.585 C1110.7225,297.215 1112.11,297.53 1113.73,297.53 C1115.08,297.53 1116.1825,297.35 1117.0375,296.99 C1117.8925,296.63 1118.575,296.1425 1119.085,295.5275 C1119.595,294.9125 1119.9475,294.2075 1120.1425,293.4125 C1120.3375,292.6175 1120.435,291.785 1120.435,290.915 L1120.435,289.25 C1119.715,290.3 1118.7025,291.1475 1117.3975,291.7925 C1116.0925,292.4375 1114.585,292.76 1112.875,292.76 C1111.285,292.76 1109.83,292.4975 1108.51,291.9725 C1107.19,291.4475 1106.05,290.6825 1105.09,289.6775 C1104.13,288.6725 1103.3875,287.45 1102.8625,286.01 C1102.3375,284.57 1102.075,282.935 1102.075,281.105 Z M1134.735,273.005 C1135.575,271.835 1136.625,270.935 1137.885,270.305 C1139.145,269.675 1140.555,269.36 1142.115,269.36 C1143.495,269.36 1144.7025,269.585 1145.7375,270.035 C1146.7725,270.485 1147.6275,271.1225 1148.3025,271.9475 C1148.9775,272.7725 1149.48,273.7625 1149.81,274.9175 C1150.14,276.0725 1150.305,277.37 1150.305,278.81 L1150.305,292.4 L1145.355,292.4 L1145.355,279.44 C1145.355,277.58 1144.9275,276.2 1144.0725,275.3 C1143.2175,274.4 1142.07,273.95 1140.63,273.95 C1139.55,273.95 1138.6425,274.145 1137.9075,274.535 C1137.1725,274.925 1136.58,275.465 1136.13,276.155 C1135.68,276.845 1135.3575,277.67 1135.1625,278.63 C1134.9675,279.59 1134.87,280.64 1134.87,281.78 L1134.87,292.4 L1130.01,292.4 L1130.01,269.9 L1134.735,269.9 L1134.735,273.005 Z M1154.525,276.245 C1154.525,274.115 1155.305,272.435 1156.865,271.205 C1158.425,269.975 1160.615,269.36 1163.435,269.36 C1165.595,269.36 1167.395,269.7275 1168.835,270.4625 C1170.275,271.1975 1171.46,272.195 1172.39,273.455 L1169.105,276.605 C1168.565,275.795 1167.7925,275.1275 1166.7875,274.6025 C1165.7825,274.0775 1164.575,273.815 1163.165,273.815 C1162.055,273.815 1161.1625,274.01 1160.4875,274.4 C1159.8125,274.79 1159.475,275.33 1159.475,276.02 C1159.475,276.86 1159.9175,277.445 1160.8025,277.775 C1161.6875,278.105 1163.015,278.465 1164.785,278.855 C1165.745,279.065 1166.6825,279.3125 1167.5975,279.5975 C1168.5125,279.8825 1169.33,280.28 1170.05,280.79 C1170.77,281.3 1171.3475,281.9525 1171.7825,282.7475 C1172.2175,283.5425 1172.435,284.555 1172.435,285.785 C1172.435,287.015 1172.21,288.08 1171.76,288.98 C1171.31,289.88 1170.6875,290.6225 1169.8925,291.2075 C1169.0975,291.7925 1168.1375,292.2275 1167.0125,292.5125 C1165.8875,292.7975 1164.65,292.94 1163.3,292.94 C1161.14,292.94 1159.175,292.58 1157.405,291.86 C1155.635,291.14 1154.27,289.985 1153.31,288.395 L1156.64,285.2 C1157.33,286.37 1158.2975,287.2175 1159.5425,287.7425 C1160.7875,288.2675 1162.145,288.53 1163.615,288.53 C1164.755,288.53 1165.685,288.3425 1166.405,287.9675 C1167.125,287.5925 1167.485,286.97 1167.485,286.1 C1167.485,285.23 1167.08,284.6225 1166.27,284.2775 C1165.46,283.9325 1164.2,283.58 1162.49,283.22 C1161.62,283.04 1160.7125,282.8075 1159.7675,282.5225 C1158.8225,282.2375 1157.96,281.84 1157.18,281.33 C1156.4,280.82 1155.7625,280.1525 1155.2675,279.3275 C1154.7725,278.5025 1154.525,277.475 1154.525,276.245 Z" id="ad-campaigns" fill="#181819"></path>
                    <path d="M781.426098,255 L752.361513,255 C749.40049,255 747,257.400393 747,260.361513 L747,289.426293 C747,292.387413 749.400393,294.787805 752.361513,294.787805 L766.696027,294.787805 L766.720458,280.569796 L763.026625,280.569796 C762.546586,280.569796 762.156967,280.181638 762.155118,279.701598 L762.137404,275.118544 C762.135554,274.635877 762.526341,274.24363 763.009008,274.24363 L766.696125,274.24363 L766.696125,269.815236 C766.696125,264.676126 769.834778,261.877842 774.419195,261.877842 L778.181062,261.877842 C778.662367,261.877842 779.052666,262.268044 779.052666,262.749447 L779.052666,266.613901 C779.052666,267.095109 778.662659,267.485214 778.181548,267.485506 L775.87294,267.486577 C773.37979,267.486577 772.897025,268.671297 772.897025,270.409932 L772.897025,274.243727 L778.375336,274.243727 C778.897325,274.243727 779.302322,274.699531 779.240809,275.21792 L778.697601,279.800974 C778.645626,280.23955 778.273722,280.569991 777.832128,280.569991 L772.921455,280.569991 L772.897025,294.788 L781.426293,294.788 C784.387315,294.788 786.787708,292.387607 786.787708,289.426585 L786.787708,260.361513 C786.787611,257.400393 784.387218,255 781.426098,255 Z" id="Shape" fill="#181819" fill-rule="nonzero"></path>
                    <path d="M851.553834,259.427834 C854.179948,257.878569 857.195207,257.001573 860.240931,256.885398 C862.19437,256.803345 864.161214,257.029195 866.041942,257.56376 C867.61233,258.009367 869.121381,258.667825 870.519538,259.509075 C871.497273,260.091573 872.411234,260.77481 873.278482,261.510447 C873.241111,261.585188 873.170025,261.633121 873.115187,261.693239 C871.3681,263.442357 869.617357,265.187819 867.872301,266.938562 C866.84176,266.111123 865.673921,265.448603 864.416717,265.03468 C862.332073,264.338851 860.037422,264.311635 857.929219,264.922568 C855.617101,265.5859 853.544644,267.041332 852.128613,268.985022 C850.813728,270.769887 850.073623,272.963799 850.017973,275.178428 C849.964354,277.087591 850.406305,279.012596 851.312548,280.695502 C851.99416,281.966923 852.928837,283.102266 854.047119,284.01379 C855.310416,285.047581 856.807687,285.793373 858.394323,286.176424 C860.086573,286.591566 861.865344,286.568006 863.572623,286.255634 C865.096704,285.966417 866.582601,285.381482 867.819089,284.432181 C868.860192,283.647799 869.711191,282.613195 870.276222,281.438045 C870.604029,280.760495 870.839628,280.040294 870.991142,279.303438 C867.664731,279.301407 864.338725,279.303844 861.012314,279.30222 C861.012314,276.899924 861.012314,274.497629 861.012314,272.095333 C866.796265,272.095333 872.580216,272.094927 878.364167,272.095739 C878.629418,273.26764 878.806524,274.466351 878.784995,275.670342 C878.775246,278.025112 878.409662,280.388411 877.619593,282.610758 C876.988757,284.385873 876.082514,286.065937 874.917518,287.548178 C872.844655,290.20029 869.944352,292.177289 866.744677,293.207831 C864.327758,293.992618 861.747951,294.259089 859.219732,294.019022 C856.23047,293.74199 853.312294,292.725665 850.801948,291.078505 C848.274136,289.429313 846.159839,287.152128 844.704813,284.508141 C842.974381,281.402705 842.195686,277.7887 842.434128,274.245782 C842.62342,271.213056 843.573127,268.229888 845.180479,265.650487 C846.758585,263.100739 848.966715,260.944197 851.553834,259.427834 Z" id="Shape" fill="#181819" fill-rule="nonzero"></path>
                    <polygon id="+" fill="#181819" points="816.448 267 816.448 274.344 823.828 274.344 823.828 278.448 816.448 278.448 816.448 285.828 812.344 285.828 812.344 278.448 805 278.448 805 274.344 812.344 274.344 812.344 267"></polygon>
                    <g id="Group-4" transform="translate(476.000000, 437.000000)">
                        <path d="M922.810291,619.245945 L917.61809,614.525762 L915.257998,616.413835 C912.897907,618.301908 912.803503,618.301908 911.859467,616.602642 C909.404971,612.071267 907.800109,598.005122 908.460935,587.431912 C908.932953,578.746775 908.838549,576.386684 907.516898,574.026592 C906.572862,572.044115 906.195247,569.967235 906.667265,567.890354 C907.516898,563.264575 906.384054,560.715676 902.891119,559.299621 C899.398184,557.789163 897.982129,556.373108 897.51011,553.729806 C897.038092,551.464118 888.352955,547.593568 863.7136,538.62522 C854.178831,535.132285 845.304887,531.639349 844.077639,530.789716 C841.056722,528.80724 837.37498,522.387791 835.298099,515.307516 C834.259659,512.097792 832.182778,507.849627 830.577916,505.867151 C829.067458,503.884674 827.745806,502.091004 827.745806,501.807793 C827.745806,501.524582 829.445072,500.95816 831.521953,500.674949 C835.58131,500.014124 836.336539,498.220454 834.165255,494.633115 C833.221219,493.122657 833.315622,492.461831 835.203695,490.573758 L837.280576,488.213666 L834.165255,485.287153 C832.465989,483.587887 827.084981,480.283759 822.364798,478.018071 C815.473331,474.619539 812.452414,473.675503 808.109845,473.486695 C804.050488,473.297888 801.123975,472.448255 796.781406,470.088164 C793.288471,468.294494 791.21159,466.595228 791.589205,465.934403 C791.872416,465.367981 793.382875,463.2911 794.893333,461.403027 C796.87581,458.854128 797.442232,457.249266 797.064617,455.833211 C796.026177,452.717891 777.806271,434.309177 772.047648,430.627434 C769.215538,428.739361 763.928933,424.491196 760.24719,420.998261 C753.638934,414.673216 742.68811,407.498538 737.779119,406.27129 C736.079854,405.893676 734.569395,406.176887 733.530955,407.02652 C732.681322,407.876152 730.226827,408.725785 728.24435,409.008996 C726.167469,409.386611 723.901781,410.236244 723.146552,410.991473 C721.919305,412.218721 721.919305,412.690739 723.33536,414.862023 C724.3738,416.466885 725.317836,420.526243 725.789855,425.529637 C726.733891,435.630828 727.20591,436.858076 730.415634,437.707709 C735.607835,438.934956 735.513432,442.427892 730.038019,453.567523 C722.768938,468.294494 720.975268,469.144127 714.744627,460.553394 C709.646829,453.378716 706.814719,452.43468 705.493068,457.532477 C705.115453,459.326147 705.493068,460.836605 707.003527,462.819082 C709.363618,466.028806 711.629306,473.769906 711.629306,478.678897 C711.629306,480.661374 710.874077,483.115869 709.741233,484.531924 C708.702792,485.853575 707.853159,488.119263 707.853159,489.629721 C707.853159,492.273024 707.569948,492.461831 699.168023,495.01073 C694.353436,496.426785 689.161235,498.031647 687.650776,498.409261 C684.535456,499.447702 681.986557,498.409261 680.381695,495.388344 C679.532062,493.783482 679.626465,493.21706 680.948117,492.461831 C682.552979,491.612198 682.552979,491.423391 680.664906,490.007336 C679.060043,488.874492 678.493622,487.26963 678.304814,483.115869 C678.116007,480.094952 677.643989,477.357245 677.266374,476.979631 C676.322337,476.035594 673.584631,477.923667 672.357384,480.283759 C671.413347,482.171832 671.130136,482.077428 667.731604,477.546053 L664.049862,472.731466 L664.049862,459.703761 C663.955458,447.903304 664.144265,446.392845 665.937935,443.93835 C671.602154,436.291654 673.018209,428.361746 670.658118,417.222115 C668.486834,407.120923 664.899495,400.418263 660.273715,398.058172 C656.969587,396.358906 656.403165,396.264502 654.137478,397.49175 C649.700506,400.040649 646.301974,406.932116 645.546745,415.145234 C645.16913,419.110188 643.941882,425.529637 642.714635,429.305783 C640.920965,435.15881 640.732158,436.858076 641.581791,440.162204 C642.148213,442.333488 642.809038,448.186515 643.092249,453.095505 C643.37546,459.514954 644.225093,463.951926 645.924359,468.766513 C647.24601,472.448255 648.378854,476.035594 648.378854,476.69642 C648.378854,478.867704 645.641148,475.752383 642.620231,469.99376 C639.50491,464.235137 636.483993,460.836605 635.445553,461.969449 C633.935094,463.385504 638.088855,478.395686 642.431424,487.080822 C644.885919,491.989813 646.962799,496.237977 647.151607,496.426785 C647.24601,496.615592 648.00124,496.237977 648.756469,495.671555 C649.700506,494.916326 650.266927,494.821922 650.738946,495.577152 C651.588579,496.898803 654.98711,496.804399 654.98711,495.388344 C654.98711,494.727519 655.931147,495.293941 657.158395,496.615592 C658.291239,497.937243 661.972981,501.146968 665.277109,503.601463 C671.885365,508.510453 671.507751,508.416049 682.175364,505.395132 C683.969034,504.923114 684.252245,505.111921 684.252245,507.377609 C684.252245,509.548893 684.535456,509.737701 686.423529,509.171279 C692.370959,507.188802 694.353436,509.076875 689.53885,512.381003 C686.70674,514.36348 686.045914,514.457883 682.175364,513.419443 C678.588025,512.381003 677.643989,512.475407 675.472704,513.985865 C673.679035,515.118709 672.923806,516.44036 672.923806,518.23403 L672.923806,520.877332 L665.277109,517.950819 C660.65133,516.157149 655.931147,513.513847 653.476652,511.342563 C649.606102,507.944031 648.945276,507.66082 645.263534,508.227242 C643.092249,508.510453 637.805645,510.587333 633.463076,512.758618 C626.85482,516.157149 625.344362,516.534764 623.833903,515.590727 C620.90739,513.797058 620.057757,514.269076 620.057757,517.478801 C620.057757,519.744488 621.001793,521.349351 624.494729,524.747882 C627.043627,527.107974 628.459682,529.090451 627.798857,529.373662 C624.77794,530.317698 619.208124,526.919166 610.522987,518.611644 C605.425189,513.702654 600.79941,509.737701 600.138585,509.737701 C599.477759,509.737701 597.495282,508.416049 595.796016,506.716783 C593.05831,504.073481 591.925466,503.601463 586.544458,503.318252 L580.40822,502.940637 L580.40822,505.867151 C580.40822,509.360086 580.030605,509.360086 573.611156,506.905591 C568.890973,505.111921 561.527488,504.356692 561.527488,505.58394 C561.527488,505.867151 563.698772,508.604857 566.436478,511.53137 C569.079781,514.457883 572.66712,518.989259 574.366386,521.538158 C578.520147,527.957607 581.635467,530.695313 589.376567,534.565863 L595.984824,537.869991 L591.547852,538.530817 C588.998953,538.908431 585.600421,538.908431 583.806752,538.62522 C582.013082,538.247606 579.558587,538.530817 578.142532,539.097238 C576.160055,540.041275 575.027211,539.946871 572.195102,538.62522 C568.702166,537.114762 568.513359,537.114762 561.999506,539.852468 C557.845745,541.646137 555.013636,542.306963 554.447214,541.740541 C552.936755,540.230082 552.181526,540.796504 550.671067,544.28944 C549.632627,546.932742 548.877398,547.593568 547.65015,547.121549 C546.706114,546.743935 543.024371,546.083109 539.342628,545.611091 C533.772812,544.950265 532.451161,545.044669 531.035106,546.36632 C529.902262,547.310357 527.070153,548.065586 523.199603,548.254393 L517.063365,548.632008 L514.325659,553.540998 C509.605476,561.84852 509.98309,561.565309 508.378228,557.600356 C507.434191,555.429071 505.923733,553.729806 504.413274,553.163384 C497.427404,550.520081 398.492369,549.104026 365.639896,551.180907 C271.425044,557.033934 179.947898,574.120996 94.9846054,601.592461 C87.8099273,603.952552 81.9569004,605.651818 81.9569004,605.368607 C81.9569004,605.1798 82.9953407,603.38613 84.3169919,601.498057 C87.054698,597.4387 87.1491017,596.777874 85.1666248,594.60659 C83.75057,593.001728 83.75057,592.529709 85.1666248,588.470352 C87.2435053,582.428518 87.054698,580.634848 84.3169919,578.08595 C82.7121297,576.575491 81.9569004,574.876225 81.9569004,572.704941 C81.9569004,571.005675 81.3904785,568.928795 80.8240565,568.079162 C79.4080016,566.379896 74.593415,563.170172 72.3277272,562.320539 C70.1564431,561.565309 66.852315,564.963841 66.852315,567.890354 C66.852315,569.778428 67.418737,570.061639 70.722865,570.34485 C76.0094699,570.722464 77.7087358,573.271363 74.4990114,575.914665 L72.2333236,577.802739 L74.4046077,580.068426 C76.5758919,582.334114 76.5758919,582.428518 74.7822224,584.410995 C73.8381858,585.449435 69.1180028,588.187141 64.3978199,590.452829 C59.6776369,592.718517 54.5798393,595.64503 52.9749771,596.966681 L50.0484637,599.421177 L49.0100235,596.777874 C48.1603905,594.795397 48.1603905,592.057691 48.8212161,586.110261 C49.3876381,581.767692 49.8596564,575.820262 49.8596564,572.893748 C49.8596564,569.400813 50.3316747,567.323932 51.086904,567.040722 C51.8421332,566.757511 51.6533259,566.191089 50.3316747,565.152648 C48.4436015,563.736593 48.4436015,563.64219 50.237271,560.715676 C51.9365369,557.694759 51.9365369,557.694759 49.95406,554.957053 C47.4051613,551.558521 47.4995649,550.897696 50.3316747,549.009623 C53.6358027,546.838339 53.2581881,545.799898 49.2932344,545.422284 C45.8002991,545.139073 45.8002991,545.044669 43.7234186,538.058798 C42.5905746,534.188248 40.4192905,528.429625 38.8144283,525.314304 C37.2095661,522.198984 34.5662636,516.157149 32.9614014,511.908985 C31.2621356,507.755224 27.8636038,500.769353 25.2203014,496.426785 C15.1191099,479.622933 14.269477,476.979631 12.0981928,456.966055 C11.7205782,453.095505 11.6261745,448.375322 11.8149818,446.392845 C12.6646147,440.634222 9.45489034,430.910645 5.20672569,426.096059 C0.108928106,420.243032 -0.26868653,416.938904 3.60186349,408.536978 L6.71718423,401.739915 L5.01791837,391.261109 C3.03544153,379.17744 3.41305617,376.156523 7.56681717,368.415423 C10.2101196,363.506433 10.3989269,362.562396 9.45489034,359.258268 C8.22764278,354.632489 9.36048669,351.517168 12.5702111,350.00671 C14.4582843,349.157077 15.2135135,349.25148 16.7239721,350.573131 C18.3288343,352.08359 18.5176416,352.08359 19.0840636,350.00671 C19.3672745,348.779462 19.6504855,346.41937 19.6504855,344.625701 C19.6504855,342.265609 19.2728709,341.604784 18.3288343,341.982399 C17.290394,342.454417 16.7239721,341.51038 16.2519538,338.395059 C15.3079172,331.597996 16.3463575,328.293868 21.0665404,323.856896 C23.4266319,321.685612 25.3147051,319.608731 25.3147051,319.231117 C25.3147051,318.853502 24.2762648,316.871025 22.9546136,314.888548 L20.6889258,311.206806 L23.3322282,305.920201 C24.8426868,302.993687 26.3531453,298.839926 26.7307599,296.668642 C27.0139709,294.497358 28.5244295,291.004423 30.034888,289.021946 C31.5453465,286.945065 33.8110344,282.508093 35.2270892,279.015158 C37.3983734,273.539746 37.5871807,272.029287 37.0207588,266.270664 L36.4543368,259.662408 L39.5696576,257.774335 C41.3633271,256.641491 45.2338771,255.131032 48.2547942,254.281399 C52.9749771,252.865344 54.391032,251.921308 59.4888296,246.162685 C62.8873613,242.292135 67.135526,238.704796 69.7788284,237.383144 C72.7997455,235.778282 74.4046077,234.362227 74.593415,232.946172 C74.7822224,231.813328 76.3870846,229.925255 78.1807541,228.698008 C84.7890102,224.544247 86.2994688,222.844981 89.4147895,216.614339 C91.3972663,212.460578 92.5301102,208.590028 92.6245139,205.663515 C92.7189176,203.020213 93.2853395,200.848928 94.0405688,200.660121 C94.6069907,200.37691 95.1734127,199.149662 95.1734127,197.828011 C95.1734127,195.090305 93.5685505,195.562323 120.190382,191.125351 C134.256528,188.76526 140.203958,187.443609 140.77038,186.405169 C141.80882,184.517095 148.133865,180.457738 170.129918,167.807648 C180.042302,162.049025 190.898723,155.346365 194.297255,152.89187 C197.695786,150.437374 202.132758,147.510861 204.209639,146.472421 C209.118629,144.112329 222.618352,140.997009 233.946791,139.769761 C250.656239,137.976091 268.876145,136.560037 269.442567,137.032055 C269.725778,137.315266 270.008989,139.864165 270.103393,142.507467 L270.2922,147.510861 L284.452749,146.850035 C292.288253,146.566824 300.123756,145.905999 302.01183,145.433981 C306.165591,144.489944 316.077975,135.049578 317.49403,130.801413 C318.154855,128.91334 320.231736,126.742056 323.819075,124.381965 C326.745588,122.399488 330.238524,119.378571 331.654578,117.584901 C334.675496,113.525544 338.734853,103.707563 338.734853,100.214628 C338.734853,97.0993071 342.510999,91.5294912 347.514393,87.0925193 C352.234576,82.9387583 363.185401,76.6137131 366.867143,75.8584839 C369.699253,75.2920619 370.360079,75.6696765 376.307509,81.900318 C380.178059,86.054079 384.426224,89.3582071 387.069526,90.5854547 C391.128884,92.3791242 392.167324,92.4735278 397.925947,91.4350876 C403.967781,90.491051 404.628607,90.0190327 409.632001,84.9212351 C412.464111,81.900318 419.072367,72.9319704 424.170164,65.0020631 C429.645576,56.5057338 435.498603,48.4814228 438.425117,45.7437166 C443.900529,40.5515154 445.505391,37.2473873 450.036767,22.8980312 C453.435299,11.8528031 454.190528,11.0975738 463.347683,9.11509696 C466.746214,8.35986769 470.805572,7.03821646 472.31603,6.18858353 C473.920893,5.3389506 476.658599,4.67812499 478.546672,4.67812499 C480.529149,4.67812499 482.983644,3.92289572 484.399699,2.79005181 C486.854194,0.80757497 490.347129,0.335556675 492.42401,1.75161156 C493.46245,2.41243717 493.46245,2.60124449 492.235202,3.07326279 C491.385569,3.45087742 490.724744,4.77252865 490.724744,6.18858353 C490.724744,7.60463842 489.5919,12.0416104 488.175845,16.1009677 C485.910157,22.9924348 485.815754,23.8420678 486.948597,27.4294068 C488.175845,31.1111495 488.175845,31.3943605 486.004561,32.9992227 L483.738873,34.6984885 L486.75979,37.5305983 C490.158322,40.7403227 490.347129,41.212341 488.364652,44.0444508 C487.043001,45.932524 487.043001,46.2157349 488.836671,47.4429825 C489.875111,48.1038081 491.385569,50.2750923 492.140799,52.2575691 C492.990432,54.1456423 494.028872,55.4672935 494.595294,55.0896789 C495.916945,54.240046 499.126669,57.3553667 500.731532,61.1315131 C501.675568,63.5860082 502.430798,64.1524301 503.752449,63.7748155 C506.86777,62.7363753 508.661439,64.0580265 508.095017,66.7957326 L507.622999,69.3446314 L514.514466,69.439035 C518.857034,69.439035 522.444373,70.005457 524.332446,71.0438973 C531.318317,74.72564 539.814646,86.9981156 537.83217,90.6798583 C536.699326,92.9455461 537.265748,93.9839864 540.758683,95.7776559 C543.401986,97.1937108 543.496389,97.0993071 544.534829,93.8895827 C545.101251,92.0959132 546.045288,90.3966473 546.517306,90.1134364 C546.989325,89.7358217 550.48226,91.057473 554.164003,92.9455461 C557.940149,94.7392157 564.076387,96.9104998 567.663726,97.6657291 C573.894367,98.8929766 574.744,98.8929766 580.40822,97.1937108 C583.806752,96.1552705 588.243724,95.3056376 590.320604,95.3056376 C593.530328,95.3056376 594.474365,95.7776559 596.740053,98.6097657 C599.76097,102.385912 601.271428,102.574719 607.313263,100.025821 C609.767758,98.9873803 611.939042,98.1377474 612.127849,98.1377474 C612.41106,98.1377474 611.467024,100.214628 609.956565,102.763527 C607.030052,108.050132 607.313263,108.994168 610.995005,107.578113 C614.20473,106.350866 616.28161,101.630683 616.28161,95.3056376 C616.28161,91.8127022 616.753629,90.1134364 618.169683,88.6973815 C620.529775,86.33729 621.662619,86.33729 625.249958,88.6973815 C627.326838,90.0190327 628.931701,90.3966473 631.952618,89.924629 C635.256746,89.4526108 636.106379,89.7358217 637.42803,91.6238949 C639.599314,94.7392157 639.316103,95.9664632 636.011975,98.9873803 C633.840691,101.064261 633.274269,102.197105 633.746287,103.707563 C634.690324,106.634077 636.861608,106.162058 640.732158,102.008297 C642.620231,100.025821 646.301974,97.1937108 649.03968,95.8720596 C651.777386,94.5504083 654.326285,92.6623352 654.892707,91.8127022 C655.74234,90.20784 655.931147,90.20784 657.724817,91.9071059 C661.595367,95.4000413 659.896101,98.4209584 652.91023,100.497839 C649.606102,101.441875 648.756469,102.102701 648.567662,104.179582 C648.190047,107.389306 649.794909,109.466186 652.721423,109.466186 C655.74234,109.466186 655.647936,111.071049 652.532615,112.487104 C650.644542,113.336736 649.700506,113.336736 648.284451,112.487104 C645.16913,110.504627 642.714635,111.071049 642.714635,113.714351 C642.714635,116.357654 641.581791,116.735268 639.882525,114.658388 C637.900048,112.203893 632.51904,112.864718 629.403719,115.980039 C627.89326,117.490497 626.666013,119.09536 626.666013,119.567378 C626.666013,119.944993 628.459682,121.077837 630.72537,122.021873 C634.784727,123.626735 634.879131,123.626735 641.015369,121.361047 L647.151607,119.000956 L652.627019,122.777102 C657.252798,125.892423 658.763257,126.458845 663.200229,126.458845 C668.958852,126.458845 673.490228,128.063707 676.13353,131.084624 C678.399218,133.633523 678.96564,133.633523 680.287291,130.70701 C681.231328,128.535726 681.892153,128.346918 687.084354,128.346918 L692.748574,128.346918 L692.748574,131.179028 C692.748574,133.82233 692.937381,134.011138 696.52472,134.011138 C698.601601,134.011138 702.18894,134.483156 704.549031,135.143982 C708.13637,136.088018 710.118847,136.088018 716.821507,134.671963 C724.3738,133.161505 725.223433,132.689487 730.226827,127.8749 L735.513432,122.777102 L742.027284,126.08123 C747.030678,128.630129 748.824347,130.046184 749.579577,132.123065 C750.523613,134.860771 750.712421,134.955174 756.848658,134.955174 C763.645722,134.955174 764.684162,134.294349 768.554712,128.158111 C769.498749,126.647652 772.425262,124.381965 775.162968,123.060313 C781.110399,120.039396 785.830582,116.546461 787.057829,114.280773 C787.624251,113.336736 788.473884,108.805361 788.945903,104.179582 C790.928379,87.9421522 791.022783,87.1869229 791.96682,88.9805925 C793.194067,91.1518766 796.309388,90.9630693 797.064617,88.6973815 C797.347828,87.6589412 797.159021,85.3932534 796.498195,83.6939876 C795.554159,80.9562814 795.648562,80.1066485 797.442232,76.6137131 C800.651956,70.288668 802.728837,68.6838058 806.504983,69.439035 C809.148286,69.9110533 809.809111,69.722246 809.809111,68.5894021 C809.809111,67.7397692 811.225166,65.9460997 813.018836,64.6244484 C815.001312,63.1139899 816.134156,61.6035314 815.756542,60.7538984 C815.473331,59.9986691 816.322964,58.2994033 817.644615,57.0721557 C818.871862,55.7505045 820.193514,53.4848167 820.476725,51.9743581 C820.854339,50.1806886 821.798376,48.953441 823.214431,48.5758264 C824.347275,48.1982118 827.462595,45.8381203 830.011494,43.3836252 C832.654797,40.92913 835.770117,38.3802312 836.997365,37.8138093 C838.602227,36.9641764 838.979842,36.1145434 838.602227,34.7928922 C838.035805,32.9992227 838.130209,32.904819 840.207089,34.1320666 C842.28397,35.2649105 842.850392,35.4537178 845.399291,35.7369288 C849.269841,36.1145434 851.252317,49.8974776 850.308281,70.288668 C850.02507,76.0472912 849.458648,78.5017863 847.948189,80.6730705 C846.815345,82.2779327 845.682502,84.8268315 845.304887,86.33729 C844.927272,87.9421522 841.056722,95.0224266 836.61975,102.197105 C832.277182,109.371783 828.689843,115.413617 828.689843,115.696828 C828.689843,115.885635 829.539476,116.074443 830.577916,116.074443 C832.182778,116.074443 831.427549,117.396094 826.424155,124.00435 C819.155073,133.539119 813.868469,142.696274 811.697184,149.870952 C810.281129,154.307924 809.809111,154.96875 809.148286,153.363888 C808.770671,152.325448 808.393056,149.210127 808.393056,146.566824 C808.393056,143.829118 808.204249,141.563431 807.921038,141.563431 C807.071405,141.563431 805.088928,149.682145 805.088928,152.797466 C805.088928,154.307924 805.749754,156.00719 806.504983,156.668016 C808.204249,158.084071 808.298653,163.181868 806.882598,168.37407 C805.65535,172.999849 807.44902,186.688379 809.997918,191.786177 C810.941955,193.768654 811.697184,196.600764 811.697184,198.111222 C811.697184,199.621681 812.169203,201.226543 812.641221,201.509754 C813.207643,201.887369 813.490854,203.303423 813.39645,204.625075 C813.207643,206.135533 813.585258,207.07957 814.151679,206.985166 C814.812505,206.890763 816.039753,207.645992 816.889386,208.590028 C817.833422,209.628469 818.966266,210.478102 819.438284,210.478102 C821.231954,210.478102 829.445072,218.313605 830.011494,220.484889 C830.389109,221.712137 831.049934,222.750577 831.521953,222.750577 C832.843604,222.750577 837.186172,229.547641 837.186172,231.624521 C837.186172,232.662961 838.035805,234.362227 839.074245,235.495071 C840.207089,236.627915 842.567181,240.687272 844.549658,244.557822 C847.381767,250.316446 848.892226,252.110115 852.762776,254.56461 C859.937454,259.001582 862.67516,261.928096 862.67516,264.854609 C862.67516,267.875526 866.54571,274.861397 870.510664,279.109562 C872.115526,280.808828 875.419654,282.885708 877.968553,283.735341 C882.688736,285.245799 885.992864,288.549928 884.482405,290.060386 C883.915983,290.626808 882.405525,289.965982 880.517452,288.455524 C877.024516,285.52901 873.531581,285.434607 873.531581,288.36112 C873.531581,289.682771 874.28681,290.343597 876.174883,290.532404 C878.251764,290.815615 878.723782,291.287634 878.723782,293.553321 C878.723782,295.724606 878.15736,296.385431 875.702865,297.329468 C872.776352,298.367908 872.681948,298.462312 874.664425,299.217541 C875.797269,299.689559 877.213324,300.916807 877.779746,301.955247 C878.91259,304.220935 880.706259,304.409742 883.538369,302.80488 C885.237635,301.76644 885.709653,301.860843 887.69213,304.220935 C890.807451,307.71387 892.317909,313.661301 890.901854,316.399007 C889.863414,318.381484 889.76901,318.381484 888.636166,315.549374 C887.408919,312.717264 887.408919,312.717264 882.688736,313.661301 C878.723782,314.510934 877.590938,314.41653 875.514058,313.094879 C874.192407,312.245246 872.965159,311.490017 872.681948,311.490017 C871.926719,311.490017 870.038646,321.024786 870.605068,321.685612 C870.982682,321.968823 872.493141,321.496805 874.003599,320.647172 C876.741305,319.042309 876.741305,319.042309 880.98947,322.15763 L885.143231,325.367355 L883.349562,328.105061 C882.216718,329.89873 881.744699,331.6924 882.02791,333.297262 C882.78314,336.695794 879.573415,338.67827 873.531581,338.583867 C870.888279,338.583867 867.772958,339.055885 866.54571,339.716711 C864.46883,340.849555 864.374426,341.038362 865.884885,341.887995 C866.828921,342.454417 868.622591,342.643224 869.849838,342.360013 C872.115526,341.982399 872.021122,342.076802 869.094609,344.625701 L865.979288,347.363407 L868.150572,348.968269 L870.321857,350.478728 L865.412866,353.782856 C861.447913,356.426158 860.787087,357.181388 862.014335,357.842213 C862.863968,358.314232 864.46883,358.314232 865.884885,357.74781 C869.755435,356.331755 869.849838,358.503039 866.073692,362.373589 C862.391949,366.149735 861.919931,367.188175 863.996811,367.188175 C866.451307,367.188175 866.640114,369.076249 864.280022,370.114689 C862.580757,370.869918 861.164702,373.23001 858.993417,378.705422 C857.388555,382.764779 856.066904,387.107348 856.066904,388.240191 C856.066904,390.78909 860.126261,397.019732 862.67516,398.341383 C865.129655,399.663034 866.262499,397.302943 864.752041,394.282026 C863.052775,390.694687 863.808004,384.558449 866.356903,382.00955 C867.489747,380.687899 868.33938,379.17744 867.961765,378.705422 C867.678554,378.233404 869.094609,376.250927 871.17149,374.26845 C873.153966,372.285973 875.04204,369.737074 875.32525,368.509827 C875.797269,366.716157 876.552498,366.244139 878.723782,366.244139 C882.02791,366.244139 882.311121,365.016891 880.045433,360.202305 C878.534975,357.086984 878.91259,352.744416 880.517452,354.538085 C880.98947,355.010103 882.216718,360.86313 883.349562,367.471386 C885.89846,382.764779 885.426442,385.408082 878.818186,390.128265 C875.230847,392.771567 874.098003,394.187622 873.625985,396.925328 C873.24837,398.813401 873.059563,400.512667 873.24837,400.701474 C873.437177,400.890282 875.702865,400.512667 878.346168,399.946245 C883.632772,398.718998 886.181671,397.019732 886.370479,394.65964 C886.559286,391.355512 894.772404,423.169545 894.772404,427.228903 C894.772404,428.078536 893.63956,428.550554 891.468276,428.550554 L888.164148,428.550554 L888.164148,433.176333 C888.164148,437.141287 888.824974,438.840553 892.789927,444.787983 C899.114973,454.133945 902.230293,456.871651 912.709099,462.535871 C923.282309,468.294494 926.492034,471.126604 928.002492,475.941191 C929.22974,480.000548 929.418547,480.094952 931.684235,478.018071 C933.194693,476.69642 933.572308,476.885227 936.404418,480.472566 C938.481298,483.021465 939.80295,483.965502 940.463775,483.304676 C942.068637,481.699814 942.729463,482.171832 946.600013,487.080822 C950.376159,491.801005 950.753774,493.972289 947.921664,495.01073 C945.844784,495.860363 945.278362,494.916326 946.600013,493.311464 C948.299279,491.234583 947.072031,488.402474 943.862307,487.080822 C939.991757,485.47596 937.065243,486.419997 934.988363,490.007336 C934.044326,491.612198 931.778639,493.500271 930.079373,494.2555 C927.152859,495.482748 926.869648,495.954766 926.869648,499.825316 C926.869648,502.091004 927.341667,504.262288 927.908089,504.639903 C928.663318,505.017518 928.096896,505.772747 926.492034,506.62238 C923.471117,508.227242 923.376713,510.209719 925.925612,520.877332 C928.096896,529.84568 929.890565,533.810634 932.628271,535.509899 C933.666712,536.076321 936.121207,538.814027 938.103684,541.362926 C941.030197,545.233476 941.785426,547.121549 942.163041,551.558521 C942.635059,557.883567 945.089554,561.565309 946.78882,558.638796 C948.488086,555.523475 948.110472,555.14586 961.893406,569.967235 C965.386341,573.648978 967.463222,576.669895 967.463222,578.08595 C967.463222,581.295674 964.253497,584.788609 959.910929,586.582279 C957.550837,587.526316 955.379553,589.225581 954.435517,591.019251 C953.49148,592.718517 951.792214,594.040168 950.187352,594.417783 C947.072031,595.078608 945.467169,597.910718 941.407812,609.711175 C938.386895,618.679523 934.233134,623.966128 930.362584,623.966128 C928.757721,623.966128 926.208823,622.361266 922.810291,619.245945 Z M908.838549,450.452203 C904.401577,448.56413 899.964605,446.298442 898.926165,445.543212 C896.566074,443.749543 893.828368,439.878993 893.828368,438.274131 C893.828368,436.008443 896.377266,437.046883 902.513504,441.578259 C908.177724,445.637616 918.184512,454.133945 917.334879,454.039542 C917.146071,453.945138 913.275521,452.340276 908.838549,450.452203 Z" id="usa" fill="#FFFFFF" fill-rule="nonzero" opacity="0.5" transform="translate(484.231611, 312.450042) scale(1, -1) translate(-484.231611, -312.450042) "></path>
                        <g id="dots" transform="translate(0.000000, 27.000000)">
                            <g id="-" transform="translate(194.000000, 201.000000)">
                                <circle id="Oval" fill="#36A599" cx="21.5" cy="21.5" r="3.5"></circle>
                                <circle id="Oval" stroke="#36A599" stroke-width="2" opacity="0.149999991" cx="21.5" cy="21.5" r="20.5"></circle>
                            </g>
                            <g id="-" transform="translate(120.000000, 290.000000)">
                                <circle id="Oval" fill="#36A599" cx="21.5" cy="21.5" r="3.5"></circle>
                                <circle id="Oval" stroke="#36A599" stroke-width="2" opacity="0.149999991" cx="21.5" cy="21.5" r="20.5"></circle>
                            </g>
                            <g id="-" transform="translate(0.000000, 232.000000)">
                                <circle id="Oval" fill="#36A599" cx="21.5" cy="21.5" r="3.5"></circle>
                                <circle id="Oval" stroke="#36A599" stroke-width="2" opacity="0.149999991" cx="21.5" cy="21.5" r="20.5"></circle>
                            </g>
                            <g id="-" transform="translate(281.000000, 353.000000)">
                                <circle id="Oval" fill="#36A599" cx="21.5" cy="21.5" r="3.5"></circle>
                                <circle id="Oval" stroke="#36A599" stroke-width="2" opacity="0.149999991" cx="21.5" cy="21.5" r="20.5"></circle>
                            </g>
                            <g id="-" transform="translate(449.000000, 468.000000)">
                                <circle id="Oval" fill="#36A599" cx="21.5" cy="21.5" r="3.5"></circle>
                                <circle id="Oval" stroke="#36A599" stroke-width="2" opacity="0.149999991" cx="21.5" cy="21.5" r="20.5"></circle>
                            </g>
                            <g id="-" transform="translate(610.000000, 337.000000)">
                                <circle id="Oval" fill="#36A599" cx="21.5" cy="21.5" r="3.5"></circle>
                                <circle id="Oval" stroke="#36A599" stroke-width="2" opacity="0.149999991" cx="21.5" cy="21.5" r="20.5"></circle>
                            </g>
                            <g id="-" transform="translate(512.000000, 270.000000)">
                                <circle id="Oval" fill="#36A599" cx="21.5" cy="21.5" r="3.5"></circle>
                                <circle id="Oval" stroke="#36A599" stroke-width="2" opacity="0.149999991" cx="21.5" cy="21.5" r="20.5"></circle>
                            </g>
                            <g id="-" transform="translate(620.000000, 174.000000)">
                                <circle id="Oval" fill="#36A599" cx="21.5" cy="21.5" r="3.5"></circle>
                                <circle id="Oval" stroke="#36A599" stroke-width="2" opacity="0.149999991" cx="21.5" cy="21.5" r="20.5"></circle>
                            </g>
                            <g id="-" transform="translate(697.000000, 227.000000)">
                                <circle id="Oval" fill="#36A599" cx="21.5" cy="21.5" r="3.5"></circle>
                                <circle id="Oval" stroke="#36A599" stroke-width="2" opacity="0.149999991" cx="21.5" cy="21.5" r="20.5"></circle>
                            </g>
                            <g id="-" transform="translate(802.000000, 201.000000)">
                                <circle id="Oval" fill="#36A599" cx="21.5" cy="21.5" r="3.5"></circle>
                                <circle id="Oval" stroke="#36A599" stroke-width="2" opacity="0.149999991" cx="21.5" cy="21.5" r="20.5"></circle>
                            </g>
                            <g id="-" transform="translate(719.000000, 369.000000)">
                                <circle id="Oval" fill="#36A599" cx="21.5" cy="21.5" r="3.5"></circle>
                                <circle id="Oval" stroke="#36A599" stroke-width="2" opacity="0.149999991" cx="21.5" cy="21.5" r="20.5"></circle>
                            </g>
                            <g id="-" transform="translate(831.000000, 519.000000)">
                                <circle id="Oval" fill="#36A599" cx="21.5" cy="21.5" r="3.5"></circle>
                                <circle id="Oval" stroke="#36A599" stroke-width="2" opacity="0.149999991" cx="21.5" cy="21.5" r="20.5"></circle>
                            </g>
                            <g id="m" transform="translate(55.000000, 0.000000)">
                                <g id="Group">
                                    <circle id="Oval" fill="#36A599" cx="21.5" cy="21.5" r="21.5"></circle>
                                    <circle id="Oval" fill="#EBECF5" cx="21.5" cy="21.5" r="3.5"></circle>
                                </g>
                                <g id="Group" transform="translate(22.000000, 369.000000)">
                                    <circle id="Oval" fill="#36A599" cx="21.5" cy="21.5" r="21.5"></circle>
                                    <circle id="Oval" fill="#EBECF5" cx="21.5" cy="21.5" r="3.5"></circle>
                                </g>
                                <g id="Group" transform="translate(271.000000, 253.000000)">
                                    <circle id="Oval" fill="#36A599" cx="21.5" cy="21.5" r="21.5"></circle>
                                    <circle id="Oval" fill="#EBECF5" cx="21.5" cy="21.5" r="3.5"></circle>
                                </g>
                                <g id="Group" transform="translate(399.000000, 353.000000)">
                                    <circle id="Oval" fill="#36A599" cx="21.5" cy="21.5" r="21.5"></circle>
                                    <circle id="Oval" fill="#EBECF5" cx="21.5" cy="21.5" r="3.5"></circle>
                                </g>
                                <g id="Group" transform="translate(555.000000, 468.000000)">
                                    <circle id="Oval" fill="#36A599" cx="21.5" cy="21.5" r="21.5"></circle>
                                    <circle id="Oval" fill="#EBECF5" cx="21.5" cy="21.5" r="3.5"></circle>
                                </g>
                                <g id="Group" transform="translate(727.000000, 312.000000)">
                                    <circle id="Oval" fill="#36A599" cx="21.5" cy="21.5" r="21.5"></circle>
                                    <circle id="Oval" fill="#EBECF5" cx="21.5" cy="21.5" r="3.5"></circle>
                                </g>
                                <g id="Group" transform="translate(808.000000, 137.000000)">
                                    <circle id="Oval" fill="#36A599" cx="21.5" cy="21.5" r="21.5"></circle>
                                    <circle id="Oval" fill="#EBECF5" cx="21.5" cy="21.5" r="3.5"></circle>
                                </g>
                            </g>
                        </g>
                    </g>
                </g>
            </g>
        </g>
    </g>
</svg>