<svg xmlns="http://www.w3.org/2000/svg" width="1920" height="1433" fill="none">
  <path fill="#fff" d="M0 0h1920v1433H0z"/>
  <path fill="#1B052A" d="M238 292h361v450H238V292Z"/>
  <path fill="#fff" d="M281.078 349.96c3.379 0 5.842-2.506 5.842-5.98 0-3.474-2.463-5.98-5.842-5.98-3.397 0-5.859 2.506-5.859 5.98 0 3.474 2.462 5.98 5.859 5.98Zm-.017-1.37c-2.463 0-4.263-1.937-4.263-4.61s1.8-4.627 4.263-4.627c2.496 0 4.279 1.954 4.279 4.627s-1.783 4.61-4.279 4.61Zm15.174-7.182h-1.444v3.691c0 2.222-1.019 3.575-2.615 3.575-1.206 0-1.936-.819-1.936-1.955v-5.311h-1.444v5.579c0 1.787 1.274 2.973 3.057 2.973 1.308 0 2.344-.718 2.938-1.721v1.587h1.444v-8.418Zm7.356 1.386.085-1.37c-.289-.1-.629-.15-.985-.15-1.053 0-2.174.768-2.666 1.837v-1.703h-1.444v8.418h1.444v-3.207c0-2.739 1.103-4.025 2.462-4.025.374 0 .781.066 1.104.2Zm7.411-1.386v1.135c-.51-.735-1.631-1.269-2.768-1.269-2.599 0-4.042 1.787-4.042 4.176 0 2.372 1.443 4.159 4.076 4.159 1.222 0 2.343-.484 2.734-1.203v1.17c0 1.319-1.053 2.221-2.565 2.221-1.307 0-2.309-.651-2.394-1.587l-1.393.234c.255 1.52 1.8 2.556 3.787 2.556 2.361 0 3.991-1.453 3.991-3.575v-8.017h-1.426Zm-2.599 6.932c-1.664 0-2.734-1.136-2.734-2.89 0-1.771 1.07-2.907 2.734-2.907 1.648 0 2.718 1.136 2.718 2.907 0 1.754-1.07 2.89-2.718 2.89Zm6.365 1.486h1.443V338h-1.443v11.826Zm6.974-8.552c-1.8 0-3.21 1.086-3.465 2.756l1.342.251c.119-1.136.951-1.821 2.123-1.821 1.256 0 2.089.735 2.089 1.887v.167l-1.665.184c-2.734.267-4.076 1.153-4.076 2.773 0 1.453 1.172 2.489 2.887 2.489 1.24 0 2.361-.601 2.854-1.57v1.436h1.426v-5.395c0-1.954-1.443-3.157-3.515-3.157Zm-.544 7.517c-.985 0-1.664-.552-1.664-1.337 0-.885.9-1.47 2.632-1.653l1.665-.184v.401c0 1.687-.968 2.773-2.633 2.773Zm9.276 1.169c1.885 0 3.142-1.036 3.142-2.506.017-3.474-4.942-2.154-4.942-3.958 0-.669.611-1.053 1.579-1.053.918 0 1.767.551 2.004 1.42l1.206-.518c-.356-1.236-1.664-2.071-3.176-2.071-1.834 0-3.006.902-3.006 2.238 0 3.191 4.925 1.804 4.925 3.959 0 .685-.679 1.286-1.732 1.286-1.324 0-2.004-.802-2.326-1.787l-1.24.534c.373 1.186 1.494 2.456 3.566 2.456Zm7.845 0c1.885 0 3.142-1.036 3.142-2.506.017-3.474-4.942-2.154-4.942-3.958 0-.669.611-1.053 1.579-1.053.917 0 1.766.551 2.004 1.42l1.206-.518c-.357-1.236-1.665-2.071-3.176-2.071-1.834 0-3.006.902-3.006 2.238 0 3.191 4.925 1.804 4.925 3.959 0 .685-.679 1.286-1.732 1.286-1.325 0-2.004-.802-2.327-1.787l-1.24.534c.374 1.186 1.495 2.456 3.567 2.456Zm9.139-.134h1.545v-4.911h2.972c2.31 0 3.804-1.336 3.804-3.391 0-2.054-1.494-3.39-3.804-3.39h-4.517v11.692Zm1.545-6.28v-4.059h2.921c1.41 0 2.259.768 2.259 2.037 0 1.27-.849 2.022-2.259 2.022h-2.921Zm15.643-2.138h-1.443v3.691c0 2.222-1.019 3.575-2.616 3.575-1.206 0-1.936-.819-1.936-1.955v-5.311h-1.443v5.579c0 1.787 1.273 2.973 3.057 2.973 1.307 0 2.343-.718 2.938-1.721v1.587h1.443v-8.418Zm7.357 1.386.084-1.37c-.288-.1-.628-.15-.985-.15-1.052 0-2.173.768-2.666 1.837v-1.703h-1.443v8.418h1.443v-3.207c0-2.739 1.104-4.025 2.463-4.025.373 0 .781.066 1.104.2Zm1.491 10.072h1.443v-4.209c.578.768 1.699 1.303 2.786 1.303 2.632 0 4.126-1.871 4.126-4.343s-1.46-4.343-4.093-4.343c-1.239 0-2.36.585-2.819 1.353v-1.219h-1.443v11.458Zm4.093-4.176c-1.665 0-2.769-1.219-2.769-3.073 0-1.854 1.104-3.074 2.769-3.074 1.698 0 2.802 1.22 2.802 3.074 0 1.854-1.104 3.073-2.802 3.073Zm6.106 1.136h1.444V338h-1.444v11.826Zm11.526-4.593c0-2.172-1.563-3.959-4.093-3.959-2.581 0-4.144 1.954-4.144 4.343 0 2.389 1.614 4.343 4.178 4.343 1.97 0 3.396-.952 3.821-2.589l-1.359-.318c-.254 1.053-1.154 1.654-2.462 1.654-1.546 0-2.632-1.119-2.734-2.823h6.759c.017-.15.034-.451.034-.651Zm-6.708-.535c.288-1.403 1.273-2.238 2.615-2.238 1.511 0 2.428.952 2.564 2.238h-5.179ZM285.6 373.743v-1.14h-2.116l.785-3.469h-1.229l-.785 3.469h-2.782l.785-3.469h-1.212l-.785 3.469h-2.475v1.14h2.219l-.563 2.514h-2.407v1.14h2.151l-.785 3.469h1.228l.786-3.469h2.764l-.785 3.469h1.229l.785-3.469h2.441v-1.14h-2.185l.564-2.514h2.372Zm-4.165 2.514h-2.764l.563-2.514h2.765l-.564 2.514Zm7.881 4.609h1.467v-11.732h-1.228c-.837 1.006-1.878 1.609-3.073 1.86v1.358c1.127-.201 2.014-.57 2.834-1.307v9.821Zm3.954 0h4.574c2.458 0 3.925-1.307 3.925-3.419 0-1.643-.887-2.581-2.099-3 .802-.335 1.57-1.207 1.57-2.296 0-1.911-1.399-3.017-3.652-3.017h-4.318v11.732Zm1.536-6.905v-3.52h2.714c1.416 0 2.184.587 2.184 1.76s-.768 1.76-2.184 1.76h-2.714Zm0 5.531v-4.19h2.782c1.741 0 2.628.737 2.628 2.111 0 1.358-.887 2.079-2.628 2.079h-2.782ZM307.748 381c2.97 0 4.574-2.397 4.574-6s-1.604-6-4.574-6c-3.004 0-4.574 2.397-4.574 6s1.57 6 4.574 6Zm0-1.374c-1.962 0-2.987-1.81-2.987-4.626 0-2.816 1.025-4.642 2.987-4.642 1.929 0 2.97 1.826 2.97 4.642 0 2.816-1.041 4.626-2.97 4.626ZM317.89 381c2.543 0 4.181-1.592 4.181-4.022 0-2.363-1.655-3.939-4.13-3.939-.871 0-1.844.402-2.458.972l.512-3.519h5.223v-1.358h-6.366l-.939 6.386 1.126.234c.598-.888 1.502-1.408 2.646-1.408 1.724 0 2.782 1.006 2.782 2.632 0 1.592-1.024 2.648-2.612 2.648-1.501 0-2.594-.822-2.816-2.112l-1.45.251c.307 1.961 1.996 3.235 4.301 3.235Zm5.064-.134h8.073v-1.374h-5.888l3.243-2.715c1.843-1.526 2.645-2.833 2.645-4.257 0-2.129-1.536-3.52-3.891-3.52-2.492 0-4.131 1.693-3.943 4.156l1.502.101c-.171-1.743.768-2.899 2.441-2.899 1.399 0 2.287.854 2.287 2.162 0 1.055-.598 2.027-1.997 3.217l-4.489 3.805.017 1.324Zm18.46 0h1.621l-4.745-11.732h-1.416l-4.728 11.732h1.604l1.178-2.983h5.308l1.178 2.983Zm-5.957-4.341 2.134-5.38 2.116 5.38h-4.25Z"/>
  <path fill="#906CE7" d="M599 292h361v450H599V292Z"/>
  <path fill="#fff" d="M644.469 349.728h1.619l-4.738-12.584h-1.414l-4.721 12.584h1.602l1.176-3.2h5.3l1.176 3.2Zm-5.948-4.656 2.13-5.771 2.114 5.771h-4.244Zm12.584 4.8c1.976 0 3.408-1.097 3.783-2.966l-1.415-.306c-.238 1.204-1.124 1.906-2.334 1.906-1.688 0-2.778-1.313-2.778-3.308 0-1.996 1.09-3.308 2.778-3.308 1.21 0 2.113.791 2.3 1.888l1.432-.306c-.307-1.798-1.773-2.948-3.766-2.948-2.557 0-4.261 1.869-4.261 4.674 0 2.804 1.704 4.674 4.261 4.674Zm9.353 0c1.977 0 3.408-1.097 3.783-2.966l-1.414-.306c-.239 1.204-1.125 1.906-2.335 1.906-1.687 0-2.778-1.313-2.778-3.308 0-1.996 1.091-3.308 2.778-3.308 1.21 0 2.113.791 2.301 1.888l1.431-.306c-.307-1.798-1.772-2.948-3.766-2.948-2.557 0-4.261 1.869-4.261 4.674 0 2.804 1.704 4.674 4.261 4.674Zm13.358-5.088c0-2.337-1.568-4.26-4.107-4.26-2.591 0-4.158 2.103-4.158 4.674s1.619 4.674 4.192 4.674c1.977 0 3.408-1.025 3.834-2.787l-1.363-.341c-.256 1.132-1.159 1.78-2.471 1.78-1.551 0-2.642-1.205-2.744-3.039h6.783c.017-.161.034-.485.034-.701Zm-6.732-.575c.29-1.51 1.278-2.409 2.625-2.409 1.517 0 2.437 1.025 2.573 2.409h-5.198Zm8.597 5.519h1.449v-3.973c0-2.391 1.022-3.847 2.624-3.847 1.21 0 1.943.881 1.943 2.103v5.717h1.448v-6.004c0-1.924-1.278-3.2-3.067-3.2-1.312 0-2.352.773-2.948 1.851v-1.708h-1.449v9.061Zm14.07-.072-.102-1.402c-.341.18-.733.234-1.074.234-.749 0-1.261-.468-1.261-1.421v-5.051h2.301v-1.349h-2.301v-2.75h-1.448v2.75h-1.602v1.349h1.602v4.997c0 1.996 1.073 2.859 2.539 2.859.46 0 .92-.054 1.346-.216Zm5.87.072h1.551v-5.285h2.982c2.318 0 3.817-1.439 3.817-3.65s-1.499-3.649-3.817-3.649h-4.533v12.584Zm1.551-6.759V338.6h2.931c1.414 0 2.266.827 2.266 2.193 0 1.367-.852 2.176-2.266 2.176h-2.931Zm15.698-2.302h-1.449v3.973c0 2.391-1.023 3.848-2.625 3.848-1.21 0-1.942-.881-1.942-2.104v-5.717h-1.449v6.005c0 1.924 1.278 3.2 3.068 3.2 1.312 0 2.352-.773 2.948-1.852v1.708h1.449v-9.061Zm7.382 1.493.085-1.475c-.29-.107-.631-.161-.988-.161-1.057 0-2.182.827-2.676 1.977v-1.834h-1.449v9.061h1.449v-3.452c0-2.948 1.108-4.332 2.471-4.332.375 0 .784.072 1.108.216Zm1.496 10.84h1.449v-4.53c.579.827 1.704 1.402 2.795 1.402 2.641 0 4.141-2.014 4.141-4.674 0-2.661-1.465-4.674-4.107-4.674-1.244 0-2.369.629-2.829 1.456v-1.313h-1.449V353Zm4.108-4.494c-1.671 0-2.778-1.313-2.778-3.308 0-1.996 1.107-3.308 2.778-3.308 1.704 0 2.812 1.312 2.812 3.308 0 1.995-1.108 3.308-2.812 3.308Zm6.128 1.222h1.448V337h-1.448v12.728Zm11.566-4.944c0-2.337-1.568-4.26-4.108-4.26-2.59 0-4.158 2.103-4.158 4.674s1.619 4.674 4.192 4.674c1.977 0 3.409-1.025 3.835-2.787l-1.363-.341c-.256 1.132-1.159 1.78-2.472 1.78-1.55 0-2.641-1.205-2.743-3.039h6.782c.018-.161.035-.485.035-.701Zm-6.732-.575c.29-1.51 1.278-2.409 2.624-2.409 1.517 0 2.437 1.025 2.574 2.409h-5.198Zm-90.695 29.534v-1.14h-2.113l.784-3.469h-1.227l-.784 3.469h-2.778l.784-3.469h-1.21l-.784 3.469h-2.471v1.14h2.216l-.563 2.514h-2.403v1.14h2.148l-.784 3.469h1.227l.784-3.469h2.76l-.784 3.469h1.228l.783-3.469h2.438v-1.14h-2.182l.563-2.514h2.368Zm-4.158 2.514h-2.761l.563-2.514h2.76l-.562 2.514Zm9.573.737c1.329 0 2.556-.687 3.102-1.759-.052 2.547-1.756 4.391-4.056 4.391-.904 0-1.773-.285-2.489-.889l-.784 1.19c.904.704 2.063 1.073 3.256 1.073 3.203 0 5.521-2.33 5.521-6.637 0-3.251-1.772-5.363-4.431-5.363-2.522 0-4.329 1.659-4.329 4.006 0 2.312 1.756 3.988 4.21 3.988Zm.102-6.636c1.602 0 2.744 1.139 2.744 2.698 0 1.542-1.142 2.648-2.744 2.648-1.602 0-2.744-1.106-2.744-2.648.017-1.559 1.142-2.698 2.744-2.698ZM662.048 381c2.965 0 4.567-2.397 4.567-6s-1.602-6-4.567-6c-2.999 0-4.567 2.397-4.567 6s1.568 6 4.567 6Zm0-1.374c-1.96 0-2.982-1.81-2.982-4.626 0-2.816 1.022-4.642 2.982-4.642 1.926 0 2.965 1.826 2.965 4.642 0 2.816-1.039 4.626-2.965 4.626Zm10.501-6.62c-1.329 0-2.556.687-3.102 1.759.052-2.547 1.756-4.407 4.057-4.407.903 0 1.772.301 2.488.905l.784-1.19c-.904-.704-2.062-1.073-3.255-1.073-3.204 0-5.522 2.33-5.522 6.637 0 3.251 1.772 5.363 4.431 5.363 2.522 0 4.329-1.659 4.329-4.006 0-2.312-1.756-3.988-4.21-3.988Zm-.102 6.62c-1.602 0-2.744-1.123-2.744-2.682 0-1.542 1.142-2.648 2.744-2.648 1.602 0 2.744 1.106 2.744 2.648-.017 1.559-1.142 2.682-2.744 2.682ZM683.979 381c2.573 0 4.431-1.408 5.027-3.62l-1.551-.319c-.426 1.626-1.636 2.565-3.493 2.565-2.42 0-4.176-1.626-4.176-4.626 0-3 1.756-4.642 4.176-4.642 1.857 0 3.135.988 3.51 2.681l1.534-.335c-.494-2.263-2.42-3.704-5.027-3.704-2.983 0-5.795 1.961-5.795 6s2.795 6 5.795 6Zm6.917-.134h7.703v-1.374h-6.153v-4.174h4.84v-1.374h-4.84v-3.452h5.965v-1.358h-7.515v11.732Zm10.351 0h1.585c.289-3.184 2.607-6.939 5.317-10.374v-1.358h-8.3v1.358h6.698c-2.642 3.234-4.908 7.005-5.3 10.374Z"/>
  <path fill="#F4F1EB" d="M1321 292h361v450h-361V292Z"/>
  <path fill="#080310" d="M1361.45 350.066h1.62l2.9-9.612 2.86 9.612h1.64l3.61-11.93h-1.6l-2.85 10.14-2.86-10.14h-1.62l-2.88 10.14-2.84-10.14h-1.61l3.63 11.93Zm16.31-8.726c-1.81 0-3.22 1.108-3.48 2.812l1.35.256c.12-1.159.95-1.858 2.13-1.858 1.26 0 2.09.75 2.09 1.926v.17l-1.67.188c-2.74.273-4.09 1.176-4.09 2.829 0 1.483 1.18 2.539 2.9 2.539 1.25 0 2.37-.613 2.86-1.602v1.466h1.44v-5.505c0-1.994-1.45-3.221-3.53-3.221Zm-.55 7.669c-.99 0-1.67-.562-1.67-1.363 0-.903.91-1.5 2.64-1.687l1.67-.188v.409c0 1.722-.97 2.829-2.64 2.829Zm11.46-6.118.08-1.397c-.29-.103-.63-.154-.98-.154-1.06 0-2.19.784-2.68 1.875v-1.738h-1.45v8.589h1.45v-3.272c0-2.795 1.11-4.107 2.47-4.107.38 0 .78.068 1.11.204Zm1.5 7.175h1.44v-4.312c0-1.823.8-3.136 2.27-3.136 1.19 0 1.86.801 1.86 1.977v5.471h1.45v-4.312c0-1.823.8-3.136 2.26-3.136 1.21 0 1.88.801 1.88 1.977v5.471h1.45v-5.76c0-1.807-1.16-2.966-3-2.966-1.3 0-2.32.784-2.78 1.807-.31-1.159-1.4-1.807-2.8-1.807-1.31 0-2.16.733-2.59 1.756v-1.619h-1.44v8.589Zm24.33.136c1.69 0 3.22-.767 3.77-1.977v1.841h1.41v-6.152h-5.62v1.346h4.16c-.05 2.096-1.47 3.545-3.7 3.545-2.4 0-4.16-1.67-4.16-4.704 0-3.033 1.76-4.721 4.18-4.721 1.89 0 3.22 1.023 3.56 2.71l1.53-.324c-.47-2.3-2.43-3.766-5.09-3.766-2.98 0-5.78 2.028-5.78 6.101s2.78 6.101 5.74 6.101Zm12.41-7.311.09-1.397c-.29-.103-.63-.154-.99-.154-1.06 0-2.18.784-2.68 1.875v-1.738h-1.44v8.589h1.44v-3.272c0-2.795 1.11-4.107 2.48-4.107.37 0 .78.068 1.1.204Zm4.4-1.551c-1.8 0-3.22 1.108-3.47 2.812l1.34.256c.12-1.159.96-1.858 2.13-1.858 1.27 0 2.1.75 2.1 1.926v.17l-1.67.188c-2.74.273-4.09 1.176-4.09 2.829 0 1.483 1.18 2.539 2.9 2.539 1.24 0 2.37-.613 2.86-1.602v1.466h1.43v-5.505c0-1.994-1.45-3.221-3.53-3.221Zm-.54 7.669c-.99 0-1.67-.562-1.67-1.363 0-.903.9-1.5 2.64-1.687l1.67-.188v.409c0 1.722-.97 2.829-2.64 2.829Zm11.8-7.532-2.52 6.578-2.52-6.578h-1.57l3.36 8.47-1.25 3.221h1.49l4.5-11.691h-1.49Zm-73.99 32.346v-1.159h-2.11l.78-3.528h-1.23l-.78 3.528h-2.78l.79-3.528h-1.21l-.79 3.528h-2.47v1.159h2.22l-.57 2.556h-2.4v1.159h2.15l-.79 3.528h1.23l.79-3.528h2.76l-.79 3.528h1.23l.78-3.528h2.44v-1.159h-2.18l.56-2.556h2.37Zm-4.16 2.556h-2.76l.56-2.556h2.76l-.56 2.556Zm5.91 4.687h1.55v-5.505h4.98v-1.397h-4.98v-3.647h6.09v-1.381h-7.64v11.93Zm13.18.136c2.54 0 4.18-1.619 4.18-4.09 0-2.403-1.65-4.005-4.13-4.005-.86 0-1.84.409-2.45.989l.51-3.579h5.22v-1.381h-6.36l-.94 6.493 1.13.239c.59-.903 1.5-1.432 2.64-1.432 1.72 0 2.78 1.023 2.78 2.676 0 1.619-1.03 2.693-2.61 2.693-1.5 0-2.59-.835-2.81-2.148l-1.45.256c.31 1.994 1.99 3.289 4.29 3.289Zm6.13-.136h1.55v-5.505h4.97v-1.397h-4.97v-3.647h6.08v-1.381h-7.63v11.93Zm10.23 0h1.59c.29-3.238 2.6-7.056 5.31-10.549v-1.381h-8.3v1.381h6.7c-2.64 3.289-4.91 7.123-5.3 10.549Zm8.69 0h1.55v-5.505h4.98v-1.397h-4.98v-3.647h6.08v-1.381h-7.63v11.93Zm13.22-3.937c1.33 0 2.55-.699 3.1-1.789-.05 2.59-1.76 4.465-4.06 4.465-.9 0-1.77-.29-2.49-.903l-.78 1.21c.9.715 2.06 1.09 3.26 1.09 3.2 0 5.52-2.369 5.52-6.749 0-3.306-1.78-5.453-4.43-5.453-2.53 0-4.33 1.687-4.33 4.073 0 2.352 1.75 4.056 4.21 4.056Zm.1-6.749c1.6 0 2.74 1.159 2.74 2.744 0 1.568-1.14 2.693-2.74 2.693-1.6 0-2.74-1.125-2.74-2.693.01-1.585 1.14-2.744 2.74-2.744Z"/>
  <path fill="#08312D" d="M599 742h361v450H599V742Z"/>
  <path fill="#fff" d="M641.637 798.987c3.392 0 5.863-2.556 5.863-6.101s-2.471-6.101-5.863-6.101c-3.408 0-5.879 2.556-5.879 6.101s2.471 6.101 5.879 6.101Zm-.017-1.397c-2.471 0-4.277-1.977-4.277-4.704 0-2.727 1.806-4.721 4.277-4.721 2.506 0 4.295 1.994 4.295 4.721 0 2.727-1.789 4.704-4.295 4.704Zm15.227-7.328h-1.448v3.766c0 2.267-1.023 3.647-2.625 3.647-1.21 0-1.943-.835-1.943-1.994v-5.419h-1.448v5.692c0 1.823 1.278 3.033 3.067 3.033 1.313 0 2.352-.733 2.949-1.755v1.619h1.448v-8.589Zm7.383 1.414.085-1.397c-.29-.103-.631-.154-.989-.154-1.056 0-2.181.784-2.675 1.875v-1.738h-1.449v8.589h1.449v-3.272c0-2.795 1.107-4.107 2.471-4.107.375 0 .784.068 1.108.204Zm7.436-1.414v1.158c-.511-.749-1.636-1.295-2.777-1.295-2.608 0-4.057 1.824-4.057 4.261 0 2.42 1.449 4.243 4.091 4.243 1.227 0 2.351-.494 2.743-1.227v1.193c0 1.347-1.056 2.267-2.573 2.267-1.312 0-2.318-.665-2.403-1.619l-1.397.238c.255 1.551 1.806 2.608 3.8 2.608 2.369 0 4.005-1.483 4.005-3.647v-8.18h-1.432Zm-2.607 7.072c-1.67 0-2.744-1.159-2.744-2.948 0-1.807 1.074-2.966 2.744-2.966 1.653 0 2.727 1.159 2.727 2.966 0 1.789-1.074 2.948-2.727 2.948Zm6.387 1.517h1.448v-12.066h-1.448v12.066Zm6.998-8.726c-1.806 0-3.221 1.108-3.477 2.812l1.347.256c.119-1.159.954-1.858 2.13-1.858 1.261 0 2.096.75 2.096 1.926v.17l-1.67.188c-2.744.273-4.09 1.176-4.09 2.829 0 1.483 1.176 2.539 2.897 2.539 1.244 0 2.369-.613 2.863-1.602v1.466h1.432v-5.505c0-1.994-1.449-3.221-3.528-3.221Zm-.545 7.669c-.989 0-1.67-.562-1.67-1.363 0-.903.903-1.5 2.641-1.687l1.67-.188v.409c0 1.722-.971 2.829-2.641 2.829Zm9.308 1.193c1.892 0 3.153-1.056 3.153-2.556.017-3.545-4.959-2.199-4.959-4.039 0-.682.613-1.074 1.585-1.074.92 0 1.772.563 2.011 1.449l1.21-.528c-.358-1.262-1.67-2.114-3.187-2.114-1.841 0-3.017.921-3.017 2.284 0 3.255 4.943 1.84 4.943 4.039 0 .699-.682 1.312-1.739 1.312-1.329 0-2.011-.818-2.335-1.823l-1.244.545c.375 1.21 1.5 2.505 3.579 2.505Zm7.872 0c1.892 0 3.153-1.056 3.153-2.556.017-3.545-4.959-2.199-4.959-4.039 0-.682.613-1.074 1.585-1.074.92 0 1.772.563 2.011 1.449l1.21-.528c-.358-1.262-1.67-2.114-3.187-2.114-1.841 0-3.017.921-3.017 2.284 0 3.255 4.943 1.84 4.943 4.039 0 .699-.682 1.312-1.739 1.312-1.329 0-2.011-.818-2.334-1.823l-1.245.545c.375 1.21 1.5 2.505 3.579 2.505Zm14.369 0c1.687 0 3.221-.767 3.766-1.977v1.841h1.415v-6.152h-5.624v1.346h4.158c-.051 2.096-1.465 3.545-3.698 3.545-2.403 0-4.158-1.67-4.158-4.704 0-3.033 1.755-4.721 4.175-4.721 1.892 0 3.221 1.023 3.562 2.71l1.534-.324c-.477-2.3-2.437-3.766-5.096-3.766-2.982 0-5.777 2.028-5.777 6.101s2.778 6.101 5.743 6.101Zm12.41-7.311.085-1.397c-.289-.103-.63-.154-.988-.154-1.057 0-2.182.784-2.676 1.875v-1.738h-1.448v8.589h1.448v-3.272c0-2.795 1.108-4.107 2.471-4.107.375 0 .784.068 1.108.204Zm8.868 2.488c0-2.215-1.567-4.039-4.107-4.039-2.59 0-4.158 1.994-4.158 4.431 0 2.437 1.619 4.431 4.192 4.431 1.977 0 3.409-.971 3.835-2.641l-1.364-.324c-.255 1.074-1.158 1.687-2.471 1.687-1.55 0-2.641-1.142-2.743-2.88h6.782c.017-.153.034-.46.034-.665Zm-6.731-.545c.289-1.432 1.278-2.284 2.624-2.284 1.517 0 2.437.972 2.574 2.284h-5.198Zm16.368.545c0-2.215-1.568-4.039-4.108-4.039-2.59 0-4.158 1.994-4.158 4.431 0 2.437 1.619 4.431 4.193 4.431 1.976 0 3.408-.971 3.834-2.641l-1.363-.324c-.256 1.074-1.159 1.687-2.471 1.687-1.551 0-2.642-1.142-2.744-2.88h6.783c.017-.153.034-.46.034-.665Zm-6.732-.545c.29-1.432 1.278-2.284 2.624-2.284 1.517 0 2.438.972 2.574 2.284h-5.198Zm8.597 5.232h1.448v-3.766c0-2.267 1.023-3.647 2.625-3.647 1.21 0 1.943.835 1.943 1.993v5.42h1.448v-5.692c0-1.824-1.278-3.034-3.067-3.034-1.313 0-2.352.733-2.949 1.756v-1.619h-1.448v8.589Zm-100.105 23.11v-1.14h-2.113l.784-3.469h-1.227l-.784 3.469h-2.778l.784-3.469h-1.21l-.784 3.469h-2.471v1.14h2.216l-.563 2.514h-2.403v1.139h2.148l-.784 3.47h1.227l.784-3.47h2.76l-.784 3.47h1.228l.783-3.47h2.438v-1.139h-2.182l.563-2.514h2.368Zm-4.158 2.514h-2.761l.563-2.514h2.76l-.562 2.514Zm9.931 4.743c2.965 0 4.567-2.397 4.567-6 0-3.604-1.602-6-4.567-6-3 0-4.568 2.396-4.568 6 0 3.603 1.568 6 4.568 6Zm0-1.375c-1.96 0-2.983-1.81-2.983-4.625 0-2.816 1.023-4.643 2.983-4.643 1.926 0 2.965 1.827 2.965 4.643 0 2.815-1.039 4.625-2.965 4.625Zm10.177 1.375c2.471 0 4.21-1.375 4.21-3.503 0-1.375-.887-2.531-2.25-2.95 1.057-.452 1.755-1.425 1.755-2.464 0-1.826-1.482-3.083-3.715-3.083-2.3 0-3.783 1.257-3.783 3.083 0 1.039.699 1.995 1.755 2.464-1.363.419-2.249 1.575-2.249 2.95 0 2.128 1.738 3.503 4.277 3.503Zm0-7.023c-1.363 0-2.249-.72-2.266-1.843-.017-1.123.869-1.844 2.266-1.844 1.33 0 2.216.721 2.199 1.844-.017 1.123-.887 1.843-2.199 1.843Zm-.017 5.699c-1.636 0-2.692-.872-2.692-2.196 0-1.324 1.056-2.195 2.692-2.195 1.619 0 2.659.871 2.659 2.195 0 1.324-1.04 2.196-2.659 2.196Zm9.398 1.324c2.625 0 4.329-1.526 4.329-3.788 0-2.313-1.67-3.721-4.022-3.503l3.391-3.251v-1.324h-7.618v1.357h5.795l-3.766 3.671.664.972c.375-.235.869-.369 1.312-.369 1.654 0 2.642.888 2.642 2.413 0 1.475-1.074 2.447-2.727 2.447-1.517 0-2.624-.871-2.795-2.229l-1.465.218c.221 2.045 1.908 3.386 4.26 3.386Zm7.921-.134h1.465v-11.732h-1.227c-.835 1.005-1.874 1.609-3.067 1.86v1.358c1.125-.202 2.011-.57 2.829-1.308v9.822Zm3.215 0h8.061v-1.375h-5.879l3.238-2.715c1.84-1.525 2.641-2.832 2.641-4.257 0-2.128-1.534-3.519-3.885-3.519-2.489 0-4.125 1.692-3.937 4.156l1.5.101c-.171-1.743.766-2.9 2.437-2.9 1.397 0 2.283.855 2.283 2.162 0 1.056-.596 2.028-1.994 3.218l-4.482 3.804.017 1.325Zm10.269 0h3.545c3.341 0 5.982-2.095 5.982-5.866 0-3.771-2.641-5.866-5.982-5.866h-3.545v11.732Zm1.534-1.375v-9h1.96c2.301 0 4.431 1.307 4.431 4.509 0 3.201-2.13 4.491-4.431 4.491h-1.96Z"/>
  <path fill="#fff" stroke="#BBB" stroke-width="1.00011" d="M1321.5 742.5h360v449h-360v-449Z"/>
  <path fill="#080310" d="M1361.45 799.213h1.62l2.9-9.611 2.86 9.611h1.64l3.61-11.929h-1.6l-2.85 10.14-2.86-10.14h-1.62l-2.88 10.14-2.84-10.14h-1.61l3.63 11.929Zm14.12 0h1.45v-3.681c0-2.3 1.02-3.732 2.61-3.732 1.31 0 2.09.767 2.09 2.028v5.385h1.45v-5.658c0-1.857-1.28-3.067-3.22-3.067-1.26 0-2.3.596-2.93 1.823v-5.163h-1.45v12.065Zm9.85-12.065v1.84h1.67v-1.84h-1.67Zm.1 12.065h1.45v-8.589h-1.45v8.589Zm8.36-.068-.1-1.329c-.34.17-.73.222-1.07.222-.75 0-1.26-.444-1.26-1.347v-4.789h2.3v-1.278h-2.3v-2.607H1390v2.607h-1.6v1.278h1.6v4.738c0 1.892 1.07 2.71 2.54 2.71.46 0 .92-.051 1.34-.205Zm9.25-4.618c0-2.216-1.57-4.039-4.11-4.039-2.59 0-4.16 1.994-4.16 4.431 0 2.437 1.62 4.431 4.2 4.431 1.97 0 3.4-.972 3.83-2.642l-1.36-.324c-.26 1.074-1.16 1.688-2.47 1.688-1.56 0-2.65-1.142-2.75-2.881h6.78c.02-.153.04-.46.04-.664Zm-6.73-.546c.29-1.431 1.28-2.283 2.62-2.283 1.52 0 2.44.971 2.58 2.283h-5.2Zm-27.82 28.422v-1.159h-2.11l.78-3.528h-1.23l-.78 3.528h-2.78l.79-3.528h-1.21l-.79 3.528h-2.47v1.159h2.22l-.57 2.556h-2.4v1.159h2.15l-.79 3.528h1.23l.79-3.528h2.76l-.79 3.528h1.23l.78-3.528h2.44v-1.159h-2.18l.56-2.556h2.37Zm-4.16 2.556h-2.76l.56-2.556h2.76l-.56 2.556Zm5.91 4.687h1.55v-5.505h4.98v-1.397h-4.98v-3.647h6.09v-1.381h-7.64v11.93Zm9.55 0h1.55v-5.505h4.98v-1.397h-4.98v-3.647h6.09v-1.381h-7.64v11.93Zm9.56 0h1.55v-5.505h4.97v-1.397h-4.97v-3.647h6.08v-1.381h-7.63v11.93Zm9.55 0h1.55v-5.505h4.98v-1.397h-4.98v-3.647h6.08v-1.381h-7.63v11.93Zm9.55 0h1.55v-5.505h4.98v-1.397h-4.98v-3.647h6.09v-1.381h-7.64v11.93Zm9.56 0h1.55v-5.505h4.97v-1.397h-4.97v-3.647h6.08v-1.381h-7.63v11.93Z"/>
  <path fill="#DEE4BB" d="M960 742h361v450H960V742Z"/>
  <path fill="#080310" d="M1006.04 798.987c1.69 0 3.22-.767 3.77-1.977v1.841h1.41v-6.152h-5.62v1.346h4.16c-.06 2.096-1.47 3.545-3.7 3.545-2.41 0-4.16-1.67-4.16-4.704 0-3.033 1.75-4.721 4.17-4.721 1.9 0 3.23 1.023 3.57 2.71l1.53-.324c-.48-2.3-2.44-3.766-5.1-3.766-2.98 0-5.77 2.028-5.77 6.101s2.77 6.101 5.74 6.101Zm12.41-7.311.09-1.397c-.29-.103-.64-.154-.99-.154-1.06 0-2.18.784-2.68 1.875v-1.738h-1.45v8.589h1.45v-3.272c0-2.795 1.11-4.107 2.47-4.107.38 0 .79.068 1.11.204Zm8.87 2.488c0-2.215-1.57-4.039-4.11-4.039-2.59 0-4.16 1.994-4.16 4.431 0 2.437 1.62 4.431 4.2 4.431 1.97 0 3.4-.971 3.83-2.641l-1.36-.324c-.26 1.074-1.16 1.687-2.47 1.687-1.56 0-2.65-1.142-2.75-2.88h6.78c.02-.153.04-.46.04-.665Zm-6.73-.545c.29-1.432 1.27-2.284 2.62-2.284 1.52 0 2.44.972 2.57 2.284h-5.19Zm16.36.545c0-2.215-1.56-4.039-4.1-4.039-2.59 0-4.16 1.994-4.16 4.431 0 2.437 1.62 4.431 4.19 4.431 1.98 0 3.41-.971 3.84-2.641l-1.37-.324c-.25 1.074-1.16 1.687-2.47 1.687-1.55 0-2.64-1.142-2.74-2.88h6.78c.02-.153.03-.46.03-.665Zm-6.73-.545c.29-1.432 1.28-2.284 2.63-2.284 1.51 0 2.43.972 2.57 2.284h-5.2Zm8.6 5.232h1.45v-3.766c0-2.267 1.02-3.647 2.62-3.647 1.21 0 1.95.835 1.95 1.993v5.42h1.44v-5.692c0-1.824-1.27-3.034-3.06-3.034-1.32 0-2.36.733-2.95 1.756v-1.619h-1.45v8.589Zm-28.16 23.217v-1.166h-2.11l.78-3.548h-1.22l-.79 3.548h-2.78l.79-3.548h-1.21l-.79 3.548h-2.47v1.166h2.22l-.56 2.572h-2.41v1.165h2.15l-.78 3.549h1.22l.79-3.549h2.76l-.79 3.549h1.23l.79-3.549h2.43v-1.165h-2.18l.56-2.572h2.37Zm-4.16 2.572h-2.76l.57-2.572h2.76l-.57 2.572Zm5.91 4.714h3.55c3.34 0 5.98-2.143 5.98-6s-2.64-6-5.98-6h-3.55v12Zm1.54-1.406v-9.206h1.96c2.3 0 4.43 1.338 4.43 4.612s-2.13 4.594-4.43 4.594h-1.96Zm9.93 1.406h7.7v-1.406h-6.15v-4.268h4.84v-1.406h-4.84v-3.532h5.97v-1.388h-7.52v12Zm9.67 0h7.7v-1.406h-6.15v-4.268h4.84v-1.406h-4.84v-3.532h5.96v-1.388h-7.51v12Zm15.07 0h1.55v-2.932h1.72v-1.405h-1.72v-7.663h-1.79l-6.05 7.663v1.405h6.29v2.932Zm-4.62-4.337 4.62-5.88v5.88H1044Zm9.65 4.337h4.57c2.46 0 3.92-1.337 3.92-3.497 0-1.68-.89-2.64-2.1-3.069.81-.343 1.57-1.234 1.57-2.348 0-1.955-1.39-3.086-3.64-3.086h-4.32v12Zm1.54-7.063v-3.6h2.71c1.41 0 2.18.6 2.18 1.8 0 1.2-.77 1.8-2.18 1.8h-2.71Zm0 5.657v-4.286h2.78c1.73 0 2.62.755 2.62 2.16 0 1.389-.89 2.126-2.62 2.126h-2.78Zm8.9 1.406h4.57c2.45 0 3.92-1.337 3.92-3.497 0-1.68-.89-2.64-2.1-3.069.8-.343 1.57-1.234 1.57-2.348 0-1.955-1.4-3.086-3.65-3.086h-4.31v12Zm1.53-7.063v-3.6h2.71c1.42 0 2.18.6 2.18 1.8 0 1.2-.76 1.8-2.18 1.8h-2.71Zm0 5.657v-4.286h2.78c1.74 0 2.63.755 2.63 2.16 0 1.389-.89 2.126-2.63 2.126h-2.78Z"/>
  <path fill="#000" d="M238 742h361v450H238V742Z"/>
  <path fill="#fff" d="M275.766 799.213h4.567c2.454 0 3.92-1.329 3.92-3.476 0-1.67-.887-2.625-2.097-3.051.801-.341 1.568-1.227 1.568-2.335 0-1.943-1.397-3.067-3.647-3.067h-4.311v11.929Zm1.533-7.021v-3.579h2.71c1.415 0 2.182.596 2.182 1.789s-.767 1.79-2.182 1.79h-2.71Zm0 5.624v-4.261h2.778c1.739 0 2.625.75 2.625 2.148 0 1.38-.886 2.113-2.625 2.113h-2.778Zm8.834 1.397h1.448v-12.066h-1.448v12.066Zm6.998-8.725c-1.806 0-3.221 1.107-3.477 2.812l1.347.255c.119-1.159.954-1.857 2.13-1.857 1.261 0 2.096.749 2.096 1.925v.171l-1.67.187c-2.744.273-4.09 1.176-4.09 2.829 0 1.483 1.176 2.54 2.897 2.54 1.244 0 2.369-.614 2.863-1.602v1.465h1.432v-5.504c0-1.994-1.449-3.221-3.528-3.221Zm-.545 7.669c-.989 0-1.67-.563-1.67-1.364 0-.903.903-1.499 2.641-1.687l1.67-.187v.409c0 1.721-.971 2.829-2.641 2.829Zm10.194 1.193c1.977 0 3.409-1.04 3.784-2.812l-1.415-.29c-.238 1.142-1.124 1.806-2.334 1.806-1.688 0-2.778-1.244-2.778-3.135 0-1.892 1.09-3.136 2.778-3.136 1.21 0 2.113.75 2.3 1.789l1.432-.289c-.307-1.705-1.773-2.795-3.767-2.795-2.556 0-4.26 1.772-4.26 4.431 0 2.658 1.704 4.431 4.26 4.431Zm11.433-.137h1.806l-3.97-5.198 3.681-3.391h-1.926l-3.971 3.494v-6.971h-1.466v12.066h1.466v-3.187l1.142-1.039 3.238 4.226Zm-28.629 23.11v-1.14h-2.113l.784-3.469h-1.227l-.784 3.469h-2.778l.784-3.469h-1.21l-.784 3.469h-2.471v1.14h2.216l-.563 2.514h-2.403v1.14h2.147l-.783 3.469h1.227l.784-3.469h2.76l-.784 3.469h1.227l.784-3.469h2.437v-1.14h-2.181l.562-2.514h2.369Zm-4.158 2.514h-2.761l.563-2.514h2.76l-.562 2.514Zm9.931 4.743c2.965 0 4.567-2.397 4.567-6s-1.602-6-4.567-6c-3 0-4.568 2.397-4.568 6s1.568 6 4.568 6Zm0-1.374c-1.96 0-2.983-1.81-2.983-4.626 0-2.816 1.023-4.643 2.983-4.643 1.926 0 2.965 1.827 2.965 4.643s-1.039 4.626-2.965 4.626Zm10.518 1.374c2.965 0 4.567-2.397 4.567-6s-1.602-6-4.567-6c-2.999 0-4.567 2.397-4.567 6s1.568 6 4.567 6Zm0-1.374c-1.96 0-2.982-1.81-2.982-4.626 0-2.816 1.022-4.643 2.982-4.643 1.926 0 2.965 1.827 2.965 4.643s-1.039 4.626-2.965 4.626Zm10.518 1.374c2.966 0 4.568-2.397 4.568-6s-1.602-6-4.568-6c-2.999 0-4.567 2.397-4.567 6s1.568 6 4.567 6Zm0-1.374c-1.96 0-2.982-1.81-2.982-4.626 0-2.816 1.022-4.643 2.982-4.643 1.926 0 2.966 1.827 2.966 4.643s-1.04 4.626-2.966 4.626Zm10.519 1.374c2.965 0 4.567-2.397 4.567-6s-1.602-6-4.567-6c-3 0-4.568 2.397-4.568 6s1.568 6 4.568 6Zm0-1.374c-1.96 0-2.983-1.81-2.983-4.626 0-2.816 1.023-4.643 2.983-4.643 1.925 0 2.965 1.827 2.965 4.643s-1.04 4.626-2.965 4.626Zm10.518 1.374c2.965 0 4.567-2.397 4.567-6s-1.602-6-4.567-6c-3 0-4.567 2.397-4.567 6s1.567 6 4.567 6Zm0-1.374c-1.96 0-2.983-1.81-2.983-4.626 0-2.816 1.023-4.643 2.983-4.643 1.926 0 2.965 1.827 2.965 4.643s-1.039 4.626-2.965 4.626Zm10.518 1.374c2.966 0 4.567-2.397 4.567-6s-1.601-6-4.567-6c-2.999 0-4.567 2.397-4.567 6s1.568 6 4.567 6Zm0-1.374c-1.96 0-2.982-1.81-2.982-4.626 0-2.816 1.022-4.643 2.982-4.643 1.926 0 2.966 1.827 2.966 4.643s-1.04 4.626-2.966 4.626Z"/>
  <path fill="#DFD7FC" d="M960 292h361v450H960V292Z"/>
  <path fill="#080310" d="M1000.84 349.615h7.47v-1.461h-5.92v-11.011h-1.55v12.472Zm8.79-12.615v1.924h1.67V337h-1.67Zm.1 12.615h1.45v-8.98h-1.45v8.98Zm10.13-8.98v1.211c-.51-.784-1.63-1.354-2.77-1.354-2.61 0-4.06 1.907-4.06 4.455 0 2.53 1.45 4.436 4.09 4.436 1.23 0 2.35-.517 2.74-1.283v1.247c0 1.408-1.05 2.37-2.57 2.37-1.31 0-2.32-.695-2.4-1.693l-1.4.25c.26 1.621 1.81 2.726 3.8 2.726 2.37 0 4.01-1.55 4.01-3.813v-8.552h-1.44Zm-2.6 7.394c-1.67 0-2.75-1.212-2.75-3.082 0-1.889 1.08-3.101 2.75-3.101 1.65 0 2.72 1.212 2.72 3.101 0 1.87-1.07 3.082-2.72 3.082Zm6.38 1.586h1.45v-3.849c0-2.405 1.02-3.902 2.61-3.902 1.31 0 2.1.802 2.1 2.12v5.631h1.44v-5.916c0-1.942-1.27-3.207-3.22-3.207-1.26 0-2.3.624-2.93 1.907V337h-1.45v12.615Zm14.21-.072-.11-1.389c-.34.178-.73.231-1.07.231-.75 0-1.26-.463-1.26-1.407v-5.007h2.3v-1.336h-2.3v-2.726h-1.45v2.726h-1.6v1.336h1.6v4.953c0 1.978 1.07 2.833 2.54 2.833.46 0 .92-.053 1.35-.214Zm5.87.072h1.55v-5.239h2.98c2.32 0 3.82-1.425 3.82-3.617 0-2.191-1.5-3.616-3.82-3.616h-4.53v12.472Zm1.55-6.7v-4.329h2.93c1.41 0 2.26.819 2.26 2.173 0 1.355-.85 2.156-2.26 2.156h-2.93Zm15.69-2.28h-1.44v3.937c0 2.37-1.03 3.813-2.63 3.813-1.21 0-1.94-.873-1.94-2.084v-5.666h-1.45v5.951c0 1.906 1.28 3.171 3.07 3.171 1.31 0 2.35-.766 2.95-1.835v1.693h1.44v-8.98Zm7.39 1.479.08-1.461c-.29-.107-.63-.161-.99-.161-1.05 0-2.18.82-2.67 1.96v-1.817h-1.45v8.98h1.45v-3.421c0-2.922 1.11-4.294 2.47-4.294.37 0 .78.071 1.11.214Zm1.49 10.743h1.45v-4.49c.58.82 1.71 1.39 2.8 1.39 2.64 0 4.14-1.995 4.14-4.632 0-2.637-1.47-4.633-4.11-4.633-1.24 0-2.37.624-2.83 1.443v-1.3h-1.45v12.222Zm4.11-4.454c-1.67 0-2.78-1.301-2.78-3.278 0-1.978 1.11-3.279 2.78-3.279 1.7 0 2.81 1.301 2.81 3.279 0 1.977-1.11 3.278-2.81 3.278Zm6.13 1.212h1.45V337h-1.45v12.615Zm11.56-4.9c0-2.316-1.56-4.223-4.1-4.223-2.59 0-4.16 2.085-4.16 4.633s1.62 4.632 4.19 4.632c1.98 0 3.41-1.015 3.84-2.761l-1.37-.339c-.25 1.123-1.16 1.764-2.47 1.764-1.55 0-2.64-1.194-2.74-3.011h6.78c.02-.161.03-.481.03-.695Zm-6.73-.57c.29-1.497 1.28-2.388 2.63-2.388 1.51 0 2.43 1.016 2.57 2.388h-5.2Zm-74.25 28.258v-1.159h-2.11l.78-3.528h-1.22l-.79 3.528h-2.78l.79-3.528h-1.21l-.79 3.528h-2.47v1.159h2.22l-.56 2.556h-2.41v1.159h2.15l-.78 3.528h1.22l.79-3.528h2.76l-.79 3.528h1.23l.79-3.528h2.43v-1.159h-2.18l.56-2.556h2.37Zm-4.16 2.556h-2.76l.57-2.556h2.76l-.57 2.556Zm5.91 4.687h3.55c3.34 0 5.98-2.13 5.98-5.965 0-3.834-2.64-5.965-5.98-5.965h-3.55v11.93Zm1.54-1.398v-9.151h1.96c2.3 0 4.43 1.329 4.43 4.584s-2.13 4.567-4.43 4.567h-1.96Zm9.93 1.398h1.55v-5.505h4.98v-1.397h-4.98v-3.647h6.08v-1.381h-7.63v11.93Zm9.55 0h3.55c3.34 0 5.98-2.13 5.98-5.965 0-3.834-2.64-5.965-5.98-5.965h-3.55v11.93Zm1.54-1.398v-9.151h1.96c2.3 0 4.43 1.329 4.43 4.584s-2.13 4.567-4.43 4.567h-1.96Zm10.61 1.398h1.59c.29-3.238 2.6-7.056 5.31-10.549v-1.381h-8.3v1.381h6.7c-2.64 3.289-4.91 7.123-5.3 10.549Zm8.69 0h1.55v-5.505h4.98v-1.397h-4.98v-3.647h6.08v-1.381h-7.63v11.93Zm14.29.136c2.57 0 4.43-1.431 5.02-3.681l-1.55-.324c-.42 1.653-1.63 2.608-3.49 2.608-2.42 0-4.18-1.653-4.18-4.704 0-3.05 1.76-4.721 4.18-4.721 1.86 0 3.13 1.006 3.51 2.727l1.53-.341c-.49-2.3-2.42-3.766-5.02-3.766-2.99 0-5.8 1.994-5.8 6.101s2.8 6.101 5.8 6.101Z"/>
  <path fill="#080310" d="M1208.98 703.202c2.54 0 4.18-1.619 4.18-4.09 0-2.403-1.66-4.005-4.13-4.005-.87 0-1.84.409-2.45.989l.51-3.579h5.22v-1.381h-6.36l-.94 6.493 1.13.239c.59-.903 1.5-1.432 2.64-1.432 1.72 0 2.78 1.023 2.78 2.676 0 1.619-1.03 2.693-2.61 2.693-1.5 0-2.59-.835-2.81-2.148l-1.45.256c.3 1.994 1.99 3.289 4.29 3.289Zm10.15 0c2.96 0 4.56-2.437 4.56-6.101s-1.6-6.101-4.56-6.101c-3 0-4.57 2.437-4.57 6.101s1.57 6.101 4.57 6.101Zm0-1.397c-1.96 0-2.99-1.841-2.99-4.704 0-2.863 1.03-4.721 2.99-4.721 1.92 0 2.96 1.858 2.96 4.721s-1.04 4.704-2.96 4.704Zm8.61-4.806c1.63 0 2.77-1.295 2.77-3 0-1.704-1.14-2.999-2.77-2.999-1.66 0-2.8 1.295-2.8 2.999 0 1.705 1.14 3 2.8 3Zm-1.06 6.067h1.28l7.97-11.93h-1.27l-7.98 11.93Zm1.06-7.158c-.96 0-1.57-.75-1.57-1.909 0-1.158.61-1.908 1.57-1.908.93 0 1.53.75 1.53 1.908 0 1.159-.6 1.909-1.53 1.909Zm7.21 7.294c1.63 0 2.77-1.295 2.77-2.999 0-1.704-1.14-3-2.77-3-1.66 0-2.8 1.296-2.8 3s1.14 2.999 2.8 2.999Zm0-1.09c-.96 0-1.57-.75-1.57-1.909s.61-1.909 1.57-1.909c.92 0 1.53.75 1.53 1.909s-.61 1.909-1.53 1.909Z" opacity=".5"/>
  <path fill="#EFEBFE" d="M1297.45 696.5c0 11.322-9.18 20.5-20.5 20.5s-20.5-9.178-20.5-20.5 9.18-20.5 20.5-20.5 20.5 9.178 20.5 20.5Z"/>
  <path fill="#141D26" d="M243.576 204H240v8.4h3.576c.396 0 .744-.06 1.056-.18.312-.12.576-.288.792-.492.216-.204.384-.456.492-.756.108-.288.168-.6.168-.936 0-.432-.096-.804-.276-1.128-.18-.312-.444-.552-.768-.708.324-.156.576-.396.768-.708.18-.312.276-.684.276-1.128 0-.336-.06-.648-.168-.948-.108-.288-.276-.54-.492-.744-.216-.204-.48-.372-.792-.492-.312-.12-.66-.18-1.056-.18Zm.828 2.496c0 .252-.084.468-.24.624-.156.156-.372.24-.624.24h-1.86v-1.68h1.86c.276 0 .48.072.636.228.156.156.228.348.228.588Zm0 3.408c0 .252-.072.444-.228.588-.156.156-.36.228-.636.228h-1.86v-1.68h1.86c.252 0 .468.072.624.228.156.156.24.372.24.636Zm6.946 2.484v-2.808h1.044l1.8 2.808h2.04l-1.98-2.988c.264-.096.504-.228.72-.396.216-.168.408-.36.564-.588.156-.228.276-.48.372-.756.084-.276.12-.564.12-.876 0-.384-.06-.756-.204-1.092-.144-.336-.336-.636-.576-.888-.252-.252-.552-.444-.888-.588-.348-.144-.72-.216-1.116-.216h-3.576v8.388h1.68Zm2.712-4.812c-.192.216-.468.324-.816.324h-1.896v-2.232h1.896c.348 0 .624.12.816.336.204.216.3.48.3.78 0 .312-.096.564-.3.792Zm7.753 1.824 1.428-3.096 1.428 3.096h-2.856Zm3.636 1.68.612 1.32h1.848l-3.888-8.4h-1.56l-3.888 8.4h1.848l.612-1.32h4.416Zm13.066-7.08h-1.68v5.52l-4.536-5.52h-1.464v8.4h1.68v-5.52l4.536 5.52h1.464V204Zm6.782 0h-3.048v8.4h3.048c.588 0 1.14-.108 1.644-.324.504-.204.936-.504 1.308-.876.36-.372.648-.804.852-1.32.204-.516.312-1.068.312-1.68 0-.612-.108-1.164-.312-1.68-.204-.516-.492-.96-.852-1.332-.372-.372-.804-.66-1.308-.876-.504-.204-1.056-.312-1.644-.312Zm2.436 4.2c0 .36-.06.696-.18.996-.12.312-.288.576-.492.804-.216.228-.468.396-.768.528s-.636.192-.996.192h-1.368v-5.04h1.368c.36 0 .696.06.996.192.3.132.552.3.768.528.204.228.372.492.492.792.12.312.18.648.18 1.008Zm10.318 1.668c.216.516.504.96.888 1.344.372.384.816.672 1.332.888.516.216 1.068.312 1.668.312.636 0 1.212-.096 1.74-.3s1.008-.504 1.428-.888l-.828-1.56c-.66.72-1.44 1.068-2.364 1.068-.36 0-.696-.06-.996-.18-.3-.132-.564-.3-.792-.516-.228-.228-.396-.492-.528-.792-.12-.312-.18-.648-.18-1.032 0-.36.06-.708.18-1.02.132-.312.3-.576.528-.792.228-.228.492-.396.792-.516.312-.132.648-.192 1.02-.192.456 0 .864.084 1.224.264.36.168.696.408 1.008.732l.804-1.536c-.408-.372-.864-.66-1.38-.852-.516-.192-1.056-.288-1.644-.288-.6 0-1.152.108-1.668.324-.516.204-.96.504-1.344.876-.372.372-.672.816-.888 1.332-.204.504-.312 1.056-.312 1.656 0 .6.108 1.164.312 1.668Zm9.764-1.668c0 .6.108 1.152.324 1.668.204.516.504.96.876 1.332.372.372.816.672 1.332.876.516.216 1.068.324 1.668.324.6 0 1.152-.108 1.668-.324.516-.204.96-.504 1.332-.876.372-.372.672-.816.888-1.332.204-.516.312-1.068.312-1.668 0-.6-.108-1.152-.312-1.668-.216-.516-.516-.96-.888-1.332-.372-.372-.816-.672-1.332-.888-.516-.204-1.068-.312-1.668-.312-.6 0-1.152.108-1.668.312-.516.216-.96.516-1.332.888-.372.372-.672.816-.876 1.332-.216.516-.324 1.068-.324 1.668Zm6.72 0c0 .372-.06.708-.18 1.008-.132.312-.3.576-.528.804-.228.228-.492.396-.792.516-.312.132-.648.192-1.02.192s-.708-.06-1.008-.192c-.312-.12-.576-.288-.804-.516-.228-.228-.396-.492-.516-.804-.132-.3-.192-.636-.192-1.008s.06-.708.192-1.02c.12-.3.288-.564.516-.792.228-.228.492-.396.804-.528.3-.12.636-.18 1.008-.18s.708.06 1.02.18c.3.132.564.3.792.528.228.228.396.492.528.792.12.312.18.648.18 1.02Zm6.699-4.2h-1.68v8.4h5.496v-1.68h-3.816V204Zm6.382 4.2c0 .6.108 1.152.324 1.668.204.516.504.96.876 1.332.372.372.816.672 1.332.876.516.216 1.068.324 1.668.324.6 0 1.152-.108 1.668-.324.516-.204.96-.504 1.332-.876.372-.372.672-.816.888-1.332.204-.516.312-1.068.312-1.668 0-.6-.108-1.152-.312-1.668-.216-.516-.516-.96-.888-1.332-.372-.372-.816-.672-1.332-.888-.516-.204-1.068-.312-1.668-.312-.6 0-1.152.108-1.668.312-.516.216-.96.516-1.332.888-.372.372-.672.816-.876 1.332-.216.516-.324 1.068-.324 1.668Zm6.72 0c0 .372-.06.708-.18 1.008-.132.312-.3.576-.528.804-.228.228-.492.396-.792.516-.312.132-.648.192-1.02.192s-.708-.06-1.008-.192c-.312-.12-.576-.288-.804-.516-.228-.228-.396-.492-.516-.804-.132-.3-.192-.636-.192-1.008s.06-.708.192-1.02c.12-.3.288-.564.516-.792.228-.228.492-.396.804-.528.3-.12.636-.18 1.008-.18s.708.06 1.02.18c.3.132.564.3.792.528.228.228.396.492.528.792.12.312.18.648.18 1.02Zm6.843 4.188v-2.808h1.044l1.8 2.808h2.04l-1.98-2.988c.264-.096.504-.228.72-.396.216-.168.408-.36.564-.588.156-.228.276-.48.372-.756.084-.276.12-.564.12-.876 0-.384-.06-.756-.204-1.092-.144-.336-.336-.636-.576-.888-.252-.252-.552-.444-.888-.588-.348-.144-.72-.216-1.116-.216h-3.576v8.388h1.68Zm2.712-4.812c-.192.216-.468.324-.816.324h-1.896v-2.232h1.896c.348 0 .624.12.816.336.204.216.3.48.3.78 0 .312-.096.564-.3.792Zm5.041-1.164c0 .396.072.744.204 1.02s.312.516.528.708c.216.192.456.348.732.468.264.132.528.228.792.312.204.06.408.12.588.18s.336.12.468.192c.132.084.24.168.324.276.072.108.108.24.108.396 0 .228-.084.42-.264.552-.18.132-.432.204-.756.204-.708 0-1.152-.36-1.32-1.092l-1.5.648c.084.372.216.696.396.96.18.276.396.492.648.66.252.18.528.3.828.384.3.084.612.12.936.12.384 0 .744-.06 1.08-.168.324-.108.612-.264.852-.468.24-.204.432-.456.576-.756.132-.3.204-.648.204-1.044s-.06-.72-.18-.996c-.132-.276-.288-.504-.492-.696-.204-.18-.444-.336-.708-.468-.264-.12-.54-.228-.828-.324-.228-.072-.432-.144-.612-.204-.192-.06-.36-.132-.492-.216-.132-.072-.24-.156-.312-.264-.084-.096-.12-.216-.12-.372 0-.204.084-.384.252-.528.168-.144.42-.216.768-.216.336 0 .612.084.828.24.216.156.372.432.456.816l1.524-.612c-.156-.696-.48-1.224-.972-1.584-.504-.36-1.116-.54-1.824-.54-.384 0-.744.048-1.068.156-.336.108-.624.276-.864.48-.252.204-.444.456-.576.756-.132.3-.204.636-.204 1.02Z" opacity=".5"/>
</svg>
