<svg width="1920" height="960" viewBox="0 0 1920 960" fill="none" xmlns="http://www.w3.org/2000/svg">
<rect width="960" height="960" transform="translate(960)" fill="white"/>
<rect x="1112.2" y="319.157" width="657.951" height="323.122" fill="white"/>
<rect x="1661" y="318" width="109" height="109" fill="#FAFAFC"/>
<rect x="1661" y="536" width="109" height="109" fill="#FAFAFC"/>
<rect x="1111" y="536" width="109" height="109" fill="#FAFAFC"/>
<rect x="1111" y="318" width="109" height="109" fill="#FAFAFC"/>
<path d="M1346.84 448.14C1346.84 443.417 1350.54 439.62 1355.15 439.62C1359.76 439.62 1363.47 443.417 1363.47 448.14C1363.47 452.863 1359.76 456.66 1355.15 456.66C1350.54 456.66 1346.84 452.863 1346.84 448.14Z" fill="#060C27"/>
<path d="M1361.55 466.111H1348.53V518.157H1361.55V466.111Z" fill="#060C27"/>
<path d="M1371.84 466.105H1383.77L1384.86 472.218H1385.67C1388.74 468.143 1392.99 464.994 1400.58 464.994C1412.7 464.994 1420.38 472.866 1420.38 486.572V518.152H1407.36V489.35C1407.36 480.83 1402.57 476.663 1396.52 476.663C1390.28 476.663 1384.86 480.738 1384.86 489.998V518.244H1371.84V466.105Z" fill="#060C27"/>
<path d="M1435.94 503.969V476.649H1425.09V466.092H1428.53C1434.77 466.092 1437.21 463.777 1437.21 458.22V452.015H1448.96V466.184H1462.24V476.742H1448.96V502.394C1448.96 505.265 1449.68 508.877 1455.73 508.877C1457.27 508.877 1459.17 508.599 1460.71 508.136V518.23C1458.45 518.786 1455.46 519.342 1451.76 519.342C1437.57 519.157 1435.94 509.71 1435.94 503.969Z" fill="#060C27"/>
<path d="M1535.54 466.1L1536.72 473.508H1537.53C1540.7 468.322 1544.13 465.081 1552.72 465.081H1556.33V478.417C1554.53 478.139 1552.72 477.954 1550.82 477.954C1539.61 477.954 1536.72 486.381 1536.72 493.882V518.146H1523.7V466.1H1535.54Z" fill="#060C27"/>
<path d="M1559.41 492.03C1559.41 476.009 1570.98 465.081 1586.26 465.081C1601.53 465.081 1613.1 476.101 1613.1 492.03C1613.1 508.144 1601.62 519.164 1586.26 519.164C1571.07 519.164 1559.41 508.051 1559.41 492.03ZM1600.09 492.03C1600.09 483.417 1594.48 476.657 1586.17 476.657C1577.85 476.657 1572.34 483.417 1572.34 492.03C1572.34 500.735 1577.85 507.681 1586.17 507.681C1594.66 507.681 1600.09 500.735 1600.09 492.03Z" fill="#060C27"/>
<path d="M1618.7 501.476H1631.26C1631.99 507.125 1636.05 509.255 1641.21 509.255C1645.18 509.255 1648.62 507.681 1648.62 503.977C1648.62 499.994 1645.18 498.327 1639.67 496.938L1634.88 495.734C1628.1 494.067 1620.33 491.289 1620.33 481.01C1620.33 470.637 1629.27 465.081 1639.31 465.081C1653.05 465.081 1659.28 472.49 1660.01 481.01H1647.53C1646.99 477.305 1644.19 474.99 1639.4 474.99C1635.42 474.99 1632.71 476.935 1632.71 480.269C1632.71 483.881 1636.14 484.807 1641.02 486.196L1645.81 487.4C1654.67 489.715 1661 493.882 1661 503.606C1661 514.349 1652.05 519.164 1641.3 519.164C1626.92 519.164 1619.42 512.219 1618.7 501.476Z" fill="#060C27"/>
<path d="M1503.97 503.332C1502.26 506.944 1498.46 508.888 1493.4 508.888C1485.54 508.888 1480.84 503.517 1480.29 496.108H1516.45C1516.54 494.627 1516.63 493.515 1516.63 492.312C1516.63 473.882 1505.15 465.825 1492.86 465.825C1479.03 465.825 1467.55 476.105 1467.55 493.145C1467.55 508.981 1478.39 519.353 1493.4 519.353C1503.34 519.353 1510.84 515.278 1514.55 508.425L1503.97 503.332ZM1492.95 476.383C1499.54 476.383 1504.25 480.921 1504.52 487.311H1480.47C1481.38 481.106 1485.99 476.383 1492.95 476.383Z" fill="#060C27"/>
<path d="M1295.02 479.625V499.628C1295.02 499.999 1294.75 500.277 1294.39 500.277H1283.36C1283 500.277 1282.73 499.999 1282.73 499.628V479.625C1282.64 474.068 1278.21 469.53 1272.69 469.53C1267.18 469.53 1262.66 474.161 1262.66 479.717V499.536C1262.66 499.906 1262.3 500.277 1261.94 500.277H1251.09C1250.73 500.277 1250.37 499.999 1250.37 499.536V479.532C1250.37 478.236 1250.55 476.939 1250.73 475.735C1250.82 475.272 1251.09 474.902 1251.45 474.717C1257.51 471.475 1262.12 465.919 1264.29 459.251C1264.47 458.88 1264.74 458.51 1265.1 458.417C1267.45 457.491 1270.07 457.028 1272.69 457.028C1284.99 456.936 1294.93 467.123 1295.02 479.625Z" fill="#060C27"/>
<path d="M1280.83 427.667C1272.79 426.37 1265.19 427.018 1258.05 429.148C1257.42 429.333 1257.15 430.26 1257.69 430.723C1260.22 433.316 1262.3 436.372 1263.66 439.891C1263.84 440.354 1264.2 440.539 1264.65 440.447C1269.89 439.335 1275.41 439.243 1281.1 440.539C1299.09 444.521 1312.47 460.82 1313.01 479.62C1313.73 503.05 1295.38 522.405 1272.6 522.405C1250.46 522.405 1232.29 503.883 1232.29 481.009C1232.29 480.268 1232.29 479.527 1232.38 478.879C1232.47 478.046 1231.93 477.305 1231.12 477.12C1227.86 476.193 1224.79 474.619 1222.17 472.489C1221.54 472.026 1220.72 472.397 1220.54 473.137C1220.18 475.73 1220 478.323 1220 481.009C1220 510.829 1243.68 535 1272.7 535C1303.61 535 1328.37 507.588 1325.12 475.267C1322.68 451.097 1304.24 431.278 1280.83 427.667Z" fill="#060C27"/>
<path d="M1229.49 450.263C1229.49 444.429 1234.1 439.706 1239.79 439.706C1245.49 439.706 1250.1 444.429 1250.1 450.263C1250.1 456.097 1245.49 460.82 1239.79 460.82C1234.1 460.82 1229.49 456.097 1229.49 450.263Z" fill="#060C27"/>
<line x1="1661.5" y1="960" x2="1661.5" y2="2.05924e-08" stroke="#E5E5F2"/>
<line x1="1769.5" y1="960" x2="1769.5" y2="2.05924e-08" stroke="#E5E5F2"/>
<line x1="1111.5" y1="960" x2="1111.5" y2="2.12165e-08" stroke="#E5E5F2"/>
<line x1="1219.5" y1="960" x2="1219.5" y2="2.12165e-08" stroke="#E5E5F2"/>
<line x1="1920" y1="426.5" x2="960" y2="426.5" stroke="#E5E5F2"/>
<path d="M1920 536L960 536" stroke="#E5E5F2"/>
<line x1="1920" y1="318.5" x2="960" y2="318.5" stroke="#E5E5F2"/>
<line x1="1920" y1="644.5" x2="960" y2="644.5" stroke="#E5E5F2"/>
<rect width="960" height="960" fill="#12183D"/>
<path d="M535.038 476.472V525.31C535.038 526.215 534.366 526.893 533.469 526.893H506.123C505.227 526.893 504.554 526.215 504.554 525.31V476.472C504.33 462.905 493.347 451.826 479.674 451.826C466.001 451.826 454.794 463.132 454.794 476.698V525.084C454.794 525.989 453.897 526.893 453.001 526.893H426.103C425.207 526.893 424.31 526.215 424.31 525.084V476.246C424.31 473.08 424.758 469.915 425.207 466.975C425.431 465.845 426.103 464.94 427 464.488C442.017 456.575 453.449 443.008 458.828 426.729C459.277 425.824 459.949 424.92 460.846 424.694C466.673 422.433 473.174 421.302 479.674 421.302C510.158 421.076 534.814 445.948 535.038 476.472Z" fill="white"/>
<path d="M499.85 349.627C479.901 346.462 461.073 348.045 443.365 353.245C441.796 353.697 441.124 355.958 442.469 357.089C448.745 363.42 453.9 370.881 457.262 379.473C457.711 380.604 458.607 381.056 459.728 380.83C472.728 378.116 486.401 377.89 500.523 381.056C545.128 390.778 578.301 430.573 579.646 476.472C581.439 533.676 535.938 580.932 479.453 580.932C424.537 580.932 379.484 535.711 379.484 479.863C379.484 478.054 379.484 476.246 379.708 474.663C379.932 472.628 378.587 470.819 376.57 470.367C368.501 468.106 360.88 464.262 354.379 459.062C352.81 457.931 350.793 458.836 350.345 460.644C349.448 466.975 349 473.306 349 479.863C349 552.669 407.726 611.682 479.677 611.682C556.335 611.682 617.751 544.755 609.682 465.845C603.63 406.832 557.904 358.445 499.85 349.627Z" fill="white"/>
<path d="M369.395 405.666C369.395 391.574 380.803 380.166 394.895 380.166C408.988 380.166 420.395 391.574 420.395 405.666C420.395 419.758 408.988 431.166 394.895 431.166C380.803 431.166 369.395 419.758 369.395 405.666Z" fill="white"/>
<g opacity="0.3">
<path d="M242.568 103.6H240.888V112H246.384V110.32H242.568V103.6Z" fill="white"/>
<path d="M248.95 107.8C248.95 108.4 249.058 108.952 249.274 109.468C249.478 109.984 249.778 110.428 250.15 110.8C250.522 111.172 250.966 111.472 251.482 111.676C251.998 111.892 252.55 112 253.15 112C253.75 112 254.302 111.892 254.818 111.676C255.334 111.472 255.778 111.172 256.15 110.8C256.522 110.428 256.822 109.984 257.038 109.468C257.242 108.952 257.35 108.4 257.35 107.8C257.35 107.2 257.242 106.648 257.038 106.132C256.822 105.616 256.522 105.172 256.15 104.8C255.778 104.428 255.334 104.128 254.818 103.912C254.302 103.708 253.75 103.6 253.15 103.6C252.55 103.6 251.998 103.708 251.482 103.912C250.966 104.128 250.522 104.428 250.15 104.8C249.778 105.172 249.478 105.616 249.274 106.132C249.058 106.648 248.95 107.2 248.95 107.8ZM255.67 107.8C255.67 108.172 255.61 108.508 255.49 108.808C255.358 109.12 255.19 109.384 254.962 109.612C254.734 109.84 254.47 110.008 254.17 110.128C253.858 110.26 253.522 110.32 253.15 110.32C252.778 110.32 252.442 110.26 252.142 110.128C251.83 110.008 251.566 109.84 251.338 109.612C251.11 109.384 250.942 109.12 250.822 108.808C250.69 108.508 250.63 108.172 250.63 107.8C250.63 107.428 250.69 107.092 250.822 106.78C250.942 106.48 251.11 106.216 251.338 105.988C251.566 105.76 251.83 105.592 252.142 105.46C252.442 105.34 252.778 105.28 253.15 105.28C253.522 105.28 253.858 105.34 254.17 105.46C254.47 105.592 254.734 105.76 254.962 105.988C255.19 106.216 255.358 106.48 255.49 106.78C255.61 107.092 255.67 107.428 255.67 107.8Z" fill="white"/>
<path d="M260.569 109.444C260.785 109.96 261.073 110.392 261.445 110.764C261.829 111.136 262.273 111.436 262.801 111.64C263.329 111.844 263.905 111.952 264.529 111.952C265.081 111.952 265.597 111.856 266.077 111.676C266.557 111.496 266.989 111.22 267.349 110.86C267.709 110.5 267.985 110.056 268.201 109.528C268.405 109 268.513 108.388 268.513 107.704V107.152H264.217V108.832H266.581C266.533 109.072 266.437 109.276 266.293 109.468C266.149 109.648 265.993 109.804 265.801 109.924C265.609 110.044 265.405 110.128 265.177 110.188C264.949 110.248 264.721 110.284 264.493 110.284C264.109 110.284 263.761 110.224 263.449 110.092C263.137 109.972 262.873 109.804 262.645 109.576C262.429 109.36 262.249 109.096 262.129 108.784C262.009 108.472 261.937 108.124 261.937 107.752C261.937 107.38 262.009 107.044 262.129 106.732C262.249 106.42 262.429 106.156 262.645 105.928C262.861 105.712 263.125 105.544 263.437 105.412C263.749 105.292 264.085 105.232 264.445 105.232C264.901 105.232 265.333 105.316 265.729 105.484C266.125 105.664 266.485 105.928 266.809 106.3L267.625 104.74C267.205 104.332 266.725 104.032 266.197 103.84C265.669 103.648 265.105 103.552 264.529 103.552C263.893 103.552 263.317 103.648 262.789 103.864C262.261 104.08 261.817 104.368 261.433 104.752C261.061 105.124 260.773 105.568 260.569 106.084C260.365 106.588 260.257 107.152 260.257 107.764C260.257 108.364 260.365 108.928 260.569 109.444Z" fill="white"/>
<path d="M271.224 107.8C271.224 108.4 271.332 108.952 271.548 109.468C271.752 109.984 272.052 110.428 272.424 110.8C272.796 111.172 273.24 111.472 273.756 111.676C274.272 111.892 274.824 112 275.424 112C276.024 112 276.576 111.892 277.092 111.676C277.608 111.472 278.052 111.172 278.424 110.8C278.796 110.428 279.096 109.984 279.312 109.468C279.516 108.952 279.624 108.4 279.624 107.8C279.624 107.2 279.516 106.648 279.312 106.132C279.096 105.616 278.796 105.172 278.424 104.8C278.052 104.428 277.608 104.128 277.092 103.912C276.576 103.708 276.024 103.6 275.424 103.6C274.824 103.6 274.272 103.708 273.756 103.912C273.24 104.128 272.796 104.428 272.424 104.8C272.052 105.172 271.752 105.616 271.548 106.132C271.332 106.648 271.224 107.2 271.224 107.8ZM277.944 107.8C277.944 108.172 277.884 108.508 277.764 108.808C277.632 109.12 277.464 109.384 277.236 109.612C277.008 109.84 276.744 110.008 276.444 110.128C276.132 110.26 275.796 110.32 275.424 110.32C275.052 110.32 274.716 110.26 274.416 110.128C274.104 110.008 273.84 109.84 273.612 109.612C273.384 109.384 273.216 109.12 273.096 108.808C272.964 108.508 272.904 108.172 272.904 107.8C272.904 107.428 272.964 107.092 273.096 106.78C273.216 106.48 273.384 106.216 273.612 105.988C273.84 105.76 274.104 105.592 274.416 105.46C274.716 105.34 275.052 105.28 275.424 105.28C275.796 105.28 276.132 105.34 276.444 105.46C276.744 105.592 277.008 105.76 277.236 105.988C277.464 106.216 277.632 106.48 277.764 106.78C277.884 107.092 277.944 107.428 277.944 107.8Z" fill="white"/>
</g>
</svg>
