<svg xmlns="http://www.w3.org/2000/svg" width="168" height="65" viewBox="0 0 168 65">
    <path fill="#1F1F1F" fill-rule="evenodd" d="M5.956 21.934V36.97h7.615v4.955H1V21.934h4.956zm52.748 19.993V21.934h4.956v19.993h-4.956zM46.547 21.934V36.97h7.615v4.955H41.59V21.934h4.956zM141.85 33.58v4.037h7.087v4.309h-11.726V21.933h11.726v4.189h-7.087v3.97h7.087v3.489h-7.087zM91.822 21.934h4.83l-9.42 19.974h-.272L81.9 31.49l-5.147 10.418h-.278l-9.16-19.974h4.65l4.653 10.35 5.135-10.35h.308l5.038 10.35 4.723-10.35zm12.071 0l10.614 19.992h-4.64l-1.172-2.406H98.686l-1.236 2.406h-4.684l10.614-19.992h.513zm-3.415 14.1h6.519l-3.173-6.514-3.346 6.514zm28.41-.879l4.57 6.771h-5.245l-3.902-5.78h-2.282v5.78h-4.434V21.934h7.776c3.698 0 7.004 3.12 7.004 7.106 0 2.603-1.4 4.877-3.487 6.115zm-4.113-3.002a3.015 3.015 0 1 0 0-6.031h-2.746v6.031h2.746zm27.17-7.9v-1.965h-.802v-.354h2.002v.354h-.802v1.966h-.398zm1.55 0v-2.32h.4l.766 1.091.766-1.09h.397v2.32h-.384v-1.73l-.782 1.093-.782-1.094v1.73h-.382zM21.428 22.553v18.757a10.649 10.649 0 0 1-2.15-1.513V24.064a10.649 10.649 0 0 1 2.15-1.512zm3.944-1.193v21.142a10.558 10.558 0 0 1-2.15-.438V21.797a10.58 10.58 0 0 1 2.15-.438zm1.795 21.164V21.337c1.805.121 3.41.71 4.592 1.411l-2.415 3.583 1.87 2.8-1.87 2.803 1.87 2.8-1.87 2.8 2.4 3.589c-1.212.71-2.914 1.311-4.577 1.4zm6.24-18.587a10.595 10.595 0 0 1 3.631 7.994c0 3.19-1.407 6.048-3.632 7.995l-1.596-2.39 1.87-2.8-1.87-2.802 1.87-2.802-1.87-2.8 1.597-2.395zm-15.924 2.25v11.488a10.57 10.57 0 0 1-1.689-5.744c0-2.117.622-4.087 1.689-5.744z"/>
</svg>
