<svg width="1920" height="960" viewBox="0 0 1920 960" fill="none" xmlns="http://www.w3.org/2000/svg">
<g clip-path="url(#clip0_317:107005)">
<rect width="1920" height="960" fill="white"/>
<rect width="960" height="960" fill="white"/>
<rect x="234.531" y="593.559" width="67.9667" height="94.3982" stroke="#1E1E1E" stroke-width="2"/>
<path d="M207.775 669.247C200.876 661.963 197 652.085 197 641.785C197 631.486 200.876 621.608 207.775 614.324" stroke="#1E1E1E" stroke-width="2" stroke-linecap="round" stroke-linejoin="round"/>
<path d="M332.712 614.326C339.611 621.61 343.487 631.488 343.487 641.788C343.487 652.087 339.611 661.965 332.712 669.249" stroke="#1E1E1E" stroke-width="2" stroke-linecap="round" stroke-linejoin="round"/>
<path d="M220.71 661.71C215.191 656.425 212.09 649.259 212.09 641.787C212.09 634.315 215.191 627.148 220.71 621.864" stroke="#1E1E1E" stroke-width="2" stroke-linecap="round" stroke-linejoin="round"/>
<path d="M319.784 621.863C325.303 627.147 328.404 634.314 328.404 641.786C328.404 649.258 325.303 656.424 319.784 661.709" stroke="#1E1E1E" stroke-width="2" stroke-linecap="round" stroke-linejoin="round"/>
<ellipse cx="267.57" cy="619.046" rx="6.60789" ry="6.60787" stroke="#1E1E1E" stroke-width="2"/>
<ellipse cx="267.57" cy="653.029" rx="17.9357" ry="17.9357" stroke="#1E1E1E" stroke-width="2"/>
<path d="M246.621 315.799C236.507 315.799 216.28 315.799 216.28 315.799V407.713H246.621" stroke="#1E1E1E" stroke-width="2"/>
<path d="M293.421 407.713C303.535 407.713 323.762 407.713 323.762 407.713L323.762 315.799L293.421 315.799" stroke="#1E1E1E" stroke-width="2"/>
<path d="M500.942 594.383L468.653 616.881H442.822V663.752H468.653L500.942 686.25V594.383Z" stroke="#1E1E1E" stroke-width="2" stroke-linecap="round" stroke-linejoin="round"/>
<path d="M536.565 630.003L515.942 650.627" stroke="#1E1E1E" stroke-width="2" stroke-linecap="round" stroke-linejoin="round"/>
<path d="M515.942 630.003L536.565 650.627" stroke="#1E1E1E" stroke-width="2" stroke-linecap="round" stroke-linejoin="round"/>
<path d="M540.313 605.631C549.917 614.831 555.312 627.307 555.312 640.316C555.312 653.325 549.917 665.801 540.313 675" stroke="#1E1E1E" stroke-width="2" stroke-linecap="round" stroke-linejoin="round"/>
<path d="M547.693 357.197L502.393 311.897L457.094 357.197V411.264H512.622" stroke="#1E1E1E" stroke-width="2"/>
<g clip-path="url(#clip1_317:107005)">
<path d="M511.782 385.586C516.215 381.894 521.802 379.872 527.571 379.872C533.34 379.872 538.926 381.894 543.359 385.586" stroke="#1E1E1E" stroke-width="2.42424" stroke-linejoin="round"/>
<path d="M503.755 377.627C510.309 371.85 518.746 368.662 527.483 368.662C536.219 368.662 544.656 371.85 551.21 377.627" stroke="#1E1E1E" stroke-width="2.42424" stroke-linejoin="round"/>
<path d="M519.701 393.568C521.977 391.951 524.701 391.082 527.494 391.082C530.287 391.082 533.01 391.951 535.287 393.568" stroke="#1E1E1E" stroke-width="2.42424" stroke-linejoin="round"/>
<path d="M527.479 402.292H527.498" stroke="#1E1E1E" stroke-width="3.61111" stroke-linecap="round" stroke-linejoin="round"/>
</g>
<path d="M756.495 635.933L711.195 590.633L665.896 635.933V690H721.424" stroke="#1E1E1E" stroke-width="2"/>
<path d="M750.902 668.309C750.902 664.659 747.69 664.02 744.855 663.541C742.552 663.176 740.469 662.789 740.469 660.667C740.469 658.934 741.843 657.816 744.368 657.816C747.048 657.816 748.598 659.162 748.576 661.443H750.548C750.548 658.386 748.643 656.402 745.453 656.06V653.938H743.593V656.014C740.314 656.265 738.454 658.09 738.454 660.781C738.454 664.271 741.555 665.024 744.368 665.48C746.716 665.868 748.886 666.233 748.886 668.445C748.886 670.247 747.402 671.388 744.855 671.388C741.931 671.388 740.226 669.905 740.226 667.419H738.232C738.232 670.612 740.226 672.734 743.593 673.144V675.38H745.453V673.19C748.909 673.007 750.902 671.16 750.902 668.309Z" fill="#1E1E1E"/>
<path d="M764.269 665.158C764.269 676.307 755.23 685.346 744.08 685.346C732.931 685.346 723.892 676.307 723.892 665.158C723.892 654.008 732.931 644.969 744.08 644.969C755.23 644.969 764.269 654.008 764.269 665.158Z" stroke="#1E1E1E" stroke-width="2"/>
<path d="M715.39 395.708C736.365 395.708 753.37 381.917 753.37 358.579C753.37 335.241 715.39 309.781 715.39 309.781C715.39 309.781 677.409 335.241 677.409 358.579C677.409 381.917 694.414 395.708 715.39 395.708Z" stroke="#1E1E1E" stroke-width="2"/>
<path d="M714.615 341.026C714.615 341.77 714.615 390.289 714.615 414.455" stroke="#1E1E1E" stroke-width="2"/>
<g opacity="0.3">
<path d="M199.568 103.6H197.888V112H199.568V103.6Z" fill="#1F1F1F"/>
<path d="M203.239 109.468C203.455 109.984 203.743 110.428 204.127 110.812C204.499 111.196 204.943 111.484 205.459 111.7C205.975 111.916 206.527 112.012 207.127 112.012C207.763 112.012 208.339 111.916 208.867 111.712C209.395 111.508 209.875 111.208 210.295 110.824L209.467 109.264C208.807 109.984 208.027 110.332 207.103 110.332C206.743 110.332 206.407 110.272 206.107 110.152C205.807 110.02 205.543 109.852 205.315 109.636C205.087 109.408 204.919 109.144 204.787 108.844C204.667 108.532 204.607 108.196 204.607 107.812C204.607 107.452 204.667 107.104 204.787 106.792C204.919 106.48 205.087 106.216 205.315 106C205.543 105.772 205.807 105.604 206.107 105.484C206.419 105.352 206.755 105.292 207.127 105.292C207.583 105.292 207.991 105.376 208.351 105.556C208.711 105.724 209.047 105.964 209.359 106.288L210.163 104.752C209.755 104.38 209.299 104.092 208.783 103.9C208.267 103.708 207.727 103.612 207.139 103.612C206.539 103.612 205.987 103.72 205.471 103.936C204.955 104.14 204.511 104.44 204.127 104.812C203.755 105.184 203.455 105.628 203.239 106.144C203.035 106.648 202.927 107.2 202.927 107.8C202.927 108.4 203.035 108.964 203.239 109.468Z" fill="#1F1F1F"/>
<path d="M213.003 107.8C213.003 108.4 213.111 108.952 213.327 109.468C213.531 109.984 213.831 110.428 214.203 110.8C214.575 111.172 215.019 111.472 215.535 111.676C216.051 111.892 216.603 112 217.203 112C217.803 112 218.355 111.892 218.871 111.676C219.387 111.472 219.831 111.172 220.203 110.8C220.575 110.428 220.875 109.984 221.091 109.468C221.295 108.952 221.403 108.4 221.403 107.8C221.403 107.2 221.295 106.648 221.091 106.132C220.875 105.616 220.575 105.172 220.203 104.8C219.831 104.428 219.387 104.128 218.871 103.912C218.355 103.708 217.803 103.6 217.203 103.6C216.603 103.6 216.051 103.708 215.535 103.912C215.019 104.128 214.575 104.428 214.203 104.8C213.831 105.172 213.531 105.616 213.327 106.132C213.111 106.648 213.003 107.2 213.003 107.8ZM219.723 107.8C219.723 108.172 219.663 108.508 219.543 108.808C219.411 109.12 219.243 109.384 219.015 109.612C218.787 109.84 218.523 110.008 218.223 110.128C217.911 110.26 217.575 110.32 217.203 110.32C216.831 110.32 216.495 110.26 216.195 110.128C215.883 110.008 215.619 109.84 215.391 109.612C215.163 109.384 214.995 109.12 214.875 108.808C214.743 108.508 214.683 108.172 214.683 107.8C214.683 107.428 214.743 107.092 214.875 106.78C214.995 106.48 215.163 106.216 215.391 105.988C215.619 105.76 215.883 105.592 216.195 105.46C216.495 105.34 216.831 105.28 217.203 105.28C217.575 105.28 217.911 105.34 218.223 105.46C218.523 105.592 218.787 105.76 219.015 105.988C219.243 106.216 219.411 106.48 219.543 106.78C219.663 107.092 219.723 107.428 219.723 107.8Z" fill="#1F1F1F"/>
<path d="M232.374 103.6H230.694V109.12L226.158 103.6H224.694V112H226.374V106.48L230.91 112H232.374V103.6Z" fill="#1F1F1F"/>
<path d="M235.831 106.012C235.831 106.408 235.903 106.756 236.035 107.032C236.167 107.308 236.347 107.548 236.563 107.74C236.779 107.932 237.019 108.088 237.295 108.208C237.559 108.34 237.823 108.436 238.087 108.52C238.291 108.58 238.495 108.64 238.675 108.7C238.855 108.76 239.011 108.82 239.143 108.892C239.275 108.976 239.383 109.06 239.467 109.168C239.539 109.276 239.575 109.408 239.575 109.564C239.575 109.792 239.491 109.984 239.311 110.116C239.131 110.248 238.879 110.32 238.555 110.32C237.847 110.32 237.403 109.96 237.235 109.228L235.735 109.876C235.819 110.248 235.951 110.572 236.131 110.836C236.311 111.112 236.527 111.328 236.779 111.496C237.031 111.676 237.307 111.796 237.607 111.88C237.907 111.964 238.219 112 238.543 112C238.927 112 239.287 111.94 239.623 111.832C239.947 111.724 240.235 111.568 240.475 111.364C240.715 111.16 240.907 110.908 241.051 110.608C241.183 110.308 241.255 109.96 241.255 109.564C241.255 109.168 241.195 108.844 241.075 108.568C240.943 108.292 240.787 108.064 240.583 107.872C240.379 107.692 240.139 107.536 239.875 107.404C239.611 107.284 239.335 107.176 239.047 107.08C238.819 107.008 238.615 106.936 238.435 106.876C238.243 106.816 238.075 106.744 237.943 106.66C237.811 106.588 237.703 106.504 237.631 106.396C237.547 106.3 237.511 106.18 237.511 106.024C237.511 105.82 237.595 105.64 237.763 105.496C237.931 105.352 238.183 105.28 238.531 105.28C238.867 105.28 239.143 105.364 239.359 105.52C239.575 105.676 239.731 105.952 239.815 106.336L241.339 105.724C241.183 105.028 240.859 104.5 240.367 104.14C239.863 103.78 239.251 103.6 238.543 103.6C238.159 103.6 237.799 103.648 237.475 103.756C237.139 103.864 236.851 104.032 236.611 104.236C236.359 104.44 236.167 104.692 236.035 104.992C235.903 105.292 235.831 105.628 235.831 106.012Z" fill="#1F1F1F"/>
</g>
<path d="M1857.56 1002.86L1860.44 1003.24L1860.44 1005.78L1857.56 1005.38L1857.56 1002.86ZM1861.74 1003.42L1866 1004.02L1866 1002.66L1861.74 1002.06L1861.74 999.98L1860.44 999.8L1860.44 1001.88L1857.56 1001.48L1857.56 999.38L1856.26 999.22L1856.26 1001.3L1852 1000.7L1852 1002.08L1856.26 1002.68L1856.26 1005.2L1852 1004.6L1852 1005.98L1856.26 1006.58L1856.26 1008.66L1857.56 1008.84L1857.56 1006.76L1860.44 1007.14L1860.44 1009.24L1861.74 1009.4L1861.74 1007.32L1866 1007.92L1866 1006.56L1861.74 1005.96L1861.74 1003.42ZM1855.1 998.713L1856.36 997.253C1855.62 996.973 1855 996.553 1854.52 996.013C1854.04 995.473 1853.8 994.853 1853.8 994.153C1853.8 993.813 1853.86 993.473 1853.98 993.173C1854.12 992.873 1854.3 992.593 1854.52 992.353C1854.74 992.133 1855.02 991.953 1855.34 991.813C1855.66 991.673 1856.02 991.613 1856.4 991.613C1856.8 991.613 1857.18 991.693 1857.52 991.833C1857.88 991.973 1858.2 992.173 1858.46 992.433L1864.42 998.233L1866 998.233L1866 989.813L1864.2 989.813L1864.2 995.533L1859.72 991.173C1859.34 990.793 1858.84 990.473 1858.26 990.213C1857.68 989.953 1857.02 989.813 1856.32 989.813C1855.7 989.813 1855.14 989.933 1854.6 990.153C1854.06 990.373 1853.6 990.693 1853.22 991.093C1852.84 991.493 1852.54 991.953 1852.32 992.493C1852.1 993.033 1852 993.613 1852 994.233C1852 994.773 1852.08 995.273 1852.24 995.733C1852.42 996.193 1852.64 996.613 1852.92 996.973C1853.22 997.353 1853.54 997.673 1853.92 997.973C1854.3 998.273 1854.68 998.513 1855.1 998.713ZM1852 979.492L1852 987.413L1859.28 987.412C1859.02 986.912 1858.82 986.372 1858.68 985.812C1858.54 985.272 1858.46 984.752 1858.46 984.252C1858.46 983.372 1858.7 982.652 1859.18 982.112C1859.68 981.572 1860.38 981.312 1861.3 981.312C1861.78 981.312 1862.2 981.392 1862.56 981.532C1862.94 981.692 1863.24 981.912 1863.48 982.172C1863.72 982.452 1863.9 982.772 1864.02 983.132C1864.14 983.492 1864.2 983.872 1864.2 984.272C1864.2 984.772 1864.1 985.292 1863.9 985.792C1863.72 986.312 1863.42 986.812 1863 987.292L1864.6 988.212C1865.06 987.672 1865.42 987.052 1865.64 986.352C1865.88 985.672 1866 984.992 1866 984.312C1866 983.692 1865.9 983.092 1865.7 982.512C1865.52 981.932 1865.22 981.432 1864.82 980.972C1864.44 980.512 1863.94 980.152 1863.36 979.892C1862.78 979.632 1862.12 979.492 1861.34 979.492C1860.64 979.492 1860.02 979.592 1859.44 979.812C1858.86 980.032 1858.38 980.352 1857.96 980.772C1857.54 981.192 1857.22 981.672 1857 982.252C1856.78 982.832 1856.66 983.452 1856.66 984.152C1856.66 984.492 1856.68 984.792 1856.72 985.052C1856.78 985.312 1856.82 985.512 1856.84 985.612L1853.8 985.612L1853.8 979.492L1852 979.492ZM1855.1 978.497L1856.36 977.037C1855.62 976.757 1855 976.337 1854.52 975.797C1854.04 975.257 1853.8 974.637 1853.8 973.937C1853.8 973.597 1853.86 973.257 1853.98 972.957C1854.12 972.657 1854.3 972.377 1854.52 972.137C1854.74 971.917 1855.02 971.737 1855.34 971.597C1855.66 971.457 1856.02 971.397 1856.4 971.397C1856.8 971.397 1857.18 971.477 1857.52 971.617C1857.88 971.757 1858.2 971.957 1858.46 972.217L1864.42 978.017L1866 978.017L1866 969.597L1864.2 969.597L1864.2 975.317L1859.72 970.957C1859.34 970.577 1858.84 970.257 1858.26 969.997C1857.68 969.737 1857.02 969.597 1856.32 969.597C1855.7 969.597 1855.14 969.717 1854.6 969.937C1854.06 970.157 1853.6 970.477 1853.22 970.877C1852.84 971.277 1852.54 971.737 1852.32 972.277C1852.1 972.817 1852 973.397 1852 974.017C1852 974.557 1852.08 975.057 1852.24 975.517C1852.42 975.977 1852.64 976.397 1852.92 976.757C1853.22 977.137 1853.54 977.457 1853.92 977.757C1854.3 978.057 1854.68 978.297 1855.1 978.497ZM1855.12 968.176L1856.36 966.636C1855.64 966.456 1855.04 966.136 1854.54 965.656C1854.04 965.196 1853.8 964.616 1853.8 963.936C1853.8 963.636 1853.84 963.356 1853.94 963.096C1854.04 962.836 1854.2 962.596 1854.38 962.396C1854.56 962.196 1854.8 962.036 1855.06 961.916C1855.32 961.796 1855.62 961.736 1855.96 961.736C1856.6 961.736 1857.1 961.936 1857.48 962.356C1857.86 962.776 1858.06 963.256 1858.08 963.816L1858.08 964.656L1859.88 964.656L1859.88 963.816C1859.9 963.256 1860.1 962.776 1860.46 962.356C1860.82 961.936 1861.34 961.736 1862.02 961.736C1862.7 961.736 1863.24 961.956 1863.62 962.376C1864 962.796 1864.2 963.316 1864.2 963.936C1864.2 964.636 1863.96 965.236 1863.46 965.696C1862.98 966.176 1862.34 966.496 1861.56 966.636L1862.76 968.196C1863.22 968.056 1863.66 967.876 1864.06 967.616C1864.46 967.356 1864.8 967.056 1865.08 966.676C1865.38 966.316 1865.6 965.896 1865.76 965.436C1865.92 964.976 1866 964.496 1866 963.956C1866 963.396 1865.9 962.876 1865.72 962.376C1865.54 961.896 1865.3 961.476 1864.96 961.116C1864.62 960.756 1864.22 960.476 1863.72 960.256C1863.24 960.036 1862.68 959.936 1862.06 959.936C1861.38 959.936 1860.78 960.056 1860.26 960.316C1859.74 960.576 1859.32 960.956 1858.98 961.416C1858.68 960.996 1858.26 960.636 1857.74 960.356C1857.24 960.076 1856.64 959.936 1855.96 959.936C1855.38 959.936 1854.84 960.036 1854.34 960.256C1853.86 960.476 1853.44 960.756 1853.1 961.136C1852.76 961.516 1852.48 961.936 1852.28 962.416C1852.1 962.916 1852 963.436 1852 963.996C1852 964.516 1852.08 964.996 1852.24 965.436C1852.42 965.896 1852.64 966.296 1852.92 966.656C1853.2 967.016 1853.52 967.316 1853.9 967.576C1854.28 967.836 1854.7 968.036 1855.12 968.176ZM1855.1 958.827L1856.36 957.367C1855.62 957.087 1855 956.667 1854.52 956.127C1854.04 955.587 1853.8 954.967 1853.8 954.267C1853.8 953.927 1853.86 953.587 1853.98 953.287C1854.12 952.987 1854.3 952.707 1854.52 952.467C1854.74 952.247 1855.02 952.067 1855.34 951.927C1855.66 951.787 1856.02 951.727 1856.4 951.727C1856.8 951.727 1857.18 951.807 1857.52 951.947C1857.88 952.087 1858.2 952.287 1858.46 952.547L1864.42 958.347L1866 958.347L1866 949.927L1864.2 949.927L1864.2 955.647L1859.72 951.287C1859.34 950.907 1858.84 950.587 1858.26 950.327C1857.68 950.067 1857.02 949.927 1856.32 949.927C1855.7 949.927 1855.14 950.047 1854.6 950.267C1854.06 950.487 1853.6 950.807 1853.22 951.207C1852.84 951.607 1852.54 952.067 1852.32 952.607C1852.1 953.147 1852 953.727 1852 954.347C1852 954.887 1852.08 955.387 1852.24 955.847C1852.42 956.307 1852.64 956.727 1852.92 957.087C1853.22 957.467 1853.54 957.787 1853.92 958.087C1854.3 958.387 1854.68 958.627 1855.1 958.827ZM1855.12 948.507L1856.36 946.967C1855.64 946.787 1855.04 946.467 1854.54 945.987C1854.04 945.527 1853.8 944.947 1853.8 944.267C1853.8 943.967 1853.84 943.687 1853.94 943.427C1854.04 943.167 1854.2 942.927 1854.38 942.727C1854.56 942.527 1854.8 942.367 1855.06 942.247C1855.32 942.127 1855.62 942.067 1855.96 942.067C1856.6 942.067 1857.1 942.267 1857.48 942.687C1857.86 943.107 1858.06 943.587 1858.08 944.147L1858.08 944.987L1859.88 944.987L1859.88 944.147C1859.9 943.587 1860.1 943.107 1860.46 942.687C1860.82 942.267 1861.34 942.067 1862.02 942.067C1862.7 942.067 1863.24 942.287 1863.62 942.707C1864 943.127 1864.2 943.647 1864.2 944.267C1864.2 944.967 1863.96 945.567 1863.46 946.027C1862.98 946.507 1862.34 946.827 1861.56 946.967L1862.76 948.527C1863.22 948.387 1863.66 948.207 1864.06 947.947C1864.46 947.687 1864.8 947.387 1865.08 947.007C1865.38 946.647 1865.6 946.227 1865.76 945.767C1865.92 945.307 1866 944.827 1866 944.287C1866 943.727 1865.9 943.207 1865.72 942.707C1865.54 942.227 1865.3 941.807 1864.96 941.447C1864.62 941.087 1864.22 940.807 1863.72 940.587C1863.24 940.367 1862.68 940.267 1862.06 940.267C1861.38 940.267 1860.78 940.387 1860.26 940.647C1859.74 940.907 1859.32 941.287 1858.98 941.747C1858.68 941.327 1858.26 940.967 1857.74 940.687C1857.24 940.407 1856.64 940.267 1855.96 940.267C1855.38 940.267 1854.84 940.367 1854.34 940.587C1853.86 940.807 1853.44 941.087 1853.1 941.467C1852.76 941.847 1852.48 942.267 1852.28 942.747C1852.1 943.247 1852 943.767 1852 944.327C1852 944.847 1852.08 945.327 1852.24 945.767C1852.42 946.227 1852.64 946.627 1852.92 946.987C1853.2 947.347 1853.52 947.647 1853.9 947.907C1854.28 948.167 1854.7 948.367 1855.12 948.507Z" fill="#FEEBCE"/>
<rect x="960" y="-1" width="193" height="962" fill="white"/>
<g opacity="0.3">
<path d="M1100.6 912.08L1100.6 913.448L1104.12 913.448L1104.12 917.708L1100.6 917.708L1100.6 919.076L1109 919.076L1109 917.708L1105.48 917.708L1105.48 913.448L1109 913.448L1109 912.08L1100.6 912.08Z" fill="#1F1F1F"/>
<path d="M1100.6 902.936L1100.6 908.228L1109 908.228L1109 902.936L1107.63 902.936L1107.63 906.86L1105.48 906.86L1105.48 902.936L1104.12 902.936L1104.12 906.86L1101.97 906.86L1101.97 902.936L1100.6 902.936Z" fill="#1F1F1F"/>
<path d="M1109 900.129L1109 898.365L1105.89 895.845L1109 893.337L1109 891.573L1104.8 894.969L1100.6 891.573L1100.6 893.325L1103.71 895.845L1100.6 898.365L1100.6 900.129L1104.8 896.733L1109 900.129Z" fill="#1F1F1F"/>
<path d="M1103.94 879.6L1105.6 879.84L1105.6 881.256L1103.94 881.016L1103.94 879.6ZM1106.54 879.972L1109 880.32L1109 879.36L1106.54 879L1106.54 877.788L1105.6 877.656L1105.6 878.868L1103.94 878.628L1103.94 877.416L1102.99 877.284L1102.99 878.496L1100.6 878.148L1100.6 879.12L1102.99 879.456L1102.99 880.884L1100.6 880.536L1100.6 881.508L1102.99 881.844L1102.99 883.116L1103.94 883.26L1103.94 881.988L1105.6 882.228L1105.6 883.488L1106.54 883.62L1106.54 882.36L1109 882.708L1109 881.748L1106.54 881.388L1106.54 879.972Z" fill="#1F1F1F"/>
<path d="M1100.6 868.71L1100.6 874.002L1109 874.002L1109 872.634L1105.48 872.634L1105.48 868.71L1104.12 868.71L1104.12 872.634L1101.97 872.634L1101.97 868.71L1100.6 868.71Z" fill="#1F1F1F"/>
<path d="M1100.6 860.053L1100.6 865.345L1109 865.345L1109 863.977L1105.48 863.977L1105.48 860.053L1104.12 860.053L1104.12 863.977L1101.97 863.977L1101.97 860.053L1100.6 860.053Z" fill="#1F1F1F"/>
<path d="M1100.6 851.397L1100.6 856.689L1109 856.689L1109 855.321L1105.48 855.321L1105.48 851.397L1104.12 851.397L1104.12 855.321L1101.97 855.321L1101.97 851.397L1100.6 851.397Z" fill="#1F1F1F"/>
<path d="M1100.6 842.741L1100.6 848.033L1109 848.033L1109 846.665L1105.48 846.665L1105.48 842.741L1104.12 842.741L1104.12 846.665L1101.97 846.665L1101.97 842.741L1100.6 842.741Z" fill="#1F1F1F"/>
<path d="M1100.6 834.085L1100.6 839.377L1109 839.377L1109 838.009L1105.48 838.009L1105.48 834.085L1104.12 834.085L1104.12 838.009L1101.97 838.009L1101.97 834.085L1100.6 834.085Z" fill="#1F1F1F"/>
<path d="M1100.6 825.428L1100.6 830.72L1109 830.72L1109 829.352L1105.48 829.352L1105.48 825.428L1104.12 825.428L1104.12 829.352L1101.97 829.352L1101.97 825.428L1100.6 825.428Z" fill="#1F1F1F"/>
</g>
<rect x="960.5" y="-0.5" width="192" height="961" stroke="black" stroke-opacity="0.1"/>
<rect width="192" height="960.037" transform="translate(1152 -0.0185547)" fill="#EEEEED"/>
<g opacity="0.3">
<path d="M1292.6 912.061L1292.6 913.429L1296.12 913.429L1296.12 917.689L1292.6 917.689L1292.6 919.057L1301 919.057L1301 917.689L1297.48 917.689L1297.48 913.429L1301 913.429L1301 912.061L1292.6 912.061Z" fill="#1F1F1F"/>
<path d="M1292.6 902.918L1292.6 908.21L1301 908.21L1301 902.918L1299.63 902.918L1299.63 906.842L1297.48 906.842L1297.48 902.918L1296.12 902.918L1296.12 906.842L1293.97 906.842L1293.97 902.918L1292.6 902.918Z" fill="#1F1F1F"/>
<path d="M1301 900.111L1301 898.347L1297.89 895.827L1301 893.319L1301 891.555L1296.8 894.951L1292.6 891.555L1292.6 893.307L1295.71 895.827L1292.6 898.347L1292.6 900.111L1296.8 896.715L1301 900.111Z" fill="#1F1F1F"/>
<path d="M1295.94 879.582L1297.6 879.822L1297.6 881.238L1295.94 880.998L1295.94 879.582ZM1298.54 879.954L1301 880.302L1301 879.342L1298.54 878.982L1298.54 877.77L1297.6 877.638L1297.6 878.85L1295.94 878.61L1295.94 877.398L1294.99 877.266L1294.99 878.478L1292.6 878.13L1292.6 879.102L1294.99 879.438L1294.99 880.866L1292.6 880.518L1292.6 881.49L1294.99 881.826L1294.99 883.098L1295.94 883.242L1295.94 881.97L1297.6 882.21L1297.6 883.47L1298.54 883.602L1298.54 882.342L1301 882.69L1301 881.73L1298.54 881.37L1298.54 879.954Z" fill="#1F1F1F"/>
<path d="M1292.6 868.691L1292.6 873.983L1301 873.983L1301 868.691L1299.63 868.691L1299.63 872.615L1297.48 872.615L1297.48 868.691L1296.12 868.691L1296.12 872.615L1293.97 872.615L1293.97 868.691L1292.6 868.691Z" fill="#1F1F1F"/>
<path d="M1292.6 859.812L1292.6 865.104L1301 865.104L1301 859.812L1299.63 859.812L1299.63 863.736L1297.48 863.736L1297.48 859.812L1296.12 859.812L1296.12 863.736L1293.97 863.736L1293.97 859.812L1292.6 859.812Z" fill="#1F1F1F"/>
<path d="M1292.6 850.933L1292.6 856.225L1301 856.225L1301 850.933L1299.63 850.933L1299.63 854.857L1297.48 854.857L1297.48 850.933L1296.12 850.933L1296.12 854.857L1293.97 854.857L1293.97 850.933L1292.6 850.933Z" fill="#1F1F1F"/>
<path d="M1292.6 842.054L1292.6 847.346L1301 847.346L1301 842.054L1299.63 842.054L1299.63 845.978L1297.48 845.978L1297.48 842.054L1296.12 842.054L1296.12 845.978L1293.97 845.978L1293.97 842.054L1292.6 842.054Z" fill="#1F1F1F"/>
<path d="M1292.6 833.176L1292.6 838.468L1301 838.468L1301 833.176L1299.63 833.176L1299.63 837.1L1297.48 837.1L1297.48 833.176L1296.12 833.176L1296.12 837.1L1293.97 837.1L1293.97 833.176L1292.6 833.176Z" fill="#1F1F1F"/>
<path d="M1292.6 826.625L1292.6 829.589L1301 829.589L1301 826.625C1301 826.037 1300.89 825.485 1300.68 824.969C1300.47 824.465 1300.17 824.021 1299.8 823.649C1299.43 823.277 1299 822.989 1298.48 822.785C1297.96 822.581 1297.41 822.473 1296.8 822.473C1296.19 822.473 1295.64 822.581 1295.12 822.785C1294.6 822.989 1294.16 823.277 1293.79 823.649C1293.42 824.021 1293.13 824.465 1292.91 824.969C1292.71 825.485 1292.6 826.037 1292.6 826.625ZM1296.8 823.841C1297.21 823.841 1297.58 823.913 1297.93 824.045C1298.28 824.177 1298.58 824.369 1298.83 824.621C1299.08 824.873 1299.28 825.161 1299.42 825.497C1299.56 825.845 1299.63 826.217 1299.63 826.625L1299.63 828.221L1293.97 828.221L1293.97 826.625C1293.97 826.217 1294.04 825.845 1294.17 825.497C1294.32 825.161 1294.51 824.873 1294.76 824.621C1295.01 824.369 1295.31 824.177 1295.66 824.045C1296.01 823.913 1296.39 823.841 1296.8 823.841Z" fill="#1F1F1F"/>
</g>
<rect width="192" height="960.037" transform="translate(1344 -0.0185547)" fill="#CDCBC3"/>
<g opacity="0.3">
<path d="M1484.6 912.061L1484.6 913.429L1488.12 913.429L1488.12 917.689L1484.6 917.689L1484.6 919.057L1493 919.057L1493 917.689L1489.48 917.689L1489.48 913.429L1493 913.429L1493 912.061L1484.6 912.061Z" fill="#1F1F1F"/>
<path d="M1484.6 902.918L1484.6 908.21L1493 908.21L1493 902.918L1491.63 902.918L1491.63 906.842L1489.48 906.842L1489.48 902.918L1488.12 902.918L1488.12 906.842L1485.97 906.842L1485.97 902.918L1484.6 902.918Z" fill="#1F1F1F"/>
<path d="M1493 900.111L1493 898.347L1489.89 895.827L1493 893.319L1493 891.555L1488.8 894.951L1484.6 891.555L1484.6 893.307L1487.71 895.827L1484.6 898.347L1484.6 900.111L1488.8 896.715L1493 900.111Z" fill="#1F1F1F"/>
<path d="M1487.94 879.582L1489.6 879.822L1489.6 881.238L1487.94 880.998L1487.94 879.582ZM1490.54 879.954L1493 880.302L1493 879.342L1490.54 878.982L1490.54 877.77L1489.6 877.638L1489.6 878.85L1487.94 878.61L1487.94 877.398L1486.99 877.266L1486.99 878.478L1484.6 878.13L1484.6 879.102L1486.99 879.438L1486.99 880.866L1484.6 880.518L1484.6 881.49L1486.99 881.826L1486.99 883.098L1487.94 883.242L1487.94 881.97L1489.6 882.21L1489.6 883.47L1490.54 883.602L1490.54 882.342L1493 882.69L1493 881.73L1490.54 881.37L1490.54 879.954Z" fill="#1F1F1F"/>
<path d="M1490.46 874.043C1490.96 873.827 1491.42 873.539 1491.79 873.155C1492.17 872.783 1492.47 872.339 1492.68 871.835C1492.89 871.331 1493 870.791 1493 870.203C1493 869.567 1492.9 868.991 1492.7 868.475C1492.5 867.959 1492.22 867.491 1491.85 867.083L1490.56 867.731C1490.89 868.055 1491.15 868.415 1491.34 868.823C1491.54 869.231 1491.63 869.687 1491.63 870.215C1491.63 870.611 1491.56 870.983 1491.43 871.319C1491.28 871.655 1491.09 871.955 1490.84 872.207C1490.59 872.459 1490.29 872.651 1489.95 872.795C1489.6 872.927 1489.22 872.999 1488.79 872.999C1488.38 872.999 1488 872.927 1487.65 872.795C1487.3 872.651 1487 872.459 1486.75 872.207C1486.5 871.955 1486.29 871.655 1486.16 871.307C1486.03 870.959 1485.96 870.587 1485.96 870.179C1485.96 869.675 1486.05 869.231 1486.26 868.847C1486.45 868.463 1486.7 868.127 1487 867.815L1485.73 867.167C1485.37 867.575 1485.09 868.031 1484.89 868.523C1484.68 869.015 1484.59 869.555 1484.59 870.155C1484.59 870.755 1484.7 871.307 1484.9 871.823C1485.12 872.339 1485.42 872.783 1485.79 873.155C1486.16 873.539 1486.6 873.827 1487.12 874.043C1487.62 874.259 1488.18 874.367 1488.78 874.367C1489.39 874.367 1489.94 874.259 1490.46 874.043Z" fill="#1F1F1F"/>
<path d="M1484.6 860.945L1484.6 863.909L1493 863.909L1493 860.945C1493 860.357 1492.89 859.805 1492.68 859.289C1492.47 858.785 1492.17 858.341 1491.8 857.969C1491.43 857.597 1491 857.309 1490.48 857.105C1489.96 856.901 1489.41 856.793 1488.8 856.793C1488.19 856.793 1487.64 856.901 1487.12 857.105C1486.6 857.309 1486.16 857.597 1485.79 857.969C1485.42 858.341 1485.13 858.785 1484.91 859.289C1484.71 859.805 1484.6 860.357 1484.6 860.945ZM1488.8 858.161C1489.21 858.161 1489.58 858.233 1489.93 858.365C1490.28 858.497 1490.58 858.689 1490.83 858.941C1491.08 859.193 1491.28 859.481 1491.42 859.817C1491.56 860.165 1491.63 860.537 1491.63 860.945L1491.63 862.541L1485.97 862.541L1485.97 860.945C1485.97 860.537 1486.04 860.165 1486.17 859.817C1486.32 859.481 1486.51 859.193 1486.76 858.941C1487.01 858.689 1487.31 858.497 1487.66 858.365C1488.01 858.233 1488.39 858.161 1488.8 858.161Z" fill="#1F1F1F"/>
<path d="M1490.46 853.403C1490.96 853.187 1491.42 852.899 1491.79 852.515C1492.17 852.143 1492.47 851.699 1492.68 851.195C1492.89 850.691 1493 850.151 1493 849.563C1493 848.927 1492.9 848.351 1492.7 847.835C1492.5 847.319 1492.22 846.851 1491.85 846.443L1490.56 847.091C1490.89 847.415 1491.15 847.775 1491.34 848.183C1491.54 848.591 1491.63 849.047 1491.63 849.575C1491.63 849.971 1491.56 850.343 1491.43 850.679C1491.28 851.015 1491.09 851.315 1490.84 851.567C1490.59 851.819 1490.29 852.011 1489.95 852.155C1489.6 852.287 1489.22 852.359 1488.79 852.359C1488.38 852.359 1488 852.287 1487.65 852.155C1487.3 852.011 1487 851.819 1486.75 851.567C1486.5 851.315 1486.29 851.015 1486.16 850.667C1486.03 850.319 1485.96 849.947 1485.96 849.539C1485.96 849.035 1486.05 848.591 1486.26 848.207C1486.45 847.823 1486.7 847.487 1487 847.175L1485.73 846.527C1485.37 846.935 1485.09 847.391 1484.89 847.883C1484.68 848.375 1484.59 848.915 1484.59 849.515C1484.59 850.115 1484.7 850.667 1484.9 851.183C1485.12 851.699 1485.42 852.143 1485.79 852.515C1486.16 852.899 1486.6 853.187 1487.12 853.403C1487.62 853.619 1488.18 853.727 1488.78 853.727C1489.39 853.727 1489.94 853.619 1490.46 853.403Z" fill="#1F1F1F"/>
<path d="M1484.6 839.728L1484.6 843.268L1493 843.268L1493 839.728C1493 839.368 1492.94 839.044 1492.82 838.744C1492.71 838.444 1492.54 838.192 1492.34 837.976C1492.14 837.772 1491.88 837.604 1491.6 837.484C1491.31 837.364 1491 837.304 1490.65 837.304C1490.23 837.304 1489.87 837.4 1489.54 837.58C1489.22 837.76 1488.98 838.012 1488.8 838.336C1488.62 838.024 1488.38 837.772 1488.06 837.58C1487.73 837.4 1487.37 837.304 1486.95 837.304C1486.6 837.304 1486.29 837.364 1486 837.484C1485.72 837.604 1485.46 837.772 1485.26 837.976C1485.06 838.192 1484.89 838.444 1484.77 838.744C1484.66 839.044 1484.6 839.368 1484.6 839.728ZM1487.01 838.672C1487.34 838.672 1487.6 838.768 1487.8 838.96C1488.01 839.152 1488.12 839.404 1488.12 839.704L1488.12 841.9L1485.97 841.9L1485.97 839.74C1485.97 839.416 1486.06 839.164 1486.26 838.96C1486.45 838.768 1486.7 838.672 1487.01 838.672ZM1490.59 838.672C1490.91 838.672 1491.16 838.768 1491.34 838.96C1491.54 839.164 1491.63 839.416 1491.63 839.74L1491.63 841.9L1489.48 841.9L1489.48 839.704C1489.48 839.404 1489.58 839.152 1489.78 838.96C1489.99 838.768 1490.26 838.672 1490.59 838.672Z" fill="#1F1F1F"/>
<path d="M1490.46 833.922C1490.96 833.706 1491.42 833.418 1491.79 833.034C1492.17 832.662 1492.47 832.218 1492.68 831.714C1492.89 831.21 1493 830.67 1493 830.082C1493 829.446 1492.9 828.87 1492.7 828.354C1492.5 827.838 1492.22 827.37 1491.85 826.962L1490.56 827.61C1490.89 827.934 1491.15 828.294 1491.34 828.702C1491.54 829.11 1491.63 829.566 1491.63 830.094C1491.63 830.49 1491.56 830.862 1491.43 831.198C1491.28 831.534 1491.09 831.834 1490.84 832.086C1490.59 832.338 1490.29 832.53 1489.95 832.674C1489.6 832.806 1489.22 832.878 1488.79 832.878C1488.38 832.878 1488 832.806 1487.65 832.674C1487.3 832.53 1487 832.338 1486.75 832.086C1486.5 831.834 1486.29 831.534 1486.16 831.186C1486.03 830.838 1485.96 830.466 1485.96 830.058C1485.96 829.554 1486.05 829.11 1486.26 828.726C1486.45 828.342 1486.7 828.006 1487 827.694L1485.73 827.046C1485.37 827.454 1485.09 827.91 1484.89 828.402C1484.68 828.894 1484.59 829.434 1484.59 830.034C1484.59 830.634 1484.7 831.186 1484.9 831.702C1485.12 832.218 1485.42 832.662 1485.79 833.034C1486.16 833.418 1486.6 833.706 1487.12 833.922C1487.62 834.138 1488.18 834.246 1488.78 834.246C1489.39 834.246 1489.94 834.138 1490.46 833.922Z" fill="#1F1F1F"/>
<path d="M1486.23 824.208L1487.22 823.176C1486.84 823.032 1486.53 822.816 1486.3 822.528C1486.08 822.24 1485.97 821.916 1485.97 821.556C1485.97 821.208 1486.06 820.908 1486.26 820.668C1486.45 820.44 1486.71 820.32 1487.05 820.32C1487.37 820.32 1487.62 820.428 1487.8 820.656C1488 820.884 1488.1 821.16 1488.12 821.508L1488.12 822.072L1489.47 822.072L1489.47 821.508C1489.48 821.16 1489.58 820.884 1489.76 820.656C1489.94 820.428 1490.2 820.32 1490.54 820.32C1490.89 820.32 1491.15 820.44 1491.34 820.668C1491.54 820.896 1491.63 821.196 1491.63 821.556C1491.63 821.928 1491.51 822.264 1491.28 822.54C1491.06 822.828 1490.74 823.044 1490.35 823.176L1491.32 824.22C1491.56 824.124 1491.78 823.992 1491.98 823.824C1492.18 823.668 1492.36 823.464 1492.52 823.236C1492.68 823.008 1492.78 822.756 1492.87 822.48C1492.95 822.204 1493 821.892 1493 821.568C1493 821.184 1492.94 820.824 1492.83 820.5C1492.72 820.176 1492.57 819.9 1492.36 819.672C1492.16 819.444 1491.92 819.276 1491.62 819.144C1491.33 819.012 1491.01 818.952 1490.65 818.952C1490.19 818.952 1489.81 819.048 1489.5 819.24C1489.18 819.444 1488.94 819.684 1488.79 819.984C1488.63 819.708 1488.4 819.456 1488.09 819.252C1487.79 819.048 1487.41 818.952 1486.95 818.952C1486.6 818.952 1486.29 819.012 1486 819.144C1485.72 819.276 1485.46 819.456 1485.26 819.684C1485.06 819.912 1484.89 820.188 1484.77 820.512C1484.66 820.836 1484.6 821.196 1484.6 821.592C1484.6 821.916 1484.65 822.204 1484.73 822.48C1484.82 822.756 1484.94 823.008 1485.08 823.236C1485.24 823.464 1485.4 823.656 1485.6 823.812C1485.8 823.98 1486 824.112 1486.23 824.208Z" fill="#1F1F1F"/>
</g>
<rect width="192" height="960.037" transform="translate(1536 -0.0185547)" fill="#4E5BD7"/>
<g opacity="0.3">
<path d="M1676.6 912.061L1676.6 913.429L1680.12 913.429L1680.12 917.689L1676.6 917.689L1676.6 919.057L1685 919.057L1685 917.689L1681.48 917.689L1681.48 913.429L1685 913.429L1685 912.061L1676.6 912.061Z" fill="white"/>
<path d="M1676.6 902.918L1676.6 908.21L1685 908.21L1685 902.918L1683.63 902.918L1683.63 906.842L1681.48 906.842L1681.48 902.918L1680.12 902.918L1680.12 906.842L1677.97 906.842L1677.97 902.918L1676.6 902.918Z" fill="white"/>
<path d="M1685 900.111L1685 898.347L1681.89 895.827L1685 893.319L1685 891.555L1680.8 894.951L1676.6 891.555L1676.6 893.307L1679.71 895.827L1676.6 898.347L1676.6 900.111L1680.8 896.715L1685 900.111Z" fill="white"/>
<path d="M1679.94 879.582L1681.6 879.822L1681.6 881.238L1679.94 880.998L1679.94 879.582ZM1682.54 879.954L1685 880.302L1685 879.342L1682.54 878.982L1682.54 877.77L1681.6 877.638L1681.6 878.85L1679.94 878.61L1679.94 877.398L1678.99 877.266L1678.99 878.478L1676.6 878.13L1676.6 879.102L1678.99 879.438L1678.99 880.866L1676.6 880.518L1676.6 881.49L1678.99 881.826L1678.99 883.098L1679.94 883.242L1679.94 881.97L1681.6 882.21L1681.6 883.47L1682.54 883.602L1682.54 882.342L1685 882.69L1685 881.73L1682.54 881.37L1682.54 879.954Z" fill="white"/>
<path d="M1676.6 868.667L1676.6 869.807L1682.26 874.547L1683.48 874.547L1683.48 870.035L1685 870.035L1685 868.667L1683.48 868.667L1683.48 867.203L1682.11 867.203L1682.11 868.667L1676.6 868.667ZM1679.01 870.035L1682.11 870.035L1682.11 872.615L1679.01 870.035Z" fill="white"/>
<path d="M1676.6 858.476L1676.6 863.768L1685 863.768L1685 858.476L1683.63 858.476L1683.63 862.4L1681.48 862.4L1681.48 858.476L1680.12 858.476L1680.12 862.4L1677.97 862.4L1677.97 858.476L1676.6 858.476Z" fill="white"/>
<path d="M1676.6 849.765L1676.6 854.733L1681.06 854.733C1680.94 854.397 1680.85 854.061 1680.78 853.737C1680.72 853.413 1680.68 853.125 1680.68 852.861C1680.68 852.309 1680.81 851.877 1681.06 851.577C1681.32 851.277 1681.68 851.133 1682.14 851.133C1682.4 851.133 1682.61 851.169 1682.79 851.253C1682.98 851.337 1683.14 851.457 1683.26 851.601C1683.39 851.757 1683.48 851.925 1683.54 852.117C1683.6 852.321 1683.63 852.525 1683.63 852.741C1683.63 853.041 1683.57 853.341 1683.46 853.665C1683.36 853.989 1683.2 854.313 1682.97 854.613L1684.2 855.237C1684.45 854.925 1684.64 854.541 1684.78 854.097C1684.93 853.653 1685 853.209 1685 852.741C1685 852.345 1684.94 851.961 1684.82 851.601C1684.7 851.241 1684.52 850.929 1684.28 850.653C1684.04 850.377 1683.74 850.161 1683.38 850.005C1683.03 849.849 1682.61 849.765 1682.14 849.765C1681.71 849.765 1681.32 849.837 1680.97 849.969C1680.62 850.113 1680.33 850.305 1680.08 850.557C1679.84 850.809 1679.65 851.121 1679.52 851.481C1679.38 851.841 1679.32 852.237 1679.32 852.669C1679.32 852.825 1679.34 852.957 1679.35 853.089C1679.36 853.221 1679.38 853.317 1679.4 853.365L1677.97 853.365L1677.97 849.765L1676.6 849.765Z" fill="white"/>
<path d="M1676.6 842.646L1676.6 846.186L1685 846.186L1685 842.646C1685 842.286 1684.94 841.962 1684.82 841.662C1684.71 841.362 1684.54 841.11 1684.34 840.894C1684.14 840.69 1683.88 840.522 1683.6 840.402C1683.31 840.282 1683 840.222 1682.65 840.222C1682.23 840.222 1681.87 840.318 1681.54 840.498C1681.22 840.678 1680.98 840.93 1680.8 841.254C1680.62 840.942 1680.38 840.69 1680.06 840.498C1679.73 840.318 1679.37 840.222 1678.95 840.222C1678.6 840.222 1678.29 840.282 1678 840.402C1677.72 840.522 1677.46 840.69 1677.26 840.894C1677.06 841.11 1676.89 841.362 1676.77 841.662C1676.66 841.962 1676.6 842.286 1676.6 842.646ZM1679.01 841.59C1679.34 841.59 1679.6 841.686 1679.8 841.878C1680.01 842.07 1680.12 842.322 1680.12 842.622L1680.12 844.818L1677.97 844.818L1677.97 842.658C1677.97 842.334 1678.06 842.082 1678.26 841.878C1678.45 841.686 1678.7 841.59 1679.01 841.59ZM1682.59 841.59C1682.91 841.59 1683.16 841.686 1683.34 841.878C1683.54 842.082 1683.63 842.334 1683.63 842.658L1683.63 844.818L1681.48 844.818L1681.48 842.622C1681.48 842.322 1681.58 842.07 1681.78 841.878C1681.99 841.686 1682.26 841.59 1682.59 841.59Z" fill="white"/>
<path d="M1676.6 833.816L1676.6 836.78L1685 836.78L1685 833.816C1685 833.228 1684.89 832.676 1684.68 832.16C1684.47 831.656 1684.17 831.212 1683.8 830.84C1683.43 830.468 1683 830.18 1682.48 829.976C1681.96 829.772 1681.41 829.664 1680.8 829.664C1680.19 829.664 1679.64 829.772 1679.12 829.976C1678.6 830.18 1678.16 830.468 1677.79 830.84C1677.42 831.212 1677.13 831.656 1676.91 832.16C1676.71 832.676 1676.6 833.228 1676.6 833.816ZM1680.8 831.032C1681.21 831.032 1681.58 831.104 1681.93 831.236C1682.28 831.368 1682.58 831.56 1682.83 831.812C1683.08 832.064 1683.28 832.352 1683.42 832.688C1683.56 833.036 1683.63 833.408 1683.63 833.816L1683.63 835.412L1677.97 835.412L1677.97 833.816C1677.97 833.408 1678.04 833.036 1678.17 832.688C1678.32 832.352 1678.51 832.064 1678.76 831.812C1679.01 831.56 1679.31 831.368 1679.66 831.236C1680.01 831.104 1680.39 831.032 1680.8 831.032Z" fill="white"/>
<path d="M1676.6 821.042L1676.6 826.67L1677.97 826.67L1677.97 822.662L1685 826.31L1685 824.774L1677.81 821.042L1676.6 821.042Z" fill="white"/>
</g>
<rect width="192" height="960.037" transform="translate(1728 -0.0185547)" fill="#1E1E1E"/>
<g opacity="0.3">
<path d="M1868.6 912.061L1868.6 913.429L1872.12 913.429L1872.12 917.689L1868.6 917.689L1868.6 919.057L1877 919.057L1877 917.689L1873.48 917.689L1873.48 913.429L1877 913.429L1877 912.061L1868.6 912.061Z" fill="white"/>
<path d="M1868.6 902.918L1868.6 908.21L1877 908.21L1877 902.918L1875.63 902.918L1875.63 906.842L1873.48 906.842L1873.48 902.918L1872.12 902.918L1872.12 906.842L1869.97 906.842L1869.97 902.918L1868.6 902.918Z" fill="white"/>
<path d="M1877 900.111L1877 898.347L1873.89 895.827L1877 893.319L1877 891.555L1872.8 894.951L1868.6 891.555L1868.6 893.307L1871.71 895.827L1868.6 898.347L1868.6 900.111L1872.8 896.715L1877 900.111Z" fill="white"/>
<path d="M1871.94 879.582L1873.6 879.822L1873.6 881.238L1871.94 880.998L1871.94 879.582ZM1874.54 879.954L1877 880.302L1877 879.342L1874.54 878.982L1874.54 877.77L1873.6 877.638L1873.6 878.85L1871.94 878.61L1871.94 877.398L1870.99 877.266L1870.99 878.478L1868.6 878.13L1868.6 879.102L1870.99 879.438L1870.99 880.866L1868.6 880.518L1868.6 881.49L1870.99 881.826L1870.99 883.098L1871.94 883.242L1871.94 881.97L1873.6 882.21L1873.6 883.47L1874.54 883.602L1874.54 882.342L1877 882.69L1877 881.73L1874.54 881.37L1874.54 879.954Z" fill="white"/>
<path d="M1868.6 870.419L1868.6 871.619L1871.49 874.535L1872.46 873.587L1870.68 871.787L1877 871.787L1877 870.419L1868.6 870.419Z" fill="white"/>
<path d="M1868.6 860.961L1868.6 866.253L1877 866.253L1877 860.961L1875.63 860.961L1875.63 864.885L1873.48 864.885L1873.48 860.961L1872.12 860.961L1872.12 864.885L1869.97 864.885L1869.97 860.961L1868.6 860.961Z" fill="white"/>
<path d="M1868.6 853.81L1868.6 855.01L1871.49 857.926L1872.46 856.978L1870.68 855.178L1877 855.178L1877 853.81L1868.6 853.81Z" fill="white"/>
<path d="M1868.6 844.351L1868.6 849.643L1877 849.643L1877 844.351L1875.63 844.351L1875.63 848.275L1873.48 848.275L1873.48 844.351L1872.12 844.351L1872.12 848.275L1869.97 848.275L1869.97 844.351L1868.6 844.351Z" fill="white"/>
<path d="M1868.6 837.2L1868.6 838.4L1871.49 841.316L1872.46 840.368L1870.68 838.568L1877 838.568L1877 837.2L1868.6 837.2Z" fill="white"/>
<path d="M1868.6 827.742L1868.6 833.034L1877 833.034L1877 827.742L1875.63 827.742L1875.63 831.666L1873.48 831.666L1873.48 827.742L1872.12 827.742L1872.12 831.666L1869.97 831.666L1869.97 827.742L1868.6 827.742Z" fill="white"/>
</g>
</g>
<defs>
<clipPath id="clip0_317:107005">
<rect width="1920" height="960" fill="white"/>
</clipPath>
<clipPath id="clip1_317:107005">
<rect width="49.6833" height="39.3326" fill="white" transform="translate(502.636 365.722)"/>
</clipPath>
</defs>
</svg>
