<svg width="1920" height="1007" viewBox="0 0 1920 1007" fill="none" xmlns="http://www.w3.org/2000/svg">
<rect width="1920" height="1007" fill="#F6F6F9"/>
<path d="M292.6 397.237V410.637H241.5V339.637H292.6V353.037H256.1V367.937H291.1V381.337H256.1V397.237H292.6Z" fill="#14172E"/>
<path d="M312.374 349.037C310.774 350.637 308.708 351.437 306.174 351.437C303.641 351.437 301.574 350.637 299.974 349.037C298.374 347.437 297.574 345.403 297.574 342.937C297.574 340.47 298.374 338.437 299.974 336.837C301.574 335.17 303.641 334.337 306.174 334.337C308.708 334.337 310.774 335.17 312.374 336.837C313.974 338.437 314.774 340.47 314.774 342.937C314.774 345.403 313.974 347.437 312.374 349.037ZM299.074 410.637V358.237H313.274V410.637H299.074Z" fill="#14172E"/>
<path d="M334.42 358.237V364.637C337.154 359.57 342.354 357.037 350.02 357.037C356.22 357.037 360.987 358.937 364.32 362.737C367.654 366.47 369.32 371.537 369.32 377.937V410.637H355.12V379.537C355.12 372.67 352.154 369.237 346.22 369.237C342.82 369.237 340.187 370.27 338.32 372.337C336.454 374.337 335.52 377.103 335.52 380.637V410.637H321.32V358.237H334.42Z" fill="#14172E"/>
<path d="M408.467 387.037L395.867 389.137C390.534 390.07 387.867 392.137 387.867 395.337C387.867 399.003 390.501 400.837 395.767 400.837C399.834 400.837 402.967 399.77 405.167 397.637C407.367 395.503 408.467 392.67 408.467 389.137V387.037ZM392.567 411.837C386.701 411.837 382.167 410.37 378.967 407.437C375.767 404.503 374.167 400.603 374.167 395.737C374.167 391.137 375.801 387.47 379.067 384.737C382.401 382.003 387.534 380.103 394.467 379.037L408.467 376.937V376.437C408.467 371.303 405.334 368.737 399.067 368.737C393.201 368.737 389.967 370.87 389.367 375.137H375.367C375.834 370.003 377.967 365.703 381.767 362.237C385.567 358.77 391.301 357.037 398.967 357.037C406.567 357.037 412.301 358.737 416.167 362.137C420.034 365.537 421.967 370.337 421.967 376.537V401.237C421.967 405.17 422.467 408.303 423.467 410.637H409.767C409.701 410.637 409.634 410.403 409.567 409.937C409.501 409.47 409.401 408.77 409.267 407.837C409.201 406.837 409.167 405.837 409.167 404.837C405.901 409.503 400.367 411.837 392.567 411.837Z" fill="#14172E"/>
<path d="M751.8 410.637H720.5V339.637H750.5C758.3 339.637 764.167 341.47 768.1 345.137C772.1 348.737 774.1 353.403 774.1 359.137C774.1 362.803 773.2 366.003 771.4 368.737C769.667 371.403 767.267 373.437 764.2 374.837C767.533 376.103 770.167 378.103 772.1 380.837C774.1 383.57 775.1 386.803 775.1 390.537C775.1 396.803 773.1 401.737 769.1 405.337C765.1 408.87 759.333 410.637 751.8 410.637ZM751.4 381.337H734.7V397.537H751.4C757.4 397.537 760.4 394.837 760.4 389.437C760.4 386.97 759.633 385.003 758.1 383.537C756.633 382.07 754.4 381.337 751.4 381.337ZM750.4 352.737H734.7V368.137H750.4C753.267 368.137 755.467 367.503 757 366.237C758.6 364.903 759.4 362.97 759.4 360.437C759.4 358.17 758.633 356.337 757.1 354.937C755.633 353.47 753.4 352.737 750.4 352.737Z" fill="#BABCC9"/>
<path d="M825.104 403.937C820.037 409.203 813.404 411.837 805.204 411.837C797.004 411.837 790.371 409.203 785.304 403.937C780.237 398.603 777.704 392.103 777.704 384.437C777.704 376.77 780.237 370.303 785.304 365.037C790.371 359.703 797.004 357.037 805.204 357.037C813.404 357.037 820.037 359.703 825.104 365.037C830.171 370.303 832.704 376.77 832.704 384.437C832.704 392.103 830.171 398.603 825.104 403.937ZM795.604 373.537C793.137 376.203 791.904 379.837 791.904 384.437C791.904 389.037 793.137 392.67 795.604 395.337C798.137 398.003 801.337 399.337 805.204 399.337C809.071 399.337 812.237 398.003 814.704 395.337C817.237 392.67 818.504 389.037 818.504 384.437C818.504 379.837 817.237 376.203 814.704 373.537C812.237 370.87 809.071 369.537 805.204 369.537C801.337 369.537 798.137 370.87 795.604 373.537Z" fill="#BABCC9"/>
<path d="M851.63 410.637H837.43V335.637H851.63V410.637Z" fill="#BABCC9"/>
<path d="M895.976 363.837V335.637H910.176V410.637H897.076V404.237C893.609 409.303 888.076 411.837 880.476 411.837C873.076 411.837 867.209 409.237 862.876 404.037C858.542 398.837 856.376 392.303 856.376 384.437C856.376 376.57 858.542 370.037 862.876 364.837C867.209 359.637 873.076 357.037 880.476 357.037C883.942 357.037 887.009 357.703 889.676 359.037C892.409 360.303 894.509 361.903 895.976 363.837ZM892.776 395.137C895.176 392.337 896.376 388.77 896.376 384.437C896.376 380.103 895.176 376.537 892.776 373.737C890.442 370.937 887.342 369.537 883.476 369.537C879.609 369.537 876.476 370.937 874.076 373.737C871.742 376.537 870.576 380.103 870.576 384.437C870.576 388.77 871.742 392.337 874.076 395.137C876.476 397.937 879.609 399.337 883.476 399.337C887.342 399.337 890.442 397.937 892.776 395.137Z" fill="#BABCC9"/>
<path d="M1405.48 409.637H1400.89L1408.9 388.337H1413.52L1421.53 409.637H1416.82L1415.53 405.977H1406.77L1405.48 409.637ZM1411.18 393.737H1411.12L1408.18 402.047H1414.12L1411.18 393.737Z" fill="#BABCC9"/>
<path d="M1432.88 402.557L1429.1 403.187C1427.5 403.467 1426.7 404.087 1426.7 405.047C1426.7 406.147 1427.49 406.697 1429.07 406.697C1430.29 406.697 1431.23 406.377 1431.89 405.737C1432.55 405.097 1432.88 404.247 1432.88 403.187V402.557ZM1428.11 409.997C1426.35 409.997 1424.99 409.557 1424.03 408.677C1423.07 407.797 1422.59 406.627 1422.59 405.167C1422.59 403.787 1423.08 402.687 1424.06 401.867C1425.06 401.047 1426.6 400.477 1428.68 400.157L1432.88 399.527V399.377C1432.88 397.837 1431.94 397.067 1430.06 397.067C1428.3 397.067 1427.33 397.707 1427.15 398.987H1422.95C1423.09 397.447 1423.73 396.157 1424.87 395.117C1426.01 394.077 1427.73 393.557 1430.03 393.557C1432.31 393.557 1434.03 394.067 1435.19 395.087C1436.35 396.107 1436.93 397.547 1436.93 399.407V406.817C1436.93 407.997 1437.08 408.937 1437.38 409.637H1433.27C1433.25 409.637 1433.23 409.567 1433.21 409.427C1433.19 409.287 1433.16 409.077 1433.12 408.797C1433.1 408.497 1433.09 408.197 1433.09 407.897C1432.11 409.297 1430.45 409.997 1428.11 409.997Z" fill="#BABCC9"/>
<path d="M1450.44 409.637H1441.05V388.337H1450.05C1452.39 388.337 1454.15 388.887 1455.33 389.987C1456.53 391.067 1457.13 392.467 1457.13 394.187C1457.13 395.287 1456.86 396.247 1456.32 397.067C1455.8 397.867 1455.08 398.477 1454.16 398.897C1455.16 399.277 1455.95 399.877 1456.53 400.697C1457.13 401.517 1457.43 402.487 1457.43 403.607C1457.43 405.487 1456.83 406.967 1455.63 408.047C1454.43 409.107 1452.7 409.637 1450.44 409.637ZM1450.32 400.847H1445.31V405.707H1450.32C1452.12 405.707 1453.02 404.897 1453.02 403.277C1453.02 402.537 1452.79 401.947 1452.33 401.507C1451.89 401.067 1451.22 400.847 1450.32 400.847ZM1450.02 392.267H1445.31V396.887H1450.02C1450.88 396.887 1451.54 396.697 1452 396.317C1452.48 395.917 1452.72 395.337 1452.72 394.577C1452.72 393.897 1452.49 393.347 1452.03 392.927C1451.59 392.487 1450.92 392.267 1450.02 392.267Z" fill="#BABCC9"/>
<path d="M1464.96 395.597C1465.4 395.017 1466.02 394.537 1466.82 394.157C1467.64 393.757 1468.57 393.557 1469.61 393.557C1471.83 393.557 1473.59 394.337 1474.89 395.897C1476.19 397.457 1476.84 399.417 1476.84 401.777C1476.84 404.137 1476.19 406.097 1474.89 407.657C1473.59 409.217 1471.83 409.997 1469.61 409.997C1467.33 409.997 1465.67 409.237 1464.63 407.717V409.637H1460.7V387.137H1464.96V395.597ZM1465.89 398.567C1465.19 399.407 1464.84 400.477 1464.84 401.777C1464.84 403.077 1465.19 404.147 1465.89 404.987C1466.61 405.827 1467.55 406.247 1468.71 406.247C1469.87 406.247 1470.8 405.827 1471.5 404.987C1472.22 404.147 1472.58 403.077 1472.58 401.777C1472.58 400.477 1472.22 399.407 1471.5 398.567C1470.8 397.727 1469.87 397.307 1468.71 397.307C1467.55 397.307 1466.61 397.727 1465.89 398.567Z" fill="#BABCC9"/>
<path d="M1482.08 406.967C1480.06 404.927 1479.05 402.257 1479.05 398.957C1479.05 395.657 1480.06 392.987 1482.08 390.947C1484.1 388.907 1486.66 387.887 1489.76 387.887C1492.46 387.887 1494.75 388.637 1496.63 390.137C1498.53 391.637 1499.68 393.667 1500.08 396.227H1495.4C1495.08 394.907 1494.42 393.887 1493.42 393.167C1492.42 392.427 1491.2 392.057 1489.76 392.057C1487.84 392.057 1486.34 392.677 1485.26 393.917C1484.2 395.157 1483.67 396.837 1483.67 398.957C1483.67 401.077 1484.2 402.757 1485.26 403.997C1486.34 405.237 1487.84 405.857 1489.76 405.857C1491.2 405.857 1492.42 405.497 1493.42 404.777C1494.42 404.037 1495.08 403.007 1495.4 401.687H1500.08C1499.68 404.247 1498.53 406.277 1496.63 407.777C1494.75 409.277 1492.46 410.027 1489.76 410.027C1486.66 410.027 1484.1 409.007 1482.08 406.967Z" fill="#BABCC9"/>
<path d="M1504.32 407.657C1502.84 406.077 1502.1 404.117 1502.1 401.777C1502.1 399.437 1502.84 397.487 1504.32 395.927C1505.82 394.347 1507.71 393.557 1509.99 393.557C1512.23 393.557 1513.99 394.187 1515.27 395.447C1516.57 396.707 1517.31 398.117 1517.49 399.677H1513.11C1512.95 398.997 1512.58 398.437 1512 397.997C1511.42 397.557 1510.74 397.337 1509.96 397.337C1508.84 397.337 1507.96 397.747 1507.32 398.567C1506.68 399.367 1506.36 400.437 1506.36 401.777C1506.36 403.117 1506.68 404.197 1507.32 405.017C1507.96 405.817 1508.84 406.217 1509.96 406.217C1510.74 406.217 1511.42 405.997 1512 405.557C1512.58 405.117 1512.95 404.557 1513.11 403.877H1517.49C1517.31 405.437 1516.57 406.847 1515.27 408.107C1513.99 409.367 1512.23 409.997 1509.99 409.997C1507.71 409.997 1505.82 409.217 1504.32 407.657Z" fill="#BABCC9"/>
<path d="M1556.02 399.767V403.787H1526.02V399.767H1556.02Z" fill="#BABCC9"/>
<path d="M1579.8 406.037V409.637H1566.36V406.037H1570.89V392.657H1566.45V389.807L1571.73 388.337H1575.27V406.037H1579.8Z" fill="#BABCC9"/>
<path d="M1597.47 409.637H1582.8V406.037L1591.14 397.937C1592.2 396.937 1592.73 395.807 1592.73 394.547C1592.73 393.767 1592.46 393.137 1591.92 392.657C1591.38 392.157 1590.69 391.907 1589.85 391.907C1588.91 391.907 1588.19 392.187 1587.69 392.747C1587.21 393.287 1586.97 393.987 1586.97 394.847L1587.06 396.017H1582.74C1582.68 395.677 1582.65 395.267 1582.65 394.787C1582.65 392.727 1583.31 391.067 1584.63 389.807C1585.97 388.527 1587.71 387.887 1589.85 387.887C1592.05 387.887 1593.81 388.497 1595.13 389.717C1596.45 390.937 1597.11 392.517 1597.11 394.457C1597.11 395.857 1596.85 397.067 1596.33 398.087C1595.81 399.107 1594.9 400.197 1593.6 401.357L1588.77 405.617H1597.47V409.637Z" fill="#BABCC9"/>
<path d="M1605.45 400.547V396.917H1607.43C1608.45 396.917 1609.22 396.697 1609.74 396.257C1610.26 395.797 1610.52 395.187 1610.52 394.427C1610.52 393.667 1610.27 393.047 1609.77 392.567C1609.29 392.067 1608.58 391.817 1607.64 391.817C1606.64 391.817 1605.89 392.117 1605.39 392.717C1604.89 393.297 1604.64 393.997 1604.64 394.817H1600.38C1600.38 392.857 1601.05 391.217 1602.39 389.897C1603.75 388.557 1605.5 387.887 1607.64 387.887C1609.82 387.887 1611.55 388.467 1612.83 389.627C1614.11 390.767 1614.75 392.277 1614.75 394.157C1614.75 396.297 1613.79 397.787 1611.87 398.627C1613.95 399.427 1614.99 401.007 1614.99 403.367C1614.99 405.267 1614.28 406.867 1612.86 408.167C1611.46 409.447 1609.66 410.087 1607.46 410.087C1605.28 410.087 1603.5 409.457 1602.12 408.197C1600.74 406.937 1600.01 405.257 1599.93 403.157H1604.19C1604.23 404.057 1604.53 404.787 1605.09 405.347C1605.65 405.887 1606.44 406.157 1607.46 406.157C1608.42 406.157 1609.19 405.897 1609.77 405.377C1610.35 404.857 1610.64 404.187 1610.64 403.367C1610.64 402.507 1610.37 401.827 1609.83 401.327C1609.31 400.807 1608.49 400.547 1607.37 400.547H1605.45Z" fill="#BABCC9"/>
<path d="M1632.69 401.477V405.287H1630.65V409.637H1626.63V405.287H1616.67V402.047L1626.06 388.337H1630.65V401.477H1632.69ZM1626.63 394.037H1626.6L1621.5 401.477H1626.63V394.037Z" fill="#BABCC9"/>
<path d="M1643.76 413.387H1641.6V410.057C1639.36 409.937 1637.64 409.207 1636.44 407.867C1635.24 406.527 1634.64 404.877 1634.64 402.917H1638.96C1638.98 403.717 1639.21 404.407 1639.65 404.987C1640.11 405.547 1640.76 405.907 1641.6 406.067V400.727L1640.01 400.277C1638.43 399.837 1637.23 399.087 1636.41 398.027C1635.61 396.947 1635.21 395.657 1635.21 394.157C1635.21 392.477 1635.81 391.067 1637.01 389.927C1638.21 388.787 1639.74 388.127 1641.6 387.947V384.587H1643.76V387.947C1645.74 388.187 1647.29 388.947 1648.41 390.227C1649.53 391.507 1650.09 393.097 1650.09 394.997H1645.77C1645.73 393.457 1645.06 392.467 1643.76 392.027V396.887L1644.6 397.097C1648.26 398.097 1650.09 400.307 1650.09 403.727C1650.09 405.387 1649.52 406.787 1648.38 407.927C1647.24 409.047 1645.7 409.737 1643.76 409.997V413.387ZM1639.56 394.007C1639.56 394.207 1639.57 394.387 1639.59 394.547C1639.61 394.707 1639.66 394.857 1639.74 394.997C1639.84 395.137 1639.91 395.247 1639.95 395.327C1640.01 395.407 1640.12 395.497 1640.28 395.597C1640.44 395.697 1640.55 395.767 1640.61 395.807C1640.69 395.847 1640.85 395.927 1641.09 396.047C1641.35 396.167 1641.52 396.247 1641.6 396.287V391.907C1641 392.007 1640.51 392.247 1640.13 392.627C1639.75 393.007 1639.56 393.467 1639.56 394.007ZM1645.65 403.727C1645.65 402.607 1645.02 401.807 1643.76 401.327V406.007C1645.02 405.667 1645.65 404.907 1645.65 403.727Z" fill="#BABCC9"/>
<path d="M1658.13 409.637L1669.89 388.337H1672.98L1661.22 409.637H1658.13ZM1657.08 392.027C1656.82 392.567 1656.69 393.547 1656.69 394.967C1656.69 396.387 1656.82 397.367 1657.08 397.907C1657.36 398.427 1657.79 398.687 1658.37 398.687C1658.95 398.687 1659.37 398.427 1659.63 397.907C1659.91 397.367 1660.05 396.387 1660.05 394.967C1660.05 393.547 1659.91 392.567 1659.63 392.027C1659.37 391.487 1658.95 391.217 1658.37 391.217C1657.79 391.217 1657.36 391.487 1657.08 392.027ZM1654.59 399.947C1653.79 398.727 1653.39 397.067 1653.39 394.967C1653.39 392.867 1653.79 391.207 1654.59 389.987C1655.41 388.767 1656.67 388.157 1658.37 388.157C1660.07 388.157 1661.32 388.767 1662.12 389.987C1662.94 391.207 1663.35 392.867 1663.35 394.967C1663.35 397.067 1662.94 398.727 1662.12 399.947C1661.32 401.147 1660.07 401.747 1658.37 401.747C1656.67 401.747 1655.41 401.147 1654.59 399.947ZM1671.45 400.097C1671.19 400.637 1671.06 401.617 1671.06 403.037C1671.06 404.457 1671.19 405.437 1671.45 405.977C1671.73 406.497 1672.16 406.757 1672.74 406.757C1673.32 406.757 1673.74 406.497 1674 405.977C1674.28 405.437 1674.42 404.457 1674.42 403.037C1674.42 401.617 1674.28 400.637 1674 400.097C1673.74 399.557 1673.32 399.287 1672.74 399.287C1672.16 399.287 1671.73 399.557 1671.45 400.097ZM1668.96 408.017C1668.16 406.797 1667.76 405.137 1667.76 403.037C1667.76 400.937 1668.16 399.277 1668.96 398.057C1669.78 396.837 1671.04 396.227 1672.74 396.227C1674.44 396.227 1675.69 396.837 1676.49 398.057C1677.31 399.277 1677.72 400.937 1677.72 403.037C1677.72 405.137 1677.31 406.797 1676.49 408.017C1675.69 409.217 1674.44 409.817 1672.74 409.817C1671.04 409.817 1669.78 409.217 1668.96 408.017Z" fill="#BABCC9"/>
<path d="M1404.93 599.637H1401.09L1409.34 578.337H1413.21L1421.49 599.637H1417.53L1416 595.527H1406.46L1404.93 599.637ZM1411.26 582.837H1411.2L1407.66 592.227H1414.8L1411.26 582.837Z" fill="#BABCC9"/>
<path d="M1433.24 592.317L1429.1 592.947C1427.16 593.247 1426.19 593.987 1426.19 595.167C1426.19 596.527 1427.11 597.207 1428.95 597.207C1430.33 597.207 1431.39 596.837 1432.13 596.097C1432.87 595.357 1433.24 594.427 1433.24 593.307V592.317ZM1428.23 599.997C1426.39 599.997 1425.02 599.567 1424.12 598.707C1423.22 597.847 1422.77 596.707 1422.77 595.287C1422.77 592.567 1424.76 590.927 1428.74 590.367L1433.24 589.737V589.497C1433.24 587.597 1432.13 586.647 1429.91 586.647C1427.97 586.647 1426.87 587.417 1426.61 588.957H1423.13C1423.29 587.437 1423.92 586.187 1425.02 585.207C1426.14 584.207 1427.8 583.707 1430 583.707C1432.22 583.707 1433.89 584.217 1435.01 585.237C1436.15 586.257 1436.72 587.687 1436.72 589.527V596.697C1436.72 597.957 1436.87 598.937 1437.17 599.637H1433.78C1433.76 599.637 1433.73 599.567 1433.69 599.427C1433.67 599.267 1433.64 599.017 1433.6 598.677C1433.58 598.337 1433.57 597.977 1433.57 597.597C1432.51 599.197 1430.73 599.997 1428.23 599.997Z" fill="#BABCC9"/>
<path d="M1450.26 599.637H1441.32V578.337H1449.93C1452.27 578.337 1454.03 578.867 1455.21 579.927C1456.39 580.987 1456.98 582.387 1456.98 584.127C1456.98 585.247 1456.7 586.217 1456.14 587.037C1455.6 587.857 1454.85 588.467 1453.89 588.867C1454.95 589.227 1455.79 589.837 1456.41 590.697C1457.03 591.537 1457.34 592.527 1457.34 593.667C1457.34 595.547 1456.73 597.017 1455.51 598.077C1454.29 599.117 1452.54 599.637 1450.26 599.637ZM1450.23 590.517H1444.89V596.337H1450.2C1452.52 596.337 1453.68 595.367 1453.68 593.427C1453.68 592.507 1453.38 591.797 1452.78 591.297C1452.18 590.777 1451.33 590.517 1450.23 590.517ZM1449.96 581.637H1444.89V587.187H1449.96C1452.2 587.187 1453.32 586.267 1453.32 584.427C1453.32 583.547 1453.04 582.867 1452.48 582.387C1451.92 581.887 1451.08 581.637 1449.96 581.637Z" fill="#BABCC9"/>
<path d="M1464.57 586.107C1465.63 584.507 1467.29 583.707 1469.55 583.707C1471.79 583.707 1473.55 584.487 1474.83 586.047C1476.13 587.607 1476.78 589.547 1476.78 591.867C1476.78 594.187 1476.13 596.127 1474.83 597.687C1473.55 599.227 1471.79 599.997 1469.55 599.997C1467.13 599.997 1465.38 599.137 1464.3 597.417V599.637H1461V577.137H1464.57V586.107ZM1464.45 591.867C1464.45 593.307 1464.84 594.497 1465.62 595.437C1466.42 596.377 1467.49 596.847 1468.83 596.847C1470.15 596.847 1471.21 596.377 1472.01 595.437C1472.81 594.477 1473.21 593.287 1473.21 591.867C1473.21 590.407 1472.81 589.207 1472.01 588.267C1471.21 587.327 1470.15 586.857 1468.83 586.857C1467.49 586.857 1466.42 587.327 1465.62 588.267C1464.84 589.207 1464.45 590.407 1464.45 591.867Z" fill="#BABCC9"/>
<path d="M1479.26 588.957C1479.26 585.697 1480.25 583.037 1482.23 580.977C1484.23 578.917 1486.79 577.887 1489.91 577.887C1492.57 577.887 1494.83 578.627 1496.69 580.107C1498.55 581.587 1499.7 583.587 1500.14 586.107H1496.27C1495.91 584.627 1495.16 583.467 1494.02 582.627C1492.9 581.787 1491.53 581.367 1489.91 581.367C1487.79 581.367 1486.12 582.057 1484.9 583.437C1483.7 584.797 1483.1 586.637 1483.1 588.957C1483.1 591.277 1483.7 593.127 1484.9 594.507C1486.12 595.887 1487.79 596.577 1489.91 596.577C1491.53 596.577 1492.9 596.157 1494.02 595.317C1495.16 594.477 1495.91 593.317 1496.27 591.837H1500.14C1499.7 594.357 1498.55 596.357 1496.69 597.837C1494.83 599.317 1492.57 600.057 1489.91 600.057C1486.79 600.057 1484.23 599.027 1482.23 596.967C1480.25 594.907 1479.26 592.237 1479.26 588.957Z" fill="#BABCC9"/>
<path d="M1502.43 591.867C1502.43 589.567 1503.16 587.637 1504.62 586.077C1506.08 584.497 1507.94 583.707 1510.2 583.707C1512.34 583.707 1514.04 584.317 1515.3 585.537C1516.58 586.737 1517.34 588.127 1517.58 589.707H1513.92C1513.7 588.847 1513.25 588.157 1512.57 587.637C1511.91 587.117 1511.11 586.857 1510.17 586.857C1508.91 586.857 1507.9 587.327 1507.14 588.267C1506.38 589.187 1506 590.387 1506 591.867C1506 593.347 1506.38 594.547 1507.14 595.467C1507.9 596.387 1508.91 596.847 1510.17 596.847C1511.11 596.847 1511.91 596.587 1512.57 596.067C1513.25 595.547 1513.7 594.857 1513.92 593.997H1517.58C1517.34 595.577 1516.58 596.977 1515.3 598.197C1514.04 599.397 1512.34 599.997 1510.2 599.997C1507.94 599.997 1506.08 599.217 1504.62 597.657C1503.16 596.077 1502.43 594.147 1502.43 591.867Z" fill="#BABCC9"/>
<path d="M1556.25 590.187V593.517H1526.25V590.187H1556.25Z" fill="#BABCC9"/>
<path d="M1579.82 596.607V599.637H1566.8V596.607H1571.48V581.937H1566.92V579.537L1572.2 578.337H1575.14V596.607H1579.82Z" fill="#BABCC9"/>
<path d="M1597.55 599.637H1583.06V596.607L1591.46 588.597C1592.8 587.337 1593.47 585.987 1593.47 584.547C1593.47 583.547 1593.16 582.747 1592.54 582.147C1591.92 581.547 1591.09 581.247 1590.05 581.247C1588.91 581.247 1588.05 581.577 1587.47 582.237C1586.89 582.897 1586.6 583.767 1586.6 584.847L1586.69 585.837H1583.06C1583.02 585.537 1583 585.187 1583 584.787C1583 582.727 1583.64 581.067 1584.92 579.807C1586.22 578.527 1587.93 577.887 1590.05 577.887C1592.25 577.887 1593.98 578.497 1595.24 579.717C1596.52 580.937 1597.16 582.517 1597.16 584.457C1597.16 585.837 1596.88 587.057 1596.32 588.117C1595.78 589.177 1594.85 590.287 1593.53 591.447L1588.07 596.277H1597.55V599.637Z" fill="#BABCC9"/>
<path d="M1605.62 590.277V587.187H1607.54C1608.76 587.187 1609.68 586.917 1610.3 586.377C1610.94 585.837 1611.26 585.137 1611.26 584.277C1611.26 583.357 1610.96 582.617 1610.36 582.057C1609.76 581.477 1608.9 581.187 1607.78 581.187C1606.66 581.187 1605.81 581.517 1605.23 582.177C1604.65 582.817 1604.34 583.597 1604.3 584.517H1600.73C1600.77 582.637 1601.44 581.067 1602.74 579.807C1604.04 578.527 1605.73 577.887 1607.81 577.887C1609.97 577.887 1611.67 578.457 1612.91 579.597C1614.17 580.717 1614.8 582.207 1614.8 584.067C1614.8 586.307 1613.77 587.827 1611.71 588.627C1613.95 589.427 1615.07 591.037 1615.07 593.457C1615.07 595.357 1614.39 596.937 1613.03 598.197C1611.67 599.457 1609.89 600.087 1607.69 600.087C1605.53 600.087 1603.78 599.477 1602.44 598.257C1601.1 597.017 1600.38 595.367 1600.28 593.307H1603.88C1603.96 594.347 1604.32 595.197 1604.96 595.857C1605.62 596.497 1606.53 596.817 1607.69 596.817C1608.83 596.817 1609.74 596.517 1610.42 595.917C1611.1 595.297 1611.44 594.477 1611.44 593.457C1611.44 592.457 1611.11 591.677 1610.45 591.117C1609.79 590.557 1608.83 590.277 1607.57 590.277H1605.62Z" fill="#BABCC9"/>
<path d="M1632.87 591.807V594.987H1630.59V599.637H1627.2V594.987H1617V592.257L1626.81 578.337H1630.59V591.807H1632.87ZM1627.2 583.227H1627.17L1621.08 591.807H1627.2V583.227Z" fill="#BABCC9"/>
<path d="M1643.91 603.387H1641.96V600.057C1639.7 599.937 1637.97 599.237 1636.77 597.957C1635.59 596.657 1634.98 595.057 1634.94 593.157H1638.54C1638.62 594.137 1638.94 594.947 1639.5 595.587C1640.08 596.207 1640.9 596.587 1641.96 596.727V590.397L1640.67 590.007C1637.29 588.987 1635.6 586.977 1635.6 583.977C1635.6 582.357 1636.18 580.987 1637.34 579.867C1638.52 578.747 1640.06 578.107 1641.96 577.947V574.587H1643.91V577.947C1645.91 578.147 1647.46 578.877 1648.56 580.137C1649.66 581.377 1650.23 582.927 1650.27 584.787H1646.64C1646.6 583.947 1646.35 583.217 1645.89 582.597C1645.43 581.957 1644.77 581.537 1643.91 581.337V587.217L1644.6 587.397C1646.56 587.937 1647.99 588.737 1648.89 589.797C1649.81 590.857 1650.27 592.207 1650.27 593.847C1650.27 595.487 1649.7 596.867 1648.56 597.987C1647.44 599.107 1645.89 599.777 1643.91 599.997V603.387ZM1639.23 583.857C1639.23 584.617 1639.42 585.177 1639.8 585.537C1640.2 585.897 1640.92 586.277 1641.96 586.677V581.247C1641.12 581.347 1640.45 581.627 1639.95 582.087C1639.47 582.547 1639.23 583.137 1639.23 583.857ZM1646.58 593.877C1646.58 593.157 1646.37 592.567 1645.95 592.107C1645.55 591.627 1644.87 591.237 1643.91 590.937V596.667C1644.73 596.527 1645.38 596.217 1645.86 595.737C1646.34 595.257 1646.58 594.637 1646.58 593.877Z" fill="#BABCC9"/>
<path d="M1658.46 599.637L1670.22 578.337H1672.89L1661.13 599.637H1658.46ZM1656.45 584.967C1656.45 586.467 1656.62 587.537 1656.96 588.177C1657.3 588.797 1657.81 589.107 1658.49 589.107C1659.17 589.107 1659.68 588.797 1660.02 588.177C1660.36 587.537 1660.53 586.467 1660.53 584.967C1660.53 583.447 1660.36 582.367 1660.02 581.727C1659.68 581.087 1659.17 580.767 1658.49 580.767C1657.81 580.767 1657.3 581.087 1656.96 581.727C1656.62 582.367 1656.45 583.447 1656.45 584.967ZM1653.63 584.967C1653.63 582.847 1654.03 581.187 1654.83 579.987C1655.63 578.767 1656.85 578.157 1658.49 578.157C1660.13 578.157 1661.35 578.767 1662.15 579.987C1662.95 581.187 1663.35 582.847 1663.35 584.967C1663.35 587.067 1662.95 588.717 1662.15 589.917C1661.35 591.117 1660.13 591.717 1658.49 591.717C1656.85 591.717 1655.63 591.117 1654.83 589.917C1654.03 588.717 1653.63 587.067 1653.63 584.967ZM1670.82 593.037C1670.82 594.557 1670.99 595.637 1671.33 596.277C1671.67 596.897 1672.18 597.207 1672.86 597.207C1673.54 597.207 1674.05 596.897 1674.39 596.277C1674.73 595.637 1674.9 594.557 1674.9 593.037C1674.9 591.537 1674.73 590.467 1674.39 589.827C1674.05 589.187 1673.54 588.867 1672.86 588.867C1672.18 588.867 1671.67 589.187 1671.33 589.827C1670.99 590.467 1670.82 591.537 1670.82 593.037ZM1668 593.037C1668 590.937 1668.4 589.287 1669.2 588.087C1670 586.867 1671.22 586.257 1672.86 586.257C1674.5 586.257 1675.72 586.867 1676.52 588.087C1677.32 589.287 1677.72 590.937 1677.72 593.037C1677.72 595.157 1677.32 596.817 1676.52 598.017C1675.72 599.217 1674.5 599.817 1672.86 599.817C1671.22 599.817 1670 599.217 1669.2 598.017C1668.4 596.817 1668 595.157 1668 593.037Z" fill="#BABCC9"/>
<path d="M1403.82 787.637H1401.48L1410.24 766.337H1412.61L1421.4 787.637H1418.97L1416.96 782.657H1405.86L1403.82 787.637ZM1411.44 769.007H1411.38L1406.64 780.617H1416.15L1411.44 769.007Z" fill="#BABCC9"/>
<path d="M1434.17 779.807L1429.1 780.497C1427.7 780.677 1426.69 781.017 1426.07 781.517C1425.47 781.997 1425.17 782.637 1425.17 783.437C1425.17 784.437 1425.51 785.157 1426.19 785.597C1426.87 786.017 1427.71 786.227 1428.71 786.227C1430.41 786.227 1431.74 785.757 1432.7 784.817C1433.68 783.857 1434.17 782.777 1434.17 781.577V779.807ZM1428.47 787.997C1426.69 787.997 1425.34 787.597 1424.42 786.797C1423.52 785.977 1423.07 784.857 1423.07 783.437C1423.07 780.857 1424.99 779.317 1428.83 778.817L1434.17 778.127V777.707C1434.17 775.127 1432.73 773.837 1429.85 773.837C1427.41 773.837 1425.99 774.847 1425.59 776.867H1423.46C1423.68 775.387 1424.31 774.207 1425.35 773.327C1426.41 772.447 1427.94 772.007 1429.94 772.007C1432.06 772.007 1433.65 772.527 1434.71 773.567C1435.77 774.587 1436.3 775.977 1436.3 777.737V784.427C1436.3 785.927 1436.45 786.997 1436.75 787.637H1434.65C1434.43 787.037 1434.32 786.167 1434.32 785.027C1433.16 787.007 1431.21 787.997 1428.47 787.997Z" fill="#BABCC9"/>
<path d="M1449.93 787.637H1441.83V766.337H1449.72C1452.06 766.337 1453.81 766.847 1454.97 767.867C1456.13 768.887 1456.71 770.267 1456.71 772.007C1456.71 773.147 1456.41 774.147 1455.81 775.007C1455.23 775.867 1454.42 776.477 1453.38 776.837C1454.56 777.177 1455.49 777.787 1456.17 778.667C1456.85 779.547 1457.19 780.597 1457.19 781.817C1457.19 783.697 1456.56 785.137 1455.3 786.137C1454.04 787.137 1452.25 787.637 1449.93 787.637ZM1450.02 777.857H1444.02V785.597H1449.99C1453.33 785.597 1455 784.307 1455 781.727C1455 780.447 1454.56 779.487 1453.68 778.847C1452.8 778.187 1451.58 777.857 1450.02 777.857ZM1449.81 768.377H1444.02V775.817H1449.81C1452.95 775.817 1454.52 774.577 1454.52 772.097C1454.52 769.617 1452.95 768.377 1449.81 768.377Z" fill="#BABCC9"/>
<path d="M1463.75 775.127C1464.91 773.047 1466.81 772.007 1469.45 772.007C1471.71 772.007 1473.48 772.787 1474.76 774.347C1476.04 775.887 1476.68 777.777 1476.68 780.017C1476.68 782.237 1476.04 784.127 1474.76 785.687C1473.48 787.227 1471.71 787.997 1469.45 787.997C1466.77 787.997 1464.84 786.937 1463.66 784.817V787.637H1461.62V765.137H1463.75V775.127ZM1463.69 780.017C1463.69 781.737 1464.17 783.177 1465.13 784.337C1466.09 785.497 1467.4 786.077 1469.06 786.077C1470.72 786.077 1472.04 785.497 1473.02 784.337C1474.02 783.177 1474.52 781.737 1474.52 780.017C1474.52 778.277 1474.02 776.827 1473.02 775.667C1472.04 774.507 1470.72 773.927 1469.06 773.927C1467.4 773.927 1466.09 774.507 1465.13 775.667C1464.17 776.807 1463.69 778.257 1463.69 780.017Z" fill="#BABCC9"/>
<path d="M1482.58 784.967C1480.66 782.867 1479.7 780.207 1479.7 776.987C1479.7 773.767 1480.66 771.117 1482.58 769.037C1484.52 766.937 1487.07 765.887 1490.23 765.887C1492.83 765.887 1495.03 766.607 1496.83 768.047C1498.63 769.487 1499.78 771.417 1500.28 773.837H1497.97C1497.55 772.037 1496.64 770.607 1495.24 769.547C1493.84 768.487 1492.17 767.957 1490.23 767.957C1487.75 767.957 1485.75 768.787 1484.23 770.447C1482.73 772.107 1481.98 774.287 1481.98 776.987C1481.98 779.687 1482.73 781.867 1484.23 783.527C1485.75 785.187 1487.75 786.017 1490.23 786.017C1492.17 786.017 1493.84 785.487 1495.24 784.427C1496.64 783.367 1497.55 781.937 1497.97 780.137H1500.28C1499.78 782.557 1498.63 784.487 1496.83 785.927C1495.03 787.367 1492.83 788.087 1490.23 788.087C1487.07 788.087 1484.52 787.047 1482.58 784.967Z" fill="#BABCC9"/>
<path d="M1505.12 785.657C1503.74 784.077 1503.05 782.197 1503.05 780.017C1503.05 777.837 1503.74 775.957 1505.12 774.377C1506.52 772.797 1508.34 772.007 1510.58 772.007C1512.54 772.007 1514.14 772.567 1515.38 773.687C1516.62 774.787 1517.4 776.157 1517.72 777.797H1515.56C1515.24 776.597 1514.65 775.657 1513.79 774.977C1512.93 774.277 1511.86 773.927 1510.58 773.927C1508.98 773.927 1507.68 774.497 1506.68 775.637C1505.7 776.777 1505.21 778.237 1505.21 780.017C1505.21 781.777 1505.7 783.227 1506.68 784.367C1507.68 785.507 1508.98 786.077 1510.58 786.077C1511.86 786.077 1512.93 785.737 1513.79 785.057C1514.65 784.357 1515.24 783.407 1515.56 782.207H1517.72C1517.4 783.847 1516.62 785.227 1515.38 786.347C1514.14 787.447 1512.54 787.997 1510.58 787.997C1508.34 787.997 1506.52 787.217 1505.12 785.657Z" fill="#BABCC9"/>
<path d="M1556.69 778.997V781.007H1526.69V778.997H1556.69Z" fill="#BABCC9"/>
<path d="M1579.87 785.717V787.637H1567.63V785.717H1572.67V768.467H1567.87V766.967L1573.15 766.337H1574.86V785.717H1579.87Z" fill="#BABCC9"/>
<path d="M1597.72 787.637H1583.59V785.777L1592.11 777.947C1594.01 776.207 1594.96 774.407 1594.96 772.547C1594.96 771.127 1594.56 769.997 1593.76 769.157C1592.96 768.317 1591.84 767.897 1590.4 767.897C1588.88 767.897 1587.74 768.347 1586.98 769.247C1586.24 770.147 1585.87 771.347 1585.87 772.847L1585.93 773.447H1583.71C1583.67 773.227 1583.65 773.007 1583.65 772.787C1583.65 770.707 1584.25 769.037 1585.45 767.777C1586.65 766.517 1588.3 765.887 1590.4 765.887C1592.58 765.887 1594.26 766.497 1595.44 767.717C1596.62 768.917 1597.21 770.497 1597.21 772.457C1597.21 773.817 1596.9 775.057 1596.28 776.177C1595.68 777.297 1594.71 778.447 1593.37 779.627L1586.68 785.567H1597.72V787.637Z" fill="#BABCC9"/>
<path d="M1605.97 777.707V775.757H1607.77C1609.37 775.757 1610.59 775.397 1611.43 774.677C1612.29 773.957 1612.72 773.047 1612.72 771.947C1612.72 770.687 1612.32 769.697 1611.52 768.977C1610.74 768.257 1609.59 767.897 1608.07 767.897C1606.69 767.897 1605.63 768.287 1604.89 769.067C1604.15 769.827 1603.73 770.767 1603.63 771.887H1601.44C1601.56 770.187 1602.22 768.767 1603.42 767.627C1604.64 766.467 1606.2 765.887 1608.1 765.887C1610.22 765.887 1611.88 766.437 1613.08 767.537C1614.3 768.637 1614.91 770.077 1614.91 771.857C1614.91 772.937 1614.61 773.907 1614.01 774.767C1613.43 775.627 1612.56 776.257 1611.4 776.657C1612.7 777.037 1613.66 777.667 1614.28 778.547C1614.92 779.427 1615.24 780.467 1615.24 781.667C1615.24 783.567 1614.61 785.117 1613.35 786.317C1612.09 787.497 1610.36 788.087 1608.16 788.087C1606.02 788.087 1604.33 787.497 1603.09 786.317C1601.87 785.137 1601.17 783.567 1600.99 781.607H1603.21C1603.35 782.927 1603.84 784.007 1604.68 784.847C1605.52 785.687 1606.68 786.107 1608.16 786.107C1609.64 786.107 1610.81 785.727 1611.67 784.967C1612.55 784.207 1612.99 783.107 1612.99 781.667C1612.99 780.367 1612.54 779.387 1611.64 778.727C1610.74 778.047 1609.5 777.707 1607.92 777.707H1605.97Z" fill="#BABCC9"/>
<path d="M1633.22 780.437V782.417H1630.46V787.637H1628.33V782.417H1617.65V780.497L1628.12 766.337H1630.46V780.437H1633.22ZM1628.33 769.397H1628.3L1620.14 780.437H1628.33V769.397Z" fill="#BABCC9"/>
<path d="M1644.17 791.357H1642.67V788.057C1640.35 787.977 1638.61 787.337 1637.45 786.137C1636.31 784.937 1635.66 783.427 1635.5 781.607H1637.69C1638.03 784.427 1639.69 785.907 1642.67 786.047V777.707L1641.98 777.497C1640.06 776.917 1638.64 776.147 1637.72 775.187C1636.82 774.207 1636.37 773.007 1636.37 771.587C1636.37 770.067 1636.92 768.777 1638.02 767.717C1639.12 766.637 1640.67 766.037 1642.67 765.917V762.617H1644.17V765.917C1646.19 766.057 1647.73 766.717 1648.79 767.897C1649.85 769.077 1650.44 770.567 1650.56 772.367H1648.37C1648.25 771.167 1647.83 770.177 1647.11 769.397C1646.39 768.597 1645.41 768.117 1644.17 767.957V775.877L1644.59 775.967C1646.73 776.427 1648.27 777.167 1649.21 778.187C1650.15 779.207 1650.62 780.507 1650.62 782.087C1650.62 783.687 1650.06 785.037 1648.94 786.137C1647.82 787.217 1646.23 787.847 1644.17 788.027V791.357ZM1638.56 771.527C1638.56 772.547 1638.85 773.347 1639.43 773.927C1640.03 774.487 1641.11 774.997 1642.67 775.457V767.927C1641.31 768.007 1640.28 768.367 1639.58 769.007C1638.9 769.647 1638.56 770.487 1638.56 771.527ZM1648.4 782.207C1648.4 781.187 1648.09 780.367 1647.47 779.747C1646.85 779.127 1645.75 778.587 1644.17 778.127V786.017C1645.49 785.877 1646.52 785.477 1647.26 784.817C1648.02 784.137 1648.4 783.267 1648.4 782.207Z" fill="#BABCC9"/>
<path d="M1659.08 787.637L1670.84 766.337H1672.7L1660.94 787.637H1659.08ZM1655.93 772.937C1655.93 776.297 1656.86 777.977 1658.72 777.977C1660.56 777.977 1661.48 776.297 1661.48 772.937C1661.48 769.557 1660.56 767.867 1658.72 767.867C1656.86 767.867 1655.93 769.557 1655.93 772.937ZM1655.24 777.917C1654.46 776.737 1654.07 775.077 1654.07 772.937C1654.07 770.797 1654.46 769.137 1655.24 767.957C1656.04 766.757 1657.2 766.157 1658.72 766.157C1660.22 766.157 1661.36 766.757 1662.14 767.957C1662.94 769.137 1663.34 770.797 1663.34 772.937C1663.34 775.077 1662.94 776.737 1662.14 777.917C1661.36 779.097 1660.22 779.687 1658.72 779.687C1657.2 779.687 1656.04 779.097 1655.24 777.917ZM1670.3 781.067C1670.3 784.427 1671.23 786.107 1673.09 786.107C1674.93 786.107 1675.85 784.427 1675.85 781.067C1675.85 777.687 1674.93 775.997 1673.09 775.997C1671.23 775.997 1670.3 777.687 1670.3 781.067ZM1669.61 786.047C1668.83 784.867 1668.44 783.207 1668.44 781.067C1668.44 778.927 1668.83 777.267 1669.61 776.087C1670.41 774.887 1671.57 774.287 1673.09 774.287C1674.59 774.287 1675.73 774.887 1676.51 776.087C1677.31 777.267 1677.71 778.927 1677.71 781.067C1677.71 783.207 1677.31 784.867 1676.51 786.047C1675.73 787.227 1674.59 787.817 1673.09 787.817C1671.57 787.817 1670.41 787.227 1669.61 786.047Z" fill="#BABCC9"/>
<path d="M747.2 590.137C752.067 590.137 755.833 589.303 758.5 587.637C761.167 585.903 762.5 583.437 762.5 580.237C762.5 577.903 761.767 576.003 760.3 574.537C758.833 573.07 756.933 571.97 754.6 571.237C752.267 570.503 749.7 569.87 746.9 569.337C744.1 568.737 741.267 568.037 738.4 567.237C735.6 566.37 733.033 565.27 730.7 563.937C728.367 562.603 726.467 560.603 725 557.937C723.533 555.27 722.8 552.003 722.8 548.137C722.8 542.27 725.1 537.303 729.7 533.237C734.367 529.17 740.533 527.137 748.2 527.137C756.267 527.137 762.533 529.337 767 533.737C771.533 538.07 773.867 543.703 774 550.637H762.1C762.033 546.97 760.8 543.97 758.4 541.637C756 539.237 752.6 538.037 748.2 538.037C744 538.037 740.7 538.903 738.3 540.637C735.967 542.303 734.8 544.703 734.8 547.837C734.8 549.903 735.533 551.637 737 553.037C738.467 554.37 740.367 555.403 742.7 556.137C745.1 556.803 747.7 557.437 750.5 558.037C753.367 558.57 756.2 559.303 759 560.237C761.867 561.103 764.467 562.27 766.8 563.737C769.2 565.137 771.133 567.203 772.6 569.937C774.067 572.603 774.8 575.87 774.8 579.737C774.8 586.203 772.233 591.37 767.1 595.237C761.967 599.103 755.133 601.037 746.6 601.037C737.867 601.037 731.3 598.737 726.9 594.137C722.5 589.537 720.2 583.97 720 577.437H732C732.267 581.37 733.7 584.47 736.3 586.737C738.9 589.003 742.533 590.137 747.2 590.137Z" fill="#BABCC9"/>
<path d="M829.574 577.137H790.074C790.541 581.27 792.041 584.57 794.574 587.037C797.108 589.437 800.441 590.637 804.574 590.637C807.308 590.637 809.774 589.97 811.974 588.637C814.174 587.303 815.741 585.503 816.674 583.237H828.674C827.074 588.503 824.074 592.77 819.674 596.037C815.341 599.237 810.208 600.837 804.274 600.837C796.541 600.837 790.274 598.27 785.474 593.137C780.741 588.003 778.374 581.503 778.374 573.637C778.374 565.97 780.774 559.537 785.574 554.337C790.374 549.137 796.574 546.537 804.174 546.537C811.774 546.537 817.908 549.103 822.574 554.237C827.308 559.303 829.674 565.703 829.674 573.437L829.574 577.137ZM804.174 556.237C800.441 556.237 797.341 557.337 794.874 559.537C792.408 561.737 790.874 564.67 790.274 568.337H817.874C817.341 564.67 815.874 561.737 813.474 559.537C811.074 557.337 807.974 556.237 804.174 556.237Z" fill="#BABCC9"/>
<path d="M880.763 569.837V599.637H868.863V568.537C868.863 560.67 865.597 556.737 859.063 556.737C855.53 556.737 852.697 557.87 850.563 560.137C848.497 562.403 847.463 565.503 847.463 569.437V599.637H835.563V547.737H846.563V554.637C847.83 552.303 849.763 550.37 852.363 548.837C854.963 547.303 858.197 546.537 862.063 546.537C869.263 546.537 874.463 549.27 877.663 554.737C882.063 549.27 887.93 546.537 895.263 546.537C901.33 546.537 905.997 548.437 909.263 552.237C912.53 555.97 914.163 560.903 914.163 567.037V599.637H902.263V568.537C902.263 560.67 898.997 556.737 892.463 556.737C888.863 556.737 885.997 557.903 883.863 560.237C881.797 562.503 880.763 565.703 880.763 569.837Z" fill="#BABCC9"/>
<path d="M929.044 539.037C926.844 539.037 925.044 538.37 923.644 537.037C922.244 535.637 921.544 533.87 921.544 531.737C921.544 529.537 922.244 527.737 923.644 526.337C925.044 524.937 926.844 524.237 929.044 524.237C931.177 524.237 932.944 524.937 934.344 526.337C935.744 527.737 936.444 529.537 936.444 531.737C936.444 533.87 935.744 535.637 934.344 537.037C932.944 538.37 931.177 539.037 929.044 539.037ZM923.044 599.637V547.737H934.944V599.637H923.044Z" fill="#BABCC9"/>
<path d="M956.213 554.537C959.747 549.203 965.28 546.537 972.813 546.537C980.28 546.537 986.147 549.137 990.413 554.337C994.747 559.537 996.913 566.003 996.913 573.737C996.913 581.47 994.747 587.937 990.413 593.137C986.147 598.27 980.28 600.837 972.813 600.837C964.747 600.837 958.913 597.97 955.313 592.237V599.637H944.313V524.637H956.213V554.537ZM955.813 573.737C955.813 578.537 957.113 582.503 959.713 585.637C962.38 588.77 965.947 590.337 970.413 590.337C974.813 590.337 978.347 588.77 981.013 585.637C983.68 582.437 985.013 578.47 985.013 573.737C985.013 568.87 983.68 564.87 981.013 561.737C978.347 558.603 974.813 557.037 970.413 557.037C965.947 557.037 962.38 558.603 959.713 561.737C957.113 564.87 955.813 568.87 955.813 573.737Z" fill="#BABCC9"/>
<path d="M1026.39 600.837C1018.39 600.837 1011.89 598.203 1006.89 592.937C1001.95 587.67 999.487 581.27 999.487 573.737C999.487 566.203 1001.95 559.803 1006.89 554.537C1011.89 549.203 1018.39 546.537 1026.39 546.537C1034.45 546.537 1040.95 549.203 1045.89 554.537C1050.89 559.803 1053.39 566.203 1053.39 573.737C1053.39 581.27 1050.89 587.67 1045.89 592.937C1040.95 598.203 1034.45 600.837 1026.39 600.837ZM1011.39 573.737C1011.39 578.67 1012.79 582.67 1015.59 585.737C1018.45 588.803 1022.05 590.337 1026.39 590.337C1030.79 590.337 1034.39 588.803 1037.19 585.737C1040.05 582.67 1041.49 578.67 1041.49 573.737C1041.49 568.737 1040.05 564.703 1037.19 561.637C1034.39 558.57 1030.79 557.037 1026.39 557.037C1022.05 557.037 1018.45 558.57 1015.59 561.637C1012.79 564.703 1011.39 568.737 1011.39 573.737Z" fill="#BABCC9"/>
<path d="M1071.31 599.637H1059.41V524.637H1071.31V599.637Z" fill="#BABCC9"/>
<path d="M1117.88 554.537V524.637H1129.78V599.637H1118.78V592.237C1115.25 597.97 1109.41 600.837 1101.28 600.837C1093.88 600.837 1088.01 598.27 1083.68 593.137C1079.41 587.937 1077.28 581.47 1077.28 573.737C1077.28 566.003 1079.41 559.537 1083.68 554.337C1088.01 549.137 1093.88 546.537 1101.28 546.537C1108.81 546.537 1114.35 549.203 1117.88 554.537ZM1118.38 573.737C1118.38 568.87 1117.05 564.87 1114.38 561.737C1111.78 558.603 1108.25 557.037 1103.78 557.037C1099.38 557.037 1095.85 558.603 1093.18 561.737C1090.51 564.87 1089.18 568.87 1089.18 573.737C1089.18 578.47 1090.51 582.437 1093.18 585.637C1095.85 588.77 1099.38 590.337 1103.78 590.337C1108.25 590.337 1111.78 588.77 1114.38 585.637C1117.05 582.503 1118.38 578.537 1118.38 573.737Z" fill="#BABCC9"/>
<path d="M774.7 787.637H765.9L749.2 756.737H728.4V787.637H721.1V716.637H750.3C757.966 716.637 763.666 718.503 767.4 722.237C771.2 725.903 773.1 730.703 773.1 736.637C773.1 741.637 771.733 745.87 769 749.337C766.333 752.803 762.266 755.037 756.8 756.037L774.7 787.637ZM765.5 736.637C765.5 732.637 764.233 729.47 761.7 727.137C759.233 724.803 755.533 723.637 750.6 723.637H728.4V749.737H750.6C755.533 749.737 759.233 748.603 761.7 746.337C764.233 744.003 765.5 740.77 765.5 736.637Z" fill="#BABCC9"/>
<path d="M827.487 764.237H785.187C785.52 769.57 787.32 773.937 790.587 777.337C793.854 780.737 798.087 782.437 803.287 782.437C807.087 782.437 810.42 781.47 813.287 779.537C816.154 777.537 818.154 774.937 819.287 771.737H826.687C825.154 776.803 822.32 780.937 818.187 784.137C814.054 787.27 809.054 788.837 803.187 788.837C795.454 788.837 789.32 786.27 784.787 781.137C780.32 775.937 778.087 769.603 778.087 762.137C778.087 754.803 780.387 748.537 784.987 743.337C789.654 738.137 795.687 735.537 803.087 735.537C810.487 735.537 816.42 738.037 820.887 743.037C825.354 747.97 827.587 754.137 827.587 761.537L827.487 764.237ZM803.087 741.937C798.287 741.937 794.287 743.503 791.087 746.637C787.887 749.703 785.987 753.637 785.387 758.437H820.487C820.02 753.437 818.22 749.437 815.087 746.437C812.02 743.437 808.02 741.937 803.087 741.937Z" fill="#BABCC9"/>
<path d="M875.564 746.037V736.737H882.364V785.137C882.364 792.337 880.298 798.203 876.164 802.737C872.098 807.27 866.231 809.537 858.564 809.537C851.898 809.537 846.598 807.937 842.664 804.737C838.798 801.537 836.364 797.737 835.364 793.337H842.664C843.664 796.337 845.564 798.703 848.364 800.437C851.231 802.237 854.698 803.137 858.764 803.137C863.898 803.137 867.931 801.603 870.864 798.537C873.798 795.537 875.264 791.603 875.264 786.737V777.237C871.331 784.103 865.031 787.537 856.364 787.537C849.031 787.537 843.198 785.003 838.864 779.937C834.531 774.87 832.364 768.737 832.364 761.537C832.364 754.337 834.531 748.203 838.864 743.137C843.198 738.07 849.031 735.537 856.364 735.537C865.231 735.537 871.631 739.037 875.564 746.037ZM870.664 775.637C873.931 771.903 875.564 767.203 875.564 761.537C875.564 755.87 873.931 751.203 870.664 747.537C867.464 743.803 863.131 741.937 857.664 741.937C852.198 741.937 847.798 743.803 844.464 747.537C841.198 751.27 839.564 755.937 839.564 761.537C839.564 767.137 841.198 771.837 844.464 775.637C847.798 779.37 852.198 781.237 857.664 781.237C863.131 781.237 867.464 779.37 870.664 775.637Z" fill="#BABCC9"/>
<path d="M929.048 766.837V736.737H936.148V787.637H929.348V780.237C928.215 782.37 926.248 784.337 923.448 786.137C920.715 787.937 917.181 788.837 912.848 788.837C906.715 788.837 902.015 787.07 898.748 783.537C895.481 779.937 893.848 775.203 893.848 769.337V736.737H900.948V767.837C900.948 777.703 905.315 782.637 914.048 782.637C918.381 782.637 921.948 781.303 924.748 778.637C927.615 775.903 929.048 771.97 929.048 766.837Z" fill="#BABCC9"/>
<path d="M955.725 787.637H948.625V712.637H955.725V787.637Z" fill="#BABCC9"/>
<path d="M1001.73 761.537L984.835 763.837C980.168 764.437 976.801 765.57 974.735 767.237C972.735 768.837 971.735 770.97 971.735 773.637C971.735 776.97 972.868 779.37 975.135 780.837C977.401 782.237 980.201 782.937 983.535 782.937C989.201 782.937 993.635 781.37 996.835 778.237C1000.1 775.037 1001.73 771.437 1001.73 767.437V761.537ZM982.735 788.837C976.801 788.837 972.301 787.503 969.235 784.837C966.235 782.103 964.735 778.37 964.735 773.637C964.735 765.037 971.135 759.903 983.935 758.237L1001.73 755.937V754.537C1001.73 745.937 996.935 741.637 987.335 741.637C979.201 741.637 974.468 745.003 973.135 751.737H966.035C966.768 746.803 968.868 742.87 972.335 739.937C975.868 737.003 980.968 735.537 987.635 735.537C994.701 735.537 1000 737.27 1003.53 740.737C1007.07 744.137 1008.83 748.77 1008.83 754.637V776.937C1008.83 781.937 1009.33 785.503 1010.33 787.637H1003.33C1002.6 785.637 1002.23 782.737 1002.23 778.937C998.368 785.537 991.868 788.837 982.735 788.837Z" fill="#BABCC9"/>
<path d="M1045.65 736.337V743.037C1044.85 742.97 1044.02 742.937 1043.15 742.937C1038.62 742.937 1034.95 744.303 1032.15 747.037C1029.35 749.703 1027.95 753.603 1027.95 758.737V787.637H1020.85V736.737H1027.65V744.637C1028.85 742.437 1030.82 740.503 1033.55 738.837C1036.29 737.103 1039.75 736.237 1043.95 736.237L1045.65 736.337Z" fill="#BABCC9"/>
<rect opacity="0.4" x="720" y="477" width="960" height="1" fill="#BABCC9"/>
<rect opacity="0.4" x="240" y="280" width="1440" height="1" fill="#BABCC9"/>
<rect opacity="0.4" x="720" y="666" width="960" height="1" fill="#BABCC9"/>
<g opacity="0.5">
<path d="M246.696 228.4C244.932 228.4 243.162 228.4 241.386 228.4C241.386 232.6 241.386 236.8 241.386 241C243.162 241 244.932 241 246.696 241C247.236 241 247.728 240.91 248.172 240.73C248.4 240.646 248.61 240.544 248.802 240.424C248.994 240.304 249.168 240.166 249.324 240.01C249.636 239.698 249.882 239.326 250.062 238.894C250.242 238.462 250.332 237.988 250.332 237.472C250.332 237.16 250.296 236.866 250.224 236.59C250.152 236.314 250.05 236.056 249.918 235.816C249.654 235.336 249.276 234.964 248.784 234.7C249.252 234.436 249.63 234.064 249.918 233.584C250.05 233.344 250.152 233.086 250.224 232.81C250.296 232.534 250.332 232.24 250.332 231.928C250.332 231.412 250.242 230.938 250.062 230.506C249.882 230.074 249.636 229.702 249.324 229.39C249 229.078 248.616 228.832 248.172 228.652C247.728 228.484 247.236 228.4 246.696 228.4ZM248.28 232.018C248.28 232.498 248.136 232.894 247.848 233.206C247.56 233.518 247.188 233.674 246.732 233.674C245.64 233.674 244.542 233.674 243.438 233.674C243.438 232.594 243.438 231.52 243.438 230.452C244.518 230.452 245.598 230.452 246.678 230.452C247.158 230.452 247.548 230.596 247.848 230.884C248.136 231.172 248.28 231.55 248.28 232.018ZM248.28 237.382C248.28 237.862 248.136 238.24 247.848 238.516C247.548 238.804 247.158 238.948 246.678 238.948C245.598 238.948 244.518 238.948 243.438 238.948C243.438 237.868 243.438 236.794 243.438 235.726C244.542 235.726 245.64 235.726 246.732 235.726C247.188 235.726 247.56 235.876 247.848 236.176C248.136 236.488 248.28 236.89 248.28 237.382Z" fill="#14172E"/>
<path d="M254.133 233.422C254.133 232.942 254.133 232.468 254.133 232C253.509 232 252.885 232 252.261 232C252.261 235 252.261 238 252.261 241C252.909 241 253.557 241 254.205 241C254.205 239.62 254.205 238.246 254.205 236.878C254.205 235.918 254.391 235.168 254.763 234.628C255.135 234.1 255.771 233.836 256.671 233.836C256.851 233.836 257.025 233.848 257.193 233.872C257.277 233.884 257.355 233.896 257.427 233.908C257.499 233.92 257.577 233.938 257.661 233.962C257.661 233.266 257.661 232.576 257.661 231.892C257.373 231.82 257.079 231.784 256.779 231.784C256.143 231.784 255.615 231.928 255.195 232.216C254.763 232.504 254.409 232.906 254.133 233.422Z" fill="#14172E"/>
<path d="M264.517 236.842C264.517 237.01 264.517 237.184 264.517 237.364C264.517 237.628 264.463 237.886 264.355 238.138C264.235 238.402 264.073 238.63 263.869 238.822C263.677 239.014 263.425 239.176 263.113 239.308C262.957 239.368 262.801 239.416 262.645 239.452C262.477 239.476 262.297 239.488 262.105 239.488C261.613 239.488 261.247 239.38 261.007 239.164C260.755 238.96 260.629 238.684 260.629 238.336C260.629 238.036 260.737 237.778 260.953 237.562C261.157 237.358 261.481 237.226 261.925 237.166C262.789 237.058 263.653 236.95 264.517 236.842ZM258.883 233.944C259.411 234.268 259.933 234.598 260.449 234.934C260.581 234.43 260.857 234.07 261.277 233.854C261.697 233.65 262.183 233.548 262.735 233.548C263.335 233.548 263.785 233.656 264.085 233.872C264.373 234.1 264.517 234.388 264.517 234.736C264.517 234.796 264.517 234.862 264.517 234.934C264.517 235.174 264.343 235.312 263.995 235.348C263.167 235.432 262.333 235.516 261.493 235.6C260.665 235.672 259.981 235.948 259.441 236.428C258.889 236.908 258.613 237.562 258.613 238.39C258.613 238.798 258.685 239.17 258.829 239.506C258.901 239.674 258.985 239.836 259.081 239.992C259.189 240.136 259.309 240.268 259.441 240.388C259.693 240.64 260.011 240.832 260.395 240.964C260.767 241.108 261.187 241.18 261.655 241.18C262.339 241.18 262.921 241.048 263.401 240.784C263.869 240.508 264.241 240.166 264.517 239.758C264.517 240.166 264.517 240.58 264.517 241C265.165 241 265.813 241 266.461 241C266.461 239.092 266.461 237.19 266.461 235.294C266.461 234.13 266.155 233.254 265.543 232.666C265.231 232.366 264.841 232.144 264.373 232C263.893 231.856 263.335 231.784 262.699 231.784C262.171 231.784 261.697 231.832 261.277 231.928C260.857 232.024 260.491 232.168 260.179 232.36C259.555 232.744 259.123 233.272 258.883 233.944Z" fill="#14172E"/>
<path d="M270.446 233.242C270.446 232.822 270.446 232.408 270.446 232C269.822 232 269.192 232 268.556 232C268.556 235 268.556 238 268.556 241C269.204 241 269.852 241 270.5 241C270.5 239.584 270.5 238.168 270.5 236.752C270.5 236.524 270.512 236.302 270.536 236.086C270.548 235.882 270.578 235.684 270.626 235.492C270.698 235.108 270.824 234.778 271.004 234.502C271.184 234.226 271.424 234.01 271.724 233.854C272.012 233.698 272.372 233.62 272.804 233.62C273.38 233.62 273.842 233.8 274.19 234.16C274.526 234.52 274.694 235.072 274.694 235.816C274.694 237.544 274.694 239.272 274.694 241C275.354 241 276.014 241 276.674 241C276.674 239.188 276.674 237.376 276.674 235.564C276.674 234.988 276.608 234.466 276.476 233.998C276.356 233.542 276.158 233.146 275.882 232.81C275.618 232.486 275.276 232.234 274.856 232.054C274.448 231.874 273.962 231.784 273.398 231.784C272.774 231.784 272.21 231.91 271.706 232.162C271.202 232.414 270.782 232.774 270.446 233.242Z" fill="#14172E"/>
<path d="M283.083 233.638C283.887 233.638 284.541 233.896 285.045 234.412C285.285 234.676 285.471 234.976 285.603 235.312C285.723 235.66 285.783 236.056 285.783 236.5C285.783 236.944 285.723 237.334 285.603 237.67C285.471 238.018 285.285 238.324 285.045 238.588C284.541 239.104 283.887 239.362 283.083 239.362C282.675 239.362 282.309 239.296 281.985 239.164C281.649 239.032 281.361 238.834 281.121 238.57C280.881 238.306 280.695 238 280.563 237.652C280.443 237.304 280.383 236.92 280.383 236.5C280.383 236.08 280.443 235.696 280.563 235.348C280.695 235 280.881 234.694 281.121 234.43C281.361 234.166 281.649 233.968 281.985 233.836C282.309 233.704 282.675 233.638 283.083 233.638ZM287.637 228.4C286.989 228.4 286.341 228.4 285.693 228.4C285.693 230.032 285.693 231.664 285.693 233.296C285.345 232.864 284.919 232.504 284.415 232.216C283.911 231.928 283.299 231.784 282.579 231.784C282.003 231.784 281.463 231.886 280.959 232.09C280.695 232.198 280.455 232.33 280.239 232.486C280.023 232.642 279.819 232.822 279.627 233.026C279.243 233.434 278.943 233.926 278.727 234.502C278.499 235.09 278.385 235.756 278.385 236.5C278.385 237.244 278.499 237.904 278.727 238.48C278.943 239.068 279.243 239.56 279.627 239.956C279.819 240.16 280.023 240.34 280.239 240.496C280.455 240.652 280.695 240.784 280.959 240.892C281.463 241.108 282.009 241.216 282.597 241.216C283.305 241.216 283.917 241.078 284.433 240.802C284.937 240.526 285.357 240.166 285.693 239.722C285.693 240.142 285.693 240.568 285.693 241C286.341 241 286.989 241 287.637 241C287.637 236.8 287.637 232.6 287.637 228.4Z" fill="#14172E"/>
<path d="M300.229 240.838C300.229 240.238 300.229 239.644 300.229 239.056C299.941 239.104 299.701 239.14 299.509 239.164C299.413 239.176 299.305 239.182 299.185 239.182C299.077 239.194 298.963 239.2 298.843 239.2C298.495 239.2 298.249 239.116 298.105 238.948C297.949 238.78 297.871 238.546 297.871 238.246C297.871 236.71 297.871 235.18 297.871 233.656C298.663 233.656 299.455 233.656 300.247 233.656C300.247 233.104 300.247 232.552 300.247 232C299.455 232 298.663 232 297.871 232C297.871 231.196 297.871 230.392 297.871 229.588C297.223 229.588 296.575 229.588 295.927 229.588C295.927 230.392 295.927 231.196 295.927 232C295.363 232 294.793 232 294.217 232C294.217 232.552 294.217 233.104 294.217 233.656C294.793 233.656 295.363 233.656 295.927 233.656C295.927 235.228 295.927 236.8 295.927 238.372C295.927 239.356 296.149 240.058 296.593 240.478C297.025 240.886 297.655 241.09 298.483 241.09C299.071 241.09 299.653 241.006 300.229 240.838Z" fill="#14172E"/>
<path d="M302.495 244.6C303.191 244.6 303.881 244.6 304.565 244.6C306.485 240.4 308.405 236.2 310.325 232C309.641 232 308.951 232 308.255 232C307.415 233.836 306.575 235.672 305.735 237.508C304.871 235.672 304.007 233.836 303.143 232C302.375 232 301.607 232 300.839 232C302.135 234.58 303.425 237.166 304.709 239.758C303.977 241.366 303.239 242.98 302.495 244.6Z" fill="#14172E"/>
<path d="M316.036 239.362C315.232 239.362 314.584 239.104 314.092 238.588C313.588 238.072 313.336 237.376 313.336 236.5C313.336 235.624 313.588 234.928 314.092 234.412C314.584 233.896 315.232 233.638 316.036 233.638C316.444 233.638 316.81 233.704 317.134 233.836C317.47 233.968 317.758 234.166 317.998 234.43C318.238 234.694 318.424 235 318.556 235.348C318.676 235.696 318.736 236.08 318.736 236.5C318.736 236.92 318.676 237.304 318.556 237.652C318.424 238 318.238 238.306 317.998 238.57C317.758 238.834 317.47 239.032 317.134 239.164C316.81 239.296 316.444 239.362 316.036 239.362ZM311.482 244.6C312.13 244.6 312.778 244.6 313.426 244.6C313.426 242.968 313.426 241.336 313.426 239.704C313.774 240.136 314.2 240.496 314.704 240.784C315.208 241.072 315.82 241.216 316.54 241.216C317.116 241.216 317.662 241.108 318.178 240.892C318.682 240.688 319.126 240.382 319.51 239.974C319.702 239.77 319.87 239.542 320.014 239.29C320.158 239.05 320.29 238.78 320.41 238.48C320.626 237.904 320.734 237.244 320.734 236.5C320.734 235.768 320.626 235.108 320.41 234.52C320.29 234.22 320.158 233.95 320.014 233.71C319.87 233.458 319.702 233.23 319.51 233.026C319.126 232.63 318.682 232.324 318.178 232.108C317.662 231.892 317.11 231.784 316.522 231.784C315.814 231.784 315.208 231.916 314.704 232.18C314.44 232.312 314.206 232.474 314.002 232.666C313.786 232.846 313.594 233.05 313.426 233.278C313.426 232.846 313.426 232.42 313.426 232C312.778 232 312.13 232 311.482 232C311.482 236.2 311.482 240.4 311.482 244.6Z" fill="#14172E"/>
<path d="M321.785 236.5C321.785 237.184 321.905 237.814 322.145 238.39C322.265 238.69 322.409 238.96 322.577 239.2C322.745 239.452 322.937 239.68 323.153 239.884C323.573 240.292 324.077 240.616 324.665 240.856C325.241 241.096 325.871 241.216 326.555 241.216C327.239 241.216 327.875 241.096 328.463 240.856C329.039 240.616 329.543 240.292 329.975 239.884C330.179 239.68 330.365 239.452 330.533 239.2C330.701 238.96 330.845 238.69 330.965 238.39C331.205 237.814 331.325 237.184 331.325 236.5C331.325 235.816 331.205 235.18 330.965 234.592C330.845 234.304 330.701 234.034 330.533 233.782C330.365 233.53 330.179 233.302 329.975 233.098C329.543 232.678 329.039 232.354 328.463 232.126C327.875 231.898 327.239 231.784 326.555 231.784C325.871 231.784 325.241 231.898 324.665 232.126C324.077 232.354 323.573 232.678 323.153 233.098C322.721 233.518 322.385 234.016 322.145 234.592C321.905 235.18 321.785 235.816 321.785 236.5ZM329.327 236.5C329.327 236.704 329.309 236.902 329.273 237.094C329.237 237.298 329.189 237.484 329.129 237.652C329.057 237.82 328.973 237.982 328.877 238.138C328.781 238.282 328.673 238.414 328.553 238.534C328.301 238.786 328.007 238.978 327.671 239.11C327.335 239.254 326.963 239.326 326.555 239.326C326.147 239.326 325.775 239.254 325.439 239.11C325.103 238.978 324.815 238.786 324.575 238.534C324.443 238.414 324.329 238.282 324.233 238.138C324.137 237.982 324.059 237.82 323.999 237.652C323.855 237.304 323.783 236.92 323.783 236.5C323.783 236.08 323.855 235.696 323.999 235.348C324.131 235 324.323 234.7 324.575 234.448C324.815 234.208 325.103 234.016 325.439 233.872C325.607 233.812 325.787 233.764 325.979 233.728C326.159 233.692 326.351 233.674 326.555 233.674C326.759 233.674 326.957 233.692 327.149 233.728C327.329 233.764 327.503 233.812 327.671 233.872C328.007 234.016 328.301 234.208 328.553 234.448C328.793 234.7 328.985 235 329.129 235.348C329.189 235.516 329.237 235.696 329.273 235.888C329.309 236.092 329.327 236.296 329.327 236.5Z" fill="#14172E"/>
<path d="M339.873 236.5C339.873 236.944 339.813 237.334 339.693 237.67C339.573 238.018 339.393 238.324 339.153 238.588C338.913 238.852 338.631 239.044 338.307 239.164C337.995 239.296 337.635 239.362 337.227 239.362C336.819 239.362 336.447 239.29 336.111 239.146C335.775 239.014 335.487 238.822 335.247 238.57C335.007 238.318 334.821 238.012 334.689 237.652C334.629 237.484 334.581 237.298 334.545 237.094C334.509 236.902 334.491 236.704 334.491 236.5C334.491 236.08 334.557 235.69 334.689 235.33C334.749 235.162 334.827 235 334.923 234.844C335.019 234.7 335.127 234.562 335.247 234.43C335.487 234.178 335.775 233.98 336.111 233.836C336.279 233.776 336.459 233.728 336.651 233.692C336.831 233.656 337.023 233.638 337.227 233.638C337.635 233.638 337.995 233.704 338.307 233.836C338.631 233.956 338.913 234.148 339.153 234.412C339.393 234.676 339.573 234.976 339.693 235.312C339.813 235.66 339.873 236.056 339.873 236.5ZM332.493 236.482C332.493 237.214 332.601 237.868 332.817 238.444C333.021 239.02 333.315 239.506 333.699 239.902C334.083 240.31 334.539 240.616 335.067 240.82C335.595 241.036 336.177 241.144 336.813 241.144C337.497 241.144 338.103 241.012 338.631 240.748C339.147 240.496 339.549 240.16 339.837 239.74C339.837 239.956 339.837 240.178 339.837 240.406C339.837 240.754 339.801 241.084 339.729 241.396C339.645 241.72 339.501 242.002 339.297 242.242C339.105 242.494 338.835 242.692 338.487 242.836C338.139 242.98 337.695 243.052 337.155 243.052C336.507 243.052 335.955 242.926 335.499 242.674C335.031 242.422 334.629 242.056 334.293 241.576C333.897 242.056 333.501 242.536 333.105 243.016C333.309 243.292 333.543 243.538 333.807 243.754C334.059 243.982 334.341 244.174 334.653 244.33C335.289 244.666 336.117 244.834 337.137 244.834C338.061 244.834 338.817 244.708 339.405 244.456C340.005 244.216 340.473 243.892 340.809 243.484C341.157 243.064 341.403 242.596 341.547 242.08C341.679 241.552 341.745 241.012 341.745 240.46C341.745 237.64 341.745 234.82 341.745 232C341.097 232 340.443 232 339.783 232C339.783 232.408 339.783 232.822 339.783 233.242C339.531 232.846 339.147 232.504 338.631 232.216C338.115 231.928 337.497 231.784 336.777 231.784C336.189 231.784 335.631 231.892 335.103 232.108C334.587 232.324 334.137 232.63 333.753 233.026C333.357 233.434 333.051 233.926 332.835 234.502C332.715 234.802 332.631 235.114 332.583 235.438C332.523 235.762 332.493 236.11 332.493 236.482Z" fill="#14172E"/>
<path d="M345.944 233.422C345.944 232.942 345.944 232.468 345.944 232C345.32 232 344.696 232 344.072 232C344.072 235 344.072 238 344.072 241C344.72 241 345.368 241 346.016 241C346.016 239.62 346.016 238.246 346.016 236.878C346.016 235.918 346.202 235.168 346.574 234.628C346.946 234.1 347.582 233.836 348.482 233.836C348.662 233.836 348.836 233.848 349.004 233.872C349.088 233.884 349.166 233.896 349.238 233.908C349.31 233.92 349.388 233.938 349.472 233.962C349.472 233.266 349.472 232.576 349.472 231.892C349.184 231.82 348.89 231.784 348.59 231.784C347.954 231.784 347.426 231.928 347.006 232.216C346.574 232.504 346.22 232.906 345.944 233.422Z" fill="#14172E"/>
<path d="M356.328 236.842C356.328 237.01 356.328 237.184 356.328 237.364C356.328 237.628 356.274 237.886 356.166 238.138C356.046 238.402 355.884 238.63 355.68 238.822C355.488 239.014 355.236 239.176 354.924 239.308C354.768 239.368 354.612 239.416 354.456 239.452C354.288 239.476 354.108 239.488 353.916 239.488C353.424 239.488 353.058 239.38 352.818 239.164C352.566 238.96 352.44 238.684 352.44 238.336C352.44 238.036 352.548 237.778 352.764 237.562C352.968 237.358 353.292 237.226 353.736 237.166C354.6 237.058 355.464 236.95 356.328 236.842ZM350.694 233.944C351.222 234.268 351.744 234.598 352.26 234.934C352.392 234.43 352.668 234.07 353.088 233.854C353.508 233.65 353.994 233.548 354.546 233.548C355.146 233.548 355.596 233.656 355.896 233.872C356.184 234.1 356.328 234.388 356.328 234.736C356.328 234.796 356.328 234.862 356.328 234.934C356.328 235.174 356.154 235.312 355.806 235.348C354.978 235.432 354.144 235.516 353.304 235.6C352.476 235.672 351.792 235.948 351.252 236.428C350.7 236.908 350.424 237.562 350.424 238.39C350.424 238.798 350.496 239.17 350.64 239.506C350.712 239.674 350.796 239.836 350.892 239.992C351 240.136 351.12 240.268 351.252 240.388C351.504 240.64 351.822 240.832 352.206 240.964C352.578 241.108 352.998 241.18 353.466 241.18C354.15 241.18 354.732 241.048 355.212 240.784C355.68 240.508 356.052 240.166 356.328 239.758C356.328 240.166 356.328 240.58 356.328 241C356.976 241 357.624 241 358.272 241C358.272 239.092 358.272 237.19 358.272 235.294C358.272 234.13 357.966 233.254 357.354 232.666C357.042 232.366 356.652 232.144 356.184 232C355.704 231.856 355.146 231.784 354.51 231.784C353.982 231.784 353.508 231.832 353.088 231.928C352.668 232.024 352.302 232.168 351.99 232.36C351.366 232.744 350.934 233.272 350.694 233.944Z" fill="#14172E"/>
<path d="M364.921 239.362C364.117 239.362 363.469 239.104 362.977 238.588C362.473 238.072 362.221 237.376 362.221 236.5C362.221 235.624 362.473 234.928 362.977 234.412C363.469 233.896 364.117 233.638 364.921 233.638C365.329 233.638 365.695 233.704 366.019 233.836C366.355 233.968 366.643 234.166 366.883 234.43C367.123 234.694 367.309 235 367.441 235.348C367.561 235.696 367.621 236.08 367.621 236.5C367.621 236.92 367.561 237.304 367.441 237.652C367.309 238 367.123 238.306 366.883 238.57C366.643 238.834 366.355 239.032 366.019 239.164C365.695 239.296 365.329 239.362 364.921 239.362ZM360.367 244.6C361.015 244.6 361.663 244.6 362.311 244.6C362.311 242.968 362.311 241.336 362.311 239.704C362.659 240.136 363.085 240.496 363.589 240.784C364.093 241.072 364.705 241.216 365.425 241.216C366.001 241.216 366.547 241.108 367.063 240.892C367.567 240.688 368.011 240.382 368.395 239.974C368.587 239.77 368.755 239.542 368.899 239.29C369.043 239.05 369.175 238.78 369.295 238.48C369.511 237.904 369.619 237.244 369.619 236.5C369.619 235.768 369.511 235.108 369.295 234.52C369.175 234.22 369.043 233.95 368.899 233.71C368.755 233.458 368.587 233.23 368.395 233.026C368.011 232.63 367.567 232.324 367.063 232.108C366.547 231.892 365.995 231.784 365.407 231.784C364.699 231.784 364.093 231.916 363.589 232.18C363.325 232.312 363.091 232.474 362.887 232.666C362.671 232.846 362.479 233.05 362.311 233.278C362.311 232.846 362.311 232.42 362.311 232C361.663 232 361.015 232 360.367 232C360.367 236.2 360.367 240.4 360.367 244.6Z" fill="#14172E"/>
<path d="M373.244 228.4C372.596 228.4 371.948 228.4 371.3 228.4C371.3 232.6 371.3 236.8 371.3 241C371.948 241 372.596 241 373.244 241C373.244 239.584 373.244 238.168 373.244 236.752C373.244 236.524 373.256 236.302 373.28 236.086C373.292 235.882 373.322 235.684 373.37 235.492C373.442 235.108 373.568 234.778 373.748 234.502C373.928 234.226 374.168 234.01 374.468 233.854C374.768 233.698 375.134 233.62 375.566 233.62C376.166 233.62 376.628 233.812 376.952 234.196C377.276 234.568 377.438 235.108 377.438 235.816C377.438 237.544 377.438 239.272 377.438 241C378.098 241 378.758 241 379.418 241C379.418 239.188 379.418 237.376 379.418 235.564C379.418 234.988 379.352 234.466 379.22 233.998C379.1 233.542 378.902 233.146 378.626 232.81C378.362 232.486 378.02 232.234 377.6 232.054C377.192 231.874 376.706 231.784 376.142 231.784C375.494 231.784 374.93 231.91 374.45 232.162C373.97 232.426 373.568 232.786 373.244 233.242C373.244 231.622 373.244 230.008 373.244 228.4Z" fill="#14172E"/>
<path d="M382.212 244.6C382.908 244.6 383.598 244.6 384.282 244.6C386.202 240.4 388.122 236.2 390.042 232C389.358 232 388.668 232 387.972 232C387.132 233.836 386.292 235.672 385.452 237.508C384.588 235.672 383.724 233.836 382.86 232C382.092 232 381.324 232 380.556 232C381.852 234.58 383.142 237.166 384.426 239.758C383.694 241.366 382.956 242.98 382.212 244.6Z" fill="#14172E"/>
</g>
</svg>
