<svg width="1920" height="1110" viewBox="0 0 1920 1110" fill="none" xmlns="http://www.w3.org/2000/svg">
<g id="coventure-case-3">
<rect width="1920" height="1110" fill="#F5F5F5"/>
<g id="Group 876">
<g id=" color pallete" clip-path="url(#clip0)">
<rect id="Rectangle 87" x="748" y="240" width="650" height="508" transform="rotate(90 748 240)" fill="#0E3531"/>
<rect id="Rectangle 88" x="1067" y="240" width="650" height="319" transform="rotate(90 1067 240)" fill="#C5DBE2"/>
<rect id="Rectangle 93" x="1392" y="240" width="650" height="325" transform="rotate(90 1392 240)" fill="white"/>
<rect id="Rectangle 90" x="1546" y="240" width="650" height="154" transform="rotate(90 1546 240)" fill="#E4F5B3"/>
<rect id="Rectangle 91" x="1686" y="240" width="650" height="142" transform="rotate(90 1686 240)" fill="#F3F0E7"/>
<g id="Deliverables" opacity="0.3">
<path d="M696.6 849.074L696.6 847.706L700.116 847.706L700.116 843.446L696.6 843.446L696.6 842.078L705 842.078L705 843.446L701.484 843.446L701.484 847.706L705 847.706L705 849.074L696.6 849.074Z" fill="white"/>
<path d="M696.6 838.227L696.6 832.935L697.968 832.935L697.968 836.859L700.116 836.859L700.116 832.935L701.484 832.935L701.484 836.859L703.632 836.859L703.632 832.935L705 832.935L705 838.227L696.6 838.227Z" fill="white"/>
<path d="M700.8 826.732L696.6 830.128L696.6 828.364L699.708 825.844L696.6 823.324L696.6 821.572L700.8 824.968L705 821.572L705 823.336L701.892 825.844L705 828.364L705 830.128L700.8 826.732Z" fill="white"/>
<path d="M702.54 811.539L705 811.899L705 812.859L702.54 812.511L702.54 813.771L701.604 813.639L701.604 812.367L699.936 812.139L699.936 813.411L698.988 813.267L698.988 812.007L696.6 811.659L696.6 810.687L698.988 811.035L698.988 809.619L696.6 809.271L696.6 808.299L698.988 808.647L698.988 807.435L699.936 807.567L699.936 808.779L701.604 809.019L701.604 807.807L702.54 807.939L702.54 809.151L705 809.511L705 810.471L702.54 810.123L702.54 811.539ZM699.936 811.167L701.604 811.407L701.604 809.979L699.936 809.751L699.936 811.167Z" fill="white"/>
<path d="M705 800.42C705 801.148 704.82 801.816 704.46 802.424C704.1 803.032 703.6 803.512 702.96 803.864C702.32 804.216 701.6 804.392 700.8 804.392C700 804.392 699.28 804.216 698.64 803.864C698 803.512 697.5 803.032 697.14 802.424C696.78 801.816 696.6 801.148 696.6 800.42C696.6 799.684 696.78 799.012 697.14 798.404C697.5 797.796 698 797.316 698.64 796.964C699.28 796.612 700 796.436 700.8 796.436C701.6 796.436 702.32 796.612 702.96 796.964C703.6 797.316 704.1 797.796 704.46 798.404C704.82 799.012 705 799.684 705 800.42ZM703.632 800.42C703.632 799.924 703.512 799.48 703.272 799.088C703.032 798.688 702.696 798.376 702.264 798.152C701.832 797.92 701.344 797.804 700.8 797.804C700.256 797.804 699.768 797.92 699.336 798.152C698.904 798.376 698.568 798.688 698.328 799.088C698.088 799.48 697.968 799.924 697.968 800.42C697.968 800.908 698.088 801.352 698.328 801.752C698.568 802.144 698.904 802.456 699.336 802.688C699.768 802.912 700.256 803.024 700.8 803.024C701.344 803.024 701.832 802.912 702.264 802.688C702.696 802.456 703.032 802.144 703.272 801.752C703.512 801.352 703.632 800.908 703.632 800.42Z" fill="white"/>
<path d="M696.6 792.824L696.6 787.532L697.968 787.532L697.968 791.456L700.116 791.456L700.116 787.532L701.484 787.532L701.484 791.456L703.632 791.456L703.632 787.532L705 787.532L705 792.824L696.6 792.824Z" fill="white"/>
<path d="M698.232 784.365C697.76 784.149 697.372 783.809 697.068 783.345C696.756 782.873 696.6 782.341 696.6 781.749C696.6 781.245 696.7 780.793 696.9 780.393C697.092 779.993 697.368 779.681 697.728 779.457C698.088 779.225 698.496 779.109 698.952 779.109C699.368 779.109 699.736 779.205 700.056 779.397C700.376 779.581 700.62 779.829 700.788 780.141C700.956 779.821 701.204 779.569 701.532 779.385C701.86 779.201 702.236 779.109 702.66 779.109C703.14 779.109 703.556 779.221 703.908 779.445C704.26 779.669 704.532 779.981 704.724 780.381C704.908 780.773 705 781.221 705 781.725C705 782.341 704.848 782.889 704.544 783.369C704.232 783.841 703.824 784.177 703.32 784.377L702.348 783.333C702.74 783.213 703.052 783.013 703.284 782.733C703.516 782.445 703.632 782.105 703.632 781.713C703.632 781.345 703.536 781.049 703.344 780.825C703.144 780.593 702.876 780.477 702.54 780.477C702.212 780.477 701.956 780.589 701.772 780.813C701.588 781.029 701.488 781.313 701.472 781.665L701.472 782.229L700.116 782.229L700.116 781.665C700.1 781.321 700 781.037 699.816 780.813C699.624 780.589 699.368 780.477 699.048 780.477C698.72 780.477 698.46 780.593 698.268 780.825C698.068 781.057 697.968 781.353 697.968 781.713C697.968 782.089 698.084 782.421 698.316 782.709C698.548 782.997 698.848 783.205 699.216 783.333L698.232 784.365Z" fill="white"/>
<path d="M705 773.645C705 774.085 704.932 774.529 704.796 774.977C704.652 775.417 704.452 775.805 704.196 776.141L702.972 775.517C703.188 775.221 703.352 774.913 703.464 774.593C703.576 774.273 703.632 773.957 703.632 773.645C703.632 773.173 703.504 772.789 703.248 772.493C702.984 772.189 702.616 772.037 702.144 772.037C701.68 772.037 701.32 772.193 701.064 772.505C700.808 772.809 700.68 773.229 700.68 773.765C700.68 774.037 700.716 774.341 700.788 774.677C700.852 775.005 700.944 775.325 701.064 775.637L696.6 775.637L696.6 770.669L697.968 770.669L697.968 774.269L699.396 774.269C699.348 774.029 699.324 773.797 699.324 773.573C699.324 772.981 699.44 772.469 699.672 772.037C699.904 771.597 700.232 771.261 700.656 771.029C701.08 770.789 701.576 770.669 702.144 770.669C702.744 770.669 703.26 770.801 703.692 771.065C704.124 771.329 704.452 771.689 704.676 772.145C704.892 772.593 705 773.093 705 773.645Z" fill="white"/>
<path d="M698.232 767.85C697.76 767.634 697.372 767.294 697.068 766.83C696.756 766.358 696.6 765.826 696.6 765.234C696.6 764.73 696.7 764.278 696.9 763.878C697.092 763.478 697.368 763.166 697.728 762.942C698.088 762.71 698.496 762.594 698.952 762.594C699.368 762.594 699.736 762.69 700.056 762.882C700.376 763.066 700.62 763.314 700.788 763.626C700.956 763.306 701.204 763.054 701.532 762.87C701.86 762.686 702.236 762.594 702.66 762.594C703.14 762.594 703.556 762.706 703.908 762.93C704.26 763.154 704.532 763.466 704.724 763.866C704.908 764.258 705 764.706 705 765.21C705 765.826 704.848 766.374 704.544 766.854C704.232 767.326 703.824 767.662 703.32 767.862L702.348 766.818C702.74 766.698 703.052 766.498 703.284 766.218C703.516 765.93 703.632 765.59 703.632 765.198C703.632 764.83 703.536 764.534 703.344 764.31C703.144 764.078 702.876 763.962 702.54 763.962C702.212 763.962 701.956 764.074 701.772 764.298C701.588 764.514 701.488 764.798 701.472 765.15L701.472 765.714L700.116 765.714L700.116 765.15C700.1 764.806 700 764.522 699.816 764.298C699.624 764.074 699.368 763.962 699.048 763.962C698.72 763.962 698.46 764.078 698.268 764.31C698.068 764.542 697.968 764.838 697.968 765.198C697.968 765.574 698.084 765.906 698.316 766.194C698.548 766.482 698.848 766.69 699.216 766.818L698.232 767.85Z" fill="white"/>
<path d="M705 755.549L705 756.917L698.676 756.917L700.464 758.717L699.492 759.665L696.6 756.749L696.6 755.549L705 755.549Z" fill="white"/>
</g>
<g id="Deliverables_2" opacity="0.3">
<path d="M1015.6 849.074L1015.6 847.706L1019.12 847.706L1019.12 843.446L1015.6 843.446L1015.6 842.078L1024 842.078L1024 843.446L1020.48 843.446L1020.48 847.706L1024 847.706L1024 849.074L1015.6 849.074Z" fill="#1F1F1F"/>
<path d="M1015.6 838.227L1015.6 832.935L1016.97 832.935L1016.97 836.859L1019.12 836.859L1019.12 832.935L1020.48 832.935L1020.48 836.859L1022.63 836.859L1022.63 832.935L1024 832.935L1024 838.227L1015.6 838.227Z" fill="#1F1F1F"/>
<path d="M1019.8 826.732L1015.6 830.128L1015.6 828.364L1018.71 825.844L1015.6 823.324L1015.6 821.572L1019.8 824.968L1024 821.572L1024 823.336L1020.89 825.844L1024 828.364L1024 830.128L1019.8 826.732Z" fill="#1F1F1F"/>
<path d="M1021.54 811.539L1024 811.899L1024 812.859L1021.54 812.511L1021.54 813.771L1020.6 813.639L1020.6 812.367L1018.94 812.139L1018.94 813.411L1017.99 813.267L1017.99 812.007L1015.6 811.659L1015.6 810.687L1017.99 811.035L1017.99 809.619L1015.6 809.271L1015.6 808.299L1017.99 808.647L1017.99 807.435L1018.94 807.567L1018.94 808.779L1020.6 809.019L1020.6 807.807L1021.54 807.939L1021.54 809.151L1024 809.511L1024 810.471L1021.54 810.123L1021.54 811.539ZM1018.94 811.167L1020.6 811.407L1020.6 809.979L1018.94 809.751L1018.94 811.167Z" fill="#1F1F1F"/>
<path d="M1019.79 804.512C1019 804.512 1018.29 804.328 1017.65 803.96C1017.01 803.592 1016.51 803.088 1016.15 802.448C1015.78 801.8 1015.6 801.084 1015.6 800.3C1015.6 799.18 1015.98 798.188 1016.74 797.324L1018.01 797.972C1017.68 798.308 1017.42 798.668 1017.24 799.052C1017.06 799.428 1016.97 799.852 1016.97 800.324C1016.97 800.86 1017.09 801.344 1017.33 801.776C1017.57 802.2 1017.9 802.536 1018.34 802.784C1018.76 803.024 1019.25 803.144 1019.8 803.144C1020.35 803.144 1020.84 803.024 1021.28 802.784C1021.7 802.536 1022.03 802.204 1022.27 801.788C1022.51 801.364 1022.63 800.888 1022.63 800.36C1022.63 799.408 1022.28 798.584 1021.56 797.888L1022.85 797.24C1023.62 798.096 1024 799.132 1024 800.348C1024 801.116 1023.82 801.82 1023.45 802.46C1023.08 803.092 1022.58 803.592 1021.94 803.96C1021.29 804.328 1020.57 804.512 1019.79 804.512Z" fill="#1F1F1F"/>
<path d="M1024 791.977C1024 792.417 1023.93 792.861 1023.8 793.309C1023.65 793.749 1023.45 794.137 1023.2 794.473L1021.97 793.849C1022.19 793.553 1022.35 793.245 1022.46 792.925C1022.58 792.605 1022.63 792.289 1022.63 791.977C1022.63 791.505 1022.5 791.121 1022.25 790.825C1021.98 790.521 1021.62 790.369 1021.14 790.369C1020.68 790.369 1020.32 790.525 1020.06 790.837C1019.81 791.141 1019.68 791.561 1019.68 792.097C1019.68 792.369 1019.72 792.673 1019.79 793.009C1019.85 793.337 1019.94 793.657 1020.06 793.969L1015.6 793.969L1015.6 789.001L1016.97 789.001L1016.97 792.601L1018.4 792.601C1018.35 792.361 1018.32 792.129 1018.32 791.905C1018.32 791.313 1018.44 790.801 1018.67 790.369C1018.9 789.929 1019.23 789.593 1019.66 789.361C1020.08 789.121 1020.58 789.001 1021.14 789.001C1021.74 789.001 1022.26 789.133 1022.69 789.397C1023.12 789.661 1023.45 790.021 1023.68 790.477C1023.89 790.925 1024 791.425 1024 791.977Z" fill="#1F1F1F"/>
<path d="M1015.6 785.504L1015.6 782.54C1015.6 781.756 1015.78 781.048 1016.15 780.416C1016.51 779.784 1017.01 779.288 1017.65 778.928C1018.28 778.568 1019 778.388 1019.8 778.388C1020.6 778.388 1021.32 778.568 1021.96 778.928C1022.59 779.288 1023.09 779.784 1023.46 780.416C1023.82 781.048 1024 781.756 1024 782.54L1024 785.504L1015.6 785.504ZM1022.63 782.54C1022.63 782.004 1022.51 781.524 1022.27 781.1C1022.02 780.676 1021.69 780.348 1021.26 780.116C1020.83 779.876 1020.34 779.756 1019.8 779.756C1019.26 779.756 1018.77 779.876 1018.35 780.116C1017.92 780.348 1017.58 780.676 1017.34 781.1C1017.09 781.524 1016.97 782.004 1016.97 782.54L1016.97 784.136L1022.63 784.136L1022.63 782.54Z" fill="#1F1F1F"/>
<path d="M1015.6 775.02L1015.6 771.48C1015.6 771.008 1015.7 770.588 1015.9 770.22C1016.1 769.852 1016.38 769.568 1016.74 769.368C1017.09 769.16 1017.5 769.056 1017.95 769.056C1018.36 769.056 1018.73 769.148 1019.06 769.332C1019.38 769.516 1019.62 769.768 1019.8 770.088C1019.98 769.768 1020.23 769.516 1020.56 769.332C1020.88 769.148 1021.24 769.056 1021.65 769.056C1022.1 769.056 1022.51 769.16 1022.87 769.368C1023.22 769.568 1023.5 769.852 1023.7 770.22C1023.9 770.588 1024 771.008 1024 771.48L1024 775.02L1015.6 775.02ZM1019.12 771.468C1019.12 771.164 1019.01 770.916 1018.8 770.724C1018.6 770.524 1018.33 770.424 1018.01 770.424C1017.7 770.424 1017.45 770.524 1017.26 770.724C1017.06 770.916 1016.97 771.172 1016.97 771.492L1016.97 773.652L1019.12 773.652L1019.12 771.468ZM1022.63 771.492C1022.63 771.172 1022.54 770.916 1022.36 770.724C1022.16 770.524 1021.91 770.424 1021.59 770.424C1021.27 770.424 1021 770.524 1020.8 770.724C1020.59 770.916 1020.48 771.164 1020.48 771.468L1020.48 773.652L1022.63 773.652L1022.63 771.492Z" fill="#1F1F1F"/>
<path d="M1015.6 765.648L1015.6 760.356L1016.97 760.356L1016.97 764.28L1019.12 764.28L1019.12 760.356L1020.48 760.356L1020.48 764.28L1022.63 764.28L1022.63 760.356L1024 760.356L1024 765.648L1015.6 765.648Z" fill="#1F1F1F"/>
<path d="M1017.44 757.286C1016.89 756.998 1016.45 756.614 1016.12 756.134C1015.77 755.646 1015.6 755.09 1015.6 754.466C1015.6 753.954 1015.71 753.49 1015.94 753.074C1016.16 752.658 1016.47 752.334 1016.87 752.102C1017.27 751.862 1017.72 751.742 1018.23 751.742C1018.64 751.742 1019.04 751.822 1019.4 751.982C1019.77 752.142 1020.1 752.362 1020.38 752.642L1022.63 754.886L1022.63 751.742L1024 751.742L1024 757.022L1022.86 757.022L1019.5 753.674C1019.12 753.298 1018.72 753.11 1018.3 753.11C1017.91 753.11 1017.59 753.242 1017.34 753.506C1017.09 753.762 1016.97 754.082 1016.97 754.466C1016.97 754.834 1017.09 755.174 1017.34 755.486C1017.58 755.79 1017.91 756.038 1018.32 756.23L1017.44 757.286Z" fill="#1F1F1F"/>
</g>
<g id="Deliverables_3" opacity="0.3">
<path d="M1340.6 849.074L1340.6 847.706L1344.12 847.706L1344.12 843.446L1340.6 843.446L1340.6 842.078L1349 842.078L1349 843.446L1345.48 843.446L1345.48 847.706L1349 847.706L1349 849.074L1340.6 849.074Z" fill="#1F1F1F"/>
<path d="M1340.6 838.227L1340.6 832.935L1341.97 832.935L1341.97 836.859L1344.12 836.859L1344.12 832.935L1345.48 832.935L1345.48 836.859L1347.63 836.859L1347.63 832.935L1349 832.935L1349 838.227L1340.6 838.227Z" fill="#1F1F1F"/>
<path d="M1344.8 826.732L1340.6 830.128L1340.6 828.364L1343.71 825.844L1340.6 823.324L1340.6 821.572L1344.8 824.968L1349 821.572L1349 823.336L1345.89 825.844L1349 828.364L1349 830.128L1344.8 826.732Z" fill="#1F1F1F"/>
<path d="M1346.54 811.539L1349 811.899L1349 812.859L1346.54 812.511L1346.54 813.771L1345.6 813.639L1345.6 812.367L1343.94 812.139L1343.94 813.411L1342.99 813.267L1342.99 812.007L1340.6 811.659L1340.6 810.687L1342.99 811.035L1342.99 809.619L1340.6 809.271L1340.6 808.299L1342.99 808.647L1342.99 807.435L1343.94 807.567L1343.94 808.779L1345.6 809.019L1345.6 807.807L1346.54 807.939L1346.54 809.151L1349 809.511L1349 810.471L1346.54 810.123L1346.54 811.539ZM1343.94 811.167L1345.6 811.407L1345.6 809.979L1343.94 809.751L1343.94 811.167Z" fill="#1F1F1F"/>
<path d="M1340.6 804.152L1340.6 798.86L1341.97 798.86L1341.97 802.784L1344.12 802.784L1344.12 798.86L1345.48 798.86L1345.48 802.784L1349 802.784L1349 804.152L1340.6 804.152Z" fill="#1F1F1F"/>
<path d="M1340.6 795.496L1340.6 790.204L1341.97 790.204L1341.97 794.128L1344.12 794.128L1344.12 790.204L1345.48 790.204L1345.48 794.128L1349 794.128L1349 795.496L1340.6 795.496Z" fill="#1F1F1F"/>
<path d="M1340.6 786.84L1340.6 781.548L1341.97 781.548L1341.97 785.472L1344.12 785.472L1344.12 781.548L1345.48 781.548L1345.48 785.472L1349 785.472L1349 786.84L1340.6 786.84Z" fill="#1F1F1F"/>
<path d="M1340.6 778.184L1340.6 772.892L1341.97 772.892L1341.97 776.816L1344.12 776.816L1344.12 772.892L1345.48 772.892L1345.48 776.816L1349 776.816L1349 778.184L1340.6 778.184Z" fill="#1F1F1F"/>
<path d="M1340.6 769.527L1340.6 764.235L1341.97 764.235L1341.97 768.159L1344.12 768.159L1344.12 764.235L1345.48 764.235L1345.48 768.159L1349 768.159L1349 769.527L1340.6 769.527Z" fill="#1F1F1F"/>
<path d="M1340.6 760.871L1340.6 755.579L1341.97 755.579L1341.97 759.503L1344.12 759.503L1344.12 755.579L1345.48 755.579L1345.48 759.503L1349 759.503L1349 760.871L1340.6 760.871Z" fill="#1F1F1F"/>
</g>
<g id="Deliverables_4" opacity="0.3">
<path d="M1494.6 849.074L1494.6 847.706L1498.12 847.706L1498.12 843.446L1494.6 843.446L1494.6 842.078L1503 842.078L1503 843.446L1499.48 843.446L1499.48 847.706L1503 847.706L1503 849.074L1494.6 849.074Z" fill="#1F1F1F"/>
<path d="M1494.6 838.227L1494.6 832.935L1495.97 832.935L1495.97 836.859L1498.12 836.859L1498.12 832.935L1499.48 832.935L1499.48 836.859L1501.63 836.859L1501.63 832.935L1503 832.935L1503 838.227L1494.6 838.227Z" fill="#1F1F1F"/>
<path d="M1498.8 826.732L1494.6 830.128L1494.6 828.364L1497.71 825.844L1494.6 823.324L1494.6 821.572L1498.8 824.968L1503 821.572L1503 823.336L1499.89 825.844L1503 828.364L1503 830.128L1498.8 826.732Z" fill="#1F1F1F"/>
<path d="M1500.54 811.539L1503 811.899L1503 812.859L1500.54 812.511L1500.54 813.771L1499.6 813.639L1499.6 812.367L1497.94 812.139L1497.94 813.411L1496.99 813.267L1496.99 812.007L1494.6 811.659L1494.6 810.687L1496.99 811.035L1496.99 809.619L1494.6 809.271L1494.6 808.299L1496.99 808.647L1496.99 807.435L1497.94 807.567L1497.94 808.779L1499.6 809.019L1499.6 807.807L1500.54 807.939L1500.54 809.151L1503 809.511L1503 810.471L1500.54 810.123L1500.54 811.539ZM1497.94 811.167L1499.6 811.407L1499.6 809.979L1497.94 809.751L1497.94 811.167Z" fill="#1F1F1F"/>
<path d="M1494.6 804.152L1494.6 798.86L1495.97 798.86L1495.97 802.784L1498.12 802.784L1498.12 798.86L1499.48 798.86L1499.48 802.784L1501.63 802.784L1501.63 798.86L1503 798.86L1503 804.152L1494.6 804.152Z" fill="#1F1F1F"/>
<path d="M1500.11 789.957L1500.11 788.493L1501.48 788.493L1501.48 789.957L1503 789.957L1503 791.325L1501.48 791.325L1501.48 795.837L1500.26 795.837L1494.6 791.097L1494.6 789.957L1500.11 789.957ZM1500.11 793.905L1500.11 791.325L1497.01 791.325L1500.11 793.905Z" fill="#1F1F1F"/>
<path d="M1494.6 785.223L1494.6 779.931L1495.97 779.931L1495.97 783.855L1498.12 783.855L1498.12 779.931L1499.48 779.931L1499.48 783.855L1503 783.855L1503 785.223L1494.6 785.223Z" fill="#1F1F1F"/>
<path d="M1503 774.418C1503 774.858 1502.93 775.302 1502.8 775.75C1502.65 776.19 1502.45 776.578 1502.2 776.914L1500.97 776.29C1501.19 775.994 1501.35 775.686 1501.46 775.366C1501.58 775.046 1501.63 774.73 1501.63 774.418C1501.63 773.946 1501.5 773.562 1501.25 773.266C1500.98 772.962 1500.62 772.81 1500.14 772.81C1499.68 772.81 1499.32 772.966 1499.06 773.278C1498.81 773.582 1498.68 774.002 1498.68 774.538C1498.68 774.81 1498.72 775.114 1498.79 775.45C1498.85 775.778 1498.94 776.098 1499.06 776.41L1494.6 776.41L1494.6 771.442L1495.97 771.442L1495.97 775.042L1497.4 775.042C1497.35 774.802 1497.32 774.57 1497.32 774.346C1497.32 773.754 1497.44 773.242 1497.67 772.81C1497.9 772.37 1498.23 772.034 1498.66 771.802C1499.08 771.562 1499.58 771.442 1500.14 771.442C1500.74 771.442 1501.26 771.574 1501.69 771.838C1502.12 772.102 1502.45 772.462 1502.68 772.918C1502.89 773.366 1503 773.866 1503 774.418Z" fill="#1F1F1F"/>
<path d="M1494.6 767.945L1494.6 764.405C1494.6 763.933 1494.7 763.513 1494.9 763.145C1495.1 762.777 1495.38 762.493 1495.74 762.293C1496.09 762.085 1496.5 761.981 1496.95 761.981C1497.36 761.981 1497.73 762.073 1498.06 762.257C1498.38 762.441 1498.62 762.693 1498.8 763.013C1498.98 762.693 1499.23 762.441 1499.56 762.257C1499.88 762.073 1500.24 761.981 1500.65 761.981C1501.1 761.981 1501.51 762.085 1501.87 762.293C1502.22 762.493 1502.5 762.777 1502.7 763.145C1502.9 763.513 1503 763.933 1503 764.405L1503 767.945L1494.6 767.945ZM1498.12 764.393C1498.12 764.089 1498.01 763.841 1497.8 763.649C1497.6 763.449 1497.33 763.349 1497.01 763.349C1496.7 763.349 1496.45 763.449 1496.26 763.649C1496.06 763.841 1495.97 764.097 1495.97 764.417L1495.97 766.577L1498.12 766.577L1498.12 764.393ZM1501.63 764.417C1501.63 764.097 1501.54 763.841 1501.36 763.649C1501.16 763.449 1500.91 763.349 1500.59 763.349C1500.27 763.349 1500 763.449 1499.8 763.649C1499.59 763.841 1499.48 764.089 1499.48 764.393L1499.48 766.577L1501.63 766.577L1501.63 764.417Z" fill="#1F1F1F"/>
<path d="M1496.23 758.994C1495.76 758.778 1495.37 758.438 1495.07 757.974C1494.76 757.502 1494.6 756.97 1494.6 756.378C1494.6 755.874 1494.7 755.422 1494.9 755.022C1495.09 754.622 1495.37 754.31 1495.73 754.086C1496.09 753.854 1496.5 753.738 1496.95 753.738C1497.37 753.738 1497.74 753.834 1498.06 754.026C1498.38 754.21 1498.62 754.458 1498.79 754.77C1498.96 754.45 1499.2 754.198 1499.53 754.014C1499.86 753.83 1500.24 753.738 1500.66 753.738C1501.14 753.738 1501.56 753.85 1501.91 754.074C1502.26 754.298 1502.53 754.61 1502.72 755.01C1502.91 755.402 1503 755.85 1503 756.354C1503 756.97 1502.85 757.518 1502.54 757.998C1502.23 758.47 1501.82 758.806 1501.32 759.006L1500.35 757.962C1500.74 757.842 1501.05 757.642 1501.28 757.362C1501.52 757.074 1501.63 756.734 1501.63 756.342C1501.63 755.974 1501.54 755.678 1501.34 755.454C1501.14 755.222 1500.88 755.106 1500.54 755.106C1500.21 755.106 1499.96 755.218 1499.77 755.442C1499.59 755.658 1499.49 755.942 1499.47 756.294L1499.47 756.858L1498.12 756.858L1498.12 756.294C1498.1 755.95 1498 755.666 1497.82 755.442C1497.62 755.218 1497.37 755.106 1497.05 755.106C1496.72 755.106 1496.46 755.222 1496.27 755.454C1496.07 755.686 1495.97 755.982 1495.97 756.342C1495.97 756.718 1496.08 757.05 1496.32 757.338C1496.55 757.626 1496.85 757.834 1497.22 757.962L1496.23 758.994Z" fill="#1F1F1F"/>
</g>
<g id="Deliverables_5" opacity="0.3">
<path d="M1634.6 849.074L1634.6 847.706L1638.12 847.706L1638.12 843.446L1634.6 843.446L1634.6 842.078L1643 842.078L1643 843.446L1639.48 843.446L1639.48 847.706L1643 847.706L1643 849.074L1634.6 849.074Z" fill="#1F1F1F"/>
<path d="M1634.6 838.227L1634.6 832.935L1635.97 832.935L1635.97 836.859L1638.12 836.859L1638.12 832.935L1639.48 832.935L1639.48 836.859L1641.63 836.859L1641.63 832.935L1643 832.935L1643 838.227L1634.6 838.227Z" fill="#1F1F1F"/>
<path d="M1638.8 826.732L1634.6 830.128L1634.6 828.364L1637.71 825.844L1634.6 823.324L1634.6 821.572L1638.8 824.968L1643 821.572L1643 823.336L1639.89 825.844L1643 828.364L1643 830.128L1638.8 826.732Z" fill="#1F1F1F"/>
<path d="M1640.54 811.539L1643 811.899L1643 812.859L1640.54 812.511L1640.54 813.771L1639.6 813.639L1639.6 812.367L1637.94 812.139L1637.94 813.411L1636.99 813.267L1636.99 812.007L1634.6 811.659L1634.6 810.687L1636.99 811.035L1636.99 809.619L1634.6 809.271L1634.6 808.299L1636.99 808.647L1636.99 807.435L1637.94 807.567L1637.94 808.779L1639.6 809.019L1639.6 807.807L1640.54 807.939L1640.54 809.151L1643 809.511L1643 810.471L1640.54 810.123L1640.54 811.539ZM1637.94 811.167L1639.6 811.407L1639.6 809.979L1637.94 809.751L1637.94 811.167Z" fill="#1F1F1F"/>
<path d="M1634.6 804.152L1634.6 798.86L1635.97 798.86L1635.97 802.784L1638.12 802.784L1638.12 798.86L1639.48 798.86L1639.48 802.784L1643 802.784L1643 804.152L1634.6 804.152Z" fill="#1F1F1F"/>
<path d="M1636.23 795.916C1635.76 795.7 1635.37 795.36 1635.07 794.896C1634.76 794.424 1634.6 793.892 1634.6 793.3C1634.6 792.796 1634.7 792.344 1634.9 791.944C1635.09 791.544 1635.37 791.232 1635.73 791.008C1636.09 790.776 1636.5 790.66 1636.95 790.66C1637.37 790.66 1637.74 790.756 1638.06 790.948C1638.38 791.132 1638.62 791.38 1638.79 791.692C1638.96 791.372 1639.2 791.12 1639.53 790.936C1639.86 790.752 1640.24 790.66 1640.66 790.66C1641.14 790.66 1641.56 790.772 1641.91 790.996C1642.26 791.22 1642.53 791.532 1642.72 791.932C1642.91 792.324 1643 792.772 1643 793.276C1643 793.892 1642.85 794.44 1642.54 794.92C1642.23 795.392 1641.82 795.728 1641.32 795.928L1640.35 794.884C1640.74 794.764 1641.05 794.564 1641.28 794.284C1641.52 793.996 1641.63 793.656 1641.63 793.264C1641.63 792.896 1641.54 792.6 1641.34 792.376C1641.14 792.144 1640.88 792.028 1640.54 792.028C1640.21 792.028 1639.96 792.14 1639.77 792.364C1639.59 792.58 1639.49 792.864 1639.47 793.216L1639.47 793.78L1638.12 793.78L1638.12 793.216C1638.1 792.872 1638 792.588 1637.82 792.364C1637.62 792.14 1637.37 792.028 1637.05 792.028C1636.72 792.028 1636.46 792.144 1636.27 792.376C1636.07 792.608 1635.97 792.904 1635.97 793.264C1635.97 793.64 1636.08 793.972 1636.32 794.26C1636.55 794.548 1636.85 794.756 1637.22 794.884L1636.23 795.916Z" fill="#1F1F1F"/>
<path d="M1634.6 787.016L1634.6 781.724L1635.97 781.724L1635.97 785.648L1638.12 785.648L1638.12 781.724L1639.48 781.724L1639.48 785.648L1643 785.648L1643 787.016L1634.6 787.016Z" fill="#1F1F1F"/>
<path d="M1643 774.627C1643 775.355 1642.82 776.023 1642.46 776.631C1642.1 777.239 1641.6 777.719 1640.96 778.071C1640.32 778.423 1639.6 778.599 1638.8 778.599C1638 778.599 1637.28 778.423 1636.64 778.071C1636 777.719 1635.5 777.239 1635.14 776.631C1634.78 776.023 1634.6 775.355 1634.6 774.627C1634.6 773.891 1634.78 773.219 1635.14 772.611C1635.5 772.003 1636 771.523 1636.64 771.171C1637.28 770.819 1638 770.643 1638.8 770.643C1639.6 770.643 1640.32 770.819 1640.96 771.171C1641.6 771.523 1642.1 772.003 1642.46 772.611C1642.82 773.219 1643 773.891 1643 774.627ZM1641.63 774.627C1641.63 774.131 1641.51 773.687 1641.27 773.295C1641.03 772.895 1640.7 772.583 1640.26 772.359C1639.83 772.127 1639.34 772.011 1638.8 772.011C1638.26 772.011 1637.77 772.127 1637.34 772.359C1636.9 772.583 1636.57 772.895 1636.33 773.295C1636.09 773.687 1635.97 774.131 1635.97 774.627C1635.97 775.115 1636.09 775.559 1636.33 775.959C1636.57 776.351 1636.9 776.663 1637.34 776.895C1637.77 777.119 1638.26 777.231 1638.8 777.231C1639.34 777.231 1639.83 777.119 1640.26 776.895C1640.7 776.663 1641.03 776.351 1641.27 775.959C1641.51 775.559 1641.63 775.115 1641.63 774.627Z" fill="#1F1F1F"/>
<path d="M1634.6 767.031L1634.6 761.739L1635.97 761.739L1635.97 765.663L1638.12 765.663L1638.12 761.739L1639.48 761.739L1639.48 765.663L1641.63 765.663L1641.63 761.739L1643 761.739L1643 767.031L1634.6 767.031Z" fill="#1F1F1F"/>
<path d="M1635.97 754.6L1635.97 758.608L1634.6 758.608L1634.6 752.98L1635.81 752.98L1643 756.712L1643 758.248L1635.97 754.6Z" fill="#1F1F1F"/>
</g>
</g>
<g id="Deliverables_6" opacity="0.3">
<path d="M240.564 187.79C240.564 187.006 240.748 186.294 241.116 185.654C241.484 185.014 241.988 184.514 242.628 184.154C243.276 183.786 243.992 183.602 244.776 183.602C245.896 183.602 246.888 183.982 247.752 184.742L247.104 186.014C246.768 185.678 246.408 185.422 246.024 185.246C245.648 185.062 245.224 184.97 244.752 184.97C244.216 184.97 243.732 185.09 243.3 185.33C242.876 185.57 242.54 185.906 242.292 186.338C242.052 186.762 241.932 187.25 241.932 187.802C241.932 188.354 242.052 188.846 242.292 189.278C242.54 189.702 242.872 190.034 243.288 190.274C243.712 190.514 244.188 190.634 244.716 190.634C245.668 190.634 246.492 190.278 247.188 189.566L247.836 190.85C246.98 191.618 245.944 192.002 244.728 192.002C243.96 192.002 243.256 191.818 242.616 191.45C241.984 191.082 241.484 190.578 241.116 189.938C240.748 189.29 240.564 188.574 240.564 187.79Z" fill="#1F1F1F"/>
<path d="M254.508 192.002C253.716 192.002 253 191.822 252.36 191.462C251.72 191.094 251.216 190.59 250.848 189.95C250.488 189.31 250.308 188.594 250.308 187.802C250.308 187.01 250.488 186.294 250.848 185.654C251.216 185.014 251.72 184.514 252.36 184.154C253 183.786 253.716 183.602 254.508 183.602C255.3 183.602 256.016 183.786 256.656 184.154C257.296 184.514 257.796 185.014 258.156 185.654C258.524 186.294 258.708 187.01 258.708 187.802C258.708 188.594 258.524 189.31 258.156 189.95C257.796 190.59 257.296 191.094 256.656 191.462C256.016 191.822 255.3 192.002 254.508 192.002ZM254.508 190.634C255.052 190.634 255.536 190.514 255.96 190.274C256.392 190.026 256.728 189.69 256.968 189.266C257.216 188.834 257.34 188.346 257.34 187.802C257.34 187.258 257.216 186.774 256.968 186.35C256.728 185.918 256.392 185.582 255.96 185.342C255.536 185.094 255.052 184.97 254.508 184.97C253.964 184.97 253.476 185.094 253.044 185.342C252.62 185.582 252.284 185.918 252.036 186.35C251.796 186.774 251.676 187.258 251.676 187.802C251.676 188.346 251.796 188.834 252.036 189.266C252.284 189.69 252.62 190.026 253.044 190.274C253.476 190.514 253.964 190.634 254.508 190.634Z" fill="#1F1F1F"/>
<path d="M262.081 183.602H263.449V190.634H267.445V192.002H262.081V183.602Z" fill="#1F1F1F"/>
<path d="M273.543 192.002C272.751 192.002 272.035 191.822 271.395 191.462C270.755 191.094 270.251 190.59 269.883 189.95C269.523 189.31 269.343 188.594 269.343 187.802C269.343 187.01 269.523 186.294 269.883 185.654C270.251 185.014 270.755 184.514 271.395 184.154C272.035 183.786 272.751 183.602 273.543 183.602C274.335 183.602 275.051 183.786 275.691 184.154C276.331 184.514 276.831 185.014 277.191 185.654C277.559 186.294 277.743 187.01 277.743 187.802C277.743 188.594 277.559 189.31 277.191 189.95C276.831 190.59 276.331 191.094 275.691 191.462C275.051 191.822 274.335 192.002 273.543 192.002ZM273.543 190.634C274.087 190.634 274.571 190.514 274.995 190.274C275.427 190.026 275.763 189.69 276.003 189.266C276.251 188.834 276.375 188.346 276.375 187.802C276.375 187.258 276.251 186.774 276.003 186.35C275.763 185.918 275.427 185.582 274.995 185.342C274.571 185.094 274.087 184.97 273.543 184.97C272.999 184.97 272.511 185.094 272.079 185.342C271.655 185.582 271.319 185.918 271.071 186.35C270.831 186.774 270.711 187.258 270.711 187.802C270.711 188.346 270.831 188.834 271.071 189.266C271.319 189.69 271.655 190.026 272.079 190.274C272.511 190.514 272.999 190.634 273.543 190.634Z" fill="#1F1F1F"/>
<path d="M285.748 192.002L283.756 188.978H282.484V192.002H281.116V183.602H284.476C284.996 183.602 285.464 183.718 285.88 183.95C286.296 184.182 286.62 184.502 286.852 184.91C287.092 185.318 287.212 185.778 287.212 186.29C287.212 186.922 287.036 187.47 286.684 187.934C286.34 188.39 285.876 188.698 285.292 188.858L287.452 192.002H285.748ZM282.484 187.61H284.476C284.884 187.61 285.212 187.49 285.46 187.25C285.716 187.002 285.844 186.682 285.844 186.29C285.844 185.898 285.716 185.582 285.46 185.342C285.212 185.094 284.884 184.97 284.476 184.97H282.484V187.61Z" fill="#1F1F1F"/>
<path d="M296.061 183.602H299.193C299.745 183.602 300.241 183.726 300.681 183.974C301.121 184.222 301.465 184.566 301.713 185.006C301.961 185.446 302.085 185.938 302.085 186.482C302.085 187.034 301.961 187.53 301.713 187.97C301.465 188.402 301.121 188.742 300.681 188.99C300.241 189.238 299.745 189.362 299.193 189.362H297.429V192.002H296.061V183.602ZM299.193 187.994C299.633 187.994 299.997 187.854 300.285 187.574C300.573 187.286 300.717 186.922 300.717 186.482C300.717 186.042 300.573 185.682 300.285 185.402C299.997 185.114 299.633 184.97 299.193 184.97H297.429V187.994H299.193Z" fill="#1F1F1F"/>
<path d="M310.592 190.538H305.816L305.144 192.002H303.644L307.544 183.602H308.876L312.776 192.002H311.276L310.592 190.538ZM309.956 189.17L308.204 185.39L306.452 189.17H309.956Z" fill="#1F1F1F"/>
<path d="M315.811 183.602H317.179V190.634H321.175V192.002H315.811V183.602Z" fill="#1F1F1F"/>
<path d="M324.245 183.602H329.537V184.97H325.613V187.118H329.537V188.486H325.613V190.634H329.537V192.002H324.245V183.602Z" fill="#1F1F1F"/>
<path d="M335.44 184.97H332.26V183.602H339.976V184.97H336.808V192.002H335.44V184.97Z" fill="#1F1F1F"/>
<path d="M345.608 184.97H342.428V183.602H350.144V184.97H346.976V192.002H345.608V184.97Z" fill="#1F1F1F"/>
<path d="M353.131 183.602H358.423V184.97H354.499V187.118H358.423V188.486H354.499V190.634H358.423V192.002H353.131V183.602Z" fill="#1F1F1F"/>
</g>
</g>
</g>
<defs>
<clipPath id="clip0">
<rect width="1446" height="650" fill="white" transform="translate(240 240)"/>
</clipPath>
</defs>
</svg>
