<svg width="203" height="152" viewBox="0 0 203 152" fill="none" xmlns="http://www.w3.org/2000/svg">
<path d="M200.1 56H203V81.4792C202.089 86.5726 198.559 90.9991 194.006 93.2145C191.011 94.6704 187.576 94.894 184.328 94.4214C180.061 93.7336 176.291 90.9781 173.88 87.3828C171.274 83.5554 170.632 78.5338 171.763 74.065C172.757 70.0393 175.504 66.6128 178.905 64.4059C182.617 62.0048 187.315 61.5702 191.528 62.6209C194.955 63.5071 197.838 65.7984 200.108 68.4949C200.092 64.3299 200.104 60.165 200.1 56ZM184.15 65.6338C180.326 66.5664 177.037 69.4443 175.442 73.0903C174.307 75.6264 174.157 78.5338 174.667 81.2472C175.33 84.5766 177.476 87.4629 180.202 89.3534C183.657 91.7165 188.256 92.0836 192.1 90.5307C194.975 89.3112 197.374 86.9988 198.787 84.1799C200.307 81.053 200.498 77.3058 199.392 74.0102C198.285 70.8284 195.907 68.1615 192.974 66.6171C190.265 65.2498 187.087 64.9333 184.15 65.6338ZM0 60.7473C1.50386 60.3295 3.06572 60.6798 4.51157 61.1524C8.34372 62.4563 11.542 65.5748 13.0003 69.4106C13.7833 71.453 13.8579 73.6768 13.8827 75.8416C13.8786 78.8672 13.8869 81.897 13.8661 84.9226C14.8646 80.323 18.2451 76.2762 22.7567 74.9765C26.2243 73.7696 30.0564 75.1326 32.7741 77.4324C35.0941 79.2934 36.453 82.0658 37.2029 84.9226C37.2111 81.0488 37.0827 77.1666 37.2733 73.297C37.5426 66.271 44.0469 60.1185 50.9737 60.5532C51.1809 67.7564 50.9903 74.9638 51.0731 82.1671C51.1891 87.3954 47.9204 92.3917 43.3219 94.6071C37.207 97.7129 29.087 95.4215 25.5241 89.4463C22.6076 94.2864 16.6584 96.8562 11.2106 95.7422C5.37329 94.7843 0.625571 89.5433 0 83.5765V60.7473ZM106.766 78.7828C106.31 71.1871 112.023 63.9248 119.285 62.4268C122.844 61.7389 126.664 62.0512 129.924 63.7391C134.788 66.3006 138.471 71.4276 138.674 77.0949C138.699 82.8296 138.678 88.5601 138.682 94.2948C137.646 94.2948 136.611 94.2948 135.575 94.2948C135.571 92.2989 135.567 90.3029 135.583 88.3069C132.397 92.1596 127.691 94.9236 122.624 94.6282C114.281 94.9573 106.621 87.2773 106.766 78.7828ZM119.915 65.579C116.63 66.2542 113.75 68.44 111.915 71.2589C109.744 74.5756 109.322 78.922 110.556 82.6735C112.437 88.366 118.465 92.2693 124.34 91.3747C129.17 90.8515 133.433 87.1844 134.954 82.5215C135.708 80.1627 135.782 77.5886 135.227 75.1791C134.307 71.2715 131.445 67.959 127.869 66.3259C125.379 65.2456 122.558 65.0009 119.915 65.579ZM144.83 67.1825C147.382 64.0514 151.31 62.0639 155.345 62.2791C159.227 62.2706 162.897 64.3384 165.317 67.364C167.893 70.3853 169.211 74.3857 169.236 78.365C169.232 83.6778 169.244 88.9863 169.232 94.299C168.196 94.2948 167.164 94.2948 166.133 94.2948C166.124 88.9736 166.124 83.6524 166.133 78.3313C166.137 74.5123 164.467 70.7187 161.609 68.2332C158.858 65.6423 154.607 64.984 151.173 66.4567C146.678 68.4358 143.803 73.4363 143.857 78.3692C143.865 83.6778 143.865 88.9863 143.857 94.2948C142.821 94.2948 141.789 94.2948 140.758 94.299C140.745 88.9821 140.758 83.6651 140.749 78.3481C140.778 74.2929 142.154 70.2208 144.83 67.1825ZM60.175 83.0026C60.1791 76.1792 60.1626 69.3599 60.1833 62.5365C61.1817 62.5365 62.1801 62.5407 63.1786 62.5407C63.1951 69.1996 63.1579 75.8542 63.1951 82.5131C63.1744 86.5979 66.2816 90.3366 70.1634 91.189C72.3384 91.5899 74.704 91.3367 76.5973 90.113C79.1286 88.5474 80.8727 85.6526 80.8851 82.6144C80.8893 75.926 80.8893 69.2376 80.8851 62.5449C81.9209 62.5407 82.9607 62.5407 83.9964 62.5449C83.9964 69.2207 83.9964 75.9007 83.9964 82.5764C83.9343 87.2899 88.1642 91.5266 92.7917 91.3578C97.7797 91.5688 102.117 86.7498 101.711 81.724C101.703 75.331 101.707 68.9337 101.707 62.5407C102.71 62.5407 103.708 62.5407 104.711 62.5449C104.707 69.3768 104.719 76.2129 104.707 83.0448C104.611 88.5348 100.212 93.5395 94.9004 94.3497C90.0989 95.2485 84.8416 92.8348 82.4429 88.4799C79.779 93.3749 73.5564 95.6958 68.3696 93.9699C63.8124 92.4719 60.2206 87.9524 60.175 83.0026Z" fill="#1F1F1F"/>
</svg>
