<svg xmlns="http://www.w3.org/2000/svg" width="168" height="65" viewBox="0 0 168 65">
    <g fill="#1F1F1F" fill-rule="nonzero">
        <path d="M68.933 33.754c-6.298 4.657-15.458 7.137-23.359 7.137-11.068 0-20.991-4.083-28.548-10.877-.573-.534-.077-1.26.649-.84 8.13 4.733 18.167 7.557 28.548 7.557 6.985 0 14.694-1.45 21.794-4.465 1.068-.42 1.946.725.916 1.488zm2.633-3.015c-.801-1.03-5.343-.496-7.366-.229-.61.076-.725-.458-.153-.84 3.626-2.557 9.542-1.793 10.229-.954.687.84-.191 6.794-3.588 9.618-.534.42-1.03.191-.801-.381.763-1.909 2.48-6.145 1.679-7.214zm-7.252-19.007v-2.48c0-.383.268-.612.611-.612h11.068c.344 0 .65.268.65.611v2.1c0 .343-.306.8-.84 1.564l-5.725 8.168c2.137-.038 4.389.267 6.297 1.336.42.229.534.61.573.954v2.633c0 .382-.382.802-.802.573-3.397-1.794-7.939-1.985-11.679.038-.382.19-.801-.19-.801-.572v-2.52c0-.381 0-1.068.42-1.679l6.64-9.503h-5.763c-.343 0-.649-.267-.649-.611zM23.972 27.113h-3.359c-.305-.038-.572-.267-.61-.572V9.289c0-.343.305-.61.649-.61h3.13c.343 0 .572.267.61.572v2.252h.076c.802-2.176 2.367-3.206 4.428-3.206 2.099 0 3.435 1.03 4.35 3.206.802-2.176 2.672-3.206 4.657-3.206 1.412 0 2.939.572 3.893 1.908 1.069 1.45.84 3.55.84 5.42v10.916c0 .343-.306.61-.65.61h-3.32c-.343-.038-.61-.305-.61-.61v-9.16c0-.725.076-2.557-.077-3.244-.267-1.145-.992-1.489-1.984-1.489-.802 0-1.68.534-2.023 1.412-.344.878-.306 2.328-.306 3.32v9.16c0 .344-.305.611-.648.611h-3.36c-.343-.038-.61-.305-.61-.61v-9.16c0-1.909.306-4.771-2.06-4.771-2.405 0-2.329 2.748-2.329 4.77v9.16c-.038.306-.305.573-.687.573zM86.184 8.297c5 0 7.71 4.275 7.71 9.733 0 5.267-2.977 9.465-7.71 9.465-4.885 0-7.557-4.275-7.557-9.618-.038-5.382 2.672-9.58 7.557-9.58zm0 3.55c-2.48 0-2.634 3.396-2.634 5.496 0 2.099-.038 6.602 2.596 6.602 2.595 0 2.748-3.625 2.748-5.84 0-1.45-.077-3.205-.496-4.58-.382-1.22-1.145-1.679-2.214-1.679zm14.16 15.266h-3.359c-.343-.038-.61-.305-.61-.61V9.213a.66.66 0 0 1 .648-.573h3.13c.305 0 .534.23.61.497v2.633h.077c.954-2.366 2.252-3.473 4.58-3.473 1.488 0 2.977.534 3.931 2.023.878 1.374.878 3.702.878 5.381V26.58c-.038.305-.305.534-.649.534h-3.359c-.305-.038-.572-.267-.61-.534v-9.39c0-1.907.229-4.655-2.1-4.655-.8 0-1.564.534-1.946 1.374-.458 1.068-.534 2.099-.534 3.282v9.313a.699.699 0 0 1-.687.61zm-41.45-.038a.69.69 0 0 1-.8.076c-1.108-.916-1.337-1.374-1.947-2.251-1.832 1.87-3.168 2.442-5.535 2.442-2.824 0-5.038-1.755-5.038-5.229 0-2.748 1.489-4.58 3.588-5.496 1.832-.801 4.39-.954 6.336-1.183v-.42c0-.801.076-1.755-.42-2.442-.42-.611-1.183-.878-1.87-.878-1.298 0-2.443.649-2.71 2.023-.076.305-.267.61-.573.61l-3.244-.343c-.267-.076-.572-.267-.496-.687.763-3.97 4.313-5.153 7.519-5.153 1.641 0 3.778.42 5.076 1.68 1.641 1.526 1.489 3.587 1.489 5.801v5.229c0 1.565.648 2.252 1.26 3.13.228.305.266.687 0 .877-.726.573-1.947 1.642-2.634 2.214zm-3.396-8.206v-.725c-2.443 0-5 .534-5 3.397 0 1.45.763 2.443 2.061 2.443.954 0 1.794-.573 2.328-1.527.649-1.183.61-2.29.61-3.588zm-40.724 8.206a.69.69 0 0 1-.802.076c-1.106-.916-1.335-1.374-1.946-2.251-1.832 1.87-3.168 2.442-5.534 2.442-2.825 0-5.038-1.755-5.038-5.229 0-2.748 1.488-4.58 3.587-5.496 1.832-.801 4.39-.954 6.336-1.183v-.42c0-.801.076-1.755-.42-2.442-.42-.611-1.183-.878-1.87-.878-1.298 0-2.443.649-2.71 2.023-.076.305-.267.61-.572.61l-3.245-.343c-.267-.076-.572-.267-.496-.687.764-3.97 4.313-5.153 7.52-5.153 1.64 0 3.778.42 5.075 1.68 1.642 1.526 1.489 3.587 1.489 5.801v5.229c0 1.565.649 2.252 1.26 3.13.228.305.267.687 0 .877-.726.573-1.947 1.642-2.634 2.214zm-3.359-8.206v-.725c-2.442 0-5 .534-5 3.397 0 1.45.764 2.443 2.061 2.443.955 0 1.794-.573 2.329-1.527.648-1.183.61-2.29.61-3.588zM87.62 44.544c.953-.388 2.272.287 2.086 1.424-.025 1.27-1.827 1.643-2.616.828-.646-.661-.4-1.99.53-2.252zm-75.737.032c.857-.006 1.714-.004 2.573-.004-.006 3.28.006 6.558-.008 9.836.014.353-.017.734.16 1.056.342.3.825.136 1.234.161 0 .583-.002 1.167-.008 1.75-.945.278-2.034.45-2.939-.038-.747-.426-1.016-1.342-1.012-2.153-.002-3.536-.002-7.071 0-10.608zm15.86-.004c.865.002 1.728.002 2.592-.002.006 1.536.014 3.071-.006 4.607 1.127-.825 2.663-1.162 3.976-.6 1.244.529 1.951 1.844 2.141 3.13.176 1.34.107 2.768-.51 3.995-.48.968-1.386 1.757-2.467 1.95-1.2.235-2.47-.139-3.374-.955-.067.276-.134.552-.203.828-.715-.004-1.432-.004-2.147-.004 0-4.315 0-8.632-.002-12.949zm2.592 6.123c.01 1.547.002 3.094.006 4.64.824.374 1.855.664 2.691.165.788-.525.865-1.581.886-2.44-.021-.874-.058-1.938-.819-2.515-.847-.534-1.922-.257-2.764.15zm17.708-6.123c.855.002 1.712.002 2.567-.002-.004 3.28.006 6.562-.006 9.842.017.358-.029.759.186 1.073.349.267.809.12 1.211.134l-.003 1.75c-.926.282-1.986.449-2.887-.002-.792-.402-1.074-1.353-1.066-2.183-.006-3.538 0-7.075-.002-10.612zm27.455 0c.865 0 1.731.002 2.596 0 0 3.341.004 6.68-.004 10.02.013.291-.004.608.151.87.336.301.817.138 1.222.165l-.01 1.754c-1.016.297-2.25.481-3.153-.205-.813-.665-.81-1.815-.805-2.776.007-3.276.002-6.552.003-9.828zm5.678 0c.865.002 1.73.002 2.596-.002-.002 3.345.003 6.688-.004 10.031.02.338-.035.815.335.99.336.09.69.034 1.035.036-.003.583-.005 1.165-.005 1.75-.997.295-2.191.475-3.096-.153-.752-.556-.863-1.566-.863-2.429.004-3.408 0-6.814.002-10.223zM3.267 48.55c1.3-.523 2.852-.215 3.884.726.059-.241.118-.483.18-.722.705.002 1.41.002 2.116 0-.006 2.9.011 5.8-.008 8.7-.027 1.496-.837 3.02-2.242 3.637-1.735.755-3.769.483-5.448-.297.002-.587.002-1.174-.002-1.758 1.363.354 2.875.849 4.25.295.981-.475.897-1.725.952-2.641-.853.642-1.941 1.002-3.011.79-1.144-.162-2.078-1.038-2.507-2.082-.495-1.206-.53-2.567-.276-3.834.245-1.179.96-2.344 2.112-2.814zM4.3 50.532c-.701.63-.715 1.668-.701 2.54.026.767.164 1.69.881 2.126.782.43 1.706.136 2.444-.244.002-1.443.004-2.887 0-4.332-.803-.347-1.851-.675-2.624-.09zm15.853-2.116c1.52-.286 3.297-.092 4.414 1.08 1.225 1.254 1.378 3.17 1.118 4.82-.228 1.495-1.296 2.871-2.79 3.264-1.663.447-3.706.23-4.891-1.142-1.16-1.357-1.267-3.322-.909-5 .322-1.493 1.54-2.75 3.058-3.022zm.52 1.995c-.756.301-1.023 1.168-1.101 1.907-.073.92-.075 1.921.399 2.745.55.953 2.127.988 2.725.07.4-.608.466-1.362.478-2.069-.01-.755-.07-1.576-.54-2.2-.446-.585-1.304-.714-1.962-.453zm17.884-1.407c1.644-.667 3.507-.918 5.246-.506 1.118.245 1.844 1.346 1.833 2.46.03 2.187 0 4.376.013 6.565-.68-.002-1.36-.002-2.036 0-.067-.25-.13-.499-.195-.748-1.164.974-2.93 1.42-4.296.604-1.723-1.003-1.535-3.909.288-4.708 1.19-.625 2.595-.466 3.868-.232-.044-.722.18-1.874-.738-2.126-1.336-.268-2.7.094-3.987.441 0-.582.002-1.167.004-1.75zm2.457 4.882c-.882.35-.826 1.921.132 2.128.777.18 1.51-.236 2.13-.653a100.01 100.01 0 0 1-.004-1.517c-.746-.073-1.537-.245-2.258.042zm17.704-4.916c1.543-1.005 3.58-.773 5.214-.108 0 .58 0 1.158.002 1.737-1.089-.282-2.239-.542-3.358-.299-.493.08-.704.761-.31 1.083 1.142.773 2.665.895 3.649 1.919.945 1.144.606 3.082-.662 3.857-1.684 1.038-3.883.72-5.606-.066.002-.579.002-1.157 0-1.734 1.211.33 2.48.667 3.745.485.658-.068.96-1.036.382-1.404-.99-.58-2.174-.766-3.115-1.44-1.321-.906-1.304-3.166.06-4.03zm8.036.573c1.044-1.156 2.74-1.405 4.211-1.156.926.161 1.792.738 2.204 1.599.572 1.146.447 2.478.246 3.703-1.815.002-3.63-.01-5.446.006.098.753.383 1.614 1.175 1.888 1.378.504 2.88.153 4.254-.194 0 .581 0 1.16.005 1.74-1.581.681-3.41.871-5.076.4-1.345-.386-2.332-1.597-2.574-2.956-.32-1.7-.22-3.69 1-5.03zm1.642 1.242c-.283.37-.343.845-.448 1.286 1.15.002 2.302.008 3.452-.004-.052-.62-.06-1.387-.655-1.757-.754-.418-1.833-.238-2.349.475zm25.957-1.29c.809-.585 1.73-1.058 2.739-1.158.801-.084 1.693-.048 2.356.468.655.494.878 1.357.859 2.143-.004 2.193.005 4.386-.006 6.577-.857-.004-1.712-.002-2.567-.004-.006-1.936.008-3.87-.004-5.806-.002-.499-.113-1.127-.646-1.32-.855-.306-1.757.064-2.509.47.01 2.22.002 4.438.004 6.658-.857 0-1.714-.002-2.57 0-.003-2.99-.003-5.979 0-8.97.705.003 1.41.003 2.118 0 .074.313.15.628.226.942zm9.989-.878c1.326-.62 2.967-.312 4.044.661.056-.243.111-.483.17-.724.708.002 1.413.002 2.123 0 .002 2.846.01 5.693-.004 8.537.006 1.507-.742 3.071-2.137 3.746-1.76.826-3.86.548-5.579-.247.002-.587 0-1.173-.001-1.76 1.362.36 2.877.85 4.255.307.981-.466.92-1.72.945-2.636-.8.594-1.798.955-2.802.805-1.078-.094-2.028-.801-2.523-1.746-.627-1.166-.694-2.55-.52-3.836.183-1.253.846-2.54 2.029-3.107zm1.169 1.926c-.679.637-.704 1.66-.692 2.527.04.77.169 1.71.905 2.133.772.422 1.68.129 2.411-.237.002-1.451.004-2.904 0-4.355-.807-.338-1.86-.664-2.624-.068zm-18.582-1.99c.864.003 1.73.003 2.599.003-.013 2.988-.006 5.978-.004 8.967-.866-.002-1.733-.002-2.597-.002.002-2.989-.002-5.979.002-8.967z"/>
    </g>
</svg>
