<svg width="1920" height="955" viewBox="0 0 1920 955" fill="none" xmlns="http://www.w3.org/2000/svg">
<rect width="1920" height="955" fill="#092C45"/>
<g opacity="0.3">
<path d="M242.292 103.6H240.924V112H246.288V110.632H242.292V103.6Z" fill="white"/>
<path d="M248.962 107.8C248.962 108.4 249.07 108.952 249.286 109.468C249.49 109.984 249.79 110.428 250.162 110.8C250.534 111.172 250.978 111.472 251.494 111.676C252.01 111.892 252.562 112 253.162 112C253.762 112 254.326 111.892 254.842 111.676C255.358 111.472 255.802 111.172 256.174 110.8C256.546 110.428 256.834 109.984 257.05 109.468C257.254 108.952 257.362 108.4 257.362 107.8C257.362 107.2 257.254 106.648 257.05 106.132C256.834 105.616 256.546 105.172 256.174 104.8C255.802 104.428 255.358 104.128 254.842 103.912C254.326 103.708 253.762 103.6 253.162 103.6C252.562 103.6 252.01 103.708 251.494 103.912C250.978 104.128 250.534 104.428 250.162 104.8C249.79 105.172 249.49 105.616 249.286 106.132C249.07 106.648 248.962 107.2 248.962 107.8ZM255.994 107.8C255.994 108.208 255.922 108.58 255.79 108.928C255.646 109.276 255.454 109.576 255.202 109.828C254.95 110.08 254.65 110.284 254.302 110.416C253.954 110.56 253.57 110.632 253.162 110.632C252.754 110.632 252.382 110.56 252.034 110.416C251.686 110.284 251.386 110.08 251.134 109.828C250.882 109.576 250.678 109.276 250.546 108.928C250.402 108.58 250.33 108.208 250.33 107.8C250.33 107.392 250.402 107.008 250.546 106.66C250.678 106.312 250.882 106.012 251.134 105.76C251.386 105.508 251.686 105.316 252.034 105.172C252.382 105.04 252.754 104.968 253.162 104.968C253.57 104.968 253.954 105.04 254.302 105.172C254.65 105.316 254.95 105.508 255.202 105.76C255.454 106.012 255.646 106.312 255.79 106.66C255.922 107.008 255.994 107.392 255.994 107.8Z" fill="white"/>
<path d="M260.719 109.492C260.923 110.008 261.223 110.44 261.607 110.824C261.979 111.196 262.435 111.484 262.963 111.7C263.491 111.904 264.067 112.012 264.691 112.012C265.279 112.012 265.819 111.916 266.311 111.712C266.803 111.508 267.223 111.208 267.571 110.836C267.931 110.452 268.195 109.984 268.399 109.444C268.591 108.904 268.687 108.304 268.687 107.632V107.332H264.319V108.712H267.115C267.067 109.012 266.971 109.288 266.827 109.528C266.671 109.768 266.491 109.972 266.263 110.14C266.047 110.308 265.795 110.44 265.519 110.524C265.231 110.608 264.943 110.656 264.631 110.656C264.199 110.656 263.815 110.584 263.467 110.452C263.119 110.32 262.819 110.116 262.567 109.864C262.327 109.612 262.123 109.312 261.991 108.964C261.847 108.616 261.775 108.232 261.775 107.812C261.775 107.392 261.847 107.008 261.991 106.66C262.123 106.312 262.327 106.012 262.567 105.76C262.819 105.508 263.119 105.304 263.467 105.172C263.815 105.04 264.199 104.968 264.607 104.968C265.111 104.968 265.555 105.064 265.951 105.256C266.359 105.448 266.707 105.712 267.019 106.048L267.667 104.764C267.259 104.392 266.803 104.104 266.299 103.9C265.807 103.696 265.255 103.6 264.667 103.6C264.043 103.6 263.467 103.708 262.939 103.912C262.423 104.128 261.979 104.428 261.595 104.8C261.223 105.172 260.923 105.628 260.719 106.144C260.515 106.66 260.407 107.212 260.407 107.824C260.407 108.424 260.515 108.976 260.719 109.492Z" fill="white"/>
<path d="M271.466 107.8C271.466 108.4 271.574 108.952 271.79 109.468C271.994 109.984 272.294 110.428 272.666 110.8C273.038 111.172 273.482 111.472 273.998 111.676C274.514 111.892 275.066 112 275.666 112C276.266 112 276.83 111.892 277.346 111.676C277.862 111.472 278.306 111.172 278.678 110.8C279.05 110.428 279.338 109.984 279.554 109.468C279.758 108.952 279.866 108.4 279.866 107.8C279.866 107.2 279.758 106.648 279.554 106.132C279.338 105.616 279.05 105.172 278.678 104.8C278.306 104.428 277.862 104.128 277.346 103.912C276.83 103.708 276.266 103.6 275.666 103.6C275.066 103.6 274.514 103.708 273.998 103.912C273.482 104.128 273.038 104.428 272.666 104.8C272.294 105.172 271.994 105.616 271.79 106.132C271.574 106.648 271.466 107.2 271.466 107.8ZM278.498 107.8C278.498 108.208 278.426 108.58 278.294 108.928C278.15 109.276 277.958 109.576 277.706 109.828C277.454 110.08 277.154 110.284 276.806 110.416C276.458 110.56 276.074 110.632 275.666 110.632C275.258 110.632 274.886 110.56 274.538 110.416C274.19 110.284 273.89 110.08 273.638 109.828C273.386 109.576 273.182 109.276 273.05 108.928C272.906 108.58 272.834 108.208 272.834 107.8C272.834 107.392 272.906 107.008 273.05 106.66C273.182 106.312 273.386 106.012 273.638 105.76C273.89 105.508 274.19 105.316 274.538 105.172C274.886 105.04 275.258 104.968 275.666 104.968C276.074 104.968 276.458 105.04 276.806 105.172C277.154 105.316 277.454 105.508 277.706 105.76C277.958 106.012 278.15 106.312 278.294 106.66C278.426 107.008 278.498 107.392 278.498 107.8Z" fill="white"/>
<path d="M287.003 104.968H290.171V103.6H282.455V104.968H285.635V112H287.003V104.968Z" fill="white"/>
<path d="M295.654 112H297.022V108.604L300.43 103.6H298.774L296.338 107.164L293.914 103.6H292.258L295.654 108.604V112Z" fill="white"/>
<path d="M306.505 103.6H303.373V112H304.741V109.36H306.505C306.925 109.36 307.309 109.288 307.669 109.144C308.017 109 308.329 108.796 308.581 108.544C308.833 108.292 309.037 107.98 309.181 107.632C309.325 107.284 309.397 106.9 309.397 106.48C309.397 106.06 309.325 105.676 309.181 105.328C309.037 104.98 308.833 104.668 308.581 104.416C308.329 104.164 308.017 103.96 307.669 103.816C307.309 103.672 306.925 103.6 306.505 103.6ZM308.029 106.48C308.029 106.924 307.885 107.284 307.609 107.56C307.321 107.848 306.949 107.992 306.505 107.992H304.741V104.968H306.505C306.949 104.968 307.321 105.112 307.609 105.388C307.885 105.676 308.029 106.036 308.029 106.48Z" fill="white"/>
<path d="M317.943 103.6H312.651V112H317.943V110.632H314.019V108.484H317.943V107.116H314.019V104.968H317.943V103.6Z" fill="white"/>
</g>
<path fill-rule="evenodd" clip-rule="evenodd" d="M822.752 439.759L799.916 458.941C798.341 460.257 796.42 461.09 794.384 461.342C792.348 461.594 790.282 461.253 788.434 460.361C786.586 459.469 785.034 458.063 783.965 456.312C782.895 454.561 782.353 452.538 782.404 450.487L783.135 420.671C783.134 420.556 783.164 420.443 783.22 420.342C783.276 420.242 783.358 420.158 783.456 420.098C783.554 420.038 783.667 420.004 783.782 420C783.897 419.996 784.011 420.022 784.113 420.075L789.973 422.897C790.271 423.039 790.521 423.265 790.691 423.548C790.862 423.83 790.946 424.157 790.932 424.486L789.591 455.777C789.58 455.976 789.629 456.174 789.731 456.346C789.832 456.518 789.983 456.656 790.162 456.743C790.342 456.829 790.544 456.861 790.742 456.833C790.939 456.806 791.125 456.721 791.274 456.588L814.908 436.052C815.156 435.835 815.462 435.696 815.789 435.652C816.116 435.608 816.448 435.661 816.745 435.804L822.611 438.626C822.715 438.674 822.806 438.747 822.873 438.84C822.941 438.932 822.984 439.04 822.998 439.154C823.012 439.267 822.997 439.383 822.954 439.489C822.911 439.595 822.841 439.688 822.752 439.759ZM777.145 450.498L776.387 420.682C776.386 420.567 776.356 420.455 776.299 420.355C776.242 420.256 776.161 420.172 776.063 420.113C775.965 420.054 775.853 420.021 775.738 420.017C775.624 420.014 775.51 420.039 775.408 420.092L769.549 422.915C769.253 423.059 769.005 423.286 768.836 423.568C768.667 423.85 768.584 424.175 768.596 424.504L769.937 455.794C769.947 455.994 769.899 456.193 769.796 456.365C769.694 456.537 769.544 456.676 769.364 456.763C769.183 456.85 768.981 456.883 768.783 456.856C768.585 456.829 768.398 456.744 768.248 456.612L744.607 436.076C744.359 435.859 744.053 435.72 743.726 435.676C743.399 435.632 743.067 435.685 742.77 435.828L736.904 438.651C736.8 438.698 736.709 438.772 736.642 438.864C736.574 438.956 736.531 439.064 736.517 439.178C736.503 439.291 736.518 439.407 736.561 439.513C736.604 439.619 736.674 439.712 736.763 439.784L759.619 458.952C761.194 460.269 763.116 461.103 765.154 461.356C767.191 461.608 769.259 461.268 771.108 460.376C772.957 459.484 774.51 458.078 775.581 456.326C776.652 454.574 777.195 452.55 777.145 450.498ZM756.348 463.048L732.567 445.053C732.477 444.982 732.371 444.935 732.258 444.917C732.145 444.899 732.029 444.909 731.922 444.948C731.814 444.987 731.719 445.053 731.644 445.14C731.569 445.226 731.517 445.33 731.494 445.442L730.052 451.785C729.979 452.108 730.004 452.446 730.123 452.755C730.243 453.064 730.451 453.331 730.723 453.521L756.019 471.986C756.179 472.105 756.301 472.268 756.369 472.455C756.438 472.642 756.451 472.845 756.406 473.039C756.361 473.233 756.261 473.41 756.117 473.548C755.974 473.686 755.793 473.779 755.597 473.816L724.803 479.495C724.478 479.556 724.179 479.71 723.94 479.938C723.702 480.167 723.536 480.46 723.462 480.782L722.02 487.125C721.992 487.236 721.993 487.352 722.023 487.463C722.053 487.574 722.11 487.675 722.191 487.757C722.271 487.839 722.37 487.899 722.48 487.932C722.59 487.964 722.706 487.968 722.818 487.943L752.044 482.023C754.056 481.612 755.908 480.63 757.376 479.194C758.844 477.758 759.867 475.928 760.322 473.925C760.776 471.922 760.643 469.83 759.938 467.901C759.233 465.972 757.987 464.287 756.348 463.048ZM724.295 494.498L753.198 487.123C755.191 486.61 757.289 486.684 759.24 487.336C761.192 487.988 762.913 489.19 764.198 490.797C765.482 492.404 766.274 494.349 766.479 496.396C766.685 498.443 766.294 500.506 765.354 502.336L751.643 528.886C751.593 528.99 751.518 529.079 751.423 529.145C751.329 529.211 751.22 529.252 751.105 529.264C750.991 529.275 750.875 529.257 750.77 529.211C750.664 529.165 750.572 529.092 750.503 529L746.48 523.911C746.274 523.653 746.148 523.34 746.118 523.011C746.088 522.682 746.156 522.352 746.313 522.061L761.063 494.445C761.158 494.269 761.2 494.069 761.182 493.87C761.165 493.671 761.089 493.481 760.965 493.325C760.841 493.168 760.673 493.052 760.483 492.99C760.293 492.928 760.089 492.923 759.896 492.976L729.726 501.243C729.406 501.331 729.069 501.323 728.754 501.221C728.439 501.118 728.162 500.925 727.955 500.666L723.933 495.584C723.859 495.497 723.808 495.391 723.786 495.278C723.765 495.165 723.772 495.049 723.809 494.94C723.845 494.831 723.909 494.733 723.994 494.655C724.079 494.578 724.183 494.524 724.295 494.498ZM770.046 504.6L757.796 531.787C757.747 531.89 757.725 532.004 757.733 532.118C757.74 532.232 757.776 532.343 757.838 532.439C757.9 532.535 757.985 532.613 758.086 532.667C758.186 532.721 758.299 532.748 758.413 532.746H764.917C765.247 532.746 765.57 532.65 765.847 532.469C766.123 532.288 766.34 532.03 766.472 531.727L778.842 502.958C778.921 502.775 779.052 502.62 779.218 502.511C779.384 502.401 779.579 502.343 779.778 502.343C779.976 502.343 780.171 502.401 780.337 502.511C780.503 502.62 780.634 502.775 780.713 502.958L793.11 531.68C793.238 531.984 793.454 532.243 793.73 532.424C794.005 532.606 794.328 532.701 794.658 532.699H801.162C801.277 532.702 801.39 532.676 801.492 532.623C801.593 532.569 801.68 532.491 801.742 532.395C801.805 532.298 801.842 532.188 801.849 532.073C801.857 531.959 801.835 531.844 801.785 531.74L789.489 504.593C788.642 502.725 787.274 501.141 785.549 500.03C783.825 498.919 781.817 498.329 779.765 498.33C777.714 498.33 775.706 498.922 773.983 500.034C772.259 501.146 770.892 502.732 770.046 504.6ZM807.837 528.853L794.22 502.323C793.277 500.497 792.882 498.437 793.081 496.392C793.28 494.347 794.065 492.402 795.342 490.792C796.62 489.182 798.334 487.975 800.281 487.316C802.227 486.657 804.323 486.574 806.315 487.076L835.219 494.451C835.331 494.477 835.435 494.531 835.52 494.609C835.605 494.686 835.669 494.784 835.705 494.893C835.741 495.002 835.749 495.119 835.727 495.231C835.706 495.344 835.655 495.45 835.581 495.538L831.558 500.626C831.35 500.883 831.073 501.074 830.759 501.177C830.444 501.279 830.107 501.288 829.788 501.203L799.577 492.956C799.385 492.903 799.181 492.908 798.99 492.97C798.8 493.032 798.633 493.148 798.509 493.305C798.384 493.461 798.309 493.651 798.291 493.85C798.274 494.049 798.315 494.249 798.411 494.425L813.161 522.034C813.318 522.325 813.385 522.656 813.355 522.985C813.326 523.314 813.2 523.627 812.993 523.885L808.97 528.967C808.901 529.057 808.809 529.128 808.705 529.173C808.6 529.218 808.486 529.236 808.372 529.225C808.259 529.213 808.15 529.173 808.057 529.108C807.963 529.043 807.887 528.955 807.837 528.853ZM807.513 482L836.752 487.9C836.864 487.925 836.98 487.921 837.09 487.889C837.2 487.856 837.3 487.796 837.38 487.714C837.46 487.632 837.518 487.531 837.547 487.42C837.577 487.309 837.578 487.193 837.55 487.082L836.095 480.739C836.022 480.417 835.856 480.123 835.618 479.895C835.379 479.666 835.079 479.512 834.754 479.452L803.953 473.793C803.758 473.755 803.578 473.661 803.435 473.523C803.292 473.384 803.193 473.208 803.149 473.014C803.105 472.82 803.118 472.617 803.187 472.431C803.256 472.244 803.378 472.082 803.537 471.963L828.821 453.485C829.09 453.293 829.297 453.026 829.417 452.717C829.536 452.409 829.562 452.072 829.491 451.749L828.043 445.399C828.02 445.287 827.968 445.183 827.893 445.097C827.818 445.01 827.723 444.945 827.615 444.906C827.508 444.867 827.392 444.856 827.279 444.874C827.166 444.892 827.06 444.939 826.97 445.01L803.196 463.026C801.557 464.265 800.311 465.951 799.607 467.881C798.903 469.811 798.771 471.904 799.226 473.907C799.682 475.911 800.707 477.74 802.177 479.175C803.647 480.611 805.5 481.592 807.513 482ZM867.935 440.657H924.649V449.04H900.847V514.036H891.726V449.04H867.93L867.935 440.657ZM970.153 514.042V506.178H967.471C965.094 506.178 963.905 504.885 963.905 502.3V479.235C963.916 473.017 962.053 468.248 958.316 464.928C954.579 461.608 949.287 459.949 942.439 459.949C936.023 459.949 930.807 461.417 926.791 464.353C922.774 467.288 920.451 471.376 919.821 476.614H928.417C928.686 475.279 929.221 474.011 929.989 472.886C930.757 471.761 931.743 470.802 932.888 470.064C935.298 468.421 938.357 467.6 942.064 467.6C946.252 467.607 949.518 468.587 951.861 470.539C954.205 472.492 955.377 475.217 955.377 478.715V482.382H939.65C932.664 482.378 927.336 483.81 923.666 486.679C919.997 489.548 918.162 493.673 918.162 499.053C918.165 503.874 919.965 507.682 923.56 510.476C927.156 513.27 931.925 514.668 937.867 514.668C945.695 514.671 951.671 511.702 955.796 505.759C955.859 508.486 956.627 510.549 958.098 511.946C959.57 513.343 962.016 514.042 965.436 514.042H970.153ZM938.812 489.613H955.377V492.262C955.373 496.804 953.87 500.456 950.867 503.216C947.864 505.977 943.741 507.358 938.499 507.358C934.937 507.361 932.105 506.558 930.004 504.949C929.002 504.217 928.193 503.253 927.645 502.139C927.098 501.026 926.83 499.796 926.863 498.555C926.867 492.594 930.85 489.613 938.812 489.613ZM974.62 440.657H983.216V489.278L1010.39 460.575H1020.66L1000.12 482.483L1022.13 514.036H1011.73L993.907 488.647L983.216 499.863V514.014H974.62V440.657ZM1032.53 463.357C1028.69 465.631 1025.59 468.96 1023.59 472.947C1021.46 477.082 1020.39 481.87 1020.4 487.31C1020.3 492.278 1021.44 497.193 1023.7 501.617C1025.79 505.662 1029.02 509.013 1032.98 511.263C1036.96 513.532 1041.61 514.666 1046.92 514.666C1053 514.67 1058.14 512.941 1062.33 509.48C1066.47 506.111 1069.26 501.367 1070.19 496.112H1061.47C1060.69 499.345 1058.78 502.191 1056.08 504.132C1053.39 506.054 1050.12 507.015 1046.27 507.015C1041.31 507.015 1037.29 505.443 1034.22 502.299C1031.14 499.154 1029.54 494.961 1029.4 489.718V488.986H1070.93C1071.07 487.31 1071.14 486.086 1071.14 485.315C1070.99 480.139 1069.84 475.633 1067.68 471.796C1065.61 468.055 1062.51 464.996 1058.74 462.988C1054.73 460.906 1050.26 459.861 1045.74 459.947C1041.11 459.86 1036.54 461.039 1032.53 463.357ZM1057.14 471.27C1060.11 473.789 1061.8 477.317 1062.22 481.855H1029.93C1030.08 479.865 1030.62 477.924 1031.52 476.143C1032.42 474.362 1033.66 472.777 1035.17 471.477C1038.12 468.871 1041.93 467.453 1045.87 467.498C1050.41 467.494 1054.17 468.752 1057.14 471.27ZM1087.67 440.657V483.215C1087.67 498.591 1093.92 506.279 1106.43 506.279C1119.08 506.279 1125.41 498.591 1125.43 483.215V440.657H1134.55V482.689C1134.55 493.174 1132.16 501.125 1127.37 506.542C1122.58 511.959 1115.61 514.666 1106.46 514.662C1097.3 514.662 1090.37 511.955 1085.65 506.542C1080.94 501.128 1078.58 493.177 1078.57 482.689V440.657H1087.67ZM1193.91 472.629C1191.86 468.659 1188.69 465.379 1184.79 463.195C1180.72 460.98 1176.15 459.859 1171.53 459.943C1163.77 459.943 1157.66 463.018 1153.18 469.17L1152.03 460.574H1144.59V534.999H1153.18V505.859C1154.97 508.621 1157.47 510.847 1160.42 512.303C1163.49 513.875 1167.2 514.662 1171.53 514.662C1176.16 514.729 1180.73 513.534 1184.74 511.202C1188.64 508.912 1191.82 505.572 1193.91 501.562C1196.11 497.441 1197.21 492.689 1197.21 487.305C1197.21 481.645 1196.11 476.754 1193.91 472.629ZM1188.4 487.305C1188.4 493.106 1186.78 497.84 1183.53 501.506V501.5C1180.28 505.174 1175.99 507.011 1170.68 507.011C1167.44 507.064 1164.26 506.191 1161.51 504.496C1158.79 502.79 1156.62 500.333 1155.27 497.42C1153.76 494.19 1153.01 490.658 1153.07 487.093C1153.01 483.595 1153.76 480.132 1155.27 476.977C1156.64 474.117 1158.8 471.713 1161.51 470.058C1164.27 468.394 1167.45 467.54 1170.68 467.594C1175.99 467.597 1180.28 469.432 1183.53 473.099C1186.78 476.768 1188.41 481.504 1188.4 487.305Z" fill="white"/>
</svg>
