<svg width="179" height="152" viewBox="0 0 179 152" fill="none" xmlns="http://www.w3.org/2000/svg">
<path fill-rule="evenodd" clip-rule="evenodd" d="M166.939 84.8391V84.8755L166.783 84.9534L166.939 84.8391ZM166.939 84.8391L178.5 76.3772C178.593 76.3191 178.646 76.2137 178.637 76.1043C178.639 76.0018 178.587 75.9056 178.5 75.851L166.783 67.2747V70.8222H162.877C160.983 70.9785 159.079 70.6984 157.311 70.0035C155.246 68.8939 153.951 66.7498 153.932 64.4095C153.939 63.3498 154.2 62.3071 154.694 61.3689C155.854 59.2282 158.115 57.9124 160.553 57.9579C164.049 58.0953 166.784 61.0158 166.685 64.507L167.954 65.501L175.766 71.134C179.335 63.0938 176.112 53.6663 168.364 49.4791C165.954 48.2169 163.275 47.5486 160.553 47.53C152.992 47.4621 146.307 52.4167 144.186 59.66C142.065 66.9032 145.025 74.671 151.433 78.6772C151.649 78.832 151.877 78.9689 152.116 79.0865L152.272 79.184L152.448 79.3009C154.904 80.5927 157.64 81.2621 160.416 81.2501H166.939V84.8391ZM19.6068 54.4037C30.9787 54.4037 39.2136 62.8205 39.2136 74.5616C39.2136 86.3028 30.9395 94.7003 19.6068 94.7003C8.27406 94.7003 0 86.3028 0 74.5616C0 62.8205 8.27406 54.4037 19.6068 54.4037ZM19.6068 61.7251C12.6464 61.7251 8.70541 67.2594 8.70541 74.5616C8.70541 81.8638 12.6268 87.3405 19.5676 87.3405C26.5084 87.3405 30.4885 81.8062 30.4885 74.5616C30.4885 67.3171 26.4888 61.7251 19.6068 61.7251ZM98.2692 90.2806C95.6895 93.0306 92.0418 94.5807 88.2305 94.5466C81.9171 94.5466 78.9369 91.1645 78.9369 85.6687V65.5684H86.5051V82.6901C86.5051 86.5334 88.5834 87.8978 91.7989 87.8978C94.321 87.8561 96.693 86.7149 98.2692 84.7847V65.5684H105.877V93.8548H98.2692V90.2806ZM113.484 85.1306C116.275 87.4629 119.78 88.8155 123.444 88.9739C126.719 88.9739 128.268 87.8785 128.268 86.1106C128.268 84.3427 125.758 83.4396 122.385 82.7862L122.347 82.7791C117.412 81.8578 111.072 80.6744 111.072 73.9659C111.072 69.2387 115.288 65.088 122.836 65.088C127.047 65.0221 131.153 66.3793 134.463 68.9313L131.542 74.0236C129.242 71.8867 126.182 70.7145 123.013 70.7568C120.288 70.7568 118.484 71.7561 118.484 73.3894C118.484 75.0228 120.758 75.7723 123.974 76.4256C128.915 77.3672 135.542 78.6355 135.542 85.6495C135.542 90.7994 131.071 94.7003 123.072 94.7003C118.384 94.8153 113.814 93.2584 110.21 90.319L113.484 85.1306ZM58.8203 65.088C56.2329 65.051 53.6776 65.6523 51.3894 66.8367V65.5684H44.3897V104.001H51.409V91.7602C53.6972 92.9446 56.2525 93.5459 58.8399 93.5089C62.7556 93.6836 66.5671 92.2435 69.3499 89.538C72.1328 86.8325 73.6328 83.1086 73.4862 79.2696C73.6163 75.437 72.1063 71.7254 69.321 69.0321C66.5357 66.3388 62.7288 64.9089 58.8203 65.088ZM58.8203 87.3789C54.1931 87.3789 51.605 83.651 51.605 79.2696C51.605 74.8883 54.1931 71.218 58.8203 71.218C63.4475 71.218 66.0944 75.0613 66.0944 79.2696C66.0944 83.478 63.4867 87.3789 58.8203 87.3789ZM151.804 93.8994L157.662 83.0037L164.908 83.1206V86.902C164.908 87.4294 165.336 87.857 165.865 87.857C166.075 87.8519 166.279 87.784 166.451 87.6621L167.388 86.9409L163.638 93.8994H151.804Z" fill="#1F1F1F"/>
</svg>
