<svg height="1336" viewBox="0 0 1920 1336" width="1920" xmlns="http://www.w3.org/2000/svg"><g fill="none" fill-rule="evenodd" transform=""><path d="m0 0h1920v1336h-1920z" fill="#f2f2f2"/><path d="m843.992 261.086c0-.7.123667-1.346333.371-1.939s.592667-1.108333 1.036-1.547.963667-.781667 1.561-1.029 1.246-.371 1.946-.371c.681333 0 1.320667.112 1.918.336s1.134.555333 1.61.994l-.938 1.792c-.364-.373333-.756-.660333-1.176-.861s-.896-.301-1.428-.301c-.429333 0-.823667.072333-1.183.217s-.669667.345333-.931.602-.464333.567-.609.931-.217.760667-.217 1.19c0 .438667.072333.837667.217 1.197s.347667.667333.609.924.569333.457333.924.602.742.217 1.162.217c1.073333 0 1.992667-.415333 2.758-1.246l.966 1.82c-.494667.448-1.05.791-1.666 1.029s-1.292667.357-2.03.357c-.7 0-1.348667-.123667-1.946-.371s-1.115333-.592667-1.554-1.036-.781667-.963667-1.029-1.561-.371-1.246-.371-1.946zm19.614 1.414h3.332l-1.666-3.612zm4.242 1.96h-5.152l-.714 1.54h-2.156l4.536-9.8h1.82l4.536 9.8h-2.156zm12.964 1.54h-1.96v-9.8h1.89l4.13 7.238 4.116-7.238h1.89v9.8h-1.96v-5.698l-3.248 5.698h-1.61l-3.248-5.698zm22.974-9.8c.504 0 .966.086333 1.386.259s.781667.410667 1.085.714.541333.665.714 1.085.259.877333.259 1.372-.086333.949667-.259 1.365-.410667.774667-.714 1.078-.665.541333-1.085.714-.882.259-1.386.259h-1.876v2.954h-1.96v-9.8zm1.484 3.43c0-.429333-.128333-.781667-.385-1.057s-.623-.413-1.099-.413h-1.876v2.926h1.876c.476 0 .842333-.137667 1.099-.413s.385-.623.385-1.043zm12.068 2.87h3.332l-1.666-3.612zm4.242 1.96h-5.152l-.714 1.54h-2.156l4.536-9.8h1.82l4.536 9.8h-2.156zm12.964-8.26v9.8h-1.96v-9.8zm8.512 4.914c0-.709333.119-1.362667.357-1.96s.576333-1.115333 1.015-1.554.963667-.781667 1.575-1.029 1.290333-.371 2.037-.371c.672 0 1.318333.112 1.939.336s1.173667.574 1.659 1.05l-.952 1.82c-.373333-.429333-.791-.744333-1.253-.945s-.959-.301-1.491-.301c-.429333 0-.823667.072333-1.183.217s-.667333.345333-.924.602-.457333.567-.602.931-.217.760667-.217 1.19c0 .438667.072333.84.217 1.204s.347667.674333.609.931.574.457333.938.602.77.217 1.218.217c.261333 0 .525-.035.791-.105s.508667-.175.728-.315.410667-.317333.574-.532.273-.462.329-.742h-2.744v-1.96h4.998v.644c0 .802667-.121333 1.512-.364 2.128s-.574 1.134-.994 1.554-.912333.737333-1.477.952-1.164333.322-1.799.322c-.737333 0-1.411667-.121333-2.023-.364s-1.136333-.581-1.575-1.015-.779333-.949667-1.022-1.547-.364-1.250667-.364-1.96zm26.88-4.914v9.8h-1.708l-5.292-6.44v6.44h-1.96v-9.8h1.708l5.292 6.44v-6.44zm19.432 4.886c0-.7.123667-1.346333.371-1.939s.592667-1.108333 1.036-1.547.963667-.781667 1.561-1.029 1.246-.371 1.946-.371c.681333 0 1.320667.112 1.918.336s1.134.555333 1.61.994l-.938 1.792c-.364-.373333-.756-.660333-1.176-.861s-.896-.301-1.428-.301c-.429333 0-.823667.072333-1.183.217s-.669667.345333-.931.602-.464333.567-.609.931-.217.760667-.217 1.19c0 .438667.072333.837667.217 1.197s.347667.667333.609.924.569333.457333.924.602.742.217 1.162.217c1.073333 0 1.992667-.415333 2.758-1.246l.966 1.82c-.494667.448-1.05.791-1.666 1.029s-1.292667.357-2.03.357c-.7 0-1.348667-.123667-1.946-.371s-1.115333-.592667-1.554-1.036-.781667-.963667-1.029-1.561-.371-1.246-.371-1.946zm15.708.014c0-.7.12367-1.348667.371-1.946s.59033-1.115333 1.029-1.554.95667-.781667 1.554-1.029 1.246-.371 1.946-.371 1.34867.123667 1.946.371 1.11533.590333 1.554 1.029.78167.956667 1.029 1.554.371 1.246.371 1.946-.12367 1.348667-.371 1.946-.59033 1.115333-1.029 1.554-.95667.781667-1.554 1.029-1.246.371-1.946.371-1.34867-.123667-1.946-.371-1.11533-.590333-1.554-1.029-.78167-.956667-1.029-1.554-.371-1.246-.371-1.946zm7.84 0c0-.429333-.07233-.823667-.217-1.183s-.34767-.669667-.609-.931-.57167-.464333-.931-.609-.75367-.217-1.183-.217-.82367.072333-1.183.217-.66967.347667-.931.609-.46433.571667-.609.931-.217.753667-.217 1.183.07233.823667.217 1.183.34767.669667.609.931.57167.464333.931.609.75367.217 1.183.217.82367-.072333 1.183-.217.66967-.347667.931-.609.46433-.571667.609-.931.217-.753667.217-1.183zm12.334-4.9v7.84h4.452v1.96h-6.412v-9.8zm11.41 4.9c0-.7.12367-1.348667.371-1.946s.59033-1.115333 1.029-1.554.95667-.781667 1.554-1.029 1.246-.371 1.946-.371 1.34867.123667 1.946.371 1.11533.590333 1.554 1.029.78167.956667 1.029 1.554.371 1.246.371 1.946-.12367 1.348667-.371 1.946-.59033 1.115333-1.029 1.554-.95667.781667-1.554 1.029-1.246.371-1.946.371-1.34867-.123667-1.946-.371-1.11533-.590333-1.554-1.029-.78167-.956667-1.029-1.554-.371-1.246-.371-1.946zm7.84 0c0-.429333-.07233-.823667-.217-1.183s-.34767-.669667-.609-.931-.57167-.464333-.931-.609-.75367-.217-1.183-.217-.82367.072333-1.183.217-.66967.347667-.931.609-.46433.571667-.609.931-.217.753667-.217 1.183.07233.823667.217 1.183.34767.669667.609.931.57167.464333.931.609.75367.217 1.183.217.82367-.072333 1.183-.217.66967-.347667.931-.609.46433-.571667.609-.931.217-.753667.217-1.183zm15.848-1.638c0-.354667-.11433-.660333-.343-.917s-.54833-.385-.959-.385h-2.212v2.604h2.212c.41067 0 .73033-.128333.959-.385s.343-.562333.343-.917zm-5.474 6.538v-9.8h4.172c.46667 0 .90067.084 1.302.252s.74667.399 1.036.693.51567.639333.679 1.036.245.823667.245 1.281c0 .354667-.05133.693-.154 1.015s-.245.616-.427.882-.40133.497-.658.693-.539.35-.847.462l2.324 3.486h-2.394l-2.1-3.276h-1.218v3.276zm15.722-6.986c0-.448.07933-.844667.238-1.19s.38033-.639333.665-.882.62067-.427 1.008-.553.805-.189 1.253-.189c.83067 0 1.53767.21 2.121.63s.96367 1.036 1.141 1.848l-1.778.714c-.10267-.448-.28-.765333-.532-.952s-.574-.28-.966-.28c-.40133 0-.7.084-.896.252s-.294.373333-.294.616c0 .177333.04433.324333.133.441s.21233.219333.371.308.34767.170333.567.245.45967.154.721.238c.336.112.658.240333.966.385s.581.326667.819.546.42933.487667.574.805.217.704667.217 1.162-.08167.863333-.245 1.218-.385.651-.665.889-.61367.42-1.001.546-.805.189-1.253.189c-.38267 0-.749-.046667-1.099-.14s-.672-.240333-.966-.441-.546-.457333-.756-.77-.36167-.688333-.455-1.127l1.75-.756c.196.849333.70933 1.274 1.54 1.274.38267 0 .67667-.079333.882-.238s.308-.373333.308-.644c0-.177333-.04433-.329-.133-.455s-.21233-.233333-.371-.322-.343-.165667-.553-.231-.43633-.135333-.679-.21c-.308-.093333-.61833-.212333-.931-.357s-.595-.329-.847-.553-.45733-.499333-.616-.826-.238-.723333-.238-1.19z" fill="#181819" opacity=".3"/><g transform="translate(402 410)"><path d="m0 0h206v577h-206z" fill="#beb4b2"/><path d="m38.98 56.9c0-.6133334.1133334-1.1633334.34-1.65s.54-.8966666.94-1.23.8666666-.5866666 1.4-.76 1.1-.26 1.7-.26c1.1333334 0 2.1.3 2.9.9s1.34 1.4466666 1.62 2.54l-2.1.86c-.1866666-.72-.49-1.2366666-.91-1.55s-.9366666-.47-1.55-.47c-.68 0-1.1933334.16-1.54.48s-.52.7066666-.52 1.16c0 .3066666.0666666.56.2.76s.32.3733334.56.52.5233334.28.85.4.6833334.24 1.07.36c.5066666.1733334.99.3633334 1.45.57s.8633334.4666666 1.21.78.62.69.82 1.13.3.9733334.3 1.6c0 .6533334-.1133334 1.2266666-.34 1.72s-.5366666.9066666-.93 1.24-.8533334.5833334-1.38.75-1.0833334.25-1.67.25c-.48 0-.96-.06-1.44-.18s-.9266666-.3166666-1.34-.59-.7766666-.6266666-1.09-1.06-.5433334-.97-.69-1.61l2.02-.96c.32 1.4133334 1.1666666 2.12 2.54 2.12.64 0 1.14-.1433334 1.5-.43s.54-.6966666.54-1.23c0-.32-.0666666-.5866666-.2-.8s-.3133334-.3933334-.54-.54-.49-.2733334-.79-.38-.6166666-.2133334-.95-.32c-.4533334-.1333334-.9133334-.3-1.38-.5s-.8933334-.4566666-1.28-.77-.7033334-.7-.95-1.16-.37-1.0233334-.37-1.69zm10.32 5.14c0-.7333334.1166666-1.42.35-2.06s.5666666-1.2 1-1.68.96-.8566666 1.58-1.13 1.3166666-.41 2.09-.41 1.4633334.13 2.07.39 1.1166666.6233334 1.53 1.09.7266666 1.0233334.94 1.67.32 1.3566666.32 2.13v.62h-7.68v.02c.0533334.4266666.17.8.35 1.12s.4066666.5833334.68.79.58.3633334.92.47.69.16 1.05.16c.6666666 0 1.2466666-.1266666 1.74-.38s.9133334-.56 1.26-.92l1.02 1.74c-.4133334.4-.9466666.7633334-1.6 1.09s-1.4533334.49-2.4.49c-.8 0-1.5233334-.1266666-2.17-.38s-1.1933334-.61-1.64-1.07-.7933334-1.0066666-1.04-1.64-.37-1.3366666-.37-2.11zm7.52-1.02c-.0666666-.6933334-.31-1.2566666-.73-1.69s-1.0233334-.65-1.81-.65c-.8 0-1.4266666.21-1.88.63s-.7466666.99-.88 1.71zm9.82 5.8c-.64.1866666-1.2866666.28-1.94.28-.92 0-1.6233334-.2266666-2.11-.68s-.73-1.2333334-.73-2.34v-5.24h-1.9v-1.84h1.9v-2.68h2.16v2.68h2.64v1.84h-2.64v5.1c0 .3466666.0833334.61.25.79s.4433334.27.83.27c.2666666 0 .51-.0133334.73-.04s.49-.0666666.81-.12zm7.48-6.82c0-1.0133334.1733334-1.95.52-2.81s.82-1.6 1.42-2.22 1.3033334-1.1033334 2.11-1.45 1.67-.52 2.59-.52 1.7833334.1733334 2.59.52 1.5066666.83 2.1 1.45 1.0633334 1.36 1.41 2.22.52 1.7966666.52 2.81c0 1.0266666-.1733334 1.9666666-.52 2.82s-.8166666 1.59-1.41 2.21-1.2933334 1.1033334-2.1 1.45-1.67.52-2.59.52-1.7833334-.1733334-2.59-.52-1.51-.83-2.11-1.45-1.0733334-1.3566666-1.42-2.21-.52-1.7933334-.52-2.82zm10.98 0c0-.6933334-.11-1.3266666-.33-1.9s-.5233334-1.07-.91-1.49-.8466666-.7466666-1.38-.98-1.1066666-.35-1.72-.35c-.6266666 0-1.2066666.1166666-1.74.35s-.9933334.56-1.38.98-.69.9166666-.91 1.49-.33 1.2066666-.33 1.9.11 1.33.33 1.91.5233334 1.0766666.91 1.49.8466666.7366666 1.38.97 1.1133334.35 1.74.35c.6133334 0 1.1866666-.1166666 1.72-.35s.9933334-.5566666 1.38-.97.69-.91.91-1.49.33-1.2166666.33-1.91zm10.9-7v14h-2.28v-10.54l-3 2.98-1.58-1.62 4.86-4.82z" fill="#1f1f1f" opacity=".2"/></g><g transform="translate(1013.5625 410)"><path d="m.4375 0h206v577h-206z" fill="#818794"/><path d="m39.4175 56.9c0-.6133334.1133334-1.1633334.34-1.65s.54-.8966666.94-1.23.8666666-.5866666 1.4-.76 1.1-.26 1.7-.26c1.1333334 0 2.1.3 2.9.9s1.34 1.4466666 1.62 2.54l-2.1.86c-.1866666-.72-.49-1.2366666-.91-1.55s-.9366666-.47-1.55-.47c-.68 0-1.1933334.16-1.54.48s-.52.7066666-.52 1.16c0 .3066666.0666666.56.2.76s.32.3733334.56.52.5233334.28.85.4.6833334.24 1.07.36c.5066666.1733334.99.3633334 1.45.57s.8633334.4666666 1.21.78.62.69.82 1.13.3.9733334.3 1.6c0 .6533334-.1133334 1.2266666-.34 1.72s-.5366666.9066666-.93 1.24-.8533334.5833334-1.38.75-1.0833334.25-1.67.25c-.48 0-.96-.06-1.44-.18s-.9266666-.3166666-1.34-.59-.7766666-.6266666-1.09-1.06-.5433334-.97-.69-1.61l2.02-.96c.32 1.4133334 1.1666666 2.12 2.54 2.12.64 0 1.14-.1433334 1.5-.43s.54-.6966666.54-1.23c0-.32-.0666666-.5866666-.2-.8s-.3133334-.3933334-.54-.54-.49-.2733334-.79-.38-.6166666-.2133334-.95-.32c-.4533334-.1333334-.9133334-.3-1.38-.5s-.8933334-.4566666-1.28-.77-.7033334-.7-.95-1.16-.37-1.0233334-.37-1.69zm10.32 5.14c0-.7333334.1166666-1.42.35-2.06s.5666666-1.2 1-1.68.96-.8566666 1.58-1.13 1.3166666-.41 2.09-.41 1.4633334.13 2.07.39 1.1166666.6233334 1.53 1.09.7266666 1.0233334.94 1.67.32 1.3566666.32 2.13v.62h-7.68v.02c.0533334.4266666.17.8.35 1.12s.4066666.5833334.68.79.58.3633334.92.47.69.16 1.05.16c.6666666 0 1.2466666-.1266666 1.74-.38s.9133334-.56 1.26-.92l1.02 1.74c-.4133334.4-.9466666.7633334-1.6 1.09s-1.4533334.49-2.4.49c-.8 0-1.5233334-.1266666-2.17-.38s-1.1933334-.61-1.64-1.07-.7933334-1.0066666-1.04-1.64-.37-1.3366666-.37-2.11zm7.52-1.02c-.0666666-.6933334-.31-1.2566666-.73-1.69s-1.0233334-.65-1.81-.65c-.8 0-1.4266666.21-1.88.63s-.7466666.99-.88 1.71zm9.82 5.8c-.64.1866666-1.2866666.28-1.94.28-.92 0-1.6233334-.2266666-2.11-.68s-.73-1.2333334-.73-2.34v-5.24h-1.9v-1.84h1.9v-2.68h2.16v2.68h2.64v1.84h-2.64v5.1c0 .3466666.0833334.61.25.79s.4433334.27.83.27c.2666666 0 .51-.0133334.73-.04s.49-.0666666.81-.12zm7.48-6.82c0-1.0133334.1733334-1.95.52-2.81s.82-1.6 1.42-2.22 1.3033334-1.1033334 2.11-1.45 1.67-.52 2.59-.52 1.7833334.1733334 2.59.52 1.5066666.83 2.1 1.45 1.0633334 1.36 1.41 2.22.52 1.7966666.52 2.81c0 1.0266666-.1733334 1.9666666-.52 2.82s-.8166666 1.59-1.41 2.21-1.2933334 1.1033334-2.1 1.45-1.67.52-2.59.52-1.7833334-.1733334-2.59-.52-1.51-.83-2.11-1.45-1.0733334-1.3566666-1.42-2.21-.52-1.7933334-.52-2.82zm10.98 0c0-.6933334-.11-1.3266666-.33-1.9s-.5233334-1.07-.91-1.49-.8466666-.7466666-1.38-.98-1.1066666-.35-1.72-.35c-.6266666 0-1.2066666.1166666-1.74.35s-.9933334.56-1.38.98-.69.9166666-.91 1.49-.33 1.2066666-.33 1.9.11 1.33.33 1.91.5233334 1.0766666.91 1.49.8466666.7366666 1.38.97 1.1133334.35 1.74.35c.6133334 0 1.1866666-.1166666 1.72-.35s.9933334-.5566666 1.38-.97.69-.91.91-1.49.33-1.2166666.33-1.91zm4.26-4.28c.16-.3733334.3766666-.7233334.65-1.05s.5966666-.6133334.97-.86.79-.4433334 1.25-.59.9566666-.22 1.49-.22c.6533334 0 1.25.0966666 1.79.29s1.0033334.4633334 1.39.81.6866666.76.9 1.24.32 1.0066666.32 1.58c0 .76-.17 1.3966666-.51 1.91s-.7433334.8966666-1.21 1.15c.4933334.2666666.9033334.66 1.23 1.18s.49 1.16.49 1.92c0 .6-.1066666 1.1433334-.32 1.63s-.51.9-.89 1.24-.84.6-1.38.78-1.13.27-1.77.27c-.5466666 0-1.0533334-.07-1.52-.21s-.89-.3366666-1.27-.59-.7066666-.55-.98-.89-.49-.71-.65-1.11l1.74-1.62c.2266666.6666666.5766666 1.19 1.05 1.57s1.0233334.57 1.65.57c.6 0 1.0933334-.16 1.48-.48s.58-.7666666.58-1.34c0-.56-.1866666-.99-.56-1.29s-.8466666-.4633334-1.42-.49h-.94v-2.26h.94c.5733334-.0266666 1.0466666-.1966666 1.42-.51s.56-.7366666.56-1.27c0-.56-.1966666-1-.59-1.32s-.8833334-.48-1.47-.48c-.6 0-1.14.19-1.62.57s-.84.8833334-1.08 1.51z" fill="#1f1f1f" opacity=".2"/></g><g transform="translate(707.78125 502.496094)"><path d="m.21875.503906h206v577h-206z" fill="#b5c5c2"/><path d="m39.19875 58.4039062c0-.6133334.1133334-1.1633334.34-1.65.2266666-.4866665.54-.8966665.94-1.23.4-.3333334.8666666-.5866665 1.4-.76.5333334-.1733334 1.1-.26 1.7-.26 1.1333334 0 2.1.3 2.9.9s1.34 1.4466666 1.62 2.54l-2.1.86c-.1866666-.72-.49-1.2366665-.91-1.55-.42-.3133334-.9366666-.4699999-1.55-.4699999-.68 0-1.1933334.1599999-1.54.4799999s-.52.7066666-.52 1.1600001c0 .3066665.0666666.56.2.7599999.1333334.2.32.3733335.56.5200001.24.1466665.5233334.28.85.4.3266666.1199999.6833334.24 1.07.36.5066666.1733334.99.3633334 1.45.57.46.2066665.8633334.4666665 1.21.78.3466666.3133334.62.6899999.82 1.1299999s.3.9733335.3 1.6c0 .6533335-.1133334 1.2266666-.34 1.72-.2266666.4933335-.5366666.9066666-.93 1.24-.3933334.3333335-.8533334.5833335-1.38.75-.5266666.1666666-1.0833334.25-1.67.25-.48 0-.96-.06-1.44-.18-.48-.1199999-.9266666-.3166665-1.34-.5899999-.4133334-.2733335-.7766666-.6266666-1.09-1.06-.3133334-.4333335-.5433334-.97-.69-1.61l2.02-.9600001c.32 1.4133335 1.1666666 2.12 2.54 2.12.64 0 1.14-.1433334 1.5-.43.36-.2866665.54-.6966665.54-1.2299999 0-.32-.0666666-.5866666-.2-.8000001-.1333334-.2133334-.3133334-.3933334-.54-.54-.2266666-.1466665-.49-.2733334-.79-.3799999-.3-.1066666-.6166666-.2133335-.95-.3200001-.4533334-.1333334-.9133334-.3-1.38-.5-.4666666-.1999999-.8933334-.4566665-1.28-.77-.3866666-.3133334-.7033334-.7-.95-1.1599999-.2466666-.4600001-.37-1.0233335-.37-1.6900001zm10.32 5.14c0-.7333334.1166666-1.4199999.35-2.0599999s.5666666-1.2 1-1.6800001c.4333334-.4799999.96-.8566665 1.58-1.1299999.62-.2733335 1.3166666-.4100001 2.09-.4100001s1.4633334.1300001 2.07.39c.6066666.26 1.1166666.6233335 1.53 1.0900001.4133334.4666665.7266666 1.0233334.94 1.6699999.2133334.6466666.32 1.3566666.32 2.13v.62h-7.68v.0200001c.0533334.4266665.17.8.35 1.1199999.18.3200001.4066666.5833335.68.7900001.2733334.2066665.58.3633334.92.47.34.1066665.69.1599999 1.05.1599999.6666666 0 1.2466666-.1266665 1.74-.3799999.4933334-.2533335.9133334-.56 1.26-.92l1.02 1.7399999c-.4133334.4000001-.9466666.7633335-1.6 1.09-.6533334.3266666-1.4533334.4900001-2.4.4900001-.8 0-1.5233334-.1266666-2.17-.3800001-.6466666-.2533334-1.1933334-.61-1.64-1.07s-.7933334-1.0066665-1.04-1.6399999c-.2466666-.6333335-.37-1.3366666-.37-2.1100001zm7.52-1.02c-.0666666-.6933334-.31-1.2566665-.73-1.69-.42-.4333334-1.0233334-.65-1.81-.65-.8 0-1.4266666.2100001-1.88.6300001s-.7466666.9899999-.88 1.7099999zm9.82 5.8c-.64.1866666-1.2866666.28-1.94.28-.92 0-1.6233334-.2266665-2.11-.6799999-.4866666-.4533335-.73-1.2333335-.73-2.3400001v-5.2399999h-1.9v-1.8400001h1.9v-2.6799999h2.16v2.6799999h2.64v1.8400001h-2.64v5.0999999c0 .3466666.0833334.61.25.7900001.1666666.1799999.4433334.2699999.83.2699999.2666666 0 .51-.0133334.73-.0399999.22-.0266666.49-.0666666.81-.12zm7.48-6.82c0-1.0133334.1733334-1.95.52-2.81s.82-1.5999999 1.42-2.22c.6-.6199999 1.3033334-1.1033334 2.11-1.45.8066666-.3466665 1.67-.52 2.59-.52s1.7833334.1733335 2.59.52c.8066666.3466666 1.5066666.8300001 2.1 1.45.5933334.6200001 1.0633334 1.36 1.41 2.22s.52 1.7966666.52 2.81c0 1.0266666-.1733334 1.9666666-.52 2.82-.3466666.8533335-.8166666 1.59-1.41 2.2100001-.5933334.62-1.2933334 1.1033334-2.1 1.45-.8066666.3466665-1.67.5199999-2.59.5199999s-1.7833334-.1733334-2.59-.5199999c-.8066666-.3466666-1.51-.83-2.11-1.45-.6-.6200001-1.0733334-1.3566666-1.42-2.2100001-.3466666-.8533334-.52-1.7933334-.52-2.82zm10.98 0c0-.6933334-.11-1.3266665-.33-1.8999999-.22-.5733335-.5233334-1.07-.91-1.4900001-.3866666-.42-.8466666-.7466665-1.38-.98-.5333334-.2333334-1.1066666-.3499999-1.72-.3499999-.6266666 0-1.2066666.1166665-1.74.3499999-.5333334.2333335-.9933334.56-1.38.98-.3866666.4200001-.69.9166666-.91 1.4900001-.22.5733334-.33 1.2066665-.33 1.8999999 0 .6933335.11 1.33.33 1.91.22.5800001.5233334 1.0766666.91 1.4900001.3866666.4133334.8466666.7366665 1.38.97.5333334.2333334 1.1133334.3499999 1.74.3499999.6133334 0 1.1866666-.1166665 1.72-.3499999.5333334-.2333335.9933334-.5566666 1.38-.97.3866666-.4133335.69-.91.91-1.4900001.22-.58.33-1.2166665.33-1.91zm4.1-3.9399999c.1866666-.36.4233334-.7233335.71-1.0900001.2866666-.3666665.6233334-.6966665 1.01-.9899999.3866666-.2933335.8266666-.53 1.32-.7100001.4933334-.1799999 1.0466666-.27 1.66-.27.6533334 0 1.2566666.1066666 1.81.3200001.5533334.2133334 1.0333334.5166665 1.44.91.4066666.3933334.7233334.8566665.95 1.3899999.2266666.5333335.34 1.1200001.34 1.76 0 .7600001-.1433334 1.4433335-.43 2.05-.2866666.6066666-.6433334 1.1166666-1.07 1.5300001l-3.74 3.7599999h5.24v2.28h-8.8v-1.9l5.58-5.6c.2666666-.2666665.49-.57.67-.9099999.18-.3400001.27-.7033335.27-1.0900001 0-.6666665-.2166666-1.2033334-.65-1.6099999-.4333334-.4066666-.97-.61-1.61-.61-.3466666 0-.6666666.06-.96.18-.2933334.1199999-.5666666.2833334-.82.49-.2533334.2066665-.4766666.4466665-.67.72-.1933334.2733334-.3566666.5633334-.49.8699999z" fill="#1f1f1f" opacity=".2"/></g><g transform="translate(1318.34375 502.496094)"><path d="m.65625.503906h206v577h-206z" fill="#e3dee3"/><path d="m40.63625 58.4039062c0-.6133334.1133334-1.1633334.34-1.65.2266666-.4866665.54-.8966665.94-1.23.4-.3333334.8666666-.5866665 1.4-.76.5333334-.1733334 1.1-.26 1.7-.26 1.1333334 0 2.1.3 2.9.9s1.34 1.4466666 1.62 2.54l-2.1.86c-.1866666-.72-.49-1.2366665-.91-1.55-.42-.3133334-.9366666-.4699999-1.55-.4699999-.68 0-1.1933334.1599999-1.54.4799999s-.52.7066666-.52 1.1600001c0 .3066665.0666666.56.2.7599999.1333334.2.32.3733335.56.5200001.24.1466665.5233334.28.85.4.3266666.1199999.6833334.24 1.07.36.5066666.1733334.99.3633334 1.45.57.46.2066665.8633334.4666665 1.21.78.3466666.3133334.62.6899999.82 1.1299999s.3.9733335.3 1.6c0 .6533335-.1133334 1.2266666-.34 1.72-.2266666.4933335-.5366666.9066666-.93 1.24-.3933334.3333335-.8533334.5833335-1.38.75-.5266666.1666666-1.0833334.25-1.67.25-.48 0-.96-.06-1.44-.18-.48-.1199999-.9266666-.3166665-1.34-.5899999-.4133334-.2733335-.7766666-.6266666-1.09-1.06-.3133334-.4333335-.5433334-.97-.69-1.61l2.02-.9600001c.32 1.4133335 1.1666666 2.12 2.54 2.12.64 0 1.14-.1433334 1.5-.43.36-.2866665.54-.6966665.54-1.2299999 0-.32-.0666666-.5866666-.2-.8000001-.1333334-.2133334-.3133334-.3933334-.54-.54-.2266666-.1466665-.49-.2733334-.79-.3799999-.3-.1066666-.6166666-.2133335-.95-.3200001-.4533334-.1333334-.9133334-.3-1.38-.5-.4666666-.1999999-.8933334-.4566665-1.28-.77-.3866666-.3133334-.7033334-.7-.95-1.1599999-.2466666-.4600001-.37-1.0233335-.37-1.6900001zm10.32 5.14c0-.7333334.1166666-1.4199999.35-2.0599999s.5666666-1.2 1-1.6800001c.4333334-.4799999.96-.8566665 1.58-1.1299999.62-.2733335 1.3166666-.4100001 2.09-.4100001s1.4633334.1300001 2.07.39c.6066666.26 1.1166666.6233335 1.53 1.0900001.4133334.4666665.7266666 1.0233334.94 1.6699999.2133334.6466666.32 1.3566666.32 2.13v.62h-7.68v.0200001c.0533334.4266665.17.8.35 1.1199999.18.3200001.4066666.5833335.68.7900001.2733334.2066665.58.3633334.92.47.34.1066665.69.1599999 1.05.1599999.6666666 0 1.2466666-.1266665 1.74-.3799999.4933334-.2533335.9133334-.56 1.26-.92l1.02 1.7399999c-.4133334.4000001-.9466666.7633335-1.6 1.09-.6533334.3266666-1.4533334.4900001-2.4.4900001-.8 0-1.5233334-.1266666-2.17-.3800001-.6466666-.2533334-1.1933334-.61-1.64-1.07s-.7933334-1.0066665-1.04-1.6399999c-.2466666-.6333335-.37-1.3366666-.37-2.1100001zm7.52-1.02c-.0666666-.6933334-.31-1.2566665-.73-1.69-.42-.4333334-1.0233334-.65-1.81-.65-.8 0-1.4266666.2100001-1.88.6300001s-.7466666.9899999-.88 1.7099999zm9.82 5.8c-.64.1866666-1.2866666.28-1.94.28-.92 0-1.6233334-.2266665-2.11-.6799999-.4866666-.4533335-.73-1.2333335-.73-2.3400001v-5.2399999h-1.9v-1.8400001h1.9v-2.6799999h2.16v2.6799999h2.64v1.8400001h-2.64v5.0999999c0 .3466666.0833334.61.25.7900001.1666666.1799999.4433334.2699999.83.2699999.2666666 0 .51-.0133334.73-.0399999.22-.0266666.49-.0666666.81-.12zm7.48-6.82c0-1.0133334.1733334-1.95.52-2.81s.82-1.5999999 1.42-2.22c.6-.6199999 1.3033334-1.1033334 2.11-1.45.8066666-.3466665 1.67-.52 2.59-.52s1.7833334.1733335 2.59.52c.8066666.3466666 1.5066666.8300001 2.1 1.45.5933334.6200001 1.0633334 1.36 1.41 2.22s.52 1.7966666.52 2.81c0 1.0266666-.1733334 1.9666666-.52 2.82-.3466666.8533335-.8166666 1.59-1.41 2.2100001-.5933334.62-1.2933334 1.1033334-2.1 1.45-.8066666.3466665-1.67.5199999-2.59.5199999s-1.7833334-.1733334-2.59-.5199999c-.8066666-.3466666-1.51-.83-2.11-1.45-.6-.6200001-1.0733334-1.3566666-1.42-2.2100001-.3466666-.8533334-.52-1.7933334-.52-2.82zm10.98 0c0-.6933334-.11-1.3266665-.33-1.8999999-.22-.5733335-.5233334-1.07-.91-1.4900001-.3866666-.42-.8466666-.7466665-1.38-.98-.5333334-.2333334-1.1066666-.3499999-1.72-.3499999-.6266666 0-1.2066666.1166665-1.74.3499999-.5333334.2333335-.9933334.56-1.38.98-.3866666.4200001-.69.9166666-.91 1.4900001-.22.5733334-.33 1.2066665-.33 1.8999999 0 .6933335.11 1.33.33 1.91.22.5800001.5233334 1.0766666.91 1.4900001.3866666.4133334.8466666.7366665 1.38.97.5333334.2333334 1.1133334.3499999 1.74.3499999.6133334 0 1.1866666-.1166665 1.72-.3499999.5333334-.2333335.9933334-.5566666 1.38-.97.3866666-.4133335.69-.91.91-1.4900001.22-.58.33-1.2166665.33-1.91zm13.82-7v9.18h2.44v2.2800001h-2.44v2.5399999h-2.28v-2.5399999h-7.52v-2.0200001l7.9-9.44zm-2.28 4.02-4.3 5.16h4.3z" fill="#1f1f1f" opacity=".2"/></g></g></svg>