<svg width="186" height="70" viewBox="0 0 186 70" fill="none" xmlns="http://www.w3.org/2000/svg">
<path d="M51.9096 34.2957H42.3552V24.1104H39.209V48.2431H42.3552V37.3499H51.9096V48.2431H55.0559V24.1104H51.9096V34.2957Z" fill="#1F1F1F"/>
<path d="M63.3292 24.1104C61.7792 24.1104 60.3131 24.1132 59.0899 25.1708L59.087 25.1737C57.6035 26.497 57.6035 28.1412 57.6035 29.8806V42.4729C57.6035 44.2124 57.6035 45.8565 59.0928 47.1827C60.3189 48.2432 61.7879 48.2432 63.3408 48.2432H71.0213V45.189H63.3408C62.1205 45.189 61.5652 45.189 61.2298 44.9318C60.77 44.5735 60.7498 43.9552 60.7498 42.47V37.347L68.9393 37.3123V34.2581L60.7498 34.2928V29.8806C60.7498 28.3954 60.7671 27.78 61.2269 27.4217C61.5652 27.1616 62.1234 27.1616 63.3408 27.1616H71.0213V24.1104H63.3408C63.335 24.1104 63.3321 24.1104 63.3292 24.1104Z" fill="#1F1F1F"/>
<path d="M130.88 24.1104C129.33 24.1104 127.864 24.1132 126.641 25.1708L126.638 25.1737C125.154 26.497 125.154 28.1412 125.154 29.8806V42.4729C125.154 44.2124 125.154 45.8565 126.644 47.1827C127.87 48.2432 129.339 48.2432 130.892 48.2432H138.572V45.189H130.892C129.671 45.189 129.116 45.189 128.781 44.9318C128.321 44.5735 128.301 43.9552 128.301 42.47V37.347L136.49 37.3123V34.2581L128.301 34.2928V29.8806C128.301 28.3954 128.318 27.78 128.778 27.4217C129.116 27.1616 129.674 27.1616 130.892 27.1616H138.572V24.1104H130.892C130.886 24.1104 130.883 24.1104 130.88 24.1104Z" fill="#1F1F1F"/>
<path d="M83.9436 24.9685C83.2409 24.2866 82.2432 23.8965 81.2109 23.8965C80.1756 23.8965 79.1808 24.2866 78.4781 24.9685C77.8217 25.5984 77.521 26.2052 76.8038 28.9935L71.7461 48.2431H74.982L76.7864 41.3459H85.6382L87.4426 48.2431H90.6785L85.6208 28.9964C84.8979 26.2052 84.6 25.5984 83.9436 24.9685ZM80.6874 27.1471C80.806 27.0287 81.0084 26.9506 81.2109 26.9506C81.4133 26.9506 81.6157 27.0287 81.7343 27.1471C81.9222 27.3407 82.1015 27.8897 82.5642 29.7072L84.8285 38.2918H77.599L79.8633 29.7043C80.3202 27.8897 80.4966 27.3407 80.6874 27.1471Z" fill="#1F1F1F"/>
<path d="M96.7904 24.1104C95.9199 24.1104 94.4625 24.1104 93.2335 25.1737C91.75 26.497 91.75 28.1412 91.75 29.8806V42.4729C91.75 44.2123 91.75 45.8565 93.2393 47.1827C94.4654 48.2431 95.9228 48.2431 96.7933 48.2431C99.1356 48.2431 102.675 48.2431 105.153 45.7149C107.597 43.2242 107.597 39.8001 107.597 36.1739C107.597 32.5476 107.597 29.1236 105.153 26.6357C102.672 24.1104 99.1327 24.1104 96.7904 24.1104ZM96.7904 45.189C96.2351 45.189 95.7088 45.189 95.3734 44.9318C94.9136 44.5735 94.8934 43.9552 94.8934 42.47V29.8806C94.8934 28.3954 94.9107 27.78 95.3705 27.4217C95.7088 27.1616 96.2351 27.1616 96.7904 27.1616C98.7018 27.1616 101.319 27.2366 102.866 28.8114C104.448 30.4237 104.448 32.7932 104.448 36.1739C104.448 39.5545 104.448 41.999 102.866 43.6113C101.319 45.189 98.7018 45.189 96.7904 45.189Z" fill="#1F1F1F"/>
<path d="M120.997 36.4541C119.522 35.1654 117.807 34.6482 116.295 34.1945L116.208 34.1685C115.126 33.8333 113.779 33.4173 112.975 32.7354C112.159 32.0708 111.694 31.1346 111.694 30.1637C111.694 28.6814 112.743 26.9506 115.708 26.9506C117.471 26.9506 119.244 27.5343 120.453 28.5138L120.684 28.6988L122.567 26.2572L122.341 26.0809C120.574 24.694 118.157 23.8965 115.708 23.8965C111.491 23.8965 108.547 26.5028 108.547 30.2331C108.547 32.3135 109.713 34.0327 110.8 34.9458C112.232 36.1565 113.57 36.561 114.863 36.954L115.106 37.0291C116.633 37.503 117.949 37.9104 118.816 38.6616C119.681 39.384 120.239 40.534 120.239 41.5887C120.239 44.2239 117.96 45.4028 115.705 45.4028C113.709 45.4028 111.795 44.7093 110.45 43.4957L110.23 43.2963L108.221 45.6484L108.435 45.8362C110.366 47.5236 112.949 48.454 115.705 48.454C120.982 48.454 123.385 44.8942 123.385 41.5858C123.385 39.3407 122.15 37.4625 120.997 36.4541Z" fill="#1F1F1F"/>
<path d="M130.88 24.0312C129.33 24.0312 127.864 24.0341 126.641 25.0917L126.638 25.0946C125.154 26.4179 125.154 28.0621 125.154 29.8015V42.3938C125.154 44.1332 125.154 45.7773 126.644 47.1036C127.87 48.164 129.339 48.164 130.892 48.164H138.572V45.1099H130.889C129.668 45.1099 129.113 45.1099 128.778 44.8527C128.318 44.4944 128.298 43.8761 128.298 42.3909V37.2679L136.487 37.2332V34.179L128.298 34.2137V29.8015C128.298 28.3163 128.315 27.7009 128.775 27.3426C129.113 27.0825 129.671 27.0825 130.889 27.0825H138.569V24.0312H130.889C130.886 24.0312 130.883 24.0312 130.88 24.0312Z" fill="#1F1F1F"/>
<path d="M139.807 27.1645H146.33V48.2431H149.477V27.1645H156.001V24.1104H139.807V27.1645Z" fill="#1F1F1F"/>
<path d="M15.9051 20L15.904 20.0016L3.15174 26.1372L3.15027 26.1361L7.06283 38.3151L8.81488 30.651L8.81638 30.6496L15.9051 27.238L22.9957 30.6505L24.7481 38.3151L28.6606 26.1361L28.6598 26.1367L15.9051 20Z" fill="#1F1F1F"/>
<path d="M7.14664e-05 39.9271L3.14914 26.1361L7.0617 38.3151L7.14664e-05 39.9271L0.00332648 39.9283L7.0617 38.3168L11.9667 44.4655L11.969 44.4664L11.9684 44.4677L8.82568 50.985L0.00231306 39.93L0 39.9291L0.00136429 39.9288L7.14664e-05 39.9271Z" fill="#1F1F1F"/>
<path d="M31.8124 39.9275L28.6633 26.1361L24.7507 38.3151L31.8124 39.9275Z" fill="#1F1F1F"/>
<path d="M31.8069 39.928L24.7462 38.3159L19.8388 44.4676L19.8407 44.4669L22.9838 50.985L31.8095 39.9271L31.8069 39.928Z" fill="#1F1F1F"/>
</svg>
