<svg width="1920" height="920" viewBox="0 0 1920 920" fill="none" xmlns="http://www.w3.org/2000/svg">
<path d="M0 0H1920V920H0V0Z" fill="white"/>
<path d="M963 0H1686V720H963V0Z" fill="#DDE3F8"/>
<path d="M1381.04 394.89V482H1430V381.16H1394.77C1391.13 381.16 1387.64 382.61 1385.06 385.18C1382.49 387.758 1381.04 391.249 1381.04 394.89ZM1269.09 318.02V237H1220.11V331.75H1255.36C1257.16 331.751 1258.95 331.397 1260.62 330.707C1262.28 330.017 1263.8 329.006 1265.07 327.731C1266.35 326.456 1267.36 324.942 1268.05 323.276C1268.74 321.609 1269.09 319.823 1269.09 318.02V318.02ZM1381.02 237V327.18C1381.02 329.61 1380.06 331.93 1378.34 333.65C1377.49 334.501 1376.48 335.176 1375.37 335.636C1374.26 336.096 1373.07 336.332 1371.87 336.33H1282.79C1280.99 336.33 1279.2 336.686 1277.54 337.376C1275.87 338.066 1274.36 339.078 1273.09 340.353C1271.81 341.628 1270.8 343.141 1270.11 344.807C1269.42 346.473 1269.07 348.258 1269.07 350.06V367.36C1269.07 369.79 1268.1 372.11 1266.39 373.83C1264.67 375.546 1262.35 376.51 1259.92 376.51H1224.58C1223.36 376.51 1222.2 376.99 1221.34 377.85C1220.91 378.275 1220.58 378.78 1220.35 379.336C1220.12 379.892 1220 380.488 1220 381.09V482H1268.98V385.73C1268.98 383.31 1269.94 380.98 1271.66 379.26C1272.51 378.409 1273.52 377.734 1274.63 377.274C1275.74 376.814 1276.93 376.578 1278.13 376.58H1367.2C1370.84 376.58 1374.34 375.13 1376.91 372.56C1379.48 369.98 1380.93 366.49 1380.93 362.85V345.48C1380.93 343.053 1381.89 340.726 1383.61 339.01C1385.33 337.295 1387.65 336.33 1390.08 336.33H1425.42C1426.64 336.33 1427.8 335.85 1428.66 334.99C1429.09 334.565 1429.42 334.06 1429.65 333.504C1429.88 332.948 1430 332.352 1430 331.75V237H1381.02Z" fill="#CED4E9"/>
<path d="M240 0H963V720H240V0Z" fill="#F1F4FE"/>
<path d="M650.766 389.42V464.67H693.064V377.56H662.625C659.48 377.56 656.463 378.81 654.239 381.04C653.138 382.14 652.265 383.447 651.669 384.885C651.073 386.322 650.766 387.864 650.766 389.42V389.42ZM554.029 323.03V253.04H511.711V334.89H542.17C545.315 334.89 548.332 333.64 550.556 331.41C551.657 330.31 552.531 329.003 553.127 327.566C553.722 326.128 554.029 324.586 554.029 323.03ZM650.745 253.04V330.93C650.745 333.03 649.912 335.04 648.43 336.52C647.697 337.256 646.826 337.84 645.866 338.238C644.907 338.636 643.878 338.841 642.839 338.84H565.87C562.725 338.84 559.709 340.09 557.485 342.31C555.261 344.536 554.012 347.553 554.011 350.7V365.64C554.011 367.74 553.178 369.75 551.696 371.23C550.213 372.713 548.202 373.547 546.105 373.55H515.566C515.047 373.549 514.532 373.65 514.052 373.849C513.573 374.049 513.137 374.341 512.771 374.71C512.404 375.076 512.113 375.511 511.914 375.99C511.715 376.468 511.613 376.982 511.613 377.5V464.67H553.932V381.51C553.932 379.42 554.765 377.41 556.248 375.92C557.732 374.44 559.743 373.609 561.839 373.61H638.807C641.952 373.61 644.969 372.36 647.193 370.13C648.294 369.03 649.168 367.723 649.764 366.286C650.359 364.848 650.666 363.306 650.666 361.75V346.75C650.666 344.65 651.499 342.64 652.982 341.15C654.466 339.67 656.477 338.839 658.573 338.84H689.111C690.159 338.838 691.163 338.421 691.903 337.681C692.644 336.941 693.062 335.937 693.064 334.89V253.04H650.745V253.04Z" fill="#5377EC"/>
<path d="M777.468 253.46H425.311H777.468ZM777.64 373.3H425.94H777.64ZM777.64 377.61H425.788H777.64ZM777.64 335.04H426.015H777.64ZM777.114 338.59H425.309H777.114ZM776.991 465.1H425.31H776.991ZM650.48 362.37C650.48 368.11 645.645 372.76 639.681 372.76C633.717 372.76 628.882 368.11 628.882 362.37C628.882 356.63 633.717 351.98 639.681 351.98C645.645 351.98 650.48 356.63 650.48 362.37Z" stroke="#9DB6F2" stroke-width="1.337"/>
<path d="M566.007 362.993C572.536 362.993 577.83 357.7 577.83 351.17C577.83 344.641 572.536 339.347 566.007 339.347C559.477 339.347 554.184 344.641 554.184 351.17C554.184 357.7 559.477 362.993 566.007 362.993Z" stroke="#9DB6F2" stroke-width="1.337"/>
<path d="M672.982 389.13C672.982 395.35 667.946 400.38 661.733 400.38C655.521 400.38 650.484 395.35 650.484 389.13C650.484 382.92 655.521 377.88 661.733 377.88C667.946 377.88 672.982 382.92 672.982 389.13ZM553.427 323.78C553.427 329.98 548.398 335.01 542.195 335.01C535.992 335.01 530.963 329.98 530.963 323.78C530.963 317.58 535.992 312.55 542.195 312.55C548.398 312.55 553.427 317.58 553.427 323.78ZM665.854 346.55C665.855 348.07 665.405 349.556 664.561 350.821C663.717 352.085 662.517 353.071 661.113 353.654C659.709 354.236 658.164 354.389 656.673 354.093C655.182 353.797 653.812 353.065 652.737 351.991C651.661 350.916 650.929 349.547 650.632 348.056C650.335 346.565 650.487 345.02 651.068 343.615C651.65 342.211 652.635 341.01 653.899 340.166C655.163 339.321 656.649 338.87 658.169 338.87C660.206 338.869 662.161 339.678 663.602 341.119C665.043 342.559 665.853 344.513 665.854 346.55ZM553.553 367.89C553.553 370.83 551.167 373.22 548.224 373.22C546.811 373.219 545.455 372.658 544.456 371.658C543.457 370.659 542.895 369.303 542.895 367.89C542.895 364.95 545.28 362.56 548.224 362.56C549.637 362.561 550.992 363.123 551.992 364.122C552.991 365.121 553.552 366.477 553.553 367.89V367.89Z" stroke="#9DB6F2" stroke-width="1.337"/>
<path d="M650.431 330.93C650.431 335.17 646.99 338.61 642.746 338.61C640.708 338.611 638.754 337.802 637.313 336.362C635.871 334.921 635.061 332.968 635.061 330.93C635.061 328.892 635.87 326.937 637.311 325.496C638.753 324.055 640.707 323.245 642.746 323.245C644.784 323.245 646.738 324.055 648.18 325.496C649.621 326.937 650.431 328.892 650.431 330.93V330.93Z" fill="#F1F4FE" stroke="#9DB6F2" stroke-width="1.337"/>
<path d="M693.181 189.19V530.88M512.289 189.19V530.88V189.19ZM553.666 189.19V530.88V189.19ZM650.617 189.19V530.88V189.19Z" stroke="#9DB6F2" stroke-width="1.337"/>
<path d="M692.513 334.77C692.513 336.89 690.793 338.61 688.671 338.61C687.652 338.61 686.675 338.206 685.954 337.486C685.234 336.766 684.829 335.789 684.828 334.77C684.828 332.65 686.548 330.93 688.671 330.93C689.176 330.93 689.675 331.029 690.141 331.222C690.607 331.415 691.031 331.698 691.387 332.054C691.744 332.411 692.027 332.834 692.22 333.3C692.413 333.766 692.513 334.266 692.513 334.77Z" fill="#5377EC" stroke="#9DB6F2" stroke-width="1.337"/>
<path d="M567.81 380.26C567.779 382.081 567.034 383.817 565.735 385.094C564.436 386.37 562.688 387.086 560.867 387.086C559.046 387.086 557.297 386.37 555.999 385.094C554.7 383.817 553.955 382.081 553.924 380.26C553.924 376.42 557.032 373.32 560.867 373.32C564.701 373.32 567.81 376.42 567.81 380.26Z" fill="#F1F4FE" stroke="#9DB6F2" stroke-width="1.337"/>
<path d="M739.54 189.19H463.41C442.368 189.19 425.311 206.247 425.311 227.289V492.778C425.311 513.819 442.368 530.877 463.41 530.877H739.54C760.581 530.877 777.639 513.819 777.639 492.778V227.289C777.639 206.247 760.581 189.19 739.54 189.19Z" stroke="#5377EC" stroke-width="1.786"/>
</svg>
