<svg viewBox="0 0 1920 480" xmlns="http://www.w3.org/2000/svg"><g fill="#1f1f1f"><path d="m671.48400879 215.80001579h6.88800049l11.36798096 29.00799561 12.48803711-29.00799561h6.21594238l12.54400635 29.00799561 11.36804199-29.00799561h6.88800049l-15.40002441 39.19999695h-5.43200684l-13.04797363-30.12800598-13.04803467 30.12800598h-5.43200684z"/><path d="m740.21002197 241.11201225c0-2.76300049.57897949-5.26399231 1.73596191-7.5039978 1.15704346-2.24000549 2.79998779-4.01400757 4.92803955-5.32000732 2.12799072-1.30699158 4.59197998-1.95999146 7.39196777-1.95999146 2.83703613 0 5.28302002.63400269 7.33599854 1.9039917 2.05303955 1.23200989 3.60302734 2.96800232 4.64801025 5.20800781 1.08300781 2.23999023 1.62402344 4.79699707 1.62402344 7.67199707v1.73600769h-21.50402832v.05599976c.26098633 2.2769928 1.19500732 4.03199768 2.79998779 5.26399231 1.6050415 1.23199463 3.4720459 1.8480072 5.60003662 1.8480072 3.24798584 0 6.04797363-1.21400452 8.39996338-3.63999939l2.85601807 4.87199402c-1.30700684 1.30599976-2.89300537 2.36999512-4.76000977 3.19200134-1.86700439.82099915-4.01300049 1.23199463-6.44000244 1.23199463-2.94897461 0-5.52496338-.59799194-7.72796631-1.79199219-2.20300293-1.23200989-3.90100098-2.95001221-5.0960083-5.15200806-1.19500732-2.20300293-1.79199219-4.74200439-1.79199219-7.61599731zm21.05596924-2.85600281c-.18701172-2.01599121-.89599609-3.60299683-2.12799072-4.75999451-1.19500732-1.19500732-2.85601807-1.79200745-4.98400879-1.79200745-2.16497803 0-3.90100098.57800293-5.20800781 1.73600769-1.30700684 1.11999512-2.14697266 2.72499084-2.5199585 4.81599426h14.83996582z"/><path d="m779.67602539 231.03201042c2.46398926-3.13600159 5.69396973-4.70399475 9.68798828-4.70399475 2.53900146 0 4.79797363.61599731 6.77600098 1.84799194 1.97900391 1.23200989 3.51000977 2.96800232 4.59197998 5.20800781 1.11999512 2.20199585 1.67999268 4.74099731 1.67999268 7.61599731 0 2.87399292-.55999756 5.43200684-1.67999268 7.67199707-1.08197021 2.20199585-2.63201904 3.91999817-4.64801025 5.15200806-1.97796631 1.23199463-4.23699951 1.84799194-6.77600098 1.84799194-2.01599121 0-3.8449707-.39199829-5.48797607-1.17599487-1.64202881-.78399658-3.02398682-1.94200134-4.14398193-3.47200012v3.97599792h-6.04803467v-39.19999695h6.04803467v15.23199463zm16.5199585 9.96800232c0-2.65100098-.78399658-4.79800415-2.35198975-6.44000244-1.52996826-1.64299011-3.54602051-2.46400452-6.04797363-2.46400452-2.5380249 0-4.57299805.8210144-6.10400391 2.46400452-1.5300293 1.60499573-2.29602051 3.7519989-2.29602051 6.44000244s.76599121 4.85299683 2.29602051 6.4960022c1.53100586 1.60499573 3.565979 2.40800476 6.10400391 2.40800476 2.50195313 0 4.51800537-.82200623 6.04797363-2.46400452 1.56799316-1.64300537 2.35198975-3.79000854 2.35198975-6.44000244z"/><path d="m823.60998535 223.4160131c1.00799561-2.20300293 2.59503174-4.01400757 4.76000977-5.43200684 2.20300293-1.45599365 4.68499756-2.18399048 7.44799805-2.18399048 2.35198975 0 4.46099854.46600342 6.32800293 1.3999939 1.86700439.89599609 3.32299805 2.18400574 4.36798096 3.86399841 1.08300781 1.68000793 1.62402344 3.58399963 1.62402344 5.71200562 0 1.94099426-.44799805 3.65800476-1.34399414 5.1519928-.85900879 1.49301147-2.01599121 2.63200378-3.47198486 3.41600037 1.49298096.78401184 2.66900635 1.94100952 3.5279541 3.47200012.85900879 1.52999878 1.2880249 3.28500366 1.2880249 5.26400757 0 2.24000549-.52301025 4.18099976-1.56799316 5.82400513-1.04498291 1.64199829-2.5010376 2.9119873-4.36798096 3.80799866-1.82904053.85800171-3.92004395 1.28799438-6.27203369 1.28799438-2.875 0-5.43200684-.71000671-7.67199707-2.12800598-2.20300293-1.45599365-3.77099609-3.36000061-4.70397949-5.71199036l4.87200928-4.53601074c.55999756 1.82901001 1.49298096 3.28500366 2.79998779 4.36801147 1.34399414 1.08200073 2.93096924 1.62399292 4.76000977 1.62399292 1.71697998 0 3.09899902-.44799805 4.14398193-1.34399414 1.08300781-.93400574 1.62402344-2.18400574 1.62402344-3.7519989 0-1.53100586-.52301025-2.72599792-1.5680542-3.58399963-1.00799561-.85900879-2.33294678-1.32600403-3.97595215-1.40000916h-2.63201904v-6.32800293h2.63201904c1.60498047-.07499695 2.93096924-.54199219 3.97595215-1.3999939 1.04504395-.89599609 1.5680542-2.09100342 1.5680542-3.58399963 0-1.53100586-.54101563-2.7440033-1.62402344-3.63999939-1.08300781-.93400574-2.46398926-1.3999939-4.14398193-1.3999939-1.75500488 0-3.30401611.54100037-4.64801025 1.62399292-1.34399414 1.08200073-2.31500244 2.48199463-2.9119873 4.19999695l-4.81604004-4.59199524z"/><path d="m861.02001953 245.3120092c1.38195801 0 2.53900146.46600342 3.47198486 1.40000916.934021.93299866 1.40002441 2.08999634 1.40002441 3.47200012 0 1.3809967-.46600342 2.53799438-1.40002441 3.47200012-.9329834.89599609-2.09002686 1.34399414-3.47198486 1.34399414-1.38104248 0-2.5380249-.44799805-3.4720459-1.34399414-.89599609-.93400574-1.34399414-2.09100342-1.34399414-3.47200012 0-1.38200378.44799805-2.53900146 1.34399414-3.47200012.934021-.93400574 2.09100342-1.40000916 3.4720459-1.40000916z"/><path d="m890.26202393 255.00001274c-3.39703369 0-6.51403809-.83999634-9.35205078-2.52000427-2.8369751-1.67999268-5.07696533-4.01399231-6.7199707-7-1.64202881-2.98699951-2.46398926-6.34700012-2.46398926-10.08000183 0-3.73399353.82196045-7.09399414 2.46398926-10.07998657 1.64300537-2.98701477 3.88299561-5.32000732 6.7199707-7 2.8380127-1.68000793 5.95501709-2.52000427 9.35205078-2.52000427 3.43499756 0 6.57098389.83999634 9.40795898 2.52000427 2.8380127 1.67999268 5.07800293 4.01298523 6.72003174 7 1.64300537 2.98599243 2.46398926 6.34599304 2.46398926 10.07998657 0 3.73300171-.82098389 7.09300232-2.46398926 10.08000183-1.64202881 2.98600769-3.88201904 5.32000732-6.72003174 7-2.8369751 1.68000793-5.97296143 2.52000427-9.40795898 2.52000427zm0-6.38400269c2.31500244 0 4.38696289-.55999756 6.21600342-1.67999268 1.86694336-1.12001038 3.32299805-2.68800354 4.36798096-4.70401001 1.08300781-2.01599121 1.6239624-4.29399109 1.6239624-6.83200073 0-2.53900146-.54095459-4.81599426-1.6239624-6.83200073-1.04498291-2.01599121-2.5010376-3.58399963-4.36798096-4.70399475-1.82904053-1.11999512-3.90100098-1.67999268-6.21600342-1.67999268-2.27703857 0-4.34899902.55999756-6.21600342 1.67999268-1.82904053 1.11999512-3.28503418 2.68800354-4.36804199 4.70399475-1.04498291 2.01600647-1.56799316 4.29299927-1.56799316 6.83200073 0 2.53800964.52301025 4.81600952 1.56799316 6.83200073 1.08300781 2.01600647 2.53900146 3.58399963 4.36804199 4.70401001 1.86700439 1.11999512 3.93896484 1.67999268 6.21600342 1.67999268z"/><path d="m928.08197021 248.28001151-10.07995605 17.92001343-4.76000977-2.57601929 9.96801758-18.03199768z"/><path d="m950.80700684 241.05601249c0-2.875.6159668-5.41400146 1.84802246-7.61599731 1.26898193-2.24000549 3.02398682-3.97599792 5.26397705-5.20800781 2.27697754-1.26998901 4.85296631-1.9039917 7.72796631-1.9039917 4.18103027 0 7.63500977 1.36199951 10.36004639 4.08799744l-3.64001465 4.75999451c-2.16497803-1.97898865-4.46099854-2.96800232-6.88800049-2.96800232-2.50097656 0-4.53601074.8210144-6.10400391 2.46400452-1.56799316 1.60499573-2.35198975 3.71400452-2.35198975 6.32800293 0 2.57600403.78399658 4.68499756 2.35198975 6.32800293 1.56799316 1.64199829 3.58398438 2.46400452 6.04797363 2.46400452 2.65100098 0 5.059021-1.02700806 7.22399902-3.08000183l3.4720459 4.81599426c-1.34399414 1.34399414-2.93103027 2.36999512-4.76000977 3.08000183-1.82897949.70899963-3.8079834 1.06399536-5.93603516 1.06399536-2.875 0-5.41296387-.61599731-7.6159668-1.84799194-2.20300293-1.23200989-3.91998291-2.95001221-5.15197754-5.15200806-1.23205566-2.20300293-1.84802246-4.74200439-1.84802246-7.61599731z"/><path d="m987.15100098 231.42400871c1.79199219-3.397995 4.53601074-5.09599304 8.23199463-5.09599304.9329834 0 1.84802246.11199951 2.74401855.33599854v6.44000244c-1.11999512-.26200867-2.14703369-.39199829-3.08001709-.39199829-2.68798828 0-4.64801025.80200195-5.88000488 2.4079895-1.19500732 1.60501099-1.79199219 3.95700073-1.79199219 7.05599976v12.82400513h-6.04797363v-28h5.82397461v4.42399597z"/><path d="m1012.2800293 251.13601432-12.04003906-24.13600159h7.16998291l8.05999756 17.08000183 7.84002686-17.08000183h6.44000244l-17.91998291 39.20001221h-6.44000244l6.89001465-15.06401062z"/><path d="m1033.5300293 227.00001274h6.03991699v3.97599792c1.11999512-1.5309906 2.5-2.68800354 4.15002441-3.47200012 1.64001465-.78399658 3.4699707-1.17599487 5.48999023-1.17599487 2.5300293 0 4.79003906.61599731 6.77001953 1.84799194 2.02001953 1.23200989 3.57006836 2.96800232 4.65002441 5.20800781 1.11999512 2.20199585 1.68005371 4.74099731 1.68005371 7.61599731 0 2.87399292-.56005859 5.43200684-1.68005371 7.67199707-1.07995605 2.20199585-2.60998535 3.91999817-4.58996582 5.15200806-1.97998047 1.23199463-4.23999023 1.84799194-6.7800293 1.84799194-3.98999023 0-7.2199707-1.56799316-9.69006348-4.70399475v15.23200989h-6.03991699v-39.20001221zm14.15991211 22.90400696c2.5 0 4.52001953-.82200623 6.05004883-2.46400452 1.57006836-1.64300537 2.34997559-3.79000854 2.34997559-6.44000244 0-2.65100098-.77990723-4.79800415-2.34997559-6.44000244-1.5300293-1.64299011-3.55004883-2.46400452-6.05004883-2.46400452-2.53991699 0-4.56994629.8210144-6.09997559 2.46400452-1.52990723 1.60499573-2.29992676 3.7519989-2.29992676 6.44000244s.77001953 4.85299683 2.29992676 6.4960022c1.5300293 1.60499573 3.56005859 2.40800476 6.09997559 2.40800476z"/><path d="m1082.9699707 254.49601493c-1.79992676.52200317-3.60998535.78399658-5.43994141.78399658-2.65002441 0-4.64001465-.6539917-5.98999023-1.95999146-1.30004883-1.3440094-1.96008301-3.51000977-1.96008301-6.4960022v-14.67201233h-5.31994629v-5.1519928h5.31994629v-7.5039978h6.05004883v7.5039978h7.39001465v5.1519928h-7.39001465v14.28001404c0 1.00799561.2199707 1.7539978.67004395 2.23999023.48999023.48500061 1.26989746.72799683 2.34997559.72799683.9699707 0 2.41003418-.1499939 4.31994629-.44799805v5.54400635z"/><path d="m1086.10998535 241.00001274c0-2.80000305.64001465-5.32000732 1.91003418-7.55999756 1.30993652-2.24000549 3.07995605-3.97599792 5.31994629-5.20800781 2.2800293-1.26998901 4.81005859-1.9039917 7.60998535-1.9039917 2.80004883 0 5.32006836.63400269 7.56005859 1.9039917 2.2800293 1.23200989 4.05993652 2.96800232 5.31994629 5.20800781 1.31005859 2.23999023 1.96008301 4.75999451 1.96008301 7.55999756s-.65002441 5.32000732-1.96008301 7.55999756c-1.26000977 2.24000549-3.03991699 3.9940033-5.31994629 5.26400757-2.23999023 1.23199463-4.76000977 1.84799194-7.56005859 1.84799194-2.79992676 0-5.32995605-.61599731-7.60998535-1.84799194-2.23999023-1.27000427-4.01000977-3.02400208-5.31994629-5.26400757-1.27001953-2.23999023-1.91003418-4.75999451-1.91003418-7.55999756zm23.4699707 0c0-2.61399841-.79992676-4.7230072-2.40991211-6.32800293-1.60009766-1.64299011-3.68005371-2.46400452-6.22009277-2.46400452-2.52990723 0-4.60998535.8210144-6.20996094 2.46400452-1.60998535 1.60499573-2.41003418 3.71400452-2.41003418 6.32800293 0 2.61300659.80004883 4.74099731 2.41003418 6.38400269 1.59997559 1.60499573 3.68005371 2.40800476 6.20996094 2.40800476 2.54003906 0 4.61999512-.80300903 6.22009277-2.40800476 1.60998535-1.64300537 2.40991211-3.77099609 2.40991211-6.38400269z"/><path d="m1130.26000977 248.28001151-10.07995605 17.92001343-4.76000977-2.57601929 9.95996094-18.03199768z"/><path d="m1154.32995605 233.04801689c.73999023-2.20300293 2.11999512-3.86399841 4.14001465-4.98400879 2.02001953-1.1579895 4.59008789-1.73599243 7.72998047-1.73599243 7.80004883 0 11.70007324 3.63999939 11.70007324 10.91999817v17.7519989h-6.05004883v-3.86399841c-.9699707 1.45599365-2.2199707 2.57600403-3.75 3.36000061s-3.25 1.17599487-5.15002441 1.17599487c-2.79992676 0-5.07995605-.82199097-6.82995605-2.46400452-1.76000977-1.64299011-2.63000488-3.7519989-2.63000488-6.32798767 0-2.42700195.80004883-4.40600586 2.40002441-5.93600464 1.60998535-1.56799316 3.79003906-2.48300171 6.55993652-2.7440033l7.7800293-.78399658c.59997559-.03799438 1.01000977-.1499939 1.22998047-.33599854.26000977-.22399902.39001465-.54200745.39001465-.95199585v-.61601257c0-1.19499207-.47998047-2.11000061-1.44995117-2.74398804-.9699707-.67201233-2.33007813-1.00801086-4.08996582-1.00801086-1.94006348 0-3.5300293.39199829-4.76000977 1.17601013-1.23010254.7460022-2.02001953 1.80999756-2.35009766 3.19200134l-4.86999512-3.08000183zm9.46008301 10.02400208c-1.27001953.14898682-2.26000977.54100037-2.97009277 1.17599487-.70996094.63400269-1.05993652 1.45599365-1.05993652 2.46400452 0 1.11999512.41003418 2.01599121 1.22998047 2.68798828.82006836.63400269 1.94006348.95201111 3.35998535.95201111 2.13000488 0 3.90002441-.63500977 5.32006836-1.90400696 1.45996094-1.30699158 2.17993164-2.89399719 2.17993164-4.75999451v-1.62400818l-8.05993652 1.00801086z"/><path d="m1184.97998047 227.00001274h5.88000488v4.2559967c1.04003906-1.64299011 2.34997559-2.875 3.92004395-3.69599915 1.59997559-.82199097 3.38000488-1.23199463 5.31994629-1.23199463 3.21008301 0 5.69006348 1.00799561 7.45007324 3.02400208 1.78991699 1.97799683 2.67993164 4.79699707 2.67993164 8.45599365v17.19200134h-6.15002441v-16.12800598c0-2.20298767-.52990723-3.88299561-1.56994629-5.03999329-1.05004883-1.19500732-2.56005859-1.79200745-4.54003906-1.79200745-2.2800293 0-4.01000977.8400116-5.20996094 2.52000427-1.15002441 1.64199829-1.72998047 4.05000305-1.72998047 7.22399902v13.21600342h-6.05004883v-28z"/><path d="m1244.90002441 255.00001274h-6.09997559v-3.97599792c-1.08007813 1.49299622-2.45007324 2.6499939-4.09008789 3.47200012-1.64001465.78399658-3.4699707 1.17599487-5.48999023 1.17599487-2.53991699 0-4.80993652-.61599731-6.82995605-1.84799194-1.97998047-1.23200989-3.5300293-2.95001221-4.65002441-5.15200806-1.07995605-2.23999023-1.61999512-4.79800415-1.61999512-7.67199707 0-2.875.54003906-5.41400146 1.61999512-7.61599731 1.11999512-2.24000549 2.67004395-3.97599792 4.65002441-5.20800781 1.97998047-1.23199463 4.23999023-1.84799194 6.7800293-1.84799194 3.94995117 0 7.15991211 1.56799316 9.63000488 4.70399475v-15.23199463h6.09997559v39.19999695zm-14.17004395-22.90400696c-2.5 0-4.5300293.8210144-6.09997559 2.46400452-1.5300293 1.64199829-2.30004883 3.78900146-2.30004883 6.44000244 0 2.6499939.77001953 4.79699707 2.30004883 6.44000244 1.56994629 1.64199829 3.59997559 2.46400452 6.09997559 2.46400452 2.51000977 0 4.52001953-.80300903 6.05004883-2.40800476 1.5300293-1.64300537 2.29992676-3.80799866 2.29992676-6.4960022s-.76989746-4.83500671-2.29992676-6.44000244c-1.5300293-1.64299011-3.54003906-2.46400452-6.05004883-2.46400452z"/><path d="m704.46099854 298.03202568c2.46398926-3.13601685 5.69403076-4.70401001 9.68798828-4.70401001 2.53900146 0 4.79803467.61599731 6.77600098 1.84799194 1.97900391 1.23199463 3.51000977 2.96801758 4.59204102 5.20800781 1.11999512 2.20199585 1.67999268 4.74099731 1.67999268 7.61599731 0 2.87399292-.55999756 5.43200684-1.67999268 7.67199707-1.08203125 2.20199585-2.63201904 3.92001343-4.64801025 5.15200806-1.97802734 1.23199463-4.23699951 1.84799194-6.77600098 1.84799194-2.01599121 0-3.84503174-.39199829-5.48803711-1.17599487-1.64196777-.78399658-3.02398682-1.9420166-4.14398193-3.47201538v3.97601318h-6.04797363v-39.20001221h6.04797363v15.23202515zm16.52001953 9.96798706c0-2.65100098-.78399658-4.79800415-2.35198975-6.44000244-1.5300293-1.64300537-3.54602051-2.46398926-6.04803467-2.46398926-2.53796387 0-4.57299805.82098389-6.10400391 2.46398926-1.52996826 1.60501099-2.29595947 3.75201416-2.29595947 6.44000244s.76599121 4.85299683 2.29595947 6.4960022c1.53100586 1.60501099 3.56604004 2.4079895 6.10400391 2.4079895 2.50201416 0 4.51800537-.82199097 6.04803467-2.46398926 1.56799316-1.64300537 2.35198975-3.79000854 2.35198975-6.44000244z"/><path d="m739.14898682 322.00001274h-6.15997314v-39.20001221h6.15997314z"/><path d="m744.9329834 308.00001274c0-2.79998779.6340332-5.32000732 1.9039917-7.55999756 1.30603027-2.23999023 3.08001709-3.97601318 5.32000732-5.20800781 2.27703857-1.26998901 4.81604004-1.9039917 7.61602783-1.9039917s5.32000732.63400269 7.55999756 1.9039917c2.27697754 1.23199463 4.04998779 2.96801758 5.32000732 5.20800781 1.30596924 2.23999023 1.95996094 4.76000977 1.95996094 7.55999756s-.6539917 5.32000732-1.95996094 7.55999756c-1.27001953 2.23999023-3.04302979 3.99398804-5.32000732 5.26400757-2.23999023 1.23199463-4.76000977 1.84799194-7.55999756 1.84799194s-5.33898926-.61599731-7.61602783-1.84799194c-2.23999023-1.27001953-4.01397705-3.02401733-5.32000732-5.26400757-1.2699585-2.23999023-1.9039917-4.76000977-1.9039917-7.55999756zm23.46398926 0c0-2.61401367-.80297852-4.72299194-2.40795898-6.32800293-1.60601807-1.64300537-3.67803955-2.46398926-6.21600342-2.46398926-2.53900146 0-4.61102295.82098389-6.21600342 2.46398926-1.60601807 1.60501099-2.40802002 3.71398926-2.40802002 6.32800293 0 2.61300659.80200195 4.74099731 2.40802002 6.38400269 1.60498047 1.60501099 3.67700195 2.4079895 6.21600342 2.4079895 2.53796387 0 4.60998535-.80297852 6.21600342-2.4079895 1.60498047-1.64300537 2.40795898-3.77099609 2.40795898-6.38400269z"/><path d="m778.41497803 308.05601249c0-2.875.61602783-5.41400146 1.84802246-7.61599731 1.26898193-2.23999023 3.02398682-3.97601318 5.26397705-5.20800781 2.27703857-1.26998901 4.85302734-1.9039917 7.72802734-1.9039917 4.18096924 0 7.63397217 1.36199951 10.35998535 4.08798218l-3.64001465 4.76000977c-2.16595459-1.97900391-4.4619751-2.96798706-6.88800049-2.96798706-2.50195313 0-4.53594971.82098389-6.10400391 2.46398926-1.56799316 1.60501099-2.35198975 3.71398926-2.35198975 6.32800293 0 2.57598877.78399658 4.68499756 2.35198975 6.32800293 1.5680542 1.64199829 3.58404541 2.46398926 6.04803467 2.46398926 2.65002441 0 5.0579834-1.02697754 7.22399902-3.07998657l3.47198486 4.81600952c-1.34399414 1.34399414-2.93096924 2.36999512-4.76000977 3.07998657-1.82995605.70898438-3.8079834 1.06399536-5.93597412 1.06399536-2.875 0-5.41400146-.61599731-7.61602783-1.84799194-2.20300293-1.23199463-3.91998291-2.95001221-5.15197754-5.15200806-1.23199463-2.20300293-1.84802246-4.74200439-1.84802246-7.61599731z"/><path d="m814.98297119 313.82401786v8.17599487h-6.04797363v-39.20001221h6.04797363v23.40802002l11.53601074-12.20800781h8.23199463l-12.09594727 12.15200806 12.09594727 15.84799194h-7.83996582l-8.34399414-11.76000977-3.58404541 3.58401489z"/><path d="m834.98797607 308.05601249c0-2.875.61602783-5.41400146 1.84802246-7.61599731 1.26898193-2.23999023 3.02398682-3.97601318 5.26397705-5.20800781 2.27703857-1.26998901 4.85302734-1.9039917 7.72802734-1.9039917 4.18096924 0 7.63397217 1.36199951 10.35998535 4.08798218l-3.64001465 4.76000977c-2.16595459-1.97900391-4.4619751-2.96798706-6.88800049-2.96798706-2.50195313 0-4.53594971.82098389-6.10394287 2.46398926-1.5680542 1.60501099-2.35205078 3.71398926-2.35205078 6.32800293 0 2.57598877.78399658 4.68499756 2.35205078 6.32800293 1.56799316 1.64199829 3.58398438 2.46398926 6.04797363 2.46398926 2.65002441 0 5.0579834-1.02697754 7.22399902-3.07998657l3.47198486 4.81600952c-1.34399414 1.34399414-2.93096924 2.36999512-4.76000977 3.07998657-1.82995605.70898438-3.8079834 1.06399536-5.93597412 1.06399536-2.875 0-5.41400146-.61599731-7.61602783-1.84799194-2.20300293-1.23199463-3.91998291-2.95001221-5.15197754-5.15200806-1.23199463-2.20300293-1.84802246-4.74200439-1.84802246-7.61599731z"/><path d="m871.55603027 298.2560247c2.05297852-3.28601074 5.0579834-4.92800903 9.01599121-4.92800903 3.28497314 0 5.80499268 1.02600098 7.55999756 3.07998657 1.75396729 2.01602173 2.63195801 4.90899658 2.63195801 8.68002319v16.9119873h-6.15997314v-16.12799072c0-2.16601563-.50402832-3.8460083-1.51202393-5.04000854-1.00799561-1.19500732-2.44598389-1.79199219-4.31195068-1.79199219-4.81604004 0-7.22399902 3.24798584-7.22399902 9.74398804v13.21600342h-6.04803467v-39.20001221h6.04803467v15.45602417z"/><path d="m897.99102783 300.04801689c.74597168-2.20300293 2.12799072-3.86401367 4.14398193-4.98400879 2.01599121-1.1579895 4.59197998-1.73599243 7.72796631-1.73599243 7.80200195 0 11.70404053 3.63998413 11.70404053 10.91998291v17.75201416h-6.04803467v-3.86401367c-.9710083 1.45602417-2.22198486 2.57601929-3.75195313 3.36001587-1.53100586.78399658-3.24804688 1.17599487-5.15203857 1.17599487-2.79998779 0-5.07800293-.82199097-6.83197021-2.46398926-1.75500488-1.64300537-2.63201904-3.75201416-2.63201904-6.32800293 0-2.42700195.80200195-4.40600586 2.40802002-5.93600464 1.60498047-1.56799316 3.78900146-2.48300171 6.55200195-2.74398804l7.78399658-.7840271c.59698486-.03799438 1.00799561-.1499939 1.23199463-.33599854.26098633-.22399902.39196777-.54199219.39196777-.95199585v-.61599731c0-1.19500732-.48596191-2.10998535-1.45599365-2.74398804-.9710083-.67199707-2.33398438-1.00799561-4.0880127-1.00799561-1.94195557 0-3.5279541.39199829-4.75994873 1.17599487-1.23205566.7460022-2.01605225 1.80999756-2.35205078 3.19198608l-4.87194824-3.07998657zm9.46398926 10.02398682c-1.27001953.14901733-2.2590332.54101563-2.96801758 1.17599487-.71002197.63400269-1.06402588 1.45602417-1.06402588 2.46401978 0 1.11999512.41003418 2.01599121 1.23205566 2.68798828.82098389.63400269 1.940979.95199585 3.35998535.95199585 2.12799072 0 3.90100098-.63497925 5.32000732-1.9039917 1.45599365-1.30700684 2.18395996-2.89401245 2.18395996-4.76000977v-1.62399292l-8.06396484 1.00799561z"/><path d="m935.08300781 322.00001274h-6.04803467v-28h6.04803467zm-3.08001709-31.80801392c-1.23199463 0-2.25799561-.39199829-3.08001709-1.17599487-.78399658-.82199097-1.17596436-1.84799194-1.17596436-3.07998657s.39196777-2.23999023 1.17596436-3.02401733c.82202148-.82199097 1.84802246-1.23199463 3.08001709-1.23199463s2.23999023.41000366 3.02398682 1.23199463c.82202148.7840271 1.23199463 1.79202271 1.23199463 3.02401733s-.40997314 2.25799561-1.23199463 3.07998657c-.78399658.78399658-1.79199219 1.17599487-3.02398682 1.17599487z"/><path d="m943.14898682 294.00001274h5.88000488v4.25601196c1.04498291-1.64300537 2.35198975-2.875 3.91998291-3.6960144 1.6050415-.82199097 3.37805176-1.23199463 5.32000732-1.23199463 3.21002197 0 5.69299316 1.00799561 7.44799805 3.02398682 1.79199219 1.97799683 2.68804932 4.79699707 2.68804932 8.45602417v17.19198608h-6.16003418v-16.12799072c0-2.20300293-.52301025-3.88299561-1.56799316-5.04000854-1.04602051-1.19500732-2.5579834-1.79199219-4.53601074-1.79199219-2.27801514 0-4.01397705.83999634-5.20800781 2.51998901-1.15795898 1.64199829-1.73596191 4.04998779-1.73596191 7.22399902v13.21600342h-6.04803467v-28z"/><path d="m992.10198975 301.89600883c0-2.65100098.98901367-4.74200439 2.96801758-6.27200317 2.01599121-1.53100586 4.7409668-2.29598999 8.17999268-2.29598999 4.91998291 0 8.61999512 1.7170105 11.08001709 5.15200806l-4.08001709 3.86398315c-.75-1.11999512-1.7800293-1.97900391-3.08001709-2.57598877-1.30999756-.59799194-2.7699585-.89599609-4.36999512-.89599609-1.41998291 0-2.53997803.24200439-3.36199951.72799683-.78399658.48498535-1.17596436 1.17599487-1.17596436 2.07199097 0 .63400269.20495605 1.13800049.6159668 1.51199341.44799805.33599854 1.08300781.63400269 1.90203857.89599609.81994629.26101685 2.18994141.61602783 4.08996582 1.06402588 2.13000488.52197266 3.85998535 1.10098267 5.21002197 1.73599243 1.33996582.59698486 2.38995361 1.45599365 3.13000488 2.57598877.78997803 1.08200073 1.17999268 2.52001953 1.17999268 4.31201172 0 2.87399292-.98999023 5.07699585-2.97003174 6.60800171-1.97998047 1.52999878-4.77996826 2.29598999-8.39996338 2.29598999-2.84002686 0-5.3550415-.48599243-7.55804443-1.45599365-2.16497803-1.00799561-3.78900146-2.4079895-4.87194824-4.20001221l4.14398193-3.97598267c.85900879 1.30599976 2.01599121 2.33297729 3.47198486 3.07998657 1.45599365.70901489 3.21398926 1.06399536 5.26397705 1.06399536 1.5300293 0 2.71002197-.26199341 3.5300293-.78399658.82000732-.52297974 1.22998047-1.28799438 1.22998047-2.29598999 0-.67199707-.20996094-1.19500732-.61999512-1.56799316-.36999512-.41101074-.9699707-.74700928-1.78997803-1.00799561-.7800293-.26202393-2.04998779-.57901001-3.80999756-.95202637-3.05700684-.67199707-5.48400879-1.62399292-7.27600098-2.85598755-1.75500488-1.23199463-2.63201904-3.17401123-2.63201904-5.82400513z"/><path d="m1017.78997803 308.00001274c0-2.79998779.64001465-5.32000732 1.90002441-7.55999756 1.30999756-2.23999023 3.08001709-3.97601318 5.32000732-5.20800781 2.2800293-1.26998901 4.81994629-1.9039917 7.61999512-1.9039917s5.31994629.63400269 7.55993652 1.9039917c2.2800293 1.23199463 4.05004883 2.96801758 5.32006836 5.20800781 1.30993652 2.23999023 1.95996094 4.76000977 1.95996094 7.55999756s-.65002441 5.32000732-1.95996094 7.55999756c-1.27001953 2.23999023-3.04003906 3.99398804-5.32006836 5.26400757-2.23999023 1.23199463-4.7598877 1.84799194-7.55993652 1.84799194s-5.33996582-.61599731-7.61999512-1.84799194c-2.23999023-1.27001953-4.01000977-3.02401733-5.32000732-5.26400757-1.26000977-2.23999023-1.90002441-4.76000977-1.90002441-7.55999756zm23.46002197 0c0-2.61401367-.80004883-4.72299194-2.40002441-6.32800293-1.60998535-1.64300537-3.67993164-2.46398926-6.2199707-2.46398926s-4.60998535.82098389-6.2199707 2.46398926c-1.59997559 1.60501099-2.40002441 3.71398926-2.40002441 6.32800293 0 2.61300659.80004883 4.74099731 2.40002441 6.38400269 1.60998535 1.60501099 3.67993164 2.4079895 6.2199707 2.4079895s4.60998535-.80297852 6.2199707-2.4079895c1.59997559-1.64300537 2.40002441-3.77099609 2.40002441-6.38400269z"/><path d="m1059.39001465 322.00001274h-6.16003418v-39.20001221h6.16003418z"/><path d="m1092 322.00001274h-5.81994629v-4.14401245c-1.09008789 1.60501099-2.34008789 2.81802368-3.76000977 3.64001465-1.41003418.78399658-3.13000488 1.17599487-5.15002441 1.17599487-3.4699707 0-6.0300293-1.02700806-7.67004395-3.07998657-1.64001465-2.09100342-2.45996094-4.96600342-2.45996094-8.62402344v-16.96798706h6.20996094v16.12799072c0 2.24002075.41003418 3.9380188 1.22998047 5.0960083.85998535 1.11999512 2.30004883 1.67999268 4.32006836 1.67999268 2.5 0 4.28991699-.87799072 5.36999512-2.63198853 1.11999512-1.75500488 1.67993164-4.10699463 1.67993164-7.05599976v-13.21600342h6.05004883v28z"/><path d="m1115.76000977 321.49601493c-1.80004883.52200317-3.60998535.78399658-5.44006348.78399658-2.64990234 0-4.63989258-.6539917-5.98999023-1.95999146-1.29992676-1.34399414-1.95996094-3.51000977-1.95996094-6.4960022v-14.67199707h-5.31994629v-5.15200806h5.31994629v-7.5039978h6.05004883v7.5039978h7.39001465v5.15200806h-7.39001465v14.27999878c0 1.00799561.2199707 1.7539978.66992188 2.23999023.48999023.48501587 1.27001953.72799683 2.34997559.72799683.98010254 0 2.41003418-.1499939 4.32006836-.44799805v5.54400635z"/><path d="m1128.40002441 322.00001274h-6.05004883v-28h6.05004883zm-3.08007813-31.80801392c-1.22998047 0-2.2598877-.39199829-3.07995605-1.17599487-.7800293-.82199097-1.17993164-1.84799194-1.17993164-3.07998657s.39990234-2.23999023 1.17993164-3.02401733c.82006836-.82199097 1.84997559-1.23199463 3.07995605-1.23199463 1.23010254 0 2.2401123.41000366 3.02001953 1.23199463.82006836.7840271 1.23999023 1.79202271 1.23999023 3.02401733s-.41992188 2.25799561-1.23999023 3.07998657c-.77990723.78399658-1.78991699 1.17599487-3.02001953 1.17599487z"/><path d="m1133.90002441 308.00001274c0-2.79998779.64001465-5.32000732 1.91003418-7.55999756 1.29992676-2.23999023 3.07995605-3.97601318 5.31994629-5.20800781 2.27001953-1.26998901 4.80993652-1.9039917 7.60998535-1.9039917s5.32006836.63400269 7.56005859 1.9039917c2.27990723 1.23199463 4.04992676 2.96801758 5.31994629 5.20800781 1.31005859 2.23999023 1.95996094 4.76000977 1.95996094 7.55999756s-.64990234 5.32000732-1.95996094 7.55999756c-1.27001953 2.23999023-3.04003906 3.99398804-5.31994629 5.26400757-2.23999023 1.23199463-4.76000977 1.84799194-7.56005859 1.84799194s-5.33996582-.61599731-7.60998535-1.84799194c-2.23999023-1.27001953-4.02001953-3.02401733-5.31994629-5.26400757-1.27001953-2.23999023-1.91003418-4.76000977-1.91003418-7.55999756zm23.4699707 0c0-2.61401367-.80993652-4.72299194-2.41003418-6.32800293-1.60998535-1.64300537-3.67993164-2.46398926-6.2199707-2.46398926s-4.60998535.82098389-6.20996094 2.46398926c-1.60998535 1.60501099-2.41003418 3.71398926-2.41003418 6.32800293 0 2.61300659.80004883 4.74099731 2.41003418 6.38400269 1.59997559 1.60501099 3.66992188 2.4079895 6.20996094 2.4079895s4.60998535-.80297852 6.2199707-2.4079895c1.60009766-1.64300537 2.41003418-3.77099609 2.41003418-6.38400269z"/><path d="m1169.33996582 294.00001274h5.88000488v4.25601196c1.05004883-1.64300537 2.35998535-2.875 3.92004395-3.6960144 1.60998535-.82199097 3.38000488-1.23199463 5.31994629-1.23199463 3.22009277 0 5.70007324 1.00799561 7.45007324 3.02398682 1.78991699 1.97799683 2.68994141 4.79699707 2.68994141 8.45602417v17.19198608h-6.16003418v-16.12799072c0-2.20300293-.51989746-3.88299561-1.56994629-5.04000854-1.04003906-1.19500732-2.55004883-1.79199219-4.5300293-1.79199219-2.27990723 0-4.02001953.83999634-5.20996094 2.51998901-1.16003418 1.64199829-1.73999023 4.04998779-1.73999023 7.22399902v13.21600342h-6.05004883z"/><path d="m1201.66003418 301.89600883c0-2.65100098.98999023-4.74200439 2.9699707-6.27200317 2.01000977-1.53100586 4.73999023-2.29598999 8.17004395-2.29598999 4.92993164 0 8.63000488 1.7170105 11.08996582 5.15200806l-4.08996582 3.86398315c-.73999023-1.11999512-1.77001953-1.97900391-3.08007813-2.57598877-1.29992676-.59799194-2.76000977-.89599609-4.35998535-.89599609-1.42004395 0-2.54003906.24200439-3.35998535.72799683-.79003906.48498535-1.18005371 1.17599487-1.18005371 2.07199097 0 .63400269.21008301 1.13800049.61999512 1.51199341.44006348.33599854 1.08007813.63400269 1.90002441.89599609.82006836.26101685 2.18005371.61602783 4.09008789 1.06402588 2.13000488.52197266 3.85998535 1.10098267 5.20996094 1.73599243 1.33996582.59698486 2.39001465 1.45599365 3.13000488 2.57598877.79003906 1.08200073 1.17993164 2.52001953 1.17993164 4.31201172 0 2.87399292-.98999023 5.07699585-2.9699707 6.60800171-1.97998047 1.52999878-4.7800293 2.29598999-8.40002441 2.29598999-2.83996582 0-5.35998535-.48599243-7.55993652-1.45599365-2.17004395-1.00799561-3.79003906-2.4079895-4.86999512-4.20001221l4.14001465-3.97598267c.85998535 1.30599976 2.02001953 2.33297729 3.4699707 3.07998657 1.45996094.70901489 3.20996094 1.06399536 5.27001953 1.06399536 1.5300293 0 2.69995117-.26199341 3.5300293-.78399658.81994629-.52297974 1.22998047-1.28799438 1.22998047-2.29598999 0-.67199707-.21008301-1.19500732-.61999512-1.56799316-.36999512-.41101074-.97009277-.74700928-1.79003906-1.00799561-.7800293-.26202393-2.05004883-.57901001-3.81005859-.95202637-3.05993652-.67199707-5.48999023-1.62399292-7.27990723-2.85598755-1.75-1.23199463-2.63000488-3.17401123-2.63000488-5.82400513z"/><g opacity=".3"><path d="m908.41400146 377.60001884h-1.67999268v4.51199341c0 .34799194-.05999756.64801025-.16802979.92401123-.10797119.27600098-.26397705.5039978-.46795654.69598389-.20404053.1920166-.43200684.33599854-.69604492.43200684-.27600098.10800171-.56396484.15600586-.88800049.15600586-.32397461 0-.61199951-.04800415-.88800049-.15600586-.27600098-.0960083-.50396729-.23999023-.70794678-.43200684-.20404053-.19198608-.36004639-.41998291-.46801758-.69598389-.10803223-.27600098-.16802979-.57601929-.16802979-.92401123v-4.51199341h-1.67999268v4.51199341c0 .57598877.0960083 1.10400391.29998779 1.57199097.20404053.48001099.4800415.88800049.82800293 1.23602295.34802246.34799194.75604248.61199951 1.23602295.79199219.46801758.19198608.98400879.28799438 1.54797363.28799438.56402588 0 1.08001709-.0960083 1.55999756-.28799438.46801758-.17999268.88800049-.44400024 1.23602295-.79199219.34802246-.34802246.61199951-.75601196.815979-1.23602295.1920166-.46798706.2880249-.9960022.2880249-1.57199097v-4.51199341z"/><path d="m913.67297363 377.60001884h-1.67999268v8.3999939h1.67999268z"/><path d="m925.70397949 380.51600395-.23999023-.26397705c-.10797119-.10800171-.1920166-.22802734-.25201416-.34802246s-.09594727-.25198364-.09594727-.38400269c0-.17999268.05999756-.33599854.17999268-.45599365.11999512-.10800171.27600098-.16799927.45599365-.16799927s.32397461.05999756.44396973.16799927.17999268.27600098.17999268.49200439c0 .20401001-.05999756.38400269-.17999268.52801514-.13195801.15597534-.28796387.29998779-.49200439.43197632zm-.04797363 4.05599976c-.39599609 0-.684021-.09597778-.87597656-.28799438-.20404053-.19198608-.30004883-.44400024-.30004883-.74398804 0-.26400757.08404541-.48001099.23999023-.64801025.15600586-.16799927.36004639-.32400513.61199951-.48001099l1.5960083 1.71600342c-.19195557.13201904-.39599609.24002075-.59997559.32400513-.21600342.08401489-.44403076.11999512-.67199707.11999512zm2.33996582.70800781.72003174.77999878 1.16400146-1.11599731-.815979-.87600708c.15594482-.22799683.31195068-.47998047.44396973-.73199463.13201904-.25198364.26397705-.52798462.39599609-.8039856l-1.33197021-.77999878c-.0960083.20397949-.1920166.4079895-.2880249.59997559-.10797119.1920166-.21600342.37200928-.32397461.55200195l-1.22399902-1.29598999c.34796143-.22799683.64794922-.51599121.87597656-.85198975.22802734-.32400513.34802246-.73202515.34802246-1.22399902 0-.31201172-.04803467-.6000061-.15600586-.86401367-.10803223-.25201416-.25201416-.48001099-.44403076-.66000366-.19195557-.17999268-.41998291-.3119812-.69598389-.41998291-.27600098-.0960083-.57598877-.14401245-.9119873-.14401245-.35998535 0-.684021.04800415-.96002197.15600586-.28796387.10800171-.52801514.26400757-.7199707.44400024-.1920166.19198608-.33599854.4079895-.44403076.66000366-.10797119.25198364-.15600586.52798462-.15600586.8039856 0 .39599609.08404541.73199463.25201416 1.00799561.15600586.27600098.35998535.54000854.5880127.79202271-.20404053.13198853-.3840332.26397705-.56402588.4079895-.17999268.15600586-.32397461.32400513-.45599365.5039978s-.22796631.39599609-.29998779.62399292c-.08398438.22799683-.11999512.49200439-.11999512.77999878 0 .37200928.05999756.72000122.1920166 1.03201294.13195801.3119812.31195068.57598877.55200195.79199219.22796631.22799683.51599121.39599609.86395264.51599121.33599854.12002563.72003174.18002319 1.14001465.18002319.46801758 0 .90002441-.07202148 1.29602051-.22802734.38397217-.15597534.74395752-.35998535 1.07995605-.63598633z"/><path d="m946.92498779 377.60001884h-1.67999268v4.51199341c0 .34799194-.05999756.64801025-.16796875.92401123-.10803223.27600098-.26403809.5039978-.46801758.69598389-.20397949.1920166-.43200684.33599854-.69598389.43200684-.27600098.10800171-.56402588.15600586-.88800049.15600586-.32403564 0-.61199951-.04800415-.88800049-.15600586-.27600098-.0960083-.50402832-.23999023-.70800781-.43200684-.20404053-.19198608-.36004639-.41998291-.46801758-.69598389s-.16796875-.57601929-.16796875-.92401123v-4.51199341h-1.68005371v4.51199341c0 .57598877.0960083 1.10400391.30004883 1.57199097.20397949.48001099.47998047.88800049.82800293 1.23602295.34796143.34799194.75598145.61199951 1.23596191.79199219.46801758.19198608.98400879.28799438 1.54803467.28799438.56396484 0 1.07995605-.0960083 1.55999756-.28799438.46795654-.17999268.88800049-.44400024 1.23596191-.79199219.34802246-.34802246.61199951-.75601196.81604004-1.23602295.19195557-.46798706.28796387-.9960022.28796387-1.57199097v-4.51199341z"/><path d="m949.72399902 386.00001274h2.17199707l2.3170166-2.85598755 2.30401611 2.85598755h2.17095947l-3.39599609-4.20001221 3.39599609-4.19998169h-2.17095947l-2.31604004 2.85598755-2.3170166-2.85598755h-2.15997314l3.39599609 4.19998169z"/><path d="m970.13800049 377.60001884h-3.04797363v8.3999939h3.04797363c.5880127 0 1.14001465-.10800171 1.64398193-.32400513.50402832-.20401001.93603516-.5039978 1.30804443-.87600708.35998535-.37197876.64794922-.8039856.85198975-1.31997681.20397949-.51602173.31201172-1.06802368.31201172-1.68002319s-.10803223-1.16400146-.31201172-1.67999268c-.20404053-.51599121-.49200439-.95999146-.85198975-1.33200073-.37200928-.37200928-.80401611-.66000366-1.30804443-.87600708-.50396729-.20397949-1.05596924-.3119812-1.64398193-.3119812zm2.43597412 4.19998169c0 .36001587-.05999756.6960144-.17999268.9960022-.11999512.31201172-.28796387.57601929-.49200439.80401611-.21600342.22799683-.46795654.39599609-.76800537.52798462-.29998779.13201904-.63598633.1920166-.99597168.1920166h-1.36798096v-5.04000854h1.36798096c.35998535 0 .69598389.05999756.99597168.19198608.30004883.13201904.55200195.30001831.76800537.52801514.20404053.22799683.37200928.49200439.49200439.79199219.11999512.31201172.17999268.64801025.17999268 1.00799561z"/><path d="m983.01098633 377.60001884h-5.42401123v8.3999939h5.42401123v-1.67999268h-3.74395752v-1.67999268h3.74395752v-1.68002319h-3.74395752v-1.67999268h3.74395752v-1.67999268z"/><path d="m986.28302002 380.01200614c0 .39599609.07196045.74401855.20397949 1.02001953s.31201172.51599121.52801514.70797729c.21600342.1920166.45599365.34802246.73199463.46801758.26397705.13198853.52801514.22799683.79199219.3119812.20397949.05999756.40802002.12002563.5880127.18002319s.33599854.11999512.46795654.19198608c.13201904.08401489.24005127.16799927.32403564.27600098.07202148.10800171.10797119.23999023.10797119.39599609 0 .22799683-.08398438.42001343-.26397705.55200195s-.43200684.20401001-.75598145.20401001c-.70800781 0-1.15203857-.36001587-1.32000732-1.0920105l-1.5.64801025c.08398438.37197876.21600342.69598389.39599609.95999146.17999268.27600098.39599609.49200439.64801025.66000366.25195313.17999268.5279541.29998779.82800293.38400269.29998779.08398438.61199951.11999512.93597412.11999512.3840332 0 .74401855-.05999756 1.08001709-.16799927.32397461-.10800171.61199951-.26400757.85198975-.46798706.23999023-.20401001.43200684-.45602417.57598877-.75601196.13201904-.29998779.20397949-.64801025.20397949-1.04400635s-.05999756-.72000122-.17999268-.9960022c-.13195801-.27600098-.28796387-.5039978-.49200439-.69598389-.20397949-.18002319-.44396973-.33599854-.70794678-.46801758-.26403809-.11999512-.54003906-.22799683-.82800293-.32400513-.22802734-.07199097-.43200684-.14398193-.61199951-.20397949-.1920166-.05999756-.36004639-.13201904-.49200439-.21600342-.13201904-.07199097-.23999023-.15600586-.31201172-.26400757-.08398438-.0960083-.11999512-.21600342-.11999512-.37200928 0-.20397949.08398438-.38397217.25201416-.52798462.16796875-.14401245.41998291-.21600342.76794434-.21600342.33599854 0 .61199951.08401489.82800293.23999023.21600342.15600586.37200928.43200684.45605469.81600952l1.52398682-.61199951c-.15600586-.69598389-.4800415-1.22399902-.9720459-1.58398438-.50396729-.36001587-1.1159668-.54000854-1.82397461-.54000854-.38397217 0-.74401855.04800415-1.06799316.15600586-.33599854.10800171-.62402344.27600098-.86401367.47998047-.25201416.20401001-.44396973.45599365-.57598877.75601196-.13201904.29998779-.20397949.63598633-.20397949 1.01998901z"/><path d="m996.87200928 377.60001884h-1.67999268v8.3999939h1.67999268z"/><path d="m1000.5300293 383.44401298c.2199707.51599121.5.94799805.87994385 1.32000732.38000488.37197876.82000732.67199707 1.35003662.87600708.52996826.20397949 1.10998535.3119812 1.72998047.3119812.54998779 0 1.07000732-.0960083 1.54998779-.27600098.4800415-.17999268.91003418-.45599365 1.27001953-.81600952.35998535-.35998535.64001465-.8039856.84997559-1.33197021.21002197-.52801514.30999756-1.14001465.30999756-1.82400513v-.55200195h-4.28997803v1.67999268h2.35998535c-.04998779.23999023-.13995361.44400024-.28997803.63598633-.14001465.18002319-.29998779.33599854-.48999023.45602417-.19000244.11999512-.39001465.20397949-.61999512.26397705-.2300415.05999756-.46002197.0960083-.69000244.0960083-.38000488 0-.7300415-.05999756-1.04003906-.19198608-.30999756-.12002563-.57995605-.2880249-.79998779-.51602173-.2199707-.21600342-.39996338-.47998047-.5199585-.79199219-.12005615-.31201172-.19000244-.66000366-.19000244-1.03198242 0-.37200928.06994629-.70800781.19000244-1.02001953.11999512-.3119812.29998779-.57598877.5199585-.8039856.21002197-.21600342.4800415-.38400269.79003906-.51602173.30999756-.11999512.64996338-.17999268 1.00994873-.17999268.45001221 0 .88000488.08401489 1.2800293.25201416.40002441.17999268.76000977.44400024 1.08001709.815979l.82000732-1.55999756c-.42004395-.4079895-.90002441-.70797729-1.43005371-.8999939-.52996826-.19198608-1.08996582-.28799438-1.66998291-.28799438-.64001465 0-1.20996094.0960083-1.73999023.31201172-.5300293.2159729-.9699707.5039978-1.35998535.88800049-.36999512.37197876-.66003418.815979-.85998535 1.33200073-.20001221.5039978-.31005859 1.06799316-.31005859 1.67999268 0 .6000061.11004639 1.16400146.31005859 1.67999268z"/><path d="m1019.25 377.60001884h-1.67999268v5.51998901l-4.53997803-5.51998901h-1.46002197v8.3999939h1.67999268v-5.51998901l4.5300293 5.51998901h1.4699707z"/></g></g></svg>