<svg width="143" height="76" viewBox="0 0 143 76" fill="none" xmlns="http://www.w3.org/2000/svg">
<path fill-rule="evenodd" clip-rule="evenodd" d="M31.3022 44.4971L31.1031 43.7073L25.4762 22.0439C25.3233 21.458 24.9877 20.9404 24.5214 20.571C24.0551 20.2016 23.484 20.001 22.8963 20H8.46327C7.87555 20.0011 7.30454 20.2019 6.83831 20.5712C6.37208 20.9406 6.03646 21.458 5.88329 22.0439L0.0559177 44.4982C-0.0372789 44.8572 -0.0134852 45.2379 0.123598 45.5815C0.26068 45.9252 0.50341 46.2128 0.814435 46.3999L14.3437 54.4601C14.7498 54.7014 15.2102 54.8284 15.6787 54.8284C16.1472 54.8284 16.6076 54.7014 17.0136 54.4601L29.8519 46.8071L30.5385 46.3988C30.8504 46.2125 31.0945 45.9253 31.2326 45.5815C31.3706 45.2378 31.3953 44.8567 31.3022 44.4971ZM2.10821 45.7276C1.829 45.5608 1.61086 45.3035 1.48758 44.9957C1.36437 44.6879 1.34298 44.3466 1.42662 44.025L6.46084 24.6258C6.48278 24.5297 6.53616 24.4444 6.61197 24.3843C6.68779 24.3242 6.78135 24.2928 6.87695 24.2958C6.97256 24.2927 7.06624 24.3238 7.14212 24.384C7.21794 24.4442 7.27132 24.5296 7.29301 24.6258L14.4012 52.0158C14.4269 52.1164 14.4232 52.2227 14.3906 52.3212C14.358 52.4197 14.2979 52.5061 14.2179 52.5695C14.1379 52.6329 14.0415 52.6703 13.9409 52.6773C13.8403 52.6843 13.7399 52.6604 13.6524 52.6087L4.08464 46.9034L2.10821 45.7276ZM6.87585 23.0238L6.88343 23.0529H6.86826L6.87585 23.0238ZM17.705 52.6087C17.6175 52.6612 17.517 52.6857 17.4161 52.6791C17.3152 52.6724 17.2185 52.635 17.1383 52.5714C17.0581 52.5077 16.9981 52.4209 16.9659 52.322C16.9336 52.2231 16.9306 52.1164 16.9573 52.0158L17.2607 50.8568L24.0654 24.6358C24.0914 24.5424 24.1461 24.4603 24.2212 24.4019C24.2964 24.3434 24.3879 24.3117 24.482 24.3117C24.5762 24.3117 24.6677 24.3434 24.7429 24.4019C24.818 24.4603 24.8727 24.5424 24.8987 24.6358L29.9326 44.0306C30.0158 44.352 29.9936 44.6927 29.8704 45C29.7471 45.3073 29.5289 45.5641 29.2503 45.731L21.4042 50.4093L17.705 52.6087ZM24.4826 23.025L24.4902 23.054H24.475L24.4826 23.025ZM22.6871 21.2429C22.789 21.2429 22.89 21.2636 22.9841 21.304C23.0782 21.3443 23.1637 21.4034 23.2357 21.478C23.3077 21.5524 23.3647 21.6409 23.4035 21.7382C23.4423 21.8355 23.4622 21.9398 23.4619 22.045C23.4619 22.1141 23.4532 22.1829 23.4359 22.2497L16.1013 50.5212C16.0747 50.6137 16.0199 50.6949 15.945 50.7526C15.8701 50.8103 15.7792 50.8415 15.6857 50.8415C15.5922 50.8415 15.5013 50.8103 15.4264 50.7526C15.3516 50.6949 15.2968 50.6137 15.2702 50.5212L8.76665 25.4625L7.93121 22.2508C7.9007 22.1322 7.89694 22.0079 7.9203 21.8876C7.94366 21.7672 7.99353 21.654 8.06595 21.5567C8.13844 21.4594 8.23157 21.3807 8.33821 21.3264C8.4449 21.2722 8.5622 21.244 8.68104 21.244L22.6871 21.2429Z" fill="black"/>
<path d="M46.835 21.2473H54.7332V22.3302H47.9728V26.8195H54.3258V27.9247H47.9728V32.8705H54.7332V33.9645H46.835V21.2473Z" fill="black"/>
<path fill-rule="evenodd" clip-rule="evenodd" d="M55.6633 27.5938C55.6633 31.47 57.8151 34.1884 61.2976 34.1884C64.7802 34.1884 66.9375 31.4689 66.9375 27.5938C66.9375 23.7187 64.7759 21.017 61.2976 21.017C57.8194 21.017 55.6633 23.7175 55.6633 27.5938ZM65.7313 27.5982C65.7313 31.0886 63.8112 33.0698 61.2976 33.0698C58.7841 33.0698 56.8646 31.0886 56.8646 27.5982C56.8646 24.1079 58.7841 22.1446 61.2976 22.1446C63.8112 22.1446 65.7313 24.1079 65.7313 27.5982Z" fill="black"/>
<path d="M72.5448 21.0192C74.9739 21.0192 76.6733 22.2497 77.1313 24.4222H75.9398C75.5157 22.9489 74.3144 22.1423 72.4234 22.1423C71.1838 22.1423 69.4339 22.6502 69.4339 24.3171C69.4339 25.5968 70.4362 26.2277 71.8181 26.5611L73.2783 26.8967C75.0454 27.3174 77.4228 28.0367 77.4228 30.4765C77.4228 32.9164 75.2655 34.1951 72.8721 34.1951C69.797 34.1951 68.0988 32.4231 67.827 30.1432H69.0191C69.4364 32.1747 70.7949 33.0697 72.8203 33.0697C74.1616 33.0697 76.2344 32.5618 76.2344 30.6678C76.2344 29.124 74.7736 28.3879 73.041 28.002L71.4951 27.6507C69.8783 27.2805 68.269 26.456 68.269 24.3696C68.269 22.0372 70.5576 21.0192 72.5448 21.0192Z" fill="black"/>
<path d="M84.7134 22.5125L91.4572 33.9645H93.1042V21.2473H91.9669V32.7172L85.2225 21.2473H83.5756V33.9645H84.7134V22.5125Z" fill="black"/>
<path fill-rule="evenodd" clip-rule="evenodd" d="M94.8435 29.2793C94.8435 26.2454 96.6779 24.3694 99.1243 24.3694C101.689 24.3694 103.337 26.6135 103.201 29.5601H95.9314C95.982 31.8579 97.3583 33.1903 99.2266 33.1903C100.654 33.1903 101.656 32.4541 102.012 31.1386H103.117C102.658 33.103 101.18 34.1904 99.1582 34.1904C96.4917 34.1881 94.8435 32.2081 94.8435 29.2793ZM95.9647 28.56H102.046C102.046 26.9647 100.942 25.3505 99.107 25.3505C97.4095 25.3505 96.186 26.4558 95.9647 28.56Z" fill="black"/>
<path d="M105.994 22.4053H104.924L104.921 24.5274H103.404V25.4738H104.921V31.7195C104.921 33.5966 105.301 33.9647 106.926 33.9647H107.793V32.9769H107.251C106.028 32.9769 105.994 32.714 105.994 31.5036V25.4772H107.795V24.5308H105.994V22.4053Z" fill="black"/>
<path d="M113.985 24.5272H115.037L117.383 32.2607L119.333 24.5272H120.504L117.858 33.9644H116.872L114.478 26.0374L112.153 33.9644H111.178L108.528 24.5295H109.7L111.721 32.2484L113.985 24.5272Z" fill="black"/>
<path fill-rule="evenodd" clip-rule="evenodd" d="M129.056 29.2793C129.056 25.8416 127.102 24.3694 124.911 24.3694C122.737 24.3694 120.783 25.8416 120.783 29.2793C120.783 32.7171 122.737 34.1904 124.911 34.1904C127.105 34.1904 129.056 32.7171 129.056 29.2793ZM127.934 29.2749C127.934 31.9977 126.661 33.1903 124.911 33.1903C123.144 33.1903 121.904 31.9977 121.904 29.2749C121.904 26.5519 123.144 25.3594 124.911 25.3594C126.661 25.3594 127.934 26.5519 127.934 29.2749Z" fill="black"/>
<path d="M134.604 25.6317C134.519 25.6177 134.434 25.6121 134.349 25.6149H134.132C132.247 25.6149 131.64 27.0177 131.64 29.0169V33.9648H130.604V24.5276H131.605V26.2458C132.014 25.1406 133.22 24.4559 134.307 24.4559H134.442C134.5 24.453 134.557 24.459 134.612 24.4739L134.604 25.6317Z" fill="black"/>
<path d="M136.701 29.2448V21.2473H135.645V33.9645H136.698V30.6656L138.107 29.0871L141.249 33.9623H142.472L138.788 28.3152L142.168 24.5273H140.88L136.701 29.2448Z" fill="black"/>
<path d="M46.835 40.4889H54.3603V41.5718H47.9728V46.0611H53.9659V47.1663H47.9728V53.2061H46.835V40.4889Z" fill="black"/>
<path fill-rule="evenodd" clip-rule="evenodd" d="M63.1579 48.5209C63.1579 45.0832 61.2046 43.611 59.0134 43.611C56.8388 43.611 54.8849 45.0832 54.8849 48.5209C54.8849 51.9587 56.8191 53.432 59.0134 53.432C61.2077 53.432 63.1579 51.9587 63.1579 48.5209ZM62.0367 48.5164C62.0367 51.2393 60.7621 52.4319 59.0134 52.4319C57.2462 52.4319 56.0067 51.2393 56.0067 48.5164C56.0067 45.7936 57.2462 44.601 59.0134 44.601C60.7621 44.601 62.0367 45.7936 62.0367 48.5164Z" fill="black"/>
<path d="M70.4268 51.678C69.9682 52.573 69.0677 53.4322 67.4879 53.4322C65.399 53.4322 64.5145 52.0987 64.5145 49.7841V43.7689H65.5679V49.4854C65.5679 51.2574 65.9766 52.4499 67.7598 52.4499C69.2033 52.4499 70.4268 51.0818 70.4268 49.0827V43.7689H71.4796V53.2062H70.4268V51.678Z" fill="black"/>
<path d="M77.644 43.611C75.9287 43.611 75.062 44.469 74.6034 45.364V43.7687H73.5507V53.206H74.6034V47.9593C74.6034 45.9602 75.7924 44.592 77.3722 44.592C79.2078 44.592 79.6658 45.7857 79.6658 47.5566V53.206H80.7191V47.2579C80.7191 44.9433 79.8014 43.611 77.644 43.611Z" fill="black"/>
<path fill-rule="evenodd" clip-rule="evenodd" d="M85.922 43.6109C87.2811 43.6109 88.3518 44.2598 89.0138 45.4008V40.4897H90.0672V53.2059H89.0138V51.6621C88.3518 52.7808 87.2799 53.4341 85.922 53.4341C83.8158 53.4341 82.1005 51.6621 82.1005 48.5231C82.1005 45.384 83.8158 43.6109 85.922 43.6109ZM86.139 44.592C84.4402 44.592 83.234 46.0127 83.234 48.5208C83.234 51.0289 84.4402 52.4497 86.139 52.4497C87.5141 52.4497 89.0779 51.331 89.0779 48.5208C89.0779 45.7107 87.5184 44.592 86.1476 44.592H86.139Z" fill="black"/>
<path fill-rule="evenodd" clip-rule="evenodd" d="M94.6006 53.4321C96.2987 53.4321 97.4372 52.7653 98.0326 51.7652L98.0887 53.2105H99.1594L99.1526 53.0857C99.099 52.0987 99.0509 51.2175 99.0509 50.1901C99.0509 49.8664 99.054 49.5262 99.0577 49.1387C99.0626 48.6261 99.0681 48.0307 99.0681 47.2815C99.0681 44.4758 97.6585 43.5641 95.5344 43.5641C93.48 43.5641 92.0531 44.7734 91.7973 46.6506H92.9019C92.9876 45.4021 93.9041 44.5251 95.4673 44.5251C96.7752 44.5251 98.0148 44.9804 98.0148 47.1383V47.4739C93.6156 47.9505 91.5773 48.7022 91.5773 50.859C91.5773 52.4141 92.9025 53.4321 94.6006 53.4321ZM98.0659 48.8868C98.0659 51.5549 96.5373 52.4666 94.8392 52.4666C93.6156 52.4666 92.749 51.8357 92.749 50.8333C92.749 49.3779 94.3633 48.8521 98.0659 48.4315V48.8868Z" fill="black"/>
<path d="M101.297 41.6466H102.368V43.7721H104.167V44.7185H102.368V50.7449C102.368 51.9553 102.401 52.2182 103.624 52.2182H104.166V53.206H103.3C101.674 53.206 101.295 52.838 101.295 50.9608V44.7152H99.7776V43.7688H101.295L101.297 41.6466Z" fill="black"/>
<path d="M106.492 42.2251V40.4889H105.435V42.2251H106.492Z" fill="black"/>
<path d="M106.492 53.2061V43.7689H105.435V53.2061H106.492Z" fill="black"/>
<path fill-rule="evenodd" clip-rule="evenodd" d="M112.153 43.611C114.344 43.611 116.298 45.0832 116.298 48.5209C116.298 51.9587 114.348 53.432 112.153 53.432C109.979 53.432 108.025 51.9587 108.025 48.5209C108.025 45.0832 109.974 43.611 112.153 43.611ZM112.153 52.4319C113.902 52.4319 115.176 51.2393 115.176 48.5164C115.176 45.7936 113.902 44.601 112.153 44.601C110.386 44.601 109.147 45.7936 109.147 48.5164C109.147 51.2393 110.382 52.4319 112.153 52.4319Z" fill="black"/>
<path d="M121.926 43.611C120.211 43.611 119.344 44.469 118.885 45.364V43.7687H117.832V53.206H118.885V47.9593C118.885 45.9602 120.074 44.592 121.654 44.592C123.489 44.592 123.948 45.7857 123.948 47.5566V53.206H125.001V47.2579C125.001 44.9433 124.083 43.611 121.926 43.611Z" fill="black"/>
</svg>
