<svg width="145" height="76" viewBox="0 0 145 76" fill="none" xmlns="http://www.w3.org/2000/svg">
<g clip-path="url(#clip0_2207_4800)">
<path fill-rule="evenodd" clip-rule="evenodd" d="M63.3039 32.812H64.6845L64.6851 32.8061H64.8951L64.8478 33.0038C64.3717 34.9385 62.4769 36.3317 60.3547 36.3317C57.5019 36.3317 55.4306 34.1737 55.4427 31.2093C55.4444 28.2529 57.5019 26.1007 60.3547 26.1007C62.4948 26.1007 64.3838 27.5671 64.8617 29.5907L64.9107 29.8002H63.3195C63.14 29.1475 62.7522 28.5727 62.2166 28.1644C61.681 27.7561 61.0265 27.5372 60.3547 27.5414C58.4109 27.5414 57.0102 29.0532 57.0102 31.2133C57.0102 33.3733 58.4248 34.8989 60.3547 34.8989C60.9994 34.8991 61.6285 34.6988 62.156 34.3253C62.6841 33.9519 63.0846 33.4235 63.3039 32.812ZM72.6542 31.2113C72.6542 28.2331 74.7845 26.1007 77.7723 26.1007C80.7608 26.1007 82.8904 28.2331 82.8904 31.2113C82.9078 31.8917 82.7889 32.5687 82.5418 33.2021C82.2948 33.8356 81.9243 34.4125 81.4522 34.899C80.5409 35.81 79.2596 36.3337 77.7723 36.3337C76.285 36.3337 75.0038 35.81 74.0925 34.899C73.6204 34.4125 73.2499 33.8356 73.0028 33.2021C72.7558 32.5687 72.6375 31.8917 72.6542 31.2113ZM74.2218 31.2113C74.2218 33.3615 75.7015 34.897 77.7723 34.897C79.8414 34.897 81.3091 33.3615 81.3091 31.2113C81.3091 29.0612 79.8437 27.5395 77.7723 27.5395C75.7015 27.5395 74.2218 29.0612 74.2218 31.2113ZM67.9378 26.6238V34.5703H72.3293H72.525V34.768V35.8114V36.009H72.3293H66.5665H66.3703V35.8114V26.6238V26.4262H66.5665H67.7422H67.9378V26.6238ZM97.169 26.4262C98.7815 26.4262 100.142 26.8887 101.102 27.7266C101.592 28.1596 101.981 28.6963 102.242 29.2986C102.503 29.9008 102.629 30.5538 102.61 31.2107C102.628 31.8683 102.502 32.5217 102.242 33.1248C101.982 33.7278 101.593 34.2659 101.104 34.7008C100.142 35.5407 98.7815 36.009 97.169 36.009H94.0535V26.4262H97.169ZM97.169 34.5703C98.3567 34.5703 99.3286 34.2423 99.9987 33.6652C100.346 33.3618 100.62 32.9838 100.804 32.559C100.987 32.1343 101.073 31.6736 101.057 31.2107C101.072 30.7494 100.984 30.2904 100.801 29.8676C100.617 29.4449 100.342 29.0691 99.9946 28.7681C99.3246 28.193 98.3446 27.863 97.169 27.863H95.6211V34.5703H97.169ZM90.799 26.4262H90.6028V32.2799C90.6028 33.8292 89.6234 34.8964 88.2515 34.8964C86.8802 34.8964 85.8904 33.8272 85.8904 32.2799V26.4262H84.3114V32.2799C84.3114 34.6257 85.9707 36.3331 88.2538 36.3331C90.5364 36.3331 92.1726 34.6237 92.1726 32.2799V26.4262H90.8008H90.799ZM91.0201 39.8655H90.8244V40.0631V41.1046V41.3022H91.0201H93.836V49.2507V49.4483H94.0322H95.2078H95.4035V49.2507V41.3022H98.2309H98.4271V41.1046V40.0631V39.8655H98.2309H91.0201ZM143.324 44.5609C143.69 44.7591 143.998 45.0499 144.219 45.4047C144.461 45.8206 144.58 46.2967 144.564 46.7782C144.578 47.1986 144.494 47.6164 144.319 47.9982C144.144 48.3801 143.883 48.7155 143.557 48.9778C142.906 49.4916 141.974 49.7682 140.828 49.7682C139.599 49.7682 138.584 49.4441 137.873 48.8335C137.511 48.5153 137.223 48.1195 137.032 47.675C136.841 47.2305 136.751 46.7486 136.768 46.2643V46.0667H138.322V46.2643C138.31 46.5501 138.363 46.8347 138.475 47.0971C138.588 47.3595 138.758 47.593 138.972 47.7801C139.389 48.1379 140.017 48.3355 140.84 48.3355C141.556 48.3355 142.1 48.1774 142.458 47.9185C142.628 47.7997 142.767 47.6399 142.861 47.4536C142.954 47.2672 143 47.0602 142.995 46.8513C143.003 46.6197 142.939 46.3914 142.811 46.1992C142.678 46.0215 142.503 45.8813 142.301 45.792C141.844 45.5687 141.218 45.466 140.524 45.3533C139.705 45.2288 138.808 45.047 138.116 44.636C137.761 44.4351 137.462 44.1476 137.246 43.8C137.013 43.3984 136.896 42.939 136.909 42.4739C136.897 42.0645 136.98 41.6579 137.149 41.286C137.319 40.914 137.572 40.5867 137.889 40.3297C138.521 39.8158 139.409 39.5392 140.559 39.5392C141.709 39.5392 142.663 39.8593 143.332 40.4364C144 41.0135 144.368 41.8494 144.368 42.8692V43.0668H142.838V42.8692C142.852 42.6086 142.806 42.3483 142.704 42.1085C142.602 41.8686 142.446 41.6556 142.25 41.4858C141.876 41.1696 141.308 40.9858 140.555 40.9858C139.85 40.9858 139.329 41.1321 138.988 41.3811C138.827 41.4972 138.696 41.6518 138.608 41.8312C138.52 42.0104 138.477 42.2088 138.484 42.4087C138.476 42.6301 138.537 42.8485 138.659 43.0332C138.786 43.2052 138.955 43.3413 139.15 43.4285C139.589 43.6458 140.197 43.7486 140.877 43.8553C141.698 43.9917 142.615 44.1537 143.324 44.5609ZM113.117 48.0096V45.2112H117.469H117.665V45.0136V43.9721V43.7745H117.469H113.117V41.3022H117.986H118.182V41.1046V40.0631V39.8655H117.986H111.734H111.537V40.0631V49.2507V49.4483H111.734H118.116H118.311V49.2507V48.2072V48.0096H118.116H113.117ZM90.2075 42.8516C90.2075 44.4603 89.0139 45.5848 87.3719 45.7626L90.4014 49.1163L90.7009 49.4483H88.6827L88.6238 49.3811L85.5297 45.8515H84.1348V49.4562H82.5672V39.8734H86.7192C87.7419 39.8734 88.6105 40.156 89.2275 40.6777C89.5414 40.9433 89.7925 41.2764 89.9616 41.6526C90.1313 42.0288 90.215 42.4385 90.2075 42.8516ZM86.7215 41.3023H84.1348V44.4128H86.7215C87.2294 44.4422 87.7315 44.2904 88.1401 43.984C88.2954 43.8409 88.4189 43.6667 88.5037 43.4726C88.5886 43.2785 88.6324 43.0687 88.6324 42.8566C88.6324 42.6444 88.5886 42.4347 88.5037 42.2405C88.4189 42.0464 88.2954 41.8723 88.1401 41.7291C87.7298 41.426 87.2288 41.2752 86.7215 41.3023ZM61.0918 39.994L61.0427 39.8655H59.1693L59.1226 39.994L55.6857 49.1795L55.5858 49.4483H57.1337L57.1805 49.3199L57.9077 47.3891H62.2772L63.0038 49.3199L63.0512 49.4483H64.5794L64.4813 49.1815L61.0918 39.994ZM61.7872 46.0156H58.4011L60.0979 41.5157L61.7872 46.0156ZM107.48 39.8655H107.611H109.647V49.4483H108.079V42.2884L105.273 49.3258L105.224 49.4503H103.835L103.786 49.3258L100.986 42.3061V49.4483H99.4048V39.8655H101.593L101.642 39.988L104.531 47.2132L107.431 39.988L107.48 39.8655ZM77.9351 39.994L77.886 39.8655H76.0126L75.9659 39.994L72.529 49.1795L72.4292 49.4483H73.9713L74.0203 49.3199L74.747 47.3891H79.1148L79.8414 49.3199L79.8905 49.4483H81.4309L81.3327 49.1815L77.9351 39.994ZM78.6305 46.0156H75.245L76.9436 41.5157L78.6305 46.0156ZM128.751 39.8655H128.948H136.158H136.354V40.0631V41.1046V41.3022H136.158H133.331V49.2507V49.4483H133.135H131.959H131.763V49.2507V41.3022H128.948H128.751V41.1046V40.0631V39.8655ZM126.392 39.8655H126.196V40.0631V47.146L122.13 39.9643L122.074 39.8655H121.96H120.267H120.071V40.0631V49.2507V49.4483H120.267H121.442H121.639V49.2507V42.1421L125.718 49.3475L125.773 49.4483H125.887H127.568H127.764V49.2507V40.0631V39.8655H127.568H126.392ZM72.7904 41.6596C72.9561 42.0436 73.0328 42.4606 73.015 42.8789L73.0167 42.8868C73.0277 43.3052 72.9451 43.7206 72.7754 44.1026C72.6058 44.4846 72.3535 44.8234 72.0373 45.0942C71.418 45.6179 70.554 45.8966 69.5486 45.8966H67.2637V49.4538H65.7239V39.871H69.5486C70.5777 39.871 71.4474 40.1398 72.0609 40.6616C72.3761 40.9342 72.6254 41.2754 72.7904 41.6596ZM69.5486 44.4382C70.0588 44.4668 70.5621 44.3136 70.9713 44.0054C71.1317 43.8668 71.2593 43.6932 71.3441 43.4977C71.4284 43.3023 71.4676 43.09 71.459 42.8769C71.4676 42.6621 71.4284 42.4481 71.3441 42.2508C71.2593 42.0534 71.1323 41.8777 70.9713 41.7366C70.5633 41.4261 70.0588 41.2721 69.5486 41.3019H67.2637V44.4382H69.5486ZM12.6403 26.1222V31.4363L12.6541 31.4462C14.3157 31.4503 15.9082 32.1179 17.0832 33.303C18.2582 34.4881 18.9202 36.0942 18.9243 37.7701H24.1873C24.1842 34.6822 22.9667 31.7217 20.802 29.5379C18.6373 27.3543 15.702 26.1259 12.6403 26.1222ZM4.48288 46.0089C6.65069 48.1933 9.58973 49.4204 12.6541 49.4204V44.0846C11.83 44.0869 11.0136 43.9254 10.2514 43.6093C9.48931 43.2931 8.79645 42.8286 8.21244 42.2421C7.62849 41.6557 7.16481 40.9589 6.84802 40.1916C6.53122 39.4244 6.36755 38.6016 6.36622 37.7705H1.09338C1.09598 40.8612 2.31514 43.8243 4.48288 46.0089ZM30.1205 26.128C28.9567 30.5567 27.154 37.7384 24.3363 49.42H29.7013C31.5219 41.9103 33.9158 32.2168 35.4383 26.3513C36.9672 32.1753 39.3577 41.8866 41.1757 49.42H46.572C43.7446 37.7009 41.9456 30.537 40.7879 26.128H30.1205Z" fill="#1F1F1F"/>
</g>
<defs>
<clipPath id="clip0_2207_4800">
<rect width="145" height="76" fill="white"/>
</clipPath>
</defs>
</svg>
