<svg width="142" height="76" viewBox="0 0 142 76" fill="none" xmlns="http://www.w3.org/2000/svg">
<path fill-rule="evenodd" clip-rule="evenodd" d="M141.968 35.8987H137.746V46.0979H135.146V35.8987H130.906V33.6322H141.968V35.8987Z" fill="#1F1F1F"/>
<path fill-rule="evenodd" clip-rule="evenodd" d="M127.542 46.0981H125.329L119.79 38.3807V46.0981H117.173V33.6322H119.385L124.942 41.3641V33.6322H127.542V46.0981Z" fill="#1F1F1F"/>
<path fill-rule="evenodd" clip-rule="evenodd" d="M112.947 33.6322V41.0323C112.947 42.6812 112.474 43.9817 111.511 44.8983C110.548 45.8148 109.248 46.2819 107.576 46.2819C105.904 46.2819 104.587 45.8148 103.624 44.8983C102.662 43.9817 102.188 42.6812 102.188 41.0323V33.6322H104.789V40.9985C104.789 42.9478 105.752 43.9986 107.576 43.9986C109.382 43.9986 110.346 42.9478 110.346 40.9985V33.6322H112.947Z" fill="#1F1F1F"/>
<path fill-rule="evenodd" clip-rule="evenodd" d="M89.0116 36.8479C88.2856 37.5817 87.9312 38.5818 87.9312 39.8651C87.9312 41.1317 88.2856 42.1317 89.0116 42.8812C89.7382 43.6306 90.6841 43.9985 91.8493 43.9985C93.014 43.9985 93.9438 43.6306 94.6527 42.8812C95.3793 42.1317 95.7337 41.1317 95.7337 39.8651C95.7337 38.5818 95.3793 37.5817 94.6527 36.8479C93.9438 36.0973 93.014 35.7317 91.8493 35.7317C90.6841 35.7317 89.7382 36.0973 89.0116 36.8479ZM96.5605 35.2148C97.7933 36.3806 98.4019 37.9318 98.4019 39.8651C98.4019 41.7975 97.7933 43.3474 96.5605 44.5312C95.3278 45.6986 93.7572 46.282 91.8493 46.282C89.9232 46.282 88.3532 45.6986 87.1198 44.5312C85.8871 43.3474 85.2795 41.7975 85.2795 39.8651C85.2795 37.9318 85.8871 36.3806 87.1198 35.2148C88.3532 34.0318 89.9232 33.4484 91.8493 33.4484C93.7572 33.4484 95.3278 34.0318 96.5605 35.2148Z" fill="#1F1F1F"/>
<path fill-rule="evenodd" clip-rule="evenodd" d="M81.465 46.3076H79.015V39.3265L75.7152 46.1696H74.0822L70.7664 39.3265V46.3076H68.2848V33.3845H70.4789L74.8987 42.2648L79.2869 33.3845H81.465V46.3076Z" fill="#1F1F1F"/>
<path fill-rule="evenodd" clip-rule="evenodd" d="M56.3866 41.6434H59.8312L58.1094 37.5138L56.3866 41.6434ZM64.6901 46.3076H61.7917L60.7513 43.82H55.4487L54.3923 46.3076H51.5099L56.9838 33.3845H59.2008L64.6901 46.3076Z" fill="#1F1F1F"/>
<path fill-rule="evenodd" clip-rule="evenodd" d="M33.4192 47.6798L27.7391 36.7922L29.1323 34.095H29.5973L36.6847 47.6798H33.4192ZM22.116 47.6798L26.4571 39.2743L30.8426 47.6798H22.116ZM9.61214 47.6798L13.953 39.275L18.3372 47.6798H9.61214ZM3.76913 47.6798L10.7858 34.095H11.2508L12.6611 36.7985L7.04045 47.6798H3.76913ZM19.6107 28.3202H20.742L25.1654 36.7985L20.226 46.3605L15.235 36.7926L19.6107 28.3202ZM30.964 31.7746H27.7605L26.4474 34.3164L22.1088 26H18.239L13.9433 34.3159L12.6175 31.7746H9.4142L0 50H5.8417H18.3458H22.1246H34.6297H40.4723L30.964 31.7746Z" fill="#1F1F1F"/>
</svg>
