<svg width="190" height="152" viewBox="0 0 190 152" fill="none" xmlns="http://www.w3.org/2000/svg">
<g clip-path="url(#clip0_2024_7119)">
<path d="M45.6667 54V61.2933H38.64V54H45.6667ZM38.9067 65.5067H45.4667V92.36H38.9067V65.5067Z" fill="#1F1F1F"/>
<path d="M76.4 65.5067V93.8534C76.4 99.44 72.3467 103.227 66.3333 103.227H53.08V98.0134H65.44C68.0533 98.0134 69.9067 96.04 69.9067 93.2267V89.3867C68.5733 91.4667 65.48 92.7867 62.1333 92.7867C54.04 92.7867 49.3467 87.1467 49.3467 78.9333C49.3467 70.72 54.04 65.08 62.0267 65.08C65.3733 65.08 68.3067 66.4667 69.8533 68.5467V65.5067H76.4ZM70.3067 78.9333C70.3067 73.9733 67.44 70.7333 63.0133 70.7333C58.5867 70.7333 55.8267 73.9867 55.8267 78.9333C55.8267 83.88 58.6533 87.1333 63.0133 87.1333C67.4533 87.12 70.32 83.9067 70.3067 78.9333Z" fill="#1F1F1F"/>
<path d="M81.88 54H88.3733V69.6533C89.8667 66.72 92.96 65.0667 96.7867 65.0667C102.813 65.0667 106.747 69.44 106.747 75.72V92.36H100.253V77.12C100.253 73.44 97.96 70.8933 94.6133 70.8933C90.9867 70.8933 88.3733 73.76 88.3733 77.6933V92.3467H81.88V54Z" fill="#1F1F1F"/>
<path d="M112.027 54H118.533V92.36H112.027V54Z" fill="#1F1F1F"/>
<path d="M130.56 54V61.2933H123.533V54H130.56ZM123.787 65.5067H130.347V92.36H123.787V65.5067Z" fill="#1F1F1F"/>
<path d="M135.44 65.5067H142V69.6667C143.493 66.7333 146.533 65.08 150.36 65.08C156.427 65.08 160.373 69.4533 160.373 75.7333V92.36H153.827V77.12C153.827 73.44 151.6 70.8933 148.24 70.8933C144.56 70.8933 142 73.76 142 77.6933V92.3467H135.44V65.5067Z" fill="#1F1F1F"/>
<path d="M190.24 83.4133C189.227 89.1067 184.227 92.7867 177.613 92.7867C168.813 92.7867 163.92 85.8667 163.92 78.8133C163.92 71.76 168.293 65.0667 177.08 65.0667C186.08 65.0667 190.133 71.6267 190.133 78.0133C190.133 78.92 190.08 79.72 190.027 80.24H170.213C170.693 84.56 173.467 87.32 177.613 87.32C180.973 87.32 183.16 85.9333 183.84 83.3867L190.24 83.4133ZM170.373 75.9467H183.587C183.32 72.5333 180.973 69.9733 177.093 69.9733C173.4 69.9867 171.067 71.9067 170.373 75.9467Z" fill="#1F1F1F"/>
<path d="M25.2267 78.7467V92.3867H32.8933V76.6H27.3733C26.1867 76.6 25.2267 77.56 25.2267 78.7467Z" fill="#1F1F1F"/>
<path d="M25.2133 54.0267V68.1467C25.2133 68.9334 24.5733 69.5734 23.7867 69.5867H9.84C8.65333 69.5867 7.69333 70.5467 7.69333 71.7334V74.44C7.69333 75.2267 7.05333 75.8667 6.26667 75.8667H0.719999C0.319999 75.8667 0 76.1867 0 76.5867V92.3867H7.66667V77.32C7.66667 76.5334 8.30666 75.8934 9.09333 75.88H23.04C24.2267 75.88 25.1867 74.92 25.1867 73.7334V71.0134C25.1867 70.2267 25.8267 69.5734 26.6267 69.5734H32.16C32.56 69.5734 32.88 69.2534 32.88 68.8667V54.0267H25.2133Z" fill="#1F1F1F"/>
<path d="M7.66667 54.0267H0V68.8534H5.52C6.70667 68.8534 7.66667 67.8934 7.66667 66.7067V54.0267Z" fill="#1F1F1F"/>
</g>
<defs>
<clipPath id="clip0_2024_7119">
<rect width="190" height="152" fill="white"/>
</clipPath>
</defs>
</svg>
