<svg xmlns="http://www.w3.org/2000/svg" width="168" height="65" viewBox="0 0 168 65">
    <g fill="#1F1F1F" fill-rule="evenodd">
        <path fill-rule="nonzero" d="M83 48.67v8.778h6.468v-2.033h-3.881V54.03h3.696v-2.032h-3.696v-1.294h3.88v-2.032H83zm16.723 0h2.495v8.778h-2.495v-8.777zm-2.402 4.343c.56-.475.904-1.145.924-1.94-.02-1.285-1.098-2.363-2.402-2.402H91.13v8.777h2.587v-6.745h1.293a.784.784 0 0 1 .832.74.887.887 0 0 1-.832.83h-1.293v1.941h1.293l1.201 3.234h2.495l-1.386-3.788c-.024-.076-.06-.124-.092-.185-.112-.084-.189-.305.092-.462zm37.697-4.342v8.777h2.587v-4.712l2.772 4.712h2.772v-8.777h-2.495v4.62l-2.68-4.62h-2.956zm-5.174 1.663c.996.042 1.788 1.23 1.755 2.68.033 1.482-.759 2.67-1.755 2.678-.958-.008-1.75-1.196-1.756-2.679.006-1.448.798-2.637 1.756-2.68v-1.94c-2.349.01-4.268 2.082-4.25 4.62-.018 2.573 1.901 4.645 4.25 4.62 2.387.025 4.307-2.047 4.342-4.62-.035-2.538-1.955-4.61-4.342-4.62v1.94zm-26.702 2.587c.014 4.103 3.815 4.681 4.527 4.712.636-.031 1.646-.08 2.957-.462v-2.033c-2.37 1.02-4.824.443-4.805-2.217-.019-2.634 2.58-3.404 4.62-1.94v-2.126c-1.126-.54-2.184-.444-2.864-.462-.668.018-4.421.45-4.435 4.528zm14.229-2.218v-1.755c-.777-.369-1.993-.393-2.68-.37-.756-.023-2.633.266-3.049 1.663-.354 1.394.08 2.886 1.57 3.326 1.493.522 2.455.81 2.126 1.664-.248.783-2.221.542-3.419.092l-.277 1.848c1.57.383 3.159.48 4.343.185 1.222-.38 1.896-1.342 2.032-2.31.152-1.053-.184-2.16-1.293-2.587-1.201-.44-1.49-.44-2.31-.832-.816-.377-.527-1.388.74-1.386.706-.05 1.572.19 2.217.462zm7.206 0v-1.755c-.813-.369-2.028-.393-2.771-.37-.701-.023-2.578.266-2.957 1.663-.39 1.394.042 2.886 1.57 3.326 1.456.522 2.418.81 2.126 1.664-.285.783-2.258.542-3.419.092l-.277 1.848c1.534.383 3.122.48 4.342.185a2.954 2.954 0 0 0 2.033-2.31c.116-1.053-.221-2.16-1.386-2.587-1.145-.44-1.434-.44-2.217-.832-.853-.377-.564-1.388.739-1.386.67-.05 1.536.19 2.217.462z"/>
        <path d="M103.768 39.133h.02a1.9 1.9 0 0 0 .984-.232l.14-.07 19.676-7.795c.9-.427 1.45-1.324 1.41-2.373l-.001-.033v-.034a2.377 2.377 0 0 0-.698-1.747c-.48-.486-1.138-.736-1.815-.751-.431-.014-.71.046-.94.202l-.19.099-19.675 7.796c-.98.353-1.594 1.295-1.596 2.414 0 .647.266 1.267.744 1.742a2.73 2.73 0 0 0 1.94.782zm-1.09-25.17c-.95.432-1.593 1.387-1.595 2.413.002 1.466 1.174 2.647 2.678 2.709.39-.043.772-.141 1.134-.292l19.64-7.783c.957-.515 1.502-1.406 1.464-2.393.019-.761-.24-1.408-.73-1.89a2.332 2.332 0 0 0-1.753-.676l-.101.004-.101-.015a1.479 1.479 0 0 0-.241-.02 2.02 2.02 0 0 0-.73.152l-19.664 7.79zm22.606 2.825c.48.48.734 1.114.715 1.852a2.522 2.522 0 0 1-1.411 2.373L104.84 28.84a2.633 2.633 0 0 1-1.038.27c-1.548-.012-2.718-1.178-2.72-2.71.002-1.003.653-1.961 1.596-2.414l19.602-7.77c.257-.08.557-.157.884-.157.067 0 .135.004.204.01l.066.007.065-.002a2.434 2.434 0 0 1 1.784.714z"/>
        <path fill-rule="nonzero" d="M42.809 33.42c-.012-1.053-.258-2.093-.643-3.07-.296-.757-.64-1.494-.977-2.233a423.348 423.348 0 0 0-8.42-17.301c-.413-.797-.817-1.599-1.253-2.383-.43-.765-.928-1.502-1.574-2.101a6.146 6.146 0 0 0-3.835-1.657h-.653a6.12 6.12 0 0 0-3.938 1.707c-.622.59-1.104 1.309-1.521 2.053-.43.771-.83 1.56-1.235 2.345a426.432 426.432 0 0 0-5.738 11.565 354.82 354.82 0 0 0-3.255 7c-.437.977-.833 1.989-.982 3.056a7.789 7.789 0 0 0 1.083 5.242 7.812 7.812 0 0 0 3.527 3.053 7.948 7.948 0 0 0 3.603.638c1.649-.088 3.239-.68 4.634-1.545 1.556-.955 2.886-2.225 4.126-3.554 1.152 1.242 2.385 2.427 3.808 3.355 1.375.905 2.942 1.56 4.591 1.715a7.911 7.911 0 0 0 5.149-1.253 7.847 7.847 0 0 0 2.95-3.626c.382-.955.57-1.977.553-3.005zm-17.044-.694c-.45-.53-.845-1.102-1.243-1.67-.67-.982-1.278-2.008-1.768-3.093-.4-.9-.723-1.844-.848-2.825-.092-.778-.07-1.59.215-2.328a3.432 3.432 0 0 1 1.37-1.69c1.483-.957 3.596-.854 4.94.307.68.58 1.087 1.436 1.189 2.317.134 1.17-.132 2.345-.541 3.437-.772 2.025-1.993 3.84-3.314 5.545zm14.551 2.482a5.51 5.51 0 0 1-2.595 3.252 5.665 5.665 0 0 1-3.669.621c-1.586-.247-3.009-1.088-4.242-2.082-.906-.728-1.722-1.56-2.504-2.418 1.234-1.561 2.397-3.194 3.285-4.98.775-1.563 1.364-3.257 1.42-5.016.032-1.115-.178-2.251-.7-3.244-.681-1.327-1.904-2.346-3.305-2.84a6.766 6.766 0 0 0-4.1-.128c-1.258.356-2.408 1.113-3.197 2.162-.693.915-1.089 2.04-1.18 3.18-.141 1.642.27 3.281.893 4.791.926 2.206 2.285 4.204 3.785 6.056a20.684 20.684 0 0 1-2.197 2.183c-1.218 1.031-2.612 1.929-4.191 2.27-1.277.287-2.654.144-3.825-.448a5.5 5.5 0 0 1-2.822-3.45c-.303-1.087-.236-2.261.125-3.326.3-.88.708-1.72 1.09-2.568a423.466 423.466 0 0 1 8.325-17.117c.433-.84.86-1.683 1.317-2.51.374-.665.81-1.318 1.424-1.785a3.682 3.682 0 0 1 2.33-.777 3.687 3.687 0 0 1 2.39.865c.654.544 1.096 1.287 1.493 2.028.897 1.685 1.759 3.39 2.62 5.093a414.94 414.94 0 0 1 7.092 14.75c.342.77.709 1.536.94 2.35a5.646 5.646 0 0 1-.002 3.088zM12.926 45.88c.74-.168 1.55.32 1.743 1.056.239.753-.236 1.628-.993 1.845-.739.26-1.617-.191-1.861-.93-.232-.621.016-1.372.567-1.74.165-.111.35-.19.544-.231zm5.004 4.858c.446-.485 1.075-.79 1.723-.886a4.045 4.045 0 0 1 1.291.082c-.005.683-.001 1.365-.002 2.048-.665-.172-1.384-.207-2.036.033a2.424 2.424 0 0 0-.932.612c-.056.048-.042.125-.047.192.004 1.907-.003 3.816.002 5.723-.006.073.011.156-.021.225-.737.017-1.474.003-2.211.006 0-2.908-.003-5.818.002-8.726.62.003 1.241-.002 1.862.001.136-.008.282.062.332.196.049.159.033.329.037.494zm15.884.008c.59-.61 1.445-.91 2.283-.912.886-.023 1.794.24 2.479.814.455.357.784.851.937 1.41.194.68.177 1.394.175 2.094v4.623c-.743-.002-1.485.004-2.228-.004v-4.62c0-.572.027-1.19-.277-1.699-.212-.366-.632-.548-1.036-.59-.77-.123-1.575.183-2.106.745-.056.056-.105.128-.099.213-.007.238.03.477.009.716-.03.324.016.647.006.972-.01.612-.01 1.225-.003 1.837-.042.81.031 1.622-.017 2.431-.74-.002-1.48 0-2.22 0 0-2.91-.005-5.82.003-8.73.573.005 1.146 0 1.718.002.148-.01.31.073.348.224.035.154.024.315.028.474zm-21.703 8.029c0-2.91-.004-5.82.002-8.729.737.002 1.474.002 2.21 0 .007 2.91.002 5.82.003 8.729H12.11zm-1.373-8.728c-.584-.001-1.169.002-1.753-.003-.155-.001-.352.007-.428.169-.067.167-.041.352-.047.528-.487-.518-1.172-.825-1.875-.892-1.085-.097-2.21.204-3.082.863a4.365 4.365 0 0 0-1.526 2.142c-.134.396-.201.812-.244 1.227v.597c.062 1.25.618 2.488 1.589 3.294.732.62 1.672.966 2.625 1.027h.497c.755-.051 1.5-.363 2.016-.926.005.176-.02.363.046.532.069.137.231.175.372.17.603-.002 1.207 0 1.81-.004 0-2.907.002-5.815 0-8.724zM8.44 56.056c-.45.54-1.155.86-1.859.837-.754.006-1.537-.283-2.025-.875-.477-.565-.62-1.35-.513-2.068.081-.58.377-1.138.845-1.498.425-.335.96-.508 1.495-.545.798-.07 1.639.282 2.119.926.027.948 0 1.9.012 2.849-.008.125.027.276-.074.374zm22.003-3.512a4.352 4.352 0 0 0-1.725-2.046 4.525 4.525 0 0 0-2.681-.656 3 3 0 0 0-1.967.9c-.003-1.63 0-3.259-.002-4.889-.743 0-1.487-.003-2.23.002.004 4.305-.007 8.613.005 12.917.616.002 1.232.003 1.848.002.153.012.318-.072.36-.227.03-.158.02-.32.02-.48.517.575 1.275.886 2.039.932h.455c1.235-.062 2.447-.64 3.222-1.612 1.086-1.331 1.298-3.267.656-4.843zm-2.6 3.672c-.497.462-1.186.684-1.86.677a2.355 2.355 0 0 1-1.848-.85.268.268 0 0 1-.068-.207V52.84a2.468 2.468 0 0 1 1.81-.94c.708-.02 1.452.188 1.972.687.495.46.737 1.15.721 1.817.015.667-.234 1.352-.726 1.812zm20.94-4.752c-.946-1.204-2.562-1.812-4.069-1.586-.629.099-1.225.4-1.665.864-.005-1.63 0-3.258-.003-4.888-.742-.001-1.483-.002-2.225 0v12.919c.585.004 1.172-.001 1.756.004.154.003.346-.01.425-.167.068-.17.043-.358.047-.537.513.562 1.255.872 2.007.927h.5c1.222-.066 2.417-.637 3.191-1.593.632-.763.973-1.74 1.03-2.723v-.583c-.07-.95-.391-1.893-.994-2.637zm-1.737 4.502c-.589.757-1.627 1.039-2.548.892-.56-.112-1.105-.415-1.436-.888-.037-.366-.004-.737-.015-1.105.008-.678-.017-1.357.011-2.033.337-.466.878-.764 1.433-.887 1.029-.19 2.224.217 2.744 1.167.473.879.426 2.053-.19 2.854z"/>
    </g>
</svg>
