<svg viewBox="0 0 1920 940" xmlns="http://www.w3.org/2000/svg" xmlns:xlink="http://www.w3.org/1999/xlink"><linearGradient id="a"><stop offset="0" stop-color="#9bf8f4"/><stop offset=".46875" stop-color="#6f7bf7"/></linearGradient><linearGradient id="b" gradientTransform="matrix(1 0 0 -1 0 938.708649)" gradientUnits="userSpaceOnUse" x1="960.007996" x2="1680.01001" xlink:href="#a" y1="406.018646" y2="406.018646"/><linearGradient id="c" gradientTransform="matrix(1 0 0 -1 0 938.708649)" gradientUnits="userSpaceOnUse" x1="960.007996" x2="1680.01001" xlink:href="#a" y1="417.242645" y2="417.242645"/><linearGradient id="d" gradientTransform="matrix(1 0 0 -1 0 938.708649)" gradientUnits="userSpaceOnUse" x1="960.007996" x2="1680.01001" xlink:href="#a" y1="405.466644" y2="405.466644"/><linearGradient id="e" gradientTransform="matrix(1 0 0 -1 0 938.708649)" gradientUnits="userSpaceOnUse" x1="960.007996" x2="1680.01001" xlink:href="#a" y1="413.010651" y2="413.010651"/><linearGradient id="f" gradientTransform="matrix(1 0 0 -1 0 938.708649)" gradientUnits="userSpaceOnUse" x1="960.007996" x2="1680.01001" xlink:href="#a" y1="416.828644" y2="416.828644"/><linearGradient id="g" gradientTransform="matrix(1 0 0 -1 0 938.708649)" gradientUnits="userSpaceOnUse" x1="960.007996" x2="1680.01001" xlink:href="#a" y1="406.570648" y2="406.570648"/><path d="m0 0h1920v940h-1920z" fill="#121835"/><g fill="#919cbd"><path d="m961.91101074 643 1.53997803-4.17999268h7.26000977l1.53997803 4.17999268h1.65002441l-5.85198975-15.75201416h-1.95800781l-5.78601074 15.75201416h1.60601807zm4.95001221-13.5300293c.08795166-.2199707.17596436-.50598145.19799805-.63800049.02197266.15405273.13195801.41802979.19799805.63800049l2.94799805 7.96405029h-6.27001953l2.92602539-7.96405029z"/><path d="m982.1920166 643h6.09399414c2.99200439 0 4.88397217-1.60601807 4.88397217-4.13598633 0-1.93603516-.92401123-3.21203613-2.75-3.80603027 1.62799072-.63800049 2.4420166-1.89196777 2.4420166-3.73999023 0-2.52996826-1.86999512-4.07000732-4.90600586-4.07000732h-5.76397705v15.75201416zm5.74200439-14.34399414c2.11199951 0 3.29998779 1.03399658 3.29998779 2.79400635 0 1.86999512-1.12200928 2.9699707-3.10198975 2.9699707h-4.35601807v-5.76397705h4.15802002zm.35198975 7.15002441c2.04595947 0 3.27801514 1.07794189 3.27801514 2.85998535 0 1.82598877-1.21002197 2.9039917-3.27801514 2.9039917h-4.51000977v-5.76397705z"/><path d="m1008.54998779 643.24200439c3.39001465 0 6.14001465-2.00201416 6.86999512-4.97198486h-1.70001221c-.67999268 2.11199951-2.65997314 3.45397949-5.13995361 3.45397949-3.46002197 0-5.77001953-2.64001465-5.77001953-6.59997559 0-3.98199463 2.30999756-6.62200928 5.77001953-6.62200928 2.45996094 0 4.39996338 1.38598633 5.05999756 3.65197754h1.69000244c-.64001465-3.1239624-3.29998779-5.16998291-6.69000244-5.16998291-4.44000244 0-7.4800415 3.29998779-7.4800415 8.14001465 0 4.83996582 2.99005127 8.11798096 7.39001465 8.11798096z"/><path d="m1029.05004883 643c4.72998047 0 7.88000488-3.16802979 7.88000488-7.87597656 0-4.70800781-3.17004395-7.8760376-7.92004395-7.8760376h-4.75v15.75201416h4.79003906zm-.11010742-14.29998779c3.90002441 0 6.36010742 2.48596191 6.36010742 6.42401123 0 3.91595459-2.46008301 6.4239502-6.31005859 6.4239502h-3.15002441v-12.84796143h3.09997559z"/><path d="m1055.32995605 643v-1.45202637h-7.84997559v-5.74194336h7.09997559v-1.43005371h-7.09997559v-5.67596436h7.83007813v-1.45202637h-9.42004395v15.75201416h9.43994141z"/><path d="m1072.68005371 636.07000732v-1.42999268h-6.45007324v-5.94000244h7.70007324v-1.45202637h-9.2800293v15.75201416h1.57995605v-6.92999268h6.45007324z"/><path d="m1089.30004883 628.47998047c2.30993652 0 4.14990234 1.10003662 4.80993652 3.25604248h1.7199707c-.61999512-2.86004639-3.18994141-4.75201416-6.51000977-4.75201416-4.5098877 0-7.58996582 3.38800049-7.58996582 8.20599365 0 4.86199951 3.08007813 8.07397461 7.54003906 8.07397461 2.55993652 0 4.54003906-1.18798828 5.36999512-2.75l.16003418 2.50799561h1.25v-8.53594971h-7.19006348v1.40795898h5.69006348v.81402588c0 3.78399658-2.57006836 5.05999756-5.21008301 5.05999756-3.53991699 0-5.95996094-2.48602295-5.95996094-6.57800293 0-4.02600098 2.29003906-6.71002197 5.92004395-6.71002197z"/><path d="m1106.88000488 643v-7.26000977h8.52001953v7.26000977h1.55993652v-15.75201416h-1.55993652v7.01800537h-8.52001953v-7.01800537h-1.57995605v15.75201416z"/><path d="m1128.48999023 627.24798584h-1.57995605v15.75201416h1.57995605z"/><path d="m1136.94995117 638.66601563c0 2.72796631 1.63000488 4.59796143 4.47009277 4.59796143 2.65991211 0 4.51000977-1.71600342 4.51000977-4.57598877v-11.44000244h-1.59008789v11.39599609c0 1.86999512-.91992188 3.12402344-2.91992188 3.12402344-1.92004395 0-2.93005371-1.23199463-2.93005371-3.10198975v-.61602783h-1.54003906z"/><path d="m1157.32995605 627.24798584h-1.58996582v15.75201416h1.58996582v-3.91601563l3.10009766-3.84997559 4.61999512 7.76599121h1.84997559l-5.44006348-9.08599854 5.35009766-6.66601563h-1.89001465l-7.59008789 9.48199463v-9.48199463z"/><path d="m1176.97998047 627.24798584h-1.57995605v15.75201416h8.81994629v-1.45202637h-7.23999023v-14.29998779z"/><path d="m1194.26000977 643v-7.72198486c0-2.39801025-.05004883-4.13598633-.13000488-4.7300415l5.11999512 12.45202637h1.52001953l5.13000488-12.51800537c-.08996582 1.07800293-.14001465 2.2880249-.14001465 5.0380249v7.47998047h1.56994629v-15.75201416h-1.58996582l-5.73999023 13.88201904-5.73999023-13.88201904h-1.56005859v15.75201416h1.56005859z"/><path d="m1218.83996582 643v-13.11199951l8.69006348 13.11199951h1.55993652v-15.75201416h-1.55993652v13.11199951l-8.67004395-13.11199951h-1.60998535v15.75201416z"/><path d="m1253.06994629 635.12402344c0-4.79602051-3.07995605-8.16204834-7.5-8.16204834-4.39990234 0-7.5 3.38800049-7.5 8.16204834 0 4.77398682 3.08007813 8.13995361 7.5 8.13995361 4.40002441 0 7.5-3.3659668 7.5-8.13995361zm-1.61999512 0c0 3.91595459-2.39990234 6.62194824-5.88000488 6.62194824-3.4699707 0-5.84997559-2.68395996-5.84997559-6.62194824 0-3.93804932 2.38000488-6.62200928 5.84997559-6.62200928 3.48010254 0 5.88000488 2.68395996 5.88000488 6.62200928z"/><path d="m1268.05004883 637.21398926c3.01989746 0 4.94995117-2.15600586 4.94995117-5.01599121 0-2.9699707-1.91003418-4.95001221-4.94995117-4.95001221h-6v15.75201416h1.57995605v-5.78601074zm-.22009277-8.53601074c2.18005371 0 3.52001953 1.32000732 3.52001953 3.49804688 0 2.15594482-1.31994629 3.60797119-3.59997559 3.60797119h-4.11999512v-7.10601807h4.19995117z"/><path d="m1294.08996582 643.90197754 1.08007813-.98999023-1.65002441-1.84796143c1.35998535-1.43005371 2.17993164-3.49804688 2.17993164-5.94000244 0-4.79602051-3.07995605-8.16204834-7.5-8.16204834-4.39990234 0-7.51000977 3.38800049-7.51000977 8.16204834 0 4.77398682 3.08007813 8.13995361 7.51000977 8.13995361 1.60009766 0 3.0300293-.44000244 4.22009277-1.25396729l1.66992188 1.89196777zm-.02001953-8.7779541c0 1.93597412-.58996582 3.58599854-1.60998535 4.75195313l-2.08996582-2.33197021-1.05004883.98999023 2.04003906 2.30999756c-.88000488.57202148-1.94995117.90197754-3.16003418.90197754-3.47998047 0-5.85998535-2.68395996-5.85998535-6.62194824 0-3.93804932 2.38000488-6.62200928 5.85998535-6.62200928 3.47009277 0 5.86999512 2.68395996 5.86999512 6.62200928z"/><path d="m1306.26000977 643v-6.53399658h4.58996582l3.2199707 6.53399658h1.76000977l-3.36999512-6.79797363c2.02001953-.55004883 3.21008301-2.1340332 3.21008301-4.40002441 0-2.79400635-1.93005371-4.55401611-5.11999512-4.55401611h-5.88000488v15.75201416h1.58996582zm0-14.32202148h4.29003906c2.14990234 0 3.48999023 1.12200928 3.48999023 3.16802979 0 2.00201416-1.27001953 3.19000244-3.45007324 3.19000244h-4.32995605z"/><path d="m1323.90002441 631.34002686c0 2.15594482 1.29992676 3.56396484 3.76000977 4.15795898l2.65991211.66003418c1.70007324.39599609 2.4901123 1.32000732 2.4901123 2.72796631 0 1.80401611-1.47009277 2.92602539-3.7800293 2.92602539-2.16003418 0-3.60998535-1.07800293-3.70007324-2.72802734h-1.63000488c.20007324 2.57403564 2.27001953 4.17999268 5.33007813 4.17999268 3.25 0 5.35998535-1.73797607 5.35998535-4.46600342 0-2.13397217-1.27001953-3.54199219-3.73999023-4.13598633l-2.70007324-.65997314c-1.64990234-.41802979-2.4699707-1.29803467-2.4699707-2.684021 0-1.78198242 1.45996094-2.92596436 3.68005371-2.92596436 1.97998047 0 3.18994141 1.01196289 3.35998535 2.79394531h1.60998535c-.23999023-2.63995361-2.10998535-4.22399902-4.94995117-4.22399902-3.17004395 0-5.2800293 1.73803711-5.2800293 4.37805176z"/><path d="m1341.68994141 628.70001221h4.84008789v14.29998779h1.58996582v-14.29998779h4.85998535v-1.45202637h-11.29003906z"/><path d="m1361.15002441 637.52197266c0 3.58599854 2.19995117 5.74200439 5.84997559 5.74200439 3.58996582 0 5.79003906-2.17797852 5.79003906-5.74200439v-10.27398682h-1.58007813v10.20800781c0 2.72802734-1.52001953 4.26800537-4.20996094 4.26800537-2.75 0-4.26000977-1.49597168-4.26000977-4.26800537v-10.20800781h-1.58996582v10.27398682z"/><path d="m1386.94995117 643h1.65002441l5.98999023-15.75201416h-1.63000488l-4.17993164 10.934021c-.23999023.59399414-.64001465 1.69396973-.9699707 2.8380127-.35009766-1.10003662-.66003418-1.95800781-.9901123-2.81604004l-4.19995117-10.95599365h-1.69995117l6.02990723 15.75201416z"/><path d="m1405.92004395 643h1.51000977l4.22998047-13.37597656 4.2199707 13.37597656h1.5l4.72998047-15.75201416h-1.60998535l-3.25 10.8460083c-.18005371.59399414-.38000488 1.36401367-.61999512 2.57403564-.23999023-1.01202393-.45996094-1.80401611-.69995117-2.5960083l-3.44006348-10.82403564h-1.65002441l-3.42993164 10.82403564c-.23999023.7699585-.46008301 1.45196533-.72009277 2.5960083-.19995117-1.03405762-.39990234-1.8260498-.61999512-2.5960083l-3.18994141-10.82403564h-1.65002441l4.69006348 15.75201416z"/><path d="m1434.33996582 635.14599609-5.47998047 7.85400391h1.84997559l4.59008789-6.64398193c.39990234.70397949 1.03991699 1.67199707 1.56994629 2.41998291l2.98999023 4.22399902h1.89001465l-5.5-7.89801025 5.41003418-7.85400391h-1.82006836l-4.57995605 6.73199463c-.36999512-.70397949-.88000488-1.53997803-1.63000488-2.5960083l-2.92004395-4.13598633h-1.86999512z"/><path d="m1453.67004395 636.42199707v6.57800293h1.57995605v-6.57800293l5.2800293-9.17401123h-1.73999023l-3.85009766 6.79803467q-.27990723.54998779-.47998047.94598389c-.15991211-.35198975-.28991699-.61602783-.45996094-.94598389l-3.90002441-6.79803467h-1.7800293z"/><path d="m1478.70996094 643v-1.45202637h-9.05993652l9.10998535-12.89196777v-1.40802002h-10.94006348v1.45202637h9l-9.05993652 12.84796143v1.45202637h10.94995117z"/><path d="m964.63897705 679.26397705c1.80401611 0 3.25604248-.79199219 3.91601563-2.13397217l.19799805 1.86999512h1.27600098v-6.88598633c0-2.81604004-1.80401611-4.04803467-4.26800537-4.04803467-2.61798096 0-4.37799072 1.38604736-4.37799072 3.54199219h1.38598633c0-1.42999268 1.10003662-2.26599121 2.94799805-2.26599121 1.56201172 0 2.81604004.66003418 2.81604004 2.75v.35198975l-3.52001953.28601074c-2.48602295.19799805-3.98199463 1.42999268-3.98199463 3.38800049 0 1.86999512 1.34197998 3.14599609 3.60797119 3.14599609zm.35205078-1.23199463c-1.45202637 0-2.42004395-.65997314-2.42004395-1.95800781 0-1.18798828.81402588-2.06799316 2.81604004-2.24395752l3.14599609-.24200439v.57196045c0 2.30999756-1.29803467 3.87200928-3.54199219 3.87200928z"/><path d="m980.49597168 679 .15405273-2.17797852c.74798584 1.64996338 2.22198486 2.44195557 4.00396729 2.44195557 3.10198975 0 4.95001221-2.37597656 4.95001221-5.565979 0-3.2119751-1.80401611-5.63201904-4.90600586-5.63201904-1.80401611 0-3.25598145.79199219-4.00402832 2.35400391v-7.45800781h-1.51794434v16.0380249h1.31994629zm.22003174-5.3460083c0-2.4420166 1.36401367-4.22399902 3.69598389-4.22399902 2.30999756 0 3.65203857 1.78198242 3.65203857 4.22399902 0 2.46398926-1.34204102 4.22399902-3.65203857 4.22399902-2.33197021 0-3.69598389-1.76000977-3.69598389-4.22399902z"/><path d="m997.37799072 673.69799805c0 3.34399414 2.04602051 5.565979 5.06201172 5.565979 2.41998291 0 4.30999756-1.42999268 4.82000732-3.60797119h-1.54003906c-.41998291 1.36401367-1.69995117 2.24401855-3.27996826 2.24401855-2.15997314 0-3.565979-1.69403076-3.565979-4.22399902 0-2.61804199 1.51599121-4.26800537 3.67596436-4.26800537 1.47003174 0 2.75.81396484 3.14001465 2.28796387h1.52001953c-.42004395-2.20001221-2.22003174-3.63000488-4.67999268-3.63000488-3.10601807 0-5.15203857 2.2880249-5.15203857 5.63201904z"/><path d="m1019.84002686 679.26397705c1.77996826 0 3.2699585-.79199219 4.0199585-2.44195557l.16003418 2.17797852h1.31994629v-16.0380249h-1.5199585v7.41400146c-.75-1.53997803-2.16003418-2.30999756-3.91998291-2.30999756-3.17004395 0-4.99005127 2.42004395-4.99005127 5.63201904 0 3.19000244 1.82000732 5.565979 4.93005371 5.565979zm.25994873-1.38598633c-2.30999756 0-3.64996338-1.76000977-3.64996338-4.22399902 0-2.4420166 1.33996582-4.22399902 3.64996338-4.22399902 2.33001709 0 3.70001221 1.78198242 3.70001221 4.22399902 0 2.46398926-1.36999512 4.22399902-3.70001221 4.22399902z"/><path d="m1039.06994629 679.26397705c2.51000977 0 4.16003418-1.20996094 4.73010254-3.45397949h-1.45007324c-.40002441 1.40802002-1.52001953 2.15600586-3.26000977 2.15600586-2.27990723 0-3.65002441-1.49603271-3.76000977-4.09197998h8.47009277v-.74804688c0-3.01397705-1.96008301-5.05999756-4.84008789-5.05999756-3.02990723 0-5.09997559 2.2880249-5.09997559 5.61004639 0 3.34399414 2.08996582 5.58795166 5.20996094 5.58795166zm-.10998535-9.89996338c2 0 3.32006836 1.36401367 3.32006836 3.40997314h-6.90002441c.26000977-2.08996582 1.57995605-3.40997314 3.57995605-3.40997314z"/><path d="m1051.14001465 668.35198975v1.27600098h1.63000488v9.37200928h1.52001953v-9.37200928h2.51000977v-1.27600098h-2.51000977v-2.06799316c0-1.25396729.34997559-1.93597412 1.68994141-1.93597412h.90002441v-1.29803467c-.34997559-.065979-.79003906-.0880127-1.16003418-.0880127-1.63000488 0-2.94995117.92401123-2.94995117 3.32202148v2.06799316h-1.63000488z"/><path d="m1064.23999023 673.36798096c0 2.9039917 1.84997559 5.30200195 4.88000488 5.30200195 1.82995605 0 3.30004883-.88000488 4.0300293-2.37597656v2.52996826c0 2.2220459-1.45007324 3.69604492-3.63000488 3.69604492-1.92004395 0-3.23999023-1.01202393-3.57006836-2.72802734h-1.51000977c.41003418 2.57403564 2.33007813 4.11401367 5.06005859 4.11401367 3.11999512 0 5.14001465-2.06799316 5.14001465-5.23602295v-10.31799316h-1.32006836l-.14990234 2.1340332c-.68005371-1.56201172-2.09008789-2.42004395-3.94006348-2.42004395-3.11999512 0-4.98999023 2.39801025-4.98999023 5.30200195zm1.52001953-.02197266c0-2.15600586 1.31994629-3.93798828 3.59997559-3.93798828 2.33996582 0 3.66003418 1.67199707 3.66003418 3.93798828 0 2.28796387-1.36999512 3.96002197-3.68005371 3.96002197-2.23999023 0-3.57995605-1.78204346-3.57995605-3.96002197z"/><path d="m1085.43005371 678.97802734v-5.78601074c0-2.04602051 1.18994141-3.73999023 3.47998047-3.73999023 1.65002441 0 2.80993652.87994385 2.80993652 3.3659668v6.18200684h1.52001953v-6.51202393c0-2.68395996-1.25-4.42199707-4.05004883-4.42199707-1.77990723 0-3.07995605.85803223-3.7598877 2.1340332v-7.23803711h-1.52001953v16.01605225h1.52001953z"/><path d="m1103.11999512 665.42602539c.60998535 0 1.14001465-.50604248 1.14001465-1.12200928 0-.61602783-.5300293-1.14404297-1.14001465-1.14404297-.61999512 0-1.13000488.52801514-1.13000488 1.14404297 0 .6159668.51000977 1.12200928 1.13000488 1.12200928zm-.75 13.57397461h1.52001953v-10.64801025h-1.52001953z"/><path d="m1113.92004395 665.42602539c.59997559 0 1.11999512-.50604248 1.11999512-1.12200928 0-.61602783-.52001953-1.14404297-1.11999512-1.14404297-.64001465 0-1.14001465.52801514-1.14001465 1.14404297 0 .6159668.5 1.12200928 1.14001465 1.12200928zm-3.60998535 18.23797607c.54992676.1539917.85998535.19799805 1.42993164.19799805 1.86999512 0 2.93005371-1.23199463 2.93005371-3.25598145v-12.25402832h-1.52001953v12.16601563c0 1.29797363-.46008301 1.91400146-1.52001953 1.91400146-.32995605 0-.58996582-.04400635-1.0300293-.1539917z"/><path d="m1125.52001953 679v-3.19000244l2.06994629-2.13397217 3.39001465 5.32397461h1.76000977l-4.11999512-6.40197754 4.09997559-4.24603271h-1.91992188l-5.2800293 5.5v-10.89001465h-1.52001953v16.0380249z"/><path d="m1142.23999023 679v-16.0380249h-1.52001953v16.0380249z"/><path d="m1153.08996582 679v-6.59997559c0-1.62805176 1.07006836-2.94799805 2.85998535-2.94799805 1.60009766 0 2.64001465 1.05596924 2.64001465 2.85998535v6.68798828h1.48999023v-6.57800293c0-1.65002441 1.06005859-2.99200439 2.84008789-2.99200439 1.63000488 0 2.64001465 1.07800293 2.64001465 2.9039917v6.66601563h1.4699707v-6.97399902c0-2.46398926-1.51000977-3.96002197-3.82006836-3.96002197-1.7199707 0-3.02001953.88000488-3.5 2.26599121-.51000977-1.38598633-1.76000977-2.26599121-3.42993164-2.26599121-1.5 0-2.69006348.68200684-3.2199707 1.80401611l-.17004395-1.51800537h-1.32006836v10.64801025h1.52001953z"/><path d="m1177.70996094 679v-5.565979c0-2.39801025 1.22998047-3.98199463 3.41003418-3.98199463 1.76000977 0 2.88000488.87994385 2.88000488 3.3659668v6.18200684h1.52001953v-6.51202393c0-2.68395996-1.20996094-4.42199707-4.14001465-4.42199707-1.54003906 0-2.94995117.77001953-3.65002441 2.1340332l-.2199707-1.84802246h-1.32006836v10.64801025z"/><path d="m1193.90002441 673.67602539c0 3.23394775 2.2800293 5.58795166 5.41003418 5.58795166 3.11999512 0 5.40991211-2.35400391 5.40991211-5.58795166 0-3.25604248-2.28991699-5.61004639-5.40991211-5.61004639-3.13000488 0-5.41003418 2.35400391-5.41003418 5.61004639zm1.53991699-.02203369c0-2.46398926 1.58007813-4.22399902 3.87011719-4.22399902 2.2598877 0 3.86999512 1.76000977 3.86999512 4.22399902 0 2.50799561-1.61010742 4.24603271-3.86999512 4.24603271-2.29003906 0-3.87011719-1.73803711-3.87011719-4.24603271z"/><path d="m1213.25 683.64202881h1.52001953v-6.68804932c.73999023 1.54003906 2.16992188 2.30999756 3.97998047 2.30999756 3.14001465 0 4.93005371-2.41998291 4.93005371-5.63195801 0-3.21203613-1.85009766-5.56604004-4.93005371-5.56604004-1.7800293 0-3.2800293.79199219-4.0300293 2.4420166l-.15002441-2.15600586h-1.31994629v15.29003906zm1.54003906-9.96600342c0-2.46405029 1.35998535-4.22399902 3.68994141-4.22399902 2.31005859 0 3.66003418 1.75994873 3.66003418 4.22399902 0 2.44195557-1.34997559 4.22399902-3.66003418 4.22399902-2.32995605 0-3.68994141-1.78204346-3.68994141-4.22399902z"/><path d="m1231.44995117 673.63201904c0 3.2119751 1.7800293 5.63195801 4.93005371 5.63195801 1.80004883 0 3.22998047-.7699585 3.97998047-2.30999756v6.68804932h1.52001953v-15.29003906h-1.31994629l-.16003418 2.15600586c-.77001953-1.65002441-2.23999023-2.4420166-4.02001953-2.4420166-3.07995605 0-4.93005371 2.35400391-4.93005371 5.56604004zm1.54003906.04400635c0-2.46405029 1.33996582-4.22399902 3.65002441-4.22399902 2.32995605 0 3.69995117 1.75994873 3.69995117 4.22399902 0 2.44195557-1.36999512 4.22399902-3.69995117 4.22399902-2.31005859 0-3.65002441-1.78204346-3.65002441-4.22399902z"/><path d="m1256.70996094 668.2199707c-.36999512-.08795166-.65991211-.10998535-.98999023-.10998535-1.48999023 0-2.60998535.74798584-3.0300293 1.89202881l-.10998535-1.65002441h-1.42993164v10.64801025h1.52001953v-6.07202148c0-2.02398682 1.25-3.34399414 3.20996094-3.34399414h.82995605v-1.36401367z"/><path d="m1263.93005371 676.00799561c0 1.97998047 1.5 3.25598145 3.88989258 3.25598145 2.42004395 0 4.05004883-1.25396729 4.05004883-3.16796875 0-1.53997803-.82995605-2.39801025-2.68005371-2.85998535l-1.82995605-.46203613c-1.16003418-.28601074-1.73999023-.85797119-1.73999023-1.67199707 0-1.14398193.83996582-1.78198242 2.33996582-1.78198242 1.43005371 0 2.2800293.72601318 2.33007813 1.95800781h1.4699707c-.06005859-1.9800415-1.52001953-3.21203613-3.76000977-3.21203613-2.29003906 0-3.84997559 1.18804932-3.84997559 3.05804443 0 1.45196533.90002441 2.41998291 2.75 2.88195801l1.82995605.46203613c1.25.3079834 1.69006348.81396484 1.69006348 1.69396973 0 1.14404297-.97009277 1.84802246-2.61999512 1.84802246-1.48999023 0-2.42004395-.77001953-2.42004395-2.00201416h-1.44995117z"/><path d="m1282.92004395 679v-9.37200928h2.13000488v-1.27600098h-2.13000488v-3.3659668h-1.5v3.3659668h-2.13000488v1.27600098h2.13000488v9.37200928z"/><path d="m1300.60998535 668.35198975v5.6539917c0 2.5300293-1.20996094 3.89404297-3.26000977 3.89404297-1.68994141 0-2.80993652-.90203857-2.80993652-3.43200684v-6.13800049h-1.54003906v6.62200928c0 2.59594727 1.35998535 4.31195068 3.86999512 4.31195068 1.67004395 0 3.14001465-.83599854 3.73999023-2.06799316l.20007324 1.80401611h1.31994629v-10.64801025z"/><path d="m1314.35998535 679h1.52001953l4.42004395-10.64801025h-1.56005859l-2.80004883 6.86401367c-.29992676.77001953-.58996582 1.47399902-.78991699 2.20001221-.20007324-.70404053-.47998047-1.42999268-.77001953-2.20001221l-2.75-6.86401367h-1.63000488l4.35998535 10.64801025z"/><path d="m1330.43005371 679h1.51989746l2.20007324-6.68798828c.28991699-.88000488.45996094-1.51800537.61999512-2.09002686.13000488.63800049.30993652 1.29803467.56994629 2.09002686l2.20007324 6.68798828h1.4699707l3.60998535-10.64801025h-1.57995605l-2.10998535 6.42401123c-.38000488 1.14398193-.42004395 1.40802002-.64001465 2.2880249-.20007324-.79205322-.46008301-1.71600342-.66003418-2.2880249l-2.08996582-6.42401123h-1.56005859l-2.11999512 6.42401123c-.10998535.35198975-.45996094 1.42999268-.63000488 2.2880249-.2199707-.85803223-.41992188-1.58404541-.66003418-2.2880249l-2.08996582-6.42401123h-1.56994629z"/><path d="m1351.04003906 679 2.9699707-4.26800537 2.98999023 4.26800537h1.80004883l-3.76000977-5.30200195 3.78991699-5.3460083h-1.76000977l-3 4.26800537-3.0098877-4.26800537h-1.7800293l3.7800293 5.32403564-3.80004883 5.32397461h1.7800293z"/><path d="m1365.66003418 683.64202881c.47998047.10998535.95996094.1539917 1.59997559.1539917 1.52001953 0 2.55004883-.68200684 3.17004395-2.35400391l4.88000488-13.09002686h-1.56005859l-3.35998535 9.28399658-3.44006348-9.28399658h-1.59997559l4.31005859 11.28601074-.46008301 1.25402832c-.52990723 1.42999268-1.44995117 1.49597168-2.38000488 1.49597168h-1.15991211v1.25402832z"/><path d="m1390.48999023 679v-1.27600098h-6.17993164l6.17993164-8.14001465v-1.23199463h-8.0300293v1.27600098h6.16003418l-6.16003418 8.1619873v1.21002197h8.0300293z"/><path d="m961.20697021 707.12402344c0 4.90600586 2.35400391 8.1619873 6.31402588 8.1619873 3.93798828 0 6.29199219-3.25598145 6.29199219-8.1619873 0-4.8840332-2.39801025-8.184021-6.29199219-8.184021-3.91601563 0-6.31402588 3.29998779-6.31402588 8.184021zm1.56201172 0c0-4.11401367 1.73803711-6.73199463 4.75201416-6.73199463s4.75201416 2.61798096 4.75201416 6.73199463c0 4.09197998-1.73803711 6.73199463-4.75201416 6.73199463s-4.75201416-2.64001465-4.75201416-6.73199463z"/><path d="m985.09802246 700.67797852v14.32202148h1.51800537v-15.75201416h-4.7300415v1.42999268z"/><path d="m1005.94000244 715v-1.47399902h-7.94299316l3.67297363-3.2119751c3.15002441-2.75 4.17999268-4.26800537 4.17999268-6.55603027 0-2.88201904-1.97998047-4.79602051-4.94995117-4.79602051-3.10101318 0-5.19104004 2.17803955-5.27905273 5.47802734h1.58404541c.065979-2.4420166 1.49597168-4.02600098 3.67498779-4.02600098 2.08996582 0 3.36999512 1.29797363 3.36999512 3.43200684 0 1.86999512-.75 2.9699707-3.65997314 5.5l-5.03503418 4.39996338v1.25402832h10.38500977z"/><path d="m1018.59002686 706.55200195c2.80999756 0 4.34997559 1.34197998 4.34997559 3.49798584 0 2.2880249-1.52001953 3.78399658-3.86999512 3.78399658-2.22003174 0-3.63000488-1.36401367-3.63000488-3.63000488h-1.55999756c0 3.14599609 2.08996582 5.05999756 5.19000244 5.05999756 3.19000244 0 5.4800415-2.04595947 5.4800415-5.16998291 0-2.85998535-2.11004639-4.72998047-5.06005859-4.88397217l4.70996094-4.68603516v-1.27600098h-9.54992676v1.40802002h7.53997803l-4.85998535 4.79602051v1.09997559h1.26000977z"/><path d="m1044.17004395 711.65600586v-1.40802002h-1.85009766v-11h-2.10998535l-7.69995117 11v1.40802002h8.27001953v3.34399414h1.53991699v-3.34399414zm-9.95007324-1.40802002 6.56005859-9.37200928v9.37200928z"/><path d="m1057.90002441 715.26397705c3.29992676 0 5.53991699-2.24395752 5.53991699-5.4119873 0-2.94799805-2.01989746-5.30200195-5.29992676-5.30200195-1.22998047 0-2.36999512.39599609-3.25 1.10003662l1.17993164-4.95001221h6.47009277v-1.45202637h-7.60998535l-1.89001465 7.92004395 1.25.39599609c.85998535-.94604492 2.17993164-1.60601807 3.63000488-1.60601807 2.48999023 0 3.91992188 1.73797607 3.91992188 3.93798828 0 2.33203125-1.53991699 3.91601563-3.91992188 3.91601563-2.23999023 0-3.63000488-1.36401367-3.63000488-3.63000488h-1.58007813c0 3.10198975 2.02001953 5.08197021 5.19006348 5.08197021z"/><path d="m1073.43994141 704.54998779c-1.4699707 2.02398682-1.97998047 3.29998779-1.97998047 5.1260376 0 3.14599609 2.48999023 5.58795166 5.65002441 5.58795166 3.15002441 0 5.58996582-2.35400391 5.58996582-5.58795166 0-3.08001709-2.17993164-5.47802734-5.44995117-5.47802734-.72998047 0-1.41003418.1539917-2.16003418.52801514l4.14001465-5.47802734h-1.84997559l-3.94006348 5.30200195zm-.36999512 5.14801025c0-2.39801025 1.65002441-4.11401367 4.04003906-4.11401367 2.33996582 0 4.01000977 1.71600342 4.01000977 4.11401367s-1.67004395 4.13598633-4.01000977 4.13598633c-2.39001465 0-4.04003906-1.73797607-4.04003906-4.13598633z"/><path d="m1090 699.24798584v1.45202637h9.10998535l-6.2199707 14.29998779h1.61999512l6.20996094-14.29998779v-1.45202637h-10.7199707z"/><path d="m1108.10998535 710.71002197c0 2.70599365 2.27001953 4.55395508 5.60998535 4.55395508 3.34997559 0 5.60998535-1.84796143 5.60998535-4.53198242 0-1.97998047-1.20996094-3.56396484-3.02990723-4.13598633 1.55993652-.59399414 2.43994141-1.89202881 2.43994141-3.54199219 0-2.4420166-2-4.09204102-4.98999023-4.09204102-3.02001953 0-5.08996582 1.65002441-5.08996582 4.07000732 0 1.62799072.90991211 2.92602539 2.48999023 3.56402588-1.86999512.63800049-3.04003906 2.17797852-3.04003906 4.11401367zm2.05004883-7.6340332c0-1.64996338 1.40991211-2.70599365 3.55993652-2.70599365 2.14001465 0 3.52001953 1.05603027 3.52001953 2.75 0 1.73797607-1.38000488 2.85998535-3.52001953 2.85998535-2.15002441 0-3.55993652-1.16595459-3.55993652-2.9039917zm-.47998047 7.50201416c0-1.93597412 1.57995605-3.19000244 4.01989746-3.19000244 2.48999023 0 4.07006836 1.25402832 4.07006836 3.19000244 0 1.95800781-1.63000488 3.25598145-4.02001953 3.25598145-2.44995117 0-4.06994629-1.29797363-4.06994629-3.25598145z"/><path d="m1136.83996582 709.67602539c1.5-2.00201416 1.97998047-3.27801514 1.97998047-5.10400391 0-3.16802979-2.48999023-5.61004639-5.64990234-5.61004639-3.15002441 0-5.59008789 2.3760376-5.59008789 5.5880127 0 3.08001709 2.18005371 5.47802734 5.45007324 5.47802734.75 0 1.42993164-.13201904 2.15991211-.52801514l-4.13989258 5.5h1.84997559l3.93994141-5.32397461zm.40002441-5.1260376c0 2.3760376-1.67993164 4.09204102-4.06994629 4.09204102-2.34008789 0-4.01000977-1.71600342-4.01000977-4.09204102 0-2.39801025 1.66992188-4.13598633 4.01000977-4.13598633 2.39001465 0 4.06994629 1.73797607 4.06994629 4.13598633z"/><path d="m1151.55004883 710.15997314c0 1.78204346 1.29992676 2.88201904 3.38989258 2.88201904 1.67004395 0 3.04003906-.74798584 3.65002441-2.00201416.14001465 1.32000732 1.04003906 2.00201416 2.56005859 2.00201416 2.2199707 0 3.79992676-2.22198486 3.79992676-5.32397461 0-5.10400391-3.77990723-8.75604248-9.03991699-8.75604248-5.13000488 0-9.06005859 3.93804932-9.06005859 9.06402588 0 5.1920166 3.91003418 9.13000488 9.06005859 9.13000488 2.10998535 0 4.02990723-.68200684 5.60998535-1.93603516l-.61999512-.90197754c-1.40002441 1.14398193-3.14001465 1.73803711-4.98999023 1.73803711-4.47009277 0-7.88000488-3.47601318-7.88000488-8.0300293 0-4.48797607 3.43994141-7.96398926 7.88000488-7.96398926 4.57995605 0 7.84997559 3.19000244 7.84997559 7.65600586 0 2.55200195-1.01000977 4.28997803-2.5 4.28997803-.91003418 0-1.36999512-.4619751-1.36999512-1.32000732v-4.20196533c0-2.3760376-1.4699707-3.71801758-3.95996094-3.71801758-2.44006348 0-4.05004883 1.29797363-4.05004883 3.23400879h1.31994629c0-1.29803467.98999023-2.06799316 2.67004395-2.06799316 1.76000977 0 2.60998535.83599854 2.60998535 2.52996826v.33001709l-3.22998047.24200439c-2.34997559.19799805-3.69995117 1.38598633-3.69995117 3.1239624zm1.40991211-.02197266c0-1.21002197.90002441-1.89202881 2.61999512-2.04602051l2.90002441-.2199707v.48400879c0 2.20001221-1.22998047 3.5199585-3.22998047 3.5199585-1.4699707 0-2.29003906-.6159668-2.29003906-1.73797607z"/><path d="m1177.56994629 717.17797852h1.17004395v-1.93597412c2.88000488-.22003174 4.70996094-1.91400146 4.70996094-4.44403076 0-2.11199951-1.26000977-3.49798584-3.73999023-4.11395264l-.9699707-.24200439v-6.04998779c1.69006348.17596436 2.69995117 1.14398193 2.85998535 2.79394531h1.58007813c-.22009277-2.48596191-1.89001465-4.02600098-4.44006348-4.20196533v-1.91400146h-1.17004395v1.91400146c-2.78991699.2199707-4.61999512 1.91400146-4.61999512 4.35601807 0 2.15594482 1.30004883 3.54199219 3.76000977 4.13598633l.85998535.2199707v6.11602783c-1.88989258-.1539917-3.09997559-1.18798828-3.18994141-2.72802734h-1.63000488c.18005371 2.42004395 2.05004883 4.00402832 4.81994629 4.15802002v1.93597412zm-.56994629-11.1539917c-1.67004395-.41796875-2.48999023-1.32000732-2.48999023-2.70599365 0-1.60601807 1.18994141-2.70599365 3.05993652-2.9039917v5.74200439zm2.38000488 2.11199951c1.68994141.39599609 2.5 1.32000732 2.5 2.75 0 1.62799072-1.20996094 2.72802734-3.14001465 2.92602539v-5.83001709z"/><path d="m1191.80004883 708.92797852-.2800293 1.42999268h2.30993652l-.92993164 4.64202881h1.52001953l.89990234-4.64202881h3.86999512l-.91992188 4.64202881h1.52001953l.91992188-4.64202881h2.44006348l.27001953-1.42999268h-2.44006348l.7199707-3.60797119h2.31005859l.29003906-1.42999268h-2.33007813l.92004395-4.64202881h-1.52001953l-.92004395 4.64202881h-3.84997559l.90002441-4.64202881h-1.5l-.92004395 4.64202881h-2.67993164l-.27001953 1.42999268h2.68994141l-.72998047 3.60797119h-2.28991699zm3.80993652 0 .70007324-3.60797119h3.86999512l-.72009277 3.60797119z"/><path d="m1220.20996094 702.85601807c0-2.26599121-1.60998535-3.91601563-3.84997559-3.91601563-2.25 0-3.88000488 1.65002441-3.88000488 3.91601563s1.63000488 3.89398193 3.88000488 3.89398193c2.23999023 0 3.84997559-1.62799072 3.84997559-3.89398193zm7.97998047-3.60803223h-1.59997559l-11.94995117 15.75201416h1.57995605l11.9699707-15.75201416zm-9.29992676 3.60803223c0 1.53997803-1.06005859 2.63995361-2.5300293 2.63995361-1.5 0-2.55993652-1.09997559-2.55993652-2.63995361 0-1.56201172 1.03991699-2.64001465 2.55993652-2.64001465 1.48999023 0 2.5300293 1.07800293 2.5300293 2.64001465zm11.47998047 8.53601074c0-2.26605225-1.60998535-3.91601563-3.84997559-3.91601563s-3.86999512 1.64996338-3.86999512 3.91601563c0 2.26599121 1.63000488 3.89398193 3.86999512 3.89398193s3.84997559-1.62799072 3.84997559-3.89398193zm-1.31994629 0c0 1.53997803-1.06005859 2.61798096-2.5300293 2.61798096-1.5 0-2.55004883-1.07800293-2.55004883-2.61798096 0-1.56201172 1.0300293-2.64001465 2.55004883-2.64001465 1.5 0 2.5300293 1.07800293 2.5300293 2.64001465z"/><path d="m1249.7800293 715h1.79992676l-2.34997559-2.70599365c.77001953-1.21002197 1.19006348-2.72802734 1.19006348-4.48797607h-1.48010254c0 1.31994629-.23999023 2.46398926-.67993164 3.38793945l-4.29003906-4.94995117c2.09008789-1.40802002 2.91003418-2.61804199 2.91003418-4.17999268 0-1.84802246-1.39001465-3.08001709-3.41003418-3.08001709-2.14001465 0-3.56994629 1.32000732-3.56994629 3.2119751 0 1.16601563.56994629 2.11199951 2 3.78399658-2.83007813 1.54003906-4.02001953 3.01403809-4.02001953 5.01599121 0 2.5960083 2.15002441 4.29003906 5.47998047 4.29003906 2.06005859 0 3.7800293-.68200684 5.01000977-1.91400146l1.41003418 1.62799072zm-6.61999512-9.70202637c-1.43005371-1.64996338-1.7800293-2.30999756-1.7800293-3.10198975 0-1.18798828.79003906-1.93597412 2.05993652-1.93597412 1.2401123 0 1.98010254.70397949 1.98010254 1.84796143 0 1.23205566-.70007324 2.24401855-2.23999023 3.21203613zm-3.72009277 5.61004639c0-1.60601807.88000488-2.70599365 3.26000977-4.02600098l4.79003906 5.47796631c-.93994141 1.05603027-2.30993652 1.60601807-4.05004883 1.60601807-2.5 0-4-1.14398193-4-3.0579834z"/><path d="m1259.10998535 702.48199463c.63000488.24200439 1.18005371.37402344 1.83996582.4619751-.38989258.37402344-.78991699.77001953-1.25 1.45202637l-.80993652 1.18798828.84997559.59399414.85998535-1.16595459c.48999023-.68200684.72998047-1.16601563.88000488-1.67199707.20007324.48394775.45996094 1.01196289.93005371 1.67199707l.82995605 1.16595459.85998535-.59399414-.80993652-1.18798828c-.48999023-.68200684-.80004883-1.05596924-1.23999023-1.45202637.51000977-.065979 1.09997559-.19799805 1.84997559-.4619751l1.41003418-.48400879-.42004395-.98999023-1.33996582.48400879c-.77001953.26397705-1.23010254.52801514-1.72009277.81402588.10998535-.52801514.20007324-1.10003662.20007324-1.89202881v-1.47399902h-1.0300293v1.47399902c0 .79199219.06005859 1.34197998.19995117 1.89202881-.48999023-.30804443-.9699707-.55004883-1.76000977-.81402588l-1.34997559-.4619751-.36999512.96795654 1.39001465.48400879z"/><path d="m1273.81994629 706.9039917v1.36401367h4.82006836v4.83996582h1.35998535v-4.83996582h4.81994629v-1.36401367h-4.81994629v-4.81799316h-1.35998535v4.81799316z"/><path d="m1294.43994141 705.53997803v1.36401367h11v-1.36401367zm0 4.53204346v1.36395264h11v-1.36395264z"/><path d="m1314.80004883 715 6.18994141-15.75201416h-1.54003906l-6.13989258 15.75201416z"/><path d="m1328.59997559 699.24798584h-1.52001953l6.16003418 15.75201416h1.52001953z"/><path d="m1353.60998535 712.82202148-9.30993652-3.21203613 9.30993652-3.19000244v-1.51800537l-11 3.93804932v1.53997803l11 3.93798828v-1.49597168z"/><path d="m1374.23999023 710.38000488v-1.53997803l-11-3.93804932v1.51800537l9.30004883 3.19000244-9.30004883 3.21203613v1.49597168l11-3.93798828z"/><path d="m1387.68994141 718.45397949c-1.73999023-2.41998291-2.87988281-6.18200684-2.87988281-10.05395508 0-3.96002197 1.17993164-7.65600586 2.87988281-10.03204346h-1.38989258c-1.89001465 2.61804199-3.06005859 6.40203857-3.06005859 10.03204346 0 3.78399658 1.20996094 7.52398682 3.06005859 10.05395508z"/><path d="m1395.17004395 718.45397949c1.84997559-2.52996826 3.05993652-6.2699585 3.05993652-10.05395508 0-3.63000488-1.14001465-7.41400146-3.05993652-10.03204346h-1.38000488c1.68994141 2.3760376 2.89990234 6.07202148 2.89990234 10.03204346 0 3.87194824-1.15991211 7.63397217-2.89990234 10.05395508z"/><path d="m1408.01000977 715.065979v-15.97198486h2.9699707v-1.23199463h-4.35998535v18.43597412h4.35998535v-1.23199463z"/><path d="m1417.29003906 716.29797363h4.35998535v-18.43597412h-4.35998535v1.23199463h2.9699707v15.97198486h-2.9699707z"/><path d="m1429.88000488 707.71801758c1.47998047 0 1.92004395.65997314 1.92004395 1.53997803v4.97198486c0 1.23199463.80993652 2.06799316 2.17993164 2.06799316h1.22998047v-1.23199463h-1.09997559c-.56994629 0-.92993164-.39599609-.92993164-.96795654v-4.92803955c0-1.07800293-.39001465-1.76000977-1.43005371-2.11199951 1.04003906-.3079834 1.43005371-.98999023 1.43005371-2.06799316v-4.92797852c0-.57202148.35998535-.96801758.92993164-.96801758h1.09997559v-1.23199463h-1.22998047c-1.36999512 0-2.17993164.83599854-2.17993164 2.06799316v4.97198486c0 .88000488-.44006348 1.51800537-1.92004395 1.51800537v1.29803467z"/><path d="m1442.76000977 716.29797363c1.33996582 0 2.17993164-.83599854 2.17993164-2.06799316v-4.97198486c0-.88000488.44006348-1.53997803 1.91003418-1.53997803v-1.29803467c-1.4699707 0-1.91003418-.63800049-1.91003418-1.51800537v-4.97198486c0-1.23199463-.83996582-2.06799316-2.17993164-2.06799316h-1.22998047v1.23199463h1.07995605c.58996582 0 .94006348.39599609.94006348.96801758v4.92797852c0 1.07800293.38000488 1.76000977 1.40991211 2.06799316-1.02990723.35198975-1.40991211 1.03399658-1.40991211 2.11199951v4.92803955c0 .57196045-.35009766.96795654-.94006348.96795654h-1.07995605v1.23199463h1.22998047z"/></g><path d="m980.97900391 359h6.34802246l17.66296387-55.93600464 17.66003418 55.93600464h6.26000977l19.77990723-65.87200928h-6.7199707l-13.60998535 45.35601807c-.73999023 2.48397827-1.56994629 5.70397949-2.57995605 10.76397705-1.01000977-4.23199463-1.93005371-7.54397583-2.94000244-10.85598755l-14.35003662-45.26400757h-6.89996338l-14.3550415 45.26400757c-1.01196289 3.22000122-1.93200684 6.07199097-3.03601074 10.85598755-.82800293-4.32397461-1.65594482-7.63598633-2.57598877-10.85598755l-13.33996582-45.26400757h-6.90002441l19.5960083 65.87200928z" fill="#fff"/><path d="m1068.36999512 360.10400391c10.47998047 0 17.38000488-5.05999756 19.7800293-14.44400024h-6.08007813c-1.64990234 5.88800049-6.33996582 9.01599121-13.60998535 9.01599121-9.56994629 0-15.27001953-6.25598145-15.72998047-17.11199951h35.42004395v-3.12799072c0-12.60400391-8.19006348-21.16000366-20.23999023-21.16000366-12.70007324 0-21.34997559 9.56799316-21.34997559 23.45999146 0 13.98400879 8.73999023 23.36801147 21.80993652 23.36801147zm-.45996094-41.3999939c8.36999512 0 13.89001465 5.70397949 13.89001465 14.25997925h-28.89001465c1.09997559-8.73999023 6.61999512-14.25997925 15-14.25997925z" fill="#fff"/><path d="m1101.9699707 359 .65002441-9.10800171c3.13000488 6.8999939 9.29003906 10.21200562 16.73999023 10.21200562 12.9699707 0 20.70007324-9.93600464 20.70007324-23.27600098 0-13.43200684-7.54003906-23.55200195-20.51000977-23.55200195-7.55004883 0-13.61999512 3.31201172-16.75 9.84399414v-31.18798828h-6.35009766v67.06799316h5.52001953zm.92004395-22.35598755c0-10.21200562 5.70996094-17.66400146 15.45996094-17.66400146 9.66003418 0 15.27001953 7.45199585 15.27001953 17.66400146 0 10.3039856-5.60998535 17.66400146-15.27001953 17.66400146-9.75 0-15.45996094-7.36001587-15.45996094-17.66400146z" fill="#fff"/><path d="m1188.67004395 323.67199707c11.76989746 0 18.20996094 5.61199951 18.20996094 14.62799072 0 9.56802368-6.33996582 15.82400513-16.19006348 15.82400513-9.28991699 0-15.17993164-5.70397949-15.17993164-15.17999268h-6.5300293c0 13.15600586 8.73999023 21.16000366 21.70996094 21.16000366 13.34008789 0 22.91003418-8.55599976 22.91003418-21.61999512 0-11.96002197-8.82995605-19.77999878-21.16003418-20.42401123l19.69006348-19.5960083v-5.33599854h-39.93005371v5.88800049h31.56005859l-20.33996582 20.05599976v4.6000061h5.25z" fill="#fff"/><path d="m1225.65002441 360.01199341c3.13000488 0 5.78991699-2.57598877 5.78991699-5.61199951 0-3.12799072-2.65991211-5.79598999-5.78991699-5.79598999s-5.80004883 2.66799927-5.80004883 5.79598999c0 3.03601074 2.67004395 5.61199951 5.80004883 5.61199951z" fill="#fff"/><path d="m1236.67004395 326.06399536c0 20.51599121 9.84997559 34.13201904 26.40991211 34.13201904 16.46008301 0 26.31005859-13.61602783 26.31005859-34.13201904 0-20.42398071-10.0300293-34.22399902-26.31005859-34.22399902-16.38000488 0-26.40991211 13.80001831-26.40991211 34.22399902zm6.52990723 0c0-17.20401001 7.27001953-28.15200806 19.88000488-28.15200806 12.60009766 0 19.86999512 10.94799805 19.86999512 28.15200806 0 17.11199951-7.26989746 28.15200806-19.86999512 28.15200806-12.60998535 0-19.88000488-11.04000854-19.88000488-28.15200806z" fill="#fff"/><path d="m1306.19995117 355.87200928c0-4.6000061-2.84997559-7.26800537-6.16992188-7.26800537-3.2199707 0-5.42004395 2.29998779-5.42004395 5.51998901 0 3.12802124 2.20007324 4.96801758 4.7800293 4.96801758 1.09997559 0 1.83996582-.27600098 2.39001465-.64401245 0 2.57598877-2.39001465 4.96798706-5.70007324 5.51998901v3.40402222c5.70007324-.82800293 10.11999512-5.79602051 10.11999512-11.5z" fill="#fff"/><path d="m1337.76000977 336.82800293c0 13.98400879 8.55993652 23.27600098 21.16003418 23.27600098 10.11999512 0 18.02990723-5.98001099 20.14990234-15.0880127h-6.43994141c-1.75 5.70401001-7.08996582 9.38400269-13.70996094 9.38400269-9.02001953 0-14.90002441-7.08398438-14.90002441-17.66400146 0-10.94799805 6.33996582-17.84799194 15.35998535-17.84799194 6.16003418 0 11.5 3.4039917 13.16003418 9.56799316h6.33996582c-1.73999023-9.19998169-9.29003906-15.17999268-19.58996582-15.17999268-12.97009277 0-21.5300293 9.56799316-21.5300293 23.55200195z" fill="#fff"/><path d="m1410.11999512 313.92001343c-1.55993652-.36801147-2.76000977-.46002197-4.14001465-.46002197-6.26000977 0-10.94995117 3.12802124-12.69995117 7.91201782l-.46008301-6.90002441h-5.97998047v44.52801514h6.34997559v-25.39199829c0-8.46398926 5.25-13.98400879 13.43005371-13.98400879h3.5v-5.70397949z" fill="#fff"/><path d="m1413.56005859 378.4119873c2.01989746.46002197 4.04992676.64401245 6.70996094.64401245 6.34997559 0 10.67993164-2.85198975 13.25-9.84399414l20.42993164-54.74002075h-6.53991699l-14.07006836 38.82400513-14.34997559-38.82400513h-6.7199707l18.0300293 47.1960144-1.93005371 5.24398804c-2.20996094 5.98001099-6.06994629 6.25601196-9.93994141 6.25601196h-4.86999512z" fill="#fff"/><path d="m1459.5300293 378.4119873h6.34997559v-27.96798706c3.13000488 6.44000244 9.10998535 9.66000366 16.65002441 9.66000366 13.15991211 0 20.60998535-10.11999512 20.60998535-23.55200195s-7.72998047-23.27600098-20.60998535-23.27600098c-7.45007324 0-13.71008301 3.31201172-16.83007813 10.21200562l-.64990234-9.01602173h-5.52001953zm6.43994141-41.67599487c0-10.3039856 5.71008301-17.66400146 15.46008301-17.66400146 9.65991211 0 15.26989746 7.36001587 15.26989746 17.66400146 0 10.21200562-5.60998535 17.66400146-15.26989746 17.66400146-9.75 0-15.46008301-7.45199585-15.46008301-17.66400146z" fill="#fff"/><path d="m1521.18005371 359v-39.19198608h8.91992188v-5.33602905h-8.91992188v-14.07598877h-6.26000977v14.07598877h-8.92004395v5.33602905h8.92004395v39.19198608z" fill="#fff"/><path d="m1532.94995117 336.73599243c0 13.52401733 9.57006836 23.36801147 22.64001465 23.36801147 13.06005859 0 22.63000488-9.84399414 22.63000488-23.36801147 0-13.61599731-9.56994629-23.45999146-22.63000488-23.45999146-13.06994629 0-22.64001465 9.84399414-22.64001465 23.45999146zm6.44006348-.09197998c0-10.30401611 6.63000488-17.66400146 16.19995117-17.66400146 9.47009277 0 16.19006348 7.35998535 16.19006348 17.66400146 0 10.48797607-6.7199707 17.75598145-16.19006348 17.75598145-9.56994629 0-16.19995117-7.26800537-16.19995117-17.75598145z" fill="#fff"/><path d="m1594.9699707 355.87200928c0-4.6000061-2.84997559-7.26800537-6.15991211-7.26800537-3.22009277 0-5.43005371 2.29998779-5.43005371 5.51998901 0 3.12802124 2.20996094 4.96801758 4.7800293 4.96801758 1.10998535 0 1.83996582-.27600098 2.39001465-.64401245 0 2.57598877-2.39001465 4.96798706-5.70007324 5.51998901v3.40402222c5.70007324-.82800293 10.11999512-5.79602051 10.11999512-11.5z" fill="#fff"/><path d="m979.41497803 458.10400391c7.54400635 0 13.61602783-3.31201172 16.3760376-8.92401123l.82800293 7.82000732h5.33099365v-28.79598999c0-11.77600098-7.53900146-16.92800903-17.84301758-16.92800903-10.94799805 0-18.3079834 5.79598999-18.3079834 14.81201172h5.79595947c0-5.98001099 4.60003662-9.47601318 12.32800293-9.47601318 6.53204346 0 11.77600098 2.76000977 11.77600098 11.5v1.47201538l-14.7199707 1.19598389c-10.39599609.82800293-16.65197754 5.98001099-16.65197754 14.16799927 0 7.82000732 5.61199951 13.15600586 15.08795166 13.15600586zm1.4720459-5.15200806c-6.07202148 0-10.11999512-2.76000977-10.11999512-8.18798828 0-4.96801758 3.4039917-8.64801025 11.77600098-9.38400269l13.15594482-1.01199341v2.39199829c0 9.66000366-5.42797852 16.19198608-14.81195068 16.19198608z" fill="#fff"/><path d="m1019.20001221 457v-23.27600098c0-10.02798462 5.14996338-16.65200806 14.25994873-16.65200806 7.35998535 0 12.05004883 3.68002319 12.05004883 14.07601929v25.85198975h6.34997559v-27.23199463c0-11.22399902-5.05993652-18.49200439-17.29003906-18.49200439-6.43994141 0-12.32995605 3.22000122-15.27996826 8.92401123l-.91998291-7.72802734h-5.52001953v44.52801514h6.35003662z" fill="#fff"/><path d="m1080.15002441 458.10400391c7.45996094 0 13.70996094-3.31201172 16.83996582-10.21200562l.64001465 9.10800171h5.52001953v-67.06799316h-6.33996582v31.0039978c-3.13000488-6.44000244-9.02001953-9.66000366-16.38000488-9.66000366-13.25 0-20.88000488 10.11999512-20.88000488 23.55200195 0 13.33999634 7.63000488 23.27600098 20.59997559 23.27600098zm1.10998535-5.79598999c-9.66003418 0-15.27001953-7.36001587-15.27001953-17.66400146 0-10.21200562 5.60998535-17.66400146 15.27001953-17.66400146 9.75 0 15.44995117 7.45199585 15.44995117 17.66400146 0 10.3039856-5.69995117 17.66400146-15.44995117 17.66400146z" fill="#fff"/><path d="m1143.76000977 457 .64001465-9.10800171c3.13000488 6.8999939 9.28991699 10.21200562 16.73999023 10.21200562 12.97998047 0 20.69995117-9.93600464 20.69995117-23.27600098 0-13.43200684-7.53991699-23.55200195-20.51000977-23.55200195-7.54992676 0-13.61999512 3.31201172-16.75 9.84399414v-31.18798828h-6.33996582v67.06799316h5.52001953zm.92004395-22.35598755c0-10.21200562 5.69995117-17.66400146 15.44995117-17.66400146 9.66003418 0 15.27001953 7.45199585 15.27001953 17.66400146 0 10.3039856-5.60998535 17.66400146-15.27001953 17.66400146-9.75 0-15.44995117-7.36001587-15.44995117-17.66400146z" fill="#fff"/><path d="m1196.75 457v-67.06799316h-6.34997559v67.06799316z" fill="#fff"/><path d="m1205.2800293 434.73599243c0 13.52401733 9.56994629 23.36801147 22.63000488 23.36801147 13.06994629 0 22.63000488-9.84399414 22.63000488-23.36801147 0-13.61599731-9.56005859-23.45999146-22.63000488-23.45999146-13.06005859 0-22.63000488 9.84399414-22.63000488 23.45999146zm6.43994141-.09197998c0-10.30401611 6.61999512-17.66400146 16.19006348-17.66400146 9.47998047 0 16.18994141 7.35998535 16.18994141 17.66400146 0 10.48797607-6.70996094 17.75598145-16.18994141 17.75598145-9.57006836 0-16.19006348-7.26800537-16.19006348-17.75598145z" fill="#fff"/><path d="m1255.72998047 434.82800293c0 13.98400879 8.55004883 23.27600098 21.16003418 23.27600098 10.11999512 0 18.0300293-5.98001099 20.15002441-15.0880127h-6.44006348c-1.75 5.70401001-7.08996582 9.38400269-13.70996094 9.38400269-9.02001953 0-14.91003418-7.08398438-14.91003418-17.66400146 0-10.94799805 6.34997559-17.84799194 15.36999512-17.84799194 6.16003418 0 11.5 3.4039917 13.15002441 9.56799316h6.34997559c-1.75-9.19998169-9.28991699-15.17999268-19.58996582-15.17999268-12.97998047 0-21.5300293 9.56799316-21.5300293 23.55200195z" fill="#fff"/><path d="m1311.43994141 457v-13.33999634l8.65002441-8.92401123 14.16003418 22.26400757h7.35998535l-17.19995117-26.77200317 17.10998535-17.75601196h-8l-22.08007813 23v-45.53997803h-6.34997559v67.06799316h6.34997559z" fill="#fff"/><path d="m1342.69995117 434.82800293c0 13.98400879 8.56005859 23.27600098 21.16003418 23.27600098 10.11999512 0 18.0300293-5.98001099 20.15002441-15.0880127h-6.44006348c-1.75 5.70401001-7.08996582 9.38400269-13.70996094 9.38400269-9.02001953 0-14.90002441-7.08398438-14.90002441-17.66400146 0-10.94799805 6.34008789-17.84799194 15.35998535-17.84799194 6.16003418 0 11.5 3.4039917 13.16003418 9.56799316h6.33996582c-1.73999023-9.19998169-9.28991699-15.17999268-19.58996582-15.17999268-12.9699707 0-21.5300293 9.56799316-21.5300293 23.55200195z" fill="#fff"/><path d="m1398.13000488 456.9079895v-24.19598389c0-8.55599976 4.9699707-15.64001465 14.54003906-15.64001465 6.89990234 0 11.77990723 3.68002319 11.77990723 14.07601929v25.85198975h6.34008789v-27.23199463c0-11.22399902-5.23999023-18.49200439-16.92004395-18.49200439-7.45996094 0-12.88000488 3.5880127-15.73999023 8.92401123v-30.26800537h-6.33996582v66.97598267h6.33996582z" fill="#fff"/><path d="m1454.39001465 458.10400391c7.54992676 0 13.61999512-3.31201172 16.38000488-8.92401123l.82995605 7.82000732h5.33007813v-28.79598999c0-11.77600098-7.54003906-16.92800903-17.84008789-16.92800903-10.94995117 0-18.30993652 5.79598999-18.30993652 14.81201172h5.78991699c0-5.98001099 4.60009766-9.47601318 12.33007813-9.47601318 6.5300293 0 11.7800293 2.76000977 11.7800293 11.5v1.47201538l-14.72009277 1.19598389c-10.39990234.82800293-16.64990234 5.98001099-16.64990234 14.16799927 0 7.82000732 5.60998535 13.15600586 15.07995605 13.15600586zm1.47998047-5.15200806c-6.07995605 0-10.11999512-2.76000977-10.11999512-8.18798828 0-4.96801758 3.40002441-8.64801025 11.77001953-9.38400269l13.16003418-1.01199341v2.39199829c0 9.66000366-5.43005371 16.19198608-14.81005859 16.19198608z" fill="#fff"/><path d="m1490.95996094 400.23599243c2.58007813 0 4.7800293-2.11599731 4.7800293-4.69198608 0-2.57601929-2.19995117-4.78399658-4.7800293-4.78399658-2.57995605 0-4.68994141 2.20797729-4.68994141 4.78399658 0 2.57598877 2.10998535 4.69198608 4.68994141 4.69198608zm-3.13000488 56.76400757h6.35009766v-44.52801514h-6.35009766z" fill="#fff"/><path d="m1511.93005371 457v-23.27600098c0-10.02798462 5.14990234-16.65200806 14.2598877-16.65200806 7.36010742 0 12.05004883 3.68002319 12.05004883 14.07601929v25.85198975h6.34997559v-27.23199463c0-11.22399902-5.05993652-18.49200439-17.29992676-18.49200439-6.44006348 0-12.33007813 3.22000122-15.27001953 8.92401123l-.92004395-7.72802734h-5.52001953v44.52801514h6.35009766z" fill="#fff"/><path d="m962.85900879 542.48797607c0 8.2800293 6.25598145 13.61602783 16.28399658 13.61602783 10.11999512 0 16.92797852-5.24401855 16.92797852-13.24798584 0-6.44000244-3.49597168-10.02801514-11.22399902-11.96002197l-7.63598633-1.93200684c-4.87597656-1.19598389-7.26800537-3.5880127-7.26800537-6.99200439 0-4.78399658 3.49603271-7.45196533 9.75201416-7.45196533 5.97998047 0 9.56799316 3.03601074 9.75201416 8.18798828h6.16400146c-.27600098-8.2800293-6.34802246-13.43200684-15.73199463-13.43200684-9.5680542 0-16.10003662 4.96801758-16.10003662 12.7880249 0 6.07196045 3.77203369 10.11999512 11.5 12.05200195l7.63598633 1.9319458c5.24401855 1.2880249 7.08404541 3.40405273 7.08404541 7.08404541 0 4.78399658-4.04803467 7.72796631-10.94799805 7.72796631-6.25604248 0-10.11999512-3.2199707-10.11999512-8.37200928h-6.07202148z" fill="url(#b)"/><path d="m1001.54998779 532.73602295c0 13.52398682 9.57000732 23.36798096 22.63995361 23.36798096 13.06005859 0 22.63000488-9.84399414 22.63000488-23.36798096 0-13.61602783-9.56994629-23.46002197-22.63000488-23.46002197-13.06994629 0-22.63995361 9.84399414-22.63995361 23.46002197zm6.44000244-.09204102c0-10.30395508 6.63000488-17.66400146 16.19995117-17.66400146 9.47009277 0 16.19006348 7.36004639 16.19006348 17.66400146 0 10.48803711-6.7199707 17.75604248-16.19006348 17.75604248-9.56994629 0-16.19995117-7.26800537-16.19995117-17.75604248z" fill="url(#b)"/><path d="m1061.76000977 555v-67.06799316h-6.34997559v67.06799316z" fill="url(#c)"/><path d="m1104.69995117 510.47198486v23.64404297c0 10.57995605-5.05993652 16.28399658-13.61999512 16.28399658-7.07995605 0-11.77990723-3.77203369-11.77990723-14.35205078v-25.66796875h-6.44006348v27.6920166c0 10.85595703 5.70996094 18.03198242 16.20007324 18.03198242 6.98999023 0 13.14990234-3.49603271 15.63989258-8.64801025l.82006836 7.54400635h5.52001953v-44.52801514h-6.34008789z" fill="url(#d)"/><path d="m1132.64001465 555v-39.1920166h8.92004395v-5.33599854h-8.92004395v-14.07598877h-6.26000977v14.07598877h-8.92004395v5.33599854h8.92004395v39.1920166z" fill="url(#e)"/><path d="m1151.11999512 498.23599243c2.56994629 0 4.7800293-2.11599731 4.7800293-4.69198608 0-2.57601929-2.21008301-4.78399658-4.7800293-4.78399658-2.57995605 0-4.68994141 2.20797729-4.68994141 4.78399658 0 2.57598877 2.10998535 4.69198608 4.68994141 4.69198608zm-3.13000488 56.76400757h6.34997559v-44.52801514h-6.34997559z" fill="url(#f)"/><path d="m1162.60998535 532.73602295c0 13.52398682 9.57006836 23.36798096 22.63000488 23.36798096 13.06005859 0 22.63000488-9.84399414 22.63000488-23.36798096 0-13.61602783-9.56994629-23.46002197-22.63000488-23.46002197-13.05993652 0-22.63000488 9.84399414-22.63000488 23.46002197zm6.44006348-.09204102c0-10.30395508 6.61999512-17.66400146 16.18994141-17.66400146 9.47998047 0 16.19006348 7.36004639 16.19006348 17.66400146 0 10.48803711-6.71008301 17.75604248-16.19006348 17.75604248-9.56994629 0-16.18994141-7.26800537-16.18994141-17.75604248z" fill="url(#b)"/><path d="m1222.5300293 555v-23.27600098c0-10.02801514 5.15002441-16.65197754 14.26000977-16.65197754 7.35998535 0 12.04992676 3.67999268 12.04992676 14.07598877v25.85198975h6.34997559v-27.23199463c0-11.22399902-5.05993652-18.49200439-17.28991699-18.49200439-6.44006348 0-12.33007813 3.2199707-15.2800293 8.92401123l-.92004395-7.72802734h-5.51989746v44.52801514h6.34997559z" fill="url(#g)"/><path d="m1261.68994141 542.48797607c0 8.2800293 6.26000977 13.61602783 16.29003906 13.61602783 10.11999512 0 16.93005371-5.24401855 16.93005371-13.24798584 0-6.44000244-3.5-10.02801514-11.22998047-11.96002197l-7.63000488-1.93200684c-4.88000488-1.19598389-7.27001953-3.5880127-7.27001953-6.99200439 0-4.78399658 3.48999023-7.45196533 9.75-7.45196533 5.97998047 0 9.56994629 3.03601074 9.75 8.18798828h6.16992188c-.27990723-8.2800293-6.34997559-13.43200684-15.73999023-13.43200684-9.55993652 0-16.09997559 4.96801758-16.09997559 12.7880249 0 6.07196045 3.7800293 10.11999512 11.5 12.05200195l7.64001465 1.9319458c5.23999023 1.2880249 7.07995605 3.40405273 7.07995605 7.08404541 0 4.78399658-4.03991699 7.72796631-10.93994141 7.72796631-6.26000977 0-10.11999512-3.2199707-10.11999512-8.37200928h-6.08007813z" fill="url(#b)"/><path d="m240.38299561 290.20001221h7.04000854v20.79998779h2.30400085v-20.79998779h7.07200623v-2.11199951h-16.41601563v2.11199951z" fill="#919cbd"/><path d="m256.82901001 317.75201416c.70397949.15997314 1.4079895.22399902 2.33599854.22399902 2.20797729 0 3.71200562-.99200439 4.60800171-3.42401123l7.10400391-19.04000854h-2.27200317l-4.89599609 13.5039978-4.99200439-13.5039978h-2.33599854l6.27200317 16.41601563-.67202759 1.82400513c-.76797485 2.07998657-2.11199951 2.17599487-3.45599365 2.17599487h-1.69598389v1.82400513z" fill="#919cbd"/><path d="m273.45901489 317.75201416h2.20797729v-9.72802734c1.0880127 2.24002075 3.16799927 3.36001587 5.79202271 3.36001587 4.57598877 0 7.16799927-3.51998901 7.16799927-8.1920166 0-4.67199707-2.6880188-8.09597778-7.16799927-8.09597778-2.5920105 0-4.76800537 1.15197754-5.85601807 3.55200195l-.22399902-3.13601685h-1.91998291zm2.23999023-14.4960022c0-3.58401489 1.98400879-6.14401245 5.37600708-6.14401245 3.35998535 0 5.3119812 2.55999756 5.3119812 6.14401245 0 3.55200195-1.95199585 6.14398193-5.3119812 6.14398193-3.39199829 0-5.37600708-2.59197998-5.37600708-6.14398193z" fill="#919cbd"/><path d="m298.64300537 311.38400269c3.64797974 0 6.04800415-1.76000977 6.88000488-5.02401733h-2.11199951c-.57601929 2.04800415-2.20800781 3.13601685-4.73602295 3.13601685-3.32800293 0-5.3119812-2.17599487-5.47198486-5.95199585h12.32000732v-1.0880127c0-4.38400269-2.84802246-7.35998535-7.04000854-7.35998535-4.41601563 0-7.42401123 3.32800293-7.42401123 8.16000366 0 4.86398315 3.04000854 8.12799072 7.58401489 8.12799072zm-.16000366-14.3999939c2.9119873 0 4.83200073 1.98397827 4.83200073 4.95999146h-10.04800415c.38400269-3.04000854 2.30401611-4.95999146 5.21600342-4.95999146z" fill="#919cbd"/><path d="m307.32501221 295.51199341v1.85601807h2.36798096v13.63198853h2.20800781v-13.63198853h3.64801025v-1.85601807h-3.64801025v-3.00799561c0-1.82400513.51199341-2.81600952 2.46398926-2.81600952h1.31201172v-1.88800049c-.51199341-.09597778-1.15200806-.12799072-1.6960144-.12799072-2.36798096 0-4.28799438 1.34399414-4.28799438 4.83200073v3.00799561h-2.36798096z" fill="#919cbd"/><path d="m322.43798828 311.38400269c2.62402344 0 4.73602295-1.15200806 5.6960144-3.10400391l.28799438 2.72000122h1.85601807v-10.01599121c0-4.0960083-2.62402344-5.88800049-6.20800781-5.88800049-3.80801392 0-6.36801147 2.01599121-6.36801147 5.15197754h2.01599121c0-2.07998657 1.6000061-3.29598999 4.2880249-3.29598999 2.27200317 0 4.09597778.95999146 4.09597778 4v.51199341l-5.11999512.41601563c-3.61599731.28799438-5.79199219 2.07998657-5.79199219 4.92800903 0 2.72000122 1.95199585 4.57598877 5.24798584 4.57598877zm.51202393-1.79199219c-2.11199951 0-3.52001953-.96002197-3.52001953-2.84802246 0-1.72799683 1.184021-3.00799561 4.0960083-3.26397705l4.57598877-.35202026v.83200073c0 3.36001587-1.88800049 5.63201904-5.15197754 5.63201904z" fill="#919cbd"/><path d="m333.6210022 303.28799438c0 4.86401367 2.97598267 8.0960083 7.35998535 8.0960083 3.52001953 0 6.27200317-2.08001709 7.00802612-5.24801636h-2.24002075c-.60800171 1.98400879-2.46398926 3.26400757-4.76800537 3.26400757-3.13598633 0-5.18399048-2.46398926-5.18399048-6.14398193 0-3.80801392 2.20800781-6.20800781 5.34399414-6.20800781 2.14401245 0 4 1.18399048 4.57601929 3.32800293h2.20797729c-.60800171-3.20001221-3.23199463-5.27999878-6.815979-5.27999878-4.51202393 0-7.48800659 3.32800293-7.48800659 8.19198608z" fill="#919cbd"/><path d="m357.82998657 311.38400269c3.64801025 0 6.04800415-1.76000977 6.88000488-5.02401733h-2.11199951c-.57598877 2.04800415-2.20797729 3.13601685-4.73599243 3.13601685-3.32800293 0-5.31201172-2.17599487-5.47198486-5.95199585h12.31997681v-1.0880127c0-4.38400269-2.84799194-7.35998535-7.03997803-7.35998535-4.41601563 0-7.42401123 3.32800293-7.42401123 8.16000366 0 4.86398315 3.04000854 8.12799072 7.58398438 8.12799072zm-.15997314-14.3999939c2.9119873 0 4.83200073 1.98397827 4.83200073 4.95999146h-10.04800415c.38400269-3.04000854 2.3039856-4.95999146 5.21600342-4.95999146z" fill="#919cbd"/><path d="m376.92300415 303.57598877h25.44000244v-1.95199585h-25.44000244z" fill="#919cbd"/><path d="m414.75100708 294.04000854c0 3.13598633 1.88800049 5.18399048 5.47198486 6.04800415l3.87200928.95999146c2.46398926.57598877 3.61599731 1.91998291 3.61599731 3.96798706 0 2.62402344-2.14401245 4.25601196-5.5039978 4.25601196-3.13598633 0-5.24798584-1.56799316-5.37600708-3.96801758h-2.36798096c.28799438 3.74401855 3.29598999 6.08001709 7.74398804 6.08001709 4.73599243 0 7.80801392-2.52801514 7.80801392-6.4960022 0-3.10400391-1.85601807-5.15200806-5.44000244-6.01599121l-3.93600464-.96002197c-2.3999939-.60800171-3.58401489-1.88800049-3.58401489-3.9039917 0-2.5920105 2.11199951-4.25598145 5.34399414-4.25598145 2.88000488 0 4.64001465 1.47198486 4.89602661 4.06399536h2.33599854c-.35202026-3.83999634-3.07202148-6.14401245-7.20001221-6.14401245-4.60800171 0-7.67999268 2.52801514-7.67999268 6.36801147z" fill="#919cbd"/><path d="m438.12600708 311.38400269c2.62399292 0 4.73599243-1.15200806 5.69598389-3.10400391l.28799438 2.72000122h1.85601807v-10.01599121c0-4.0960083-2.62399292-5.88800049-6.20800781-5.88800049-3.8079834 0-6.36798096 2.01599121-6.36798096 5.15197754h2.01599121c0-2.07998657 1.6000061-3.29598999 4.28799438-3.29598999 2.27200317 0 4.0960083.95999146 4.0960083 4v.51199341l-5.11999512.41601563c-3.61602783.28799438-5.79202271 2.07998657-5.79202271 4.92800903 0 2.72000122 1.95199585 4.57598877 5.24801636 4.57598877zm.51199341-1.79199219c-2.11199951 0-3.51998901-.96002197-3.51998901-2.84802246 0-1.72799683 1.18399048-3.00799561 4.09597778-3.26397705l4.57601929-.35202026v.83200073c0 3.36001587-1.88800049 5.63201904-5.15200806 5.63201904z" fill="#919cbd"/><path d="m453.66699219 311v-13.63198853h3.10400391v-1.85601807h-3.10400391v-4.89599609h-2.17599487v4.89599609h-3.10400391v1.85601807h3.10400391v13.63198853z" fill="#919cbd"/><path d="m458.40200806 303.25601196c0 4.70397949 3.32800293 8.12799072 7.87197876 8.12799072 4.54400635 0 7.87200928-3.42401123 7.87200928-8.12799072 0-4.73602295-3.32800293-8.16000366-7.87200928-8.16000366-4.54397583 0-7.87197876 3.42398071-7.87197876 8.16000366zm2.23999023-.03201294c0-3.58398438 2.30401611-6.14401245 5.63198853-6.14401245 3.29602051 0 5.63201904 2.56002808 5.63201904 6.14401245 0 3.64801025-2.33599854 6.17599487-5.63201904 6.17599487-3.32797241 0-5.63198853-2.52798462-5.63198853-6.17599487z" fill="#919cbd"/><path d="m476.36599731 306.64801025c0 2.88000488 2.17599487 4.73599243 5.66400146 4.73599243 3.51998901 0 5.88800049-1.82400513 5.88800049-4.60800171 0-2.23999023-1.21600342-3.48800659-3.9039917-4.16000366l-2.65600586-.67199707c-1.6960144-.41598511-2.52801514-1.24798584-2.52801514-2.43200684 0-1.66400146 1.21600342-2.59197998 3.39199829-2.59197998 2.08001709 0 3.32800293 1.05599976 3.39202881 2.84799194h2.14398193c-.0960083-2.88000488-2.20800781-4.67199707-5.47198486-4.67199707-3.32800293 0-5.6000061 1.72799683-5.6000061 4.44799805 0 2.11199951 1.3119812 3.51998901 4 4.19198608l2.65600586.67199707c1.82397461.44799805 2.46398926 1.184021 2.46398926 2.46401978 0 1.66400146-1.4079895 2.68798828-3.80801392 2.68798828-2.17599487 0-3.51998901-1.11999512-3.51998901-2.9119873z" fill="#919cbd"/><path d="m493.76098633 310.96798706v-8.41598511c0-2.97601318 1.72802734-5.44000244 5.05599976-5.44000244 2.40002441 0 4.0960083 1.27999878 4.0960083 4.89599609v8.99200439h2.20800781v-9.47198486c0-3.90402222-1.82400513-6.43200684-5.88800049-6.43200684-2.5920105 0-4.48001099 1.24798584-5.47201538 3.10400391v-10.52801514h-2.20797729v23.29598999h2.20797729z" fill="#919cbd"/><path d="m510.60998535 291.25601196c.89602661 0 1.66400146-.73602295 1.66400146-1.63201904s-.76797485-1.66400146-1.66400146-1.66400146c-.89599609 0-1.63198853.76800537-1.63198853 1.66400146s.73599243 1.63201904 1.63198853 1.63201904zm-1.08798218 19.74398804h2.20800781v-15.48800659h-2.20800781z" fill="#919cbd"/><g fill="#fff" opacity=".3"><path d="m244.77900696 205.27999878h3.03599548v-1.67999268h-7.75300598v1.67999268h3.03700256v6.72000122h1.68000793v-6.72000122z"/><path d="m253.29800415 212h1.67900085v-3.2519989l3.43299866-5.147995h-2.02801514l-2.24499512 3.36000061-2.24299622-3.36000061h-2.02799988l3.43200684 5.147995v3.2519989z"/><path d="m264.57299805 203.6000061h-3.28799438v8.3999939h1.67999268v-2.53199768h1.60800171c.43200684 0 .82800293-.07200623 1.18798828-.22799683.36001587-.14401245.67202759-.3480072.93600464-.61199951.25201416-.2519989.45602417-.56401062.61199951-.92401123.14401245-.34799194.21600342-.74398804.21600342-1.16400146 0-.41999817-.07199097-.81599426-.21600342-1.17599487-.15597534-.36000061-.35998535-.67199707-.61199951-.93600464-.26397705-.2519989-.57598877-.45599365-.93600464-.61199951-.35998535-.14399719-.75598145-.21598816-1.18798828-.21598816zm1.27200317 2.93998718c0 .36000061-.10800171.66000366-.32400513.88800049-.22799683.24000549-.54000854.36000061-.94799805.36000061h-1.60800171v-2.50799561h1.60800171c.4079895 0 .72000122.11999512.94799805.3480072.21600342.23999023.32400513.53999329.32400513.9119873z"/><path d="m270.27099609 207.80000305c0 .59999084.10800171 1.1519928.32400513 1.66799927.20401001.51599121.5039978.95999146.87600708 1.33200073.37197876.37199402.815979.67199707 1.33200073.87599182.51599121.21600342 1.06799316.32400513 1.66799927.32400513s1.15197754-.10800171 1.66799927-.32400513c.51599121-.20399475.95999146-.5039978 1.33200073-.87599182.37197876-.37200928.67199707-.81600952.88800049-1.33200073.20397949-.51600647.3119812-1.06800842.3119812-1.66799927 0-.6000061-.10800171-1.15200806-.3119812-1.66799927-.21600342-.51600647-.51602173-.96000671-.88800049-1.33200073-.37200928-.37200928-.81600952-.67199707-1.33200073-.88800049-.51602173-.20401001-1.06799316-.31199646-1.66799927-.31199646s-1.15200806.10798645-1.66799927.31199646c-.51602173.21600342-.96002197.51599121-1.33200073.88800049-.37200928.37199402-.67199707.81599426-.87600708 1.33200073-.21600342.51599121-.32400513 1.06799316-.32400513 1.66799927zm6.72000122 0c0 .37199402-.05999756.70799255-.17999268 1.00799561-.13201904.31199646-.30001831.57600403-.52801514.80400085s-.49200439.39599609-.79199219.51600647c-.31201172.13198853-.64801025.19200134-1.01998901.19200134-.37200928 0-.70800781-.06001282-1.00799561-.19200134-.31201172-.12001038-.57601929-.28800964-.80401611-.51600647s-.39599609-.49200439-.51599121-.80400085c-.13201904-.30000305-.1920166-.63600159-.1920166-1.00799561 0-.37200928.05999756-.70800781.1920166-1.02000427.11999512-.30000305.28799438-.56399536.51599121-.79199219.22799683-.22801208.49200439-.39601135.80401611-.52799988.29998779-.12001038.63598633-.18000793 1.00799561-.18000793.37197876 0 .70797729.05999756 1.01998901.18000793.29998779.13198853.56399536.29998779.79199219.52799988.22799683.22799683.39599609.49198914.52801514.79199219.11999512.31199646.17999268.647995.17999268 1.02000427z"/><path d="m281.88800049 209.44400024c.21600342.51600647.5039978.94799805.87600708 1.32000732.38400269.37199402.82800293.67199707 1.35598755.87599182.52801514.20399475 1.10400391.31199646 1.72799683.31199646.55200195 0 1.06799316-.09599304 1.54800415-.27600098.48001099-.17999268.91201782-.45599365 1.27200317-.81599426.36001587-.36000061.63598633-.80400085.85198975-1.33200073.20401001-.52799988.31201172-1.13999939.31201172-1.82400513v-.55200195h-4.29598999v1.68000793h2.36398315c-.04800415.24000549-.14398193.44400024-.28799438.63600159-.14401245.17999268-.29998779.33599854-.49200439.45599365-.19198608.12001038-.39599609.20401001-.62399292.26400757s-.45599365.09599304-.68399048.09599304c-.38400269 0-.73202515-.05999756-1.04400635-.19200134-.31201172-.11999512-.57601929-.28799438-.80401611-.51599121-.21600342-.21600342-.39599609-.48001099-.51599121-.79200745s-.19198608-.66000366-.19198608-1.03199768.07199097-.70799255.19198608-1.02000427c.11999512-.31199646.29998779-.57598877.51599121-.80400085.21600342-.21598816.48001099-.38398743.79202271-.51599121.3119812-.11999512.64797974-.18000793 1.00799561-.18000793.45599365 0 .88800049.08399963 1.28399658.2519989.39599609.18000793.75598145.44400024 1.07998657.81600952l.81600952-1.55999756c-.42001343-.40800476-.8999939-.70800781-1.42800903-.90000916-.52798462-.19200134-1.09197998-.28799438-1.66799927-.28799438-.63598633 0-1.21200562.09599304-1.73999023.31199646-.52801514.21600342-.97201538.5039978-1.35598755.88800049-.37200928.37199402-.66000366.81599426-.86401367 1.33200073-.20401001.5039978-.31201172 1.06799316-.31201172 1.68000793 0 .59999084.10800171 1.16398621.31201172 1.67999268z"/><path d="m294.79699707 211.98800659v-2.80801392h1.04400635l1.79998779 2.80801392h2.04000854l-1.98001099-2.98800659c.26400757-.09599304.5039978-.22799683.72000122-.39599609s.40802002-.36000061.56399536-.58799744c.15600586-.22801208.27600098-.48001099.37200928-.75601196.08401489-.27600098.11999512-.56399536.11999512-.87599182 0-.38400269-.05999756-.7559967-.20397949-1.09199524-.14401245-.33601379-.33599854-.63600159-.57601929-.88800049-.25198364-.25201416-.55200195-.44400024-.88800049-.5880127-.34799194-.14399719-.72000122-.21598816-1.11599731-.21598816h-3.57598877v8.38800049zm2.71200562-4.81201172c-.1920166.21600342-.46801758.32400513-.81600952.32400513h-1.89599609v-2.23199463h1.89599609c.34799194 0 .62399292.11999512.81600952.33599854.20401001.21600342.29998779.47999573.29998779.77999878 0 .31199646-.09597778.56399536-.29998779.79199219z"/><path d="m305.26000977 209 1.42797852-3.09599304 1.42800903 3.09599304zm3.63598633 1.67999268.61199951 1.32000732h1.84799194l-3.88800049-8.3999939h-1.55999756l-3.88800049 8.3999939h1.84802246l.61199951-1.32000732h4.41598511z"/><path d="m317.61599731 203.6000061h-3.28799438v8.3999939h1.67999268v-2.53199768h1.60800171c.43200684 0 .82800293-.07200623 1.18798828-.22799683.36001587-.14401245.67202759-.3480072.93600464-.61199951.25201416-.2519989.45602417-.56401062.61199951-.92401123.14401245-.34799194.21600342-.74398804.21600342-1.16400146 0-.41999817-.07199097-.81599426-.21600342-1.17599487-.15597534-.36000061-.35998535-.67199707-.61199951-.93600464-.26397705-.2519989-.57598877-.45599365-.93600464-.61199951-.35998535-.14399719-.75598145-.21598816-1.18798828-.21598816zm1.27200317 2.93998718c0 .36000061-.10800171.66000366-.32400513.88800049-.22799683.24000549-.54000854.36000061-.94799805.36000061h-1.60800171v-2.50799561h1.60800171c.4079895 0 .72000122.11999512.94799805.3480072.21600342.23999023.32400513.53999329.32400513.9119873z"/><path d="m330.79000854 203.6000061h-1.68002319v3.36000061h-3.68399048v-3.36000061h-1.67999268v8.3999939h1.67999268v-3.36000061h3.68399048v3.36000061h1.68002319z"/><path d="m337.08999634 212h1.67999268v-3.2519989l3.43200684-5.147995h-2.02798462l-2.24401855 3.36000061-2.24398804-3.36000061h-2.02801514l3.43200684 5.147995v3.2519989z"/></g></svg>