<svg width="1917" height="935" viewBox="0 0 1917 935" fill="none" xmlns="http://www.w3.org/2000/svg">
<g id="coventure-case-1" clip-path="url(#clip0)">
<rect width="1917" height="935" fill="white"/>
<g id="02">
<rect width="960" height="935" transform="translate(957)" fill="#E4F5B3"/>
<g id="Group 875">
<g id="favicon">
<path id="Logo" fill-rule="evenodd" clip-rule="evenodd" d="M1465.55 390.367H1383.7L1473.07 559.447H1554.92L1465.55 390.367ZM1257 474.907C1257 428.362 1295.69 390.601 1343.5 390.368C1343.64 390.367 1379.62 390.367 1383.7 390.367L1383.7 559.447H1341.67C1294.7 558.273 1257 520.857 1257 474.907ZM1505.2 390.367C1505.2 415.523 1525.34 435.917 1550.18 435.917C1575.02 435.917 1595.16 415.523 1595.16 390.367L1505.2 390.367Z" fill="white"/>
<path id="Logo_2" fill-rule="evenodd" clip-rule="evenodd" d="M1465.55 390.367H1383.7L1473.07 559.447H1554.92L1465.55 390.367ZM1257 474.907C1257 428.362 1295.69 390.601 1343.5 390.368C1343.64 390.367 1379.62 390.367 1383.7 390.367L1383.7 559.447H1341.67C1294.7 558.273 1257 520.857 1257 474.907ZM1505.2 390.367C1505.2 415.523 1525.34 435.917 1550.18 435.917C1575.02 435.917 1595.16 415.523 1595.16 390.367L1505.2 390.367Z" fill="white"/>
</g>
<ellipse id="Ellipse 118" opacity="0.3" cx="1549.97" cy="392.062" rx="45.1883" ry="44.8117" stroke="#0E3531" stroke-width="0.541731" stroke-linecap="round" stroke-dasharray="2.26 3.77"/>
<circle id="Ellipse 119" opacity="0.3" cx="1437" cy="467" r="180" stroke="#0E3531" stroke-width="0.541731" stroke-linecap="round" stroke-dasharray="2.26 3.77"/>
<ellipse id="Ellipse 118_2" opacity="0.3" cx="1340.97" cy="475.285" rx="83.9749" ry="84.3515" stroke="#0E3531" stroke-width="0.541731" stroke-linecap="round" stroke-dasharray="2.26 3.77"/>
<ellipse id="Ellipse 119_2" opacity="0.3" cx="1468.26" cy="475.285" rx="83.9749" ry="84.3515" stroke="#0E3531" stroke-width="0.541731" stroke-linecap="round" stroke-dasharray="2.26 3.77"/>
</g>
</g>
<path id="Logo_3" fill-rule="evenodd" clip-rule="evenodd" d="M507.552 390.367H425.702L515.07 559.447H596.92L507.552 390.367ZM299 474.907C299 428.362 337.686 390.601 385.499 390.368C385.639 390.367 421.617 390.367 425.702 390.367L425.702 559.447H383.669C336.702 558.273 299 520.857 299 474.907ZM547.198 390.367C547.198 415.523 567.336 435.917 592.178 435.917C617.021 435.917 637.159 415.523 637.159 390.367L547.198 390.367Z" fill="#0E3531"/>
<g id="Deliverables" opacity="0.3">
<path d="M237.924 88.6016H241.464C241.936 88.6016 242.356 88.7016 242.724 88.9016C243.092 89.1016 243.376 89.3816 243.576 89.7416C243.784 90.0936 243.888 90.4976 243.888 90.9536C243.888 91.3616 243.796 91.7296 243.612 92.0576C243.428 92.3776 243.176 92.6256 242.856 92.8016C243.176 92.9776 243.428 93.2296 243.612 93.5576C243.796 93.8776 243.888 94.2416 243.888 94.6496C243.888 95.1056 243.784 95.5136 243.576 95.8736C243.376 96.2256 243.092 96.5016 242.724 96.7016C242.356 96.9016 241.936 97.0016 241.464 97.0016H237.924V88.6016ZM241.476 92.1176C241.78 92.1176 242.028 92.0136 242.22 91.8056C242.42 91.5976 242.52 91.3336 242.52 91.0136C242.52 90.7016 242.42 90.4496 242.22 90.2576C242.028 90.0656 241.772 89.9696 241.452 89.9696H239.292V92.1176H241.476ZM241.452 95.6336C241.772 95.6336 242.028 95.5416 242.22 95.3576C242.42 95.1656 242.52 94.9096 242.52 94.5896C242.52 94.2696 242.42 94.0056 242.22 93.7976C242.028 93.5896 241.78 93.4856 241.476 93.4856H239.292V95.6336H241.452Z" fill="#373943"/>
<path d="M251.927 97.0016L249.935 93.9776H248.663V97.0016H247.295V88.6016H250.655C251.175 88.6016 251.643 88.7176 252.059 88.9496C252.475 89.1816 252.799 89.5016 253.031 89.9096C253.271 90.3176 253.391 90.7776 253.391 91.2896C253.391 91.9216 253.215 92.4696 252.863 92.9336C252.519 93.3896 252.055 93.6976 251.471 93.8576L253.631 97.0016H251.927ZM248.663 92.6096H250.655C251.063 92.6096 251.391 92.4896 251.639 92.2496C251.895 92.0016 252.023 91.6816 252.023 91.2896C252.023 90.8976 251.895 90.5816 251.639 90.3416C251.391 90.0936 251.063 89.9696 250.655 89.9696H248.663V92.6096Z" fill="#373943"/>
<path d="M262.927 95.5376H258.151L257.479 97.0016H255.979L259.879 88.6016H261.211L265.111 97.0016H263.611L262.927 95.5376ZM262.291 94.1696L260.539 90.3896L258.787 94.1696H262.291Z" fill="#373943"/>
<path d="M268.146 88.6016H269.406L274.374 94.7216V88.6016H275.742V97.0016H274.482L269.514 90.8936V97.0016H268.146V88.6016Z" fill="#373943"/>
<path d="M279.592 88.6016H282.556C283.34 88.6016 284.048 88.7856 284.68 89.1536C285.312 89.5136 285.808 90.0136 286.168 90.6536C286.528 91.2856 286.708 92.0016 286.708 92.8016C286.708 93.6016 286.528 94.3216 286.168 94.9616C285.808 95.5936 285.312 96.0936 284.68 96.4616C284.048 96.8216 283.34 97.0016 282.556 97.0016H279.592V88.6016ZM282.556 95.6336C283.092 95.6336 283.572 95.5136 283.996 95.2736C284.42 95.0256 284.748 94.6896 284.98 94.2656C285.22 93.8336 285.34 93.3456 285.34 92.8016C285.34 92.2576 285.22 91.7736 284.98 91.3496C284.748 90.9176 284.42 90.5816 283.996 90.3416C283.572 90.0936 283.092 89.9696 282.556 89.9696H280.96V95.6336H282.556Z" fill="#373943"/>
<path d="M290.076 88.6016H291.42L295.212 95.2256L298.992 88.6016H300.336V97.0016H298.968V91.4456L295.788 97.0016H294.624L291.444 91.4456V97.0016H290.076V88.6016Z" fill="#373943"/>
<path d="M310.314 95.5376H305.538L304.866 97.0016H303.366L307.266 88.6016H308.598L312.498 97.0016H310.998L310.314 95.5376ZM309.678 94.1696L307.926 90.3896L306.174 94.1696H309.678Z" fill="#373943"/>
<path d="M320.165 97.0016L318.173 93.9776H316.901V97.0016H315.533V88.6016H318.893C319.413 88.6016 319.881 88.7176 320.297 88.9496C320.713 89.1816 321.037 89.5016 321.269 89.9096C321.509 90.3176 321.629 90.7776 321.629 91.2896C321.629 91.9216 321.453 92.4696 321.101 92.9336C320.757 93.3896 320.293 93.6976 319.709 93.8576L321.869 97.0016H320.165ZM316.901 92.6096H318.893C319.301 92.6096 319.629 92.4896 319.877 92.2496C320.133 92.0016 320.261 91.6816 320.261 91.2896C320.261 90.8976 320.133 90.5816 319.877 90.3416C319.629 90.0936 319.301 89.9696 318.893 89.9696H316.901V92.6096Z" fill="#373943"/>
<path d="M325.033 88.6016H326.401V92.4776L330.241 88.6016H332.173L328.537 92.2736L332.185 97.0016H330.445L327.565 93.2456L326.401 94.4216V97.0016H325.033V88.6016Z" fill="#373943"/>
</g>
</g>
<defs>
<clipPath id="clip0">
<rect width="1917" height="935" fill="white"/>
</clipPath>
</defs>
</svg>
