<svg width="242" height="152" viewBox="0 0 242 152" fill="none" xmlns="http://www.w3.org/2000/svg">
<path d="M127.541 57.8454C127.541 60.5481 125.347 62.7248 122.625 62.7248C121.98 62.7262 121.34 62.6008 120.743 62.356C120.147 62.1114 119.604 61.7519 119.149 61.2986C118.691 60.8452 118.329 60.3069 118.083 59.7143C117.837 59.1216 117.71 58.4866 117.711 57.8454C117.711 55.1428 119.83 52.9661 122.625 52.9661C125.425 53.0416 127.541 55.2181 127.541 57.8454ZM107.281 67.6811V68.8826C107.281 68.8826 104.939 65.8783 99.9483 65.8783C91.7086 65.8783 85.281 72.1098 85.281 80.7424C85.281 89.3013 91.6339 95.6067 99.9483 95.6067C105.015 95.6067 107.281 92.5286 107.281 92.5286V93.8054C107.281 94.4052 107.735 94.8542 108.341 94.8542H114.462V66.6272H108.341C108.061 66.634 107.795 66.7476 107.597 66.9441C107.399 67.1407 107.286 67.4053 107.281 67.6828V67.6811ZM107.281 85.7726C106.149 87.4247 103.879 88.8506 101.159 88.8506C96.3192 88.8506 92.6139 85.848 92.6139 80.7424C92.6139 75.637 96.3192 72.6342 101.159 72.6342C103.805 72.6342 106.225 74.1356 107.281 75.7123V85.7726ZM118.999 66.6289H126.254V94.8576H118.999V66.6272V66.6289ZM227.412 65.8766C222.42 65.8766 220.076 68.8809 220.076 68.8809V53.0416H212.819V94.8576H218.944C219.224 94.8516 219.488 94.7388 219.686 94.5426C219.883 94.3464 219.995 94.0823 220 93.8054V92.5302C220 92.5302 222.346 95.6082 227.334 95.6082C235.574 95.6082 242 89.303 242 80.7458C242 72.1852 235.574 65.8766 227.409 65.8766H227.412ZM226.2 88.7753C223.402 88.7753 221.21 87.3509 220.074 85.6972V75.637C221.21 74.1356 223.63 72.5589 226.2 72.5589C231.04 72.5589 234.743 75.5615 234.743 80.6686C234.743 85.7726 231.04 88.7753 226.2 88.7753ZM209.039 78.1168V94.9314H201.781V78.9429C201.781 74.2896 200.269 72.4113 196.189 72.4113C193.999 72.4113 191.729 73.5373 190.29 75.1895V94.861H183.034V66.6272H188.778C189.383 66.6272 189.838 67.1534 189.838 67.6794V68.8809C191.953 66.7027 194.752 65.8766 197.548 65.8766C200.722 65.8766 203.369 66.778 205.486 68.5793C208.056 70.6822 209.039 73.3848 209.039 78.1134V78.1168ZM165.417 65.8766C160.428 65.8766 158.086 68.8809 158.086 68.8809V53.0416H150.827V94.8576H156.95C157.229 94.8521 157.495 94.7394 157.692 94.5432C157.89 94.3472 158.003 94.0826 158.009 93.8054V92.5302C158.009 92.5302 160.355 95.6082 165.342 95.6082C173.584 95.6082 180.008 89.303 180.008 80.7458C180.084 72.1852 173.657 65.8766 165.417 65.8766ZM164.207 88.7753C161.411 88.7753 159.22 87.3509 158.086 85.6972V75.637C159.22 74.1356 161.639 72.5589 164.207 72.5589C169.046 72.5589 172.75 75.5615 172.75 80.6686C172.75 85.7726 169.046 88.7753 164.207 88.7753ZM144.551 65.8766C146.743 65.8766 147.877 66.2535 147.877 66.2535V72.9341C147.877 72.9341 141.829 70.9067 138.05 75.1878V94.9314H130.79V66.6272H136.916C137.195 66.6332 137.459 66.7459 137.657 66.9416C137.853 67.1375 137.966 67.4013 137.972 67.6779V68.8792C139.335 67.3025 142.283 65.8749 144.551 65.8749V65.8766ZM69.1764 92.3041C68.7999 91.4025 68.4219 90.4273 68.0439 89.6012C67.4373 88.2508 66.8337 86.974 66.3064 85.7726L66.2302 85.6972C60.9366 74.2551 55.3662 62.9415 49.522 51.7663L49.2948 51.3139C48.6757 50.1461 48.0722 48.9681 47.4826 47.7852C46.7251 46.4329 45.9706 45.0087 44.7604 43.6564C42.3415 40.6522 38.8633 39 35.1595 39C31.3795 39 27.9775 40.6522 25.4824 43.5056C24.3484 44.8562 23.5178 46.2821 22.7618 47.6344C22.1706 48.8173 21.5671 49.9936 20.9495 51.1631L20.7209 51.6155C14.9 62.8756 9.23 74.2864 4.01267 85.5464L3.93723 85.6972C3.40912 86.8985 2.80338 88.1753 2.1992 89.5242C1.79461 90.4139 1.4166 91.3151 1.06535 92.2269C0.0816215 95.005 -0.22046 97.6324 0.15754 100.337C0.562606 103.084 1.68229 105.678 3.406 107.863C5.12955 110.049 7.39755 111.75 9.98599 112.798C11.9242 113.606 14.0071 114.015 16.1102 114C16.7138 114 17.4698 113.926 18.0749 113.849C20.5715 113.549 23.1413 112.724 25.6349 111.299C28.7366 109.571 31.6844 107.093 35.0102 103.49C38.3375 107.093 41.3615 109.571 44.384 111.299C46.8822 112.724 49.4504 113.549 51.944 113.849C52.5491 113.926 53.3051 114 53.9117 114C56.0273 114 58.1428 113.626 60.0328 112.798C65.3264 110.695 69.0302 105.891 69.8624 100.337C70.4628 97.7096 70.161 95.0822 69.1779 92.3041H69.1764ZM35.0833 96.2082C31 91.1026 28.3555 86.2987 27.4486 82.2455C27.0706 80.5195 26.9929 79.0166 27.2215 77.6661C27.3693 76.5347 27.7831 75.4538 28.4302 74.5108C29.8691 72.4851 32.2864 71.21 35.0833 71.21C37.8818 71.21 40.3769 72.4097 41.738 74.5108C42.3431 75.4124 42.7973 76.4646 42.9482 77.6661C43.1753 79.0182 43.0991 80.5933 42.7211 82.2455C41.8095 86.2233 39.1651 91.029 35.0833 96.2082ZM65.2471 99.737C64.7166 103.641 62.0722 107.019 58.3684 108.52C56.5531 109.271 54.5884 109.497 52.6222 109.271C50.7322 109.045 48.8422 108.445 46.8775 107.319C44.1553 105.816 41.4346 103.49 38.2582 100.037C43.2469 93.9562 46.2724 88.3999 47.4064 83.4468C47.898 81.3558 48.0255 79.1966 47.7828 77.0629C47.5028 75.2295 46.806 73.4838 45.7435 71.9589C43.3977 68.5793 39.4653 66.6289 35.0818 66.6289C30.6982 66.6289 26.7673 68.6563 24.4231 71.9572C23.3606 73.4832 22.6622 75.2299 22.3822 77.0646C22.0618 79.1951 22.1909 81.3682 22.7602 83.4468C23.8942 88.3999 26.9944 94.0298 31.9069 100.111C28.8066 103.566 26.0098 105.891 23.2875 107.394C21.3213 108.52 19.4344 109.12 17.5444 109.347C15.5953 109.562 13.6244 109.305 11.7982 108.596C8.09444 107.095 5.44689 103.715 4.91956 99.8107C4.67067 97.8332 4.904 95.8254 5.59933 93.9562C5.82489 93.2055 6.20445 92.4549 6.58245 91.5533C7.11134 90.352 7.71489 89.0752 8.32155 87.8001L8.39621 87.6493C13.6804 76.2891 19.226 65.0507 25.0298 53.943L25.2553 53.4906C25.8604 52.3663 26.4655 51.1648 27.0691 50.0388C27.6742 48.8374 28.3555 47.7097 29.1862 46.7345C30.7729 44.9332 32.89 43.9565 35.2342 43.9565C37.58 43.9565 39.6955 44.9332 41.2837 46.7345C42.1144 47.7131 42.7957 48.8391 43.3993 50.0388C44.006 51.1648 44.6111 52.3663 45.2131 53.4906L45.4402 53.943C51.174 65.099 56.6931 76.3615 61.9975 87.7246V87.8001C62.6026 89.0031 63.1315 90.3537 63.7351 91.5567C64.1146 92.4549 64.4926 93.2055 64.7182 93.9579C65.3233 95.9066 65.5488 97.7849 65.2471 99.737Z" fill="#1F1F1F"/>
</svg>
