<svg width="184" height="152" viewBox="0 0 184 152" fill="none" xmlns="http://www.w3.org/2000/svg">
<g clip-path="url(#clip0_2024_7036)">
<path fill-rule="evenodd" clip-rule="evenodd" d="M144.85 61.0063C143.23 61.0142 141.679 61.6727 140.538 62.8368C139.398 64.001 138.762 65.5755 138.77 67.2139V69.0539H133.59V75.034H138.77V88.8343C138.77 96.3613 142.54 98.9495 151.83 97.802V92.2262C147.215 92.4537 144.85 92.5144 144.85 88.8343V75.034H151.83V69.0539H144.85V61.0063ZM123.48 63.0081V97.802H129.56V56.8005C127.94 56.8084 126.389 57.4669 125.248 58.6311C124.108 59.7952 123.472 61.3697 123.48 63.0081ZM20.7501 72.7997H24.5701V61.6988C24.5801 59.667 23.7913 57.7144 22.3773 56.2706C20.9632 54.8268 19.0398 54.01 17.0301 54V68.9478C17.021 71.0436 18.6775 72.7589 20.7501 72.7997ZM3.91512 72.7239C2.87133 72.7287 1.87223 73.1528 1.13791 73.9028C0.403586 74.6528 -0.00572724 75.6671 6.05555e-05 76.7224L0.0701213 80.4227H13.3351C15.3462 80.4116 16.9684 78.7557 16.9601 76.7224V76.5202H16.9551L17.0301 72.7239H3.91512ZM20.8501 80.4935H17.0301V91.3012C17.0202 93.333 17.8089 95.2856 19.223 96.7294C20.637 98.1732 22.5604 98.99 24.5702 99V84.3454C24.5793 82.2496 22.9228 80.5343 20.8501 80.4935ZM111.725 73.1384C109.415 69.9183 106.15 68.3058 101.875 68.3058C98.1037 68.2556 94.4933 69.8486 91.9651 72.6784C89.2051 75.6103 87.8551 79.1741 87.8551 83.4305C87.7599 87.4223 89.2385 91.2887 91.9651 94.1775C94.4933 97.0073 98.1037 98.6003 101.875 98.5501C106.15 98.5501 109.415 96.9375 111.725 93.6619V97.802H117.805V69.0539H111.725V73.1384ZM109.19 90.0374C105.637 93.4882 100.023 93.4882 96.4701 90.0374C94.7806 88.2694 93.8668 85.8878 93.9351 83.4305C93.8557 80.9861 94.7721 78.616 96.4701 76.8741C99.9933 73.3489 105.667 73.3489 109.19 76.8741C110.888 78.616 111.805 80.9861 111.725 83.4305C111.793 85.8878 110.88 88.2694 109.19 90.0374ZM71.0651 68.3108C66.7301 68.3108 63.1301 69.7465 60.3701 72.6784C57.6151 75.5497 56.2051 79.1135 56.2051 83.4305C56.2051 87.798 57.6134 91.4191 60.4301 94.2938C63.2401 97.1094 66.9551 98.5501 71.5151 98.5501C76.9801 98.5501 81.0851 96.4775 83.8451 92.2818L78.8351 89.2943C77.2051 91.65 74.7851 92.8581 71.5751 92.8581C66.9001 92.8581 63.4651 90.4418 62.5651 86.0742H84.9701C85.1107 85.2186 85.186 84.3534 85.1951 83.4861C85.2777 79.5165 83.8473 75.6668 81.2001 72.734C78.6286 69.8258 74.9221 68.2082 71.0651 68.3108ZM62.5101 81.0142C63.3551 76.6415 66.5051 73.9421 71.0101 73.9421C75.0051 73.9421 78.2151 76.3585 79.0601 81.0142H62.5101ZM28.2751 72.7239C26.264 72.735 24.6418 74.3909 24.6501 76.4242V76.6264H24.6551L24.5801 80.4227H37.6951C38.7389 80.4179 39.738 79.9938 40.4723 79.2438C41.2067 78.4938 41.616 77.4795 41.6102 76.4242L41.5401 72.7239H28.2751ZM44.3951 61.2135V91.7814C44.3845 93.686 45.123 95.5169 46.4481 96.8708C47.7732 98.2247 49.5762 98.9906 51.4601 99V54C49.5771 54.0094 47.7748 54.7746 46.4499 56.1274C45.1249 57.4802 44.3858 59.3098 44.3951 61.2135ZM154.2 83.4305C154.23 75.1181 160.915 68.4016 169.137 68.422C177.358 68.4425 184.01 75.1922 184 83.5045C183.99 91.8169 177.322 98.55 169.1 98.5501C165.129 98.5816 161.313 96.9969 158.51 94.153C155.708 91.309 154.154 87.4448 154.2 83.4305ZM177.905 83.4305C177.905 78.1985 174.065 74.3465 169.1 74.3465C164.135 74.3465 160.295 78.1985 160.295 83.4305C160.295 88.6624 164.135 92.5093 169.1 92.5093C174.065 92.5093 177.905 88.6624 177.905 83.4305Z" fill="#1F1F1F"/>
</g>
<defs>
<clipPath id="clip0_2024_7036">
<rect width="184" height="152" fill="white"/>
</clipPath>
</defs>
</svg>
